M48
;DRILL file {KiCad (2018-02-13 revision 365ab99a6)-makepkg} date 03/19/18 17:20:50
;FORMAT={-:-/ absolute / metric / decimal}
FMAT,2
METRIC,TZ
T1C0.650
T2C1.200
T3C1.800
T4C3.200
%
G90
G05
M71
T1
X278.25Y-118.9
X300.25Y-118.9
T2
X244.4Y-154.5
X253.4Y-154.5
X289.775Y-90.25
X289.775Y-99.25
X204.3Y-157.8
X225.3Y-157.8
X264.775Y-154.325
X305.9Y-145.875
X305.9Y-158.875
X204.325Y-88.65
X219.325Y-88.65
X176.925Y-123.325
X176.925Y-130.325
X302.15Y-90.25
X302.15Y-99.25
X273.775Y-154.325
X313.775Y-133.35
X313.775Y-146.35
X313.725Y-99.175
X313.725Y-112.175
T3
X274.05Y-108.3
X274.05Y-138.3
X304.05Y-108.3
X304.05Y-138.3
T4
X294.8Y-145.3
X214.45Y-125.3
X229.8Y-105.3
X214.45Y-137.3
T0
M30
