%TF.GenerationSoftware,KiCad,Pcbnew,(2018-02-13 revision 365ab99a6)-makepkg*%
%TF.CreationDate,2018-03-19T17:21:01+01:00*%
%TF.ProjectId,Autopilot_Rev0,4175746F70696C6F745F526576302E6B,rev?*%
%TF.SameCoordinates,Original*%
%TF.FileFunction,Soldermask,Bot*%
%TF.FilePolarity,Negative*%
%FSLAX46Y46*%
G04 Gerber Fmt 4.6, Leading zero omitted, Abs format (unit mm)*
G04 Created by KiCad (PCBNEW (2018-02-13 revision 365ab99a6)-makepkg) date 03/19/18 17:21:01*
%MOMM*%
%LPD*%
G01*
G04 APERTURE LIST*
%ADD10C,0.150000*%
%ADD11C,0.100000*%
G04 APERTURE END LIST*
D10*
%TO.C,JP4*%
X226798000Y-138136000D02*
X227052000Y-138136000D01*
X226798000Y-139914000D02*
X227052000Y-139914000D01*
X226925000Y-138136000D02*
X226925000Y-139914000D01*
X227814000Y-138707500D02*
X227814000Y-139406000D01*
X227560000Y-139723500D02*
X227560000Y-138326500D01*
X227433000Y-138263000D02*
X227433000Y-139787000D01*
X227306000Y-139850500D02*
X227306000Y-138199500D01*
X227179000Y-138199500D02*
X227179000Y-139850500D01*
X227052000Y-139914000D02*
X227052000Y-138136000D01*
X227052000Y-138136000D02*
G75*
G02X227941000Y-139025000I0J-889000D01*
G01*
X227941000Y-139025000D02*
G75*
G02X227052000Y-139914000I-889000J0D01*
G01*
X226036000Y-139406000D02*
X226036000Y-138644000D01*
X226290000Y-138326500D02*
X226290000Y-139723500D01*
X226417000Y-139787000D02*
X226417000Y-138263000D01*
X226544000Y-138199500D02*
X226544000Y-139850500D01*
X226671000Y-139850500D02*
X226671000Y-138199500D01*
X226798000Y-139914000D02*
X226798000Y-138136000D01*
X225909000Y-139025000D02*
G75*
G02X226798000Y-138136000I889000J0D01*
G01*
X226798000Y-139914000D02*
G75*
G02X225909000Y-139025000I0J889000D01*
G01*
D11*
G36*
X236415687Y-157757039D02*
X236415692Y-157757041D01*
X236419284Y-157758529D01*
X236619522Y-157841470D01*
X236751406Y-157929593D01*
X236802958Y-157964039D01*
X236958961Y-158120042D01*
X236958963Y-158120045D01*
X237081530Y-158303478D01*
X237165961Y-158507313D01*
X237209000Y-158723687D01*
X237209000Y-158944313D01*
X237165961Y-159160687D01*
X237081530Y-159364522D01*
X236982282Y-159513056D01*
X236958961Y-159547958D01*
X236802958Y-159703961D01*
X236802955Y-159703963D01*
X236619522Y-159826530D01*
X236415687Y-159910961D01*
X236199313Y-159954000D01*
X235978687Y-159954000D01*
X235762313Y-159910961D01*
X235558478Y-159826530D01*
X235375045Y-159703963D01*
X235375042Y-159703961D01*
X235219039Y-159547958D01*
X235195718Y-159513056D01*
X235096470Y-159364522D01*
X235012039Y-159160687D01*
X234969000Y-158944313D01*
X234969000Y-158723687D01*
X235012039Y-158507313D01*
X235096470Y-158303478D01*
X235219037Y-158120045D01*
X235219039Y-158120042D01*
X235375042Y-157964039D01*
X235426594Y-157929593D01*
X235558478Y-157841470D01*
X235758716Y-157758529D01*
X235762308Y-157757041D01*
X235762313Y-157757039D01*
X235978687Y-157714000D01*
X236199313Y-157714000D01*
X236415687Y-157757039D01*
X236415687Y-157757039D01*
G37*
G36*
X306040465Y-158168835D02*
X306110016Y-158182669D01*
X306241048Y-158236944D01*
X306358973Y-158315739D01*
X306459261Y-158416027D01*
X306538056Y-158533952D01*
X306592331Y-158664984D01*
X306620000Y-158804086D01*
X306620000Y-158945914D01*
X306592331Y-159085016D01*
X306538056Y-159216048D01*
X306459261Y-159333973D01*
X306358973Y-159434261D01*
X306241048Y-159513056D01*
X306110016Y-159567331D01*
X306040465Y-159581165D01*
X305970916Y-159595000D01*
X305829084Y-159595000D01*
X305759535Y-159581165D01*
X305689984Y-159567331D01*
X305558952Y-159513056D01*
X305441027Y-159434261D01*
X305340739Y-159333973D01*
X305261944Y-159216048D01*
X305207669Y-159085016D01*
X305180000Y-158945914D01*
X305180000Y-158804086D01*
X305207669Y-158664984D01*
X305261944Y-158533952D01*
X305340739Y-158416027D01*
X305441027Y-158315739D01*
X305558952Y-158236944D01*
X305689984Y-158182669D01*
X305759535Y-158168834D01*
X305829084Y-158155000D01*
X305970916Y-158155000D01*
X306040465Y-158168835D01*
X306040465Y-158168835D01*
G37*
G36*
X175355687Y-156802039D02*
X175559522Y-156886470D01*
X175742131Y-157008486D01*
X175742958Y-157009039D01*
X175898961Y-157165042D01*
X175898963Y-157165045D01*
X176021530Y-157348478D01*
X176105961Y-157552313D01*
X176149000Y-157768687D01*
X176149000Y-157989313D01*
X176105961Y-158205687D01*
X176021530Y-158409522D01*
X175938388Y-158533952D01*
X175898961Y-158592958D01*
X175742958Y-158748961D01*
X175742955Y-158748963D01*
X175559522Y-158871530D01*
X175355687Y-158955961D01*
X175139313Y-158999000D01*
X174918687Y-158999000D01*
X174702313Y-158955961D01*
X174498478Y-158871530D01*
X174315045Y-158748963D01*
X174315042Y-158748961D01*
X174159039Y-158592958D01*
X174119612Y-158533952D01*
X174036470Y-158409522D01*
X173952039Y-158205687D01*
X173909000Y-157989313D01*
X173909000Y-157768687D01*
X173952039Y-157552313D01*
X174036470Y-157348478D01*
X174159037Y-157165045D01*
X174159039Y-157165042D01*
X174315042Y-157009039D01*
X174315870Y-157008486D01*
X174498478Y-156886470D01*
X174702313Y-156802039D01*
X174918687Y-156759000D01*
X175139313Y-156759000D01*
X175355687Y-156802039D01*
X175355687Y-156802039D01*
G37*
G36*
X193897687Y-156802039D02*
X194101522Y-156886470D01*
X194284131Y-157008486D01*
X194284958Y-157009039D01*
X194440961Y-157165042D01*
X194440963Y-157165045D01*
X194563530Y-157348478D01*
X194647961Y-157552313D01*
X194691000Y-157768687D01*
X194691000Y-157989313D01*
X194647961Y-158205687D01*
X194563530Y-158409522D01*
X194480388Y-158533952D01*
X194440961Y-158592958D01*
X194284958Y-158748961D01*
X194284955Y-158748963D01*
X194101522Y-158871530D01*
X193897687Y-158955961D01*
X193681313Y-158999000D01*
X193460687Y-158999000D01*
X193244313Y-158955961D01*
X193040478Y-158871530D01*
X192857045Y-158748963D01*
X192857042Y-158748961D01*
X192701039Y-158592958D01*
X192661612Y-158533952D01*
X192578470Y-158409522D01*
X192494039Y-158205687D01*
X192451000Y-157989313D01*
X192451000Y-157768687D01*
X192494039Y-157552313D01*
X192578470Y-157348478D01*
X192701037Y-157165045D01*
X192701039Y-157165042D01*
X192857042Y-157009039D01*
X192857870Y-157008486D01*
X193040478Y-156886470D01*
X193244313Y-156802039D01*
X193460687Y-156759000D01*
X193681313Y-156759000D01*
X193897687Y-156802039D01*
X193897687Y-156802039D01*
G37*
G36*
X233176289Y-155354019D02*
X233498408Y-155487445D01*
X233765173Y-155665692D01*
X233788309Y-155681151D01*
X234034849Y-155927691D01*
X234034851Y-155927694D01*
X234228555Y-156217592D01*
X234361981Y-156539711D01*
X234430000Y-156881668D01*
X234430000Y-157230332D01*
X234361981Y-157572289D01*
X234228555Y-157894408D01*
X234085980Y-158107786D01*
X234034849Y-158184309D01*
X233788309Y-158430849D01*
X233788306Y-158430851D01*
X233498408Y-158624555D01*
X233176289Y-158757981D01*
X232834332Y-158826000D01*
X232485668Y-158826000D01*
X232143711Y-158757981D01*
X231821592Y-158624555D01*
X231531694Y-158430851D01*
X231531691Y-158430849D01*
X231285151Y-158184309D01*
X231234020Y-158107786D01*
X231091445Y-157894408D01*
X230958019Y-157572289D01*
X230890000Y-157230332D01*
X230890000Y-156881668D01*
X230958019Y-156539711D01*
X231091445Y-156217592D01*
X231285149Y-155927694D01*
X231285151Y-155927691D01*
X231531691Y-155681151D01*
X231554827Y-155665692D01*
X231821592Y-155487445D01*
X232143711Y-155354019D01*
X232485668Y-155286000D01*
X232834332Y-155286000D01*
X233176289Y-155354019D01*
X233176289Y-155354019D01*
G37*
G36*
X204440465Y-157093835D02*
X204510016Y-157107669D01*
X204641048Y-157161944D01*
X204758973Y-157240739D01*
X204859261Y-157341027D01*
X204938056Y-157458952D01*
X204992331Y-157589984D01*
X204992331Y-157589986D01*
X205018680Y-157722446D01*
X205020000Y-157729086D01*
X205020000Y-157870914D01*
X204992331Y-158010016D01*
X204938056Y-158141048D01*
X204859261Y-158258973D01*
X204758973Y-158359261D01*
X204641048Y-158438056D01*
X204510016Y-158492331D01*
X204440465Y-158506166D01*
X204370916Y-158520000D01*
X204229084Y-158520000D01*
X204159535Y-158506166D01*
X204089984Y-158492331D01*
X203958952Y-158438056D01*
X203841027Y-158359261D01*
X203740739Y-158258973D01*
X203661944Y-158141048D01*
X203607669Y-158010016D01*
X203580000Y-157870914D01*
X203580000Y-157729086D01*
X203581321Y-157722446D01*
X203607669Y-157589986D01*
X203607669Y-157589984D01*
X203661944Y-157458952D01*
X203740739Y-157341027D01*
X203841027Y-157240739D01*
X203958952Y-157161944D01*
X204089984Y-157107669D01*
X204159535Y-157093835D01*
X204229084Y-157080000D01*
X204370916Y-157080000D01*
X204440465Y-157093835D01*
X204440465Y-157093835D01*
G37*
G36*
X225440465Y-157093835D02*
X225510016Y-157107669D01*
X225641048Y-157161944D01*
X225758973Y-157240739D01*
X225859261Y-157341027D01*
X225938056Y-157458952D01*
X225992331Y-157589984D01*
X225992331Y-157589986D01*
X226018680Y-157722446D01*
X226020000Y-157729086D01*
X226020000Y-157870914D01*
X225992331Y-158010016D01*
X225938056Y-158141048D01*
X225859261Y-158258973D01*
X225758973Y-158359261D01*
X225641048Y-158438056D01*
X225510016Y-158492331D01*
X225440465Y-158506166D01*
X225370916Y-158520000D01*
X225229084Y-158520000D01*
X225159535Y-158506166D01*
X225089984Y-158492331D01*
X224958952Y-158438056D01*
X224841027Y-158359261D01*
X224740739Y-158258973D01*
X224661944Y-158141048D01*
X224607669Y-158010016D01*
X224580000Y-157870914D01*
X224580000Y-157729086D01*
X224581321Y-157722446D01*
X224607669Y-157589986D01*
X224607669Y-157589984D01*
X224661944Y-157458952D01*
X224740739Y-157341027D01*
X224841027Y-157240739D01*
X224958952Y-157161944D01*
X225089984Y-157107669D01*
X225159535Y-157093835D01*
X225229084Y-157080000D01*
X225370916Y-157080000D01*
X225440465Y-157093835D01*
X225440465Y-157093835D01*
G37*
G36*
X304397743Y-156527289D02*
X304453770Y-156538433D01*
X304612100Y-156604016D01*
X304754593Y-156699227D01*
X304875773Y-156820407D01*
X304925615Y-156895000D01*
X304970985Y-156962902D01*
X304990095Y-157009037D01*
X305030950Y-157107669D01*
X305036567Y-157121231D01*
X305070000Y-157289310D01*
X305070000Y-157460690D01*
X305036567Y-157628769D01*
X304982035Y-157760422D01*
X304970984Y-157787100D01*
X304875773Y-157929593D01*
X304754593Y-158050773D01*
X304612100Y-158145984D01*
X304453770Y-158211567D01*
X304397743Y-158222711D01*
X304285690Y-158245000D01*
X304114310Y-158245000D01*
X304002257Y-158222711D01*
X303946230Y-158211567D01*
X303787900Y-158145984D01*
X303645407Y-158050773D01*
X303524227Y-157929593D01*
X303429016Y-157787100D01*
X303417966Y-157760422D01*
X303363433Y-157628769D01*
X303330000Y-157460690D01*
X303330000Y-157289310D01*
X303363433Y-157121231D01*
X303369051Y-157107669D01*
X303409905Y-157009037D01*
X303429015Y-156962902D01*
X303474386Y-156895000D01*
X303524227Y-156820407D01*
X303645407Y-156699227D01*
X303787900Y-156604016D01*
X303946230Y-156538433D01*
X304002257Y-156527289D01*
X304114310Y-156505000D01*
X304285690Y-156505000D01*
X304397743Y-156527289D01*
X304397743Y-156527289D01*
G37*
G36*
X200651732Y-152492213D02*
X200921645Y-152604015D01*
X201183139Y-152712329D01*
X201661392Y-153031888D01*
X202068112Y-153438608D01*
X202387671Y-153916861D01*
X202415461Y-153983952D01*
X202607787Y-154448268D01*
X202720000Y-155012403D01*
X202720000Y-155587597D01*
X202607787Y-156151732D01*
X202492524Y-156430000D01*
X202387671Y-156683139D01*
X202068112Y-157161392D01*
X201661392Y-157568112D01*
X201183139Y-157887671D01*
X201081937Y-157929590D01*
X200651732Y-158107787D01*
X200087597Y-158220000D01*
X199512403Y-158220000D01*
X198948268Y-158107787D01*
X198518063Y-157929590D01*
X198416861Y-157887671D01*
X197938608Y-157568112D01*
X197531888Y-157161392D01*
X197212329Y-156683139D01*
X197107476Y-156430000D01*
X196992213Y-156151732D01*
X196880000Y-155587597D01*
X196880000Y-155012403D01*
X196992213Y-154448268D01*
X197184539Y-153983952D01*
X197212329Y-153916861D01*
X197531888Y-153438608D01*
X197938608Y-153031888D01*
X198416861Y-152712329D01*
X198678355Y-152604015D01*
X198948268Y-152492213D01*
X199512403Y-152380000D01*
X200087597Y-152380000D01*
X200651732Y-152492213D01*
X200651732Y-152492213D01*
G37*
G36*
X262639975Y-156441471D02*
X262640092Y-156441508D01*
X262640101Y-156441509D01*
X262765217Y-156481199D01*
X262880363Y-156544500D01*
X262981013Y-156628956D01*
X263063344Y-156731355D01*
X263124221Y-156847803D01*
X263161318Y-156973844D01*
X263173227Y-157104700D01*
X263159492Y-157235376D01*
X263120639Y-157360892D01*
X263058142Y-157476475D01*
X262974391Y-157577714D01*
X262872570Y-157660757D01*
X262756550Y-157722446D01*
X262630769Y-157760422D01*
X262533079Y-157770000D01*
X261769164Y-157770000D01*
X261660025Y-157758529D01*
X261659908Y-157758492D01*
X261659899Y-157758491D01*
X261534783Y-157718801D01*
X261419637Y-157655500D01*
X261318987Y-157571044D01*
X261236656Y-157468645D01*
X261175779Y-157352197D01*
X261138682Y-157226156D01*
X261126773Y-157095300D01*
X261140508Y-156964624D01*
X261179361Y-156839108D01*
X261241858Y-156723525D01*
X261325609Y-156622286D01*
X261427430Y-156539243D01*
X261543450Y-156477554D01*
X261669231Y-156439578D01*
X261766921Y-156430000D01*
X262530836Y-156430000D01*
X262639975Y-156441471D01*
X262639975Y-156441471D01*
G37*
G36*
X257039975Y-156441471D02*
X257040092Y-156441508D01*
X257040101Y-156441509D01*
X257165217Y-156481199D01*
X257280363Y-156544500D01*
X257381013Y-156628956D01*
X257463344Y-156731355D01*
X257524221Y-156847803D01*
X257561318Y-156973844D01*
X257573227Y-157104700D01*
X257559492Y-157235376D01*
X257520639Y-157360892D01*
X257458142Y-157476475D01*
X257374391Y-157577714D01*
X257272570Y-157660757D01*
X257156550Y-157722446D01*
X257030769Y-157760422D01*
X256933079Y-157770000D01*
X256169164Y-157770000D01*
X256060025Y-157758529D01*
X256059908Y-157758492D01*
X256059899Y-157758491D01*
X255934783Y-157718801D01*
X255819637Y-157655500D01*
X255718987Y-157571044D01*
X255636656Y-157468645D01*
X255575779Y-157352197D01*
X255538682Y-157226156D01*
X255526773Y-157095300D01*
X255540508Y-156964624D01*
X255579361Y-156839108D01*
X255641858Y-156723525D01*
X255725609Y-156622286D01*
X255827430Y-156539243D01*
X255943450Y-156477554D01*
X256069231Y-156439578D01*
X256166921Y-156430000D01*
X256930836Y-156430000D01*
X257039975Y-156441471D01*
X257039975Y-156441471D01*
G37*
G36*
X246097743Y-155352289D02*
X246153770Y-155363433D01*
X246265726Y-155409807D01*
X246300539Y-155424227D01*
X246312100Y-155429016D01*
X246454593Y-155524227D01*
X246575773Y-155645407D01*
X246670984Y-155787900D01*
X246733701Y-155939310D01*
X246736567Y-155946231D01*
X246770000Y-156114310D01*
X246770000Y-156285690D01*
X246756458Y-156353769D01*
X246736567Y-156453770D01*
X246670984Y-156612100D01*
X246575773Y-156754593D01*
X246454593Y-156875773D01*
X246312100Y-156970984D01*
X246312099Y-156970985D01*
X246312098Y-156970985D01*
X246265726Y-156990193D01*
X246153770Y-157036567D01*
X246097743Y-157047711D01*
X245985690Y-157070000D01*
X245814310Y-157070000D01*
X245702257Y-157047711D01*
X245646230Y-157036567D01*
X245534274Y-156990193D01*
X245487902Y-156970985D01*
X245487901Y-156970985D01*
X245487900Y-156970984D01*
X245345407Y-156875773D01*
X245224227Y-156754593D01*
X245129016Y-156612100D01*
X245063433Y-156453770D01*
X245043542Y-156353769D01*
X245030000Y-156285690D01*
X245030000Y-156114310D01*
X245063433Y-155946231D01*
X245066300Y-155939310D01*
X245129016Y-155787900D01*
X245224227Y-155645407D01*
X245345407Y-155524227D01*
X245487900Y-155429016D01*
X245499462Y-155424227D01*
X245534274Y-155409807D01*
X245646230Y-155363433D01*
X245702257Y-155352289D01*
X245814310Y-155330000D01*
X245985690Y-155330000D01*
X246097743Y-155352289D01*
X246097743Y-155352289D01*
G37*
G36*
X248097743Y-155352289D02*
X248153770Y-155363433D01*
X248265726Y-155409807D01*
X248300539Y-155424227D01*
X248312100Y-155429016D01*
X248454593Y-155524227D01*
X248575773Y-155645407D01*
X248670984Y-155787900D01*
X248733701Y-155939310D01*
X248736567Y-155946231D01*
X248770000Y-156114310D01*
X248770000Y-156285690D01*
X248756458Y-156353769D01*
X248736567Y-156453770D01*
X248670984Y-156612100D01*
X248575773Y-156754593D01*
X248454593Y-156875773D01*
X248312100Y-156970984D01*
X248312099Y-156970985D01*
X248312098Y-156970985D01*
X248265726Y-156990193D01*
X248153770Y-157036567D01*
X248097743Y-157047711D01*
X247985690Y-157070000D01*
X247814310Y-157070000D01*
X247702257Y-157047711D01*
X247646230Y-157036567D01*
X247534274Y-156990193D01*
X247487902Y-156970985D01*
X247487901Y-156970985D01*
X247487900Y-156970984D01*
X247345407Y-156875773D01*
X247224227Y-156754593D01*
X247129016Y-156612100D01*
X247063433Y-156453770D01*
X247043542Y-156353769D01*
X247030000Y-156285690D01*
X247030000Y-156114310D01*
X247063433Y-155946231D01*
X247066300Y-155939310D01*
X247129016Y-155787900D01*
X247224227Y-155645407D01*
X247345407Y-155524227D01*
X247487900Y-155429016D01*
X247499462Y-155424227D01*
X247534274Y-155409807D01*
X247646230Y-155363433D01*
X247702257Y-155352289D01*
X247814310Y-155330000D01*
X247985690Y-155330000D01*
X248097743Y-155352289D01*
X248097743Y-155352289D01*
G37*
G36*
X250097743Y-155352289D02*
X250153770Y-155363433D01*
X250265726Y-155409807D01*
X250300539Y-155424227D01*
X250312100Y-155429016D01*
X250454593Y-155524227D01*
X250575773Y-155645407D01*
X250670984Y-155787900D01*
X250733701Y-155939310D01*
X250736567Y-155946231D01*
X250770000Y-156114310D01*
X250770000Y-156285690D01*
X250756458Y-156353769D01*
X250736567Y-156453770D01*
X250670984Y-156612100D01*
X250575773Y-156754593D01*
X250454593Y-156875773D01*
X250312100Y-156970984D01*
X250312099Y-156970985D01*
X250312098Y-156970985D01*
X250265726Y-156990193D01*
X250153770Y-157036567D01*
X250097743Y-157047711D01*
X249985690Y-157070000D01*
X249814310Y-157070000D01*
X249702257Y-157047711D01*
X249646230Y-157036567D01*
X249534274Y-156990193D01*
X249487902Y-156970985D01*
X249487901Y-156970985D01*
X249487900Y-156970984D01*
X249345407Y-156875773D01*
X249224227Y-156754593D01*
X249129016Y-156612100D01*
X249063433Y-156453770D01*
X249043542Y-156353769D01*
X249030000Y-156285690D01*
X249030000Y-156114310D01*
X249063433Y-155946231D01*
X249066300Y-155939310D01*
X249129016Y-155787900D01*
X249224227Y-155645407D01*
X249345407Y-155524227D01*
X249487900Y-155429016D01*
X249499462Y-155424227D01*
X249534274Y-155409807D01*
X249646230Y-155363433D01*
X249702257Y-155352289D01*
X249814310Y-155330000D01*
X249985690Y-155330000D01*
X250097743Y-155352289D01*
X250097743Y-155352289D01*
G37*
G36*
X252097743Y-155352289D02*
X252153770Y-155363433D01*
X252265726Y-155409807D01*
X252300539Y-155424227D01*
X252312100Y-155429016D01*
X252454593Y-155524227D01*
X252575773Y-155645407D01*
X252670984Y-155787900D01*
X252733701Y-155939310D01*
X252736567Y-155946231D01*
X252770000Y-156114310D01*
X252770000Y-156285690D01*
X252756458Y-156353769D01*
X252736567Y-156453770D01*
X252670984Y-156612100D01*
X252575773Y-156754593D01*
X252454593Y-156875773D01*
X252312100Y-156970984D01*
X252312099Y-156970985D01*
X252312098Y-156970985D01*
X252265726Y-156990193D01*
X252153770Y-157036567D01*
X252097743Y-157047711D01*
X251985690Y-157070000D01*
X251814310Y-157070000D01*
X251702257Y-157047711D01*
X251646230Y-157036567D01*
X251534274Y-156990193D01*
X251487902Y-156970985D01*
X251487901Y-156970985D01*
X251487900Y-156970984D01*
X251345407Y-156875773D01*
X251224227Y-156754593D01*
X251129016Y-156612100D01*
X251063433Y-156453770D01*
X251043542Y-156353769D01*
X251030000Y-156285690D01*
X251030000Y-156114310D01*
X251063433Y-155946231D01*
X251066300Y-155939310D01*
X251129016Y-155787900D01*
X251224227Y-155645407D01*
X251345407Y-155524227D01*
X251487900Y-155429016D01*
X251499462Y-155424227D01*
X251534274Y-155409807D01*
X251646230Y-155363433D01*
X251702257Y-155352289D01*
X251814310Y-155330000D01*
X251985690Y-155330000D01*
X252097743Y-155352289D01*
X252097743Y-155352289D01*
G37*
G36*
X205997743Y-155252289D02*
X206053770Y-155263433D01*
X206165726Y-155309807D01*
X206205959Y-155326472D01*
X206212100Y-155329016D01*
X206354593Y-155424227D01*
X206475773Y-155545407D01*
X206570984Y-155687900D01*
X206612407Y-155787902D01*
X206636567Y-155846231D01*
X206670000Y-156014310D01*
X206670000Y-156185690D01*
X206651485Y-156278769D01*
X206636567Y-156353770D01*
X206570984Y-156512100D01*
X206475773Y-156654593D01*
X206354593Y-156775773D01*
X206212100Y-156870984D01*
X206212099Y-156870985D01*
X206212098Y-156870985D01*
X206200534Y-156875775D01*
X206053770Y-156936567D01*
X205997743Y-156947711D01*
X205885690Y-156970000D01*
X205714310Y-156970000D01*
X205602257Y-156947711D01*
X205546230Y-156936567D01*
X205399466Y-156875775D01*
X205387902Y-156870985D01*
X205387901Y-156870985D01*
X205387900Y-156870984D01*
X205245407Y-156775773D01*
X205124227Y-156654593D01*
X205029016Y-156512100D01*
X204963433Y-156353770D01*
X204948515Y-156278769D01*
X204930000Y-156185690D01*
X204930000Y-156014310D01*
X204963433Y-155846231D01*
X204987594Y-155787902D01*
X205029016Y-155687900D01*
X205124227Y-155545407D01*
X205245407Y-155424227D01*
X205387900Y-155329016D01*
X205394042Y-155326472D01*
X205434274Y-155309807D01*
X205546230Y-155263433D01*
X205602257Y-155252289D01*
X205714310Y-155230000D01*
X205885690Y-155230000D01*
X205997743Y-155252289D01*
X205997743Y-155252289D01*
G37*
G36*
X223997743Y-155252289D02*
X224053770Y-155263433D01*
X224165726Y-155309807D01*
X224205959Y-155326472D01*
X224212100Y-155329016D01*
X224354593Y-155424227D01*
X224475773Y-155545407D01*
X224570984Y-155687900D01*
X224612407Y-155787902D01*
X224636567Y-155846231D01*
X224670000Y-156014310D01*
X224670000Y-156185690D01*
X224651485Y-156278769D01*
X224636567Y-156353770D01*
X224570984Y-156512100D01*
X224475773Y-156654593D01*
X224354593Y-156775773D01*
X224212100Y-156870984D01*
X224212099Y-156870985D01*
X224212098Y-156870985D01*
X224200534Y-156875775D01*
X224053770Y-156936567D01*
X223997743Y-156947711D01*
X223885690Y-156970000D01*
X223714310Y-156970000D01*
X223602257Y-156947711D01*
X223546230Y-156936567D01*
X223399466Y-156875775D01*
X223387902Y-156870985D01*
X223387901Y-156870985D01*
X223387900Y-156870984D01*
X223245407Y-156775773D01*
X223124227Y-156654593D01*
X223029016Y-156512100D01*
X222963433Y-156353770D01*
X222948515Y-156278769D01*
X222930000Y-156185690D01*
X222930000Y-156014310D01*
X222963433Y-155846231D01*
X222987594Y-155787902D01*
X223029016Y-155687900D01*
X223124227Y-155545407D01*
X223245407Y-155424227D01*
X223387900Y-155329016D01*
X223394042Y-155326472D01*
X223434274Y-155309807D01*
X223546230Y-155263433D01*
X223602257Y-155252289D01*
X223714310Y-155230000D01*
X223885690Y-155230000D01*
X223997743Y-155252289D01*
X223997743Y-155252289D01*
G37*
G36*
X221997743Y-155252289D02*
X222053770Y-155263433D01*
X222165726Y-155309807D01*
X222205959Y-155326472D01*
X222212100Y-155329016D01*
X222354593Y-155424227D01*
X222475773Y-155545407D01*
X222570984Y-155687900D01*
X222612407Y-155787902D01*
X222636567Y-155846231D01*
X222670000Y-156014310D01*
X222670000Y-156185690D01*
X222651485Y-156278769D01*
X222636567Y-156353770D01*
X222570984Y-156512100D01*
X222475773Y-156654593D01*
X222354593Y-156775773D01*
X222212100Y-156870984D01*
X222212099Y-156870985D01*
X222212098Y-156870985D01*
X222200534Y-156875775D01*
X222053770Y-156936567D01*
X221997743Y-156947711D01*
X221885690Y-156970000D01*
X221714310Y-156970000D01*
X221602257Y-156947711D01*
X221546230Y-156936567D01*
X221399466Y-156875775D01*
X221387902Y-156870985D01*
X221387901Y-156870985D01*
X221387900Y-156870984D01*
X221245407Y-156775773D01*
X221124227Y-156654593D01*
X221029016Y-156512100D01*
X220963433Y-156353770D01*
X220948515Y-156278769D01*
X220930000Y-156185690D01*
X220930000Y-156014310D01*
X220963433Y-155846231D01*
X220987594Y-155787902D01*
X221029016Y-155687900D01*
X221124227Y-155545407D01*
X221245407Y-155424227D01*
X221387900Y-155329016D01*
X221394042Y-155326472D01*
X221434274Y-155309807D01*
X221546230Y-155263433D01*
X221602257Y-155252289D01*
X221714310Y-155230000D01*
X221885690Y-155230000D01*
X221997743Y-155252289D01*
X221997743Y-155252289D01*
G37*
G36*
X219997743Y-155252289D02*
X220053770Y-155263433D01*
X220165726Y-155309807D01*
X220205959Y-155326472D01*
X220212100Y-155329016D01*
X220354593Y-155424227D01*
X220475773Y-155545407D01*
X220570984Y-155687900D01*
X220612407Y-155787902D01*
X220636567Y-155846231D01*
X220670000Y-156014310D01*
X220670000Y-156185690D01*
X220651485Y-156278769D01*
X220636567Y-156353770D01*
X220570984Y-156512100D01*
X220475773Y-156654593D01*
X220354593Y-156775773D01*
X220212100Y-156870984D01*
X220212099Y-156870985D01*
X220212098Y-156870985D01*
X220200534Y-156875775D01*
X220053770Y-156936567D01*
X219997743Y-156947711D01*
X219885690Y-156970000D01*
X219714310Y-156970000D01*
X219602257Y-156947711D01*
X219546230Y-156936567D01*
X219399466Y-156875775D01*
X219387902Y-156870985D01*
X219387901Y-156870985D01*
X219387900Y-156870984D01*
X219245407Y-156775773D01*
X219124227Y-156654593D01*
X219029016Y-156512100D01*
X218963433Y-156353770D01*
X218948515Y-156278769D01*
X218930000Y-156185690D01*
X218930000Y-156014310D01*
X218963433Y-155846231D01*
X218987594Y-155787902D01*
X219029016Y-155687900D01*
X219124227Y-155545407D01*
X219245407Y-155424227D01*
X219387900Y-155329016D01*
X219394042Y-155326472D01*
X219434274Y-155309807D01*
X219546230Y-155263433D01*
X219602257Y-155252289D01*
X219714310Y-155230000D01*
X219885690Y-155230000D01*
X219997743Y-155252289D01*
X219997743Y-155252289D01*
G37*
G36*
X217997743Y-155252289D02*
X218053770Y-155263433D01*
X218165726Y-155309807D01*
X218205959Y-155326472D01*
X218212100Y-155329016D01*
X218354593Y-155424227D01*
X218475773Y-155545407D01*
X218570984Y-155687900D01*
X218612407Y-155787902D01*
X218636567Y-155846231D01*
X218670000Y-156014310D01*
X218670000Y-156185690D01*
X218651485Y-156278769D01*
X218636567Y-156353770D01*
X218570984Y-156512100D01*
X218475773Y-156654593D01*
X218354593Y-156775773D01*
X218212100Y-156870984D01*
X218212099Y-156870985D01*
X218212098Y-156870985D01*
X218200534Y-156875775D01*
X218053770Y-156936567D01*
X217997743Y-156947711D01*
X217885690Y-156970000D01*
X217714310Y-156970000D01*
X217602257Y-156947711D01*
X217546230Y-156936567D01*
X217399466Y-156875775D01*
X217387902Y-156870985D01*
X217387901Y-156870985D01*
X217387900Y-156870984D01*
X217245407Y-156775773D01*
X217124227Y-156654593D01*
X217029016Y-156512100D01*
X216963433Y-156353770D01*
X216948515Y-156278769D01*
X216930000Y-156185690D01*
X216930000Y-156014310D01*
X216963433Y-155846231D01*
X216987594Y-155787902D01*
X217029016Y-155687900D01*
X217124227Y-155545407D01*
X217245407Y-155424227D01*
X217387900Y-155329016D01*
X217394042Y-155326472D01*
X217434274Y-155309807D01*
X217546230Y-155263433D01*
X217602257Y-155252289D01*
X217714310Y-155230000D01*
X217885690Y-155230000D01*
X217997743Y-155252289D01*
X217997743Y-155252289D01*
G37*
G36*
X215997743Y-155252289D02*
X216053770Y-155263433D01*
X216165726Y-155309807D01*
X216205959Y-155326472D01*
X216212100Y-155329016D01*
X216354593Y-155424227D01*
X216475773Y-155545407D01*
X216570984Y-155687900D01*
X216612407Y-155787902D01*
X216636567Y-155846231D01*
X216670000Y-156014310D01*
X216670000Y-156185690D01*
X216651485Y-156278769D01*
X216636567Y-156353770D01*
X216570984Y-156512100D01*
X216475773Y-156654593D01*
X216354593Y-156775773D01*
X216212100Y-156870984D01*
X216212099Y-156870985D01*
X216212098Y-156870985D01*
X216200534Y-156875775D01*
X216053770Y-156936567D01*
X215997743Y-156947711D01*
X215885690Y-156970000D01*
X215714310Y-156970000D01*
X215602257Y-156947711D01*
X215546230Y-156936567D01*
X215399466Y-156875775D01*
X215387902Y-156870985D01*
X215387901Y-156870985D01*
X215387900Y-156870984D01*
X215245407Y-156775773D01*
X215124227Y-156654593D01*
X215029016Y-156512100D01*
X214963433Y-156353770D01*
X214948515Y-156278769D01*
X214930000Y-156185690D01*
X214930000Y-156014310D01*
X214963433Y-155846231D01*
X214987594Y-155787902D01*
X215029016Y-155687900D01*
X215124227Y-155545407D01*
X215245407Y-155424227D01*
X215387900Y-155329016D01*
X215394042Y-155326472D01*
X215434274Y-155309807D01*
X215546230Y-155263433D01*
X215602257Y-155252289D01*
X215714310Y-155230000D01*
X215885690Y-155230000D01*
X215997743Y-155252289D01*
X215997743Y-155252289D01*
G37*
G36*
X213997743Y-155252289D02*
X214053770Y-155263433D01*
X214165726Y-155309807D01*
X214205959Y-155326472D01*
X214212100Y-155329016D01*
X214354593Y-155424227D01*
X214475773Y-155545407D01*
X214570984Y-155687900D01*
X214612407Y-155787902D01*
X214636567Y-155846231D01*
X214670000Y-156014310D01*
X214670000Y-156185690D01*
X214651485Y-156278769D01*
X214636567Y-156353770D01*
X214570984Y-156512100D01*
X214475773Y-156654593D01*
X214354593Y-156775773D01*
X214212100Y-156870984D01*
X214212099Y-156870985D01*
X214212098Y-156870985D01*
X214200534Y-156875775D01*
X214053770Y-156936567D01*
X213997743Y-156947711D01*
X213885690Y-156970000D01*
X213714310Y-156970000D01*
X213602257Y-156947711D01*
X213546230Y-156936567D01*
X213399466Y-156875775D01*
X213387902Y-156870985D01*
X213387901Y-156870985D01*
X213387900Y-156870984D01*
X213245407Y-156775773D01*
X213124227Y-156654593D01*
X213029016Y-156512100D01*
X212963433Y-156353770D01*
X212948515Y-156278769D01*
X212930000Y-156185690D01*
X212930000Y-156014310D01*
X212963433Y-155846231D01*
X212987594Y-155787902D01*
X213029016Y-155687900D01*
X213124227Y-155545407D01*
X213245407Y-155424227D01*
X213387900Y-155329016D01*
X213394042Y-155326472D01*
X213434274Y-155309807D01*
X213546230Y-155263433D01*
X213602257Y-155252289D01*
X213714310Y-155230000D01*
X213885690Y-155230000D01*
X213997743Y-155252289D01*
X213997743Y-155252289D01*
G37*
G36*
X209997743Y-155252289D02*
X210053770Y-155263433D01*
X210165726Y-155309807D01*
X210205959Y-155326472D01*
X210212100Y-155329016D01*
X210354593Y-155424227D01*
X210475773Y-155545407D01*
X210570984Y-155687900D01*
X210612407Y-155787902D01*
X210636567Y-155846231D01*
X210670000Y-156014310D01*
X210670000Y-156185690D01*
X210651485Y-156278769D01*
X210636567Y-156353770D01*
X210570984Y-156512100D01*
X210475773Y-156654593D01*
X210354593Y-156775773D01*
X210212100Y-156870984D01*
X210212099Y-156870985D01*
X210212098Y-156870985D01*
X210200534Y-156875775D01*
X210053770Y-156936567D01*
X209997743Y-156947711D01*
X209885690Y-156970000D01*
X209714310Y-156970000D01*
X209602257Y-156947711D01*
X209546230Y-156936567D01*
X209399466Y-156875775D01*
X209387902Y-156870985D01*
X209387901Y-156870985D01*
X209387900Y-156870984D01*
X209245407Y-156775773D01*
X209124227Y-156654593D01*
X209029016Y-156512100D01*
X208963433Y-156353770D01*
X208948515Y-156278769D01*
X208930000Y-156185690D01*
X208930000Y-156014310D01*
X208963433Y-155846231D01*
X208987594Y-155787902D01*
X209029016Y-155687900D01*
X209124227Y-155545407D01*
X209245407Y-155424227D01*
X209387900Y-155329016D01*
X209394042Y-155326472D01*
X209434274Y-155309807D01*
X209546230Y-155263433D01*
X209602257Y-155252289D01*
X209714310Y-155230000D01*
X209885690Y-155230000D01*
X209997743Y-155252289D01*
X209997743Y-155252289D01*
G37*
G36*
X207997743Y-155252289D02*
X208053770Y-155263433D01*
X208165726Y-155309807D01*
X208205959Y-155326472D01*
X208212100Y-155329016D01*
X208354593Y-155424227D01*
X208475773Y-155545407D01*
X208570984Y-155687900D01*
X208612407Y-155787902D01*
X208636567Y-155846231D01*
X208670000Y-156014310D01*
X208670000Y-156185690D01*
X208651485Y-156278769D01*
X208636567Y-156353770D01*
X208570984Y-156512100D01*
X208475773Y-156654593D01*
X208354593Y-156775773D01*
X208212100Y-156870984D01*
X208212099Y-156870985D01*
X208212098Y-156870985D01*
X208200534Y-156875775D01*
X208053770Y-156936567D01*
X207997743Y-156947711D01*
X207885690Y-156970000D01*
X207714310Y-156970000D01*
X207602257Y-156947711D01*
X207546230Y-156936567D01*
X207399466Y-156875775D01*
X207387902Y-156870985D01*
X207387901Y-156870985D01*
X207387900Y-156870984D01*
X207245407Y-156775773D01*
X207124227Y-156654593D01*
X207029016Y-156512100D01*
X206963433Y-156353770D01*
X206948515Y-156278769D01*
X206930000Y-156185690D01*
X206930000Y-156014310D01*
X206963433Y-155846231D01*
X206987594Y-155787902D01*
X207029016Y-155687900D01*
X207124227Y-155545407D01*
X207245407Y-155424227D01*
X207387900Y-155329016D01*
X207394042Y-155326472D01*
X207434274Y-155309807D01*
X207546230Y-155263433D01*
X207602257Y-155252289D01*
X207714310Y-155230000D01*
X207885690Y-155230000D01*
X207997743Y-155252289D01*
X207997743Y-155252289D01*
G37*
G36*
X211997743Y-155252289D02*
X212053770Y-155263433D01*
X212165726Y-155309807D01*
X212205959Y-155326472D01*
X212212100Y-155329016D01*
X212354593Y-155424227D01*
X212475773Y-155545407D01*
X212570984Y-155687900D01*
X212612407Y-155787902D01*
X212636567Y-155846231D01*
X212670000Y-156014310D01*
X212670000Y-156185690D01*
X212651485Y-156278769D01*
X212636567Y-156353770D01*
X212570984Y-156512100D01*
X212475773Y-156654593D01*
X212354593Y-156775773D01*
X212212100Y-156870984D01*
X212212099Y-156870985D01*
X212212098Y-156870985D01*
X212200534Y-156875775D01*
X212053770Y-156936567D01*
X211997743Y-156947711D01*
X211885690Y-156970000D01*
X211714310Y-156970000D01*
X211602257Y-156947711D01*
X211546230Y-156936567D01*
X211399466Y-156875775D01*
X211387902Y-156870985D01*
X211387901Y-156870985D01*
X211387900Y-156870984D01*
X211245407Y-156775773D01*
X211124227Y-156654593D01*
X211029016Y-156512100D01*
X210963433Y-156353770D01*
X210948515Y-156278769D01*
X210930000Y-156185690D01*
X210930000Y-156014310D01*
X210963433Y-155846231D01*
X210987594Y-155787902D01*
X211029016Y-155687900D01*
X211124227Y-155545407D01*
X211245407Y-155424227D01*
X211387900Y-155329016D01*
X211394042Y-155326472D01*
X211434274Y-155309807D01*
X211546230Y-155263433D01*
X211602257Y-155252289D01*
X211714310Y-155230000D01*
X211885690Y-155230000D01*
X211997743Y-155252289D01*
X211997743Y-155252289D01*
G37*
G36*
X272472743Y-155177289D02*
X272528770Y-155188433D01*
X272687100Y-155254016D01*
X272829593Y-155349227D01*
X272950773Y-155470407D01*
X273029076Y-155587595D01*
X273045985Y-155612902D01*
X273111567Y-155771231D01*
X273145000Y-155939310D01*
X273145000Y-156110690D01*
X273125453Y-156208961D01*
X273111567Y-156278770D01*
X273045984Y-156437100D01*
X272950773Y-156579593D01*
X272829593Y-156700773D01*
X272687100Y-156795984D01*
X272687099Y-156795985D01*
X272687098Y-156795985D01*
X272640726Y-156815193D01*
X272528770Y-156861567D01*
X272481427Y-156870984D01*
X272360690Y-156895000D01*
X272189310Y-156895000D01*
X272068573Y-156870984D01*
X272021230Y-156861567D01*
X271909274Y-156815193D01*
X271862902Y-156795985D01*
X271862901Y-156795985D01*
X271862900Y-156795984D01*
X271720407Y-156700773D01*
X271599227Y-156579593D01*
X271504016Y-156437100D01*
X271438433Y-156278770D01*
X271424547Y-156208961D01*
X271405000Y-156110690D01*
X271405000Y-155939310D01*
X271438433Y-155771231D01*
X271504015Y-155612902D01*
X271520925Y-155587595D01*
X271599227Y-155470407D01*
X271720407Y-155349227D01*
X271862900Y-155254016D01*
X272021230Y-155188433D01*
X272077257Y-155177289D01*
X272189310Y-155155000D01*
X272360690Y-155155000D01*
X272472743Y-155177289D01*
X272472743Y-155177289D01*
G37*
G36*
X270472743Y-155177289D02*
X270528770Y-155188433D01*
X270687100Y-155254016D01*
X270829593Y-155349227D01*
X270950773Y-155470407D01*
X271029076Y-155587595D01*
X271045985Y-155612902D01*
X271111567Y-155771231D01*
X271145000Y-155939310D01*
X271145000Y-156110690D01*
X271125453Y-156208961D01*
X271111567Y-156278770D01*
X271045984Y-156437100D01*
X270950773Y-156579593D01*
X270829593Y-156700773D01*
X270687100Y-156795984D01*
X270687099Y-156795985D01*
X270687098Y-156795985D01*
X270640726Y-156815193D01*
X270528770Y-156861567D01*
X270481427Y-156870984D01*
X270360690Y-156895000D01*
X270189310Y-156895000D01*
X270068573Y-156870984D01*
X270021230Y-156861567D01*
X269909274Y-156815193D01*
X269862902Y-156795985D01*
X269862901Y-156795985D01*
X269862900Y-156795984D01*
X269720407Y-156700773D01*
X269599227Y-156579593D01*
X269504016Y-156437100D01*
X269438433Y-156278770D01*
X269424547Y-156208961D01*
X269405000Y-156110690D01*
X269405000Y-155939310D01*
X269438433Y-155771231D01*
X269504015Y-155612902D01*
X269520925Y-155587595D01*
X269599227Y-155470407D01*
X269720407Y-155349227D01*
X269862900Y-155254016D01*
X270021230Y-155188433D01*
X270077257Y-155177289D01*
X270189310Y-155155000D01*
X270360690Y-155155000D01*
X270472743Y-155177289D01*
X270472743Y-155177289D01*
G37*
G36*
X268472743Y-155177289D02*
X268528770Y-155188433D01*
X268687100Y-155254016D01*
X268829593Y-155349227D01*
X268950773Y-155470407D01*
X269029076Y-155587595D01*
X269045985Y-155612902D01*
X269111567Y-155771231D01*
X269145000Y-155939310D01*
X269145000Y-156110690D01*
X269125453Y-156208961D01*
X269111567Y-156278770D01*
X269045984Y-156437100D01*
X268950773Y-156579593D01*
X268829593Y-156700773D01*
X268687100Y-156795984D01*
X268687099Y-156795985D01*
X268687098Y-156795985D01*
X268640726Y-156815193D01*
X268528770Y-156861567D01*
X268481427Y-156870984D01*
X268360690Y-156895000D01*
X268189310Y-156895000D01*
X268068573Y-156870984D01*
X268021230Y-156861567D01*
X267909274Y-156815193D01*
X267862902Y-156795985D01*
X267862901Y-156795985D01*
X267862900Y-156795984D01*
X267720407Y-156700773D01*
X267599227Y-156579593D01*
X267504016Y-156437100D01*
X267438433Y-156278770D01*
X267424547Y-156208961D01*
X267405000Y-156110690D01*
X267405000Y-155939310D01*
X267438433Y-155771231D01*
X267504015Y-155612902D01*
X267520925Y-155587595D01*
X267599227Y-155470407D01*
X267720407Y-155349227D01*
X267862900Y-155254016D01*
X268021230Y-155188433D01*
X268077257Y-155177289D01*
X268189310Y-155155000D01*
X268360690Y-155155000D01*
X268472743Y-155177289D01*
X268472743Y-155177289D01*
G37*
G36*
X266472743Y-155177289D02*
X266528770Y-155188433D01*
X266687100Y-155254016D01*
X266829593Y-155349227D01*
X266950773Y-155470407D01*
X267029076Y-155587595D01*
X267045985Y-155612902D01*
X267111567Y-155771231D01*
X267145000Y-155939310D01*
X267145000Y-156110690D01*
X267125453Y-156208961D01*
X267111567Y-156278770D01*
X267045984Y-156437100D01*
X266950773Y-156579593D01*
X266829593Y-156700773D01*
X266687100Y-156795984D01*
X266687099Y-156795985D01*
X266687098Y-156795985D01*
X266640726Y-156815193D01*
X266528770Y-156861567D01*
X266481427Y-156870984D01*
X266360690Y-156895000D01*
X266189310Y-156895000D01*
X266068573Y-156870984D01*
X266021230Y-156861567D01*
X265909274Y-156815193D01*
X265862902Y-156795985D01*
X265862901Y-156795985D01*
X265862900Y-156795984D01*
X265720407Y-156700773D01*
X265599227Y-156579593D01*
X265504016Y-156437100D01*
X265438433Y-156278770D01*
X265424547Y-156208961D01*
X265405000Y-156110690D01*
X265405000Y-155939310D01*
X265438433Y-155771231D01*
X265504015Y-155612902D01*
X265520925Y-155587595D01*
X265599227Y-155470407D01*
X265720407Y-155349227D01*
X265862900Y-155254016D01*
X266021230Y-155188433D01*
X266077257Y-155177289D01*
X266189310Y-155155000D01*
X266360690Y-155155000D01*
X266472743Y-155177289D01*
X266472743Y-155177289D01*
G37*
G36*
X193897687Y-154262039D02*
X194101522Y-154346470D01*
X194253872Y-154448268D01*
X194284958Y-154469039D01*
X194440961Y-154625042D01*
X194440963Y-154625045D01*
X194563530Y-154808478D01*
X194647961Y-155012313D01*
X194691000Y-155228687D01*
X194691000Y-155449313D01*
X194647961Y-155665687D01*
X194563530Y-155869522D01*
X194442421Y-156050773D01*
X194440961Y-156052958D01*
X194284958Y-156208961D01*
X194284955Y-156208963D01*
X194101522Y-156331530D01*
X193897687Y-156415961D01*
X193681313Y-156459000D01*
X193460687Y-156459000D01*
X193244313Y-156415961D01*
X193040478Y-156331530D01*
X192857045Y-156208963D01*
X192857042Y-156208961D01*
X192701039Y-156052958D01*
X192699579Y-156050773D01*
X192578470Y-155869522D01*
X192494039Y-155665687D01*
X192451000Y-155449313D01*
X192451000Y-155228687D01*
X192494039Y-155012313D01*
X192578470Y-154808478D01*
X192701037Y-154625045D01*
X192701039Y-154625042D01*
X192857042Y-154469039D01*
X192888128Y-154448268D01*
X193040478Y-154346470D01*
X193244313Y-154262039D01*
X193460687Y-154219000D01*
X193681313Y-154219000D01*
X193897687Y-154262039D01*
X193897687Y-154262039D01*
G37*
G36*
X175355687Y-154262039D02*
X175559522Y-154346470D01*
X175711872Y-154448268D01*
X175742958Y-154469039D01*
X175898961Y-154625042D01*
X175898963Y-154625045D01*
X176021530Y-154808478D01*
X176105961Y-155012313D01*
X176149000Y-155228687D01*
X176149000Y-155449313D01*
X176105961Y-155665687D01*
X176021530Y-155869522D01*
X175900421Y-156050773D01*
X175898961Y-156052958D01*
X175742958Y-156208961D01*
X175742955Y-156208963D01*
X175559522Y-156331530D01*
X175355687Y-156415961D01*
X175139313Y-156459000D01*
X174918687Y-156459000D01*
X174702313Y-156415961D01*
X174498478Y-156331530D01*
X174315045Y-156208963D01*
X174315042Y-156208961D01*
X174159039Y-156052958D01*
X174157579Y-156050773D01*
X174036470Y-155869522D01*
X173952039Y-155665687D01*
X173909000Y-155449313D01*
X173909000Y-155228687D01*
X173952039Y-155012313D01*
X174036470Y-154808478D01*
X174159037Y-154625045D01*
X174159039Y-154625042D01*
X174315042Y-154469039D01*
X174346128Y-154448268D01*
X174498478Y-154346470D01*
X174702313Y-154262039D01*
X174918687Y-154219000D01*
X175139313Y-154219000D01*
X175355687Y-154262039D01*
X175355687Y-154262039D01*
G37*
G36*
X304397743Y-154527289D02*
X304453770Y-154538433D01*
X304612100Y-154604016D01*
X304754593Y-154699227D01*
X304875773Y-154820407D01*
X304970984Y-154962900D01*
X305036567Y-155121230D01*
X305039914Y-155138055D01*
X305070000Y-155289310D01*
X305070000Y-155460690D01*
X305060041Y-155510757D01*
X305036567Y-155628770D01*
X304970984Y-155787100D01*
X304875773Y-155929593D01*
X304754593Y-156050773D01*
X304612100Y-156145984D01*
X304612099Y-156145985D01*
X304612098Y-156145985D01*
X304598221Y-156151733D01*
X304453770Y-156211567D01*
X304397743Y-156222711D01*
X304285690Y-156245000D01*
X304114310Y-156245000D01*
X304002257Y-156222711D01*
X303946230Y-156211567D01*
X303801779Y-156151733D01*
X303787902Y-156145985D01*
X303787901Y-156145985D01*
X303787900Y-156145984D01*
X303645407Y-156050773D01*
X303524227Y-155929593D01*
X303429016Y-155787100D01*
X303363433Y-155628770D01*
X303339959Y-155510757D01*
X303330000Y-155460690D01*
X303330000Y-155289310D01*
X303360086Y-155138055D01*
X303363433Y-155121230D01*
X303429016Y-154962900D01*
X303524227Y-154820407D01*
X303645407Y-154699227D01*
X303787900Y-154604016D01*
X303946230Y-154538433D01*
X304002257Y-154527289D01*
X304114310Y-154505000D01*
X304285690Y-154505000D01*
X304397743Y-154527289D01*
X304397743Y-154527289D01*
G37*
G36*
X260039975Y-154291471D02*
X260040092Y-154291508D01*
X260040101Y-154291509D01*
X260165217Y-154331199D01*
X260280363Y-154394500D01*
X260381013Y-154478956D01*
X260463344Y-154581355D01*
X260524221Y-154697803D01*
X260561318Y-154823844D01*
X260573227Y-154954700D01*
X260559492Y-155085376D01*
X260520639Y-155210892D01*
X260458142Y-155326475D01*
X260374391Y-155427714D01*
X260272570Y-155510757D01*
X260156550Y-155572446D01*
X260030769Y-155610422D01*
X259933079Y-155620000D01*
X258769164Y-155620000D01*
X258660025Y-155608529D01*
X258659908Y-155608492D01*
X258659899Y-155608491D01*
X258534783Y-155568801D01*
X258419637Y-155505500D01*
X258318987Y-155421044D01*
X258236656Y-155318645D01*
X258175779Y-155202197D01*
X258138682Y-155076156D01*
X258126773Y-154945300D01*
X258140508Y-154814624D01*
X258179361Y-154689108D01*
X258241858Y-154573525D01*
X258325609Y-154472286D01*
X258427430Y-154389243D01*
X258543450Y-154327554D01*
X258669231Y-154289578D01*
X258766921Y-154280000D01*
X259930836Y-154280000D01*
X260039975Y-154291471D01*
X260039975Y-154291471D01*
G37*
G36*
X244540465Y-153793835D02*
X244610016Y-153807669D01*
X244741048Y-153861944D01*
X244858973Y-153940739D01*
X244959261Y-154041027D01*
X245038056Y-154158952D01*
X245092331Y-154289984D01*
X245106165Y-154359535D01*
X245120000Y-154429084D01*
X245120000Y-154570916D01*
X245117923Y-154581358D01*
X245092331Y-154710016D01*
X245038056Y-154841048D01*
X244959261Y-154958973D01*
X244858973Y-155059261D01*
X244741048Y-155138056D01*
X244610016Y-155192331D01*
X244540465Y-155206166D01*
X244470916Y-155220000D01*
X244329084Y-155220000D01*
X244259535Y-155206166D01*
X244189984Y-155192331D01*
X244058952Y-155138056D01*
X243941027Y-155059261D01*
X243840739Y-154958973D01*
X243761944Y-154841048D01*
X243707669Y-154710016D01*
X243682077Y-154581358D01*
X243680000Y-154570916D01*
X243680000Y-154429084D01*
X243693834Y-154359535D01*
X243707669Y-154289984D01*
X243761944Y-154158952D01*
X243840739Y-154041027D01*
X243941027Y-153940739D01*
X244058952Y-153861944D01*
X244189984Y-153807669D01*
X244259535Y-153793835D01*
X244329084Y-153780000D01*
X244470916Y-153780000D01*
X244540465Y-153793835D01*
X244540465Y-153793835D01*
G37*
G36*
X253540465Y-153793835D02*
X253610016Y-153807669D01*
X253741048Y-153861944D01*
X253858973Y-153940739D01*
X253959261Y-154041027D01*
X254038056Y-154158952D01*
X254092331Y-154289984D01*
X254106165Y-154359535D01*
X254120000Y-154429084D01*
X254120000Y-154570916D01*
X254117923Y-154581358D01*
X254092331Y-154710016D01*
X254038056Y-154841048D01*
X253959261Y-154958973D01*
X253858973Y-155059261D01*
X253741048Y-155138056D01*
X253610016Y-155192331D01*
X253540465Y-155206166D01*
X253470916Y-155220000D01*
X253329084Y-155220000D01*
X253259535Y-155206166D01*
X253189984Y-155192331D01*
X253058952Y-155138056D01*
X252941027Y-155059261D01*
X252840739Y-154958973D01*
X252761944Y-154841048D01*
X252707669Y-154710016D01*
X252682077Y-154581358D01*
X252680000Y-154570916D01*
X252680000Y-154429084D01*
X252693834Y-154359535D01*
X252707669Y-154289984D01*
X252761944Y-154158952D01*
X252840739Y-154041027D01*
X252941027Y-153940739D01*
X253058952Y-153861944D01*
X253189984Y-153807669D01*
X253259535Y-153793835D01*
X253329084Y-153780000D01*
X253470916Y-153780000D01*
X253540465Y-153793835D01*
X253540465Y-153793835D01*
G37*
G36*
X237231935Y-153424884D02*
X237390369Y-153490510D01*
X237532311Y-153585353D01*
X237532956Y-153585784D01*
X237654216Y-153707044D01*
X237654218Y-153707047D01*
X237749490Y-153849631D01*
X237815116Y-154008065D01*
X237848570Y-154176254D01*
X237848570Y-154347746D01*
X237815116Y-154515935D01*
X237749490Y-154674369D01*
X237659881Y-154808478D01*
X237654216Y-154816956D01*
X237532956Y-154938216D01*
X237532953Y-154938218D01*
X237390369Y-155033490D01*
X237231935Y-155099116D01*
X237063746Y-155132570D01*
X236892254Y-155132570D01*
X236724065Y-155099116D01*
X236565631Y-155033490D01*
X236423047Y-154938218D01*
X236423044Y-154938216D01*
X236301784Y-154816956D01*
X236296119Y-154808478D01*
X236206510Y-154674369D01*
X236140884Y-154515935D01*
X236107430Y-154347746D01*
X236107430Y-154176254D01*
X236140884Y-154008065D01*
X236206510Y-153849631D01*
X236301782Y-153707047D01*
X236301784Y-153707044D01*
X236423044Y-153585784D01*
X236423689Y-153585353D01*
X236565631Y-153490510D01*
X236724065Y-153424884D01*
X236892254Y-153391430D01*
X237063746Y-153391430D01*
X237231935Y-153424884D01*
X237231935Y-153424884D01*
G37*
G36*
X264915465Y-153618835D02*
X264985016Y-153632669D01*
X265116048Y-153686944D01*
X265233973Y-153765739D01*
X265334261Y-153866027D01*
X265413056Y-153983952D01*
X265467331Y-154114984D01*
X265476077Y-154158952D01*
X265486543Y-154211567D01*
X265495000Y-154254086D01*
X265495000Y-154395914D01*
X265467331Y-154535016D01*
X265413056Y-154666048D01*
X265334261Y-154783973D01*
X265233973Y-154884261D01*
X265116048Y-154963056D01*
X264985016Y-155017331D01*
X264915465Y-155031166D01*
X264845916Y-155045000D01*
X264704084Y-155045000D01*
X264634535Y-155031166D01*
X264564984Y-155017331D01*
X264433952Y-154963056D01*
X264316027Y-154884261D01*
X264215739Y-154783973D01*
X264136944Y-154666048D01*
X264082669Y-154535016D01*
X264055000Y-154395914D01*
X264055000Y-154254086D01*
X264063458Y-154211567D01*
X264073923Y-154158952D01*
X264082669Y-154114984D01*
X264136944Y-153983952D01*
X264215739Y-153866027D01*
X264316027Y-153765739D01*
X264433952Y-153686944D01*
X264564984Y-153632669D01*
X264634535Y-153618835D01*
X264704084Y-153605000D01*
X264845916Y-153605000D01*
X264915465Y-153618835D01*
X264915465Y-153618835D01*
G37*
G36*
X273915465Y-153618835D02*
X273985016Y-153632669D01*
X274116048Y-153686944D01*
X274233973Y-153765739D01*
X274334261Y-153866027D01*
X274413056Y-153983952D01*
X274467331Y-154114984D01*
X274476077Y-154158952D01*
X274486543Y-154211567D01*
X274495000Y-154254086D01*
X274495000Y-154395914D01*
X274467331Y-154535016D01*
X274413056Y-154666048D01*
X274334261Y-154783973D01*
X274233973Y-154884261D01*
X274116048Y-154963056D01*
X273985016Y-155017331D01*
X273915465Y-155031166D01*
X273845916Y-155045000D01*
X273704084Y-155045000D01*
X273634535Y-155031166D01*
X273564984Y-155017331D01*
X273433952Y-154963056D01*
X273316027Y-154884261D01*
X273215739Y-154783973D01*
X273136944Y-154666048D01*
X273082669Y-154535016D01*
X273055000Y-154395914D01*
X273055000Y-154254086D01*
X273063458Y-154211567D01*
X273073923Y-154158952D01*
X273082669Y-154114984D01*
X273136944Y-153983952D01*
X273215739Y-153866027D01*
X273316027Y-153765739D01*
X273433952Y-153686944D01*
X273564984Y-153632669D01*
X273634535Y-153618835D01*
X273704084Y-153605000D01*
X273845916Y-153605000D01*
X273915465Y-153618835D01*
X273915465Y-153618835D01*
G37*
G36*
X304397743Y-152527289D02*
X304453770Y-152538433D01*
X304612100Y-152604016D01*
X304754593Y-152699227D01*
X304875773Y-152820407D01*
X304970984Y-152962900D01*
X305030999Y-153107787D01*
X305036567Y-153121231D01*
X305070000Y-153289310D01*
X305070000Y-153460690D01*
X305062193Y-153499936D01*
X305036567Y-153628770D01*
X304970984Y-153787100D01*
X304875773Y-153929593D01*
X304754593Y-154050773D01*
X304612100Y-154145984D01*
X304453770Y-154211567D01*
X304416401Y-154219000D01*
X304285690Y-154245000D01*
X304114310Y-154245000D01*
X303983599Y-154219000D01*
X303946230Y-154211567D01*
X303787900Y-154145984D01*
X303645407Y-154050773D01*
X303524227Y-153929593D01*
X303429016Y-153787100D01*
X303363433Y-153628770D01*
X303337807Y-153499936D01*
X303330000Y-153460690D01*
X303330000Y-153289310D01*
X303363433Y-153121231D01*
X303369002Y-153107787D01*
X303429016Y-152962900D01*
X303524227Y-152820407D01*
X303645407Y-152699227D01*
X303787900Y-152604016D01*
X303946230Y-152538433D01*
X304002257Y-152527289D01*
X304114310Y-152505000D01*
X304285690Y-152505000D01*
X304397743Y-152527289D01*
X304397743Y-152527289D01*
G37*
G36*
X235453935Y-152408884D02*
X235612369Y-152474510D01*
X235708036Y-152538433D01*
X235754956Y-152569784D01*
X235876216Y-152691044D01*
X235876218Y-152691047D01*
X235971490Y-152833631D01*
X236037116Y-152992065D01*
X236070570Y-153160254D01*
X236070570Y-153331746D01*
X236037116Y-153499935D01*
X235971490Y-153658369D01*
X235899747Y-153765739D01*
X235876216Y-153800956D01*
X235754956Y-153922216D01*
X235754953Y-153922218D01*
X235612369Y-154017490D01*
X235453935Y-154083116D01*
X235285746Y-154116570D01*
X235114254Y-154116570D01*
X234946065Y-154083116D01*
X234787631Y-154017490D01*
X234645047Y-153922218D01*
X234645044Y-153922216D01*
X234523784Y-153800956D01*
X234500253Y-153765739D01*
X234428510Y-153658369D01*
X234362884Y-153499935D01*
X234329430Y-153331746D01*
X234329430Y-153160254D01*
X234362884Y-152992065D01*
X234428510Y-152833631D01*
X234523782Y-152691047D01*
X234523784Y-152691044D01*
X234645044Y-152569784D01*
X234691964Y-152538433D01*
X234787631Y-152474510D01*
X234946065Y-152408884D01*
X235114254Y-152375430D01*
X235285746Y-152375430D01*
X235453935Y-152408884D01*
X235453935Y-152408884D01*
G37*
G36*
X315651732Y-147492213D02*
X315821103Y-147562369D01*
X316183139Y-147712329D01*
X316661392Y-148031888D01*
X317068112Y-148438608D01*
X317387671Y-148916861D01*
X317423398Y-149003114D01*
X317607787Y-149448268D01*
X317720000Y-150012403D01*
X317720000Y-150587597D01*
X317607787Y-151151732D01*
X317480715Y-151458510D01*
X317387671Y-151683139D01*
X317068112Y-152161392D01*
X316661392Y-152568112D01*
X316183139Y-152887671D01*
X316001515Y-152962902D01*
X315651732Y-153107787D01*
X315087597Y-153220000D01*
X314512403Y-153220000D01*
X313948268Y-153107787D01*
X313598485Y-152962902D01*
X313416861Y-152887671D01*
X312938608Y-152568112D01*
X312531888Y-152161392D01*
X312212329Y-151683139D01*
X312119285Y-151458510D01*
X311992213Y-151151732D01*
X311880000Y-150587597D01*
X311880000Y-150012403D01*
X311992213Y-149448268D01*
X312176602Y-149003114D01*
X312212329Y-148916861D01*
X312531888Y-148438608D01*
X312938608Y-148031888D01*
X313416861Y-147712329D01*
X313778897Y-147562369D01*
X313948268Y-147492213D01*
X314512403Y-147380000D01*
X315087597Y-147380000D01*
X315651732Y-147492213D01*
X315651732Y-147492213D01*
G37*
G36*
X237231935Y-151392884D02*
X237390369Y-151458510D01*
X237532311Y-151553353D01*
X237532956Y-151553784D01*
X237654216Y-151675044D01*
X237654218Y-151675047D01*
X237749490Y-151817631D01*
X237815116Y-151976065D01*
X237848570Y-152144254D01*
X237848570Y-152315746D01*
X237815116Y-152483935D01*
X237749490Y-152642369D01*
X237702744Y-152712329D01*
X237654216Y-152784956D01*
X237532956Y-152906216D01*
X237532953Y-152906218D01*
X237390369Y-153001490D01*
X237231935Y-153067116D01*
X237063746Y-153100570D01*
X236892254Y-153100570D01*
X236724065Y-153067116D01*
X236565631Y-153001490D01*
X236423047Y-152906218D01*
X236423044Y-152906216D01*
X236301784Y-152784956D01*
X236253256Y-152712329D01*
X236206510Y-152642369D01*
X236140884Y-152483935D01*
X236107430Y-152315746D01*
X236107430Y-152144254D01*
X236140884Y-151976065D01*
X236206510Y-151817631D01*
X236301782Y-151675047D01*
X236301784Y-151675044D01*
X236423044Y-151553784D01*
X236423689Y-151553353D01*
X236565631Y-151458510D01*
X236724065Y-151392884D01*
X236892254Y-151359430D01*
X237063746Y-151359430D01*
X237231935Y-151392884D01*
X237231935Y-151392884D01*
G37*
G36*
X187670000Y-152370000D02*
X185430000Y-152370000D01*
X185430000Y-150430000D01*
X187670000Y-150430000D01*
X187670000Y-152370000D01*
X187670000Y-152370000D01*
G37*
G36*
X183670000Y-152370000D02*
X181430000Y-152370000D01*
X181430000Y-150430000D01*
X183670000Y-150430000D01*
X183670000Y-152370000D01*
X183670000Y-152370000D01*
G37*
G36*
X304397743Y-150527289D02*
X304453770Y-150538433D01*
X304612100Y-150604016D01*
X304754593Y-150699227D01*
X304875773Y-150820407D01*
X304970984Y-150962900D01*
X305036567Y-151121230D01*
X305042634Y-151151732D01*
X305070000Y-151289310D01*
X305070000Y-151460690D01*
X305051483Y-151553782D01*
X305036567Y-151628770D01*
X304970984Y-151787100D01*
X304875773Y-151929593D01*
X304754593Y-152050773D01*
X304612100Y-152145984D01*
X304453770Y-152211567D01*
X304397743Y-152222711D01*
X304285690Y-152245000D01*
X304114310Y-152245000D01*
X304002257Y-152222711D01*
X303946230Y-152211567D01*
X303787900Y-152145984D01*
X303645407Y-152050773D01*
X303524227Y-151929593D01*
X303429016Y-151787100D01*
X303363433Y-151628770D01*
X303348517Y-151553782D01*
X303330000Y-151460690D01*
X303330000Y-151289310D01*
X303357366Y-151151732D01*
X303363433Y-151121230D01*
X303429016Y-150962900D01*
X303524227Y-150820407D01*
X303645407Y-150699227D01*
X303787900Y-150604016D01*
X303946230Y-150538433D01*
X304002257Y-150527289D01*
X304114310Y-150505000D01*
X304285690Y-150505000D01*
X304397743Y-150527289D01*
X304397743Y-150527289D01*
G37*
G36*
X235453935Y-150376884D02*
X235612369Y-150442510D01*
X235705891Y-150505000D01*
X235754956Y-150537784D01*
X235876216Y-150659044D01*
X235876218Y-150659047D01*
X235971490Y-150801631D01*
X236037116Y-150960065D01*
X236070570Y-151128254D01*
X236070570Y-151299746D01*
X236037116Y-151467935D01*
X235971490Y-151626369D01*
X235933557Y-151683139D01*
X235876216Y-151768956D01*
X235754956Y-151890216D01*
X235754953Y-151890218D01*
X235612369Y-151985490D01*
X235453935Y-152051116D01*
X235285746Y-152084570D01*
X235114254Y-152084570D01*
X234946065Y-152051116D01*
X234787631Y-151985490D01*
X234645047Y-151890218D01*
X234645044Y-151890216D01*
X234523784Y-151768956D01*
X234466443Y-151683139D01*
X234428510Y-151626369D01*
X234362884Y-151467935D01*
X234329430Y-151299746D01*
X234329430Y-151128254D01*
X234362884Y-150960065D01*
X234428510Y-150801631D01*
X234523782Y-150659047D01*
X234523784Y-150659044D01*
X234645044Y-150537784D01*
X234694109Y-150505000D01*
X234787631Y-150442510D01*
X234946065Y-150376884D01*
X235114254Y-150343430D01*
X235285746Y-150343430D01*
X235453935Y-150376884D01*
X235453935Y-150376884D01*
G37*
G36*
X237231935Y-149360884D02*
X237390369Y-149426510D01*
X237532311Y-149521353D01*
X237532956Y-149521784D01*
X237654216Y-149643044D01*
X237654218Y-149643047D01*
X237749490Y-149785631D01*
X237815116Y-149944065D01*
X237848570Y-150112254D01*
X237848570Y-150283746D01*
X237815116Y-150451935D01*
X237749490Y-150610369D01*
X237654647Y-150752311D01*
X237654216Y-150752956D01*
X237532956Y-150874216D01*
X237532953Y-150874218D01*
X237390369Y-150969490D01*
X237231935Y-151035116D01*
X237063746Y-151068570D01*
X236892254Y-151068570D01*
X236724065Y-151035116D01*
X236565631Y-150969490D01*
X236423047Y-150874218D01*
X236423044Y-150874216D01*
X236301784Y-150752956D01*
X236301353Y-150752311D01*
X236206510Y-150610369D01*
X236140884Y-150451935D01*
X236107430Y-150283746D01*
X236107430Y-150112254D01*
X236140884Y-149944065D01*
X236206510Y-149785631D01*
X236301782Y-149643047D01*
X236301784Y-149643044D01*
X236423044Y-149521784D01*
X236423689Y-149521353D01*
X236565631Y-149426510D01*
X236724065Y-149360884D01*
X236892254Y-149327430D01*
X237063746Y-149327430D01*
X237231935Y-149360884D01*
X237231935Y-149360884D01*
G37*
G36*
X304397743Y-148527289D02*
X304453770Y-148538433D01*
X304612100Y-148604016D01*
X304754593Y-148699227D01*
X304875773Y-148820407D01*
X304970984Y-148962900D01*
X305026222Y-149096254D01*
X305036567Y-149121231D01*
X305070000Y-149289310D01*
X305070000Y-149460690D01*
X305047711Y-149572743D01*
X305036567Y-149628770D01*
X304990193Y-149740726D01*
X304971593Y-149785631D01*
X304970984Y-149787100D01*
X304875773Y-149929593D01*
X304754593Y-150050773D01*
X304612100Y-150145984D01*
X304453770Y-150211567D01*
X304397743Y-150222711D01*
X304285690Y-150245000D01*
X304114310Y-150245000D01*
X304002257Y-150222711D01*
X303946230Y-150211567D01*
X303787900Y-150145984D01*
X303645407Y-150050773D01*
X303524227Y-149929593D01*
X303429016Y-149787100D01*
X303428408Y-149785631D01*
X303409807Y-149740726D01*
X303363433Y-149628770D01*
X303352289Y-149572743D01*
X303330000Y-149460690D01*
X303330000Y-149289310D01*
X303363433Y-149121231D01*
X303373779Y-149096254D01*
X303429016Y-148962900D01*
X303524227Y-148820407D01*
X303645407Y-148699227D01*
X303787900Y-148604016D01*
X303946230Y-148538433D01*
X304002257Y-148527289D01*
X304114310Y-148505000D01*
X304285690Y-148505000D01*
X304397743Y-148527289D01*
X304397743Y-148527289D01*
G37*
G36*
X235453935Y-148344884D02*
X235612369Y-148410510D01*
X235753783Y-148505000D01*
X235754956Y-148505784D01*
X235876216Y-148627044D01*
X235876218Y-148627047D01*
X235971490Y-148769631D01*
X236037116Y-148928065D01*
X236070570Y-149096254D01*
X236070570Y-149267746D01*
X236037116Y-149435935D01*
X235971490Y-149594369D01*
X235938966Y-149643044D01*
X235876216Y-149736956D01*
X235754956Y-149858216D01*
X235754953Y-149858218D01*
X235612369Y-149953490D01*
X235453935Y-150019116D01*
X235285746Y-150052570D01*
X235114254Y-150052570D01*
X234946065Y-150019116D01*
X234787631Y-149953490D01*
X234645047Y-149858218D01*
X234645044Y-149858216D01*
X234523784Y-149736956D01*
X234461034Y-149643044D01*
X234428510Y-149594369D01*
X234362884Y-149435935D01*
X234329430Y-149267746D01*
X234329430Y-149096254D01*
X234362884Y-148928065D01*
X234428510Y-148769631D01*
X234523782Y-148627047D01*
X234523784Y-148627044D01*
X234645044Y-148505784D01*
X234646217Y-148505000D01*
X234787631Y-148410510D01*
X234946065Y-148344884D01*
X235114254Y-148311430D01*
X235285746Y-148311430D01*
X235453935Y-148344884D01*
X235453935Y-148344884D01*
G37*
G36*
X237231935Y-147328884D02*
X237390369Y-147394510D01*
X237532311Y-147489353D01*
X237532956Y-147489784D01*
X237654216Y-147611044D01*
X237654218Y-147611047D01*
X237749490Y-147753631D01*
X237815116Y-147912065D01*
X237848570Y-148080254D01*
X237848570Y-148251746D01*
X237815116Y-148419935D01*
X237749490Y-148578369D01*
X237716966Y-148627044D01*
X237654216Y-148720956D01*
X237532956Y-148842216D01*
X237532953Y-148842218D01*
X237390369Y-148937490D01*
X237231935Y-149003116D01*
X237063746Y-149036570D01*
X236892254Y-149036570D01*
X236724065Y-149003116D01*
X236565631Y-148937490D01*
X236423047Y-148842218D01*
X236423044Y-148842216D01*
X236301784Y-148720956D01*
X236239034Y-148627044D01*
X236206510Y-148578369D01*
X236140884Y-148419935D01*
X236107430Y-148251746D01*
X236107430Y-148080254D01*
X236140884Y-147912065D01*
X236206510Y-147753631D01*
X236301782Y-147611047D01*
X236301784Y-147611044D01*
X236423044Y-147489784D01*
X236423689Y-147489353D01*
X236565631Y-147394510D01*
X236724065Y-147328884D01*
X236892254Y-147295430D01*
X237063746Y-147295430D01*
X237231935Y-147328884D01*
X237231935Y-147328884D01*
G37*
G36*
X176149000Y-148331000D02*
X173909000Y-148331000D01*
X173909000Y-146091000D01*
X176149000Y-146091000D01*
X176149000Y-148331000D01*
X176149000Y-148331000D01*
G37*
G36*
X194691000Y-148331000D02*
X192451000Y-148331000D01*
X192451000Y-146091000D01*
X194691000Y-146091000D01*
X194691000Y-148331000D01*
X194691000Y-148331000D01*
G37*
G36*
X304397743Y-146527289D02*
X304453770Y-146538433D01*
X304612100Y-146604016D01*
X304754593Y-146699227D01*
X304875773Y-146820407D01*
X304970984Y-146962900D01*
X305015347Y-147070000D01*
X305036567Y-147121231D01*
X305070000Y-147289310D01*
X305070000Y-147460690D01*
X305063729Y-147492214D01*
X305036567Y-147628770D01*
X304970984Y-147787100D01*
X304875773Y-147929593D01*
X304754593Y-148050773D01*
X304612100Y-148145984D01*
X304453770Y-148211567D01*
X304397743Y-148222711D01*
X304285690Y-148245000D01*
X304114310Y-148245000D01*
X304002257Y-148222711D01*
X303946230Y-148211567D01*
X303787900Y-148145984D01*
X303645407Y-148050773D01*
X303524227Y-147929593D01*
X303429016Y-147787100D01*
X303363433Y-147628770D01*
X303336271Y-147492214D01*
X303330000Y-147460690D01*
X303330000Y-147289310D01*
X303363433Y-147121231D01*
X303384654Y-147070000D01*
X303429016Y-146962900D01*
X303524227Y-146820407D01*
X303645407Y-146699227D01*
X303787900Y-146604016D01*
X303946230Y-146538433D01*
X304002257Y-146527289D01*
X304114310Y-146505000D01*
X304285690Y-146505000D01*
X304397743Y-146527289D01*
X304397743Y-146527289D01*
G37*
G36*
X235453935Y-146312884D02*
X235612369Y-146378510D01*
X235754311Y-146473353D01*
X235754956Y-146473784D01*
X235876216Y-146595044D01*
X235876218Y-146595047D01*
X235971490Y-146737631D01*
X236037116Y-146896065D01*
X236070570Y-147064254D01*
X236070570Y-147235746D01*
X236037116Y-147403935D01*
X235971490Y-147562369D01*
X235927122Y-147628770D01*
X235876216Y-147704956D01*
X235754956Y-147826216D01*
X235754953Y-147826218D01*
X235612369Y-147921490D01*
X235453935Y-147987116D01*
X235285746Y-148020570D01*
X235114254Y-148020570D01*
X234946065Y-147987116D01*
X234787631Y-147921490D01*
X234645047Y-147826218D01*
X234645044Y-147826216D01*
X234523784Y-147704956D01*
X234472878Y-147628770D01*
X234428510Y-147562369D01*
X234362884Y-147403935D01*
X234329430Y-147235746D01*
X234329430Y-147064254D01*
X234362884Y-146896065D01*
X234428510Y-146737631D01*
X234523782Y-146595047D01*
X234523784Y-146595044D01*
X234645044Y-146473784D01*
X234645689Y-146473353D01*
X234787631Y-146378510D01*
X234946065Y-146312884D01*
X235114254Y-146279430D01*
X235285746Y-146279430D01*
X235453935Y-146312884D01*
X235453935Y-146312884D01*
G37*
G36*
X190095000Y-147445000D02*
X186355000Y-147445000D01*
X186355000Y-143705000D01*
X190095000Y-143705000D01*
X190095000Y-147445000D01*
X190095000Y-147445000D01*
G37*
G36*
X183295000Y-147445000D02*
X179555000Y-147445000D01*
X179555000Y-143705000D01*
X183295000Y-143705000D01*
X183295000Y-147445000D01*
X183295000Y-147445000D01*
G37*
G36*
X295412547Y-143280701D02*
X295794722Y-143439003D01*
X295880125Y-143496068D01*
X296138672Y-143668823D01*
X296431177Y-143961328D01*
X296603932Y-144219875D01*
X296660997Y-144305278D01*
X296819299Y-144687453D01*
X296900000Y-145093166D01*
X296900000Y-145506834D01*
X296819299Y-145912547D01*
X296660997Y-146294722D01*
X296660996Y-146294723D01*
X296431177Y-146638672D01*
X296138672Y-146931177D01*
X295939508Y-147064254D01*
X295794722Y-147160997D01*
X295412547Y-147319299D01*
X295006834Y-147400000D01*
X294593166Y-147400000D01*
X294187453Y-147319299D01*
X293805278Y-147160997D01*
X293660492Y-147064254D01*
X293461328Y-146931177D01*
X293168823Y-146638672D01*
X292939004Y-146294723D01*
X292939003Y-146294722D01*
X292780701Y-145912547D01*
X292700000Y-145506834D01*
X292700000Y-145093166D01*
X292780701Y-144687453D01*
X292939003Y-144305278D01*
X292996068Y-144219875D01*
X293168823Y-143961328D01*
X293461328Y-143668823D01*
X293719875Y-143496068D01*
X293805278Y-143439003D01*
X294187453Y-143280701D01*
X294593166Y-143200000D01*
X295006834Y-143200000D01*
X295412547Y-143280701D01*
X295412547Y-143280701D01*
G37*
G36*
X313915465Y-145643835D02*
X313985016Y-145657669D01*
X314116048Y-145711944D01*
X314233973Y-145790739D01*
X314334261Y-145891027D01*
X314413056Y-146008952D01*
X314467331Y-146139984D01*
X314495000Y-146279086D01*
X314495000Y-146420914D01*
X314467331Y-146560016D01*
X314413056Y-146691048D01*
X314334261Y-146808973D01*
X314233973Y-146909261D01*
X314116048Y-146988056D01*
X313985016Y-147042331D01*
X313915465Y-147056165D01*
X313845916Y-147070000D01*
X313704084Y-147070000D01*
X313634535Y-147056165D01*
X313564984Y-147042331D01*
X313433952Y-146988056D01*
X313316027Y-146909261D01*
X313215739Y-146808973D01*
X313136944Y-146691048D01*
X313082669Y-146560016D01*
X313055000Y-146420914D01*
X313055000Y-146279086D01*
X313082669Y-146139984D01*
X313136944Y-146008952D01*
X313215739Y-145891027D01*
X313316027Y-145790739D01*
X313433952Y-145711944D01*
X313564984Y-145657669D01*
X313634535Y-145643835D01*
X313704084Y-145630000D01*
X313845916Y-145630000D01*
X313915465Y-145643835D01*
X313915465Y-145643835D01*
G37*
G36*
X306040465Y-145168835D02*
X306110016Y-145182669D01*
X306241048Y-145236944D01*
X306358973Y-145315739D01*
X306459261Y-145416027D01*
X306538056Y-145533952D01*
X306592331Y-145664984D01*
X306620000Y-145804086D01*
X306620000Y-145945914D01*
X306592331Y-146085016D01*
X306538056Y-146216048D01*
X306459261Y-146333973D01*
X306358973Y-146434261D01*
X306241048Y-146513056D01*
X306110016Y-146567331D01*
X306040465Y-146581166D01*
X305970916Y-146595000D01*
X305829084Y-146595000D01*
X305759535Y-146581166D01*
X305689984Y-146567331D01*
X305558952Y-146513056D01*
X305441027Y-146434261D01*
X305340739Y-146333973D01*
X305261944Y-146216048D01*
X305207669Y-146085016D01*
X305180000Y-145945914D01*
X305180000Y-145804086D01*
X305207669Y-145664984D01*
X305261944Y-145533952D01*
X305340739Y-145416027D01*
X305441027Y-145315739D01*
X305558952Y-145236944D01*
X305689984Y-145182669D01*
X305759535Y-145168835D01*
X305829084Y-145155000D01*
X305970916Y-145155000D01*
X306040465Y-145168835D01*
X306040465Y-145168835D01*
G37*
G36*
X233176289Y-142654019D02*
X233498408Y-142787445D01*
X233787324Y-142980493D01*
X233788309Y-142981151D01*
X234034849Y-143227691D01*
X234034851Y-143227694D01*
X234228555Y-143517592D01*
X234361981Y-143839711D01*
X234430000Y-144181668D01*
X234430000Y-144530332D01*
X234361981Y-144872289D01*
X234228555Y-145194408D01*
X234035507Y-145483324D01*
X234034849Y-145484309D01*
X233788309Y-145730849D01*
X233788306Y-145730851D01*
X233498408Y-145924555D01*
X233176289Y-146057981D01*
X232834332Y-146126000D01*
X232485668Y-146126000D01*
X232143711Y-146057981D01*
X231821592Y-145924555D01*
X231531694Y-145730851D01*
X231531691Y-145730849D01*
X231285151Y-145484309D01*
X231284493Y-145483324D01*
X231091445Y-145194408D01*
X230958019Y-144872289D01*
X230890000Y-144530332D01*
X230890000Y-144181668D01*
X230958019Y-143839711D01*
X231091445Y-143517592D01*
X231285149Y-143227694D01*
X231285151Y-143227691D01*
X231531691Y-142981151D01*
X231532676Y-142980493D01*
X231821592Y-142787445D01*
X232143711Y-142654019D01*
X232485668Y-142586000D01*
X232834332Y-142586000D01*
X233176289Y-142654019D01*
X233176289Y-142654019D01*
G37*
G36*
X176149000Y-145791000D02*
X173909000Y-145791000D01*
X173909000Y-143551000D01*
X176149000Y-143551000D01*
X176149000Y-145791000D01*
X176149000Y-145791000D01*
G37*
G36*
X194691000Y-145791000D02*
X192451000Y-145791000D01*
X192451000Y-143551000D01*
X194691000Y-143551000D01*
X194691000Y-145791000D01*
X194691000Y-145791000D01*
G37*
G36*
X315672743Y-144002289D02*
X315728770Y-144013433D01*
X315887100Y-144079016D01*
X316029593Y-144174227D01*
X316150773Y-144295407D01*
X316245984Y-144437900D01*
X316311567Y-144596230D01*
X316345000Y-144764312D01*
X316345000Y-144935688D01*
X316311567Y-145103770D01*
X316245984Y-145262100D01*
X316150773Y-145404593D01*
X316029593Y-145525773D01*
X315887100Y-145620984D01*
X315728770Y-145686567D01*
X315672743Y-145697711D01*
X315560690Y-145720000D01*
X315389310Y-145720000D01*
X315277257Y-145697711D01*
X315221230Y-145686567D01*
X315062900Y-145620984D01*
X314920407Y-145525773D01*
X314799227Y-145404593D01*
X314704016Y-145262100D01*
X314638433Y-145103770D01*
X314605000Y-144935688D01*
X314605000Y-144764312D01*
X314638433Y-144596230D01*
X314704016Y-144437900D01*
X314799227Y-144295407D01*
X314920407Y-144174227D01*
X315062900Y-144079016D01*
X315221230Y-144013433D01*
X315277257Y-144002289D01*
X315389310Y-143980000D01*
X315560690Y-143980000D01*
X315672743Y-144002289D01*
X315672743Y-144002289D01*
G37*
G36*
X221226687Y-141623039D02*
X221430522Y-141707470D01*
X221613131Y-141829486D01*
X221613958Y-141830039D01*
X221769961Y-141986042D01*
X221769963Y-141986045D01*
X221892530Y-142169478D01*
X221976961Y-142373313D01*
X222020000Y-142589687D01*
X222020000Y-142810313D01*
X221976961Y-143026687D01*
X221892530Y-143230522D01*
X221770514Y-143413131D01*
X221769961Y-143413958D01*
X221613958Y-143569961D01*
X221613955Y-143569963D01*
X221430522Y-143692530D01*
X221226687Y-143776961D01*
X221010313Y-143820000D01*
X220789687Y-143820000D01*
X220573313Y-143776961D01*
X220369478Y-143692530D01*
X220186045Y-143569963D01*
X220186042Y-143569961D01*
X220030039Y-143413958D01*
X220029486Y-143413131D01*
X219907470Y-143230522D01*
X219823039Y-143026687D01*
X219780000Y-142810313D01*
X219780000Y-142589687D01*
X219823039Y-142373313D01*
X219907470Y-142169478D01*
X220030037Y-141986045D01*
X220030039Y-141986042D01*
X220186042Y-141830039D01*
X220186869Y-141829486D01*
X220369478Y-141707470D01*
X220573313Y-141623039D01*
X220789687Y-141580000D01*
X221010313Y-141580000D01*
X221226687Y-141623039D01*
X221226687Y-141623039D01*
G37*
G36*
X208426687Y-141623039D02*
X208630522Y-141707470D01*
X208813131Y-141829486D01*
X208813958Y-141830039D01*
X208969961Y-141986042D01*
X208969963Y-141986045D01*
X209092530Y-142169478D01*
X209176961Y-142373313D01*
X209220000Y-142589687D01*
X209220000Y-142810313D01*
X209176961Y-143026687D01*
X209092530Y-143230522D01*
X208970514Y-143413131D01*
X208969961Y-143413958D01*
X208813958Y-143569961D01*
X208813955Y-143569963D01*
X208630522Y-143692530D01*
X208426687Y-143776961D01*
X208210313Y-143820000D01*
X207989687Y-143820000D01*
X207773313Y-143776961D01*
X207569478Y-143692530D01*
X207386045Y-143569963D01*
X207386042Y-143569961D01*
X207230039Y-143413958D01*
X207229486Y-143413131D01*
X207107470Y-143230522D01*
X207023039Y-143026687D01*
X206980000Y-142810313D01*
X206980000Y-142589687D01*
X207023039Y-142373313D01*
X207107470Y-142169478D01*
X207230037Y-141986045D01*
X207230039Y-141986042D01*
X207386042Y-141830039D01*
X207386869Y-141829486D01*
X207569478Y-141707470D01*
X207773313Y-141623039D01*
X207989687Y-141580000D01*
X208210313Y-141580000D01*
X208426687Y-141623039D01*
X208426687Y-141623039D01*
G37*
G36*
X315672743Y-142002289D02*
X315728770Y-142013433D01*
X315887100Y-142079016D01*
X316029593Y-142174227D01*
X316150773Y-142295407D01*
X316245984Y-142437900D01*
X316308857Y-142589687D01*
X316311567Y-142596231D01*
X316345000Y-142764310D01*
X316345000Y-142935690D01*
X316322711Y-143047743D01*
X316311567Y-143103770D01*
X316245984Y-143262100D01*
X316150773Y-143404593D01*
X316029593Y-143525773D01*
X315887100Y-143620984D01*
X315728770Y-143686567D01*
X315698791Y-143692530D01*
X315560690Y-143720000D01*
X315389310Y-143720000D01*
X315251209Y-143692530D01*
X315221230Y-143686567D01*
X315062900Y-143620984D01*
X314920407Y-143525773D01*
X314799227Y-143404593D01*
X314704016Y-143262100D01*
X314638433Y-143103770D01*
X314627289Y-143047743D01*
X314605000Y-142935690D01*
X314605000Y-142764310D01*
X314638433Y-142596231D01*
X314641144Y-142589687D01*
X314704016Y-142437900D01*
X314799227Y-142295407D01*
X314920407Y-142174227D01*
X315062900Y-142079016D01*
X315221230Y-142013433D01*
X315277257Y-142002289D01*
X315389310Y-141980000D01*
X315560690Y-141980000D01*
X315672743Y-142002289D01*
X315672743Y-142002289D01*
G37*
G36*
X236415687Y-141501039D02*
X236619522Y-141585470D01*
X236770823Y-141686567D01*
X236802958Y-141708039D01*
X236958961Y-141864042D01*
X236958963Y-141864045D01*
X237081530Y-142047478D01*
X237165961Y-142251313D01*
X237209000Y-142467687D01*
X237209000Y-142688313D01*
X237165961Y-142904687D01*
X237081530Y-143108522D01*
X236966483Y-143280701D01*
X236958961Y-143291958D01*
X236802958Y-143447961D01*
X236802955Y-143447963D01*
X236619522Y-143570530D01*
X236415687Y-143654961D01*
X236199313Y-143698000D01*
X235978687Y-143698000D01*
X235762313Y-143654961D01*
X235558478Y-143570530D01*
X235375045Y-143447963D01*
X235375042Y-143447961D01*
X235219039Y-143291958D01*
X235211517Y-143280701D01*
X235096470Y-143108522D01*
X235012039Y-142904687D01*
X234969000Y-142688313D01*
X234969000Y-142467687D01*
X235012039Y-142251313D01*
X235096470Y-142047478D01*
X235219037Y-141864045D01*
X235219039Y-141864042D01*
X235375042Y-141708039D01*
X235407177Y-141686567D01*
X235558478Y-141585470D01*
X235762313Y-141501039D01*
X235978687Y-141458000D01*
X236199313Y-141458000D01*
X236415687Y-141501039D01*
X236415687Y-141501039D01*
G37*
G36*
X315672743Y-140002289D02*
X315728770Y-140013433D01*
X315887100Y-140079016D01*
X316029593Y-140174227D01*
X316150773Y-140295407D01*
X316245984Y-140437900D01*
X316311567Y-140596230D01*
X316345000Y-140764312D01*
X316345000Y-140935688D01*
X316311567Y-141103770D01*
X316245984Y-141262100D01*
X316150773Y-141404593D01*
X316029593Y-141525773D01*
X315887100Y-141620984D01*
X315728770Y-141686567D01*
X315672743Y-141697711D01*
X315560690Y-141720000D01*
X315389310Y-141720000D01*
X315277257Y-141697711D01*
X315221230Y-141686567D01*
X315062900Y-141620984D01*
X314920407Y-141525773D01*
X314799227Y-141404593D01*
X314704016Y-141262100D01*
X314638433Y-141103770D01*
X314605000Y-140935688D01*
X314605000Y-140764312D01*
X314638433Y-140596230D01*
X314704016Y-140437900D01*
X314799227Y-140295407D01*
X314920407Y-140174227D01*
X315062900Y-140079016D01*
X315221230Y-140013433D01*
X315277257Y-140002289D01*
X315389310Y-139980000D01*
X315560690Y-139980000D01*
X315672743Y-140002289D01*
X315672743Y-140002289D01*
G37*
G36*
X222360029Y-137905726D02*
X222539342Y-137980000D01*
X222600255Y-138005231D01*
X222816451Y-138149689D01*
X223000311Y-138333549D01*
X223102934Y-138487134D01*
X223144770Y-138549747D01*
X223244274Y-138789971D01*
X223295000Y-139044989D01*
X223295000Y-139305011D01*
X223244274Y-139560029D01*
X223178012Y-139720000D01*
X223144769Y-139800255D01*
X223000311Y-140016451D01*
X222816451Y-140200311D01*
X222600255Y-140344769D01*
X222600254Y-140344770D01*
X222600253Y-140344770D01*
X222360029Y-140444274D01*
X222105011Y-140495000D01*
X221844989Y-140495000D01*
X221589971Y-140444274D01*
X221349747Y-140344770D01*
X221349746Y-140344770D01*
X221349745Y-140344769D01*
X221133549Y-140200311D01*
X220949689Y-140016451D01*
X220805231Y-139800255D01*
X220771988Y-139720000D01*
X220705726Y-139560029D01*
X220655000Y-139305011D01*
X220655000Y-139044989D01*
X220705726Y-138789971D01*
X220805230Y-138549747D01*
X220847067Y-138487134D01*
X220949689Y-138333549D01*
X221133549Y-138149689D01*
X221349745Y-138005231D01*
X221410658Y-137980000D01*
X221589971Y-137905726D01*
X221844989Y-137855000D01*
X222105011Y-137855000D01*
X222360029Y-137905726D01*
X222360029Y-137905726D01*
G37*
G36*
X241410029Y-137905726D02*
X241589342Y-137980000D01*
X241650255Y-138005231D01*
X241866451Y-138149689D01*
X242050311Y-138333549D01*
X242152934Y-138487134D01*
X242194770Y-138549747D01*
X242294274Y-138789971D01*
X242345000Y-139044989D01*
X242345000Y-139305011D01*
X242294274Y-139560029D01*
X242228012Y-139720000D01*
X242194769Y-139800255D01*
X242050311Y-140016451D01*
X241866451Y-140200311D01*
X241650255Y-140344769D01*
X241650254Y-140344770D01*
X241650253Y-140344770D01*
X241410029Y-140444274D01*
X241155011Y-140495000D01*
X240894989Y-140495000D01*
X240639971Y-140444274D01*
X240399747Y-140344770D01*
X240399746Y-140344770D01*
X240399745Y-140344769D01*
X240183549Y-140200311D01*
X239999689Y-140016451D01*
X239855231Y-139800255D01*
X239821988Y-139720000D01*
X239755726Y-139560029D01*
X239705000Y-139305011D01*
X239705000Y-139044989D01*
X239755726Y-138789971D01*
X239855230Y-138549747D01*
X239897067Y-138487134D01*
X239999689Y-138333549D01*
X240183549Y-138149689D01*
X240399745Y-138005231D01*
X240460658Y-137980000D01*
X240639971Y-137905726D01*
X240894989Y-137855000D01*
X241155011Y-137855000D01*
X241410029Y-137905726D01*
X241410029Y-137905726D01*
G37*
G36*
X206515545Y-133612960D02*
X206828286Y-133707829D01*
X206843005Y-133712294D01*
X207144792Y-133873603D01*
X207210451Y-133927488D01*
X207409312Y-134090688D01*
X207510682Y-134214209D01*
X207626397Y-134355208D01*
X207626398Y-134355210D01*
X207787706Y-134656995D01*
X207887040Y-134984455D01*
X207920762Y-135326838D01*
X207920762Y-138573162D01*
X207887040Y-138915545D01*
X207812583Y-139160996D01*
X207787706Y-139243005D01*
X207626397Y-139544792D01*
X207613892Y-139560029D01*
X207409312Y-139809312D01*
X207213698Y-139969847D01*
X207144792Y-140026397D01*
X206956606Y-140126985D01*
X206843005Y-140187706D01*
X206515545Y-140287040D01*
X206173162Y-140320762D01*
X201926838Y-140320762D01*
X201584455Y-140287040D01*
X201256995Y-140187706D01*
X201143394Y-140126985D01*
X200955208Y-140026397D01*
X200886302Y-139969847D01*
X200690688Y-139809312D01*
X200486108Y-139560029D01*
X200473603Y-139544792D01*
X200312294Y-139243005D01*
X200287417Y-139160996D01*
X200212960Y-138915545D01*
X200179238Y-138573162D01*
X200179238Y-135326838D01*
X200212960Y-134984455D01*
X200312294Y-134656995D01*
X200473602Y-134355210D01*
X200473603Y-134355208D01*
X200589318Y-134214209D01*
X200690688Y-134090688D01*
X200889549Y-133927488D01*
X200955208Y-133873603D01*
X201256995Y-133712294D01*
X201271714Y-133707829D01*
X201584455Y-133612960D01*
X201926838Y-133579238D01*
X206173162Y-133579238D01*
X206515545Y-133612960D01*
X206515545Y-133612960D01*
G37*
G36*
X274604209Y-136473015D02*
X274949987Y-136616241D01*
X275261176Y-136824171D01*
X275525829Y-137088824D01*
X275733759Y-137400013D01*
X275876985Y-137745791D01*
X275950000Y-138112864D01*
X275950000Y-138487136D01*
X275876985Y-138854209D01*
X275733759Y-139199987D01*
X275525829Y-139511176D01*
X275261176Y-139775829D01*
X274949987Y-139983759D01*
X274604209Y-140126985D01*
X274237136Y-140200000D01*
X273862864Y-140200000D01*
X273495791Y-140126985D01*
X273150013Y-139983759D01*
X272838824Y-139775829D01*
X272574171Y-139511176D01*
X272366241Y-139199987D01*
X272223015Y-138854209D01*
X272150000Y-138487136D01*
X272150000Y-138112864D01*
X272223015Y-137745791D01*
X272366241Y-137400013D01*
X272574171Y-137088824D01*
X272838824Y-136824171D01*
X273150013Y-136616241D01*
X273495791Y-136473015D01*
X273862864Y-136400000D01*
X274237136Y-136400000D01*
X274604209Y-136473015D01*
X274604209Y-136473015D01*
G37*
G36*
X304604209Y-136473015D02*
X304949987Y-136616241D01*
X305261176Y-136824171D01*
X305525829Y-137088824D01*
X305733759Y-137400013D01*
X305876985Y-137745791D01*
X305950000Y-138112864D01*
X305950000Y-138487136D01*
X305876985Y-138854209D01*
X305733759Y-139199987D01*
X305525829Y-139511176D01*
X305261176Y-139775829D01*
X304949987Y-139983759D01*
X304604209Y-140126985D01*
X304237136Y-140200000D01*
X303862864Y-140200000D01*
X303495791Y-140126985D01*
X303150013Y-139983759D01*
X302838824Y-139775829D01*
X302574171Y-139511176D01*
X302366241Y-139199987D01*
X302223015Y-138854209D01*
X302150000Y-138487136D01*
X302150000Y-138112864D01*
X302223015Y-137745791D01*
X302366241Y-137400013D01*
X302574171Y-137088824D01*
X302838824Y-136824171D01*
X303150013Y-136616241D01*
X303495791Y-136473015D01*
X303862864Y-136400000D01*
X304237136Y-136400000D01*
X304604209Y-136473015D01*
X304604209Y-136473015D01*
G37*
G36*
X315672743Y-138002289D02*
X315728770Y-138013433D01*
X315887100Y-138079016D01*
X316029593Y-138174227D01*
X316150773Y-138295407D01*
X316245984Y-138437900D01*
X316311567Y-138596230D01*
X316345000Y-138764312D01*
X316345000Y-138935688D01*
X316311567Y-139103770D01*
X316271712Y-139199987D01*
X316253894Y-139243005D01*
X316245984Y-139262100D01*
X316150773Y-139404593D01*
X316029593Y-139525773D01*
X315887100Y-139620984D01*
X315728770Y-139686567D01*
X315696197Y-139693046D01*
X315560690Y-139720000D01*
X315389310Y-139720000D01*
X315253803Y-139693046D01*
X315221230Y-139686567D01*
X315062900Y-139620984D01*
X314920407Y-139525773D01*
X314799227Y-139404593D01*
X314704016Y-139262100D01*
X314696107Y-139243005D01*
X314678288Y-139199987D01*
X314638433Y-139103770D01*
X314605000Y-138935688D01*
X314605000Y-138764312D01*
X314638433Y-138596230D01*
X314704016Y-138437900D01*
X314799227Y-138295407D01*
X314920407Y-138174227D01*
X315062900Y-138079016D01*
X315221230Y-138013433D01*
X315277257Y-138002289D01*
X315389310Y-137980000D01*
X315560690Y-137980000D01*
X315672743Y-138002289D01*
X315672743Y-138002289D01*
G37*
G36*
X227825000Y-138490287D02*
X227825000Y-139559713D01*
X227025000Y-139693046D01*
X227025000Y-138356954D01*
X227825000Y-138490287D01*
X227825000Y-138490287D01*
G37*
G36*
X226825000Y-139693046D02*
X226025000Y-139559713D01*
X226025000Y-138490287D01*
X226825000Y-138356954D01*
X226825000Y-139693046D01*
X226825000Y-139693046D01*
G37*
G36*
X215062547Y-135280701D02*
X215444722Y-135439003D01*
X215444723Y-135439004D01*
X215788672Y-135668823D01*
X216081177Y-135961328D01*
X216159813Y-136079016D01*
X216310997Y-136305278D01*
X216469299Y-136687453D01*
X216550000Y-137093166D01*
X216550000Y-137506834D01*
X216469299Y-137912547D01*
X216310997Y-138294722D01*
X216269415Y-138356954D01*
X216081177Y-138638672D01*
X215788672Y-138931177D01*
X215618340Y-139044989D01*
X215444722Y-139160997D01*
X215062547Y-139319299D01*
X214656834Y-139400000D01*
X214243166Y-139400000D01*
X213837453Y-139319299D01*
X213455278Y-139160997D01*
X213281660Y-139044989D01*
X213111328Y-138931177D01*
X212818823Y-138638672D01*
X212630585Y-138356954D01*
X212589003Y-138294722D01*
X212430701Y-137912547D01*
X212350000Y-137506834D01*
X212350000Y-137093166D01*
X212430701Y-136687453D01*
X212589003Y-136305278D01*
X212740187Y-136079016D01*
X212818823Y-135961328D01*
X213111328Y-135668823D01*
X213455277Y-135439004D01*
X213455278Y-135439003D01*
X213837453Y-135280701D01*
X214243166Y-135200000D01*
X214656834Y-135200000D01*
X215062547Y-135280701D01*
X215062547Y-135280701D01*
G37*
G36*
X315672743Y-136002289D02*
X315728770Y-136013433D01*
X315887100Y-136079016D01*
X316029593Y-136174227D01*
X316150773Y-136295407D01*
X316245984Y-136437900D01*
X316311567Y-136596230D01*
X316345000Y-136764312D01*
X316345000Y-136935688D01*
X316311567Y-137103770D01*
X316245984Y-137262100D01*
X316150773Y-137404593D01*
X316029593Y-137525773D01*
X315887100Y-137620984D01*
X315728770Y-137686567D01*
X315672743Y-137697711D01*
X315560690Y-137720000D01*
X315389310Y-137720000D01*
X315277257Y-137697711D01*
X315221230Y-137686567D01*
X315062900Y-137620984D01*
X314920407Y-137525773D01*
X314799227Y-137404593D01*
X314704016Y-137262100D01*
X314638433Y-137103770D01*
X314605000Y-136935688D01*
X314605000Y-136764312D01*
X314638433Y-136596230D01*
X314704016Y-136437900D01*
X314799227Y-136295407D01*
X314920407Y-136174227D01*
X315062900Y-136079016D01*
X315221230Y-136013433D01*
X315277257Y-136002289D01*
X315389310Y-135980000D01*
X315560690Y-135980000D01*
X315672743Y-136002289D01*
X315672743Y-136002289D01*
G37*
G36*
X177995351Y-135120272D02*
X177995472Y-135120311D01*
X177995477Y-135120311D01*
X178107508Y-135155850D01*
X178210621Y-135212536D01*
X178300760Y-135288172D01*
X178374487Y-135379870D01*
X178429004Y-135484151D01*
X178462224Y-135597025D01*
X178472889Y-135714209D01*
X178460589Y-135831232D01*
X178425796Y-135943634D01*
X178369828Y-136047142D01*
X178294827Y-136137804D01*
X178203645Y-136212170D01*
X178099746Y-136267414D01*
X177987106Y-136301422D01*
X177899620Y-136310000D01*
X177142380Y-136310000D01*
X177044649Y-136299728D01*
X177044528Y-136299689D01*
X177044523Y-136299689D01*
X176932492Y-136264150D01*
X176829379Y-136207464D01*
X176739240Y-136131828D01*
X176665513Y-136040130D01*
X176610996Y-135935849D01*
X176577776Y-135822975D01*
X176567111Y-135705791D01*
X176579411Y-135588768D01*
X176614204Y-135476366D01*
X176670172Y-135372858D01*
X176745173Y-135282196D01*
X176836355Y-135207830D01*
X176940254Y-135152586D01*
X177052894Y-135118578D01*
X177140380Y-135110000D01*
X177897620Y-135110000D01*
X177995351Y-135120272D01*
X177995351Y-135120272D01*
G37*
G36*
X231070000Y-136020000D02*
X228530000Y-136020000D01*
X228530000Y-130180000D01*
X231070000Y-130180000D01*
X231070000Y-136020000D01*
X231070000Y-136020000D01*
G37*
G36*
X223670000Y-136020000D02*
X221130000Y-136020000D01*
X221130000Y-130180000D01*
X223670000Y-130180000D01*
X223670000Y-136020000D01*
X223670000Y-136020000D01*
G37*
G36*
X315672743Y-134002289D02*
X315728770Y-134013433D01*
X315887100Y-134079016D01*
X316029593Y-134174227D01*
X316150773Y-134295407D01*
X316245984Y-134437900D01*
X316311567Y-134596230D01*
X316318648Y-134631828D01*
X316334629Y-134712170D01*
X316345000Y-134764312D01*
X316345000Y-134935688D01*
X316311567Y-135103770D01*
X316245984Y-135262100D01*
X316150773Y-135404593D01*
X316029593Y-135525773D01*
X315887100Y-135620984D01*
X315728770Y-135686567D01*
X315672743Y-135697711D01*
X315560690Y-135720000D01*
X315389310Y-135720000D01*
X315277257Y-135697711D01*
X315221230Y-135686567D01*
X315062900Y-135620984D01*
X314920407Y-135525773D01*
X314799227Y-135404593D01*
X314704016Y-135262100D01*
X314638433Y-135103770D01*
X314605000Y-134935688D01*
X314605000Y-134764312D01*
X314615372Y-134712170D01*
X314631352Y-134631828D01*
X314638433Y-134596230D01*
X314704016Y-134437900D01*
X314799227Y-134295407D01*
X314920407Y-134174227D01*
X315062900Y-134079016D01*
X315221230Y-134013433D01*
X315277257Y-134002289D01*
X315389310Y-133980000D01*
X315560690Y-133980000D01*
X315672743Y-134002289D01*
X315672743Y-134002289D01*
G37*
G36*
X188076548Y-134362473D02*
X188076669Y-134362512D01*
X188076674Y-134362512D01*
X188134231Y-134380771D01*
X188155956Y-134387662D01*
X188155958Y-134387663D01*
X188228958Y-134427794D01*
X188292778Y-134481346D01*
X188344978Y-134546269D01*
X188383574Y-134620098D01*
X188407095Y-134700013D01*
X188414646Y-134782979D01*
X188405937Y-134865833D01*
X188381304Y-134945413D01*
X188341678Y-135018697D01*
X188288578Y-135082885D01*
X188224021Y-135135536D01*
X188150459Y-135174650D01*
X188070712Y-135198727D01*
X188008772Y-135204800D01*
X187104648Y-135204800D01*
X187035452Y-135197527D01*
X187035331Y-135197488D01*
X187035326Y-135197488D01*
X186963333Y-135174650D01*
X186956044Y-135172338D01*
X186956042Y-135172337D01*
X186883042Y-135132206D01*
X186819222Y-135078654D01*
X186767022Y-135013731D01*
X186728426Y-134939902D01*
X186704905Y-134859987D01*
X186697354Y-134777021D01*
X186706063Y-134694167D01*
X186730696Y-134614587D01*
X186770322Y-134541303D01*
X186823422Y-134477115D01*
X186887979Y-134424464D01*
X186961541Y-134385350D01*
X187041288Y-134361273D01*
X187103228Y-134355200D01*
X188007352Y-134355200D01*
X188076548Y-134362473D01*
X188076548Y-134362473D01*
G37*
G36*
X193664548Y-134362473D02*
X193664669Y-134362512D01*
X193664674Y-134362512D01*
X193722231Y-134380771D01*
X193743956Y-134387662D01*
X193743958Y-134387663D01*
X193816958Y-134427794D01*
X193880778Y-134481346D01*
X193932978Y-134546269D01*
X193971574Y-134620098D01*
X193995095Y-134700013D01*
X194002646Y-134782979D01*
X193993937Y-134865833D01*
X193969304Y-134945413D01*
X193929678Y-135018697D01*
X193876578Y-135082885D01*
X193812021Y-135135536D01*
X193738459Y-135174650D01*
X193658712Y-135198727D01*
X193596772Y-135204800D01*
X192692648Y-135204800D01*
X192623452Y-135197527D01*
X192623331Y-135197488D01*
X192623326Y-135197488D01*
X192551333Y-135174650D01*
X192544044Y-135172338D01*
X192544042Y-135172337D01*
X192471042Y-135132206D01*
X192407222Y-135078654D01*
X192355022Y-135013731D01*
X192316426Y-134939902D01*
X192292905Y-134859987D01*
X192285354Y-134777021D01*
X192294063Y-134694167D01*
X192318696Y-134614587D01*
X192358322Y-134541303D01*
X192411422Y-134477115D01*
X192475979Y-134424464D01*
X192549541Y-134385350D01*
X192629288Y-134361273D01*
X192691228Y-134355200D01*
X193595352Y-134355200D01*
X193664548Y-134362473D01*
X193664548Y-134362473D01*
G37*
G36*
X177995351Y-133620272D02*
X177995472Y-133620311D01*
X177995477Y-133620311D01*
X178107508Y-133655850D01*
X178210621Y-133712536D01*
X178300760Y-133788172D01*
X178374487Y-133879870D01*
X178429004Y-133984151D01*
X178462224Y-134097025D01*
X178472889Y-134214209D01*
X178460589Y-134331232D01*
X178425796Y-134443634D01*
X178369828Y-134547142D01*
X178294827Y-134637804D01*
X178203645Y-134712170D01*
X178099746Y-134767414D01*
X177987106Y-134801422D01*
X177899620Y-134810000D01*
X177142380Y-134810000D01*
X177044649Y-134799728D01*
X177044528Y-134799689D01*
X177044523Y-134799689D01*
X176932492Y-134764150D01*
X176829379Y-134707464D01*
X176739240Y-134631828D01*
X176665513Y-134540130D01*
X176610996Y-134435849D01*
X176577776Y-134322975D01*
X176567111Y-134205791D01*
X176579411Y-134088768D01*
X176614204Y-133976366D01*
X176670172Y-133872858D01*
X176745173Y-133782196D01*
X176836355Y-133707830D01*
X176940254Y-133652586D01*
X177052894Y-133618578D01*
X177140380Y-133610000D01*
X177897620Y-133610000D01*
X177995351Y-133620272D01*
X177995351Y-133620272D01*
G37*
G36*
X313915465Y-132643834D02*
X313985016Y-132657669D01*
X314116048Y-132711944D01*
X314233973Y-132790739D01*
X314334261Y-132891027D01*
X314413056Y-133008952D01*
X314467331Y-133139984D01*
X314470874Y-133157796D01*
X314493453Y-133271306D01*
X314495000Y-133279086D01*
X314495000Y-133420914D01*
X314467331Y-133560016D01*
X314413056Y-133691048D01*
X314334261Y-133808973D01*
X314233973Y-133909261D01*
X314116048Y-133988056D01*
X313985016Y-134042331D01*
X313915465Y-134056166D01*
X313845916Y-134070000D01*
X313704084Y-134070000D01*
X313634535Y-134056166D01*
X313564984Y-134042331D01*
X313433952Y-133988056D01*
X313316027Y-133909261D01*
X313215739Y-133808973D01*
X313136944Y-133691048D01*
X313082669Y-133560016D01*
X313055000Y-133420914D01*
X313055000Y-133279086D01*
X313056548Y-133271306D01*
X313079126Y-133157796D01*
X313082669Y-133139984D01*
X313136944Y-133008952D01*
X313215739Y-132891027D01*
X313316027Y-132790739D01*
X313433952Y-132711944D01*
X313564984Y-132657669D01*
X313634535Y-132643834D01*
X313704084Y-132630000D01*
X313845916Y-132630000D01*
X313915465Y-132643834D01*
X313915465Y-132643834D01*
G37*
G36*
X188076548Y-133092473D02*
X188076669Y-133092512D01*
X188076674Y-133092512D01*
X188134231Y-133110771D01*
X188155956Y-133117662D01*
X188155958Y-133117663D01*
X188228958Y-133157794D01*
X188292778Y-133211346D01*
X188344978Y-133276269D01*
X188383574Y-133350098D01*
X188407095Y-133430013D01*
X188414646Y-133512979D01*
X188405937Y-133595833D01*
X188381304Y-133675413D01*
X188341678Y-133748697D01*
X188288578Y-133812885D01*
X188224021Y-133865536D01*
X188150459Y-133904650D01*
X188070712Y-133928727D01*
X188008772Y-133934800D01*
X187104648Y-133934800D01*
X187035452Y-133927527D01*
X187035331Y-133927488D01*
X187035326Y-133927488D01*
X186963333Y-133904650D01*
X186956044Y-133902338D01*
X186956042Y-133902337D01*
X186883042Y-133862206D01*
X186819222Y-133808654D01*
X186767022Y-133743731D01*
X186728426Y-133669902D01*
X186704905Y-133589987D01*
X186697354Y-133507021D01*
X186706063Y-133424167D01*
X186730696Y-133344587D01*
X186770322Y-133271303D01*
X186823422Y-133207115D01*
X186887979Y-133154464D01*
X186961541Y-133115350D01*
X187041288Y-133091273D01*
X187103228Y-133085200D01*
X188007352Y-133085200D01*
X188076548Y-133092473D01*
X188076548Y-133092473D01*
G37*
G36*
X193664548Y-133092473D02*
X193664669Y-133092512D01*
X193664674Y-133092512D01*
X193722231Y-133110771D01*
X193743956Y-133117662D01*
X193743958Y-133117663D01*
X193816958Y-133157794D01*
X193880778Y-133211346D01*
X193932978Y-133276269D01*
X193971574Y-133350098D01*
X193995095Y-133430013D01*
X194002646Y-133512979D01*
X193993937Y-133595833D01*
X193969304Y-133675413D01*
X193929678Y-133748697D01*
X193876578Y-133812885D01*
X193812021Y-133865536D01*
X193738459Y-133904650D01*
X193658712Y-133928727D01*
X193596772Y-133934800D01*
X192692648Y-133934800D01*
X192623452Y-133927527D01*
X192623331Y-133927488D01*
X192623326Y-133927488D01*
X192551333Y-133904650D01*
X192544044Y-133902338D01*
X192544042Y-133902337D01*
X192471042Y-133862206D01*
X192407222Y-133808654D01*
X192355022Y-133743731D01*
X192316426Y-133669902D01*
X192292905Y-133589987D01*
X192285354Y-133507021D01*
X192294063Y-133424167D01*
X192318696Y-133344587D01*
X192358322Y-133271303D01*
X192411422Y-133207115D01*
X192475979Y-133154464D01*
X192549541Y-133115350D01*
X192629288Y-133091273D01*
X192691228Y-133085200D01*
X193595352Y-133085200D01*
X193664548Y-133092473D01*
X193664548Y-133092473D01*
G37*
G36*
X178470000Y-133310000D02*
X176570000Y-133310000D01*
X176570000Y-132110000D01*
X178470000Y-132110000D01*
X178470000Y-133310000D01*
X178470000Y-133310000D01*
G37*
G36*
X205469163Y-126137939D02*
X206040493Y-126311250D01*
X206567032Y-126592691D01*
X207028550Y-126971450D01*
X207407309Y-127432968D01*
X207688750Y-127959507D01*
X207862061Y-128530837D01*
X207920762Y-129126838D01*
X207920762Y-129773162D01*
X207862061Y-130369163D01*
X207688750Y-130940493D01*
X207407309Y-131467032D01*
X207028550Y-131928550D01*
X206567032Y-132307309D01*
X206040493Y-132588750D01*
X205469163Y-132762061D01*
X204873162Y-132820762D01*
X203226838Y-132820762D01*
X202630837Y-132762061D01*
X202059507Y-132588750D01*
X201532968Y-132307309D01*
X201071450Y-131928550D01*
X200692691Y-131467032D01*
X200411250Y-130940493D01*
X200237939Y-130369163D01*
X200179238Y-129773162D01*
X200179238Y-129126838D01*
X200237939Y-128530837D01*
X200411250Y-127959507D01*
X200692691Y-127432968D01*
X201071450Y-126971450D01*
X201532968Y-126592691D01*
X202059507Y-126311250D01*
X202630837Y-126137939D01*
X203226838Y-126079238D01*
X204873162Y-126079238D01*
X205469163Y-126137939D01*
X205469163Y-126137939D01*
G37*
G36*
X193664548Y-131822473D02*
X193664669Y-131822512D01*
X193664674Y-131822512D01*
X193722231Y-131840771D01*
X193743956Y-131847662D01*
X193743958Y-131847663D01*
X193816958Y-131887794D01*
X193880778Y-131941346D01*
X193932978Y-132006269D01*
X193971574Y-132080098D01*
X193995095Y-132160013D01*
X194002646Y-132242979D01*
X193993937Y-132325833D01*
X193969304Y-132405413D01*
X193929678Y-132478697D01*
X193876578Y-132542885D01*
X193812021Y-132595536D01*
X193738459Y-132634650D01*
X193658712Y-132658727D01*
X193596772Y-132664800D01*
X192692648Y-132664800D01*
X192623452Y-132657527D01*
X192623331Y-132657488D01*
X192623326Y-132657488D01*
X192551333Y-132634650D01*
X192544044Y-132632338D01*
X192539791Y-132630000D01*
X192471042Y-132592206D01*
X192407222Y-132538654D01*
X192355022Y-132473731D01*
X192316426Y-132399902D01*
X192292905Y-132319987D01*
X192285354Y-132237021D01*
X192294063Y-132154167D01*
X192318696Y-132074587D01*
X192358322Y-132001303D01*
X192411422Y-131937115D01*
X192475979Y-131884464D01*
X192549541Y-131845350D01*
X192629288Y-131821273D01*
X192691228Y-131815200D01*
X193595352Y-131815200D01*
X193664548Y-131822473D01*
X193664548Y-131822473D01*
G37*
G36*
X188076548Y-131822473D02*
X188076669Y-131822512D01*
X188076674Y-131822512D01*
X188134231Y-131840771D01*
X188155956Y-131847662D01*
X188155958Y-131847663D01*
X188228958Y-131887794D01*
X188292778Y-131941346D01*
X188344978Y-132006269D01*
X188383574Y-132080098D01*
X188407095Y-132160013D01*
X188414646Y-132242979D01*
X188405937Y-132325833D01*
X188381304Y-132405413D01*
X188341678Y-132478697D01*
X188288578Y-132542885D01*
X188224021Y-132595536D01*
X188150459Y-132634650D01*
X188070712Y-132658727D01*
X188008772Y-132664800D01*
X187104648Y-132664800D01*
X187035452Y-132657527D01*
X187035331Y-132657488D01*
X187035326Y-132657488D01*
X186963333Y-132634650D01*
X186956044Y-132632338D01*
X186951791Y-132630000D01*
X186883042Y-132592206D01*
X186819222Y-132538654D01*
X186767022Y-132473731D01*
X186728426Y-132399902D01*
X186704905Y-132319987D01*
X186697354Y-132237021D01*
X186706063Y-132154167D01*
X186730696Y-132074587D01*
X186770322Y-132001303D01*
X186823422Y-131937115D01*
X186887979Y-131884464D01*
X186961541Y-131845350D01*
X187041288Y-131821273D01*
X187103228Y-131815200D01*
X188007352Y-131815200D01*
X188076548Y-131822473D01*
X188076548Y-131822473D01*
G37*
G36*
X193664548Y-130552473D02*
X193664669Y-130552512D01*
X193664674Y-130552512D01*
X193722231Y-130570771D01*
X193743956Y-130577662D01*
X193743958Y-130577663D01*
X193816958Y-130617794D01*
X193880778Y-130671346D01*
X193932978Y-130736269D01*
X193971574Y-130810098D01*
X193995095Y-130890013D01*
X194002646Y-130972979D01*
X193993937Y-131055833D01*
X193969304Y-131135413D01*
X193929678Y-131208697D01*
X193876578Y-131272885D01*
X193812021Y-131325536D01*
X193738459Y-131364650D01*
X193658712Y-131388727D01*
X193596772Y-131394800D01*
X192692648Y-131394800D01*
X192623452Y-131387527D01*
X192623331Y-131387488D01*
X192623326Y-131387488D01*
X192551333Y-131364650D01*
X192544044Y-131362338D01*
X192544042Y-131362337D01*
X192471042Y-131322206D01*
X192407222Y-131268654D01*
X192355022Y-131203731D01*
X192316426Y-131129902D01*
X192292905Y-131049987D01*
X192285354Y-130967021D01*
X192294063Y-130884167D01*
X192318696Y-130804587D01*
X192358322Y-130731303D01*
X192411422Y-130667115D01*
X192475979Y-130614464D01*
X192549541Y-130575350D01*
X192629288Y-130551273D01*
X192691228Y-130545200D01*
X193595352Y-130545200D01*
X193664548Y-130552473D01*
X193664548Y-130552473D01*
G37*
G36*
X188076548Y-130552473D02*
X188076669Y-130552512D01*
X188076674Y-130552512D01*
X188134231Y-130570771D01*
X188155956Y-130577662D01*
X188155958Y-130577663D01*
X188228958Y-130617794D01*
X188292778Y-130671346D01*
X188344978Y-130736269D01*
X188383574Y-130810098D01*
X188407095Y-130890013D01*
X188414646Y-130972979D01*
X188405937Y-131055833D01*
X188381304Y-131135413D01*
X188341678Y-131208697D01*
X188288578Y-131272885D01*
X188224021Y-131325536D01*
X188150459Y-131364650D01*
X188070712Y-131388727D01*
X188008772Y-131394800D01*
X187104648Y-131394800D01*
X187035452Y-131387527D01*
X187035331Y-131387488D01*
X187035326Y-131387488D01*
X186963333Y-131364650D01*
X186956044Y-131362338D01*
X186956042Y-131362337D01*
X186883042Y-131322206D01*
X186819222Y-131268654D01*
X186767022Y-131203731D01*
X186728426Y-131129902D01*
X186704905Y-131049987D01*
X186697354Y-130967021D01*
X186706063Y-130884167D01*
X186730696Y-130804587D01*
X186770322Y-130731303D01*
X186823422Y-130667115D01*
X186887979Y-130614464D01*
X186961541Y-130575350D01*
X187041288Y-130551273D01*
X187103228Y-130545200D01*
X188007352Y-130545200D01*
X188076548Y-130552473D01*
X188076548Y-130552473D01*
G37*
G36*
X177065465Y-129618835D02*
X177135016Y-129632669D01*
X177266048Y-129686944D01*
X177383973Y-129765739D01*
X177484261Y-129866027D01*
X177563056Y-129983952D01*
X177617331Y-130114984D01*
X177645000Y-130254086D01*
X177645000Y-130395914D01*
X177617331Y-130535016D01*
X177563056Y-130666048D01*
X177484261Y-130783973D01*
X177383973Y-130884261D01*
X177266048Y-130963056D01*
X177135016Y-131017331D01*
X177065465Y-131031165D01*
X176995916Y-131045000D01*
X176854084Y-131045000D01*
X176784535Y-131031165D01*
X176714984Y-131017331D01*
X176583952Y-130963056D01*
X176466027Y-130884261D01*
X176365739Y-130783973D01*
X176286944Y-130666048D01*
X176232669Y-130535016D01*
X176205000Y-130395914D01*
X176205000Y-130254086D01*
X176232669Y-130114984D01*
X176286944Y-129983952D01*
X176365739Y-129866027D01*
X176466027Y-129765739D01*
X176583952Y-129686944D01*
X176714984Y-129632669D01*
X176784535Y-129618835D01*
X176854084Y-129605000D01*
X176995916Y-129605000D01*
X177065465Y-129618835D01*
X177065465Y-129618835D01*
G37*
G36*
X249536819Y-130310018D02*
X247996819Y-130310018D01*
X247996819Y-129370018D01*
X249536819Y-129370018D01*
X249536819Y-130310018D01*
X249536819Y-130310018D01*
G37*
G36*
X246536819Y-130308782D02*
X244996819Y-130308782D01*
X244996819Y-129368782D01*
X246536819Y-129368782D01*
X246536819Y-130308782D01*
X246536819Y-130308782D01*
G37*
G36*
X252536819Y-130260018D02*
X250996819Y-130260018D01*
X250996819Y-129320018D01*
X252536819Y-129320018D01*
X252536819Y-130260018D01*
X252536819Y-130260018D01*
G37*
G36*
X193995000Y-129895000D02*
X192555000Y-129895000D01*
X192555000Y-128905000D01*
X193995000Y-128905000D01*
X193995000Y-129895000D01*
X193995000Y-129895000D01*
G37*
G36*
X192095000Y-129895000D02*
X190655000Y-129895000D01*
X190655000Y-128905000D01*
X192095000Y-128905000D01*
X192095000Y-129895000D01*
X192095000Y-129895000D01*
G37*
G36*
X178822743Y-127977289D02*
X178878770Y-127988433D01*
X179037100Y-128054016D01*
X179179593Y-128149227D01*
X179300773Y-128270407D01*
X179395984Y-128412900D01*
X179461567Y-128571230D01*
X179495000Y-128739312D01*
X179495000Y-128910688D01*
X179461567Y-129078770D01*
X179395984Y-129237100D01*
X179300773Y-129379593D01*
X179179593Y-129500773D01*
X179037100Y-129595984D01*
X178878770Y-129661567D01*
X178822743Y-129672711D01*
X178710690Y-129695000D01*
X178539310Y-129695000D01*
X178427257Y-129672711D01*
X178371230Y-129661567D01*
X178212900Y-129595984D01*
X178070407Y-129500773D01*
X177949227Y-129379593D01*
X177854016Y-129237100D01*
X177788433Y-129078770D01*
X177755000Y-128910688D01*
X177755000Y-128739312D01*
X177788433Y-128571230D01*
X177854016Y-128412900D01*
X177949227Y-128270407D01*
X178070407Y-128149227D01*
X178212900Y-128054016D01*
X178371230Y-127988433D01*
X178427257Y-127977289D01*
X178539310Y-127955000D01*
X178710690Y-127955000D01*
X178822743Y-127977289D01*
X178822743Y-127977289D01*
G37*
G36*
X249536819Y-128410018D02*
X247996819Y-128410018D01*
X247996819Y-127470018D01*
X249536819Y-127470018D01*
X249536819Y-128410018D01*
X249536819Y-128410018D01*
G37*
G36*
X246536819Y-128408782D02*
X244996819Y-128408782D01*
X244996819Y-127468782D01*
X246536819Y-127468782D01*
X246536819Y-128408782D01*
X246536819Y-128408782D01*
G37*
G36*
X252536819Y-128360018D02*
X250996819Y-128360018D01*
X250996819Y-127420018D01*
X252536819Y-127420018D01*
X252536819Y-128360018D01*
X252536819Y-128360018D01*
G37*
G36*
X234620000Y-127770000D02*
X228780000Y-127770000D01*
X228780000Y-125230000D01*
X234620000Y-125230000D01*
X234620000Y-127770000D01*
X234620000Y-127770000D01*
G37*
G36*
X178822743Y-125977289D02*
X178878770Y-125988433D01*
X179037100Y-126054016D01*
X179179593Y-126149227D01*
X179300773Y-126270407D01*
X179300775Y-126270410D01*
X179395985Y-126412902D01*
X179461567Y-126571231D01*
X179495000Y-126739310D01*
X179495000Y-126910690D01*
X179482914Y-126971450D01*
X179461567Y-127078770D01*
X179395984Y-127237100D01*
X179300773Y-127379593D01*
X179179593Y-127500773D01*
X179037100Y-127595984D01*
X178878770Y-127661567D01*
X178822743Y-127672711D01*
X178710690Y-127695000D01*
X178539310Y-127695000D01*
X178427257Y-127672711D01*
X178371230Y-127661567D01*
X178212900Y-127595984D01*
X178070407Y-127500773D01*
X177949227Y-127379593D01*
X177854016Y-127237100D01*
X177788433Y-127078770D01*
X177767086Y-126971450D01*
X177755000Y-126910690D01*
X177755000Y-126739310D01*
X177788433Y-126571231D01*
X177854015Y-126412902D01*
X177949225Y-126270410D01*
X177949227Y-126270407D01*
X178070407Y-126149227D01*
X178212900Y-126054016D01*
X178371230Y-125988433D01*
X178427257Y-125977289D01*
X178539310Y-125955000D01*
X178710690Y-125955000D01*
X178822743Y-125977289D01*
X178822743Y-125977289D01*
G37*
G36*
X215062547Y-123280701D02*
X215444722Y-123439003D01*
X215444723Y-123439004D01*
X215788672Y-123668823D01*
X216081177Y-123961328D01*
X216206727Y-124149227D01*
X216310997Y-124305278D01*
X216469299Y-124687453D01*
X216550000Y-125093166D01*
X216550000Y-125506834D01*
X216469299Y-125912547D01*
X216310997Y-126294722D01*
X216253932Y-126380125D01*
X216081177Y-126638672D01*
X215788672Y-126931177D01*
X215567783Y-127078770D01*
X215444722Y-127160997D01*
X215062547Y-127319299D01*
X214656834Y-127400000D01*
X214243166Y-127400000D01*
X213837453Y-127319299D01*
X213455278Y-127160997D01*
X213332217Y-127078770D01*
X213111328Y-126931177D01*
X212818823Y-126638672D01*
X212646068Y-126380125D01*
X212589003Y-126294722D01*
X212430701Y-125912547D01*
X212350000Y-125506834D01*
X212350000Y-125093166D01*
X212430701Y-124687453D01*
X212589003Y-124305278D01*
X212693273Y-124149227D01*
X212818823Y-123961328D01*
X213111328Y-123668823D01*
X213455277Y-123439004D01*
X213455278Y-123439003D01*
X213837453Y-123280701D01*
X214243166Y-123200000D01*
X214656834Y-123200000D01*
X215062547Y-123280701D01*
X215062547Y-123280701D01*
G37*
G36*
X178822743Y-123977289D02*
X178878770Y-123988433D01*
X179037100Y-124054016D01*
X179179593Y-124149227D01*
X179300773Y-124270407D01*
X179395984Y-124412900D01*
X179461567Y-124571230D01*
X179495000Y-124739312D01*
X179495000Y-124910688D01*
X179461567Y-125078770D01*
X179395984Y-125237100D01*
X179300773Y-125379593D01*
X179179593Y-125500773D01*
X179037100Y-125595984D01*
X178878770Y-125661567D01*
X178822743Y-125672711D01*
X178710690Y-125695000D01*
X178539310Y-125695000D01*
X178427257Y-125672711D01*
X178371230Y-125661567D01*
X178212900Y-125595984D01*
X178070407Y-125500773D01*
X177949227Y-125379593D01*
X177854016Y-125237100D01*
X177788433Y-125078770D01*
X177755000Y-124910688D01*
X177755000Y-124739312D01*
X177788433Y-124571230D01*
X177854016Y-124412900D01*
X177949227Y-124270407D01*
X178070407Y-124149227D01*
X178212900Y-124054016D01*
X178371230Y-123988433D01*
X178427257Y-123977289D01*
X178539310Y-123955000D01*
X178710690Y-123955000D01*
X178822743Y-123977289D01*
X178822743Y-123977289D01*
G37*
G36*
X222360029Y-122025726D02*
X222600253Y-122125230D01*
X222600255Y-122125231D01*
X222816451Y-122269689D01*
X223000311Y-122453549D01*
X223119996Y-122632669D01*
X223144770Y-122669747D01*
X223244274Y-122909971D01*
X223295000Y-123164989D01*
X223295000Y-123425011D01*
X223244274Y-123680029D01*
X223144770Y-123920253D01*
X223144769Y-123920255D01*
X223000311Y-124136451D01*
X222816451Y-124320311D01*
X222600255Y-124464769D01*
X222600254Y-124464770D01*
X222600253Y-124464770D01*
X222360029Y-124564274D01*
X222105011Y-124615000D01*
X221844989Y-124615000D01*
X221589971Y-124564274D01*
X221349747Y-124464770D01*
X221349746Y-124464770D01*
X221349745Y-124464769D01*
X221133549Y-124320311D01*
X220949689Y-124136451D01*
X220805231Y-123920255D01*
X220805230Y-123920253D01*
X220705726Y-123680029D01*
X220655000Y-123425011D01*
X220655000Y-123164989D01*
X220705726Y-122909971D01*
X220805230Y-122669747D01*
X220830005Y-122632669D01*
X220949689Y-122453549D01*
X221133549Y-122269689D01*
X221349745Y-122125231D01*
X221349747Y-122125230D01*
X221589971Y-122025726D01*
X221844989Y-121975000D01*
X222105011Y-121975000D01*
X222360029Y-122025726D01*
X222360029Y-122025726D01*
G37*
G36*
X177065465Y-122618835D02*
X177135016Y-122632669D01*
X177266048Y-122686944D01*
X177383973Y-122765739D01*
X177484261Y-122866027D01*
X177563056Y-122983952D01*
X177617331Y-123114984D01*
X177627278Y-123164991D01*
X177645000Y-123254084D01*
X177645000Y-123395916D01*
X177636429Y-123439003D01*
X177617331Y-123535016D01*
X177563056Y-123666048D01*
X177484261Y-123783973D01*
X177383973Y-123884261D01*
X177266048Y-123963056D01*
X177135016Y-124017331D01*
X177065465Y-124031166D01*
X176995916Y-124045000D01*
X176854084Y-124045000D01*
X176784535Y-124031166D01*
X176714984Y-124017331D01*
X176583952Y-123963056D01*
X176466027Y-123884261D01*
X176365739Y-123783973D01*
X176286944Y-123666048D01*
X176232669Y-123535016D01*
X176213571Y-123439003D01*
X176205000Y-123395916D01*
X176205000Y-123254084D01*
X176222722Y-123164991D01*
X176232669Y-123114984D01*
X176286944Y-122983952D01*
X176365739Y-122866027D01*
X176466027Y-122765739D01*
X176583952Y-122686944D01*
X176714984Y-122632669D01*
X176784535Y-122618835D01*
X176854084Y-122605000D01*
X176995916Y-122605000D01*
X177065465Y-122618835D01*
X177065465Y-122618835D01*
G37*
G36*
X206515545Y-115562960D02*
X206843005Y-115662294D01*
X207144792Y-115823603D01*
X207171828Y-115845791D01*
X207409312Y-116040688D01*
X207569847Y-116236302D01*
X207626397Y-116305208D01*
X207626398Y-116305210D01*
X207787706Y-116606995D01*
X207887040Y-116934455D01*
X207920762Y-117276838D01*
X207920762Y-120523162D01*
X207887040Y-120865545D01*
X207803690Y-121140313D01*
X207787706Y-121193005D01*
X207626397Y-121494792D01*
X207569847Y-121563698D01*
X207409312Y-121759312D01*
X207213698Y-121919847D01*
X207144792Y-121976397D01*
X207144790Y-121976398D01*
X206843005Y-122137706D01*
X206515545Y-122237040D01*
X206173162Y-122270762D01*
X201926838Y-122270762D01*
X201584455Y-122237040D01*
X201256995Y-122137706D01*
X200955210Y-121976398D01*
X200955208Y-121976397D01*
X200886302Y-121919847D01*
X200690688Y-121759312D01*
X200530153Y-121563698D01*
X200473603Y-121494792D01*
X200312294Y-121193005D01*
X200296310Y-121140313D01*
X200212960Y-120865545D01*
X200179238Y-120523162D01*
X200179238Y-117276838D01*
X200212960Y-116934455D01*
X200312294Y-116606995D01*
X200473602Y-116305210D01*
X200473603Y-116305208D01*
X200530153Y-116236302D01*
X200690688Y-116040688D01*
X200928172Y-115845791D01*
X200955208Y-115823603D01*
X201256995Y-115662294D01*
X201584455Y-115562960D01*
X201926838Y-115529238D01*
X206173162Y-115529238D01*
X206515545Y-115562960D01*
X206515545Y-115562960D01*
G37*
G36*
X222360029Y-118845726D02*
X222600253Y-118945230D01*
X222600255Y-118945231D01*
X222816451Y-119089689D01*
X223000311Y-119273549D01*
X223124434Y-119459311D01*
X223144770Y-119489747D01*
X223244274Y-119729971D01*
X223295000Y-119984989D01*
X223295000Y-120245011D01*
X223244274Y-120500029D01*
X223194580Y-120620000D01*
X223144769Y-120740255D01*
X223000311Y-120956451D01*
X222816451Y-121140311D01*
X222600255Y-121284769D01*
X222600254Y-121284770D01*
X222600253Y-121284770D01*
X222360029Y-121384274D01*
X222105011Y-121435000D01*
X221844989Y-121435000D01*
X221589971Y-121384274D01*
X221349747Y-121284770D01*
X221349746Y-121284770D01*
X221349745Y-121284769D01*
X221133549Y-121140311D01*
X220949689Y-120956451D01*
X220805231Y-120740255D01*
X220755420Y-120620000D01*
X220705726Y-120500029D01*
X220655000Y-120245011D01*
X220655000Y-119984989D01*
X220705726Y-119729971D01*
X220805230Y-119489747D01*
X220825567Y-119459311D01*
X220949689Y-119273549D01*
X221133549Y-119089689D01*
X221349745Y-118945231D01*
X221349747Y-118945230D01*
X221589971Y-118845726D01*
X221844989Y-118795000D01*
X222105011Y-118795000D01*
X222360029Y-118845726D01*
X222360029Y-118845726D01*
G37*
G36*
X225870000Y-120620000D02*
X224330000Y-120620000D01*
X224330000Y-119680000D01*
X225870000Y-119680000D01*
X225870000Y-120620000D01*
X225870000Y-120620000D01*
G37*
G36*
X234620000Y-120370000D02*
X228780000Y-120370000D01*
X228780000Y-117830000D01*
X234620000Y-117830000D01*
X234620000Y-120370000D01*
X234620000Y-120370000D01*
G37*
G36*
X182515545Y-113262960D02*
X182843005Y-113362294D01*
X183144792Y-113523603D01*
X183213512Y-113580000D01*
X183409312Y-113740688D01*
X183569847Y-113936302D01*
X183626397Y-114005208D01*
X183626398Y-114005210D01*
X183787706Y-114306995D01*
X183887040Y-114634455D01*
X183920762Y-114976838D01*
X183920762Y-118223162D01*
X183887040Y-118565545D01*
X183787706Y-118893005D01*
X183626397Y-119194792D01*
X183608205Y-119216959D01*
X183409312Y-119459312D01*
X183213698Y-119619847D01*
X183144792Y-119676397D01*
X183144790Y-119676398D01*
X182843005Y-119837706D01*
X182515545Y-119937040D01*
X182173162Y-119970762D01*
X177926838Y-119970762D01*
X177584455Y-119937040D01*
X177256995Y-119837706D01*
X176955210Y-119676398D01*
X176955208Y-119676397D01*
X176886302Y-119619847D01*
X176690688Y-119459312D01*
X176491795Y-119216959D01*
X176473603Y-119194792D01*
X176312294Y-118893005D01*
X176212960Y-118565545D01*
X176179238Y-118223162D01*
X176179238Y-114976838D01*
X176212960Y-114634455D01*
X176312294Y-114306995D01*
X176473602Y-114005210D01*
X176473603Y-114005208D01*
X176530153Y-113936302D01*
X176690688Y-113740688D01*
X176886488Y-113580000D01*
X176955208Y-113523603D01*
X177256995Y-113362294D01*
X177584455Y-113262960D01*
X177926838Y-113229238D01*
X182173162Y-113229238D01*
X182515545Y-113262960D01*
X182515545Y-113262960D01*
G37*
G36*
X266950000Y-119450000D02*
X265050000Y-119450000D01*
X265050000Y-118250000D01*
X266950000Y-118250000D01*
X266950000Y-119450000D01*
X266950000Y-119450000D01*
G37*
G36*
X185950833Y-117694063D02*
X186030413Y-117718696D01*
X186103697Y-117758322D01*
X186167885Y-117811422D01*
X186220536Y-117875979D01*
X186259650Y-117949541D01*
X186283727Y-118029288D01*
X186289800Y-118091228D01*
X186289800Y-118995352D01*
X186282527Y-119064548D01*
X186282488Y-119064669D01*
X186282488Y-119064674D01*
X186257337Y-119143958D01*
X186217206Y-119216958D01*
X186163652Y-119280781D01*
X186098733Y-119332976D01*
X186024901Y-119371574D01*
X185944986Y-119395095D01*
X185862021Y-119402646D01*
X185779167Y-119393937D01*
X185699587Y-119369304D01*
X185626303Y-119329678D01*
X185562119Y-119276581D01*
X185509462Y-119212017D01*
X185470350Y-119138458D01*
X185446273Y-119058711D01*
X185440200Y-118996771D01*
X185440201Y-118092896D01*
X185440201Y-118092648D01*
X185447474Y-118023452D01*
X185447513Y-118023331D01*
X185447513Y-118023326D01*
X185470774Y-117950000D01*
X185472663Y-117944044D01*
X185475057Y-117939689D01*
X185512795Y-117871042D01*
X185566347Y-117807222D01*
X185631270Y-117755022D01*
X185705099Y-117716426D01*
X185785014Y-117692905D01*
X185867979Y-117685354D01*
X185950833Y-117694063D01*
X185950833Y-117694063D01*
G37*
G36*
X184680833Y-117694063D02*
X184760413Y-117718696D01*
X184833697Y-117758322D01*
X184897885Y-117811422D01*
X184950536Y-117875979D01*
X184989650Y-117949541D01*
X185013727Y-118029288D01*
X185019800Y-118091228D01*
X185019800Y-118995352D01*
X185012527Y-119064548D01*
X185012488Y-119064669D01*
X185012488Y-119064674D01*
X184987337Y-119143958D01*
X184947206Y-119216958D01*
X184893652Y-119280781D01*
X184828733Y-119332976D01*
X184754901Y-119371574D01*
X184674986Y-119395095D01*
X184592021Y-119402646D01*
X184509167Y-119393937D01*
X184429587Y-119369304D01*
X184356303Y-119329678D01*
X184292119Y-119276581D01*
X184239462Y-119212017D01*
X184200350Y-119138458D01*
X184176273Y-119058711D01*
X184170200Y-118996771D01*
X184170201Y-118092896D01*
X184170201Y-118092648D01*
X184177474Y-118023452D01*
X184177513Y-118023331D01*
X184177513Y-118023326D01*
X184200774Y-117950000D01*
X184202663Y-117944044D01*
X184205057Y-117939689D01*
X184242795Y-117871042D01*
X184296347Y-117807222D01*
X184361270Y-117755022D01*
X184435099Y-117716426D01*
X184515014Y-117692905D01*
X184597979Y-117685354D01*
X184680833Y-117694063D01*
X184680833Y-117694063D01*
G37*
G36*
X187220833Y-117694063D02*
X187300413Y-117718696D01*
X187373697Y-117758322D01*
X187437885Y-117811422D01*
X187490536Y-117875979D01*
X187529650Y-117949541D01*
X187553727Y-118029288D01*
X187559800Y-118091228D01*
X187559800Y-118995352D01*
X187552527Y-119064548D01*
X187552488Y-119064669D01*
X187552488Y-119064674D01*
X187527337Y-119143958D01*
X187487206Y-119216958D01*
X187433652Y-119280781D01*
X187368733Y-119332976D01*
X187294901Y-119371574D01*
X187214986Y-119395095D01*
X187132021Y-119402646D01*
X187049167Y-119393937D01*
X186969587Y-119369304D01*
X186896303Y-119329678D01*
X186832119Y-119276581D01*
X186779462Y-119212017D01*
X186740350Y-119138458D01*
X186716273Y-119058711D01*
X186710200Y-118996771D01*
X186710201Y-118092896D01*
X186710201Y-118092648D01*
X186717474Y-118023452D01*
X186717513Y-118023331D01*
X186717513Y-118023326D01*
X186740774Y-117950000D01*
X186742663Y-117944044D01*
X186745057Y-117939689D01*
X186782795Y-117871042D01*
X186836347Y-117807222D01*
X186901270Y-117755022D01*
X186975099Y-117716426D01*
X187055014Y-117692905D01*
X187137979Y-117685354D01*
X187220833Y-117694063D01*
X187220833Y-117694063D01*
G37*
G36*
X188490833Y-117694063D02*
X188570413Y-117718696D01*
X188643697Y-117758322D01*
X188707885Y-117811422D01*
X188760536Y-117875979D01*
X188799650Y-117949541D01*
X188823727Y-118029288D01*
X188829800Y-118091228D01*
X188829800Y-118995352D01*
X188822527Y-119064548D01*
X188822488Y-119064669D01*
X188822488Y-119064674D01*
X188797337Y-119143958D01*
X188757206Y-119216958D01*
X188703652Y-119280781D01*
X188638733Y-119332976D01*
X188564901Y-119371574D01*
X188484986Y-119395095D01*
X188402021Y-119402646D01*
X188319167Y-119393937D01*
X188239587Y-119369304D01*
X188166303Y-119329678D01*
X188102119Y-119276581D01*
X188049462Y-119212017D01*
X188010350Y-119138458D01*
X187986273Y-119058711D01*
X187980200Y-118996771D01*
X187980201Y-118092896D01*
X187980201Y-118092648D01*
X187987474Y-118023452D01*
X187987513Y-118023331D01*
X187987513Y-118023326D01*
X188010774Y-117950000D01*
X188012663Y-117944044D01*
X188015057Y-117939689D01*
X188052795Y-117871042D01*
X188106347Y-117807222D01*
X188171270Y-117755022D01*
X188245099Y-117716426D01*
X188325014Y-117692905D01*
X188407979Y-117685354D01*
X188490833Y-117694063D01*
X188490833Y-117694063D01*
G37*
G36*
X300388548Y-118443252D02*
X300475000Y-118479062D01*
X300552792Y-118531041D01*
X300618959Y-118597208D01*
X300670938Y-118675000D01*
X300706748Y-118761452D01*
X300725000Y-118853214D01*
X300725000Y-118946786D01*
X300706748Y-119038548D01*
X300670938Y-119125000D01*
X300618959Y-119202792D01*
X300552792Y-119268959D01*
X300475000Y-119320938D01*
X300388548Y-119356748D01*
X300296786Y-119375000D01*
X300203214Y-119375000D01*
X300111452Y-119356748D01*
X300025000Y-119320938D01*
X299947208Y-119268959D01*
X299881041Y-119202792D01*
X299829062Y-119125000D01*
X299793252Y-119038548D01*
X299775000Y-118946786D01*
X299775000Y-118853214D01*
X299793252Y-118761452D01*
X299829062Y-118675000D01*
X299881041Y-118597208D01*
X299947208Y-118531041D01*
X300025000Y-118479062D01*
X300111452Y-118443252D01*
X300203214Y-118425000D01*
X300296786Y-118425000D01*
X300388548Y-118443252D01*
X300388548Y-118443252D01*
G37*
G36*
X278388548Y-118443252D02*
X278475000Y-118479062D01*
X278552792Y-118531041D01*
X278618959Y-118597208D01*
X278670938Y-118675000D01*
X278706748Y-118761452D01*
X278725000Y-118853214D01*
X278725000Y-118946786D01*
X278706748Y-119038548D01*
X278670938Y-119125000D01*
X278618959Y-119202792D01*
X278552792Y-119268959D01*
X278475000Y-119320938D01*
X278388548Y-119356748D01*
X278296786Y-119375000D01*
X278203214Y-119375000D01*
X278111452Y-119356748D01*
X278025000Y-119320938D01*
X277947208Y-119268959D01*
X277881041Y-119202792D01*
X277829062Y-119125000D01*
X277793252Y-119038548D01*
X277775000Y-118946786D01*
X277775000Y-118853214D01*
X277793252Y-118761452D01*
X277829062Y-118675000D01*
X277881041Y-118597208D01*
X277947208Y-118531041D01*
X278025000Y-118479062D01*
X278111452Y-118443252D01*
X278203214Y-118425000D01*
X278296786Y-118425000D01*
X278388548Y-118443252D01*
X278388548Y-118443252D01*
G37*
G36*
X225870000Y-118720000D02*
X224330000Y-118720000D01*
X224330000Y-117780000D01*
X225870000Y-117780000D01*
X225870000Y-118720000D01*
X225870000Y-118720000D01*
G37*
G36*
X222360029Y-115665726D02*
X222600253Y-115765230D01*
X222600255Y-115765231D01*
X222816451Y-115909689D01*
X223000311Y-116093549D01*
X223141739Y-116305210D01*
X223144770Y-116309747D01*
X223244274Y-116549971D01*
X223295000Y-116804989D01*
X223295000Y-117065011D01*
X223244274Y-117320029D01*
X223144770Y-117560253D01*
X223144769Y-117560255D01*
X223000311Y-117776451D01*
X222816451Y-117960311D01*
X222600255Y-118104769D01*
X222600254Y-118104770D01*
X222600253Y-118104770D01*
X222360029Y-118204274D01*
X222105011Y-118255000D01*
X221844989Y-118255000D01*
X221589971Y-118204274D01*
X221349747Y-118104770D01*
X221349746Y-118104770D01*
X221349745Y-118104769D01*
X221133549Y-117960311D01*
X220949689Y-117776451D01*
X220805231Y-117560255D01*
X220805230Y-117560253D01*
X220705726Y-117320029D01*
X220655000Y-117065011D01*
X220655000Y-116804989D01*
X220705726Y-116549971D01*
X220805230Y-116309747D01*
X220808262Y-116305210D01*
X220949689Y-116093549D01*
X221133549Y-115909689D01*
X221349745Y-115765231D01*
X221349747Y-115765230D01*
X221589971Y-115665726D01*
X221844989Y-115615000D01*
X222105011Y-115615000D01*
X222360029Y-115665726D01*
X222360029Y-115665726D01*
G37*
G36*
X266475351Y-116760272D02*
X266475472Y-116760311D01*
X266475477Y-116760311D01*
X266587508Y-116795850D01*
X266690621Y-116852536D01*
X266780760Y-116928172D01*
X266854487Y-117019870D01*
X266909004Y-117124151D01*
X266942224Y-117237025D01*
X266952889Y-117354209D01*
X266940589Y-117471232D01*
X266905796Y-117583634D01*
X266849828Y-117687142D01*
X266774827Y-117777804D01*
X266683645Y-117852170D01*
X266579746Y-117907414D01*
X266467106Y-117941422D01*
X266379620Y-117950000D01*
X265622380Y-117950000D01*
X265524649Y-117939728D01*
X265524528Y-117939689D01*
X265524523Y-117939689D01*
X265412492Y-117904150D01*
X265309379Y-117847464D01*
X265219240Y-117771828D01*
X265145513Y-117680130D01*
X265090996Y-117575849D01*
X265057776Y-117462975D01*
X265047111Y-117345791D01*
X265059411Y-117228768D01*
X265094204Y-117116366D01*
X265150172Y-117012858D01*
X265225173Y-116922196D01*
X265316355Y-116847830D01*
X265420254Y-116792586D01*
X265532894Y-116758578D01*
X265620380Y-116750000D01*
X266377620Y-116750000D01*
X266475351Y-116760272D01*
X266475351Y-116760272D01*
G37*
G36*
X266475351Y-115260272D02*
X266475472Y-115260311D01*
X266475477Y-115260311D01*
X266587508Y-115295850D01*
X266690621Y-115352536D01*
X266780760Y-115428172D01*
X266854487Y-115519870D01*
X266909004Y-115624151D01*
X266942224Y-115737025D01*
X266952889Y-115854209D01*
X266940589Y-115971232D01*
X266905796Y-116083634D01*
X266849828Y-116187142D01*
X266774827Y-116277804D01*
X266683645Y-116352170D01*
X266579746Y-116407414D01*
X266467106Y-116441422D01*
X266379620Y-116450000D01*
X265622380Y-116450000D01*
X265524649Y-116439728D01*
X265524528Y-116439689D01*
X265524523Y-116439689D01*
X265412492Y-116404150D01*
X265309379Y-116347464D01*
X265219240Y-116271828D01*
X265145513Y-116180130D01*
X265090996Y-116075849D01*
X265057776Y-115962975D01*
X265047111Y-115845791D01*
X265059411Y-115728768D01*
X265094204Y-115616366D01*
X265150172Y-115512858D01*
X265225173Y-115422196D01*
X265316355Y-115347830D01*
X265420254Y-115292586D01*
X265532894Y-115258578D01*
X265620380Y-115250000D01*
X266377620Y-115250000D01*
X266475351Y-115260272D01*
X266475351Y-115260272D01*
G37*
G36*
X213120000Y-115820000D02*
X210880000Y-115820000D01*
X210880000Y-113580000D01*
X213120000Y-113580000D01*
X213120000Y-115820000D01*
X213120000Y-115820000D01*
G37*
G36*
X217326687Y-113623039D02*
X217530522Y-113707470D01*
X217679620Y-113807095D01*
X217713958Y-113830039D01*
X217869961Y-113986042D01*
X217869963Y-113986045D01*
X217992530Y-114169478D01*
X218076961Y-114373313D01*
X218120000Y-114589687D01*
X218120000Y-114810313D01*
X218076961Y-115026687D01*
X217992530Y-115230522D01*
X217870514Y-115413131D01*
X217869961Y-115413958D01*
X217713958Y-115569961D01*
X217713955Y-115569963D01*
X217530522Y-115692530D01*
X217326687Y-115776961D01*
X217110313Y-115820000D01*
X216889687Y-115820000D01*
X216673313Y-115776961D01*
X216469478Y-115692530D01*
X216286045Y-115569963D01*
X216286042Y-115569961D01*
X216130039Y-115413958D01*
X216129486Y-115413131D01*
X216007470Y-115230522D01*
X215923039Y-115026687D01*
X215880000Y-114810313D01*
X215880000Y-114589687D01*
X215923039Y-114373313D01*
X216007470Y-114169478D01*
X216130037Y-113986045D01*
X216130039Y-113986042D01*
X216286042Y-113830039D01*
X216320380Y-113807095D01*
X216469478Y-113707470D01*
X216673313Y-113623039D01*
X216889687Y-113580000D01*
X217110313Y-113580000D01*
X217326687Y-113623039D01*
X217326687Y-113623039D01*
G37*
G36*
X192245000Y-115670000D02*
X190805000Y-115670000D01*
X190805000Y-114680000D01*
X192245000Y-114680000D01*
X192245000Y-115670000D01*
X192245000Y-115670000D01*
G37*
G36*
X190345000Y-115670000D02*
X188905000Y-115670000D01*
X188905000Y-114680000D01*
X190345000Y-114680000D01*
X190345000Y-115670000D01*
X190345000Y-115670000D01*
G37*
G36*
X205469163Y-108087939D02*
X206040493Y-108261250D01*
X206567032Y-108542691D01*
X207028550Y-108921450D01*
X207407309Y-109382968D01*
X207688750Y-109909507D01*
X207862061Y-110480837D01*
X207920762Y-111076838D01*
X207920762Y-111723162D01*
X207862061Y-112319163D01*
X207688750Y-112890493D01*
X207407309Y-113417032D01*
X207028550Y-113878550D01*
X206567032Y-114257309D01*
X206040493Y-114538750D01*
X205469163Y-114712061D01*
X204873162Y-114770762D01*
X203226838Y-114770762D01*
X202630837Y-114712061D01*
X202059507Y-114538750D01*
X201532968Y-114257309D01*
X201071450Y-113878550D01*
X200692691Y-113417032D01*
X200411250Y-112890493D01*
X200237939Y-112319163D01*
X200179238Y-111723162D01*
X200179238Y-111076838D01*
X200237939Y-110480837D01*
X200411250Y-109909507D01*
X200692691Y-109382968D01*
X201071450Y-108921450D01*
X201532968Y-108542691D01*
X202059507Y-108261250D01*
X202630837Y-108087939D01*
X203226838Y-108029238D01*
X204873162Y-108029238D01*
X205469163Y-108087939D01*
X205469163Y-108087939D01*
G37*
G36*
X232770000Y-114095000D02*
X231330000Y-114095000D01*
X231330000Y-113105000D01*
X232770000Y-113105000D01*
X232770000Y-114095000D01*
X232770000Y-114095000D01*
G37*
G36*
X230870000Y-114095000D02*
X229430000Y-114095000D01*
X229430000Y-113105000D01*
X230870000Y-113105000D01*
X230870000Y-114095000D01*
X230870000Y-114095000D01*
G37*
G36*
X188490833Y-112106063D02*
X188570413Y-112130696D01*
X188643697Y-112170322D01*
X188707885Y-112223422D01*
X188760536Y-112287979D01*
X188799650Y-112361541D01*
X188823727Y-112441288D01*
X188829800Y-112503228D01*
X188829800Y-113407352D01*
X188822527Y-113476548D01*
X188822488Y-113476669D01*
X188822488Y-113476674D01*
X188797337Y-113555958D01*
X188757206Y-113628958D01*
X188703652Y-113692781D01*
X188638733Y-113744976D01*
X188564901Y-113783574D01*
X188484986Y-113807095D01*
X188402021Y-113814646D01*
X188319167Y-113805937D01*
X188239587Y-113781304D01*
X188166303Y-113741678D01*
X188102119Y-113688581D01*
X188049462Y-113624017D01*
X188010350Y-113550458D01*
X187986273Y-113470711D01*
X187980200Y-113408771D01*
X187980201Y-112504896D01*
X187980201Y-112504648D01*
X187987474Y-112435452D01*
X187987513Y-112435331D01*
X187987513Y-112435326D01*
X188005772Y-112377769D01*
X188012663Y-112356044D01*
X188012664Y-112356042D01*
X188052795Y-112283042D01*
X188106347Y-112219222D01*
X188171270Y-112167022D01*
X188245099Y-112128426D01*
X188325014Y-112104905D01*
X188407979Y-112097354D01*
X188490833Y-112106063D01*
X188490833Y-112106063D01*
G37*
G36*
X187220833Y-112106063D02*
X187300413Y-112130696D01*
X187373697Y-112170322D01*
X187437885Y-112223422D01*
X187490536Y-112287979D01*
X187529650Y-112361541D01*
X187553727Y-112441288D01*
X187559800Y-112503228D01*
X187559800Y-113407352D01*
X187552527Y-113476548D01*
X187552488Y-113476669D01*
X187552488Y-113476674D01*
X187527337Y-113555958D01*
X187487206Y-113628958D01*
X187433652Y-113692781D01*
X187368733Y-113744976D01*
X187294901Y-113783574D01*
X187214986Y-113807095D01*
X187132021Y-113814646D01*
X187049167Y-113805937D01*
X186969587Y-113781304D01*
X186896303Y-113741678D01*
X186832119Y-113688581D01*
X186779462Y-113624017D01*
X186740350Y-113550458D01*
X186716273Y-113470711D01*
X186710200Y-113408771D01*
X186710201Y-112504896D01*
X186710201Y-112504648D01*
X186717474Y-112435452D01*
X186717513Y-112435331D01*
X186717513Y-112435326D01*
X186735772Y-112377769D01*
X186742663Y-112356044D01*
X186742664Y-112356042D01*
X186782795Y-112283042D01*
X186836347Y-112219222D01*
X186901270Y-112167022D01*
X186975099Y-112128426D01*
X187055014Y-112104905D01*
X187137979Y-112097354D01*
X187220833Y-112106063D01*
X187220833Y-112106063D01*
G37*
G36*
X184680833Y-112106063D02*
X184760413Y-112130696D01*
X184833697Y-112170322D01*
X184897885Y-112223422D01*
X184950536Y-112287979D01*
X184989650Y-112361541D01*
X185013727Y-112441288D01*
X185019800Y-112503228D01*
X185019800Y-113407352D01*
X185012527Y-113476548D01*
X185012488Y-113476669D01*
X185012488Y-113476674D01*
X184987337Y-113555958D01*
X184947206Y-113628958D01*
X184893652Y-113692781D01*
X184828733Y-113744976D01*
X184754901Y-113783574D01*
X184674986Y-113807095D01*
X184592021Y-113814646D01*
X184509167Y-113805937D01*
X184429587Y-113781304D01*
X184356303Y-113741678D01*
X184292119Y-113688581D01*
X184239462Y-113624017D01*
X184200350Y-113550458D01*
X184176273Y-113470711D01*
X184170200Y-113408771D01*
X184170201Y-112504896D01*
X184170201Y-112504648D01*
X184177474Y-112435452D01*
X184177513Y-112435331D01*
X184177513Y-112435326D01*
X184195772Y-112377769D01*
X184202663Y-112356044D01*
X184202664Y-112356042D01*
X184242795Y-112283042D01*
X184296347Y-112219222D01*
X184361270Y-112167022D01*
X184435099Y-112128426D01*
X184515014Y-112104905D01*
X184597979Y-112097354D01*
X184680833Y-112106063D01*
X184680833Y-112106063D01*
G37*
G36*
X185950833Y-112106063D02*
X186030413Y-112130696D01*
X186103697Y-112170322D01*
X186167885Y-112223422D01*
X186220536Y-112287979D01*
X186259650Y-112361541D01*
X186283727Y-112441288D01*
X186289800Y-112503228D01*
X186289800Y-113407352D01*
X186282527Y-113476548D01*
X186282488Y-113476669D01*
X186282488Y-113476674D01*
X186257337Y-113555958D01*
X186217206Y-113628958D01*
X186163652Y-113692781D01*
X186098733Y-113744976D01*
X186024901Y-113783574D01*
X185944986Y-113807095D01*
X185862021Y-113814646D01*
X185779167Y-113805937D01*
X185699587Y-113781304D01*
X185626303Y-113741678D01*
X185562119Y-113688581D01*
X185509462Y-113624017D01*
X185470350Y-113550458D01*
X185446273Y-113470711D01*
X185440200Y-113408771D01*
X185440201Y-112504896D01*
X185440201Y-112504648D01*
X185447474Y-112435452D01*
X185447513Y-112435331D01*
X185447513Y-112435326D01*
X185465772Y-112377769D01*
X185472663Y-112356044D01*
X185472664Y-112356042D01*
X185512795Y-112283042D01*
X185566347Y-112219222D01*
X185631270Y-112167022D01*
X185705099Y-112128426D01*
X185785014Y-112104905D01*
X185867979Y-112097354D01*
X185950833Y-112106063D01*
X185950833Y-112106063D01*
G37*
G36*
X175920000Y-113795000D02*
X172180000Y-113795000D01*
X172180000Y-110055000D01*
X175920000Y-110055000D01*
X175920000Y-113795000D01*
X175920000Y-113795000D01*
G37*
G36*
X313865465Y-111468835D02*
X313935016Y-111482669D01*
X314066048Y-111536944D01*
X314183973Y-111615739D01*
X314284261Y-111716027D01*
X314363056Y-111833952D01*
X314417331Y-111964984D01*
X314445000Y-112104086D01*
X314445000Y-112245914D01*
X314417331Y-112385016D01*
X314363056Y-112516048D01*
X314284261Y-112633973D01*
X314183973Y-112734261D01*
X314066048Y-112813056D01*
X313935016Y-112867331D01*
X313865465Y-112881166D01*
X313795916Y-112895000D01*
X313654084Y-112895000D01*
X313584535Y-112881166D01*
X313514984Y-112867331D01*
X313383952Y-112813056D01*
X313266027Y-112734261D01*
X313165739Y-112633973D01*
X313086944Y-112516048D01*
X313032669Y-112385016D01*
X313005000Y-112245914D01*
X313005000Y-112104086D01*
X313032669Y-111964984D01*
X313086944Y-111833952D01*
X313165739Y-111716027D01*
X313266027Y-111615739D01*
X313383952Y-111536944D01*
X313514984Y-111482669D01*
X313584535Y-111468835D01*
X313654084Y-111455000D01*
X313795916Y-111455000D01*
X313865465Y-111468835D01*
X313865465Y-111468835D01*
G37*
G36*
X181469163Y-105787939D02*
X182040493Y-105961250D01*
X182567032Y-106242691D01*
X183028550Y-106621450D01*
X183407309Y-107082968D01*
X183688750Y-107609507D01*
X183862061Y-108180837D01*
X183920762Y-108776838D01*
X183920762Y-109423162D01*
X183862061Y-110019163D01*
X183688750Y-110590493D01*
X183407309Y-111117032D01*
X183028550Y-111578550D01*
X182567032Y-111957309D01*
X182040493Y-112238750D01*
X181469163Y-112412061D01*
X180873162Y-112470762D01*
X179226838Y-112470762D01*
X178630837Y-112412061D01*
X178059507Y-112238750D01*
X177532968Y-111957309D01*
X177071450Y-111578550D01*
X176692691Y-111117032D01*
X176411250Y-110590493D01*
X176237939Y-110019163D01*
X176179238Y-109423162D01*
X176179238Y-108776838D01*
X176237939Y-108180837D01*
X176411250Y-107609507D01*
X176692691Y-107082968D01*
X177071450Y-106621450D01*
X177532968Y-106242691D01*
X178059507Y-105961250D01*
X178630837Y-105787939D01*
X179226838Y-105729238D01*
X180873162Y-105729238D01*
X181469163Y-105787939D01*
X181469163Y-105787939D01*
G37*
G36*
X315622743Y-109827289D02*
X315678770Y-109838433D01*
X315837100Y-109904016D01*
X315979593Y-109999227D01*
X316100773Y-110120407D01*
X316195984Y-110262900D01*
X316261567Y-110421230D01*
X316295000Y-110589312D01*
X316295000Y-110760688D01*
X316261567Y-110928770D01*
X316195984Y-111087100D01*
X316100773Y-111229593D01*
X315979593Y-111350773D01*
X315837100Y-111445984D01*
X315678770Y-111511567D01*
X315622743Y-111522711D01*
X315510690Y-111545000D01*
X315339310Y-111545000D01*
X315227257Y-111522711D01*
X315171230Y-111511567D01*
X315012900Y-111445984D01*
X314870407Y-111350773D01*
X314749227Y-111229593D01*
X314654016Y-111087100D01*
X314588433Y-110928770D01*
X314555000Y-110760688D01*
X314555000Y-110589312D01*
X314588433Y-110421230D01*
X314654016Y-110262900D01*
X314749227Y-110120407D01*
X314870407Y-109999227D01*
X315012900Y-109904016D01*
X315171230Y-109838433D01*
X315227257Y-109827289D01*
X315339310Y-109805000D01*
X315510690Y-109805000D01*
X315622743Y-109827289D01*
X315622743Y-109827289D01*
G37*
G36*
X304604209Y-106473015D02*
X304949987Y-106616241D01*
X305261176Y-106824171D01*
X305525829Y-107088824D01*
X305733759Y-107400013D01*
X305876985Y-107745791D01*
X305950000Y-108112864D01*
X305950000Y-108487136D01*
X305876985Y-108854209D01*
X305733759Y-109199987D01*
X305525829Y-109511176D01*
X305261176Y-109775829D01*
X304949987Y-109983759D01*
X304604209Y-110126985D01*
X304237136Y-110200000D01*
X303862864Y-110200000D01*
X303495791Y-110126985D01*
X303150013Y-109983759D01*
X302838824Y-109775829D01*
X302574171Y-109511176D01*
X302366241Y-109199987D01*
X302223015Y-108854209D01*
X302150000Y-108487136D01*
X302150000Y-108112864D01*
X302223015Y-107745791D01*
X302366241Y-107400013D01*
X302574171Y-107088824D01*
X302838824Y-106824171D01*
X303150013Y-106616241D01*
X303495791Y-106473015D01*
X303862864Y-106400000D01*
X304237136Y-106400000D01*
X304604209Y-106473015D01*
X304604209Y-106473015D01*
G37*
G36*
X274604209Y-106473015D02*
X274949987Y-106616241D01*
X275261176Y-106824171D01*
X275525829Y-107088824D01*
X275733759Y-107400013D01*
X275876985Y-107745791D01*
X275950000Y-108112864D01*
X275950000Y-108487136D01*
X275876985Y-108854209D01*
X275733759Y-109199987D01*
X275525829Y-109511176D01*
X275261176Y-109775829D01*
X274949987Y-109983759D01*
X274604209Y-110126985D01*
X274237136Y-110200000D01*
X273862864Y-110200000D01*
X273495791Y-110126985D01*
X273150013Y-109983759D01*
X272838824Y-109775829D01*
X272574171Y-109511176D01*
X272366241Y-109199987D01*
X272223015Y-108854209D01*
X272150000Y-108487136D01*
X272150000Y-108112864D01*
X272223015Y-107745791D01*
X272366241Y-107400013D01*
X272574171Y-107088824D01*
X272838824Y-106824171D01*
X273150013Y-106616241D01*
X273495791Y-106473015D01*
X273862864Y-106400000D01*
X274237136Y-106400000D01*
X274604209Y-106473015D01*
X274604209Y-106473015D01*
G37*
G36*
X315622743Y-107827289D02*
X315678770Y-107838433D01*
X315837100Y-107904016D01*
X315979593Y-107999227D01*
X316100773Y-108120407D01*
X316194882Y-108261250D01*
X316195985Y-108262902D01*
X316261567Y-108421231D01*
X316295000Y-108589310D01*
X316295000Y-108760690D01*
X316291788Y-108776838D01*
X316261567Y-108928770D01*
X316195984Y-109087100D01*
X316100773Y-109229593D01*
X315979593Y-109350773D01*
X315837100Y-109445984D01*
X315678770Y-109511567D01*
X315622743Y-109522711D01*
X315510690Y-109545000D01*
X315339310Y-109545000D01*
X315227257Y-109522711D01*
X315171230Y-109511567D01*
X315012900Y-109445984D01*
X314870407Y-109350773D01*
X314749227Y-109229593D01*
X314654016Y-109087100D01*
X314588433Y-108928770D01*
X314558212Y-108776838D01*
X314555000Y-108760690D01*
X314555000Y-108589310D01*
X314588433Y-108421231D01*
X314654015Y-108262902D01*
X314655119Y-108261250D01*
X314749227Y-108120407D01*
X314870407Y-107999227D01*
X315012900Y-107904016D01*
X315171230Y-107838433D01*
X315227257Y-107827289D01*
X315339310Y-107805000D01*
X315510690Y-107805000D01*
X315622743Y-107827289D01*
X315622743Y-107827289D01*
G37*
G36*
X315622743Y-105827289D02*
X315678770Y-105838433D01*
X315837100Y-105904016D01*
X315979593Y-105999227D01*
X316100773Y-106120407D01*
X316195984Y-106262900D01*
X316261567Y-106421230D01*
X316295000Y-106589312D01*
X316295000Y-106760688D01*
X316261567Y-106928770D01*
X316234133Y-106995000D01*
X316197697Y-107082966D01*
X316195984Y-107087100D01*
X316100773Y-107229593D01*
X315979593Y-107350773D01*
X315837100Y-107445984D01*
X315678770Y-107511567D01*
X315622743Y-107522711D01*
X315510690Y-107545000D01*
X315339310Y-107545000D01*
X315227257Y-107522711D01*
X315171230Y-107511567D01*
X315012900Y-107445984D01*
X314870407Y-107350773D01*
X314749227Y-107229593D01*
X314654016Y-107087100D01*
X314652304Y-107082966D01*
X314615867Y-106995000D01*
X314588433Y-106928770D01*
X314555000Y-106760688D01*
X314555000Y-106589312D01*
X314588433Y-106421230D01*
X314654016Y-106262900D01*
X314749227Y-106120407D01*
X314870407Y-105999227D01*
X315012900Y-105904016D01*
X315171230Y-105838433D01*
X315227257Y-105827289D01*
X315339310Y-105805000D01*
X315510690Y-105805000D01*
X315622743Y-105827289D01*
X315622743Y-105827289D01*
G37*
G36*
X230412547Y-103280701D02*
X230794722Y-103439003D01*
X230805171Y-103445985D01*
X231138672Y-103668823D01*
X231431177Y-103961328D01*
X231527168Y-104104989D01*
X231660997Y-104305278D01*
X231819299Y-104687453D01*
X231900000Y-105093166D01*
X231900000Y-105506834D01*
X231819299Y-105912547D01*
X231660997Y-106294722D01*
X231660996Y-106294723D01*
X231431177Y-106638672D01*
X231138672Y-106931177D01*
X230911503Y-107082966D01*
X230794722Y-107160997D01*
X230412547Y-107319299D01*
X230006834Y-107400000D01*
X229593166Y-107400000D01*
X229187453Y-107319299D01*
X228805278Y-107160997D01*
X228688497Y-107082966D01*
X228461328Y-106931177D01*
X228168823Y-106638672D01*
X227939004Y-106294723D01*
X227939003Y-106294722D01*
X227780701Y-105912547D01*
X227700000Y-105506834D01*
X227700000Y-105093166D01*
X227780701Y-104687453D01*
X227939003Y-104305278D01*
X228072832Y-104104989D01*
X228168823Y-103961328D01*
X228461328Y-103668823D01*
X228794829Y-103445985D01*
X228805278Y-103439003D01*
X229187453Y-103280701D01*
X229593166Y-103200000D01*
X230006834Y-103200000D01*
X230412547Y-103280701D01*
X230412547Y-103280701D01*
G37*
G36*
X175920000Y-106995000D02*
X172180000Y-106995000D01*
X172180000Y-103255000D01*
X175920000Y-103255000D01*
X175920000Y-106995000D01*
X175920000Y-106995000D01*
G37*
G36*
X241410029Y-102965726D02*
X241650253Y-103065230D01*
X241650255Y-103065231D01*
X241866451Y-103209689D01*
X242050311Y-103393549D01*
X242151508Y-103545000D01*
X242194770Y-103609747D01*
X242294274Y-103849971D01*
X242345000Y-104104989D01*
X242345000Y-104365011D01*
X242294274Y-104620029D01*
X242266346Y-104687453D01*
X242194769Y-104860255D01*
X242050311Y-105076451D01*
X241866451Y-105260311D01*
X241650255Y-105404769D01*
X241650254Y-105404770D01*
X241650253Y-105404770D01*
X241410029Y-105504274D01*
X241155011Y-105555000D01*
X240894989Y-105555000D01*
X240639971Y-105504274D01*
X240399747Y-105404770D01*
X240399746Y-105404770D01*
X240399745Y-105404769D01*
X240183549Y-105260311D01*
X239999689Y-105076451D01*
X239855231Y-104860255D01*
X239783654Y-104687453D01*
X239755726Y-104620029D01*
X239705000Y-104365011D01*
X239705000Y-104104989D01*
X239755726Y-103849971D01*
X239855230Y-103609747D01*
X239898493Y-103545000D01*
X239999689Y-103393549D01*
X240183549Y-103209689D01*
X240399745Y-103065231D01*
X240399747Y-103065230D01*
X240639971Y-102965726D01*
X240894989Y-102915000D01*
X241155011Y-102915000D01*
X241410029Y-102965726D01*
X241410029Y-102965726D01*
G37*
G36*
X222360029Y-102965726D02*
X222600253Y-103065230D01*
X222600255Y-103065231D01*
X222816451Y-103209689D01*
X223000311Y-103393549D01*
X223101508Y-103545000D01*
X223144770Y-103609747D01*
X223244274Y-103849971D01*
X223295000Y-104104989D01*
X223295000Y-104365011D01*
X223244274Y-104620029D01*
X223216346Y-104687453D01*
X223144769Y-104860255D01*
X223000311Y-105076451D01*
X222816451Y-105260311D01*
X222600255Y-105404769D01*
X222600254Y-105404770D01*
X222600253Y-105404770D01*
X222360029Y-105504274D01*
X222105011Y-105555000D01*
X221844989Y-105555000D01*
X221589971Y-105504274D01*
X221349747Y-105404770D01*
X221349746Y-105404770D01*
X221349745Y-105404769D01*
X221133549Y-105260311D01*
X220949689Y-105076451D01*
X220805231Y-104860255D01*
X220733654Y-104687453D01*
X220705726Y-104620029D01*
X220655000Y-104365011D01*
X220655000Y-104104989D01*
X220705726Y-103849971D01*
X220805230Y-103609747D01*
X220848493Y-103545000D01*
X220949689Y-103393549D01*
X221133549Y-103209689D01*
X221349745Y-103065231D01*
X221349747Y-103065230D01*
X221589971Y-102965726D01*
X221844989Y-102915000D01*
X222105011Y-102915000D01*
X222360029Y-102965726D01*
X222360029Y-102965726D01*
G37*
G36*
X315622743Y-103827289D02*
X315678770Y-103838433D01*
X315837100Y-103904016D01*
X315979593Y-103999227D01*
X316100773Y-104120407D01*
X316195984Y-104262900D01*
X316261567Y-104421230D01*
X316295000Y-104589312D01*
X316295000Y-104760688D01*
X316261567Y-104928770D01*
X316195984Y-105087100D01*
X316100773Y-105229593D01*
X315979593Y-105350773D01*
X315837100Y-105445984D01*
X315678770Y-105511567D01*
X315622743Y-105522711D01*
X315510690Y-105545000D01*
X315339310Y-105545000D01*
X315227257Y-105522711D01*
X315171230Y-105511567D01*
X315012900Y-105445984D01*
X314870407Y-105350773D01*
X314749227Y-105229593D01*
X314654016Y-105087100D01*
X314588433Y-104928770D01*
X314555000Y-104760688D01*
X314555000Y-104589312D01*
X314588433Y-104421230D01*
X314654016Y-104262900D01*
X314749227Y-104120407D01*
X314870407Y-103999227D01*
X315012900Y-103904016D01*
X315171230Y-103838433D01*
X315227257Y-103827289D01*
X315339310Y-103805000D01*
X315510690Y-103805000D01*
X315622743Y-103827289D01*
X315622743Y-103827289D01*
G37*
G36*
X197645000Y-105295000D02*
X195405000Y-105295000D01*
X195405000Y-103355000D01*
X197645000Y-103355000D01*
X197645000Y-105295000D01*
X197645000Y-105295000D01*
G37*
G36*
X193645000Y-105295000D02*
X191405000Y-105295000D01*
X191405000Y-103355000D01*
X193645000Y-103355000D01*
X193645000Y-105295000D01*
X193645000Y-105295000D01*
G37*
G36*
X315622743Y-101827289D02*
X315678770Y-101838433D01*
X315837100Y-101904016D01*
X315979593Y-101999227D01*
X316100773Y-102120407D01*
X316100775Y-102120410D01*
X316195985Y-102262902D01*
X316261567Y-102421231D01*
X316295000Y-102589310D01*
X316295000Y-102760690D01*
X316272711Y-102872743D01*
X316261567Y-102928770D01*
X316195984Y-103087100D01*
X316100773Y-103229593D01*
X315979593Y-103350773D01*
X315837100Y-103445984D01*
X315678770Y-103511567D01*
X315622743Y-103522711D01*
X315510690Y-103545000D01*
X315339310Y-103545000D01*
X315227257Y-103522711D01*
X315171230Y-103511567D01*
X315012900Y-103445984D01*
X314870407Y-103350773D01*
X314749227Y-103229593D01*
X314654016Y-103087100D01*
X314588433Y-102928770D01*
X314577289Y-102872743D01*
X314555000Y-102760690D01*
X314555000Y-102589310D01*
X314588433Y-102421231D01*
X314654015Y-102262902D01*
X314749225Y-102120410D01*
X314749227Y-102120407D01*
X314870407Y-101999227D01*
X315012900Y-101904016D01*
X315171230Y-101838433D01*
X315227257Y-101827289D01*
X315339310Y-101805000D01*
X315510690Y-101805000D01*
X315622743Y-101827289D01*
X315622743Y-101827289D01*
G37*
G36*
X189270000Y-102820000D02*
X187780000Y-102820000D01*
X187780000Y-101580000D01*
X189270000Y-101580000D01*
X189270000Y-102820000D01*
X189270000Y-102820000D01*
G37*
G36*
X193616000Y-102624000D02*
X191376000Y-102624000D01*
X191376000Y-100384000D01*
X193616000Y-100384000D01*
X193616000Y-102624000D01*
X193616000Y-102624000D01*
G37*
G36*
X175074000Y-102624000D02*
X172834000Y-102624000D01*
X172834000Y-100384000D01*
X175074000Y-100384000D01*
X175074000Y-102624000D01*
X175074000Y-102624000D01*
G37*
G36*
X315622743Y-99827289D02*
X315678770Y-99838433D01*
X315748535Y-99867331D01*
X315798570Y-99888056D01*
X315837100Y-99904016D01*
X315979593Y-99999227D01*
X316100773Y-100120407D01*
X316195984Y-100262900D01*
X316246146Y-100384000D01*
X316261567Y-100421231D01*
X316295000Y-100589310D01*
X316295000Y-100760690D01*
X316272711Y-100872743D01*
X316261567Y-100928770D01*
X316195984Y-101087100D01*
X316100773Y-101229593D01*
X315979593Y-101350773D01*
X315837100Y-101445984D01*
X315678770Y-101511567D01*
X315622743Y-101522711D01*
X315510690Y-101545000D01*
X315339310Y-101545000D01*
X315227257Y-101522711D01*
X315171230Y-101511567D01*
X315012900Y-101445984D01*
X314870407Y-101350773D01*
X314749227Y-101229593D01*
X314654016Y-101087100D01*
X314588433Y-100928770D01*
X314577289Y-100872743D01*
X314555000Y-100760690D01*
X314555000Y-100589310D01*
X314588433Y-100421231D01*
X314603855Y-100384000D01*
X314654016Y-100262900D01*
X314749227Y-100120407D01*
X314870407Y-99999227D01*
X315012900Y-99904016D01*
X315051431Y-99888056D01*
X315101465Y-99867331D01*
X315171230Y-99838433D01*
X315227257Y-99827289D01*
X315339310Y-99805000D01*
X315510690Y-99805000D01*
X315622743Y-99827289D01*
X315622743Y-99827289D01*
G37*
G36*
X189270000Y-100820000D02*
X187780000Y-100820000D01*
X187780000Y-99580000D01*
X189270000Y-99580000D01*
X189270000Y-100820000D01*
X189270000Y-100820000D01*
G37*
G36*
X184745000Y-100145000D02*
X175105000Y-100145000D01*
X175105000Y-100121500D01*
X175104279Y-100114184D01*
X175102145Y-100107149D01*
X175098680Y-100100666D01*
X175094017Y-100094983D01*
X175088334Y-100090320D01*
X175081851Y-100086855D01*
X175074816Y-100084721D01*
X175067500Y-100084000D01*
X172834000Y-100084000D01*
X172834000Y-97844000D01*
X175067500Y-97844000D01*
X175074816Y-97843279D01*
X175081851Y-97841145D01*
X175088334Y-97837680D01*
X175094017Y-97833017D01*
X175098680Y-97827334D01*
X175102145Y-97820851D01*
X175104279Y-97813816D01*
X175105000Y-97806500D01*
X175105000Y-91171207D01*
X175104279Y-91163891D01*
X175102145Y-91156856D01*
X175098680Y-91150373D01*
X175094017Y-91144690D01*
X175088334Y-91140027D01*
X175081851Y-91136562D01*
X175074816Y-91134428D01*
X175067500Y-91133707D01*
X175060184Y-91134428D01*
X175053149Y-91136562D01*
X175046666Y-91140027D01*
X175040983Y-91144690D01*
X175036320Y-91150373D01*
X175032855Y-91156856D01*
X175031431Y-91161552D01*
X175030959Y-91162691D01*
X175030959Y-91162692D01*
X175017408Y-91195407D01*
X174946530Y-91366522D01*
X174824514Y-91549131D01*
X174823961Y-91549958D01*
X174667958Y-91705961D01*
X174667955Y-91705963D01*
X174484522Y-91828530D01*
X174280687Y-91912961D01*
X174064313Y-91956000D01*
X173843687Y-91956000D01*
X173627313Y-91912961D01*
X173423478Y-91828530D01*
X173240045Y-91705963D01*
X173240042Y-91705961D01*
X173084039Y-91549958D01*
X173083486Y-91549131D01*
X172961470Y-91366522D01*
X172877039Y-91162687D01*
X172834000Y-90946313D01*
X172834000Y-90725687D01*
X172877039Y-90509313D01*
X172961470Y-90305478D01*
X173084037Y-90122045D01*
X173084039Y-90122042D01*
X173240042Y-89966039D01*
X173282155Y-89937900D01*
X173423478Y-89843470D01*
X173627313Y-89759039D01*
X173843687Y-89716000D01*
X174064313Y-89716000D01*
X174280687Y-89759039D01*
X174484522Y-89843470D01*
X174625845Y-89937900D01*
X174667958Y-89966039D01*
X174823961Y-90122042D01*
X174823963Y-90122045D01*
X174946530Y-90305478D01*
X174992656Y-90416835D01*
X175010542Y-90460016D01*
X175031431Y-90510448D01*
X175032855Y-90515144D01*
X175036320Y-90521627D01*
X175040984Y-90527310D01*
X175046667Y-90531973D01*
X175053150Y-90535439D01*
X175060185Y-90537573D01*
X175067501Y-90538293D01*
X175074816Y-90537572D01*
X175081851Y-90535438D01*
X175088334Y-90531973D01*
X175094017Y-90527309D01*
X175098680Y-90521626D01*
X175102146Y-90515143D01*
X175104280Y-90508108D01*
X175105000Y-90500793D01*
X175105000Y-89105000D01*
X184745000Y-89105000D01*
X184745000Y-100145000D01*
X184745000Y-100145000D01*
G37*
G36*
X191495000Y-97806500D02*
X191495721Y-97813816D01*
X191497855Y-97820851D01*
X191501320Y-97827334D01*
X191505983Y-97833017D01*
X191511666Y-97837680D01*
X191518149Y-97841145D01*
X191525184Y-97843279D01*
X191532500Y-97844000D01*
X193616000Y-97844000D01*
X193616000Y-100084000D01*
X191376000Y-100084000D01*
X191376000Y-97872500D01*
X191375279Y-97865184D01*
X191373145Y-97858149D01*
X191369680Y-97851666D01*
X191365017Y-97845983D01*
X191359334Y-97841320D01*
X191352851Y-97837855D01*
X191345816Y-97835721D01*
X191338500Y-97835000D01*
X186655000Y-97835000D01*
X186655000Y-96495000D01*
X191495000Y-96495000D01*
X191495000Y-97806500D01*
X191495000Y-97806500D01*
G37*
G36*
X289915465Y-98543834D02*
X289985016Y-98557669D01*
X290116048Y-98611944D01*
X290233973Y-98690739D01*
X290334261Y-98791027D01*
X290413056Y-98908952D01*
X290467331Y-99039984D01*
X290495000Y-99179086D01*
X290495000Y-99320914D01*
X290467331Y-99460016D01*
X290413056Y-99591048D01*
X290334261Y-99708973D01*
X290233973Y-99809261D01*
X290116048Y-99888056D01*
X289985016Y-99942331D01*
X289915465Y-99956166D01*
X289845916Y-99970000D01*
X289704084Y-99970000D01*
X289634535Y-99956166D01*
X289564984Y-99942331D01*
X289433952Y-99888056D01*
X289316027Y-99809261D01*
X289215739Y-99708973D01*
X289136944Y-99591048D01*
X289082669Y-99460016D01*
X289055000Y-99320914D01*
X289055000Y-99179086D01*
X289082669Y-99039984D01*
X289136944Y-98908952D01*
X289215739Y-98791027D01*
X289316027Y-98690739D01*
X289433952Y-98611944D01*
X289564984Y-98557669D01*
X289634535Y-98543834D01*
X289704084Y-98530000D01*
X289845916Y-98530000D01*
X289915465Y-98543834D01*
X289915465Y-98543834D01*
G37*
G36*
X302290465Y-98543834D02*
X302360016Y-98557669D01*
X302491048Y-98611944D01*
X302608973Y-98690739D01*
X302709261Y-98791027D01*
X302788056Y-98908952D01*
X302842331Y-99039984D01*
X302870000Y-99179086D01*
X302870000Y-99320914D01*
X302842331Y-99460016D01*
X302788056Y-99591048D01*
X302709261Y-99708973D01*
X302608973Y-99809261D01*
X302491048Y-99888056D01*
X302360016Y-99942331D01*
X302290465Y-99956166D01*
X302220916Y-99970000D01*
X302079084Y-99970000D01*
X302009535Y-99956166D01*
X301939984Y-99942331D01*
X301808952Y-99888056D01*
X301691027Y-99809261D01*
X301590739Y-99708973D01*
X301511944Y-99591048D01*
X301457669Y-99460016D01*
X301430000Y-99320914D01*
X301430000Y-99179086D01*
X301457669Y-99039984D01*
X301511944Y-98908952D01*
X301590739Y-98791027D01*
X301691027Y-98690739D01*
X301808952Y-98611944D01*
X301939984Y-98557669D01*
X302009535Y-98543834D01*
X302079084Y-98530000D01*
X302220916Y-98530000D01*
X302290465Y-98543834D01*
X302290465Y-98543834D01*
G37*
G36*
X313865465Y-98468834D02*
X313935016Y-98482669D01*
X314066048Y-98536944D01*
X314183973Y-98615739D01*
X314284261Y-98716027D01*
X314363056Y-98833952D01*
X314417331Y-98964984D01*
X314445000Y-99104086D01*
X314445000Y-99245914D01*
X314417331Y-99385016D01*
X314363056Y-99516048D01*
X314284261Y-99633973D01*
X314183973Y-99734261D01*
X314066048Y-99813056D01*
X313935016Y-99867331D01*
X313865465Y-99881166D01*
X313795916Y-99895000D01*
X313654084Y-99895000D01*
X313584535Y-99881165D01*
X313514984Y-99867331D01*
X313383952Y-99813056D01*
X313266027Y-99734261D01*
X313165739Y-99633973D01*
X313086944Y-99516048D01*
X313032669Y-99385016D01*
X313005000Y-99245914D01*
X313005000Y-99104086D01*
X313032669Y-98964984D01*
X313086944Y-98833952D01*
X313165739Y-98716027D01*
X313266027Y-98615739D01*
X313383952Y-98536944D01*
X313514984Y-98482669D01*
X313584535Y-98468834D01*
X313654084Y-98455000D01*
X313795916Y-98455000D01*
X313865465Y-98468834D01*
X313865465Y-98468834D01*
G37*
G36*
X304047743Y-96902289D02*
X304103770Y-96913433D01*
X304262100Y-96979016D01*
X304404593Y-97074227D01*
X304525773Y-97195407D01*
X304525775Y-97195410D01*
X304620985Y-97337902D01*
X304686567Y-97496231D01*
X304720000Y-97664310D01*
X304720000Y-97835690D01*
X304714133Y-97865184D01*
X304686567Y-98003770D01*
X304620984Y-98162100D01*
X304525773Y-98304593D01*
X304404593Y-98425773D01*
X304262100Y-98520984D01*
X304262099Y-98520985D01*
X304262098Y-98520985D01*
X304223567Y-98536945D01*
X304103770Y-98586567D01*
X304047743Y-98597711D01*
X303935690Y-98620000D01*
X303764310Y-98620000D01*
X303652257Y-98597711D01*
X303596230Y-98586567D01*
X303476433Y-98536945D01*
X303437902Y-98520985D01*
X303437901Y-98520985D01*
X303437900Y-98520984D01*
X303295407Y-98425773D01*
X303174227Y-98304593D01*
X303079016Y-98162100D01*
X303013433Y-98003770D01*
X302985867Y-97865184D01*
X302980000Y-97835690D01*
X302980000Y-97664310D01*
X303013433Y-97496231D01*
X303079015Y-97337902D01*
X303174225Y-97195410D01*
X303174227Y-97195407D01*
X303295407Y-97074227D01*
X303437900Y-96979016D01*
X303596230Y-96913433D01*
X303652257Y-96902289D01*
X303764310Y-96880000D01*
X303935690Y-96880000D01*
X304047743Y-96902289D01*
X304047743Y-96902289D01*
G37*
G36*
X291672743Y-96902289D02*
X291728770Y-96913433D01*
X291887100Y-96979016D01*
X292029593Y-97074227D01*
X292150773Y-97195407D01*
X292150775Y-97195410D01*
X292245985Y-97337902D01*
X292311567Y-97496231D01*
X292345000Y-97664310D01*
X292345000Y-97835690D01*
X292339133Y-97865184D01*
X292311567Y-98003770D01*
X292245984Y-98162100D01*
X292150773Y-98304593D01*
X292029593Y-98425773D01*
X291887100Y-98520984D01*
X291887099Y-98520985D01*
X291887098Y-98520985D01*
X291848567Y-98536945D01*
X291728770Y-98586567D01*
X291672743Y-98597711D01*
X291560690Y-98620000D01*
X291389310Y-98620000D01*
X291277257Y-98597711D01*
X291221230Y-98586567D01*
X291101433Y-98536945D01*
X291062902Y-98520985D01*
X291062901Y-98520985D01*
X291062900Y-98520984D01*
X290920407Y-98425773D01*
X290799227Y-98304593D01*
X290704016Y-98162100D01*
X290638433Y-98003770D01*
X290610867Y-97865184D01*
X290605000Y-97835690D01*
X290605000Y-97664310D01*
X290638433Y-97496231D01*
X290704015Y-97337902D01*
X290799225Y-97195410D01*
X290799227Y-97195407D01*
X290920407Y-97074227D01*
X291062900Y-96979016D01*
X291221230Y-96913433D01*
X291277257Y-96902289D01*
X291389310Y-96880000D01*
X291560690Y-96880000D01*
X291672743Y-96902289D01*
X291672743Y-96902289D01*
G37*
G36*
X315651732Y-92492213D02*
X315963023Y-92621154D01*
X316183139Y-92712329D01*
X316661392Y-93031888D01*
X317068112Y-93438608D01*
X317387671Y-93916861D01*
X317423669Y-94003769D01*
X317607787Y-94448268D01*
X317720000Y-95012403D01*
X317720000Y-95587597D01*
X317607787Y-96151732D01*
X317494275Y-96425773D01*
X317387671Y-96683139D01*
X317068112Y-97161392D01*
X316661392Y-97568112D01*
X316183139Y-97887671D01*
X315963023Y-97978846D01*
X315651732Y-98107787D01*
X315087597Y-98220000D01*
X314512403Y-98220000D01*
X313948268Y-98107787D01*
X313636977Y-97978846D01*
X313416861Y-97887671D01*
X312938608Y-97568112D01*
X312531888Y-97161392D01*
X312212329Y-96683139D01*
X312105725Y-96425773D01*
X311992213Y-96151732D01*
X311880000Y-95587597D01*
X311880000Y-95012403D01*
X311992213Y-94448268D01*
X312176331Y-94003769D01*
X312212329Y-93916861D01*
X312531888Y-93438608D01*
X312938608Y-93031888D01*
X313416861Y-92712329D01*
X313636977Y-92621154D01*
X313948268Y-92492213D01*
X314512403Y-92380000D01*
X315087597Y-92380000D01*
X315651732Y-92492213D01*
X315651732Y-92492213D01*
G37*
G36*
X193995450Y-97694310D02*
X192904550Y-97694310D01*
X192904550Y-96603410D01*
X193995450Y-96603410D01*
X193995450Y-97694310D01*
X193995450Y-97694310D01*
G37*
G36*
X196970000Y-96745000D02*
X195430000Y-96745000D01*
X195430000Y-95805000D01*
X196970000Y-95805000D01*
X196970000Y-96745000D01*
X196970000Y-96745000D01*
G37*
G36*
X291672743Y-94902289D02*
X291728770Y-94913433D01*
X291887100Y-94979016D01*
X292029593Y-95074227D01*
X292150773Y-95195407D01*
X292245984Y-95337900D01*
X292311567Y-95496230D01*
X292345000Y-95664312D01*
X292345000Y-95835688D01*
X292311567Y-96003770D01*
X292245984Y-96162100D01*
X292150773Y-96304593D01*
X292029593Y-96425773D01*
X291887100Y-96520984D01*
X291728770Y-96586567D01*
X291672743Y-96597711D01*
X291560690Y-96620000D01*
X291389310Y-96620000D01*
X291277257Y-96597711D01*
X291221230Y-96586567D01*
X291062900Y-96520984D01*
X290920407Y-96425773D01*
X290799227Y-96304593D01*
X290704016Y-96162100D01*
X290638433Y-96003770D01*
X290605000Y-95835688D01*
X290605000Y-95664312D01*
X290638433Y-95496230D01*
X290704016Y-95337900D01*
X290799227Y-95195407D01*
X290920407Y-95074227D01*
X291062900Y-94979016D01*
X291221230Y-94913433D01*
X291277257Y-94902289D01*
X291389310Y-94880000D01*
X291560690Y-94880000D01*
X291672743Y-94902289D01*
X291672743Y-94902289D01*
G37*
G36*
X304047743Y-94902289D02*
X304103770Y-94913433D01*
X304262100Y-94979016D01*
X304404593Y-95074227D01*
X304525773Y-95195407D01*
X304620984Y-95337900D01*
X304686567Y-95496230D01*
X304720000Y-95664312D01*
X304720000Y-95835688D01*
X304686567Y-96003770D01*
X304620984Y-96162100D01*
X304525773Y-96304593D01*
X304404593Y-96425773D01*
X304262100Y-96520984D01*
X304103770Y-96586567D01*
X304047743Y-96597711D01*
X303935690Y-96620000D01*
X303764310Y-96620000D01*
X303652257Y-96597711D01*
X303596230Y-96586567D01*
X303437900Y-96520984D01*
X303295407Y-96425773D01*
X303174227Y-96304593D01*
X303079016Y-96162100D01*
X303013433Y-96003770D01*
X302980000Y-95835688D01*
X302980000Y-95664312D01*
X303013433Y-95496230D01*
X303079016Y-95337900D01*
X303174227Y-95195407D01*
X303295407Y-95074227D01*
X303437900Y-94979016D01*
X303596230Y-94913433D01*
X303652257Y-94902289D01*
X303764310Y-94880000D01*
X303935690Y-94880000D01*
X304047743Y-94902289D01*
X304047743Y-94902289D01*
G37*
G36*
X191495000Y-95295000D02*
X186655000Y-95295000D01*
X186655000Y-93955000D01*
X191495000Y-93955000D01*
X191495000Y-95295000D01*
X191495000Y-95295000D01*
G37*
G36*
X196970000Y-94845000D02*
X195430000Y-94845000D01*
X195430000Y-93905000D01*
X196970000Y-93905000D01*
X196970000Y-94845000D01*
X196970000Y-94845000D01*
G37*
G36*
X291672743Y-92902289D02*
X291728770Y-92913433D01*
X291887100Y-92979016D01*
X292029593Y-93074227D01*
X292150773Y-93195407D01*
X292245984Y-93337900D01*
X292311567Y-93496230D01*
X292345000Y-93664312D01*
X292345000Y-93835688D01*
X292311567Y-94003770D01*
X292245984Y-94162100D01*
X292150773Y-94304593D01*
X292029593Y-94425773D01*
X291887100Y-94520984D01*
X291728770Y-94586567D01*
X291672743Y-94597711D01*
X291560690Y-94620000D01*
X291389310Y-94620000D01*
X291277257Y-94597711D01*
X291221230Y-94586567D01*
X291062900Y-94520984D01*
X290920407Y-94425773D01*
X290799227Y-94304593D01*
X290704016Y-94162100D01*
X290638433Y-94003770D01*
X290605000Y-93835688D01*
X290605000Y-93664312D01*
X290638433Y-93496230D01*
X290704016Y-93337900D01*
X290799227Y-93195407D01*
X290920407Y-93074227D01*
X291062900Y-92979016D01*
X291221230Y-92913433D01*
X291277257Y-92902289D01*
X291389310Y-92880000D01*
X291560690Y-92880000D01*
X291672743Y-92902289D01*
X291672743Y-92902289D01*
G37*
G36*
X304047743Y-92902289D02*
X304103770Y-92913433D01*
X304262100Y-92979016D01*
X304404593Y-93074227D01*
X304525773Y-93195407D01*
X304620984Y-93337900D01*
X304686567Y-93496230D01*
X304720000Y-93664312D01*
X304720000Y-93835688D01*
X304686567Y-94003770D01*
X304620984Y-94162100D01*
X304525773Y-94304593D01*
X304404593Y-94425773D01*
X304262100Y-94520984D01*
X304103770Y-94586567D01*
X304047743Y-94597711D01*
X303935690Y-94620000D01*
X303764310Y-94620000D01*
X303652257Y-94597711D01*
X303596230Y-94586567D01*
X303437900Y-94520984D01*
X303295407Y-94425773D01*
X303174227Y-94304593D01*
X303079016Y-94162100D01*
X303013433Y-94003770D01*
X302980000Y-93835688D01*
X302980000Y-93664312D01*
X303013433Y-93496230D01*
X303079016Y-93337900D01*
X303174227Y-93195407D01*
X303295407Y-93074227D01*
X303437900Y-92979016D01*
X303596230Y-92913433D01*
X303652257Y-92902289D01*
X303764310Y-92880000D01*
X303935690Y-92880000D01*
X304047743Y-92902289D01*
X304047743Y-92902289D01*
G37*
G36*
X193995450Y-94346590D02*
X192904550Y-94346590D01*
X192904550Y-93255690D01*
X193995450Y-93255690D01*
X193995450Y-94346590D01*
X193995450Y-94346590D01*
G37*
G36*
X200651732Y-87492213D02*
X200868598Y-87582042D01*
X201183139Y-87712329D01*
X201661392Y-88031888D01*
X202068112Y-88438608D01*
X202387671Y-88916861D01*
X202467245Y-89108970D01*
X202607787Y-89448268D01*
X202720000Y-90012403D01*
X202720000Y-90587597D01*
X202607787Y-91151732D01*
X202483847Y-91450949D01*
X202387671Y-91683139D01*
X202068112Y-92161392D01*
X201661392Y-92568112D01*
X201183139Y-92887671D01*
X200963023Y-92978846D01*
X200651732Y-93107787D01*
X200087597Y-93220000D01*
X199512403Y-93220000D01*
X198948268Y-93107787D01*
X198636977Y-92978846D01*
X198416861Y-92887671D01*
X197938608Y-92568112D01*
X197531888Y-92161392D01*
X197212329Y-91683139D01*
X197116153Y-91450949D01*
X196992213Y-91151732D01*
X196880000Y-90587597D01*
X196880000Y-90012403D01*
X196992213Y-89448268D01*
X197132755Y-89108970D01*
X197212329Y-88916861D01*
X197531888Y-88438608D01*
X197938608Y-88031888D01*
X198416861Y-87712329D01*
X198731402Y-87582042D01*
X198948268Y-87492213D01*
X199512403Y-87380000D01*
X200087597Y-87380000D01*
X200651732Y-87492213D01*
X200651732Y-87492213D01*
G37*
G36*
X192822687Y-89759039D02*
X193026522Y-89843470D01*
X193167845Y-89937900D01*
X193209958Y-89966039D01*
X193365961Y-90122042D01*
X193365963Y-90122045D01*
X193488530Y-90305478D01*
X193572961Y-90509313D01*
X193616000Y-90725687D01*
X193616000Y-90946313D01*
X193572961Y-91162687D01*
X193488530Y-91366522D01*
X193366514Y-91549131D01*
X193365961Y-91549958D01*
X193209958Y-91705961D01*
X193209955Y-91705963D01*
X193026522Y-91828530D01*
X192822687Y-91912961D01*
X192606313Y-91956000D01*
X192385687Y-91956000D01*
X192169313Y-91912961D01*
X191965478Y-91828530D01*
X191782045Y-91705963D01*
X191782042Y-91705961D01*
X191626039Y-91549958D01*
X191625546Y-91549220D01*
X191563680Y-91456632D01*
X191559016Y-91450949D01*
X191553334Y-91446286D01*
X191546850Y-91442820D01*
X191539816Y-91440687D01*
X191532500Y-91439966D01*
X191525184Y-91440687D01*
X191518149Y-91442821D01*
X191511666Y-91446286D01*
X191505983Y-91450950D01*
X191501320Y-91456632D01*
X191497854Y-91463116D01*
X191495721Y-91470150D01*
X191495000Y-91477466D01*
X191495000Y-92755000D01*
X186655000Y-92755000D01*
X186655000Y-91415000D01*
X191467427Y-91415000D01*
X191474743Y-91414279D01*
X191481778Y-91412145D01*
X191488261Y-91408680D01*
X191493944Y-91404017D01*
X191498607Y-91398334D01*
X191502072Y-91391851D01*
X191504206Y-91384816D01*
X191504927Y-91377500D01*
X191504206Y-91370184D01*
X191502073Y-91363149D01*
X191419039Y-91162687D01*
X191376000Y-90946313D01*
X191376000Y-90725687D01*
X191419039Y-90509313D01*
X191503470Y-90305478D01*
X191626037Y-90122045D01*
X191626039Y-90122042D01*
X191782042Y-89966039D01*
X191824155Y-89937900D01*
X191965478Y-89843470D01*
X192169313Y-89759039D01*
X192385687Y-89716000D01*
X192606313Y-89716000D01*
X192822687Y-89759039D01*
X192822687Y-89759039D01*
G37*
G36*
X291672743Y-90902289D02*
X291728770Y-90913433D01*
X291887100Y-90979016D01*
X292029593Y-91074227D01*
X292150773Y-91195407D01*
X292167206Y-91220000D01*
X292245985Y-91337902D01*
X292257840Y-91366522D01*
X292311567Y-91496230D01*
X292345000Y-91664312D01*
X292345000Y-91835688D01*
X292311567Y-92003770D01*
X292245984Y-92162100D01*
X292150773Y-92304593D01*
X292029593Y-92425773D01*
X291887100Y-92520984D01*
X291728770Y-92586567D01*
X291672743Y-92597711D01*
X291560690Y-92620000D01*
X291389310Y-92620000D01*
X291277257Y-92597711D01*
X291221230Y-92586567D01*
X291062900Y-92520984D01*
X290920407Y-92425773D01*
X290799227Y-92304593D01*
X290704016Y-92162100D01*
X290638433Y-92003770D01*
X290605000Y-91835688D01*
X290605000Y-91664312D01*
X290638433Y-91496230D01*
X290692160Y-91366522D01*
X290704015Y-91337902D01*
X290782795Y-91220000D01*
X290799227Y-91195407D01*
X290920407Y-91074227D01*
X291062900Y-90979016D01*
X291221230Y-90913433D01*
X291277257Y-90902289D01*
X291389310Y-90880000D01*
X291560690Y-90880000D01*
X291672743Y-90902289D01*
X291672743Y-90902289D01*
G37*
G36*
X304047743Y-90902289D02*
X304103770Y-90913433D01*
X304262100Y-90979016D01*
X304404593Y-91074227D01*
X304525773Y-91195407D01*
X304542206Y-91220000D01*
X304620985Y-91337902D01*
X304632840Y-91366522D01*
X304686567Y-91496230D01*
X304720000Y-91664312D01*
X304720000Y-91835688D01*
X304686567Y-92003770D01*
X304620984Y-92162100D01*
X304525773Y-92304593D01*
X304404593Y-92425773D01*
X304262100Y-92520984D01*
X304103770Y-92586567D01*
X304047743Y-92597711D01*
X303935690Y-92620000D01*
X303764310Y-92620000D01*
X303652257Y-92597711D01*
X303596230Y-92586567D01*
X303437900Y-92520984D01*
X303295407Y-92425773D01*
X303174227Y-92304593D01*
X303079016Y-92162100D01*
X303013433Y-92003770D01*
X302980000Y-91835688D01*
X302980000Y-91664312D01*
X303013433Y-91496230D01*
X303067160Y-91366522D01*
X303079015Y-91337902D01*
X303157795Y-91220000D01*
X303174227Y-91195407D01*
X303295407Y-91074227D01*
X303437900Y-90979016D01*
X303596230Y-90913433D01*
X303652257Y-90902289D01*
X303764310Y-90880000D01*
X303935690Y-90880000D01*
X304047743Y-90902289D01*
X304047743Y-90902289D01*
G37*
G36*
X216022743Y-89502289D02*
X216078770Y-89513433D01*
X216237100Y-89579016D01*
X216379593Y-89674227D01*
X216500773Y-89795407D01*
X216576642Y-89908952D01*
X216595985Y-89937902D01*
X216661567Y-90096231D01*
X216695000Y-90264310D01*
X216695000Y-90435690D01*
X216677906Y-90521626D01*
X216661567Y-90603770D01*
X216595984Y-90762100D01*
X216500773Y-90904593D01*
X216379593Y-91025773D01*
X216237100Y-91120984D01*
X216078770Y-91186567D01*
X216034312Y-91195410D01*
X215910690Y-91220000D01*
X215739310Y-91220000D01*
X215615688Y-91195410D01*
X215571230Y-91186567D01*
X215412900Y-91120984D01*
X215270407Y-91025773D01*
X215149227Y-90904593D01*
X215054016Y-90762100D01*
X214988433Y-90603770D01*
X214972094Y-90521626D01*
X214955000Y-90435690D01*
X214955000Y-90264310D01*
X214988433Y-90096231D01*
X215054015Y-89937902D01*
X215073359Y-89908952D01*
X215149227Y-89795407D01*
X215270407Y-89674227D01*
X215412900Y-89579016D01*
X215571230Y-89513433D01*
X215627257Y-89502289D01*
X215739310Y-89480000D01*
X215910690Y-89480000D01*
X216022743Y-89502289D01*
X216022743Y-89502289D01*
G37*
G36*
X206022743Y-89502289D02*
X206078770Y-89513433D01*
X206237100Y-89579016D01*
X206379593Y-89674227D01*
X206500773Y-89795407D01*
X206576642Y-89908952D01*
X206595985Y-89937902D01*
X206661567Y-90096231D01*
X206695000Y-90264310D01*
X206695000Y-90435690D01*
X206677906Y-90521626D01*
X206661567Y-90603770D01*
X206595984Y-90762100D01*
X206500773Y-90904593D01*
X206379593Y-91025773D01*
X206237100Y-91120984D01*
X206078770Y-91186567D01*
X206034312Y-91195410D01*
X205910690Y-91220000D01*
X205739310Y-91220000D01*
X205615688Y-91195410D01*
X205571230Y-91186567D01*
X205412900Y-91120984D01*
X205270407Y-91025773D01*
X205149227Y-90904593D01*
X205054016Y-90762100D01*
X204988433Y-90603770D01*
X204972094Y-90521626D01*
X204955000Y-90435690D01*
X204955000Y-90264310D01*
X204988433Y-90096231D01*
X205054015Y-89937902D01*
X205073359Y-89908952D01*
X205149227Y-89795407D01*
X205270407Y-89674227D01*
X205412900Y-89579016D01*
X205571230Y-89513433D01*
X205627257Y-89502289D01*
X205739310Y-89480000D01*
X205910690Y-89480000D01*
X206022743Y-89502289D01*
X206022743Y-89502289D01*
G37*
G36*
X208022743Y-89502289D02*
X208078770Y-89513433D01*
X208237100Y-89579016D01*
X208379593Y-89674227D01*
X208500773Y-89795407D01*
X208576642Y-89908952D01*
X208595985Y-89937902D01*
X208661567Y-90096231D01*
X208695000Y-90264310D01*
X208695000Y-90435690D01*
X208677906Y-90521626D01*
X208661567Y-90603770D01*
X208595984Y-90762100D01*
X208500773Y-90904593D01*
X208379593Y-91025773D01*
X208237100Y-91120984D01*
X208078770Y-91186567D01*
X208034312Y-91195410D01*
X207910690Y-91220000D01*
X207739310Y-91220000D01*
X207615688Y-91195410D01*
X207571230Y-91186567D01*
X207412900Y-91120984D01*
X207270407Y-91025773D01*
X207149227Y-90904593D01*
X207054016Y-90762100D01*
X206988433Y-90603770D01*
X206972094Y-90521626D01*
X206955000Y-90435690D01*
X206955000Y-90264310D01*
X206988433Y-90096231D01*
X207054015Y-89937902D01*
X207073359Y-89908952D01*
X207149227Y-89795407D01*
X207270407Y-89674227D01*
X207412900Y-89579016D01*
X207571230Y-89513433D01*
X207627257Y-89502289D01*
X207739310Y-89480000D01*
X207910690Y-89480000D01*
X208022743Y-89502289D01*
X208022743Y-89502289D01*
G37*
G36*
X210022743Y-89502289D02*
X210078770Y-89513433D01*
X210237100Y-89579016D01*
X210379593Y-89674227D01*
X210500773Y-89795407D01*
X210576642Y-89908952D01*
X210595985Y-89937902D01*
X210661567Y-90096231D01*
X210695000Y-90264310D01*
X210695000Y-90435690D01*
X210677906Y-90521626D01*
X210661567Y-90603770D01*
X210595984Y-90762100D01*
X210500773Y-90904593D01*
X210379593Y-91025773D01*
X210237100Y-91120984D01*
X210078770Y-91186567D01*
X210034312Y-91195410D01*
X209910690Y-91220000D01*
X209739310Y-91220000D01*
X209615688Y-91195410D01*
X209571230Y-91186567D01*
X209412900Y-91120984D01*
X209270407Y-91025773D01*
X209149227Y-90904593D01*
X209054016Y-90762100D01*
X208988433Y-90603770D01*
X208972094Y-90521626D01*
X208955000Y-90435690D01*
X208955000Y-90264310D01*
X208988433Y-90096231D01*
X209054015Y-89937902D01*
X209073359Y-89908952D01*
X209149227Y-89795407D01*
X209270407Y-89674227D01*
X209412900Y-89579016D01*
X209571230Y-89513433D01*
X209627257Y-89502289D01*
X209739310Y-89480000D01*
X209910690Y-89480000D01*
X210022743Y-89502289D01*
X210022743Y-89502289D01*
G37*
G36*
X212022743Y-89502289D02*
X212078770Y-89513433D01*
X212237100Y-89579016D01*
X212379593Y-89674227D01*
X212500773Y-89795407D01*
X212576642Y-89908952D01*
X212595985Y-89937902D01*
X212661567Y-90096231D01*
X212695000Y-90264310D01*
X212695000Y-90435690D01*
X212677906Y-90521626D01*
X212661567Y-90603770D01*
X212595984Y-90762100D01*
X212500773Y-90904593D01*
X212379593Y-91025773D01*
X212237100Y-91120984D01*
X212078770Y-91186567D01*
X212034312Y-91195410D01*
X211910690Y-91220000D01*
X211739310Y-91220000D01*
X211615688Y-91195410D01*
X211571230Y-91186567D01*
X211412900Y-91120984D01*
X211270407Y-91025773D01*
X211149227Y-90904593D01*
X211054016Y-90762100D01*
X210988433Y-90603770D01*
X210972094Y-90521626D01*
X210955000Y-90435690D01*
X210955000Y-90264310D01*
X210988433Y-90096231D01*
X211054015Y-89937902D01*
X211073359Y-89908952D01*
X211149227Y-89795407D01*
X211270407Y-89674227D01*
X211412900Y-89579016D01*
X211571230Y-89513433D01*
X211627257Y-89502289D01*
X211739310Y-89480000D01*
X211910690Y-89480000D01*
X212022743Y-89502289D01*
X212022743Y-89502289D01*
G37*
G36*
X214022743Y-89502289D02*
X214078770Y-89513433D01*
X214237100Y-89579016D01*
X214379593Y-89674227D01*
X214500773Y-89795407D01*
X214576642Y-89908952D01*
X214595985Y-89937902D01*
X214661567Y-90096231D01*
X214695000Y-90264310D01*
X214695000Y-90435690D01*
X214677906Y-90521626D01*
X214661567Y-90603770D01*
X214595984Y-90762100D01*
X214500773Y-90904593D01*
X214379593Y-91025773D01*
X214237100Y-91120984D01*
X214078770Y-91186567D01*
X214034312Y-91195410D01*
X213910690Y-91220000D01*
X213739310Y-91220000D01*
X213615688Y-91195410D01*
X213571230Y-91186567D01*
X213412900Y-91120984D01*
X213270407Y-91025773D01*
X213149227Y-90904593D01*
X213054016Y-90762100D01*
X212988433Y-90603770D01*
X212972094Y-90521626D01*
X212955000Y-90435690D01*
X212955000Y-90264310D01*
X212988433Y-90096231D01*
X213054015Y-89937902D01*
X213073359Y-89908952D01*
X213149227Y-89795407D01*
X213270407Y-89674227D01*
X213412900Y-89579016D01*
X213571230Y-89513433D01*
X213627257Y-89502289D01*
X213739310Y-89480000D01*
X213910690Y-89480000D01*
X214022743Y-89502289D01*
X214022743Y-89502289D01*
G37*
G36*
X218022743Y-89502289D02*
X218078770Y-89513433D01*
X218237100Y-89579016D01*
X218379593Y-89674227D01*
X218500773Y-89795407D01*
X218576642Y-89908952D01*
X218595985Y-89937902D01*
X218661567Y-90096231D01*
X218695000Y-90264310D01*
X218695000Y-90435690D01*
X218677906Y-90521626D01*
X218661567Y-90603770D01*
X218595984Y-90762100D01*
X218500773Y-90904593D01*
X218379593Y-91025773D01*
X218237100Y-91120984D01*
X218078770Y-91186567D01*
X218034312Y-91195410D01*
X217910690Y-91220000D01*
X217739310Y-91220000D01*
X217615688Y-91195410D01*
X217571230Y-91186567D01*
X217412900Y-91120984D01*
X217270407Y-91025773D01*
X217149227Y-90904593D01*
X217054016Y-90762100D01*
X216988433Y-90603770D01*
X216972094Y-90521626D01*
X216955000Y-90435690D01*
X216955000Y-90264310D01*
X216988433Y-90096231D01*
X217054015Y-89937902D01*
X217073359Y-89908952D01*
X217149227Y-89795407D01*
X217270407Y-89674227D01*
X217412900Y-89579016D01*
X217571230Y-89513433D01*
X217627257Y-89502289D01*
X217739310Y-89480000D01*
X217910690Y-89480000D01*
X218022743Y-89502289D01*
X218022743Y-89502289D01*
G37*
G36*
X196270000Y-91020000D02*
X194730000Y-91020000D01*
X194730000Y-90080000D01*
X196270000Y-90080000D01*
X196270000Y-91020000D01*
X196270000Y-91020000D01*
G37*
G36*
X302290465Y-89543835D02*
X302360016Y-89557669D01*
X302491048Y-89611944D01*
X302608973Y-89690739D01*
X302709261Y-89791027D01*
X302788056Y-89908952D01*
X302842331Y-90039984D01*
X302870000Y-90179086D01*
X302870000Y-90320914D01*
X302842331Y-90460016D01*
X302788056Y-90591048D01*
X302709261Y-90708973D01*
X302608973Y-90809261D01*
X302491048Y-90888056D01*
X302360016Y-90942331D01*
X302290465Y-90956166D01*
X302220916Y-90970000D01*
X302079084Y-90970000D01*
X302009535Y-90956166D01*
X301939984Y-90942331D01*
X301808952Y-90888056D01*
X301691027Y-90809261D01*
X301590739Y-90708973D01*
X301511944Y-90591048D01*
X301457669Y-90460016D01*
X301430000Y-90320914D01*
X301430000Y-90179086D01*
X301457669Y-90039984D01*
X301511944Y-89908952D01*
X301590739Y-89791027D01*
X301691027Y-89690739D01*
X301808952Y-89611944D01*
X301939984Y-89557669D01*
X302009535Y-89543834D01*
X302079084Y-89530000D01*
X302220916Y-89530000D01*
X302290465Y-89543835D01*
X302290465Y-89543835D01*
G37*
G36*
X289915465Y-89543835D02*
X289985016Y-89557669D01*
X290116048Y-89611944D01*
X290233973Y-89690739D01*
X290334261Y-89791027D01*
X290413056Y-89908952D01*
X290467331Y-90039984D01*
X290495000Y-90179086D01*
X290495000Y-90320914D01*
X290467331Y-90460016D01*
X290413056Y-90591048D01*
X290334261Y-90708973D01*
X290233973Y-90809261D01*
X290116048Y-90888056D01*
X289985016Y-90942331D01*
X289915465Y-90956166D01*
X289845916Y-90970000D01*
X289704084Y-90970000D01*
X289634535Y-90956166D01*
X289564984Y-90942331D01*
X289433952Y-90888056D01*
X289316027Y-90809261D01*
X289215739Y-90708973D01*
X289136944Y-90591048D01*
X289082669Y-90460016D01*
X289055000Y-90320914D01*
X289055000Y-90179086D01*
X289082669Y-90039984D01*
X289136944Y-89908952D01*
X289215739Y-89791027D01*
X289316027Y-89690739D01*
X289433952Y-89611944D01*
X289564984Y-89557669D01*
X289634535Y-89543834D01*
X289704084Y-89530000D01*
X289845916Y-89530000D01*
X289915465Y-89543835D01*
X289915465Y-89543835D01*
G37*
G36*
X187070000Y-89770000D02*
X186130000Y-89770000D01*
X186130000Y-88230000D01*
X187070000Y-88230000D01*
X187070000Y-89770000D01*
X187070000Y-89770000D01*
G37*
G36*
X188970000Y-89770000D02*
X188030000Y-89770000D01*
X188030000Y-88230000D01*
X188970000Y-88230000D01*
X188970000Y-89770000D01*
X188970000Y-89770000D01*
G37*
G36*
X174280687Y-87219039D02*
X174484522Y-87303470D01*
X174599056Y-87380000D01*
X174667958Y-87426039D01*
X174823961Y-87582042D01*
X174823963Y-87582045D01*
X174946530Y-87765478D01*
X175030961Y-87969313D01*
X175074000Y-88185687D01*
X175074000Y-88406313D01*
X175030961Y-88622687D01*
X174946530Y-88826522D01*
X174886166Y-88916862D01*
X174823961Y-89009958D01*
X174667958Y-89165961D01*
X174667955Y-89165963D01*
X174484522Y-89288530D01*
X174280687Y-89372961D01*
X174064313Y-89416000D01*
X173843687Y-89416000D01*
X173627313Y-89372961D01*
X173423478Y-89288530D01*
X173240045Y-89165963D01*
X173240042Y-89165961D01*
X173084039Y-89009958D01*
X173021834Y-88916862D01*
X172961470Y-88826522D01*
X172877039Y-88622687D01*
X172834000Y-88406313D01*
X172834000Y-88185687D01*
X172877039Y-87969313D01*
X172961470Y-87765478D01*
X173084037Y-87582045D01*
X173084039Y-87582042D01*
X173240042Y-87426039D01*
X173308944Y-87380000D01*
X173423478Y-87303470D01*
X173627313Y-87219039D01*
X173843687Y-87176000D01*
X174064313Y-87176000D01*
X174280687Y-87219039D01*
X174280687Y-87219039D01*
G37*
G36*
X192822687Y-87219039D02*
X193026522Y-87303470D01*
X193141056Y-87380000D01*
X193209958Y-87426039D01*
X193365961Y-87582042D01*
X193365963Y-87582045D01*
X193488530Y-87765478D01*
X193572961Y-87969313D01*
X193616000Y-88185687D01*
X193616000Y-88406313D01*
X193572961Y-88622687D01*
X193488530Y-88826522D01*
X193428166Y-88916862D01*
X193365961Y-89009958D01*
X193209958Y-89165961D01*
X193209955Y-89165963D01*
X193026522Y-89288530D01*
X192822687Y-89372961D01*
X192606313Y-89416000D01*
X192385687Y-89416000D01*
X192169313Y-89372961D01*
X191965478Y-89288530D01*
X191782045Y-89165963D01*
X191782042Y-89165961D01*
X191626039Y-89009958D01*
X191563834Y-88916862D01*
X191503470Y-88826522D01*
X191419039Y-88622687D01*
X191376000Y-88406313D01*
X191376000Y-88185687D01*
X191419039Y-87969313D01*
X191503470Y-87765478D01*
X191626037Y-87582045D01*
X191626039Y-87582042D01*
X191782042Y-87426039D01*
X191850944Y-87380000D01*
X191965478Y-87303470D01*
X192169313Y-87219039D01*
X192385687Y-87176000D01*
X192606313Y-87176000D01*
X192822687Y-87219039D01*
X192822687Y-87219039D01*
G37*
G36*
X204465465Y-87943834D02*
X204535016Y-87957669D01*
X204666048Y-88011944D01*
X204783973Y-88090739D01*
X204884261Y-88191027D01*
X204963056Y-88308952D01*
X205017331Y-88439984D01*
X205045000Y-88579086D01*
X205045000Y-88720914D01*
X205017331Y-88860016D01*
X204963056Y-88991048D01*
X204884261Y-89108973D01*
X204783973Y-89209261D01*
X204666048Y-89288056D01*
X204535016Y-89342331D01*
X204465465Y-89356165D01*
X204395916Y-89370000D01*
X204254084Y-89370000D01*
X204184535Y-89356165D01*
X204114984Y-89342331D01*
X203983952Y-89288056D01*
X203866027Y-89209261D01*
X203765739Y-89108973D01*
X203686944Y-88991048D01*
X203632669Y-88860016D01*
X203605000Y-88720914D01*
X203605000Y-88579086D01*
X203632669Y-88439984D01*
X203686944Y-88308952D01*
X203765739Y-88191027D01*
X203866027Y-88090739D01*
X203983952Y-88011944D01*
X204114984Y-87957669D01*
X204184535Y-87943834D01*
X204254084Y-87930000D01*
X204395916Y-87930000D01*
X204465465Y-87943834D01*
X204465465Y-87943834D01*
G37*
G36*
X219465465Y-87943834D02*
X219535016Y-87957669D01*
X219666048Y-88011944D01*
X219783973Y-88090739D01*
X219884261Y-88191027D01*
X219963056Y-88308952D01*
X220017331Y-88439984D01*
X220045000Y-88579086D01*
X220045000Y-88720914D01*
X220017331Y-88860016D01*
X219963056Y-88991048D01*
X219884261Y-89108973D01*
X219783973Y-89209261D01*
X219666048Y-89288056D01*
X219535016Y-89342331D01*
X219465465Y-89356165D01*
X219395916Y-89370000D01*
X219254084Y-89370000D01*
X219184535Y-89356165D01*
X219114984Y-89342331D01*
X218983952Y-89288056D01*
X218866027Y-89209261D01*
X218765739Y-89108973D01*
X218686944Y-88991048D01*
X218632669Y-88860016D01*
X218605000Y-88720914D01*
X218605000Y-88579086D01*
X218632669Y-88439984D01*
X218686944Y-88308952D01*
X218765739Y-88191027D01*
X218866027Y-88090739D01*
X218983952Y-88011944D01*
X219114984Y-87957669D01*
X219184535Y-87943834D01*
X219254084Y-87930000D01*
X219395916Y-87930000D01*
X219465465Y-87943834D01*
X219465465Y-87943834D01*
G37*
G36*
X196270000Y-89120000D02*
X194730000Y-89120000D01*
X194730000Y-88180000D01*
X196270000Y-88180000D01*
X196270000Y-89120000D01*
X196270000Y-89120000D01*
G37*
M02*
