M48
;DRILL file {KiCad (2018-02-13 revision 365ab99a6)-makepkg} date 03/19/18 17:20:50
;FORMAT={-:-/ absolute / metric / decimal}
FMAT,2
METRIC,TZ
T1C0.300
T2C0.500
T3C0.600
T4C0.800
T5C0.889
T6C1.000
T7C1.200
T8C1.400
T9C1.600
T10C3.200
T11C3.300
T12C4.500
%
G90
G05
M71
T1
X173.098Y-159.571
X185.35Y-138.85
X190.725Y-127.4
X195.575Y-87.725
X197.825Y-128.5
X201.65Y-141.475
X201.8Y-98.025
X202.825Y-102.025
X212.663Y-93.501
X213.1Y-94.575
X215.575Y-148.85
X216.9Y-153.4
X217.175Y-148.375
X217.409Y-93.184
X218.254Y-93.718
X223.875Y-91.6
X224.025Y-147.
X224.126Y-147.995
X229.68Y-90.132
X229.775Y-150.61
X230.1Y-151.825
X233.175Y-97.275
X233.941Y-90.575
X234.325Y-97.675
X234.439Y-142.186
X235.5Y-96.3
X236.865Y-144.625
X237.291Y-96.365
X238.153Y-100.882
X238.65Y-122.05
X239.625Y-95.425
X242.75Y-97.95
X243.375Y-129.625
X244.55Y-148.225
X245.767Y-127.939
X246.425Y-126.575
X246.814Y-137.786
X247.575Y-140.05
X248.767Y-127.94
X250.407Y-149.557
X250.494Y-148.444
X251.767Y-127.89
X254.7Y-140.85
X256.025Y-146.15
X258.85Y-139.7
X262.741Y-152.35
X263.525Y-124.95
X265.8Y-157.9
X266.343Y-147.625
X269.Y-133.775
X271.025Y-135.121
X273.225Y-132.25
X273.35Y-121.8
X274.42Y-147.738
X274.625Y-131.375
X276.413Y-96.062
X276.625Y-130.425
X277.675Y-135.775
X277.725Y-116.6
X278.576Y-144.775
X278.664Y-135.925
X278.8Y-145.75
X280.492Y-124.889
X280.86Y-136.957
X280.868Y-135.857
X281.05Y-143.875
X281.2Y-116.375
X281.35Y-127.225
X281.45Y-138.525
X281.588Y-135.163
X282.25Y-126.775
X282.775Y-121.975
X284.775Y-125.675
X285.025Y-116.8
X285.201Y-126.83
X286.208Y-116.816
X286.875Y-121.5
X287.175Y-114.675
X287.35Y-116.45
X287.8Y-125.9
X287.9Y-112.969
X288.375Y-134.
X288.675Y-124.642
X288.8Y-109.865
X290.05Y-141.572
X290.175Y-121.4
X290.824Y-119.417
X291.Y-117.025
X292.087Y-120.981
X292.425Y-116.575
X292.5Y-124.85
X296.475Y-116.775
X298.025Y-116.9
X298.175Y-158.875
X298.175Y-140.375
X299.025Y-116.825
X309.35Y-112.55
X312.3Y-131.2
X319.275Y-126.175
X276.95Y-122.725
X241.225Y-125.15
X264.95Y-145.475
X196.525Y-108.275
X189.005Y-121.135
X193.2Y-110.45
X217.75Y-108.85
X249.3Y-132.075
X219.95Y-108.85
X245.225Y-132.1
X186.15Y-156.675
X248.175Y-132.075
X187.25Y-156.675
X217.75Y-109.95
X186.175Y-154.5
X187.275Y-154.5
X251.35Y-143.875
X188.375Y-156.65
X279.075Y-120.1
X224.225Y-95.475
X188.85Y-137.65
X252.2Y-148.5
X251.3Y-134.1
X254.35Y-133.225
X251.25Y-134.95
X195.425Y-110.425
X194.3Y-111.55
X193.2Y-111.55
X195.425Y-108.275
X196.525Y-111.5
X189.475Y-155.6
X294.075Y-119.75
X288.775Y-130.4
X276.925Y-127.875
X191.375Y-122.345
X260.4Y-146.15
X246.375Y-132.125
X223.25Y-97.825
X259.825Y-147.
X194.325Y-109.375
X196.525Y-109.375
X193.225Y-108.275
X186.15Y-157.775
X196.525Y-110.4
X194.325Y-108.275
X189.Y-120.025
X221.05Y-112.075
X195.425Y-111.525
X194.3Y-110.45
X190.2Y-121.125
X255.5Y-133.225
X190.1Y-135.15
X218.825Y-112.125
X268.375Y-104.45
X279.125Y-105.025
X217.725Y-111.025
X221.05Y-108.85
X219.95Y-112.1
X221.05Y-109.95
X218.85Y-109.95
X190.1Y-136.4
X255.5Y-134.375
X254.35Y-134.375
X253.95Y-131.675
X253.95Y-130.525
X253.975Y-128.125
X191.35Y-135.15
X191.35Y-136.4
X190.1Y-137.65
X188.85Y-135.15
X190.205Y-122.345
X296.825Y-121.35
X188.85Y-136.4
X241.225Y-124.05
X281.65Y-106.7
X253.975Y-129.275
X285.5Y-134.85
X252.125Y-134.125
X286.125Y-101.425
X286.475Y-132.875
X190.2Y-120.025
X195.425Y-109.375
X186.175Y-155.6
X187.275Y-155.6
X252.125Y-135.65
X187.25Y-157.775
X191.35Y-137.65
X240.125Y-124.05
X218.85Y-108.85
X219.95Y-109.95
X219.95Y-111.
X303.825Y-100.5
X191.375Y-121.135
X191.375Y-120.035
X189.005Y-122.345
X240.125Y-125.15
X233.15Y-109.15
X218.825Y-111.025
X221.05Y-110.975
X307.725Y-109.175
X280.15Y-128.1
X287.875Y-131.5
X282.05Y-112.475
X255.725Y-148.05
X217.725Y-112.125
X282.625Y-116.
X238.25Y-131.8
X239.35Y-130.7
X285.2Y-112.
X188.375Y-157.75
X239.35Y-131.8
X193.225Y-109.375
X280.15Y-126.3
X238.25Y-130.7
X189.475Y-156.625
X251.2Y-135.7
X279.075Y-115.25
X188.375Y-154.5
X189.475Y-157.725
X188.375Y-155.6
X189.475Y-154.5
X252.15Y-134.9
X232.85Y-122.725
X240.175Y-154.
X233.075Y-151.7
T2
X172.629Y-132.75
X183.55Y-138.65
X186.1Y-114.525
X186.625Y-139.35
X189.075Y-98.675
X189.25Y-129.175
X196.475Y-99.15
X197.775Y-95.925
X209.3Y-94.9
X217.823Y-91.923
X233.7Y-133.35
X233.7Y-135.35
X233.7Y-137.4
X238.475Y-136.575
X239.25Y-135.65
X239.6Y-134.7
X240.625Y-146.375
X241.525Y-130.6
X243.176Y-128.482
X250.275Y-108.775
X253.419Y-142.395
X253.825Y-139.55
X266.675Y-133.5
X277.175Y-145.847
X277.314Y-97.811
X281.9Y-89.925
X290.075Y-132.7
X290.1Y-127.
X299.8Y-126.25
T3
X266.Y-115.85
X266.Y-117.35
X177.52Y-132.71
X177.52Y-134.21
X177.52Y-135.71
X266.Y-118.85
T4
X205.8Y-156.1
X251.9Y-156.2
X291.475Y-91.75
X291.475Y-93.75
X291.475Y-95.75
X291.475Y-97.75
X245.9Y-156.2
X247.9Y-156.2
X207.8Y-156.1
X209.8Y-156.1
X211.8Y-156.1
X213.8Y-156.1
X215.8Y-156.1
X217.8Y-156.1
X219.8Y-156.1
X221.8Y-156.1
X223.8Y-156.1
X304.2Y-157.375
X303.85Y-91.75
X303.85Y-93.75
X303.85Y-95.75
X178.625Y-124.825
X178.625Y-126.825
X178.625Y-128.825
X304.2Y-147.375
X304.2Y-149.375
X304.2Y-151.375
X304.2Y-153.375
X304.2Y-155.375
X249.9Y-156.2
X266.275Y-156.025
X268.275Y-156.025
X270.275Y-156.025
X303.85Y-97.75
X205.825Y-90.35
X207.825Y-90.35
X209.825Y-90.35
X211.825Y-90.35
X215.825Y-90.35
X272.275Y-156.025
X213.825Y-90.35
X217.825Y-90.35
X315.425Y-100.675
X315.425Y-102.675
X315.425Y-104.675
X315.475Y-134.85
X315.475Y-136.85
X315.475Y-140.85
X315.475Y-142.85
X315.475Y-144.85
X315.425Y-106.675
X315.425Y-108.675
X315.425Y-110.675
X315.475Y-138.85
T5
X235.2Y-147.15
X235.2Y-149.182
X235.2Y-151.214
X235.2Y-153.246
X236.978Y-148.166
X236.978Y-150.198
X236.978Y-152.23
X236.978Y-154.262
T6
X173.954Y-88.296
X173.954Y-90.836
X173.954Y-98.964
X173.954Y-101.504
X192.496Y-88.296
X192.496Y-90.836
X192.496Y-98.964
X175.029Y-144.671
X175.029Y-147.211
X175.029Y-155.339
X175.029Y-157.879
X193.571Y-144.671
X193.571Y-147.211
X193.571Y-155.339
X193.571Y-157.879
X192.496Y-101.504
X212.Y-114.7
X217.Y-114.7
T7
X208.1Y-142.7
X220.9Y-142.7
T8
X221.975Y-104.235
X221.975Y-116.935
X221.975Y-120.115
X221.975Y-123.295
X221.975Y-139.175
X241.025Y-104.235
X241.025Y-139.175
T9
X236.089Y-142.578
X236.089Y-158.834
T10
X199.8Y-155.3
X199.8Y-90.3
X314.8Y-95.3
X314.8Y-150.3
T11
X232.66Y-144.356
X232.66Y-157.056
T12
X180.05Y-109.1
X180.05Y-116.6
X204.05Y-129.45
X204.05Y-136.95
X204.05Y-111.4
X204.05Y-118.9
T2
X256.9Y-157.1G85X256.2Y-157.1
G05
X259.9Y-154.95G85X258.8Y-154.95
G05
X262.5Y-157.1G85X261.8Y-157.1
G05
T0
M30
