M48
;DRILL file {KiCad (5.0.0-rc2-dev-406-g05dae9627)} date 06/28/18 11:49:59
;FORMAT={-:-/ absolute / metric / decimal}
FMAT,2
METRIC,TZ
T1C0.300
T2C0.400
T3C0.800
T4C0.950
T5C1.016
T6C1.300
%
G90
G05
M71
T1
X114.3Y-86.2
X134.Y-125.9
X146.2Y-61.45
X131.3Y-145.7
X118.5Y-121.7
X149.7Y-122.3
X127.8Y-145.7
X141.3Y-145.6
X117.3Y-109.6
X119.Y-64.6
X136.8Y-145.7
X148.45Y-85.25
X126.4Y-134.8
X111.8Y-60.5
X139.9Y-101.8
X126.6Y-60.5
X132.4Y-135.1
X144.3Y-66.75
X119.3Y-134.4
X115.8Y-93.6
X130.7Y-60.3
X146.1Y-130.4
X129.Y-121.9
X138.25Y-94.15
X118.5Y-60.5
X136.8Y-101.8
X125.65Y-80.85
X122.3Y-125.9
X137.7Y-119.8
X143.3Y-107.1
T2
X137.05Y-81.9
X144.25Y-96.3
X147.594Y-74.494
X152.Y-94.3
T3
X118.02Y-67.5
X118.02Y-80.2
X120.56Y-67.5
X120.56Y-80.2
X123.1Y-67.5
X123.1Y-80.2
X125.64Y-67.5
X125.64Y-80.2
X128.18Y-67.5
X128.18Y-80.2
X130.72Y-67.5
X130.72Y-80.2
X133.26Y-67.5
X133.26Y-80.2
X135.8Y-67.5
X135.8Y-80.2
T4
X108.251Y-67.984
X108.251Y-70.524
X108.251Y-73.064
X108.251Y-75.604
X108.251Y-78.144
X108.251Y-80.684
X108.251Y-83.224
X108.251Y-85.764
X108.251Y-90.844
X108.251Y-93.384
X108.251Y-95.924
X108.251Y-98.464
X108.251Y-101.004
X108.251Y-103.544
X108.251Y-106.084
X108.251Y-108.624
X108.251Y-111.164
X108.251Y-113.704
X108.251Y-116.244
X108.251Y-118.784
X108.251Y-121.324
X108.251Y-123.864
X108.251Y-126.404
X110.791Y-67.984
X110.791Y-70.524
X110.791Y-73.064
X110.791Y-75.604
X110.791Y-78.144
X110.791Y-80.684
X110.791Y-83.224
X110.791Y-85.764
X110.791Y-90.844
X110.791Y-93.384
X110.791Y-95.924
X110.791Y-98.464
X110.791Y-101.004
X110.791Y-103.544
X110.791Y-106.084
X110.791Y-108.624
X110.791Y-111.164
X110.791Y-113.704
X110.791Y-116.244
X110.791Y-118.784
X110.791Y-121.324
X110.791Y-123.864
X110.791Y-126.404
X153.971Y-58.84
X153.971Y-61.38
X153.971Y-63.92
X153.971Y-66.46
X153.971Y-69.
X153.971Y-71.54
X153.971Y-74.08
X153.971Y-76.62
X153.971Y-79.16
X153.971Y-81.7
X153.971Y-85.764
X153.971Y-88.304
X153.971Y-90.844
X153.971Y-93.384
X153.971Y-95.924
X153.971Y-98.464
X153.971Y-101.004
X153.971Y-103.544
X153.971Y-106.084
X153.971Y-108.624
X153.971Y-111.164
X153.971Y-113.704
X153.971Y-116.244
X153.971Y-118.784
X153.971Y-121.324
X153.971Y-123.864
X153.971Y-126.404
X156.511Y-58.84
X156.511Y-61.38
X156.511Y-63.92
X156.511Y-66.46
X156.511Y-69.
X156.511Y-71.54
X156.511Y-74.08
X156.511Y-76.62
X156.511Y-79.16
X156.511Y-81.7
X156.511Y-85.764
X156.511Y-88.304
X156.511Y-90.844
X156.511Y-93.384
X156.511Y-95.924
X156.511Y-98.464
X156.511Y-101.004
X156.511Y-103.544
X156.511Y-106.084
X156.511Y-108.624
X156.511Y-111.164
X156.511Y-113.704
X156.511Y-116.244
X156.511Y-118.784
X156.511Y-121.324
X156.511Y-123.864
X156.511Y-126.404
T5
X122.591Y-88.09
X125.105Y-88.09
X127.595Y-88.09
X130.109Y-88.09
X116.432Y-103.34
X118.946Y-103.34
X121.435Y-103.34
X123.95Y-103.34
X126.465Y-103.34
X128.954Y-103.34
X131.468Y-103.34
X143.345Y-120.24
X145.859Y-120.24
X116.432Y-116.69
X118.946Y-116.69
X121.435Y-116.69
X123.95Y-116.69
X126.465Y-116.69
X128.954Y-116.69
X131.468Y-116.69
T6
X115.5Y-130.1
X115.5Y-147.2
X155.1Y-130.1
X155.1Y-147.2
T0
M30
