G04 #@! TF.GenerationSoftware,KiCad,Pcbnew,(5.0.0-rc2-dev-406-g05dae9627)*
G04 #@! TF.CreationDate,2018-06-28T11:49:25+02:00*
G04 #@! TF.ProjectId,Nucleo-F746,4E75636C656F2D463734362E6B696361,rev?*
G04 #@! TF.SameCoordinates,Original*
G04 #@! TF.FileFunction,Copper,L2,Bot,Signal*
G04 #@! TF.FilePolarity,Positive*
%FSLAX46Y46*%
G04 Gerber Fmt 4.6, Leading zero omitted, Abs format (unit mm)*
G04 Created by KiCad (PCBNEW (5.0.0-rc2-dev-406-g05dae9627)) date 06/28/18 11:49:25*
%MOMM*%
%LPD*%
G01*
G04 APERTURE LIST*
%ADD10R,1.600000X1.600000*%
%ADD11O,1.600000X1.600000*%
%ADD12C,0.700000*%
%ADD13O,1.524000X3.048000*%
%ADD14R,3.000000X3.000000*%
%ADD15C,3.000000*%
%ADD16R,1.800000X1.800000*%
%ADD17C,1.800000*%
%ADD18C,0.800000*%
%ADD19C,0.250000*%
%ADD20C,0.254000*%
G04 APERTURE END LIST*
D10*
X135800000Y-67500000D03*
D11*
X118020000Y-80200000D03*
X133260000Y-67500000D03*
X120560000Y-80200000D03*
X130720000Y-67500000D03*
X123100000Y-80200000D03*
X128180000Y-67500000D03*
X125640000Y-80200000D03*
X125640000Y-67500000D03*
X128180000Y-80200000D03*
X123100000Y-67500000D03*
X130720000Y-80200000D03*
X120560000Y-67500000D03*
X133260000Y-80200000D03*
X118020000Y-67500000D03*
X135800000Y-80200000D03*
D12*
X119000000Y-64600000D03*
X130700000Y-60300000D03*
X126600000Y-60500000D03*
X118500000Y-60500000D03*
X111800000Y-60500000D03*
X115800000Y-93600000D03*
X117300000Y-109600000D03*
X143300000Y-107100000D03*
X136800000Y-101800000D03*
X139900000Y-101800000D03*
X149700000Y-122300000D03*
X146100000Y-130400000D03*
X137700000Y-119800000D03*
X118500000Y-121700000D03*
X129000000Y-121900000D03*
X134000000Y-125900000D03*
X122300000Y-125900000D03*
X119300000Y-134400000D03*
X126400000Y-134800000D03*
X132400000Y-135100000D03*
X141300000Y-145600000D03*
X136800000Y-145700000D03*
X131300000Y-145700000D03*
X127800000Y-145700000D03*
X114300000Y-86200000D03*
X146200000Y-61450000D03*
X144300000Y-66750000D03*
X125650000Y-80850000D03*
X138250000Y-94150000D03*
D13*
X131468400Y-103340000D03*
X126464600Y-103340000D03*
X123950000Y-103340000D03*
X121435400Y-103340000D03*
X128953800Y-103340000D03*
X118946200Y-103340000D03*
X116431600Y-103340000D03*
X122590800Y-88090000D03*
X125105400Y-88090000D03*
X127594600Y-88090000D03*
X130109200Y-88090000D03*
X116431600Y-116690000D03*
X118946200Y-116690000D03*
X128953800Y-116690000D03*
X121435400Y-116690000D03*
X123950000Y-116690000D03*
X126464600Y-116690000D03*
X131468400Y-116690000D03*
X143344600Y-120240000D03*
X145859200Y-120240000D03*
D14*
X115500000Y-147200000D03*
X155100000Y-147200000D03*
D15*
X115500000Y-130100000D03*
X155100000Y-130100000D03*
D16*
X108251100Y-67983600D03*
D17*
X108251100Y-70523600D03*
X108251100Y-73063600D03*
X108251100Y-75603600D03*
X108251100Y-78143600D03*
X108251100Y-80683600D03*
X108251100Y-83223600D03*
X108251100Y-85763600D03*
X110791100Y-67983600D03*
X110791100Y-70523600D03*
X110791100Y-73063600D03*
X110791100Y-75603600D03*
X110791100Y-78143600D03*
X110791100Y-80683600D03*
X110791100Y-83223600D03*
X110791100Y-85763600D03*
D16*
X108251100Y-90843600D03*
D17*
X108251100Y-93383600D03*
X108251100Y-95923600D03*
X108251100Y-98463600D03*
X108251100Y-101003600D03*
X108251100Y-103543600D03*
X108251100Y-106083600D03*
X108251100Y-108623600D03*
X108251100Y-111163600D03*
X108251100Y-113703600D03*
X108251100Y-116243600D03*
X108251100Y-118783600D03*
X108251100Y-121323600D03*
X108251100Y-123863600D03*
X108251100Y-126403600D03*
X110791100Y-90843600D03*
X110791100Y-93383600D03*
X110791100Y-95923600D03*
X110791100Y-98463600D03*
X110791100Y-101003600D03*
X110791100Y-103543600D03*
X110791100Y-106083600D03*
X110791100Y-108623600D03*
X110791100Y-111163600D03*
X110791100Y-113703600D03*
X110791100Y-116243600D03*
X110791100Y-118783600D03*
X110791100Y-121323600D03*
X110791100Y-123863600D03*
X110791100Y-126403600D03*
D16*
X153971100Y-85763600D03*
D17*
X153971100Y-88303600D03*
X153971100Y-90843600D03*
X153971100Y-93383600D03*
X153971100Y-95923600D03*
X153971100Y-98463600D03*
X153971100Y-101003600D03*
X153971100Y-103543600D03*
X153971100Y-106083600D03*
X153971100Y-108623600D03*
X153971100Y-111163600D03*
X153971100Y-113703600D03*
X153971100Y-116243600D03*
X153971100Y-118783600D03*
X153971100Y-121323600D03*
X153971100Y-123863600D03*
X153971100Y-126403600D03*
X156511100Y-85763600D03*
X156511100Y-88303600D03*
X156511100Y-90843600D03*
X156511100Y-93383600D03*
X156511100Y-95923600D03*
X156511100Y-98463600D03*
X156511100Y-101003600D03*
X156511100Y-103543600D03*
X156511100Y-106083600D03*
X156511100Y-108623600D03*
X156511100Y-111163600D03*
X156511100Y-113703600D03*
X156511100Y-116243600D03*
X156511100Y-118783600D03*
X156511100Y-121323600D03*
X156511100Y-123863600D03*
X156511100Y-126403600D03*
D16*
X153971100Y-58839600D03*
D17*
X153971100Y-61379600D03*
X153971100Y-63919600D03*
X153971100Y-66459600D03*
X153971100Y-68999600D03*
X153971100Y-71539600D03*
X153971100Y-74079600D03*
X153971100Y-76619600D03*
X153971100Y-79159600D03*
X153971100Y-81699600D03*
X156511100Y-58839600D03*
X156511100Y-61379600D03*
X156511100Y-63919600D03*
X156511100Y-66459600D03*
X156511100Y-68999600D03*
X156511100Y-71539600D03*
X156511100Y-74079600D03*
X156511100Y-76619600D03*
X156511100Y-79159600D03*
X156511100Y-81699600D03*
D12*
X148450000Y-85250000D03*
D18*
X152000000Y-94300000D03*
X144250000Y-96300000D03*
X147594135Y-74494135D03*
X137050000Y-81900000D03*
D19*
X153382916Y-97148601D02*
X152000000Y-95765685D01*
X154469103Y-97148601D02*
X153382916Y-97148601D01*
X156511100Y-103543600D02*
X155196101Y-102228601D01*
X155196101Y-102228601D02*
X155196101Y-97875599D01*
X155196101Y-97875599D02*
X154469103Y-97148601D01*
X152000000Y-94865685D02*
X152000000Y-94300000D01*
X152000000Y-95765685D02*
X152000000Y-94865685D01*
X144250000Y-100450000D02*
X148568601Y-104768601D01*
X148568601Y-104768601D02*
X155286099Y-104768601D01*
X155286099Y-104768601D02*
X155611101Y-104443599D01*
X155611101Y-104443599D02*
X156511100Y-103543600D01*
X144250000Y-96300000D02*
X144250000Y-100450000D01*
X108251100Y-83223600D02*
X109566099Y-81908601D01*
X109566099Y-81908601D02*
X111379101Y-81908601D01*
X111379101Y-81908601D02*
X117074000Y-76213702D01*
X108251100Y-80683600D02*
X108978098Y-80683600D01*
X108978098Y-80683600D02*
X110293097Y-79368601D01*
X110293097Y-79368601D02*
X111317399Y-79368601D01*
X117074000Y-76213702D02*
X117074000Y-74624000D01*
X111317399Y-79368601D02*
X117074000Y-73612000D01*
X117074000Y-73612000D02*
X117074000Y-72850000D01*
X117074000Y-74624000D02*
X117074000Y-72850000D01*
X126464600Y-97285400D02*
X149670400Y-74079600D01*
X149670400Y-74079600D02*
X153971100Y-74079600D01*
X126464600Y-103340000D02*
X126464600Y-97285400D01*
X121435400Y-102578000D02*
X126014589Y-97998811D01*
X155286099Y-72764601D02*
X155611101Y-72439599D01*
X121435400Y-103340000D02*
X121435400Y-102578000D01*
X126014589Y-97099000D02*
X150348988Y-72764601D01*
X150348988Y-72764601D02*
X155286099Y-72764601D01*
X126014589Y-97998811D02*
X126014589Y-97099000D01*
X155611101Y-72439599D02*
X156511100Y-71539600D01*
X116431600Y-103340000D02*
X116431600Y-102578000D01*
X116431600Y-102578000D02*
X117518610Y-101490990D01*
X147194136Y-74894134D02*
X147594135Y-74494135D01*
X120597280Y-101490990D02*
X147194136Y-74894134D01*
X117518610Y-101490990D02*
X120597280Y-101490990D01*
X137050000Y-81900000D02*
X128018800Y-81900000D01*
X128018800Y-81900000D02*
X122590800Y-87328000D01*
X122590800Y-87328000D02*
X122590800Y-88090000D01*
X153971100Y-108623600D02*
X128739800Y-108623600D01*
X128739800Y-108623600D02*
X121435400Y-115928000D01*
X121435400Y-115928000D02*
X121435400Y-116690000D01*
X152057500Y-109250000D02*
X129400000Y-109250000D01*
X153971100Y-111163600D02*
X152057500Y-109250000D01*
X129400000Y-109250000D02*
X126464600Y-112185400D01*
X126464600Y-112185400D02*
X126464600Y-116690000D01*
D20*
G36*
X152423660Y-59739600D02*
X152472943Y-59987365D01*
X152613291Y-60197409D01*
X152823335Y-60337757D01*
X152839008Y-60340875D01*
X152669790Y-60510093D01*
X152436100Y-61074270D01*
X152436100Y-61684930D01*
X152669790Y-62249107D01*
X153070283Y-62649600D01*
X152669790Y-63050093D01*
X152436100Y-63614270D01*
X152436100Y-64224930D01*
X152669790Y-64789107D01*
X153070283Y-65189600D01*
X152669790Y-65590093D01*
X152436100Y-66154270D01*
X152436100Y-66764930D01*
X152669790Y-67329107D01*
X153070283Y-67729600D01*
X152669790Y-68130093D01*
X152436100Y-68694270D01*
X152436100Y-69304930D01*
X152669790Y-69869107D01*
X153070283Y-70269600D01*
X152669790Y-70670093D01*
X152436100Y-71234270D01*
X152436100Y-71844930D01*
X152502238Y-72004601D01*
X150423834Y-72004601D01*
X150348987Y-71989713D01*
X150274140Y-72004601D01*
X150274136Y-72004601D01*
X150052451Y-72048697D01*
X149801059Y-72216672D01*
X149758659Y-72280128D01*
X148301249Y-73737538D01*
X148180415Y-73616704D01*
X147800009Y-73459135D01*
X147388261Y-73459135D01*
X147007855Y-73616704D01*
X146716704Y-73907855D01*
X146559135Y-74288261D01*
X146559135Y-74454332D01*
X120282479Y-100730990D01*
X117593456Y-100730990D01*
X117518609Y-100716102D01*
X117443762Y-100730990D01*
X117443758Y-100730990D01*
X117222073Y-100775086D01*
X116970681Y-100943061D01*
X116928281Y-101006517D01*
X116723169Y-101211629D01*
X116431600Y-101153632D01*
X115886518Y-101262056D01*
X115424420Y-101570821D01*
X115115656Y-102032919D01*
X115034600Y-102440413D01*
X115034600Y-104239588D01*
X115115657Y-104647082D01*
X115424421Y-105109180D01*
X115886519Y-105417944D01*
X116431600Y-105526368D01*
X116976682Y-105417944D01*
X117438780Y-105109180D01*
X117688901Y-104734848D01*
X117939021Y-105109180D01*
X118401119Y-105417944D01*
X118946200Y-105526368D01*
X119491282Y-105417944D01*
X119953380Y-105109180D01*
X120190801Y-104753855D01*
X120428221Y-105109180D01*
X120890319Y-105417944D01*
X121435400Y-105526368D01*
X121980482Y-105417944D01*
X122442580Y-105109180D01*
X122692701Y-104734848D01*
X122942821Y-105109180D01*
X123404919Y-105417944D01*
X123950000Y-105526368D01*
X124495082Y-105417944D01*
X124957180Y-105109180D01*
X125207301Y-104734848D01*
X125457421Y-105109180D01*
X125919519Y-105417944D01*
X126464600Y-105526368D01*
X127009682Y-105417944D01*
X127471780Y-105109180D01*
X127710945Y-104751244D01*
X127711741Y-104753941D01*
X128055774Y-105179630D01*
X128536523Y-105441260D01*
X128610730Y-105456220D01*
X128826800Y-105333720D01*
X128826800Y-103467000D01*
X128806800Y-103467000D01*
X128806800Y-103213000D01*
X128826800Y-103213000D01*
X128826800Y-101346280D01*
X129080800Y-101346280D01*
X129080800Y-103213000D01*
X129100800Y-103213000D01*
X129100800Y-103467000D01*
X129080800Y-103467000D01*
X129080800Y-105333720D01*
X129296870Y-105456220D01*
X129371077Y-105441260D01*
X129851826Y-105179630D01*
X130195859Y-104753941D01*
X130204438Y-104724877D01*
X130461221Y-105109180D01*
X130923319Y-105417944D01*
X131468400Y-105526368D01*
X132013482Y-105417944D01*
X132475580Y-105109180D01*
X132784344Y-104647082D01*
X132865400Y-104239588D01*
X132865400Y-102440412D01*
X132784344Y-102032918D01*
X132475579Y-101570820D01*
X132013481Y-101262056D01*
X131468400Y-101153632D01*
X130923318Y-101262056D01*
X130461220Y-101570821D01*
X130204438Y-101955123D01*
X130195859Y-101926059D01*
X129851826Y-101500370D01*
X129371077Y-101238740D01*
X129296870Y-101223780D01*
X129080800Y-101346280D01*
X128826800Y-101346280D01*
X128610730Y-101223780D01*
X128536523Y-101238740D01*
X128055774Y-101500370D01*
X127711741Y-101926059D01*
X127710945Y-101928756D01*
X127471779Y-101570820D01*
X127224600Y-101405660D01*
X127224600Y-97600201D01*
X149985202Y-74839600D01*
X152624431Y-74839600D01*
X152669790Y-74949107D01*
X153070283Y-75349600D01*
X152669790Y-75750093D01*
X152436100Y-76314270D01*
X152436100Y-76924930D01*
X152669790Y-77489107D01*
X153070283Y-77889600D01*
X152669790Y-78290093D01*
X152436100Y-78854270D01*
X152436100Y-79464930D01*
X152669790Y-80029107D01*
X153070283Y-80429600D01*
X152669790Y-80830093D01*
X152436100Y-81394270D01*
X152436100Y-82004930D01*
X152669790Y-82569107D01*
X153101593Y-83000910D01*
X153665770Y-83234600D01*
X154276430Y-83234600D01*
X154840607Y-83000910D01*
X155241100Y-82600417D01*
X155641593Y-83000910D01*
X156205770Y-83234600D01*
X156816430Y-83234600D01*
X157265001Y-83048796D01*
X157265001Y-84414404D01*
X156816430Y-84228600D01*
X156205770Y-84228600D01*
X155641593Y-84462290D01*
X155472375Y-84631508D01*
X155469257Y-84615835D01*
X155328909Y-84405791D01*
X155118865Y-84265443D01*
X154871100Y-84216160D01*
X153071100Y-84216160D01*
X152823335Y-84265443D01*
X152613291Y-84405791D01*
X152472943Y-84615835D01*
X152423660Y-84863600D01*
X152423660Y-86663600D01*
X152472943Y-86911365D01*
X152613291Y-87121409D01*
X152823335Y-87261757D01*
X152839008Y-87264875D01*
X152669790Y-87434093D01*
X152436100Y-87998270D01*
X152436100Y-88608930D01*
X152669790Y-89173107D01*
X153070283Y-89573600D01*
X152669790Y-89974093D01*
X152436100Y-90538270D01*
X152436100Y-91148930D01*
X152669790Y-91713107D01*
X153070283Y-92113600D01*
X152669790Y-92514093D01*
X152436100Y-93078270D01*
X152436100Y-93360363D01*
X152205874Y-93265000D01*
X151794126Y-93265000D01*
X151413720Y-93422569D01*
X151122569Y-93713720D01*
X150965000Y-94094126D01*
X150965000Y-94505874D01*
X151122569Y-94886280D01*
X151240001Y-95003712D01*
X151240000Y-95690837D01*
X151225112Y-95765685D01*
X151240000Y-95840532D01*
X151240000Y-95840536D01*
X151284096Y-96062221D01*
X151452071Y-96313614D01*
X151515530Y-96356016D01*
X152711698Y-97552185D01*
X152669790Y-97594093D01*
X152436100Y-98158270D01*
X152436100Y-98768930D01*
X152669790Y-99333107D01*
X153070283Y-99733600D01*
X152669790Y-100134093D01*
X152436100Y-100698270D01*
X152436100Y-101308930D01*
X152669790Y-101873107D01*
X153070283Y-102273600D01*
X152669790Y-102674093D01*
X152436100Y-103238270D01*
X152436100Y-103848930D01*
X152502238Y-104008601D01*
X148883403Y-104008601D01*
X145010000Y-100135199D01*
X145010000Y-97003711D01*
X145127431Y-96886280D01*
X145285000Y-96505874D01*
X145285000Y-96094126D01*
X145127431Y-95713720D01*
X144836280Y-95422569D01*
X144455874Y-95265000D01*
X144044126Y-95265000D01*
X143663720Y-95422569D01*
X143372569Y-95713720D01*
X143215000Y-96094126D01*
X143215000Y-96505874D01*
X143372569Y-96886280D01*
X143490000Y-97003711D01*
X143490001Y-100375148D01*
X143475112Y-100450000D01*
X143534097Y-100746537D01*
X143637080Y-100900661D01*
X143702072Y-100997929D01*
X143765528Y-101040329D01*
X147978272Y-105253074D01*
X148020672Y-105316530D01*
X148272064Y-105484505D01*
X148493749Y-105528601D01*
X148493753Y-105528601D01*
X148568600Y-105543489D01*
X148643447Y-105528601D01*
X152539516Y-105528601D01*
X152436100Y-105778270D01*
X152436100Y-106388930D01*
X152669790Y-106953107D01*
X153070283Y-107353600D01*
X152669790Y-107754093D01*
X152624431Y-107863600D01*
X128814648Y-107863600D01*
X128739800Y-107848712D01*
X128664952Y-107863600D01*
X128664948Y-107863600D01*
X128443263Y-107907696D01*
X128191871Y-108075671D01*
X128149471Y-108139127D01*
X121726970Y-114561629D01*
X121435400Y-114503632D01*
X120890318Y-114612056D01*
X120428220Y-114920821D01*
X120190800Y-115276145D01*
X119953379Y-114920820D01*
X119491281Y-114612056D01*
X118946200Y-114503632D01*
X118401118Y-114612056D01*
X117939020Y-114920821D01*
X117688900Y-115295152D01*
X117438779Y-114920820D01*
X116976681Y-114612056D01*
X116431600Y-114503632D01*
X115886518Y-114612056D01*
X115424420Y-114920821D01*
X115115656Y-115382919D01*
X115034600Y-115790413D01*
X115034600Y-117589588D01*
X115115657Y-117997082D01*
X115424421Y-118459180D01*
X115886519Y-118767944D01*
X116431600Y-118876368D01*
X116976682Y-118767944D01*
X117438780Y-118459180D01*
X117688900Y-118084848D01*
X117939021Y-118459180D01*
X118401119Y-118767944D01*
X118946200Y-118876368D01*
X119491282Y-118767944D01*
X119953380Y-118459180D01*
X120190800Y-118103855D01*
X120428221Y-118459180D01*
X120890319Y-118767944D01*
X121435400Y-118876368D01*
X121980482Y-118767944D01*
X122442580Y-118459180D01*
X122692700Y-118084848D01*
X122942821Y-118459180D01*
X123404919Y-118767944D01*
X123950000Y-118876368D01*
X124495082Y-118767944D01*
X124957180Y-118459180D01*
X125207300Y-118084848D01*
X125457421Y-118459180D01*
X125919519Y-118767944D01*
X126464600Y-118876368D01*
X127009682Y-118767944D01*
X127471780Y-118459180D01*
X127710945Y-118101244D01*
X127711741Y-118103941D01*
X128055774Y-118529630D01*
X128536523Y-118791260D01*
X128610730Y-118806220D01*
X128826800Y-118683720D01*
X128826800Y-116817000D01*
X128806800Y-116817000D01*
X128806800Y-116563000D01*
X128826800Y-116563000D01*
X128826800Y-114696280D01*
X129080800Y-114696280D01*
X129080800Y-116563000D01*
X129100800Y-116563000D01*
X129100800Y-116817000D01*
X129080800Y-116817000D01*
X129080800Y-118683720D01*
X129296870Y-118806220D01*
X129371077Y-118791260D01*
X129851826Y-118529630D01*
X130195859Y-118103941D01*
X130204438Y-118074877D01*
X130461221Y-118459180D01*
X130923319Y-118767944D01*
X131468400Y-118876368D01*
X132013482Y-118767944D01*
X132475580Y-118459180D01*
X132784344Y-117997082D01*
X132865400Y-117589588D01*
X132865400Y-115790412D01*
X132784344Y-115382918D01*
X132475579Y-114920820D01*
X132013481Y-114612056D01*
X131468400Y-114503632D01*
X130923318Y-114612056D01*
X130461220Y-114920821D01*
X130204438Y-115305123D01*
X130195859Y-115276059D01*
X129851826Y-114850370D01*
X129371077Y-114588740D01*
X129296870Y-114573780D01*
X129080800Y-114696280D01*
X128826800Y-114696280D01*
X128610730Y-114573780D01*
X128536523Y-114588740D01*
X128055774Y-114850370D01*
X127711741Y-115276059D01*
X127710945Y-115278756D01*
X127471779Y-114920820D01*
X127224600Y-114755660D01*
X127224600Y-112500201D01*
X129714803Y-110010000D01*
X151742699Y-110010000D01*
X152481460Y-110748761D01*
X152436100Y-110858270D01*
X152436100Y-111468930D01*
X152669790Y-112033107D01*
X153070283Y-112433600D01*
X152669790Y-112834093D01*
X152436100Y-113398270D01*
X152436100Y-114008930D01*
X152669790Y-114573107D01*
X153070283Y-114973600D01*
X152669790Y-115374093D01*
X152436100Y-115938270D01*
X152436100Y-116548930D01*
X152669790Y-117113107D01*
X153070283Y-117513600D01*
X152669790Y-117914093D01*
X152436100Y-118478270D01*
X152436100Y-119088930D01*
X152669790Y-119653107D01*
X153070283Y-120053600D01*
X152669790Y-120454093D01*
X152436100Y-121018270D01*
X152436100Y-121628930D01*
X152669790Y-122193107D01*
X153070283Y-122593600D01*
X152669790Y-122994093D01*
X152436100Y-123558270D01*
X152436100Y-124168930D01*
X152669790Y-124733107D01*
X153070283Y-125133600D01*
X152669790Y-125534093D01*
X152436100Y-126098270D01*
X152436100Y-126708930D01*
X152669790Y-127273107D01*
X153101593Y-127704910D01*
X153665770Y-127938600D01*
X154276430Y-127938600D01*
X154840607Y-127704910D01*
X155241100Y-127304417D01*
X155641593Y-127704910D01*
X156205770Y-127938600D01*
X156816430Y-127938600D01*
X157265000Y-127752796D01*
X157265000Y-149265000D01*
X156895304Y-149265000D01*
X156959698Y-149238327D01*
X157138327Y-149059699D01*
X157235000Y-148826310D01*
X157235000Y-147485750D01*
X157076250Y-147327000D01*
X155227000Y-147327000D01*
X155227000Y-147347000D01*
X154973000Y-147347000D01*
X154973000Y-147327000D01*
X153123750Y-147327000D01*
X152965000Y-147485750D01*
X152965000Y-148826310D01*
X153061673Y-149059699D01*
X153240302Y-149238327D01*
X153304696Y-149265000D01*
X117295304Y-149265000D01*
X117359698Y-149238327D01*
X117538327Y-149059699D01*
X117635000Y-148826310D01*
X117635000Y-147485750D01*
X117476250Y-147327000D01*
X115627000Y-147327000D01*
X115627000Y-147347000D01*
X115373000Y-147347000D01*
X115373000Y-147327000D01*
X113523750Y-147327000D01*
X113365000Y-147485750D01*
X113365000Y-148826310D01*
X113461673Y-149059699D01*
X113640302Y-149238327D01*
X113704696Y-149265000D01*
X107235000Y-149265000D01*
X107235000Y-145573690D01*
X113365000Y-145573690D01*
X113365000Y-146914250D01*
X113523750Y-147073000D01*
X115373000Y-147073000D01*
X115373000Y-145223750D01*
X115627000Y-145223750D01*
X115627000Y-147073000D01*
X117476250Y-147073000D01*
X117635000Y-146914250D01*
X117635000Y-145573690D01*
X152965000Y-145573690D01*
X152965000Y-146914250D01*
X153123750Y-147073000D01*
X154973000Y-147073000D01*
X154973000Y-145223750D01*
X155227000Y-145223750D01*
X155227000Y-147073000D01*
X157076250Y-147073000D01*
X157235000Y-146914250D01*
X157235000Y-145573690D01*
X157138327Y-145340301D01*
X156959698Y-145161673D01*
X156726309Y-145065000D01*
X155385750Y-145065000D01*
X155227000Y-145223750D01*
X154973000Y-145223750D01*
X154814250Y-145065000D01*
X153473691Y-145065000D01*
X153240302Y-145161673D01*
X153061673Y-145340301D01*
X152965000Y-145573690D01*
X117635000Y-145573690D01*
X117538327Y-145340301D01*
X117359698Y-145161673D01*
X117126309Y-145065000D01*
X115785750Y-145065000D01*
X115627000Y-145223750D01*
X115373000Y-145223750D01*
X115214250Y-145065000D01*
X113873691Y-145065000D01*
X113640302Y-145161673D01*
X113461673Y-145340301D01*
X113365000Y-145573690D01*
X107235000Y-145573690D01*
X107235000Y-129675322D01*
X113365000Y-129675322D01*
X113365000Y-130524678D01*
X113690034Y-131309380D01*
X114290620Y-131909966D01*
X115075322Y-132235000D01*
X115924678Y-132235000D01*
X116709380Y-131909966D01*
X117309966Y-131309380D01*
X117635000Y-130524678D01*
X117635000Y-129675322D01*
X152965000Y-129675322D01*
X152965000Y-130524678D01*
X153290034Y-131309380D01*
X153890620Y-131909966D01*
X154675322Y-132235000D01*
X155524678Y-132235000D01*
X156309380Y-131909966D01*
X156909966Y-131309380D01*
X157235000Y-130524678D01*
X157235000Y-129675322D01*
X156909966Y-128890620D01*
X156309380Y-128290034D01*
X155524678Y-127965000D01*
X154675322Y-127965000D01*
X153890620Y-128290034D01*
X153290034Y-128890620D01*
X152965000Y-129675322D01*
X117635000Y-129675322D01*
X117309966Y-128890620D01*
X116709380Y-128290034D01*
X115924678Y-127965000D01*
X115075322Y-127965000D01*
X114290620Y-128290034D01*
X113690034Y-128890620D01*
X113365000Y-129675322D01*
X107235000Y-129675322D01*
X107235000Y-127558317D01*
X107381593Y-127704910D01*
X107945770Y-127938600D01*
X108556430Y-127938600D01*
X109120607Y-127704910D01*
X109521100Y-127304417D01*
X109921593Y-127704910D01*
X110485770Y-127938600D01*
X111096430Y-127938600D01*
X111660607Y-127704910D01*
X112092410Y-127273107D01*
X112326100Y-126708930D01*
X112326100Y-126098270D01*
X112092410Y-125534093D01*
X111691917Y-125133600D01*
X112092410Y-124733107D01*
X112326100Y-124168930D01*
X112326100Y-123558270D01*
X112092410Y-122994093D01*
X111691917Y-122593600D01*
X112092410Y-122193107D01*
X112326100Y-121628930D01*
X112326100Y-121018270D01*
X112092410Y-120454093D01*
X112005317Y-120367000D01*
X141947600Y-120367000D01*
X141947600Y-121129000D01*
X142102541Y-121653941D01*
X142446574Y-122079630D01*
X142927323Y-122341260D01*
X143001530Y-122356220D01*
X143217600Y-122233720D01*
X143217600Y-120367000D01*
X141947600Y-120367000D01*
X112005317Y-120367000D01*
X111691917Y-120053600D01*
X112092410Y-119653107D01*
X112217546Y-119351000D01*
X141947600Y-119351000D01*
X141947600Y-120113000D01*
X143217600Y-120113000D01*
X143217600Y-118246280D01*
X143471600Y-118246280D01*
X143471600Y-120113000D01*
X143491600Y-120113000D01*
X143491600Y-120367000D01*
X143471600Y-120367000D01*
X143471600Y-122233720D01*
X143687670Y-122356220D01*
X143761877Y-122341260D01*
X144242626Y-122079630D01*
X144586659Y-121653941D01*
X144595238Y-121624877D01*
X144852021Y-122009180D01*
X145314119Y-122317944D01*
X145859200Y-122426368D01*
X146404282Y-122317944D01*
X146866380Y-122009180D01*
X147175144Y-121547082D01*
X147256200Y-121139588D01*
X147256200Y-119340412D01*
X147175144Y-118932918D01*
X146866379Y-118470820D01*
X146404281Y-118162056D01*
X145859200Y-118053632D01*
X145314118Y-118162056D01*
X144852020Y-118470821D01*
X144595238Y-118855123D01*
X144586659Y-118826059D01*
X144242626Y-118400370D01*
X143761877Y-118138740D01*
X143687670Y-118123780D01*
X143471600Y-118246280D01*
X143217600Y-118246280D01*
X143001530Y-118123780D01*
X142927323Y-118138740D01*
X142446574Y-118400370D01*
X142102541Y-118826059D01*
X141947600Y-119351000D01*
X112217546Y-119351000D01*
X112326100Y-119088930D01*
X112326100Y-118478270D01*
X112092410Y-117914093D01*
X111691917Y-117513600D01*
X112092410Y-117113107D01*
X112326100Y-116548930D01*
X112326100Y-115938270D01*
X112092410Y-115374093D01*
X111691917Y-114973600D01*
X112092410Y-114573107D01*
X112326100Y-114008930D01*
X112326100Y-113398270D01*
X112092410Y-112834093D01*
X111691917Y-112433600D01*
X112092410Y-112033107D01*
X112326100Y-111468930D01*
X112326100Y-110858270D01*
X112092410Y-110294093D01*
X111691917Y-109893600D01*
X112092410Y-109493107D01*
X112326100Y-108928930D01*
X112326100Y-108318270D01*
X112092410Y-107754093D01*
X111691917Y-107353600D01*
X112092410Y-106953107D01*
X112326100Y-106388930D01*
X112326100Y-105778270D01*
X112092410Y-105214093D01*
X111691917Y-104813600D01*
X112092410Y-104413107D01*
X112326100Y-103848930D01*
X112326100Y-103238270D01*
X112092410Y-102674093D01*
X111691917Y-102273600D01*
X112092410Y-101873107D01*
X112326100Y-101308930D01*
X112326100Y-100698270D01*
X112092410Y-100134093D01*
X111691917Y-99733600D01*
X112092410Y-99333107D01*
X112326100Y-98768930D01*
X112326100Y-98158270D01*
X112092410Y-97594093D01*
X111691917Y-97193600D01*
X112092410Y-96793107D01*
X112326100Y-96228930D01*
X112326100Y-95618270D01*
X112092410Y-95054093D01*
X111691917Y-94653600D01*
X112092410Y-94253107D01*
X112326100Y-93688930D01*
X112326100Y-93078270D01*
X112092410Y-92514093D01*
X111691917Y-92113600D01*
X112092410Y-91713107D01*
X112326100Y-91148930D01*
X112326100Y-90538270D01*
X112092410Y-89974093D01*
X111660607Y-89542290D01*
X111096430Y-89308600D01*
X110485770Y-89308600D01*
X109921593Y-89542290D01*
X109752375Y-89711508D01*
X109749257Y-89695835D01*
X109608909Y-89485791D01*
X109398865Y-89345443D01*
X109151100Y-89296160D01*
X107351100Y-89296160D01*
X107235000Y-89319253D01*
X107235000Y-86918317D01*
X107381593Y-87064910D01*
X107945770Y-87298600D01*
X108556430Y-87298600D01*
X109120607Y-87064910D01*
X109521100Y-86664417D01*
X109921593Y-87064910D01*
X110485770Y-87298600D01*
X111096430Y-87298600D01*
X111357616Y-87190413D01*
X121193800Y-87190413D01*
X121193800Y-88989588D01*
X121274857Y-89397082D01*
X121583621Y-89859180D01*
X122045719Y-90167944D01*
X122590800Y-90276368D01*
X123135882Y-90167944D01*
X123597980Y-89859180D01*
X123848100Y-89484848D01*
X124098221Y-89859180D01*
X124560319Y-90167944D01*
X125105400Y-90276368D01*
X125650482Y-90167944D01*
X126112580Y-89859180D01*
X126350001Y-89503855D01*
X126587421Y-89859180D01*
X127049519Y-90167944D01*
X127594600Y-90276368D01*
X128139682Y-90167944D01*
X128601780Y-89859180D01*
X128851901Y-89484848D01*
X129102021Y-89859180D01*
X129564119Y-90167944D01*
X130109200Y-90276368D01*
X130654282Y-90167944D01*
X131116380Y-89859180D01*
X131425144Y-89397082D01*
X131506200Y-88989588D01*
X131506200Y-87190412D01*
X131425144Y-86782918D01*
X131116379Y-86320820D01*
X130654281Y-86012056D01*
X130109200Y-85903632D01*
X129564118Y-86012056D01*
X129102020Y-86320821D01*
X128851900Y-86695152D01*
X128601779Y-86320820D01*
X128139681Y-86012056D01*
X127594600Y-85903632D01*
X127049518Y-86012056D01*
X126587420Y-86320821D01*
X126350000Y-86676145D01*
X126112579Y-86320820D01*
X125650481Y-86012056D01*
X125105400Y-85903632D01*
X125086138Y-85907463D01*
X128333602Y-82660000D01*
X136346289Y-82660000D01*
X136463720Y-82777431D01*
X136844126Y-82935000D01*
X137255874Y-82935000D01*
X137636280Y-82777431D01*
X137927431Y-82486280D01*
X138085000Y-82105874D01*
X138085000Y-81694126D01*
X137927431Y-81313720D01*
X137636280Y-81022569D01*
X137255874Y-80865000D01*
X136844126Y-80865000D01*
X136463720Y-81022569D01*
X136346289Y-81140000D01*
X128093646Y-81140000D01*
X128018799Y-81125112D01*
X127943952Y-81140000D01*
X127943948Y-81140000D01*
X127722263Y-81184096D01*
X127470871Y-81352071D01*
X127428471Y-81415527D01*
X122882370Y-85961629D01*
X122590800Y-85903632D01*
X122045718Y-86012056D01*
X121583620Y-86320821D01*
X121274856Y-86782919D01*
X121193800Y-87190413D01*
X111357616Y-87190413D01*
X111660607Y-87064910D01*
X112092410Y-86633107D01*
X112326100Y-86068930D01*
X112326100Y-85458270D01*
X112092410Y-84894093D01*
X111691917Y-84493600D01*
X112092410Y-84093107D01*
X112326100Y-83528930D01*
X112326100Y-82918270D01*
X112092410Y-82354093D01*
X111691917Y-81953600D01*
X112092410Y-81553107D01*
X112326100Y-80988930D01*
X112326100Y-80378270D01*
X112092410Y-79814093D01*
X111691917Y-79413600D01*
X112092410Y-79013107D01*
X112326100Y-78448930D01*
X112326100Y-77838270D01*
X112092410Y-77274093D01*
X111691917Y-76873600D01*
X112092410Y-76473107D01*
X112326100Y-75908930D01*
X112326100Y-75298270D01*
X112092410Y-74734093D01*
X111691917Y-74333600D01*
X112092410Y-73933107D01*
X112326100Y-73368930D01*
X112326100Y-72977000D01*
X115677000Y-72977000D01*
X115677000Y-73739000D01*
X115831941Y-74263941D01*
X116175974Y-74689630D01*
X116656723Y-74951260D01*
X116730930Y-74966220D01*
X116947000Y-74843720D01*
X116947000Y-72977000D01*
X115677000Y-72977000D01*
X112326100Y-72977000D01*
X112326100Y-72758270D01*
X112092410Y-72194093D01*
X111859317Y-71961000D01*
X115677000Y-71961000D01*
X115677000Y-72723000D01*
X116947000Y-72723000D01*
X116947000Y-70856280D01*
X117201000Y-70856280D01*
X117201000Y-72723000D01*
X117221000Y-72723000D01*
X117221000Y-72977000D01*
X117201000Y-72977000D01*
X117201000Y-74843720D01*
X117417070Y-74966220D01*
X117491277Y-74951260D01*
X117972026Y-74689630D01*
X118316059Y-74263941D01*
X118324638Y-74234877D01*
X118581421Y-74619180D01*
X119043519Y-74927944D01*
X119588600Y-75036368D01*
X120133682Y-74927944D01*
X120595780Y-74619180D01*
X120833201Y-74263855D01*
X121070621Y-74619180D01*
X121532719Y-74927944D01*
X122077800Y-75036368D01*
X122622882Y-74927944D01*
X123084980Y-74619180D01*
X123335101Y-74244848D01*
X123585221Y-74619180D01*
X124047319Y-74927944D01*
X124592400Y-75036368D01*
X125137482Y-74927944D01*
X125599580Y-74619180D01*
X125837001Y-74263855D01*
X126074421Y-74619180D01*
X126536519Y-74927944D01*
X127081600Y-75036368D01*
X127626682Y-74927944D01*
X128088780Y-74619180D01*
X128338901Y-74244848D01*
X128589021Y-74619180D01*
X129051119Y-74927944D01*
X129596200Y-75036368D01*
X130141282Y-74927944D01*
X130603380Y-74619180D01*
X130840801Y-74263855D01*
X131078221Y-74619180D01*
X131540319Y-74927944D01*
X132085400Y-75036368D01*
X132630482Y-74927944D01*
X133092580Y-74619180D01*
X133342701Y-74244848D01*
X133592821Y-74619180D01*
X134054919Y-74927944D01*
X134600000Y-75036368D01*
X135145082Y-74927944D01*
X135607180Y-74619180D01*
X135915944Y-74157082D01*
X135997000Y-73749588D01*
X135997000Y-71950412D01*
X135915944Y-71542918D01*
X135607179Y-71080820D01*
X135145081Y-70772056D01*
X134600000Y-70663632D01*
X134054918Y-70772056D01*
X133592820Y-71080821D01*
X133342700Y-71455152D01*
X133092579Y-71080820D01*
X132630481Y-70772056D01*
X132085400Y-70663632D01*
X131540318Y-70772056D01*
X131078220Y-71080821D01*
X130840800Y-71436145D01*
X130603379Y-71080820D01*
X130141281Y-70772056D01*
X129596200Y-70663632D01*
X129051118Y-70772056D01*
X128589020Y-71080821D01*
X128338900Y-71455152D01*
X128088779Y-71080820D01*
X127626681Y-70772056D01*
X127081600Y-70663632D01*
X126536518Y-70772056D01*
X126074420Y-71080821D01*
X125837000Y-71436145D01*
X125599579Y-71080820D01*
X125137481Y-70772056D01*
X124592400Y-70663632D01*
X124047318Y-70772056D01*
X123585220Y-71080821D01*
X123335100Y-71455152D01*
X123084979Y-71080820D01*
X122622881Y-70772056D01*
X122077800Y-70663632D01*
X121532718Y-70772056D01*
X121070620Y-71080821D01*
X120833200Y-71436145D01*
X120595779Y-71080820D01*
X120133681Y-70772056D01*
X119588600Y-70663632D01*
X119043518Y-70772056D01*
X118581420Y-71080821D01*
X118324638Y-71465123D01*
X118316059Y-71436059D01*
X117972026Y-71010370D01*
X117491277Y-70748740D01*
X117417070Y-70733780D01*
X117201000Y-70856280D01*
X116947000Y-70856280D01*
X116730930Y-70733780D01*
X116656723Y-70748740D01*
X116175974Y-71010370D01*
X115831941Y-71436059D01*
X115677000Y-71961000D01*
X111859317Y-71961000D01*
X111691917Y-71793600D01*
X112092410Y-71393107D01*
X112326100Y-70828930D01*
X112326100Y-70218270D01*
X112092410Y-69654093D01*
X111691917Y-69253600D01*
X112092410Y-68853107D01*
X112326100Y-68288930D01*
X112326100Y-67678270D01*
X112092410Y-67114093D01*
X111660607Y-66682290D01*
X111096430Y-66448600D01*
X110485770Y-66448600D01*
X109921593Y-66682290D01*
X109752375Y-66851508D01*
X109749257Y-66835835D01*
X109608909Y-66625791D01*
X109398865Y-66485443D01*
X109151100Y-66436160D01*
X107351100Y-66436160D01*
X107235000Y-66459253D01*
X107235000Y-58235000D01*
X152423660Y-58235000D01*
X152423660Y-59739600D01*
X152423660Y-59739600D01*
G37*
X152423660Y-59739600D02*
X152472943Y-59987365D01*
X152613291Y-60197409D01*
X152823335Y-60337757D01*
X152839008Y-60340875D01*
X152669790Y-60510093D01*
X152436100Y-61074270D01*
X152436100Y-61684930D01*
X152669790Y-62249107D01*
X153070283Y-62649600D01*
X152669790Y-63050093D01*
X152436100Y-63614270D01*
X152436100Y-64224930D01*
X152669790Y-64789107D01*
X153070283Y-65189600D01*
X152669790Y-65590093D01*
X152436100Y-66154270D01*
X152436100Y-66764930D01*
X152669790Y-67329107D01*
X153070283Y-67729600D01*
X152669790Y-68130093D01*
X152436100Y-68694270D01*
X152436100Y-69304930D01*
X152669790Y-69869107D01*
X153070283Y-70269600D01*
X152669790Y-70670093D01*
X152436100Y-71234270D01*
X152436100Y-71844930D01*
X152502238Y-72004601D01*
X150423834Y-72004601D01*
X150348987Y-71989713D01*
X150274140Y-72004601D01*
X150274136Y-72004601D01*
X150052451Y-72048697D01*
X149801059Y-72216672D01*
X149758659Y-72280128D01*
X148301249Y-73737538D01*
X148180415Y-73616704D01*
X147800009Y-73459135D01*
X147388261Y-73459135D01*
X147007855Y-73616704D01*
X146716704Y-73907855D01*
X146559135Y-74288261D01*
X146559135Y-74454332D01*
X120282479Y-100730990D01*
X117593456Y-100730990D01*
X117518609Y-100716102D01*
X117443762Y-100730990D01*
X117443758Y-100730990D01*
X117222073Y-100775086D01*
X116970681Y-100943061D01*
X116928281Y-101006517D01*
X116723169Y-101211629D01*
X116431600Y-101153632D01*
X115886518Y-101262056D01*
X115424420Y-101570821D01*
X115115656Y-102032919D01*
X115034600Y-102440413D01*
X115034600Y-104239588D01*
X115115657Y-104647082D01*
X115424421Y-105109180D01*
X115886519Y-105417944D01*
X116431600Y-105526368D01*
X116976682Y-105417944D01*
X117438780Y-105109180D01*
X117688901Y-104734848D01*
X117939021Y-105109180D01*
X118401119Y-105417944D01*
X118946200Y-105526368D01*
X119491282Y-105417944D01*
X119953380Y-105109180D01*
X120190801Y-104753855D01*
X120428221Y-105109180D01*
X120890319Y-105417944D01*
X121435400Y-105526368D01*
X121980482Y-105417944D01*
X122442580Y-105109180D01*
X122692701Y-104734848D01*
X122942821Y-105109180D01*
X123404919Y-105417944D01*
X123950000Y-105526368D01*
X124495082Y-105417944D01*
X124957180Y-105109180D01*
X125207301Y-104734848D01*
X125457421Y-105109180D01*
X125919519Y-105417944D01*
X126464600Y-105526368D01*
X127009682Y-105417944D01*
X127471780Y-105109180D01*
X127710945Y-104751244D01*
X127711741Y-104753941D01*
X128055774Y-105179630D01*
X128536523Y-105441260D01*
X128610730Y-105456220D01*
X128826800Y-105333720D01*
X128826800Y-103467000D01*
X128806800Y-103467000D01*
X128806800Y-103213000D01*
X128826800Y-103213000D01*
X128826800Y-101346280D01*
X129080800Y-101346280D01*
X129080800Y-103213000D01*
X129100800Y-103213000D01*
X129100800Y-103467000D01*
X129080800Y-103467000D01*
X129080800Y-105333720D01*
X129296870Y-105456220D01*
X129371077Y-105441260D01*
X129851826Y-105179630D01*
X130195859Y-104753941D01*
X130204438Y-104724877D01*
X130461221Y-105109180D01*
X130923319Y-105417944D01*
X131468400Y-105526368D01*
X132013482Y-105417944D01*
X132475580Y-105109180D01*
X132784344Y-104647082D01*
X132865400Y-104239588D01*
X132865400Y-102440412D01*
X132784344Y-102032918D01*
X132475579Y-101570820D01*
X132013481Y-101262056D01*
X131468400Y-101153632D01*
X130923318Y-101262056D01*
X130461220Y-101570821D01*
X130204438Y-101955123D01*
X130195859Y-101926059D01*
X129851826Y-101500370D01*
X129371077Y-101238740D01*
X129296870Y-101223780D01*
X129080800Y-101346280D01*
X128826800Y-101346280D01*
X128610730Y-101223780D01*
X128536523Y-101238740D01*
X128055774Y-101500370D01*
X127711741Y-101926059D01*
X127710945Y-101928756D01*
X127471779Y-101570820D01*
X127224600Y-101405660D01*
X127224600Y-97600201D01*
X149985202Y-74839600D01*
X152624431Y-74839600D01*
X152669790Y-74949107D01*
X153070283Y-75349600D01*
X152669790Y-75750093D01*
X152436100Y-76314270D01*
X152436100Y-76924930D01*
X152669790Y-77489107D01*
X153070283Y-77889600D01*
X152669790Y-78290093D01*
X152436100Y-78854270D01*
X152436100Y-79464930D01*
X152669790Y-80029107D01*
X153070283Y-80429600D01*
X152669790Y-80830093D01*
X152436100Y-81394270D01*
X152436100Y-82004930D01*
X152669790Y-82569107D01*
X153101593Y-83000910D01*
X153665770Y-83234600D01*
X154276430Y-83234600D01*
X154840607Y-83000910D01*
X155241100Y-82600417D01*
X155641593Y-83000910D01*
X156205770Y-83234600D01*
X156816430Y-83234600D01*
X157265001Y-83048796D01*
X157265001Y-84414404D01*
X156816430Y-84228600D01*
X156205770Y-84228600D01*
X155641593Y-84462290D01*
X155472375Y-84631508D01*
X155469257Y-84615835D01*
X155328909Y-84405791D01*
X155118865Y-84265443D01*
X154871100Y-84216160D01*
X153071100Y-84216160D01*
X152823335Y-84265443D01*
X152613291Y-84405791D01*
X152472943Y-84615835D01*
X152423660Y-84863600D01*
X152423660Y-86663600D01*
X152472943Y-86911365D01*
X152613291Y-87121409D01*
X152823335Y-87261757D01*
X152839008Y-87264875D01*
X152669790Y-87434093D01*
X152436100Y-87998270D01*
X152436100Y-88608930D01*
X152669790Y-89173107D01*
X153070283Y-89573600D01*
X152669790Y-89974093D01*
X152436100Y-90538270D01*
X152436100Y-91148930D01*
X152669790Y-91713107D01*
X153070283Y-92113600D01*
X152669790Y-92514093D01*
X152436100Y-93078270D01*
X152436100Y-93360363D01*
X152205874Y-93265000D01*
X151794126Y-93265000D01*
X151413720Y-93422569D01*
X151122569Y-93713720D01*
X150965000Y-94094126D01*
X150965000Y-94505874D01*
X151122569Y-94886280D01*
X151240001Y-95003712D01*
X151240000Y-95690837D01*
X151225112Y-95765685D01*
X151240000Y-95840532D01*
X151240000Y-95840536D01*
X151284096Y-96062221D01*
X151452071Y-96313614D01*
X151515530Y-96356016D01*
X152711698Y-97552185D01*
X152669790Y-97594093D01*
X152436100Y-98158270D01*
X152436100Y-98768930D01*
X152669790Y-99333107D01*
X153070283Y-99733600D01*
X152669790Y-100134093D01*
X152436100Y-100698270D01*
X152436100Y-101308930D01*
X152669790Y-101873107D01*
X153070283Y-102273600D01*
X152669790Y-102674093D01*
X152436100Y-103238270D01*
X152436100Y-103848930D01*
X152502238Y-104008601D01*
X148883403Y-104008601D01*
X145010000Y-100135199D01*
X145010000Y-97003711D01*
X145127431Y-96886280D01*
X145285000Y-96505874D01*
X145285000Y-96094126D01*
X145127431Y-95713720D01*
X144836280Y-95422569D01*
X144455874Y-95265000D01*
X144044126Y-95265000D01*
X143663720Y-95422569D01*
X143372569Y-95713720D01*
X143215000Y-96094126D01*
X143215000Y-96505874D01*
X143372569Y-96886280D01*
X143490000Y-97003711D01*
X143490001Y-100375148D01*
X143475112Y-100450000D01*
X143534097Y-100746537D01*
X143637080Y-100900661D01*
X143702072Y-100997929D01*
X143765528Y-101040329D01*
X147978272Y-105253074D01*
X148020672Y-105316530D01*
X148272064Y-105484505D01*
X148493749Y-105528601D01*
X148493753Y-105528601D01*
X148568600Y-105543489D01*
X148643447Y-105528601D01*
X152539516Y-105528601D01*
X152436100Y-105778270D01*
X152436100Y-106388930D01*
X152669790Y-106953107D01*
X153070283Y-107353600D01*
X152669790Y-107754093D01*
X152624431Y-107863600D01*
X128814648Y-107863600D01*
X128739800Y-107848712D01*
X128664952Y-107863600D01*
X128664948Y-107863600D01*
X128443263Y-107907696D01*
X128191871Y-108075671D01*
X128149471Y-108139127D01*
X121726970Y-114561629D01*
X121435400Y-114503632D01*
X120890318Y-114612056D01*
X120428220Y-114920821D01*
X120190800Y-115276145D01*
X119953379Y-114920820D01*
X119491281Y-114612056D01*
X118946200Y-114503632D01*
X118401118Y-114612056D01*
X117939020Y-114920821D01*
X117688900Y-115295152D01*
X117438779Y-114920820D01*
X116976681Y-114612056D01*
X116431600Y-114503632D01*
X115886518Y-114612056D01*
X115424420Y-114920821D01*
X115115656Y-115382919D01*
X115034600Y-115790413D01*
X115034600Y-117589588D01*
X115115657Y-117997082D01*
X115424421Y-118459180D01*
X115886519Y-118767944D01*
X116431600Y-118876368D01*
X116976682Y-118767944D01*
X117438780Y-118459180D01*
X117688900Y-118084848D01*
X117939021Y-118459180D01*
X118401119Y-118767944D01*
X118946200Y-118876368D01*
X119491282Y-118767944D01*
X119953380Y-118459180D01*
X120190800Y-118103855D01*
X120428221Y-118459180D01*
X120890319Y-118767944D01*
X121435400Y-118876368D01*
X121980482Y-118767944D01*
X122442580Y-118459180D01*
X122692700Y-118084848D01*
X122942821Y-118459180D01*
X123404919Y-118767944D01*
X123950000Y-118876368D01*
X124495082Y-118767944D01*
X124957180Y-118459180D01*
X125207300Y-118084848D01*
X125457421Y-118459180D01*
X125919519Y-118767944D01*
X126464600Y-118876368D01*
X127009682Y-118767944D01*
X127471780Y-118459180D01*
X127710945Y-118101244D01*
X127711741Y-118103941D01*
X128055774Y-118529630D01*
X128536523Y-118791260D01*
X128610730Y-118806220D01*
X128826800Y-118683720D01*
X128826800Y-116817000D01*
X128806800Y-116817000D01*
X128806800Y-116563000D01*
X128826800Y-116563000D01*
X128826800Y-114696280D01*
X129080800Y-114696280D01*
X129080800Y-116563000D01*
X129100800Y-116563000D01*
X129100800Y-116817000D01*
X129080800Y-116817000D01*
X129080800Y-118683720D01*
X129296870Y-118806220D01*
X129371077Y-118791260D01*
X129851826Y-118529630D01*
X130195859Y-118103941D01*
X130204438Y-118074877D01*
X130461221Y-118459180D01*
X130923319Y-118767944D01*
X131468400Y-118876368D01*
X132013482Y-118767944D01*
X132475580Y-118459180D01*
X132784344Y-117997082D01*
X132865400Y-117589588D01*
X132865400Y-115790412D01*
X132784344Y-115382918D01*
X132475579Y-114920820D01*
X132013481Y-114612056D01*
X131468400Y-114503632D01*
X130923318Y-114612056D01*
X130461220Y-114920821D01*
X130204438Y-115305123D01*
X130195859Y-115276059D01*
X129851826Y-114850370D01*
X129371077Y-114588740D01*
X129296870Y-114573780D01*
X129080800Y-114696280D01*
X128826800Y-114696280D01*
X128610730Y-114573780D01*
X128536523Y-114588740D01*
X128055774Y-114850370D01*
X127711741Y-115276059D01*
X127710945Y-115278756D01*
X127471779Y-114920820D01*
X127224600Y-114755660D01*
X127224600Y-112500201D01*
X129714803Y-110010000D01*
X151742699Y-110010000D01*
X152481460Y-110748761D01*
X152436100Y-110858270D01*
X152436100Y-111468930D01*
X152669790Y-112033107D01*
X153070283Y-112433600D01*
X152669790Y-112834093D01*
X152436100Y-113398270D01*
X152436100Y-114008930D01*
X152669790Y-114573107D01*
X153070283Y-114973600D01*
X152669790Y-115374093D01*
X152436100Y-115938270D01*
X152436100Y-116548930D01*
X152669790Y-117113107D01*
X153070283Y-117513600D01*
X152669790Y-117914093D01*
X152436100Y-118478270D01*
X152436100Y-119088930D01*
X152669790Y-119653107D01*
X153070283Y-120053600D01*
X152669790Y-120454093D01*
X152436100Y-121018270D01*
X152436100Y-121628930D01*
X152669790Y-122193107D01*
X153070283Y-122593600D01*
X152669790Y-122994093D01*
X152436100Y-123558270D01*
X152436100Y-124168930D01*
X152669790Y-124733107D01*
X153070283Y-125133600D01*
X152669790Y-125534093D01*
X152436100Y-126098270D01*
X152436100Y-126708930D01*
X152669790Y-127273107D01*
X153101593Y-127704910D01*
X153665770Y-127938600D01*
X154276430Y-127938600D01*
X154840607Y-127704910D01*
X155241100Y-127304417D01*
X155641593Y-127704910D01*
X156205770Y-127938600D01*
X156816430Y-127938600D01*
X157265000Y-127752796D01*
X157265000Y-149265000D01*
X156895304Y-149265000D01*
X156959698Y-149238327D01*
X157138327Y-149059699D01*
X157235000Y-148826310D01*
X157235000Y-147485750D01*
X157076250Y-147327000D01*
X155227000Y-147327000D01*
X155227000Y-147347000D01*
X154973000Y-147347000D01*
X154973000Y-147327000D01*
X153123750Y-147327000D01*
X152965000Y-147485750D01*
X152965000Y-148826310D01*
X153061673Y-149059699D01*
X153240302Y-149238327D01*
X153304696Y-149265000D01*
X117295304Y-149265000D01*
X117359698Y-149238327D01*
X117538327Y-149059699D01*
X117635000Y-148826310D01*
X117635000Y-147485750D01*
X117476250Y-147327000D01*
X115627000Y-147327000D01*
X115627000Y-147347000D01*
X115373000Y-147347000D01*
X115373000Y-147327000D01*
X113523750Y-147327000D01*
X113365000Y-147485750D01*
X113365000Y-148826310D01*
X113461673Y-149059699D01*
X113640302Y-149238327D01*
X113704696Y-149265000D01*
X107235000Y-149265000D01*
X107235000Y-145573690D01*
X113365000Y-145573690D01*
X113365000Y-146914250D01*
X113523750Y-147073000D01*
X115373000Y-147073000D01*
X115373000Y-145223750D01*
X115627000Y-145223750D01*
X115627000Y-147073000D01*
X117476250Y-147073000D01*
X117635000Y-146914250D01*
X117635000Y-145573690D01*
X152965000Y-145573690D01*
X152965000Y-146914250D01*
X153123750Y-147073000D01*
X154973000Y-147073000D01*
X154973000Y-145223750D01*
X155227000Y-145223750D01*
X155227000Y-147073000D01*
X157076250Y-147073000D01*
X157235000Y-146914250D01*
X157235000Y-145573690D01*
X157138327Y-145340301D01*
X156959698Y-145161673D01*
X156726309Y-145065000D01*
X155385750Y-145065000D01*
X155227000Y-145223750D01*
X154973000Y-145223750D01*
X154814250Y-145065000D01*
X153473691Y-145065000D01*
X153240302Y-145161673D01*
X153061673Y-145340301D01*
X152965000Y-145573690D01*
X117635000Y-145573690D01*
X117538327Y-145340301D01*
X117359698Y-145161673D01*
X117126309Y-145065000D01*
X115785750Y-145065000D01*
X115627000Y-145223750D01*
X115373000Y-145223750D01*
X115214250Y-145065000D01*
X113873691Y-145065000D01*
X113640302Y-145161673D01*
X113461673Y-145340301D01*
X113365000Y-145573690D01*
X107235000Y-145573690D01*
X107235000Y-129675322D01*
X113365000Y-129675322D01*
X113365000Y-130524678D01*
X113690034Y-131309380D01*
X114290620Y-131909966D01*
X115075322Y-132235000D01*
X115924678Y-132235000D01*
X116709380Y-131909966D01*
X117309966Y-131309380D01*
X117635000Y-130524678D01*
X117635000Y-129675322D01*
X152965000Y-129675322D01*
X152965000Y-130524678D01*
X153290034Y-131309380D01*
X153890620Y-131909966D01*
X154675322Y-132235000D01*
X155524678Y-132235000D01*
X156309380Y-131909966D01*
X156909966Y-131309380D01*
X157235000Y-130524678D01*
X157235000Y-129675322D01*
X156909966Y-128890620D01*
X156309380Y-128290034D01*
X155524678Y-127965000D01*
X154675322Y-127965000D01*
X153890620Y-128290034D01*
X153290034Y-128890620D01*
X152965000Y-129675322D01*
X117635000Y-129675322D01*
X117309966Y-128890620D01*
X116709380Y-128290034D01*
X115924678Y-127965000D01*
X115075322Y-127965000D01*
X114290620Y-128290034D01*
X113690034Y-128890620D01*
X113365000Y-129675322D01*
X107235000Y-129675322D01*
X107235000Y-127558317D01*
X107381593Y-127704910D01*
X107945770Y-127938600D01*
X108556430Y-127938600D01*
X109120607Y-127704910D01*
X109521100Y-127304417D01*
X109921593Y-127704910D01*
X110485770Y-127938600D01*
X111096430Y-127938600D01*
X111660607Y-127704910D01*
X112092410Y-127273107D01*
X112326100Y-126708930D01*
X112326100Y-126098270D01*
X112092410Y-125534093D01*
X111691917Y-125133600D01*
X112092410Y-124733107D01*
X112326100Y-124168930D01*
X112326100Y-123558270D01*
X112092410Y-122994093D01*
X111691917Y-122593600D01*
X112092410Y-122193107D01*
X112326100Y-121628930D01*
X112326100Y-121018270D01*
X112092410Y-120454093D01*
X112005317Y-120367000D01*
X141947600Y-120367000D01*
X141947600Y-121129000D01*
X142102541Y-121653941D01*
X142446574Y-122079630D01*
X142927323Y-122341260D01*
X143001530Y-122356220D01*
X143217600Y-122233720D01*
X143217600Y-120367000D01*
X141947600Y-120367000D01*
X112005317Y-120367000D01*
X111691917Y-120053600D01*
X112092410Y-119653107D01*
X112217546Y-119351000D01*
X141947600Y-119351000D01*
X141947600Y-120113000D01*
X143217600Y-120113000D01*
X143217600Y-118246280D01*
X143471600Y-118246280D01*
X143471600Y-120113000D01*
X143491600Y-120113000D01*
X143491600Y-120367000D01*
X143471600Y-120367000D01*
X143471600Y-122233720D01*
X143687670Y-122356220D01*
X143761877Y-122341260D01*
X144242626Y-122079630D01*
X144586659Y-121653941D01*
X144595238Y-121624877D01*
X144852021Y-122009180D01*
X145314119Y-122317944D01*
X145859200Y-122426368D01*
X146404282Y-122317944D01*
X146866380Y-122009180D01*
X147175144Y-121547082D01*
X147256200Y-121139588D01*
X147256200Y-119340412D01*
X147175144Y-118932918D01*
X146866379Y-118470820D01*
X146404281Y-118162056D01*
X145859200Y-118053632D01*
X145314118Y-118162056D01*
X144852020Y-118470821D01*
X144595238Y-118855123D01*
X144586659Y-118826059D01*
X144242626Y-118400370D01*
X143761877Y-118138740D01*
X143687670Y-118123780D01*
X143471600Y-118246280D01*
X143217600Y-118246280D01*
X143001530Y-118123780D01*
X142927323Y-118138740D01*
X142446574Y-118400370D01*
X142102541Y-118826059D01*
X141947600Y-119351000D01*
X112217546Y-119351000D01*
X112326100Y-119088930D01*
X112326100Y-118478270D01*
X112092410Y-117914093D01*
X111691917Y-117513600D01*
X112092410Y-117113107D01*
X112326100Y-116548930D01*
X112326100Y-115938270D01*
X112092410Y-115374093D01*
X111691917Y-114973600D01*
X112092410Y-114573107D01*
X112326100Y-114008930D01*
X112326100Y-113398270D01*
X112092410Y-112834093D01*
X111691917Y-112433600D01*
X112092410Y-112033107D01*
X112326100Y-111468930D01*
X112326100Y-110858270D01*
X112092410Y-110294093D01*
X111691917Y-109893600D01*
X112092410Y-109493107D01*
X112326100Y-108928930D01*
X112326100Y-108318270D01*
X112092410Y-107754093D01*
X111691917Y-107353600D01*
X112092410Y-106953107D01*
X112326100Y-106388930D01*
X112326100Y-105778270D01*
X112092410Y-105214093D01*
X111691917Y-104813600D01*
X112092410Y-104413107D01*
X112326100Y-103848930D01*
X112326100Y-103238270D01*
X112092410Y-102674093D01*
X111691917Y-102273600D01*
X112092410Y-101873107D01*
X112326100Y-101308930D01*
X112326100Y-100698270D01*
X112092410Y-100134093D01*
X111691917Y-99733600D01*
X112092410Y-99333107D01*
X112326100Y-98768930D01*
X112326100Y-98158270D01*
X112092410Y-97594093D01*
X111691917Y-97193600D01*
X112092410Y-96793107D01*
X112326100Y-96228930D01*
X112326100Y-95618270D01*
X112092410Y-95054093D01*
X111691917Y-94653600D01*
X112092410Y-94253107D01*
X112326100Y-93688930D01*
X112326100Y-93078270D01*
X112092410Y-92514093D01*
X111691917Y-92113600D01*
X112092410Y-91713107D01*
X112326100Y-91148930D01*
X112326100Y-90538270D01*
X112092410Y-89974093D01*
X111660607Y-89542290D01*
X111096430Y-89308600D01*
X110485770Y-89308600D01*
X109921593Y-89542290D01*
X109752375Y-89711508D01*
X109749257Y-89695835D01*
X109608909Y-89485791D01*
X109398865Y-89345443D01*
X109151100Y-89296160D01*
X107351100Y-89296160D01*
X107235000Y-89319253D01*
X107235000Y-86918317D01*
X107381593Y-87064910D01*
X107945770Y-87298600D01*
X108556430Y-87298600D01*
X109120607Y-87064910D01*
X109521100Y-86664417D01*
X109921593Y-87064910D01*
X110485770Y-87298600D01*
X111096430Y-87298600D01*
X111357616Y-87190413D01*
X121193800Y-87190413D01*
X121193800Y-88989588D01*
X121274857Y-89397082D01*
X121583621Y-89859180D01*
X122045719Y-90167944D01*
X122590800Y-90276368D01*
X123135882Y-90167944D01*
X123597980Y-89859180D01*
X123848100Y-89484848D01*
X124098221Y-89859180D01*
X124560319Y-90167944D01*
X125105400Y-90276368D01*
X125650482Y-90167944D01*
X126112580Y-89859180D01*
X126350001Y-89503855D01*
X126587421Y-89859180D01*
X127049519Y-90167944D01*
X127594600Y-90276368D01*
X128139682Y-90167944D01*
X128601780Y-89859180D01*
X128851901Y-89484848D01*
X129102021Y-89859180D01*
X129564119Y-90167944D01*
X130109200Y-90276368D01*
X130654282Y-90167944D01*
X131116380Y-89859180D01*
X131425144Y-89397082D01*
X131506200Y-88989588D01*
X131506200Y-87190412D01*
X131425144Y-86782918D01*
X131116379Y-86320820D01*
X130654281Y-86012056D01*
X130109200Y-85903632D01*
X129564118Y-86012056D01*
X129102020Y-86320821D01*
X128851900Y-86695152D01*
X128601779Y-86320820D01*
X128139681Y-86012056D01*
X127594600Y-85903632D01*
X127049518Y-86012056D01*
X126587420Y-86320821D01*
X126350000Y-86676145D01*
X126112579Y-86320820D01*
X125650481Y-86012056D01*
X125105400Y-85903632D01*
X125086138Y-85907463D01*
X128333602Y-82660000D01*
X136346289Y-82660000D01*
X136463720Y-82777431D01*
X136844126Y-82935000D01*
X137255874Y-82935000D01*
X137636280Y-82777431D01*
X137927431Y-82486280D01*
X138085000Y-82105874D01*
X138085000Y-81694126D01*
X137927431Y-81313720D01*
X137636280Y-81022569D01*
X137255874Y-80865000D01*
X136844126Y-80865000D01*
X136463720Y-81022569D01*
X136346289Y-81140000D01*
X128093646Y-81140000D01*
X128018799Y-81125112D01*
X127943952Y-81140000D01*
X127943948Y-81140000D01*
X127722263Y-81184096D01*
X127470871Y-81352071D01*
X127428471Y-81415527D01*
X122882370Y-85961629D01*
X122590800Y-85903632D01*
X122045718Y-86012056D01*
X121583620Y-86320821D01*
X121274856Y-86782919D01*
X121193800Y-87190413D01*
X111357616Y-87190413D01*
X111660607Y-87064910D01*
X112092410Y-86633107D01*
X112326100Y-86068930D01*
X112326100Y-85458270D01*
X112092410Y-84894093D01*
X111691917Y-84493600D01*
X112092410Y-84093107D01*
X112326100Y-83528930D01*
X112326100Y-82918270D01*
X112092410Y-82354093D01*
X111691917Y-81953600D01*
X112092410Y-81553107D01*
X112326100Y-80988930D01*
X112326100Y-80378270D01*
X112092410Y-79814093D01*
X111691917Y-79413600D01*
X112092410Y-79013107D01*
X112326100Y-78448930D01*
X112326100Y-77838270D01*
X112092410Y-77274093D01*
X111691917Y-76873600D01*
X112092410Y-76473107D01*
X112326100Y-75908930D01*
X112326100Y-75298270D01*
X112092410Y-74734093D01*
X111691917Y-74333600D01*
X112092410Y-73933107D01*
X112326100Y-73368930D01*
X112326100Y-72977000D01*
X115677000Y-72977000D01*
X115677000Y-73739000D01*
X115831941Y-74263941D01*
X116175974Y-74689630D01*
X116656723Y-74951260D01*
X116730930Y-74966220D01*
X116947000Y-74843720D01*
X116947000Y-72977000D01*
X115677000Y-72977000D01*
X112326100Y-72977000D01*
X112326100Y-72758270D01*
X112092410Y-72194093D01*
X111859317Y-71961000D01*
X115677000Y-71961000D01*
X115677000Y-72723000D01*
X116947000Y-72723000D01*
X116947000Y-70856280D01*
X117201000Y-70856280D01*
X117201000Y-72723000D01*
X117221000Y-72723000D01*
X117221000Y-72977000D01*
X117201000Y-72977000D01*
X117201000Y-74843720D01*
X117417070Y-74966220D01*
X117491277Y-74951260D01*
X117972026Y-74689630D01*
X118316059Y-74263941D01*
X118324638Y-74234877D01*
X118581421Y-74619180D01*
X119043519Y-74927944D01*
X119588600Y-75036368D01*
X120133682Y-74927944D01*
X120595780Y-74619180D01*
X120833201Y-74263855D01*
X121070621Y-74619180D01*
X121532719Y-74927944D01*
X122077800Y-75036368D01*
X122622882Y-74927944D01*
X123084980Y-74619180D01*
X123335101Y-74244848D01*
X123585221Y-74619180D01*
X124047319Y-74927944D01*
X124592400Y-75036368D01*
X125137482Y-74927944D01*
X125599580Y-74619180D01*
X125837001Y-74263855D01*
X126074421Y-74619180D01*
X126536519Y-74927944D01*
X127081600Y-75036368D01*
X127626682Y-74927944D01*
X128088780Y-74619180D01*
X128338901Y-74244848D01*
X128589021Y-74619180D01*
X129051119Y-74927944D01*
X129596200Y-75036368D01*
X130141282Y-74927944D01*
X130603380Y-74619180D01*
X130840801Y-74263855D01*
X131078221Y-74619180D01*
X131540319Y-74927944D01*
X132085400Y-75036368D01*
X132630482Y-74927944D01*
X133092580Y-74619180D01*
X133342701Y-74244848D01*
X133592821Y-74619180D01*
X134054919Y-74927944D01*
X134600000Y-75036368D01*
X135145082Y-74927944D01*
X135607180Y-74619180D01*
X135915944Y-74157082D01*
X135997000Y-73749588D01*
X135997000Y-71950412D01*
X135915944Y-71542918D01*
X135607179Y-71080820D01*
X135145081Y-70772056D01*
X134600000Y-70663632D01*
X134054918Y-70772056D01*
X133592820Y-71080821D01*
X133342700Y-71455152D01*
X133092579Y-71080820D01*
X132630481Y-70772056D01*
X132085400Y-70663632D01*
X131540318Y-70772056D01*
X131078220Y-71080821D01*
X130840800Y-71436145D01*
X130603379Y-71080820D01*
X130141281Y-70772056D01*
X129596200Y-70663632D01*
X129051118Y-70772056D01*
X128589020Y-71080821D01*
X128338900Y-71455152D01*
X128088779Y-71080820D01*
X127626681Y-70772056D01*
X127081600Y-70663632D01*
X126536518Y-70772056D01*
X126074420Y-71080821D01*
X125837000Y-71436145D01*
X125599579Y-71080820D01*
X125137481Y-70772056D01*
X124592400Y-70663632D01*
X124047318Y-70772056D01*
X123585220Y-71080821D01*
X123335100Y-71455152D01*
X123084979Y-71080820D01*
X122622881Y-70772056D01*
X122077800Y-70663632D01*
X121532718Y-70772056D01*
X121070620Y-71080821D01*
X120833200Y-71436145D01*
X120595779Y-71080820D01*
X120133681Y-70772056D01*
X119588600Y-70663632D01*
X119043518Y-70772056D01*
X118581420Y-71080821D01*
X118324638Y-71465123D01*
X118316059Y-71436059D01*
X117972026Y-71010370D01*
X117491277Y-70748740D01*
X117417070Y-70733780D01*
X117201000Y-70856280D01*
X116947000Y-70856280D01*
X116730930Y-70733780D01*
X116656723Y-70748740D01*
X116175974Y-71010370D01*
X115831941Y-71436059D01*
X115677000Y-71961000D01*
X111859317Y-71961000D01*
X111691917Y-71793600D01*
X112092410Y-71393107D01*
X112326100Y-70828930D01*
X112326100Y-70218270D01*
X112092410Y-69654093D01*
X111691917Y-69253600D01*
X112092410Y-68853107D01*
X112326100Y-68288930D01*
X112326100Y-67678270D01*
X112092410Y-67114093D01*
X111660607Y-66682290D01*
X111096430Y-66448600D01*
X110485770Y-66448600D01*
X109921593Y-66682290D01*
X109752375Y-66851508D01*
X109749257Y-66835835D01*
X109608909Y-66625791D01*
X109398865Y-66485443D01*
X109151100Y-66436160D01*
X107351100Y-66436160D01*
X107235000Y-66459253D01*
X107235000Y-58235000D01*
X152423660Y-58235000D01*
X152423660Y-59739600D01*
G36*
X109890283Y-79413600D02*
X109489790Y-79814093D01*
X109256100Y-80378270D01*
X109256100Y-80988930D01*
X109489790Y-81553107D01*
X109890283Y-81953600D01*
X109489790Y-82354093D01*
X109256100Y-82918270D01*
X109256100Y-83528930D01*
X109489790Y-84093107D01*
X109890283Y-84493600D01*
X109521100Y-84862783D01*
X109120607Y-84462290D01*
X108556430Y-84228600D01*
X107945770Y-84228600D01*
X107381593Y-84462290D01*
X107235000Y-84608883D01*
X107235000Y-79298317D01*
X107381593Y-79444910D01*
X107945770Y-79678600D01*
X108556430Y-79678600D01*
X109120607Y-79444910D01*
X109521100Y-79044417D01*
X109890283Y-79413600D01*
X109890283Y-79413600D01*
G37*
X109890283Y-79413600D02*
X109489790Y-79814093D01*
X109256100Y-80378270D01*
X109256100Y-80988930D01*
X109489790Y-81553107D01*
X109890283Y-81953600D01*
X109489790Y-82354093D01*
X109256100Y-82918270D01*
X109256100Y-83528930D01*
X109489790Y-84093107D01*
X109890283Y-84493600D01*
X109521100Y-84862783D01*
X109120607Y-84462290D01*
X108556430Y-84228600D01*
X107945770Y-84228600D01*
X107381593Y-84462290D01*
X107235000Y-84608883D01*
X107235000Y-79298317D01*
X107381593Y-79444910D01*
X107945770Y-79678600D01*
X108556430Y-79678600D01*
X109120607Y-79444910D01*
X109521100Y-79044417D01*
X109890283Y-79413600D01*
M02*
