G04 #@! TF.GenerationSoftware,KiCad,Pcbnew,(5.0.0-rc2-dev-406-g05dae9627)*
G04 #@! TF.CreationDate,2018-06-28T11:49:25+02:00*
G04 #@! TF.ProjectId,Nucleo-F746,4E75636C656F2D463734362E6B696361,rev?*
G04 #@! TF.SameCoordinates,Original*
G04 #@! TF.FileFunction,Legend,Top*
G04 #@! TF.FilePolarity,Positive*
%FSLAX46Y46*%
G04 Gerber Fmt 4.6, Leading zero omitted, Abs format (unit mm)*
G04 Created by KiCad (PCBNEW (5.0.0-rc2-dev-406-g05dae9627)) date 06/28/18 11:49:25*
%MOMM*%
%LPD*%
G01*
G04 APERTURE LIST*
%ADD10C,0.150000*%
%ADD11C,0.120000*%
%ADD12C,0.100000*%
%ADD13C,0.152400*%
%ADD14C,0.050800*%
%ADD15C,0.250000*%
%ADD16C,0.127000*%
G04 APERTURE END LIST*
D10*
X148657142Y-129442857D02*
X148885714Y-129442857D01*
X149000000Y-129500000D01*
X149114285Y-129614285D01*
X149171428Y-129842857D01*
X149171428Y-130242857D01*
X149114285Y-130471428D01*
X149000000Y-130585714D01*
X148885714Y-130642857D01*
X148657142Y-130642857D01*
X148542857Y-130585714D01*
X148428571Y-130471428D01*
X148371428Y-130242857D01*
X148371428Y-129842857D01*
X148428571Y-129614285D01*
X148542857Y-129500000D01*
X148657142Y-129442857D01*
X149685714Y-129442857D02*
X149685714Y-130414285D01*
X149742857Y-130528571D01*
X149800000Y-130585714D01*
X149914285Y-130642857D01*
X150142857Y-130642857D01*
X150257142Y-130585714D01*
X150314285Y-130528571D01*
X150371428Y-130414285D01*
X150371428Y-129442857D01*
X150771428Y-129442857D02*
X151457142Y-129442857D01*
X151114285Y-130642857D02*
X151114285Y-129442857D01*
X151857142Y-130185714D02*
X152771428Y-130185714D01*
X152314285Y-130642857D02*
X152314285Y-129728571D01*
X148957142Y-146542857D02*
X149185714Y-146542857D01*
X149300000Y-146600000D01*
X149414285Y-146714285D01*
X149471428Y-146942857D01*
X149471428Y-147342857D01*
X149414285Y-147571428D01*
X149300000Y-147685714D01*
X149185714Y-147742857D01*
X148957142Y-147742857D01*
X148842857Y-147685714D01*
X148728571Y-147571428D01*
X148671428Y-147342857D01*
X148671428Y-146942857D01*
X148728571Y-146714285D01*
X148842857Y-146600000D01*
X148957142Y-146542857D01*
X149985714Y-146542857D02*
X149985714Y-147514285D01*
X150042857Y-147628571D01*
X150100000Y-147685714D01*
X150214285Y-147742857D01*
X150442857Y-147742857D01*
X150557142Y-147685714D01*
X150614285Y-147628571D01*
X150671428Y-147514285D01*
X150671428Y-146542857D01*
X151071428Y-146542857D02*
X151757142Y-146542857D01*
X151414285Y-147742857D02*
X151414285Y-146542857D01*
X152157142Y-147285714D02*
X153071428Y-147285714D01*
X118228571Y-147842857D02*
X118228571Y-146642857D01*
X118800000Y-147842857D02*
X118800000Y-146642857D01*
X119485714Y-147842857D01*
X119485714Y-146642857D01*
X120057142Y-147385714D02*
X120971428Y-147385714D01*
X117828571Y-130642857D02*
X117828571Y-129442857D01*
X118400000Y-130642857D02*
X118400000Y-129442857D01*
X119085714Y-130642857D01*
X119085714Y-129442857D01*
X119657142Y-130185714D02*
X120571428Y-130185714D01*
X120114285Y-130642857D02*
X120114285Y-129728571D01*
X109028571Y-61667857D02*
X109028571Y-60467857D01*
X109314285Y-60467857D01*
X109485714Y-60525000D01*
X109599999Y-60639285D01*
X109657142Y-60753571D01*
X109714285Y-60982142D01*
X109714285Y-61153571D01*
X109657142Y-61382142D01*
X109599999Y-61496428D01*
X109485714Y-61610714D01*
X109314285Y-61667857D01*
X109028571Y-61667857D01*
X110399999Y-61667857D02*
X110285714Y-61610714D01*
X110228571Y-61553571D01*
X110171428Y-61439285D01*
X110171428Y-61096428D01*
X110228571Y-60982142D01*
X110285714Y-60925000D01*
X110399999Y-60867857D01*
X110571428Y-60867857D01*
X110685714Y-60925000D01*
X110742857Y-60982142D01*
X110799999Y-61096428D01*
X110799999Y-61439285D01*
X110742857Y-61553571D01*
X110685714Y-61610714D01*
X110571428Y-61667857D01*
X110399999Y-61667857D01*
X111314285Y-60867857D02*
X111314285Y-61667857D01*
X111314285Y-60982142D02*
X111371428Y-60925000D01*
X111485714Y-60867857D01*
X111657142Y-60867857D01*
X111771428Y-60925000D01*
X111828571Y-61039285D01*
X111828571Y-61667857D01*
X112399999Y-60867857D02*
X112399999Y-61667857D01*
X112399999Y-60982142D02*
X112457142Y-60925000D01*
X112571428Y-60867857D01*
X112742857Y-60867857D01*
X112857142Y-60925000D01*
X112914285Y-61039285D01*
X112914285Y-61667857D01*
X113942857Y-61610714D02*
X113828571Y-61667857D01*
X113599999Y-61667857D01*
X113485714Y-61610714D01*
X113428571Y-61496428D01*
X113428571Y-61039285D01*
X113485714Y-60925000D01*
X113599999Y-60867857D01*
X113828571Y-60867857D01*
X113942857Y-60925000D01*
X113999999Y-61039285D01*
X113999999Y-61153571D01*
X113428571Y-61267857D01*
X114514285Y-61667857D02*
X114514285Y-60867857D01*
X114514285Y-61096428D02*
X114571428Y-60982142D01*
X114628571Y-60925000D01*
X114742857Y-60867857D01*
X114857142Y-60867857D01*
X115257142Y-61210714D02*
X116171428Y-61210714D01*
X117314285Y-61667857D02*
X116742857Y-61667857D01*
X116742857Y-60467857D01*
X118171428Y-61610714D02*
X118057142Y-61667857D01*
X117828571Y-61667857D01*
X117714285Y-61610714D01*
X117657142Y-61496428D01*
X117657142Y-61039285D01*
X117714285Y-60925000D01*
X117828571Y-60867857D01*
X118057142Y-60867857D01*
X118171428Y-60925000D01*
X118228571Y-61039285D01*
X118228571Y-61153571D01*
X117657142Y-61267857D01*
X119257142Y-60867857D02*
X119257142Y-61667857D01*
X118742857Y-60867857D02*
X118742857Y-61496428D01*
X118799999Y-61610714D01*
X118914285Y-61667857D01*
X119085714Y-61667857D01*
X119199999Y-61610714D01*
X119257142Y-61553571D01*
X119828571Y-60867857D02*
X119828571Y-62067857D01*
X119828571Y-60925000D02*
X119942857Y-60867857D01*
X120171428Y-60867857D01*
X120285714Y-60925000D01*
X120342857Y-60982142D01*
X120399999Y-61096428D01*
X120399999Y-61439285D01*
X120342857Y-61553571D01*
X120285714Y-61610714D01*
X120171428Y-61667857D01*
X119942857Y-61667857D01*
X119828571Y-61610714D01*
X121085714Y-61667857D02*
X120971428Y-61610714D01*
X120914285Y-61553571D01*
X120857142Y-61439285D01*
X120857142Y-61096428D01*
X120914285Y-60982142D01*
X120971428Y-60925000D01*
X121085714Y-60867857D01*
X121257142Y-60867857D01*
X121371428Y-60925000D01*
X121428571Y-60982142D01*
X121485714Y-61096428D01*
X121485714Y-61439285D01*
X121428571Y-61553571D01*
X121371428Y-61610714D01*
X121257142Y-61667857D01*
X121085714Y-61667857D01*
X122171428Y-61667857D02*
X122057142Y-61610714D01*
X121999999Y-61496428D01*
X121999999Y-60467857D01*
X122514285Y-60867857D02*
X123142857Y-60867857D01*
X122514285Y-61667857D01*
X123142857Y-61667857D01*
X124857142Y-62125000D02*
X124799999Y-62067857D01*
X124685714Y-61896428D01*
X124628571Y-61782142D01*
X124571428Y-61610714D01*
X124514285Y-61325000D01*
X124514285Y-61096428D01*
X124571428Y-60810714D01*
X124628571Y-60639285D01*
X124685714Y-60525000D01*
X124799999Y-60353571D01*
X124857142Y-60296428D01*
X125714285Y-61039285D02*
X125885714Y-61096428D01*
X125942857Y-61153571D01*
X125999999Y-61267857D01*
X125999999Y-61439285D01*
X125942857Y-61553571D01*
X125885714Y-61610714D01*
X125771428Y-61667857D01*
X125314285Y-61667857D01*
X125314285Y-60467857D01*
X125714285Y-60467857D01*
X125828571Y-60525000D01*
X125885714Y-60582142D01*
X125942857Y-60696428D01*
X125942857Y-60810714D01*
X125885714Y-60925000D01*
X125828571Y-60982142D01*
X125714285Y-61039285D01*
X125314285Y-61039285D01*
X126971428Y-61610714D02*
X126857142Y-61667857D01*
X126628571Y-61667857D01*
X126514285Y-61610714D01*
X126457142Y-61496428D01*
X126457142Y-61039285D01*
X126514285Y-60925000D01*
X126628571Y-60867857D01*
X126857142Y-60867857D01*
X126971428Y-60925000D01*
X127028571Y-61039285D01*
X127028571Y-61153571D01*
X126457142Y-61267857D01*
X127485714Y-61610714D02*
X127599999Y-61667857D01*
X127828571Y-61667857D01*
X127942857Y-61610714D01*
X127999999Y-61496428D01*
X127999999Y-61439285D01*
X127942857Y-61325000D01*
X127828571Y-61267857D01*
X127657142Y-61267857D01*
X127542857Y-61210714D01*
X127485714Y-61096428D01*
X127485714Y-61039285D01*
X127542857Y-60925000D01*
X127657142Y-60867857D01*
X127828571Y-60867857D01*
X127942857Y-60925000D01*
X128342857Y-60867857D02*
X128799999Y-60867857D01*
X128514285Y-60467857D02*
X128514285Y-61496428D01*
X128571428Y-61610714D01*
X128685714Y-61667857D01*
X128799999Y-61667857D01*
X129657142Y-61610714D02*
X129542857Y-61667857D01*
X129314285Y-61667857D01*
X129200000Y-61610714D01*
X129142857Y-61496428D01*
X129142857Y-61039285D01*
X129200000Y-60925000D01*
X129314285Y-60867857D01*
X129542857Y-60867857D01*
X129657142Y-60925000D01*
X129714285Y-61039285D01*
X129714285Y-61153571D01*
X129142857Y-61267857D01*
X130400000Y-61667857D02*
X130285714Y-61610714D01*
X130228571Y-61496428D01*
X130228571Y-60467857D01*
X131028571Y-61667857D02*
X130914285Y-61610714D01*
X130857142Y-61496428D01*
X130857142Y-60467857D01*
X132000000Y-61667857D02*
X132000000Y-60467857D01*
X132000000Y-61610714D02*
X131885714Y-61667857D01*
X131657142Y-61667857D01*
X131542857Y-61610714D01*
X131485714Y-61553571D01*
X131428571Y-61439285D01*
X131428571Y-61096428D01*
X131485714Y-60982142D01*
X131542857Y-60925000D01*
X131657142Y-60867857D01*
X131885714Y-60867857D01*
X132000000Y-60925000D01*
X133085714Y-61667857D02*
X133085714Y-61039285D01*
X133028571Y-60925000D01*
X132914285Y-60867857D01*
X132685714Y-60867857D01*
X132571428Y-60925000D01*
X133085714Y-61610714D02*
X132971428Y-61667857D01*
X132685714Y-61667857D01*
X132571428Y-61610714D01*
X132514285Y-61496428D01*
X132514285Y-61382142D01*
X132571428Y-61267857D01*
X132685714Y-61210714D01*
X132971428Y-61210714D01*
X133085714Y-61153571D01*
X133485714Y-60867857D02*
X133942857Y-60867857D01*
X133657142Y-60467857D02*
X133657142Y-61496428D01*
X133714285Y-61610714D01*
X133828571Y-61667857D01*
X133942857Y-61667857D01*
X134857142Y-60867857D02*
X134857142Y-61667857D01*
X134342857Y-60867857D02*
X134342857Y-61496428D01*
X134400000Y-61610714D01*
X134514285Y-61667857D01*
X134685714Y-61667857D01*
X134800000Y-61610714D01*
X134857142Y-61553571D01*
X135428571Y-61667857D02*
X135428571Y-60867857D01*
X135428571Y-60982142D02*
X135485714Y-60925000D01*
X135600000Y-60867857D01*
X135771428Y-60867857D01*
X135885714Y-60925000D01*
X135942857Y-61039285D01*
X135942857Y-61667857D01*
X135942857Y-61039285D02*
X136000000Y-60925000D01*
X136114285Y-60867857D01*
X136285714Y-60867857D01*
X136400000Y-60925000D01*
X136457142Y-61039285D01*
X136457142Y-61667857D01*
X137028571Y-61553571D02*
X137085714Y-61610714D01*
X137028571Y-61667857D01*
X136971428Y-61610714D01*
X137028571Y-61553571D01*
X137028571Y-61667857D01*
X137028571Y-60925000D02*
X137085714Y-60982142D01*
X137028571Y-61039285D01*
X136971428Y-60982142D01*
X137028571Y-60925000D01*
X137028571Y-61039285D01*
X138742857Y-60467857D02*
X138857142Y-60467857D01*
X138971428Y-60525000D01*
X139028571Y-60582142D01*
X139085714Y-60696428D01*
X139142857Y-60925000D01*
X139142857Y-61210714D01*
X139085714Y-61439285D01*
X139028571Y-61553571D01*
X138971428Y-61610714D01*
X138857142Y-61667857D01*
X138742857Y-61667857D01*
X138628571Y-61610714D01*
X138571428Y-61553571D01*
X138514285Y-61439285D01*
X138457142Y-61210714D01*
X138457142Y-60925000D01*
X138514285Y-60696428D01*
X138571428Y-60582142D01*
X138628571Y-60525000D01*
X138742857Y-60467857D01*
X139542857Y-60467857D02*
X140285714Y-60467857D01*
X139885714Y-60925000D01*
X140057142Y-60925000D01*
X140171428Y-60982142D01*
X140228571Y-61039285D01*
X140285714Y-61153571D01*
X140285714Y-61439285D01*
X140228571Y-61553571D01*
X140171428Y-61610714D01*
X140057142Y-61667857D01*
X139714285Y-61667857D01*
X139600000Y-61610714D01*
X139542857Y-61553571D01*
X140800000Y-61553571D02*
X140857142Y-61610714D01*
X140800000Y-61667857D01*
X140742857Y-61610714D01*
X140800000Y-61553571D01*
X140800000Y-61667857D01*
X141314285Y-60582142D02*
X141371428Y-60525000D01*
X141485714Y-60467857D01*
X141771428Y-60467857D01*
X141885714Y-60525000D01*
X141942857Y-60582142D01*
X142000000Y-60696428D01*
X142000000Y-60810714D01*
X141942857Y-60982142D01*
X141257142Y-61667857D01*
X142000000Y-61667857D01*
X142742857Y-60467857D02*
X142857142Y-60467857D01*
X142971428Y-60525000D01*
X143028571Y-60582142D01*
X143085714Y-60696428D01*
X143142857Y-60925000D01*
X143142857Y-61210714D01*
X143085714Y-61439285D01*
X143028571Y-61553571D01*
X142971428Y-61610714D01*
X142857142Y-61667857D01*
X142742857Y-61667857D01*
X142628571Y-61610714D01*
X142571428Y-61553571D01*
X142514285Y-61439285D01*
X142457142Y-61210714D01*
X142457142Y-60925000D01*
X142514285Y-60696428D01*
X142571428Y-60582142D01*
X142628571Y-60525000D01*
X142742857Y-60467857D01*
X144285714Y-61667857D02*
X143600000Y-61667857D01*
X143942857Y-61667857D02*
X143942857Y-60467857D01*
X143828571Y-60639285D01*
X143714285Y-60753571D01*
X143600000Y-60810714D01*
X144971428Y-60982142D02*
X144857142Y-60925000D01*
X144800000Y-60867857D01*
X144742857Y-60753571D01*
X144742857Y-60696428D01*
X144800000Y-60582142D01*
X144857142Y-60525000D01*
X144971428Y-60467857D01*
X145200000Y-60467857D01*
X145314285Y-60525000D01*
X145371428Y-60582142D01*
X145428571Y-60696428D01*
X145428571Y-60753571D01*
X145371428Y-60867857D01*
X145314285Y-60925000D01*
X145200000Y-60982142D01*
X144971428Y-60982142D01*
X144857142Y-61039285D01*
X144800000Y-61096428D01*
X144742857Y-61210714D01*
X144742857Y-61439285D01*
X144800000Y-61553571D01*
X144857142Y-61610714D01*
X144971428Y-61667857D01*
X145200000Y-61667857D01*
X145314285Y-61610714D01*
X145371428Y-61553571D01*
X145428571Y-61439285D01*
X145428571Y-61210714D01*
X145371428Y-61096428D01*
X145314285Y-61039285D01*
X145200000Y-60982142D01*
X145828571Y-62125000D02*
X145885714Y-62067857D01*
X146000000Y-61896428D01*
X146057142Y-61782142D01*
X146114285Y-61610714D01*
X146171428Y-61325000D01*
X146171428Y-61096428D01*
X146114285Y-60810714D01*
X146057142Y-60639285D01*
X146000000Y-60525000D01*
X145885714Y-60353571D01*
X145828571Y-60296428D01*
X110399999Y-63617857D02*
X110399999Y-62417857D01*
X110857142Y-62417857D01*
X110971428Y-62475000D01*
X111028571Y-62532142D01*
X111085714Y-62646428D01*
X111085714Y-62817857D01*
X111028571Y-62932142D01*
X110971428Y-62989285D01*
X110857142Y-63046428D01*
X110399999Y-63046428D01*
X112057142Y-63560714D02*
X111942857Y-63617857D01*
X111714285Y-63617857D01*
X111599999Y-63560714D01*
X111542857Y-63446428D01*
X111542857Y-62989285D01*
X111599999Y-62875000D01*
X111714285Y-62817857D01*
X111942857Y-62817857D01*
X112057142Y-62875000D01*
X112114285Y-62989285D01*
X112114285Y-63103571D01*
X111542857Y-63217857D01*
X112628571Y-62817857D02*
X112628571Y-63617857D01*
X112628571Y-62932142D02*
X112685714Y-62875000D01*
X112799999Y-62817857D01*
X112971428Y-62817857D01*
X113085714Y-62875000D01*
X113142857Y-62989285D01*
X113142857Y-63617857D01*
X114228571Y-63617857D02*
X114228571Y-62417857D01*
X114228571Y-63560714D02*
X114114285Y-63617857D01*
X113885714Y-63617857D01*
X113771428Y-63560714D01*
X113714285Y-63503571D01*
X113657142Y-63389285D01*
X113657142Y-63046428D01*
X113714285Y-62932142D01*
X113771428Y-62875000D01*
X113885714Y-62817857D01*
X114114285Y-62817857D01*
X114228571Y-62875000D01*
X115257142Y-63560714D02*
X115142857Y-63617857D01*
X114914285Y-63617857D01*
X114799999Y-63560714D01*
X114742857Y-63446428D01*
X114742857Y-62989285D01*
X114799999Y-62875000D01*
X114914285Y-62817857D01*
X115142857Y-62817857D01*
X115257142Y-62875000D01*
X115314285Y-62989285D01*
X115314285Y-63103571D01*
X114742857Y-63217857D01*
X115999999Y-63617857D02*
X115885714Y-63560714D01*
X115828571Y-63446428D01*
X115828571Y-62417857D01*
X116399999Y-63560714D02*
X116571428Y-63617857D01*
X116857142Y-63617857D01*
X116971428Y-63560714D01*
X117028571Y-63503571D01*
X117085714Y-63389285D01*
X117085714Y-63275000D01*
X117028571Y-63160714D01*
X116971428Y-63103571D01*
X116857142Y-63046428D01*
X116628571Y-62989285D01*
X116514285Y-62932142D01*
X116457142Y-62875000D01*
X116399999Y-62760714D01*
X116399999Y-62646428D01*
X116457142Y-62532142D01*
X116514285Y-62475000D01*
X116628571Y-62417857D01*
X116914285Y-62417857D01*
X117085714Y-62475000D01*
X117599999Y-63617857D02*
X117599999Y-62417857D01*
X118114285Y-63617857D02*
X118114285Y-62989285D01*
X118057142Y-62875000D01*
X117942857Y-62817857D01*
X117771428Y-62817857D01*
X117657142Y-62875000D01*
X117599999Y-62932142D01*
X118685714Y-63617857D02*
X118685714Y-62817857D01*
X118685714Y-62417857D02*
X118628571Y-62475000D01*
X118685714Y-62532142D01*
X118742857Y-62475000D01*
X118685714Y-62417857D01*
X118685714Y-62532142D01*
X119714285Y-63560714D02*
X119599999Y-63617857D01*
X119371428Y-63617857D01*
X119257142Y-63560714D01*
X119199999Y-63446428D01*
X119199999Y-62989285D01*
X119257142Y-62875000D01*
X119371428Y-62817857D01*
X119599999Y-62817857D01*
X119714285Y-62875000D01*
X119771428Y-62989285D01*
X119771428Y-63103571D01*
X119199999Y-63217857D01*
X120457142Y-63617857D02*
X120342857Y-63560714D01*
X120285714Y-63446428D01*
X120285714Y-62417857D01*
X121428571Y-63617857D02*
X121428571Y-62417857D01*
X121428571Y-63560714D02*
X121314285Y-63617857D01*
X121085714Y-63617857D01*
X120971428Y-63560714D01*
X120914285Y-63503571D01*
X120857142Y-63389285D01*
X120857142Y-63046428D01*
X120914285Y-62932142D01*
X120971428Y-62875000D01*
X121085714Y-62817857D01*
X121314285Y-62817857D01*
X121428571Y-62875000D01*
X122914285Y-63160714D02*
X123828571Y-63160714D01*
X125314285Y-63617857D02*
X125314285Y-62417857D01*
X125771428Y-62417857D01*
X125885714Y-62475000D01*
X125942857Y-62532142D01*
X125999999Y-62646428D01*
X125999999Y-62817857D01*
X125942857Y-62932142D01*
X125885714Y-62989285D01*
X125771428Y-63046428D01*
X125314285Y-63046428D01*
X126971428Y-63560714D02*
X126857142Y-63617857D01*
X126628571Y-63617857D01*
X126514285Y-63560714D01*
X126457142Y-63446428D01*
X126457142Y-62989285D01*
X126514285Y-62875000D01*
X126628571Y-62817857D01*
X126857142Y-62817857D01*
X126971428Y-62875000D01*
X127028571Y-62989285D01*
X127028571Y-63103571D01*
X126457142Y-63217857D01*
X127542857Y-62817857D02*
X127542857Y-63617857D01*
X127542857Y-62932142D02*
X127599999Y-62875000D01*
X127714285Y-62817857D01*
X127885714Y-62817857D01*
X127999999Y-62875000D01*
X128057142Y-62989285D01*
X128057142Y-63617857D01*
X129142857Y-63617857D02*
X129142857Y-62417857D01*
X129142857Y-63560714D02*
X129028571Y-63617857D01*
X128799999Y-63617857D01*
X128685714Y-63560714D01*
X128628571Y-63503571D01*
X128571428Y-63389285D01*
X128571428Y-63046428D01*
X128628571Y-62932142D01*
X128685714Y-62875000D01*
X128799999Y-62817857D01*
X129028571Y-62817857D01*
X129142857Y-62875000D01*
X130171428Y-63560714D02*
X130057142Y-63617857D01*
X129828571Y-63617857D01*
X129714285Y-63560714D01*
X129657142Y-63446428D01*
X129657142Y-62989285D01*
X129714285Y-62875000D01*
X129828571Y-62817857D01*
X130057142Y-62817857D01*
X130171428Y-62875000D01*
X130228571Y-62989285D01*
X130228571Y-63103571D01*
X129657142Y-63217857D01*
X130914285Y-63617857D02*
X130799999Y-63560714D01*
X130742857Y-63446428D01*
X130742857Y-62417857D01*
X131314285Y-63560714D02*
X131485714Y-63617857D01*
X131771428Y-63617857D01*
X131885714Y-63560714D01*
X131942857Y-63503571D01*
X131999999Y-63389285D01*
X131999999Y-63275000D01*
X131942857Y-63160714D01*
X131885714Y-63103571D01*
X131771428Y-63046428D01*
X131542857Y-62989285D01*
X131428571Y-62932142D01*
X131371428Y-62875000D01*
X131314285Y-62760714D01*
X131314285Y-62646428D01*
X131371428Y-62532142D01*
X131428571Y-62475000D01*
X131542857Y-62417857D01*
X131828571Y-62417857D01*
X131999999Y-62475000D01*
X132514285Y-63617857D02*
X132514285Y-62417857D01*
X133028571Y-63617857D02*
X133028571Y-62989285D01*
X132971428Y-62875000D01*
X132857142Y-62817857D01*
X132685714Y-62817857D01*
X132571428Y-62875000D01*
X132514285Y-62932142D01*
X133600000Y-63617857D02*
X133600000Y-62817857D01*
X133600000Y-62417857D02*
X133542857Y-62475000D01*
X133600000Y-62532142D01*
X133657142Y-62475000D01*
X133600000Y-62417857D01*
X133600000Y-62532142D01*
X134628571Y-63560714D02*
X134514285Y-63617857D01*
X134285714Y-63617857D01*
X134171428Y-63560714D01*
X134114285Y-63446428D01*
X134114285Y-62989285D01*
X134171428Y-62875000D01*
X134285714Y-62817857D01*
X134514285Y-62817857D01*
X134628571Y-62875000D01*
X134685714Y-62989285D01*
X134685714Y-63103571D01*
X134114285Y-63217857D01*
X135371428Y-63617857D02*
X135257142Y-63560714D01*
X135200000Y-63446428D01*
X135200000Y-62417857D01*
X136342857Y-63617857D02*
X136342857Y-62417857D01*
X136342857Y-63560714D02*
X136228571Y-63617857D01*
X136000000Y-63617857D01*
X135885714Y-63560714D01*
X135828571Y-63503571D01*
X135771428Y-63389285D01*
X135771428Y-63046428D01*
X135828571Y-62932142D01*
X135885714Y-62875000D01*
X136000000Y-62817857D01*
X136228571Y-62817857D01*
X136342857Y-62875000D01*
X137485714Y-63617857D02*
X136914285Y-63617857D01*
X136914285Y-62417857D01*
X137885714Y-63617857D02*
X137885714Y-62817857D01*
X137885714Y-62417857D02*
X137828571Y-62475000D01*
X137885714Y-62532142D01*
X137942857Y-62475000D01*
X137885714Y-62417857D01*
X137885714Y-62532142D01*
X138285714Y-62817857D02*
X138742857Y-62817857D01*
X138457142Y-62417857D02*
X138457142Y-63446428D01*
X138514285Y-63560714D01*
X138628571Y-63617857D01*
X138742857Y-63617857D01*
X139600000Y-63560714D02*
X139485714Y-63617857D01*
X139257142Y-63617857D01*
X139142857Y-63560714D01*
X139085714Y-63446428D01*
X139085714Y-62989285D01*
X139142857Y-62875000D01*
X139257142Y-62817857D01*
X139485714Y-62817857D01*
X139600000Y-62875000D01*
X139657142Y-62989285D01*
X139657142Y-63103571D01*
X139085714Y-63217857D01*
X139885714Y-63732142D02*
X140800000Y-63732142D01*
X141771428Y-63617857D02*
X141371428Y-63046428D01*
X141085714Y-63617857D02*
X141085714Y-62417857D01*
X141542857Y-62417857D01*
X141657142Y-62475000D01*
X141714285Y-62532142D01*
X141771428Y-62646428D01*
X141771428Y-62817857D01*
X141714285Y-62932142D01*
X141657142Y-62989285D01*
X141542857Y-63046428D01*
X141085714Y-63046428D01*
X142742857Y-63560714D02*
X142628571Y-63617857D01*
X142400000Y-63617857D01*
X142285714Y-63560714D01*
X142228571Y-63446428D01*
X142228571Y-62989285D01*
X142285714Y-62875000D01*
X142400000Y-62817857D01*
X142628571Y-62817857D01*
X142742857Y-62875000D01*
X142800000Y-62989285D01*
X142800000Y-63103571D01*
X142228571Y-63217857D01*
X143200000Y-62817857D02*
X143485714Y-63617857D01*
X143771428Y-62817857D01*
X144457142Y-62417857D02*
X144571428Y-62417857D01*
X144685714Y-62475000D01*
X144742857Y-62532142D01*
X144800000Y-62646428D01*
X144857142Y-62875000D01*
X144857142Y-63160714D01*
X144800000Y-63389285D01*
X144742857Y-63503571D01*
X144685714Y-63560714D01*
X144571428Y-63617857D01*
X144457142Y-63617857D01*
X144342857Y-63560714D01*
X144285714Y-63503571D01*
X144228571Y-63389285D01*
X144171428Y-63160714D01*
X144171428Y-62875000D01*
X144228571Y-62646428D01*
X144285714Y-62532142D01*
X144342857Y-62475000D01*
X144457142Y-62417857D01*
D11*
X137200000Y-78930000D02*
X116620000Y-78930000D01*
X134530000Y-68770000D02*
X116620000Y-68770000D01*
X137200000Y-67500000D02*
X137200000Y-66100000D01*
X137200000Y-66100000D02*
X135800000Y-66100000D01*
X137200000Y-68770000D02*
X134530000Y-68770000D01*
X134530000Y-68770000D02*
X134530000Y-66100000D01*
X134530000Y-66100000D02*
X116620000Y-66100000D01*
X116620000Y-66100000D02*
X116620000Y-81600000D01*
X116620000Y-81600000D02*
X137200000Y-81600000D01*
X137200000Y-81600000D02*
X137200000Y-68770000D01*
X150760000Y-99150000D02*
X150760000Y-98850000D01*
X149340000Y-99150000D02*
X149340000Y-98850000D01*
X149290000Y-103100000D02*
X149290000Y-102800000D01*
X150710000Y-103100000D02*
X150710000Y-102800000D01*
D12*
G36*
X120394000Y-100038000D02*
X127506000Y-100038000D01*
X127506000Y-99276000D01*
X120394000Y-99276000D01*
X120394000Y-100038000D01*
G37*
D13*
X129106200Y-100038000D02*
X129106200Y-100292000D01*
D14*
X129106200Y-100038000D02*
X134541800Y-100038000D01*
D13*
X118920800Y-100038000D02*
X118920800Y-100292000D01*
D14*
X113358200Y-100038000D02*
X118920800Y-100038000D01*
D13*
X120317800Y-100292000D02*
X127582200Y-100292000D01*
X127582200Y-100038000D02*
X127582200Y-100292000D01*
X120317800Y-100038000D02*
X120317800Y-100292000D01*
X120317800Y-100038000D02*
X127582200Y-100038000D01*
X120317800Y-99276000D02*
X120317800Y-100038000D01*
X113104200Y-99276000D02*
G75*
G03X112596200Y-99784000I0J-508000D01*
G01*
X113104200Y-99276000D02*
X118920800Y-99276000D01*
X135303800Y-99784000D02*
G75*
G03X134795800Y-99276000I-508000J0D01*
G01*
X135303800Y-99784000D02*
X135303800Y-106896000D01*
X135303800Y-106896000D02*
G75*
G02X134795800Y-107404000I-508000J0D01*
G01*
X134795800Y-107404000D02*
X133271800Y-107404000D01*
D14*
X134541800Y-100038000D02*
X134541800Y-106642000D01*
D13*
X133271800Y-106642000D02*
X133271800Y-106388000D01*
D14*
X134541800Y-106642000D02*
X133271800Y-106642000D01*
X113358200Y-106642000D02*
X113358200Y-100038000D01*
D13*
X114628200Y-106642000D02*
X114628200Y-107404000D01*
D14*
X114628200Y-106642000D02*
X113358200Y-106642000D01*
D13*
X113104200Y-107404000D02*
G75*
G02X112596200Y-106896000I0J508000D01*
G01*
X112596200Y-106896000D02*
X112596200Y-99784000D01*
X118920800Y-100292000D02*
X119809800Y-100292000D01*
X113612200Y-100292000D02*
X118920800Y-100292000D01*
X118920800Y-99276000D02*
X119809800Y-99276000D01*
X118920800Y-99276000D02*
X118920800Y-100038000D01*
X129106200Y-100292000D02*
X134287800Y-100292000D01*
X128090200Y-100292000D02*
X129106200Y-100292000D01*
X129106200Y-99276000D02*
X134795800Y-99276000D01*
X129106200Y-99276000D02*
X129106200Y-100038000D01*
X128090200Y-99276000D02*
X129106200Y-99276000D01*
X128090200Y-99276000D02*
X128090200Y-100292000D01*
X127582200Y-100292000D02*
X128090200Y-100292000D01*
X127582200Y-99276000D02*
X128090200Y-99276000D01*
X127582200Y-99276000D02*
X127582200Y-100038000D01*
X120317800Y-99276000D02*
X127582200Y-99276000D01*
X119809800Y-99276000D02*
X120317800Y-99276000D01*
X119809800Y-100292000D02*
X120317800Y-100292000D01*
X119809800Y-99276000D02*
X119809800Y-100292000D01*
X133271800Y-105372000D02*
X114628200Y-105372000D01*
X133271800Y-106388000D02*
X133271800Y-105372000D01*
X114628200Y-106388000D02*
X114628200Y-105372000D01*
X134287800Y-100292000D02*
X134287800Y-106388000D01*
X133271800Y-107404000D02*
X133271800Y-106642000D01*
X134287800Y-106388000D02*
X133271800Y-106388000D01*
X114628200Y-107404000D02*
X113104200Y-107404000D01*
X114628200Y-106388000D02*
X114628200Y-106642000D01*
X114628200Y-106388000D02*
X113612200Y-106388000D01*
X113612200Y-106388000D02*
X113612200Y-100292000D01*
X119771400Y-91138000D02*
X119771400Y-85042000D01*
X120787400Y-91138000D02*
X119771400Y-91138000D01*
X120787400Y-91138000D02*
X120787400Y-91392000D01*
X120787400Y-92154000D02*
X119263400Y-92154000D01*
X132954000Y-91138000D02*
X131938000Y-91138000D01*
X131938000Y-92154000D02*
X131938000Y-91392000D01*
X132954000Y-85042000D02*
X132954000Y-91138000D01*
X120787400Y-91138000D02*
X120787400Y-90122000D01*
X131938000Y-91138000D02*
X131938000Y-90122000D01*
X131938000Y-90122000D02*
X120787400Y-90122000D01*
X122159000Y-84026000D02*
X122159000Y-85042000D01*
X122159000Y-85042000D02*
X122794000Y-85042000D01*
X122159000Y-84026000D02*
X122794000Y-84026000D01*
X122794000Y-84026000D02*
X129906000Y-84026000D01*
X129906000Y-84026000D02*
X129906000Y-84788000D01*
X129906000Y-84026000D02*
X130566400Y-84026000D01*
X129906000Y-85042000D02*
X130566400Y-85042000D01*
X130566400Y-84026000D02*
X130566400Y-85042000D01*
X130566400Y-84026000D02*
X131455400Y-84026000D01*
X131455400Y-84026000D02*
X131455400Y-84788000D01*
X131455400Y-84026000D02*
X133462000Y-84026000D01*
X130566400Y-85042000D02*
X131455400Y-85042000D01*
X131455400Y-85042000D02*
X132954000Y-85042000D01*
X121270000Y-84026000D02*
X121270000Y-84788000D01*
X121270000Y-84026000D02*
X122159000Y-84026000D01*
X119771400Y-85042000D02*
X121270000Y-85042000D01*
X121270000Y-85042000D02*
X122159000Y-85042000D01*
X118755400Y-91646000D02*
X118755400Y-84534000D01*
X119263400Y-92154000D02*
G75*
G02X118755400Y-91646000I0J508000D01*
G01*
D14*
X120787400Y-91392000D02*
X119517400Y-91392000D01*
D13*
X120787400Y-91392000D02*
X120787400Y-92154000D01*
D14*
X119517400Y-91392000D02*
X119517400Y-84788000D01*
X133208000Y-91392000D02*
X131938000Y-91392000D01*
D13*
X131938000Y-91392000D02*
X131938000Y-91138000D01*
D14*
X133208000Y-84788000D02*
X133208000Y-91392000D01*
D13*
X133462000Y-92154000D02*
X131938000Y-92154000D01*
X133970000Y-91646000D02*
G75*
G02X133462000Y-92154000I-508000J0D01*
G01*
X133970000Y-84534000D02*
X133970000Y-91646000D01*
X133970000Y-84534000D02*
G75*
G03X133462000Y-84026000I-508000J0D01*
G01*
X119263400Y-84026000D02*
X121270000Y-84026000D01*
X119263400Y-84026000D02*
G75*
G03X118755400Y-84534000I0J-508000D01*
G01*
X122794000Y-84026000D02*
X122794000Y-84788000D01*
X122794000Y-84788000D02*
X129906000Y-84788000D01*
X122794000Y-84788000D02*
X122794000Y-85042000D01*
X129906000Y-84788000D02*
X129906000Y-85042000D01*
X122794000Y-85042000D02*
X129906000Y-85042000D01*
D14*
X133208000Y-84788000D02*
X131455400Y-84788000D01*
X119517400Y-84788000D02*
X121270000Y-84788000D01*
D13*
X121270000Y-84788000D02*
X121270000Y-85042000D01*
X131455400Y-84788000D02*
X131455400Y-85042000D01*
D12*
G36*
X122794000Y-84788000D02*
X129906000Y-84788000D01*
X129906000Y-84026000D01*
X122794000Y-84026000D01*
X122794000Y-84788000D01*
G37*
D13*
X113612200Y-119738000D02*
X113612200Y-113642000D01*
X114628200Y-119738000D02*
X113612200Y-119738000D01*
X114628200Y-119738000D02*
X114628200Y-119992000D01*
X114628200Y-120754000D02*
X113104200Y-120754000D01*
X134287800Y-119738000D02*
X133271800Y-119738000D01*
X133271800Y-120754000D02*
X133271800Y-119992000D01*
X134287800Y-113642000D02*
X134287800Y-119738000D01*
X114628200Y-119738000D02*
X114628200Y-118722000D01*
X133271800Y-119738000D02*
X133271800Y-118722000D01*
X133271800Y-118722000D02*
X114628200Y-118722000D01*
X119809800Y-112626000D02*
X119809800Y-113642000D01*
X119809800Y-113642000D02*
X120317800Y-113642000D01*
X119809800Y-112626000D02*
X120317800Y-112626000D01*
X120317800Y-112626000D02*
X127582200Y-112626000D01*
X127582200Y-112626000D02*
X127582200Y-113388000D01*
X127582200Y-112626000D02*
X128090200Y-112626000D01*
X127582200Y-113642000D02*
X128090200Y-113642000D01*
X128090200Y-112626000D02*
X128090200Y-113642000D01*
X128090200Y-112626000D02*
X129106200Y-112626000D01*
X129106200Y-112626000D02*
X129106200Y-113388000D01*
X129106200Y-112626000D02*
X134795800Y-112626000D01*
X128090200Y-113642000D02*
X129106200Y-113642000D01*
X129106200Y-113642000D02*
X134287800Y-113642000D01*
X118920800Y-112626000D02*
X118920800Y-113388000D01*
X118920800Y-112626000D02*
X119809800Y-112626000D01*
X113612200Y-113642000D02*
X118920800Y-113642000D01*
X118920800Y-113642000D02*
X119809800Y-113642000D01*
X112596200Y-120246000D02*
X112596200Y-113134000D01*
X113104200Y-120754000D02*
G75*
G02X112596200Y-120246000I0J508000D01*
G01*
D14*
X114628200Y-119992000D02*
X113358200Y-119992000D01*
D13*
X114628200Y-119992000D02*
X114628200Y-120754000D01*
D14*
X113358200Y-119992000D02*
X113358200Y-113388000D01*
X134541800Y-119992000D02*
X133271800Y-119992000D01*
D13*
X133271800Y-119992000D02*
X133271800Y-119738000D01*
D14*
X134541800Y-113388000D02*
X134541800Y-119992000D01*
D13*
X134795800Y-120754000D02*
X133271800Y-120754000D01*
X135303800Y-120246000D02*
G75*
G02X134795800Y-120754000I-508000J0D01*
G01*
X135303800Y-113134000D02*
X135303800Y-120246000D01*
X135303800Y-113134000D02*
G75*
G03X134795800Y-112626000I-508000J0D01*
G01*
X113104200Y-112626000D02*
X118920800Y-112626000D01*
X113104200Y-112626000D02*
G75*
G03X112596200Y-113134000I0J-508000D01*
G01*
X120317800Y-112626000D02*
X120317800Y-113388000D01*
X120317800Y-113388000D02*
X127582200Y-113388000D01*
X120317800Y-113388000D02*
X120317800Y-113642000D01*
X127582200Y-113388000D02*
X127582200Y-113642000D01*
X120317800Y-113642000D02*
X127582200Y-113642000D01*
D14*
X113358200Y-113388000D02*
X118920800Y-113388000D01*
D13*
X118920800Y-113388000D02*
X118920800Y-113642000D01*
D14*
X129106200Y-113388000D02*
X134541800Y-113388000D01*
D13*
X129106200Y-113388000D02*
X129106200Y-113642000D01*
D12*
G36*
X120394000Y-113388000D02*
X127506000Y-113388000D01*
X127506000Y-112626000D01*
X120394000Y-112626000D01*
X120394000Y-113388000D01*
G37*
D13*
X140521400Y-123288000D02*
X140521400Y-117192000D01*
X141537400Y-123288000D02*
X140521400Y-123288000D01*
X141537400Y-123288000D02*
X141537400Y-123542000D01*
X141537400Y-124304000D02*
X140013400Y-124304000D01*
X148704000Y-123288000D02*
X147688000Y-123288000D01*
X147688000Y-124304000D02*
X147688000Y-123542000D01*
X148704000Y-117192000D02*
X148704000Y-123288000D01*
X141537400Y-123288000D02*
X141537400Y-122272000D01*
X147688000Y-123288000D02*
X147688000Y-122272000D01*
X147688000Y-122272000D02*
X141537400Y-122272000D01*
X141659000Y-116176000D02*
X141659000Y-117192000D01*
X141659000Y-117192000D02*
X142294000Y-117192000D01*
X141659000Y-116176000D02*
X142294000Y-116176000D01*
X142294000Y-116176000D02*
X146906000Y-116176000D01*
X146906000Y-116176000D02*
X146906000Y-116938000D01*
X146906000Y-116176000D02*
X147566400Y-116176000D01*
X146906000Y-117192000D02*
X147566400Y-117192000D01*
X147566400Y-116176000D02*
X147566400Y-117192000D01*
X147566400Y-116176000D02*
X148455400Y-116176000D01*
X148455400Y-116176000D02*
X148455400Y-116938000D01*
X148455400Y-116176000D02*
X149212000Y-116176000D01*
X147566400Y-117192000D02*
X148455400Y-117192000D01*
X148455400Y-117192000D02*
X148704000Y-117192000D01*
X140770000Y-116176000D02*
X140770000Y-116938000D01*
X140770000Y-116176000D02*
X141659000Y-116176000D01*
X140521400Y-117192000D02*
X140770000Y-117192000D01*
X140770000Y-117192000D02*
X141659000Y-117192000D01*
X139505400Y-123796000D02*
X139505400Y-116684000D01*
X140013400Y-124304000D02*
G75*
G02X139505400Y-123796000I0J508000D01*
G01*
D14*
X141537400Y-123542000D02*
X140267400Y-123542000D01*
D13*
X141537400Y-123542000D02*
X141537400Y-124304000D01*
D14*
X140267400Y-123542000D02*
X140267400Y-116938000D01*
X148958000Y-123542000D02*
X147688000Y-123542000D01*
D13*
X147688000Y-123542000D02*
X147688000Y-123288000D01*
D14*
X148958000Y-116938000D02*
X148958000Y-123542000D01*
D13*
X149212000Y-124304000D02*
X147688000Y-124304000D01*
X149720000Y-123796000D02*
G75*
G02X149212000Y-124304000I-508000J0D01*
G01*
X149720000Y-116684000D02*
X149720000Y-123796000D01*
X149720000Y-116684000D02*
G75*
G03X149212000Y-116176000I-508000J0D01*
G01*
X140013400Y-116176000D02*
X140770000Y-116176000D01*
X140013400Y-116176000D02*
G75*
G03X139505400Y-116684000I0J-508000D01*
G01*
X142294000Y-116176000D02*
X142294000Y-116938000D01*
X142294000Y-116938000D02*
X146906000Y-116938000D01*
X142294000Y-116938000D02*
X142294000Y-117192000D01*
X146906000Y-116938000D02*
X146906000Y-117192000D01*
X142294000Y-117192000D02*
X146906000Y-117192000D01*
D14*
X148958000Y-116938000D02*
X148455400Y-116938000D01*
X140267400Y-116938000D02*
X140770000Y-116938000D01*
D13*
X140770000Y-116938000D02*
X140770000Y-117192000D01*
X148455400Y-116938000D02*
X148455400Y-117192000D01*
D12*
G36*
X141900000Y-116938000D02*
X147300000Y-116938000D01*
X147300000Y-116176000D01*
X141900000Y-116176000D01*
X141900000Y-116938000D01*
G37*
D15*
X157300000Y-127900000D02*
X157300000Y-149400000D01*
X113300000Y-127900000D02*
X157300000Y-127900000D01*
X113300000Y-149400000D02*
X113300000Y-127900000D01*
X113300000Y-149400000D02*
X157300000Y-149400000D01*
D11*
X149390000Y-93450000D02*
X149390000Y-93150000D01*
X150810000Y-93450000D02*
X150810000Y-93150000D01*
D12*
X114050000Y-145750000D02*
X114050000Y-148650000D01*
X116950000Y-148650000D01*
X116950000Y-145750000D01*
X114050000Y-145750000D01*
X153650000Y-145750000D02*
X153650000Y-148650000D01*
X156550000Y-148650000D01*
X156550000Y-145750000D01*
X153650000Y-145750000D01*
X116950000Y-130100000D02*
G75*
G03X116950000Y-130100000I-1450000J0D01*
G01*
X156550000Y-130100000D02*
G75*
G03X156550000Y-130100000I-1450000J0D01*
G01*
D10*
X138506666Y-74564285D02*
X138506666Y-74088095D01*
X138792380Y-74659523D02*
X137792380Y-74326190D01*
X138792380Y-73992857D01*
X138792380Y-73135714D02*
X138792380Y-73707142D01*
X138792380Y-73421428D02*
X137792380Y-73421428D01*
X137935238Y-73516666D01*
X138030476Y-73611904D01*
X138078095Y-73707142D01*
X148557142Y-99166666D02*
X148604761Y-99214285D01*
X148652380Y-99357142D01*
X148652380Y-99452380D01*
X148604761Y-99595238D01*
X148509523Y-99690476D01*
X148414285Y-99738095D01*
X148223809Y-99785714D01*
X148080952Y-99785714D01*
X147890476Y-99738095D01*
X147795238Y-99690476D01*
X147700000Y-99595238D01*
X147652380Y-99452380D01*
X147652380Y-99357142D01*
X147700000Y-99214285D01*
X147747619Y-99166666D01*
X148652380Y-98214285D02*
X148652380Y-98785714D01*
X148652380Y-98500000D02*
X147652380Y-98500000D01*
X147795238Y-98595238D01*
X147890476Y-98690476D01*
X147938095Y-98785714D01*
X151352380Y-100166666D02*
X151352380Y-100357142D01*
X151400000Y-100452380D01*
X151447619Y-100500000D01*
X151590476Y-100595238D01*
X151780952Y-100642857D01*
X152161904Y-100642857D01*
X152257142Y-100595238D01*
X152304761Y-100547619D01*
X152352380Y-100452380D01*
X152352380Y-100261904D01*
X152304761Y-100166666D01*
X152257142Y-100119047D01*
X152161904Y-100071428D01*
X151923809Y-100071428D01*
X151828571Y-100119047D01*
X151780952Y-100166666D01*
X151733333Y-100261904D01*
X151733333Y-100452380D01*
X151780952Y-100547619D01*
X151828571Y-100595238D01*
X151923809Y-100642857D01*
X151780952Y-99500000D02*
X151733333Y-99595238D01*
X151685714Y-99642857D01*
X151590476Y-99690476D01*
X151542857Y-99690476D01*
X151447619Y-99642857D01*
X151400000Y-99595238D01*
X151352380Y-99500000D01*
X151352380Y-99309523D01*
X151400000Y-99214285D01*
X151447619Y-99166666D01*
X151542857Y-99119047D01*
X151590476Y-99119047D01*
X151685714Y-99166666D01*
X151733333Y-99214285D01*
X151780952Y-99309523D01*
X151780952Y-99500000D01*
X151828571Y-99595238D01*
X151876190Y-99642857D01*
X151971428Y-99690476D01*
X152161904Y-99690476D01*
X152257142Y-99642857D01*
X152304761Y-99595238D01*
X152352380Y-99500000D01*
X152352380Y-99309523D01*
X152304761Y-99214285D01*
X152257142Y-99166666D01*
X152161904Y-99119047D01*
X151971428Y-99119047D01*
X151876190Y-99166666D01*
X151828571Y-99214285D01*
X151780952Y-99309523D01*
X151685714Y-98690476D02*
X152352380Y-98690476D01*
X151780952Y-98690476D02*
X151733333Y-98642857D01*
X151685714Y-98547619D01*
X151685714Y-98404761D01*
X151733333Y-98309523D01*
X151828571Y-98261904D01*
X152352380Y-98261904D01*
X151828571Y-97452380D02*
X151828571Y-97785714D01*
X152352380Y-97785714D02*
X151352380Y-97785714D01*
X151352380Y-97309523D01*
X148507142Y-103116666D02*
X148554761Y-103164285D01*
X148602380Y-103307142D01*
X148602380Y-103402380D01*
X148554761Y-103545238D01*
X148459523Y-103640476D01*
X148364285Y-103688095D01*
X148173809Y-103735714D01*
X148030952Y-103735714D01*
X147840476Y-103688095D01*
X147745238Y-103640476D01*
X147650000Y-103545238D01*
X147602380Y-103402380D01*
X147602380Y-103307142D01*
X147650000Y-103164285D01*
X147697619Y-103116666D01*
X147697619Y-102735714D02*
X147650000Y-102688095D01*
X147602380Y-102592857D01*
X147602380Y-102354761D01*
X147650000Y-102259523D01*
X147697619Y-102211904D01*
X147792857Y-102164285D01*
X147888095Y-102164285D01*
X148030952Y-102211904D01*
X148602380Y-102783333D01*
X148602380Y-102164285D01*
X151302380Y-104116666D02*
X151302380Y-104307142D01*
X151350000Y-104402380D01*
X151397619Y-104450000D01*
X151540476Y-104545238D01*
X151730952Y-104592857D01*
X152111904Y-104592857D01*
X152207142Y-104545238D01*
X152254761Y-104497619D01*
X152302380Y-104402380D01*
X152302380Y-104211904D01*
X152254761Y-104116666D01*
X152207142Y-104069047D01*
X152111904Y-104021428D01*
X151873809Y-104021428D01*
X151778571Y-104069047D01*
X151730952Y-104116666D01*
X151683333Y-104211904D01*
X151683333Y-104402380D01*
X151730952Y-104497619D01*
X151778571Y-104545238D01*
X151873809Y-104592857D01*
X151730952Y-103450000D02*
X151683333Y-103545238D01*
X151635714Y-103592857D01*
X151540476Y-103640476D01*
X151492857Y-103640476D01*
X151397619Y-103592857D01*
X151350000Y-103545238D01*
X151302380Y-103450000D01*
X151302380Y-103259523D01*
X151350000Y-103164285D01*
X151397619Y-103116666D01*
X151492857Y-103069047D01*
X151540476Y-103069047D01*
X151635714Y-103116666D01*
X151683333Y-103164285D01*
X151730952Y-103259523D01*
X151730952Y-103450000D01*
X151778571Y-103545238D01*
X151826190Y-103592857D01*
X151921428Y-103640476D01*
X152111904Y-103640476D01*
X152207142Y-103592857D01*
X152254761Y-103545238D01*
X152302380Y-103450000D01*
X152302380Y-103259523D01*
X152254761Y-103164285D01*
X152207142Y-103116666D01*
X152111904Y-103069047D01*
X151921428Y-103069047D01*
X151826190Y-103116666D01*
X151778571Y-103164285D01*
X151730952Y-103259523D01*
X151635714Y-102640476D02*
X152302380Y-102640476D01*
X151730952Y-102640476D02*
X151683333Y-102592857D01*
X151635714Y-102497619D01*
X151635714Y-102354761D01*
X151683333Y-102259523D01*
X151778571Y-102211904D01*
X152302380Y-102211904D01*
X151778571Y-101402380D02*
X151778571Y-101735714D01*
X152302380Y-101735714D02*
X151302380Y-101735714D01*
X151302380Y-101259523D01*
D16*
X114580726Y-97631047D02*
X114580726Y-98492833D01*
X114523273Y-98665190D01*
X114408369Y-98780095D01*
X114236011Y-98837547D01*
X114121107Y-98837547D01*
X115097797Y-97745952D02*
X115155250Y-97688500D01*
X115270154Y-97631047D01*
X115557416Y-97631047D01*
X115672321Y-97688500D01*
X115729773Y-97745952D01*
X115787226Y-97860857D01*
X115787226Y-97975761D01*
X115729773Y-98148119D01*
X115040345Y-98837547D01*
X115787226Y-98837547D01*
X120319811Y-109610571D02*
X120721978Y-109610571D01*
X120894335Y-110242547D02*
X120319811Y-110242547D01*
X120319811Y-109036047D01*
X120894335Y-109036047D01*
X121411407Y-109438214D02*
X121411407Y-110242547D01*
X121411407Y-109553119D02*
X121468859Y-109495666D01*
X121583764Y-109438214D01*
X121756121Y-109438214D01*
X121871026Y-109495666D01*
X121928478Y-109610571D01*
X121928478Y-110242547D01*
X123020073Y-110185095D02*
X122905169Y-110242547D01*
X122675359Y-110242547D01*
X122560454Y-110185095D01*
X122503002Y-110127642D01*
X122445550Y-110012738D01*
X122445550Y-109668023D01*
X122503002Y-109553119D01*
X122560454Y-109495666D01*
X122675359Y-109438214D01*
X122905169Y-109438214D01*
X123020073Y-109495666D01*
X123709502Y-110242547D02*
X123594597Y-110185095D01*
X123537145Y-110127642D01*
X123479692Y-110012738D01*
X123479692Y-109668023D01*
X123537145Y-109553119D01*
X123594597Y-109495666D01*
X123709502Y-109438214D01*
X123881859Y-109438214D01*
X123996764Y-109495666D01*
X124054216Y-109553119D01*
X124111669Y-109668023D01*
X124111669Y-110012738D01*
X124054216Y-110127642D01*
X123996764Y-110185095D01*
X123881859Y-110242547D01*
X123709502Y-110242547D01*
X125145811Y-110242547D02*
X125145811Y-109036047D01*
X125145811Y-110185095D02*
X125030907Y-110242547D01*
X124801097Y-110242547D01*
X124686192Y-110185095D01*
X124628740Y-110127642D01*
X124571288Y-110012738D01*
X124571288Y-109668023D01*
X124628740Y-109553119D01*
X124686192Y-109495666D01*
X124801097Y-109438214D01*
X125030907Y-109438214D01*
X125145811Y-109495666D01*
X126179954Y-110185095D02*
X126065050Y-110242547D01*
X125835240Y-110242547D01*
X125720335Y-110185095D01*
X125662883Y-110070190D01*
X125662883Y-109610571D01*
X125720335Y-109495666D01*
X125835240Y-109438214D01*
X126065050Y-109438214D01*
X126179954Y-109495666D01*
X126237407Y-109610571D01*
X126237407Y-109725476D01*
X125662883Y-109840380D01*
X126754478Y-110242547D02*
X126754478Y-109438214D01*
X126754478Y-109668023D02*
X126811930Y-109553119D01*
X126869383Y-109495666D01*
X126984288Y-109438214D01*
X127099192Y-109438214D01*
X127501359Y-109782928D02*
X128420597Y-109782928D01*
X128995121Y-110242547D02*
X128995121Y-109036047D01*
X129397288Y-109897833D01*
X129799454Y-109036047D01*
X129799454Y-110242547D01*
X130546335Y-110242547D02*
X130431430Y-110185095D01*
X130373978Y-110127642D01*
X130316526Y-110012738D01*
X130316526Y-109668023D01*
X130373978Y-109553119D01*
X130431430Y-109495666D01*
X130546335Y-109438214D01*
X130718692Y-109438214D01*
X130833597Y-109495666D01*
X130891050Y-109553119D01*
X130948502Y-109668023D01*
X130948502Y-110012738D01*
X130891050Y-110127642D01*
X130833597Y-110185095D01*
X130718692Y-110242547D01*
X130546335Y-110242547D01*
X131293216Y-109438214D02*
X131752835Y-109438214D01*
X131465573Y-109036047D02*
X131465573Y-110070190D01*
X131523026Y-110185095D01*
X131637930Y-110242547D01*
X131752835Y-110242547D01*
X132327359Y-110242547D02*
X132212454Y-110185095D01*
X132155002Y-110127642D01*
X132097550Y-110012738D01*
X132097550Y-109668023D01*
X132155002Y-109553119D01*
X132212454Y-109495666D01*
X132327359Y-109438214D01*
X132499716Y-109438214D01*
X132614621Y-109495666D01*
X132672073Y-109553119D01*
X132729526Y-109668023D01*
X132729526Y-110012738D01*
X132672073Y-110127642D01*
X132614621Y-110185095D01*
X132499716Y-110242547D01*
X132327359Y-110242547D01*
X133246597Y-110242547D02*
X133246597Y-109438214D01*
X133246597Y-109668023D02*
X133304050Y-109553119D01*
X133361502Y-109495666D01*
X133476407Y-109438214D01*
X133591311Y-109438214D01*
X115454907Y-107286047D02*
X116259240Y-107286047D01*
X115742169Y-108492547D01*
X132451788Y-108492547D02*
X131762359Y-108492547D01*
X132107073Y-108492547D02*
X132107073Y-107286047D01*
X131992169Y-107458404D01*
X131877264Y-107573309D01*
X131762359Y-107630761D01*
X119469926Y-82381047D02*
X119469926Y-83242833D01*
X119412473Y-83415190D01*
X119297569Y-83530095D01*
X119125211Y-83587547D01*
X119010307Y-83587547D01*
X119929545Y-82381047D02*
X120676426Y-82381047D01*
X120274259Y-82840666D01*
X120446616Y-82840666D01*
X120561521Y-82898119D01*
X120618973Y-82955571D01*
X120676426Y-83070476D01*
X120676426Y-83357738D01*
X120618973Y-83472642D01*
X120561521Y-83530095D01*
X120446616Y-83587547D01*
X120101902Y-83587547D01*
X119986997Y-83530095D01*
X119929545Y-83472642D01*
X120294335Y-95032548D02*
X119719811Y-95032548D01*
X119719811Y-93826048D01*
X120696502Y-95032548D02*
X120696502Y-94228215D01*
X120696502Y-93826048D02*
X120639050Y-93883501D01*
X120696502Y-93940953D01*
X120753954Y-93883501D01*
X120696502Y-93826048D01*
X120696502Y-93940953D01*
X121271026Y-95032548D02*
X121271026Y-94228215D01*
X121271026Y-94343120D02*
X121328478Y-94285667D01*
X121443383Y-94228215D01*
X121615740Y-94228215D01*
X121730645Y-94285667D01*
X121788097Y-94400572D01*
X121788097Y-95032548D01*
X121788097Y-94400572D02*
X121845550Y-94285667D01*
X121960454Y-94228215D01*
X122132811Y-94228215D01*
X122247716Y-94285667D01*
X122305169Y-94400572D01*
X122305169Y-95032548D01*
X122879692Y-95032548D02*
X122879692Y-94228215D01*
X122879692Y-93826048D02*
X122822240Y-93883501D01*
X122879692Y-93940953D01*
X122937145Y-93883501D01*
X122879692Y-93826048D01*
X122879692Y-93940953D01*
X123281859Y-94228215D02*
X123741478Y-94228215D01*
X123454216Y-93826048D02*
X123454216Y-94860191D01*
X123511669Y-94975096D01*
X123626573Y-95032548D01*
X123741478Y-95032548D01*
X124143645Y-94572929D02*
X125062883Y-94572929D01*
X125579954Y-94975096D02*
X125752311Y-95032548D01*
X126039573Y-95032548D01*
X126154478Y-94975096D01*
X126211930Y-94917643D01*
X126269383Y-94802739D01*
X126269383Y-94687834D01*
X126211930Y-94572929D01*
X126154478Y-94515477D01*
X126039573Y-94458024D01*
X125809764Y-94400572D01*
X125694859Y-94343120D01*
X125637407Y-94285667D01*
X125579954Y-94170762D01*
X125579954Y-94055858D01*
X125637407Y-93940953D01*
X125694859Y-93883501D01*
X125809764Y-93826048D01*
X126097026Y-93826048D01*
X126269383Y-93883501D01*
X126671550Y-94228215D02*
X126901359Y-95032548D01*
X127131169Y-94458024D01*
X127360978Y-95032548D01*
X127590788Y-94228215D01*
X128050407Y-95032548D02*
X128050407Y-94228215D01*
X128050407Y-93826048D02*
X127992954Y-93883501D01*
X128050407Y-93940953D01*
X128107859Y-93883501D01*
X128050407Y-93826048D01*
X128050407Y-93940953D01*
X128452573Y-94228215D02*
X128912192Y-94228215D01*
X128624930Y-93826048D02*
X128624930Y-94860191D01*
X128682383Y-94975096D01*
X128797288Y-95032548D01*
X128912192Y-95032548D01*
X129831430Y-94975096D02*
X129716526Y-95032548D01*
X129486716Y-95032548D01*
X129371811Y-94975096D01*
X129314359Y-94917643D01*
X129256907Y-94802739D01*
X129256907Y-94458024D01*
X129314359Y-94343120D01*
X129371811Y-94285667D01*
X129486716Y-94228215D01*
X129716526Y-94228215D01*
X129831430Y-94285667D01*
X130348502Y-95032548D02*
X130348502Y-93826048D01*
X130865573Y-95032548D02*
X130865573Y-94400572D01*
X130808121Y-94285667D01*
X130693216Y-94228215D01*
X130520859Y-94228215D01*
X130405954Y-94285667D01*
X130348502Y-94343120D01*
X131899716Y-94975096D02*
X131784811Y-95032548D01*
X131555002Y-95032548D01*
X131440097Y-94975096D01*
X131382645Y-94860191D01*
X131382645Y-94400572D01*
X131440097Y-94285667D01*
X131555002Y-94228215D01*
X131784811Y-94228215D01*
X131899716Y-94285667D01*
X131957169Y-94400572D01*
X131957169Y-94515477D01*
X131382645Y-94630381D01*
X132416788Y-94975096D02*
X132531692Y-95032548D01*
X132761502Y-95032548D01*
X132876407Y-94975096D01*
X132933859Y-94860191D01*
X132933859Y-94802739D01*
X132876407Y-94687834D01*
X132761502Y-94630381D01*
X132589145Y-94630381D01*
X132474240Y-94572929D01*
X132416788Y-94458024D01*
X132416788Y-94400572D01*
X132474240Y-94285667D01*
X132589145Y-94228215D01*
X132761502Y-94228215D01*
X132876407Y-94285667D01*
X131101788Y-93242547D02*
X130412359Y-93242547D01*
X130757073Y-93242547D02*
X130757073Y-92036047D01*
X130642169Y-92208404D01*
X130527264Y-92323309D01*
X130412359Y-92380761D01*
X122236883Y-92438214D02*
X122236883Y-93242547D01*
X121949621Y-91978595D02*
X121662359Y-92840380D01*
X122409240Y-92840380D01*
X114580726Y-110981047D02*
X114580726Y-111842833D01*
X114523273Y-112015190D01*
X114408369Y-112130095D01*
X114236011Y-112187547D01*
X114121107Y-112187547D01*
X115672321Y-111383214D02*
X115672321Y-112187547D01*
X115385059Y-110923595D02*
X115097797Y-111785380D01*
X115844678Y-111785380D01*
X120319811Y-122960571D02*
X120721978Y-122960571D01*
X120894335Y-123592547D02*
X120319811Y-123592547D01*
X120319811Y-122386047D01*
X120894335Y-122386047D01*
X121411407Y-122788214D02*
X121411407Y-123592547D01*
X121411407Y-122903119D02*
X121468859Y-122845666D01*
X121583764Y-122788214D01*
X121756121Y-122788214D01*
X121871026Y-122845666D01*
X121928478Y-122960571D01*
X121928478Y-123592547D01*
X123020073Y-123535095D02*
X122905169Y-123592547D01*
X122675359Y-123592547D01*
X122560454Y-123535095D01*
X122503002Y-123477642D01*
X122445550Y-123362738D01*
X122445550Y-123018023D01*
X122503002Y-122903119D01*
X122560454Y-122845666D01*
X122675359Y-122788214D01*
X122905169Y-122788214D01*
X123020073Y-122845666D01*
X123709502Y-123592547D02*
X123594597Y-123535095D01*
X123537145Y-123477642D01*
X123479692Y-123362738D01*
X123479692Y-123018023D01*
X123537145Y-122903119D01*
X123594597Y-122845666D01*
X123709502Y-122788214D01*
X123881859Y-122788214D01*
X123996764Y-122845666D01*
X124054216Y-122903119D01*
X124111669Y-123018023D01*
X124111669Y-123362738D01*
X124054216Y-123477642D01*
X123996764Y-123535095D01*
X123881859Y-123592547D01*
X123709502Y-123592547D01*
X125145811Y-123592547D02*
X125145811Y-122386047D01*
X125145811Y-123535095D02*
X125030907Y-123592547D01*
X124801097Y-123592547D01*
X124686192Y-123535095D01*
X124628740Y-123477642D01*
X124571288Y-123362738D01*
X124571288Y-123018023D01*
X124628740Y-122903119D01*
X124686192Y-122845666D01*
X124801097Y-122788214D01*
X125030907Y-122788214D01*
X125145811Y-122845666D01*
X126179954Y-123535095D02*
X126065050Y-123592547D01*
X125835240Y-123592547D01*
X125720335Y-123535095D01*
X125662883Y-123420190D01*
X125662883Y-122960571D01*
X125720335Y-122845666D01*
X125835240Y-122788214D01*
X126065050Y-122788214D01*
X126179954Y-122845666D01*
X126237407Y-122960571D01*
X126237407Y-123075476D01*
X125662883Y-123190380D01*
X126754478Y-123592547D02*
X126754478Y-122788214D01*
X126754478Y-123018023D02*
X126811930Y-122903119D01*
X126869383Y-122845666D01*
X126984288Y-122788214D01*
X127099192Y-122788214D01*
X127501359Y-123132928D02*
X128420597Y-123132928D01*
X128995121Y-123592547D02*
X128995121Y-122386047D01*
X129454740Y-122386047D01*
X129569645Y-122443500D01*
X129627097Y-122500952D01*
X129684550Y-122615857D01*
X129684550Y-122788214D01*
X129627097Y-122903119D01*
X129569645Y-122960571D01*
X129454740Y-123018023D01*
X128995121Y-123018023D01*
X130661240Y-123535095D02*
X130546335Y-123592547D01*
X130316526Y-123592547D01*
X130201621Y-123535095D01*
X130144169Y-123420190D01*
X130144169Y-122960571D01*
X130201621Y-122845666D01*
X130316526Y-122788214D01*
X130546335Y-122788214D01*
X130661240Y-122845666D01*
X130718692Y-122960571D01*
X130718692Y-123075476D01*
X130144169Y-123190380D01*
X131235764Y-122788214D02*
X131235764Y-123592547D01*
X131235764Y-122903119D02*
X131293216Y-122845666D01*
X131408121Y-122788214D01*
X131580478Y-122788214D01*
X131695383Y-122845666D01*
X131752835Y-122960571D01*
X131752835Y-123592547D01*
X132844430Y-123592547D02*
X132844430Y-122386047D01*
X132844430Y-123535095D02*
X132729526Y-123592547D01*
X132499716Y-123592547D01*
X132384811Y-123535095D01*
X132327359Y-123477642D01*
X132269907Y-123362738D01*
X132269907Y-123018023D01*
X132327359Y-122903119D01*
X132384811Y-122845666D01*
X132499716Y-122788214D01*
X132729526Y-122788214D01*
X132844430Y-122845666D01*
X133878573Y-123535095D02*
X133763669Y-123592547D01*
X133533859Y-123592547D01*
X133418954Y-123535095D01*
X133361502Y-123420190D01*
X133361502Y-122960571D01*
X133418954Y-122845666D01*
X133533859Y-122788214D01*
X133763669Y-122788214D01*
X133878573Y-122845666D01*
X133936026Y-122960571D01*
X133936026Y-123075476D01*
X133361502Y-123190380D01*
X134625454Y-123592547D02*
X134510550Y-123535095D01*
X134453097Y-123420190D01*
X134453097Y-122386047D01*
X132451788Y-121842547D02*
X131762359Y-121842547D01*
X132107073Y-121842547D02*
X132107073Y-120636047D01*
X131992169Y-120808404D01*
X131877264Y-120923309D01*
X131762359Y-120980761D01*
X115454907Y-120636047D02*
X116259240Y-120636047D01*
X115742169Y-121842547D01*
X140219926Y-114531047D02*
X140219926Y-115392833D01*
X140162473Y-115565190D01*
X140047569Y-115680095D01*
X139875211Y-115737547D01*
X139760307Y-115737547D01*
X141368973Y-114531047D02*
X140794450Y-114531047D01*
X140736997Y-115105571D01*
X140794450Y-115048119D01*
X140909354Y-114990666D01*
X141196616Y-114990666D01*
X141311521Y-115048119D01*
X141368973Y-115105571D01*
X141426426Y-115220476D01*
X141426426Y-115507738D01*
X141368973Y-115622642D01*
X141311521Y-115680095D01*
X141196616Y-115737547D01*
X140909354Y-115737547D01*
X140794450Y-115680095D01*
X140736997Y-115622642D01*
X138169811Y-127092547D02*
X138169811Y-125886047D01*
X138629430Y-125886047D01*
X138744335Y-125943500D01*
X138801788Y-126000952D01*
X138859240Y-126115857D01*
X138859240Y-126288214D01*
X138801788Y-126403119D01*
X138744335Y-126460571D01*
X138629430Y-126518023D01*
X138169811Y-126518023D01*
X139548669Y-127092547D02*
X139433764Y-127035095D01*
X139376311Y-126977642D01*
X139318859Y-126862738D01*
X139318859Y-126518023D01*
X139376311Y-126403119D01*
X139433764Y-126345666D01*
X139548669Y-126288214D01*
X139721026Y-126288214D01*
X139835930Y-126345666D01*
X139893383Y-126403119D01*
X139950835Y-126518023D01*
X139950835Y-126862738D01*
X139893383Y-126977642D01*
X139835930Y-127035095D01*
X139721026Y-127092547D01*
X139548669Y-127092547D01*
X140353002Y-126288214D02*
X140582811Y-127092547D01*
X140812621Y-126518023D01*
X141042430Y-127092547D01*
X141272240Y-126288214D01*
X142191478Y-127035095D02*
X142076573Y-127092547D01*
X141846764Y-127092547D01*
X141731859Y-127035095D01*
X141674407Y-126920190D01*
X141674407Y-126460571D01*
X141731859Y-126345666D01*
X141846764Y-126288214D01*
X142076573Y-126288214D01*
X142191478Y-126345666D01*
X142248930Y-126460571D01*
X142248930Y-126575476D01*
X141674407Y-126690380D01*
X142766002Y-127092547D02*
X142766002Y-126288214D01*
X142766002Y-126518023D02*
X142823454Y-126403119D01*
X142880907Y-126345666D01*
X142995811Y-126288214D01*
X143110716Y-126288214D01*
X143512883Y-126632928D02*
X144432121Y-126632928D01*
X144949192Y-127035095D02*
X145121550Y-127092547D01*
X145408811Y-127092547D01*
X145523716Y-127035095D01*
X145581169Y-126977642D01*
X145638621Y-126862738D01*
X145638621Y-126747833D01*
X145581169Y-126632928D01*
X145523716Y-126575476D01*
X145408811Y-126518023D01*
X145179002Y-126460571D01*
X145064097Y-126403119D01*
X145006645Y-126345666D01*
X144949192Y-126230761D01*
X144949192Y-126115857D01*
X145006645Y-126000952D01*
X145064097Y-125943500D01*
X145179002Y-125886047D01*
X145466264Y-125886047D01*
X145638621Y-125943500D01*
X146672764Y-126288214D02*
X146672764Y-127092547D01*
X146155692Y-126288214D02*
X146155692Y-126920190D01*
X146213145Y-127035095D01*
X146328050Y-127092547D01*
X146500407Y-127092547D01*
X146615311Y-127035095D01*
X146672764Y-126977642D01*
X147247288Y-126288214D02*
X147247288Y-127494714D01*
X147247288Y-126345666D02*
X147362192Y-126288214D01*
X147592002Y-126288214D01*
X147706907Y-126345666D01*
X147764359Y-126403119D01*
X147821811Y-126518023D01*
X147821811Y-126862738D01*
X147764359Y-126977642D01*
X147706907Y-127035095D01*
X147592002Y-127092547D01*
X147362192Y-127092547D01*
X147247288Y-127035095D01*
X148338883Y-126288214D02*
X148338883Y-127494714D01*
X148338883Y-126345666D02*
X148453788Y-126288214D01*
X148683597Y-126288214D01*
X148798502Y-126345666D01*
X148855954Y-126403119D01*
X148913407Y-126518023D01*
X148913407Y-126862738D01*
X148855954Y-126977642D01*
X148798502Y-127035095D01*
X148683597Y-127092547D01*
X148453788Y-127092547D01*
X148338883Y-127035095D01*
X149602835Y-127092547D02*
X149487930Y-127035095D01*
X149430478Y-126920190D01*
X149430478Y-125886047D01*
X149947550Y-126288214D02*
X150234811Y-127092547D01*
X150522073Y-126288214D02*
X150234811Y-127092547D01*
X150119907Y-127379809D01*
X150062454Y-127437261D01*
X149947550Y-127494714D01*
X145169811Y-124682928D02*
X146089050Y-124682928D01*
X145629430Y-125142547D02*
X145629430Y-124223309D01*
X147295550Y-125142547D02*
X146606121Y-125142547D01*
X146950835Y-125142547D02*
X146950835Y-123936047D01*
X146835930Y-124108404D01*
X146721026Y-124223309D01*
X146606121Y-124280761D01*
X141769811Y-124682928D02*
X142689050Y-124682928D01*
X143206121Y-124050952D02*
X143263573Y-123993500D01*
X143378478Y-123936047D01*
X143665740Y-123936047D01*
X143780645Y-123993500D01*
X143838097Y-124050952D01*
X143895550Y-124165857D01*
X143895550Y-124280761D01*
X143838097Y-124453119D01*
X143148669Y-125142547D01*
X143895550Y-125142547D01*
D10*
X134488095Y-141102380D02*
X134488095Y-141911904D01*
X134535714Y-142007142D01*
X134583333Y-142054761D01*
X134678571Y-142102380D01*
X134869047Y-142102380D01*
X134964285Y-142054761D01*
X135011904Y-142007142D01*
X135059523Y-141911904D01*
X135059523Y-141102380D01*
X136059523Y-142102380D02*
X135488095Y-142102380D01*
X135773809Y-142102380D02*
X135773809Y-141102380D01*
X135678571Y-141245238D01*
X135583333Y-141340476D01*
X135488095Y-141388095D01*
X131538095Y-135602380D02*
X132204761Y-135602380D01*
X131776190Y-136602380D01*
X132442857Y-135602380D02*
X132776190Y-136602380D01*
X133109523Y-135602380D01*
X134204761Y-136602380D02*
X134204761Y-135602380D01*
X134442857Y-135602380D01*
X134585714Y-135650000D01*
X134680952Y-135745238D01*
X134728571Y-135840476D01*
X134776190Y-136030952D01*
X134776190Y-136173809D01*
X134728571Y-136364285D01*
X134680952Y-136459523D01*
X134585714Y-136554761D01*
X134442857Y-136602380D01*
X134204761Y-136602380D01*
X135776190Y-136507142D02*
X135728571Y-136554761D01*
X135585714Y-136602380D01*
X135490476Y-136602380D01*
X135347619Y-136554761D01*
X135252380Y-136459523D01*
X135204761Y-136364285D01*
X135157142Y-136173809D01*
X135157142Y-136030952D01*
X135204761Y-135840476D01*
X135252380Y-135745238D01*
X135347619Y-135650000D01*
X135490476Y-135602380D01*
X135585714Y-135602380D01*
X135728571Y-135650000D01*
X135776190Y-135697619D01*
X136204761Y-136221428D02*
X136966666Y-136221428D01*
X137442857Y-136602380D02*
X137442857Y-135602380D01*
X137680952Y-135602380D01*
X137823809Y-135650000D01*
X137919047Y-135745238D01*
X137966666Y-135840476D01*
X138014285Y-136030952D01*
X138014285Y-136173809D01*
X137966666Y-136364285D01*
X137919047Y-136459523D01*
X137823809Y-136554761D01*
X137680952Y-136602380D01*
X137442857Y-136602380D01*
X139014285Y-136507142D02*
X138966666Y-136554761D01*
X138823809Y-136602380D01*
X138728571Y-136602380D01*
X138585714Y-136554761D01*
X138490476Y-136459523D01*
X138442857Y-136364285D01*
X138395238Y-136173809D01*
X138395238Y-136030952D01*
X138442857Y-135840476D01*
X138490476Y-135745238D01*
X138585714Y-135650000D01*
X138728571Y-135602380D01*
X138823809Y-135602380D01*
X138966666Y-135650000D01*
X139014285Y-135697619D01*
X148607142Y-93466666D02*
X148654761Y-93514285D01*
X148702380Y-93657142D01*
X148702380Y-93752380D01*
X148654761Y-93895238D01*
X148559523Y-93990476D01*
X148464285Y-94038095D01*
X148273809Y-94085714D01*
X148130952Y-94085714D01*
X147940476Y-94038095D01*
X147845238Y-93990476D01*
X147750000Y-93895238D01*
X147702380Y-93752380D01*
X147702380Y-93657142D01*
X147750000Y-93514285D01*
X147797619Y-93466666D01*
X147702380Y-93133333D02*
X147702380Y-92514285D01*
X148083333Y-92847619D01*
X148083333Y-92704761D01*
X148130952Y-92609523D01*
X148178571Y-92561904D01*
X148273809Y-92514285D01*
X148511904Y-92514285D01*
X148607142Y-92561904D01*
X148654761Y-92609523D01*
X148702380Y-92704761D01*
X148702380Y-92990476D01*
X148654761Y-93085714D01*
X148607142Y-93133333D01*
X151402380Y-94466666D02*
X151402380Y-94657142D01*
X151450000Y-94752380D01*
X151497619Y-94800000D01*
X151640476Y-94895238D01*
X151830952Y-94942857D01*
X152211904Y-94942857D01*
X152307142Y-94895238D01*
X152354761Y-94847619D01*
X152402380Y-94752380D01*
X152402380Y-94561904D01*
X152354761Y-94466666D01*
X152307142Y-94419047D01*
X152211904Y-94371428D01*
X151973809Y-94371428D01*
X151878571Y-94419047D01*
X151830952Y-94466666D01*
X151783333Y-94561904D01*
X151783333Y-94752380D01*
X151830952Y-94847619D01*
X151878571Y-94895238D01*
X151973809Y-94942857D01*
X151830952Y-93800000D02*
X151783333Y-93895238D01*
X151735714Y-93942857D01*
X151640476Y-93990476D01*
X151592857Y-93990476D01*
X151497619Y-93942857D01*
X151450000Y-93895238D01*
X151402380Y-93800000D01*
X151402380Y-93609523D01*
X151450000Y-93514285D01*
X151497619Y-93466666D01*
X151592857Y-93419047D01*
X151640476Y-93419047D01*
X151735714Y-93466666D01*
X151783333Y-93514285D01*
X151830952Y-93609523D01*
X151830952Y-93800000D01*
X151878571Y-93895238D01*
X151926190Y-93942857D01*
X152021428Y-93990476D01*
X152211904Y-93990476D01*
X152307142Y-93942857D01*
X152354761Y-93895238D01*
X152402380Y-93800000D01*
X152402380Y-93609523D01*
X152354761Y-93514285D01*
X152307142Y-93466666D01*
X152211904Y-93419047D01*
X152021428Y-93419047D01*
X151926190Y-93466666D01*
X151878571Y-93514285D01*
X151830952Y-93609523D01*
X151735714Y-92990476D02*
X152402380Y-92990476D01*
X151830952Y-92990476D02*
X151783333Y-92942857D01*
X151735714Y-92847619D01*
X151735714Y-92704761D01*
X151783333Y-92609523D01*
X151878571Y-92561904D01*
X152402380Y-92561904D01*
X151878571Y-91752380D02*
X151878571Y-92085714D01*
X152402380Y-92085714D02*
X151402380Y-92085714D01*
X151402380Y-91609523D01*
M02*
