G04 #@! TF.GenerationSoftware,KiCad,Pcbnew,(5.0.0-rc2-dev-406-g05dae9627)*
G04 #@! TF.CreationDate,2018-06-28T11:49:25+02:00*
G04 #@! TF.ProjectId,Nucleo-F746,4E75636C656F2D463734362E6B696361,rev?*
G04 #@! TF.SameCoordinates,Original*
G04 #@! TF.FileFunction,Soldermask,Bot*
G04 #@! TF.FilePolarity,Negative*
%FSLAX46Y46*%
G04 Gerber Fmt 4.6, Leading zero omitted, Abs format (unit mm)*
G04 Created by KiCad (PCBNEW (5.0.0-rc2-dev-406-g05dae9627)) date 06/28/18 11:49:25*
%MOMM*%
%LPD*%
G01*
G04 APERTURE LIST*
%ADD10R,2.000000X2.000000*%
%ADD11O,2.000000X2.000000*%
%ADD12O,1.924000X3.448000*%
%ADD13R,3.400000X3.400000*%
%ADD14C,3.400000*%
%ADD15R,2.200000X2.200000*%
%ADD16C,2.200000*%
G04 APERTURE END LIST*
D10*
X135800000Y-67500000D03*
D11*
X118020000Y-80200000D03*
X133260000Y-67500000D03*
X120560000Y-80200000D03*
X130720000Y-67500000D03*
X123100000Y-80200000D03*
X128180000Y-67500000D03*
X125640000Y-80200000D03*
X125640000Y-67500000D03*
X128180000Y-80200000D03*
X123100000Y-67500000D03*
X130720000Y-80200000D03*
X120560000Y-67500000D03*
X133260000Y-80200000D03*
X118020000Y-67500000D03*
X135800000Y-80200000D03*
D12*
X131468400Y-103340000D03*
X126464600Y-103340000D03*
X123950000Y-103340000D03*
X121435400Y-103340000D03*
X128953800Y-103340000D03*
X118946200Y-103340000D03*
X116431600Y-103340000D03*
X122590800Y-88090000D03*
X125105400Y-88090000D03*
X127594600Y-88090000D03*
X130109200Y-88090000D03*
X116431600Y-116690000D03*
X118946200Y-116690000D03*
X128953800Y-116690000D03*
X121435400Y-116690000D03*
X123950000Y-116690000D03*
X126464600Y-116690000D03*
X131468400Y-116690000D03*
X143344600Y-120240000D03*
X145859200Y-120240000D03*
D13*
X115500000Y-147200000D03*
X155100000Y-147200000D03*
D14*
X115500000Y-130100000D03*
X155100000Y-130100000D03*
D15*
X108251100Y-67983600D03*
D16*
X108251100Y-70523600D03*
X108251100Y-73063600D03*
X108251100Y-75603600D03*
X108251100Y-78143600D03*
X108251100Y-80683600D03*
X108251100Y-83223600D03*
X108251100Y-85763600D03*
X110791100Y-67983600D03*
X110791100Y-70523600D03*
X110791100Y-73063600D03*
X110791100Y-75603600D03*
X110791100Y-78143600D03*
X110791100Y-80683600D03*
X110791100Y-83223600D03*
X110791100Y-85763600D03*
D15*
X108251100Y-90843600D03*
D16*
X108251100Y-93383600D03*
X108251100Y-95923600D03*
X108251100Y-98463600D03*
X108251100Y-101003600D03*
X108251100Y-103543600D03*
X108251100Y-106083600D03*
X108251100Y-108623600D03*
X108251100Y-111163600D03*
X108251100Y-113703600D03*
X108251100Y-116243600D03*
X108251100Y-118783600D03*
X108251100Y-121323600D03*
X108251100Y-123863600D03*
X108251100Y-126403600D03*
X110791100Y-90843600D03*
X110791100Y-93383600D03*
X110791100Y-95923600D03*
X110791100Y-98463600D03*
X110791100Y-101003600D03*
X110791100Y-103543600D03*
X110791100Y-106083600D03*
X110791100Y-108623600D03*
X110791100Y-111163600D03*
X110791100Y-113703600D03*
X110791100Y-116243600D03*
X110791100Y-118783600D03*
X110791100Y-121323600D03*
X110791100Y-123863600D03*
X110791100Y-126403600D03*
D15*
X153971100Y-85763600D03*
D16*
X153971100Y-88303600D03*
X153971100Y-90843600D03*
X153971100Y-93383600D03*
X153971100Y-95923600D03*
X153971100Y-98463600D03*
X153971100Y-101003600D03*
X153971100Y-103543600D03*
X153971100Y-106083600D03*
X153971100Y-108623600D03*
X153971100Y-111163600D03*
X153971100Y-113703600D03*
X153971100Y-116243600D03*
X153971100Y-118783600D03*
X153971100Y-121323600D03*
X153971100Y-123863600D03*
X153971100Y-126403600D03*
X156511100Y-85763600D03*
X156511100Y-88303600D03*
X156511100Y-90843600D03*
X156511100Y-93383600D03*
X156511100Y-95923600D03*
X156511100Y-98463600D03*
X156511100Y-101003600D03*
X156511100Y-103543600D03*
X156511100Y-106083600D03*
X156511100Y-108623600D03*
X156511100Y-111163600D03*
X156511100Y-113703600D03*
X156511100Y-116243600D03*
X156511100Y-118783600D03*
X156511100Y-121323600D03*
X156511100Y-123863600D03*
X156511100Y-126403600D03*
D15*
X153971100Y-58839600D03*
D16*
X153971100Y-61379600D03*
X153971100Y-63919600D03*
X153971100Y-66459600D03*
X153971100Y-68999600D03*
X153971100Y-71539600D03*
X153971100Y-74079600D03*
X153971100Y-76619600D03*
X153971100Y-79159600D03*
X153971100Y-81699600D03*
X156511100Y-58839600D03*
X156511100Y-61379600D03*
X156511100Y-63919600D03*
X156511100Y-66459600D03*
X156511100Y-68999600D03*
X156511100Y-71539600D03*
X156511100Y-74079600D03*
X156511100Y-76619600D03*
X156511100Y-79159600D03*
X156511100Y-81699600D03*
M02*
