G04 #@! TF.GenerationSoftware,KiCad,Pcbnew,(5.0.0-rc2-dev-406-g05dae9627)*
G04 #@! TF.CreationDate,2018-06-28T11:49:25+02:00*
G04 #@! TF.ProjectId,Nucleo-F746,4E75636C656F2D463734362E6B696361,rev?*
G04 #@! TF.SameCoordinates,Original*
G04 #@! TF.FileFunction,Copper,L1,Top,Signal*
G04 #@! TF.FilePolarity,Positive*
%FSLAX46Y46*%
G04 Gerber Fmt 4.6, Leading zero omitted, Abs format (unit mm)*
G04 Created by KiCad (PCBNEW (5.0.0-rc2-dev-406-g05dae9627)) date 06/28/18 11:49:25*
%MOMM*%
%LPD*%
G01*
G04 APERTURE LIST*
%ADD10R,1.600000X1.600000*%
%ADD11O,1.600000X1.600000*%
%ADD12C,0.700000*%
%ADD13R,1.500000X0.970000*%
%ADD14O,1.524000X3.048000*%
%ADD15R,3.000000X3.000000*%
%ADD16C,3.000000*%
%ADD17R,1.800000X1.800000*%
%ADD18C,1.800000*%
%ADD19C,0.800000*%
%ADD20C,0.250000*%
%ADD21C,0.254000*%
G04 APERTURE END LIST*
D10*
X135800000Y-67500000D03*
D11*
X118020000Y-80200000D03*
X133260000Y-67500000D03*
X120560000Y-80200000D03*
X130720000Y-67500000D03*
X123100000Y-80200000D03*
X128180000Y-67500000D03*
X125640000Y-80200000D03*
X125640000Y-67500000D03*
X128180000Y-80200000D03*
X123100000Y-67500000D03*
X130720000Y-80200000D03*
X120560000Y-67500000D03*
X133260000Y-80200000D03*
X118020000Y-67500000D03*
X135800000Y-80200000D03*
D12*
X119000000Y-64600000D03*
X130700000Y-60300000D03*
X126600000Y-60500000D03*
X118500000Y-60500000D03*
X111800000Y-60500000D03*
X115800000Y-93600000D03*
X117300000Y-109600000D03*
X143300000Y-107100000D03*
X136800000Y-101800000D03*
X139900000Y-101800000D03*
X149700000Y-122300000D03*
X146100000Y-130400000D03*
X137700000Y-119800000D03*
X118500000Y-121700000D03*
X129000000Y-121900000D03*
X134000000Y-125900000D03*
X122300000Y-125900000D03*
X119300000Y-134400000D03*
X126400000Y-134800000D03*
X132400000Y-135100000D03*
X141300000Y-145600000D03*
X136800000Y-145700000D03*
X131300000Y-145700000D03*
X127800000Y-145700000D03*
X114300000Y-86200000D03*
X146200000Y-61450000D03*
X144300000Y-66750000D03*
X125650000Y-80850000D03*
X138250000Y-94150000D03*
D13*
X150050000Y-98045000D03*
X150050000Y-99955000D03*
X150000000Y-103905000D03*
X150000000Y-101995000D03*
D14*
X131468400Y-103340000D03*
X126464600Y-103340000D03*
X123950000Y-103340000D03*
X121435400Y-103340000D03*
X128953800Y-103340000D03*
X118946200Y-103340000D03*
X116431600Y-103340000D03*
X122590800Y-88090000D03*
X125105400Y-88090000D03*
X127594600Y-88090000D03*
X130109200Y-88090000D03*
X116431600Y-116690000D03*
X118946200Y-116690000D03*
X128953800Y-116690000D03*
X121435400Y-116690000D03*
X123950000Y-116690000D03*
X126464600Y-116690000D03*
X131468400Y-116690000D03*
X143344600Y-120240000D03*
X145859200Y-120240000D03*
D15*
X115500000Y-147200000D03*
X155100000Y-147200000D03*
D16*
X115500000Y-130100000D03*
X155100000Y-130100000D03*
D17*
X108251100Y-67983600D03*
D18*
X108251100Y-70523600D03*
X108251100Y-73063600D03*
X108251100Y-75603600D03*
X108251100Y-78143600D03*
X108251100Y-80683600D03*
X108251100Y-83223600D03*
X108251100Y-85763600D03*
X110791100Y-67983600D03*
X110791100Y-70523600D03*
X110791100Y-73063600D03*
X110791100Y-75603600D03*
X110791100Y-78143600D03*
X110791100Y-80683600D03*
X110791100Y-83223600D03*
X110791100Y-85763600D03*
D17*
X108251100Y-90843600D03*
D18*
X108251100Y-93383600D03*
X108251100Y-95923600D03*
X108251100Y-98463600D03*
X108251100Y-101003600D03*
X108251100Y-103543600D03*
X108251100Y-106083600D03*
X108251100Y-108623600D03*
X108251100Y-111163600D03*
X108251100Y-113703600D03*
X108251100Y-116243600D03*
X108251100Y-118783600D03*
X108251100Y-121323600D03*
X108251100Y-123863600D03*
X108251100Y-126403600D03*
X110791100Y-90843600D03*
X110791100Y-93383600D03*
X110791100Y-95923600D03*
X110791100Y-98463600D03*
X110791100Y-101003600D03*
X110791100Y-103543600D03*
X110791100Y-106083600D03*
X110791100Y-108623600D03*
X110791100Y-111163600D03*
X110791100Y-113703600D03*
X110791100Y-116243600D03*
X110791100Y-118783600D03*
X110791100Y-121323600D03*
X110791100Y-123863600D03*
X110791100Y-126403600D03*
D17*
X153971100Y-85763600D03*
D18*
X153971100Y-88303600D03*
X153971100Y-90843600D03*
X153971100Y-93383600D03*
X153971100Y-95923600D03*
X153971100Y-98463600D03*
X153971100Y-101003600D03*
X153971100Y-103543600D03*
X153971100Y-106083600D03*
X153971100Y-108623600D03*
X153971100Y-111163600D03*
X153971100Y-113703600D03*
X153971100Y-116243600D03*
X153971100Y-118783600D03*
X153971100Y-121323600D03*
X153971100Y-123863600D03*
X153971100Y-126403600D03*
X156511100Y-85763600D03*
X156511100Y-88303600D03*
X156511100Y-90843600D03*
X156511100Y-93383600D03*
X156511100Y-95923600D03*
X156511100Y-98463600D03*
X156511100Y-101003600D03*
X156511100Y-103543600D03*
X156511100Y-106083600D03*
X156511100Y-108623600D03*
X156511100Y-111163600D03*
X156511100Y-113703600D03*
X156511100Y-116243600D03*
X156511100Y-118783600D03*
X156511100Y-121323600D03*
X156511100Y-123863600D03*
X156511100Y-126403600D03*
D17*
X153971100Y-58839600D03*
D18*
X153971100Y-61379600D03*
X153971100Y-63919600D03*
X153971100Y-66459600D03*
X153971100Y-68999600D03*
X153971100Y-71539600D03*
X153971100Y-74079600D03*
X153971100Y-76619600D03*
X153971100Y-79159600D03*
X153971100Y-81699600D03*
X156511100Y-58839600D03*
X156511100Y-61379600D03*
X156511100Y-63919600D03*
X156511100Y-66459600D03*
X156511100Y-68999600D03*
X156511100Y-71539600D03*
X156511100Y-74079600D03*
X156511100Y-76619600D03*
X156511100Y-79159600D03*
X156511100Y-81699600D03*
D12*
X148450000Y-85250000D03*
D13*
X150100000Y-94255000D03*
X150100000Y-92345000D03*
D19*
X152000000Y-94300000D03*
X144250000Y-96300000D03*
X147594135Y-74494135D03*
X137050000Y-81900000D03*
D20*
X134995000Y-98045000D02*
X127594600Y-90644600D01*
X150050000Y-98045000D02*
X134995000Y-98045000D01*
X127594600Y-90644600D02*
X127594600Y-88090000D01*
X152605000Y-99600000D02*
X151050000Y-98045000D01*
X153294498Y-99600000D02*
X152605000Y-99600000D01*
X153383099Y-99688601D02*
X153294498Y-99600000D01*
X154559101Y-99688601D02*
X153383099Y-99688601D01*
X156511100Y-98463600D02*
X155784102Y-98463600D01*
X155784102Y-98463600D02*
X154559101Y-99688601D01*
X151050000Y-98045000D02*
X150050000Y-98045000D01*
X152000000Y-94300000D02*
X150145000Y-94300000D01*
X150145000Y-94300000D02*
X150100000Y-94255000D01*
X136040000Y-88090000D02*
X144250000Y-96300000D01*
X130109200Y-88090000D02*
X136040000Y-88090000D01*
X149050000Y-99955000D02*
X148600000Y-100405000D01*
X150050000Y-99955000D02*
X149050000Y-99955000D01*
X148600000Y-100405000D02*
X148600000Y-102770000D01*
X148600000Y-102770000D02*
X149735000Y-103905000D01*
X149735000Y-103905000D02*
X150000000Y-103905000D01*
X150000000Y-103905000D02*
X151000000Y-103905000D01*
X151000000Y-103905000D02*
X151863601Y-104768601D01*
X151863601Y-104768601D02*
X155286099Y-104768601D01*
X155286099Y-104768601D02*
X155611101Y-104443599D01*
X155611101Y-104443599D02*
X156511100Y-103543600D01*
X145849998Y-98500000D02*
X134753400Y-98500000D01*
X151125001Y-101134999D02*
X151125001Y-98950000D01*
X146299998Y-98950000D02*
X145849998Y-98500000D01*
X150265000Y-101995000D02*
X151125001Y-101134999D01*
X151125001Y-98950000D02*
X146299998Y-98950000D01*
X150000000Y-101995000D02*
X150265000Y-101995000D01*
X134753400Y-98500000D02*
X125105400Y-88852000D01*
X125105400Y-88852000D02*
X125105400Y-88090000D01*
X150000000Y-101995000D02*
X153149498Y-101995000D01*
X153149498Y-101995000D02*
X153383099Y-102228601D01*
X153383099Y-102228601D02*
X155286099Y-102228601D01*
X155286099Y-102228601D02*
X155611101Y-101903599D01*
X155611101Y-101903599D02*
X156511100Y-101003600D01*
X134059999Y-79400001D02*
X133260000Y-80200000D01*
X143235399Y-70224601D02*
X134059999Y-79400001D01*
X155286099Y-70224601D02*
X143235399Y-70224601D01*
X156511100Y-68999600D02*
X155286099Y-70224601D01*
X116282001Y-76918599D02*
X109476101Y-76918599D01*
X109476101Y-76918599D02*
X109151099Y-77243601D01*
X109151099Y-77243601D02*
X108251100Y-78143600D01*
X131468400Y-102578000D02*
X119588600Y-90698200D01*
X131468400Y-103340000D02*
X131468400Y-102578000D01*
X131468400Y-103340000D02*
X131468400Y-105114000D01*
X131468400Y-105114000D02*
X131468400Y-116690000D01*
X108251100Y-80683600D02*
X109566099Y-81998599D01*
X109566099Y-81998599D02*
X111379101Y-81998599D01*
X111379101Y-81998599D02*
X114300000Y-84919498D01*
X114300000Y-84919498D02*
X114300000Y-85705026D01*
X114300000Y-85705026D02*
X114300000Y-86200000D01*
X108251100Y-83223600D02*
X109566099Y-84538599D01*
X109566099Y-84538599D02*
X112638599Y-84538599D01*
X112638599Y-84538599D02*
X113950001Y-85850001D01*
X113950001Y-85850001D02*
X114300000Y-86200000D01*
X156511100Y-74079600D02*
X155286099Y-75304601D01*
X155286099Y-75304601D02*
X148404601Y-75304601D01*
X148404601Y-75304601D02*
X147994134Y-74894134D01*
X147994134Y-74894134D02*
X147594135Y-74494135D01*
X150100000Y-92345000D02*
X147495000Y-92345000D01*
X147495000Y-92345000D02*
X147308599Y-92158599D01*
X155286099Y-92158599D02*
X151286401Y-92158599D01*
X151286401Y-92158599D02*
X151100000Y-92345000D01*
X151100000Y-92345000D02*
X150100000Y-92345000D01*
X156511100Y-93383600D02*
X155286099Y-92158599D01*
X147308599Y-92158599D02*
X137050000Y-81900000D01*
X153971100Y-113703600D02*
X136754064Y-113703600D01*
X136754064Y-113703600D02*
X131918654Y-118539010D01*
X131918654Y-118539010D02*
X117518610Y-118539010D01*
X117518610Y-118539010D02*
X116431600Y-117452000D01*
X116431600Y-117452000D02*
X116431600Y-116690000D01*
X145859200Y-120240000D02*
X145859200Y-122014000D01*
X145859200Y-122014000D02*
X137773200Y-130100000D01*
X137773200Y-130100000D02*
X117621320Y-130100000D01*
X117621320Y-130100000D02*
X115500000Y-130100000D01*
X107026099Y-122576099D02*
X107026099Y-129276099D01*
X106979010Y-122529010D02*
X107026099Y-122576099D01*
X106979010Y-88470990D02*
X106979010Y-122529010D01*
X107026099Y-129276099D02*
X115450000Y-137700000D01*
X107351101Y-88098899D02*
X106979010Y-88470990D01*
X108251100Y-85763600D02*
X107351101Y-86663599D01*
X107351101Y-86663599D02*
X107351101Y-88098899D01*
X115450000Y-137700000D02*
X147500000Y-137700000D01*
X147500000Y-137700000D02*
X155100000Y-130100000D01*
D21*
G36*
X118828600Y-90623353D02*
X118813712Y-90698200D01*
X118828600Y-90773047D01*
X118828600Y-90773051D01*
X118872696Y-90994736D01*
X119040671Y-91246129D01*
X119104130Y-91288531D01*
X129132543Y-101316945D01*
X129080800Y-101346280D01*
X129080800Y-103213000D01*
X129100800Y-103213000D01*
X129100800Y-103467000D01*
X129080800Y-103467000D01*
X129080800Y-105333720D01*
X129296870Y-105456220D01*
X129371077Y-105441260D01*
X129851826Y-105179630D01*
X130195859Y-104753941D01*
X130204438Y-104724877D01*
X130461221Y-105109180D01*
X130708400Y-105274340D01*
X130708401Y-114755660D01*
X130461220Y-114920821D01*
X130204438Y-115305123D01*
X130195859Y-115276059D01*
X129851826Y-114850370D01*
X129371077Y-114588740D01*
X129296870Y-114573780D01*
X129080800Y-114696280D01*
X129080800Y-116563000D01*
X129100800Y-116563000D01*
X129100800Y-116817000D01*
X129080800Y-116817000D01*
X129080800Y-116837000D01*
X128826800Y-116837000D01*
X128826800Y-116817000D01*
X128806800Y-116817000D01*
X128806800Y-116563000D01*
X128826800Y-116563000D01*
X128826800Y-114696280D01*
X128610730Y-114573780D01*
X128536523Y-114588740D01*
X128055774Y-114850370D01*
X127711741Y-115276059D01*
X127710945Y-115278756D01*
X127471779Y-114920820D01*
X127009681Y-114612056D01*
X126464600Y-114503632D01*
X125919518Y-114612056D01*
X125457420Y-114920821D01*
X125207300Y-115295152D01*
X124957179Y-114920820D01*
X124495081Y-114612056D01*
X123950000Y-114503632D01*
X123404918Y-114612056D01*
X122942820Y-114920821D01*
X122692700Y-115295152D01*
X122442579Y-114920820D01*
X121980481Y-114612056D01*
X121435400Y-114503632D01*
X120890318Y-114612056D01*
X120428220Y-114920821D01*
X120190800Y-115276145D01*
X119953379Y-114920820D01*
X119491281Y-114612056D01*
X118946200Y-114503632D01*
X118401118Y-114612056D01*
X117939020Y-114920821D01*
X117688900Y-115295152D01*
X117438779Y-114920820D01*
X116976681Y-114612056D01*
X116431600Y-114503632D01*
X115886518Y-114612056D01*
X115424420Y-114920821D01*
X115115656Y-115382919D01*
X115034600Y-115790413D01*
X115034600Y-117589588D01*
X115115657Y-117997082D01*
X115424421Y-118459180D01*
X115886519Y-118767944D01*
X116431600Y-118876368D01*
X116723169Y-118818371D01*
X116928281Y-119023483D01*
X116970681Y-119086939D01*
X117222073Y-119254914D01*
X117443758Y-119299010D01*
X117443762Y-119299010D01*
X117518609Y-119313898D01*
X117593456Y-119299010D01*
X131843807Y-119299010D01*
X131918654Y-119313898D01*
X131993501Y-119299010D01*
X131993506Y-119299010D01*
X132215191Y-119254914D01*
X132466583Y-119086939D01*
X132508985Y-119023480D01*
X137068867Y-114463600D01*
X152624431Y-114463600D01*
X152669790Y-114573107D01*
X153070283Y-114973600D01*
X152669790Y-115374093D01*
X152436100Y-115938270D01*
X152436100Y-116548930D01*
X152669790Y-117113107D01*
X153070283Y-117513600D01*
X152669790Y-117914093D01*
X152436100Y-118478270D01*
X152436100Y-119088930D01*
X152669790Y-119653107D01*
X153070283Y-120053600D01*
X152669790Y-120454093D01*
X152436100Y-121018270D01*
X152436100Y-121628930D01*
X152669790Y-122193107D01*
X153070283Y-122593600D01*
X152669790Y-122994093D01*
X152436100Y-123558270D01*
X152436100Y-124168930D01*
X152669790Y-124733107D01*
X153070283Y-125133600D01*
X152669790Y-125534093D01*
X152436100Y-126098270D01*
X152436100Y-126708930D01*
X152669790Y-127273107D01*
X153101593Y-127704910D01*
X153665770Y-127938600D01*
X154276430Y-127938600D01*
X154840607Y-127704910D01*
X155241100Y-127304417D01*
X155641593Y-127704910D01*
X156205770Y-127938600D01*
X156816430Y-127938600D01*
X157265000Y-127752796D01*
X157265000Y-149265000D01*
X156895304Y-149265000D01*
X156959698Y-149238327D01*
X157138327Y-149059699D01*
X157235000Y-148826310D01*
X157235000Y-147485750D01*
X157076250Y-147327000D01*
X155227000Y-147327000D01*
X155227000Y-147347000D01*
X154973000Y-147347000D01*
X154973000Y-147327000D01*
X153123750Y-147327000D01*
X152965000Y-147485750D01*
X152965000Y-148826310D01*
X153061673Y-149059699D01*
X153240302Y-149238327D01*
X153304696Y-149265000D01*
X117295304Y-149265000D01*
X117359698Y-149238327D01*
X117538327Y-149059699D01*
X117635000Y-148826310D01*
X117635000Y-147485750D01*
X117476250Y-147327000D01*
X115627000Y-147327000D01*
X115627000Y-147347000D01*
X115373000Y-147347000D01*
X115373000Y-147327000D01*
X113523750Y-147327000D01*
X113365000Y-147485750D01*
X113365000Y-148826310D01*
X113461673Y-149059699D01*
X113640302Y-149238327D01*
X113704696Y-149265000D01*
X107235000Y-149265000D01*
X107235000Y-145573690D01*
X113365000Y-145573690D01*
X113365000Y-146914250D01*
X113523750Y-147073000D01*
X115373000Y-147073000D01*
X115373000Y-145223750D01*
X115627000Y-145223750D01*
X115627000Y-147073000D01*
X117476250Y-147073000D01*
X117635000Y-146914250D01*
X117635000Y-145573690D01*
X152965000Y-145573690D01*
X152965000Y-146914250D01*
X153123750Y-147073000D01*
X154973000Y-147073000D01*
X154973000Y-145223750D01*
X155227000Y-145223750D01*
X155227000Y-147073000D01*
X157076250Y-147073000D01*
X157235000Y-146914250D01*
X157235000Y-145573690D01*
X157138327Y-145340301D01*
X156959698Y-145161673D01*
X156726309Y-145065000D01*
X155385750Y-145065000D01*
X155227000Y-145223750D01*
X154973000Y-145223750D01*
X154814250Y-145065000D01*
X153473691Y-145065000D01*
X153240302Y-145161673D01*
X153061673Y-145340301D01*
X152965000Y-145573690D01*
X117635000Y-145573690D01*
X117538327Y-145340301D01*
X117359698Y-145161673D01*
X117126309Y-145065000D01*
X115785750Y-145065000D01*
X115627000Y-145223750D01*
X115373000Y-145223750D01*
X115214250Y-145065000D01*
X113873691Y-145065000D01*
X113640302Y-145161673D01*
X113461673Y-145340301D01*
X113365000Y-145573690D01*
X107235000Y-145573690D01*
X107235000Y-130559801D01*
X114859671Y-138184473D01*
X114902071Y-138247929D01*
X115153463Y-138415904D01*
X115375148Y-138460000D01*
X115375152Y-138460000D01*
X115449999Y-138474888D01*
X115524846Y-138460000D01*
X147425153Y-138460000D01*
X147500000Y-138474888D01*
X147574847Y-138460000D01*
X147574852Y-138460000D01*
X147796537Y-138415904D01*
X148047929Y-138247929D01*
X148090331Y-138184470D01*
X154225941Y-132048861D01*
X154675322Y-132235000D01*
X155524678Y-132235000D01*
X156309380Y-131909966D01*
X156909966Y-131309380D01*
X157235000Y-130524678D01*
X157235000Y-129675322D01*
X156909966Y-128890620D01*
X156309380Y-128290034D01*
X155524678Y-127965000D01*
X154675322Y-127965000D01*
X153890620Y-128290034D01*
X153290034Y-128890620D01*
X152965000Y-129675322D01*
X152965000Y-130524678D01*
X153151139Y-130974059D01*
X147185199Y-136940000D01*
X115764802Y-136940000D01*
X108500124Y-129675322D01*
X113365000Y-129675322D01*
X113365000Y-130524678D01*
X113690034Y-131309380D01*
X114290620Y-131909966D01*
X115075322Y-132235000D01*
X115924678Y-132235000D01*
X116709380Y-131909966D01*
X117309966Y-131309380D01*
X117496105Y-130860000D01*
X137698353Y-130860000D01*
X137773200Y-130874888D01*
X137848047Y-130860000D01*
X137848052Y-130860000D01*
X138069737Y-130815904D01*
X138321129Y-130647929D01*
X138363531Y-130584470D01*
X146343673Y-122604329D01*
X146407129Y-122561929D01*
X146575104Y-122310537D01*
X146599589Y-122187444D01*
X146866380Y-122009180D01*
X147175144Y-121547082D01*
X147256200Y-121139588D01*
X147256200Y-119340412D01*
X147175144Y-118932918D01*
X146866379Y-118470820D01*
X146404281Y-118162056D01*
X145859200Y-118053632D01*
X145314118Y-118162056D01*
X144852020Y-118470821D01*
X144595238Y-118855123D01*
X144586659Y-118826059D01*
X144242626Y-118400370D01*
X143761877Y-118138740D01*
X143687670Y-118123780D01*
X143471600Y-118246280D01*
X143471600Y-120113000D01*
X143491600Y-120113000D01*
X143491600Y-120367000D01*
X143471600Y-120367000D01*
X143471600Y-122233720D01*
X143687670Y-122356220D01*
X143761877Y-122341260D01*
X144242626Y-122079630D01*
X144586659Y-121653941D01*
X144595238Y-121624877D01*
X144826866Y-121971532D01*
X137458399Y-129340000D01*
X117496105Y-129340000D01*
X117309966Y-128890620D01*
X116709380Y-128290034D01*
X115924678Y-127965000D01*
X115075322Y-127965000D01*
X114290620Y-128290034D01*
X113690034Y-128890620D01*
X113365000Y-129675322D01*
X108500124Y-129675322D01*
X107786099Y-128961298D01*
X107786099Y-127872462D01*
X107945770Y-127938600D01*
X108556430Y-127938600D01*
X109120607Y-127704910D01*
X109521100Y-127304417D01*
X109921593Y-127704910D01*
X110485770Y-127938600D01*
X111096430Y-127938600D01*
X111660607Y-127704910D01*
X112092410Y-127273107D01*
X112326100Y-126708930D01*
X112326100Y-126098270D01*
X112092410Y-125534093D01*
X111691917Y-125133600D01*
X112092410Y-124733107D01*
X112326100Y-124168930D01*
X112326100Y-123558270D01*
X112092410Y-122994093D01*
X111691917Y-122593600D01*
X112092410Y-122193107D01*
X112326100Y-121628930D01*
X112326100Y-121018270D01*
X112092410Y-120454093D01*
X112005317Y-120367000D01*
X141947600Y-120367000D01*
X141947600Y-121129000D01*
X142102541Y-121653941D01*
X142446574Y-122079630D01*
X142927323Y-122341260D01*
X143001530Y-122356220D01*
X143217600Y-122233720D01*
X143217600Y-120367000D01*
X141947600Y-120367000D01*
X112005317Y-120367000D01*
X111691917Y-120053600D01*
X112092410Y-119653107D01*
X112217546Y-119351000D01*
X141947600Y-119351000D01*
X141947600Y-120113000D01*
X143217600Y-120113000D01*
X143217600Y-118246280D01*
X143001530Y-118123780D01*
X142927323Y-118138740D01*
X142446574Y-118400370D01*
X142102541Y-118826059D01*
X141947600Y-119351000D01*
X112217546Y-119351000D01*
X112326100Y-119088930D01*
X112326100Y-118478270D01*
X112092410Y-117914093D01*
X111691917Y-117513600D01*
X112092410Y-117113107D01*
X112326100Y-116548930D01*
X112326100Y-115938270D01*
X112092410Y-115374093D01*
X111691917Y-114973600D01*
X112092410Y-114573107D01*
X112326100Y-114008930D01*
X112326100Y-113398270D01*
X112092410Y-112834093D01*
X111691917Y-112433600D01*
X112092410Y-112033107D01*
X112326100Y-111468930D01*
X112326100Y-110858270D01*
X112092410Y-110294093D01*
X111691917Y-109893600D01*
X112092410Y-109493107D01*
X112326100Y-108928930D01*
X112326100Y-108318270D01*
X112092410Y-107754093D01*
X111691917Y-107353600D01*
X112092410Y-106953107D01*
X112326100Y-106388930D01*
X112326100Y-105778270D01*
X112092410Y-105214093D01*
X111691917Y-104813600D01*
X112092410Y-104413107D01*
X112326100Y-103848930D01*
X112326100Y-103238270D01*
X112092410Y-102674093D01*
X111858730Y-102440413D01*
X115034600Y-102440413D01*
X115034600Y-104239588D01*
X115115657Y-104647082D01*
X115424421Y-105109180D01*
X115886519Y-105417944D01*
X116431600Y-105526368D01*
X116976682Y-105417944D01*
X117438780Y-105109180D01*
X117688901Y-104734848D01*
X117939021Y-105109180D01*
X118401119Y-105417944D01*
X118946200Y-105526368D01*
X119491282Y-105417944D01*
X119953380Y-105109180D01*
X120190801Y-104753855D01*
X120428221Y-105109180D01*
X120890319Y-105417944D01*
X121435400Y-105526368D01*
X121980482Y-105417944D01*
X122442580Y-105109180D01*
X122692701Y-104734848D01*
X122942821Y-105109180D01*
X123404919Y-105417944D01*
X123950000Y-105526368D01*
X124495082Y-105417944D01*
X124957180Y-105109180D01*
X125207301Y-104734848D01*
X125457421Y-105109180D01*
X125919519Y-105417944D01*
X126464600Y-105526368D01*
X127009682Y-105417944D01*
X127471780Y-105109180D01*
X127710945Y-104751244D01*
X127711741Y-104753941D01*
X128055774Y-105179630D01*
X128536523Y-105441260D01*
X128610730Y-105456220D01*
X128826800Y-105333720D01*
X128826800Y-103467000D01*
X128806800Y-103467000D01*
X128806800Y-103213000D01*
X128826800Y-103213000D01*
X128826800Y-101346280D01*
X128610730Y-101223780D01*
X128536523Y-101238740D01*
X128055774Y-101500370D01*
X127711741Y-101926059D01*
X127710945Y-101928756D01*
X127471779Y-101570820D01*
X127009681Y-101262056D01*
X126464600Y-101153632D01*
X125919518Y-101262056D01*
X125457420Y-101570821D01*
X125207300Y-101945152D01*
X124957179Y-101570820D01*
X124495081Y-101262056D01*
X123950000Y-101153632D01*
X123404918Y-101262056D01*
X122942820Y-101570821D01*
X122692700Y-101945152D01*
X122442579Y-101570820D01*
X121980481Y-101262056D01*
X121435400Y-101153632D01*
X120890318Y-101262056D01*
X120428220Y-101570821D01*
X120190800Y-101926145D01*
X119953379Y-101570820D01*
X119491281Y-101262056D01*
X118946200Y-101153632D01*
X118401118Y-101262056D01*
X117939020Y-101570821D01*
X117688900Y-101945152D01*
X117438779Y-101570820D01*
X116976681Y-101262056D01*
X116431600Y-101153632D01*
X115886518Y-101262056D01*
X115424420Y-101570821D01*
X115115656Y-102032919D01*
X115034600Y-102440413D01*
X111858730Y-102440413D01*
X111691917Y-102273600D01*
X112092410Y-101873107D01*
X112326100Y-101308930D01*
X112326100Y-100698270D01*
X112092410Y-100134093D01*
X111691917Y-99733600D01*
X112092410Y-99333107D01*
X112326100Y-98768930D01*
X112326100Y-98158270D01*
X112092410Y-97594093D01*
X111691917Y-97193600D01*
X112092410Y-96793107D01*
X112326100Y-96228930D01*
X112326100Y-95618270D01*
X112092410Y-95054093D01*
X111691917Y-94653600D01*
X112092410Y-94253107D01*
X112326100Y-93688930D01*
X112326100Y-93078270D01*
X112092410Y-92514093D01*
X111691917Y-92113600D01*
X112092410Y-91713107D01*
X112326100Y-91148930D01*
X112326100Y-90538270D01*
X112092410Y-89974093D01*
X111660607Y-89542290D01*
X111096430Y-89308600D01*
X110485770Y-89308600D01*
X109921593Y-89542290D01*
X109752375Y-89711508D01*
X109749257Y-89695835D01*
X109608909Y-89485791D01*
X109398865Y-89345443D01*
X109151100Y-89296160D01*
X107739010Y-89296160D01*
X107739010Y-88785791D01*
X107835571Y-88689230D01*
X107899030Y-88646828D01*
X108067005Y-88395436D01*
X108111101Y-88173751D01*
X108111101Y-88173747D01*
X108125989Y-88098900D01*
X108111101Y-88024053D01*
X108111101Y-87298600D01*
X108556430Y-87298600D01*
X109120607Y-87064910D01*
X109521100Y-86664417D01*
X109921593Y-87064910D01*
X110485770Y-87298600D01*
X111096430Y-87298600D01*
X111660607Y-87064910D01*
X112092410Y-86633107D01*
X112326100Y-86068930D01*
X112326100Y-85458270D01*
X112092410Y-84894093D01*
X111691917Y-84493600D01*
X112092410Y-84093107D01*
X112326100Y-83528930D01*
X112326100Y-82918270D01*
X112092410Y-82354093D01*
X111691917Y-81953600D01*
X112092410Y-81553107D01*
X112326100Y-80988930D01*
X112326100Y-80378270D01*
X112092410Y-79814093D01*
X111691917Y-79413600D01*
X112092410Y-79013107D01*
X112326100Y-78448930D01*
X112326100Y-77838270D01*
X112259962Y-77678599D01*
X116207154Y-77678599D01*
X116282001Y-77693487D01*
X116356848Y-77678599D01*
X116356853Y-77678599D01*
X116578538Y-77634503D01*
X116829930Y-77466528D01*
X116872332Y-77403069D01*
X118828601Y-75446801D01*
X118828600Y-90623353D01*
X118828600Y-90623353D01*
G37*
X118828600Y-90623353D02*
X118813712Y-90698200D01*
X118828600Y-90773047D01*
X118828600Y-90773051D01*
X118872696Y-90994736D01*
X119040671Y-91246129D01*
X119104130Y-91288531D01*
X129132543Y-101316945D01*
X129080800Y-101346280D01*
X129080800Y-103213000D01*
X129100800Y-103213000D01*
X129100800Y-103467000D01*
X129080800Y-103467000D01*
X129080800Y-105333720D01*
X129296870Y-105456220D01*
X129371077Y-105441260D01*
X129851826Y-105179630D01*
X130195859Y-104753941D01*
X130204438Y-104724877D01*
X130461221Y-105109180D01*
X130708400Y-105274340D01*
X130708401Y-114755660D01*
X130461220Y-114920821D01*
X130204438Y-115305123D01*
X130195859Y-115276059D01*
X129851826Y-114850370D01*
X129371077Y-114588740D01*
X129296870Y-114573780D01*
X129080800Y-114696280D01*
X129080800Y-116563000D01*
X129100800Y-116563000D01*
X129100800Y-116817000D01*
X129080800Y-116817000D01*
X129080800Y-116837000D01*
X128826800Y-116837000D01*
X128826800Y-116817000D01*
X128806800Y-116817000D01*
X128806800Y-116563000D01*
X128826800Y-116563000D01*
X128826800Y-114696280D01*
X128610730Y-114573780D01*
X128536523Y-114588740D01*
X128055774Y-114850370D01*
X127711741Y-115276059D01*
X127710945Y-115278756D01*
X127471779Y-114920820D01*
X127009681Y-114612056D01*
X126464600Y-114503632D01*
X125919518Y-114612056D01*
X125457420Y-114920821D01*
X125207300Y-115295152D01*
X124957179Y-114920820D01*
X124495081Y-114612056D01*
X123950000Y-114503632D01*
X123404918Y-114612056D01*
X122942820Y-114920821D01*
X122692700Y-115295152D01*
X122442579Y-114920820D01*
X121980481Y-114612056D01*
X121435400Y-114503632D01*
X120890318Y-114612056D01*
X120428220Y-114920821D01*
X120190800Y-115276145D01*
X119953379Y-114920820D01*
X119491281Y-114612056D01*
X118946200Y-114503632D01*
X118401118Y-114612056D01*
X117939020Y-114920821D01*
X117688900Y-115295152D01*
X117438779Y-114920820D01*
X116976681Y-114612056D01*
X116431600Y-114503632D01*
X115886518Y-114612056D01*
X115424420Y-114920821D01*
X115115656Y-115382919D01*
X115034600Y-115790413D01*
X115034600Y-117589588D01*
X115115657Y-117997082D01*
X115424421Y-118459180D01*
X115886519Y-118767944D01*
X116431600Y-118876368D01*
X116723169Y-118818371D01*
X116928281Y-119023483D01*
X116970681Y-119086939D01*
X117222073Y-119254914D01*
X117443758Y-119299010D01*
X117443762Y-119299010D01*
X117518609Y-119313898D01*
X117593456Y-119299010D01*
X131843807Y-119299010D01*
X131918654Y-119313898D01*
X131993501Y-119299010D01*
X131993506Y-119299010D01*
X132215191Y-119254914D01*
X132466583Y-119086939D01*
X132508985Y-119023480D01*
X137068867Y-114463600D01*
X152624431Y-114463600D01*
X152669790Y-114573107D01*
X153070283Y-114973600D01*
X152669790Y-115374093D01*
X152436100Y-115938270D01*
X152436100Y-116548930D01*
X152669790Y-117113107D01*
X153070283Y-117513600D01*
X152669790Y-117914093D01*
X152436100Y-118478270D01*
X152436100Y-119088930D01*
X152669790Y-119653107D01*
X153070283Y-120053600D01*
X152669790Y-120454093D01*
X152436100Y-121018270D01*
X152436100Y-121628930D01*
X152669790Y-122193107D01*
X153070283Y-122593600D01*
X152669790Y-122994093D01*
X152436100Y-123558270D01*
X152436100Y-124168930D01*
X152669790Y-124733107D01*
X153070283Y-125133600D01*
X152669790Y-125534093D01*
X152436100Y-126098270D01*
X152436100Y-126708930D01*
X152669790Y-127273107D01*
X153101593Y-127704910D01*
X153665770Y-127938600D01*
X154276430Y-127938600D01*
X154840607Y-127704910D01*
X155241100Y-127304417D01*
X155641593Y-127704910D01*
X156205770Y-127938600D01*
X156816430Y-127938600D01*
X157265000Y-127752796D01*
X157265000Y-149265000D01*
X156895304Y-149265000D01*
X156959698Y-149238327D01*
X157138327Y-149059699D01*
X157235000Y-148826310D01*
X157235000Y-147485750D01*
X157076250Y-147327000D01*
X155227000Y-147327000D01*
X155227000Y-147347000D01*
X154973000Y-147347000D01*
X154973000Y-147327000D01*
X153123750Y-147327000D01*
X152965000Y-147485750D01*
X152965000Y-148826310D01*
X153061673Y-149059699D01*
X153240302Y-149238327D01*
X153304696Y-149265000D01*
X117295304Y-149265000D01*
X117359698Y-149238327D01*
X117538327Y-149059699D01*
X117635000Y-148826310D01*
X117635000Y-147485750D01*
X117476250Y-147327000D01*
X115627000Y-147327000D01*
X115627000Y-147347000D01*
X115373000Y-147347000D01*
X115373000Y-147327000D01*
X113523750Y-147327000D01*
X113365000Y-147485750D01*
X113365000Y-148826310D01*
X113461673Y-149059699D01*
X113640302Y-149238327D01*
X113704696Y-149265000D01*
X107235000Y-149265000D01*
X107235000Y-145573690D01*
X113365000Y-145573690D01*
X113365000Y-146914250D01*
X113523750Y-147073000D01*
X115373000Y-147073000D01*
X115373000Y-145223750D01*
X115627000Y-145223750D01*
X115627000Y-147073000D01*
X117476250Y-147073000D01*
X117635000Y-146914250D01*
X117635000Y-145573690D01*
X152965000Y-145573690D01*
X152965000Y-146914250D01*
X153123750Y-147073000D01*
X154973000Y-147073000D01*
X154973000Y-145223750D01*
X155227000Y-145223750D01*
X155227000Y-147073000D01*
X157076250Y-147073000D01*
X157235000Y-146914250D01*
X157235000Y-145573690D01*
X157138327Y-145340301D01*
X156959698Y-145161673D01*
X156726309Y-145065000D01*
X155385750Y-145065000D01*
X155227000Y-145223750D01*
X154973000Y-145223750D01*
X154814250Y-145065000D01*
X153473691Y-145065000D01*
X153240302Y-145161673D01*
X153061673Y-145340301D01*
X152965000Y-145573690D01*
X117635000Y-145573690D01*
X117538327Y-145340301D01*
X117359698Y-145161673D01*
X117126309Y-145065000D01*
X115785750Y-145065000D01*
X115627000Y-145223750D01*
X115373000Y-145223750D01*
X115214250Y-145065000D01*
X113873691Y-145065000D01*
X113640302Y-145161673D01*
X113461673Y-145340301D01*
X113365000Y-145573690D01*
X107235000Y-145573690D01*
X107235000Y-130559801D01*
X114859671Y-138184473D01*
X114902071Y-138247929D01*
X115153463Y-138415904D01*
X115375148Y-138460000D01*
X115375152Y-138460000D01*
X115449999Y-138474888D01*
X115524846Y-138460000D01*
X147425153Y-138460000D01*
X147500000Y-138474888D01*
X147574847Y-138460000D01*
X147574852Y-138460000D01*
X147796537Y-138415904D01*
X148047929Y-138247929D01*
X148090331Y-138184470D01*
X154225941Y-132048861D01*
X154675322Y-132235000D01*
X155524678Y-132235000D01*
X156309380Y-131909966D01*
X156909966Y-131309380D01*
X157235000Y-130524678D01*
X157235000Y-129675322D01*
X156909966Y-128890620D01*
X156309380Y-128290034D01*
X155524678Y-127965000D01*
X154675322Y-127965000D01*
X153890620Y-128290034D01*
X153290034Y-128890620D01*
X152965000Y-129675322D01*
X152965000Y-130524678D01*
X153151139Y-130974059D01*
X147185199Y-136940000D01*
X115764802Y-136940000D01*
X108500124Y-129675322D01*
X113365000Y-129675322D01*
X113365000Y-130524678D01*
X113690034Y-131309380D01*
X114290620Y-131909966D01*
X115075322Y-132235000D01*
X115924678Y-132235000D01*
X116709380Y-131909966D01*
X117309966Y-131309380D01*
X117496105Y-130860000D01*
X137698353Y-130860000D01*
X137773200Y-130874888D01*
X137848047Y-130860000D01*
X137848052Y-130860000D01*
X138069737Y-130815904D01*
X138321129Y-130647929D01*
X138363531Y-130584470D01*
X146343673Y-122604329D01*
X146407129Y-122561929D01*
X146575104Y-122310537D01*
X146599589Y-122187444D01*
X146866380Y-122009180D01*
X147175144Y-121547082D01*
X147256200Y-121139588D01*
X147256200Y-119340412D01*
X147175144Y-118932918D01*
X146866379Y-118470820D01*
X146404281Y-118162056D01*
X145859200Y-118053632D01*
X145314118Y-118162056D01*
X144852020Y-118470821D01*
X144595238Y-118855123D01*
X144586659Y-118826059D01*
X144242626Y-118400370D01*
X143761877Y-118138740D01*
X143687670Y-118123780D01*
X143471600Y-118246280D01*
X143471600Y-120113000D01*
X143491600Y-120113000D01*
X143491600Y-120367000D01*
X143471600Y-120367000D01*
X143471600Y-122233720D01*
X143687670Y-122356220D01*
X143761877Y-122341260D01*
X144242626Y-122079630D01*
X144586659Y-121653941D01*
X144595238Y-121624877D01*
X144826866Y-121971532D01*
X137458399Y-129340000D01*
X117496105Y-129340000D01*
X117309966Y-128890620D01*
X116709380Y-128290034D01*
X115924678Y-127965000D01*
X115075322Y-127965000D01*
X114290620Y-128290034D01*
X113690034Y-128890620D01*
X113365000Y-129675322D01*
X108500124Y-129675322D01*
X107786099Y-128961298D01*
X107786099Y-127872462D01*
X107945770Y-127938600D01*
X108556430Y-127938600D01*
X109120607Y-127704910D01*
X109521100Y-127304417D01*
X109921593Y-127704910D01*
X110485770Y-127938600D01*
X111096430Y-127938600D01*
X111660607Y-127704910D01*
X112092410Y-127273107D01*
X112326100Y-126708930D01*
X112326100Y-126098270D01*
X112092410Y-125534093D01*
X111691917Y-125133600D01*
X112092410Y-124733107D01*
X112326100Y-124168930D01*
X112326100Y-123558270D01*
X112092410Y-122994093D01*
X111691917Y-122593600D01*
X112092410Y-122193107D01*
X112326100Y-121628930D01*
X112326100Y-121018270D01*
X112092410Y-120454093D01*
X112005317Y-120367000D01*
X141947600Y-120367000D01*
X141947600Y-121129000D01*
X142102541Y-121653941D01*
X142446574Y-122079630D01*
X142927323Y-122341260D01*
X143001530Y-122356220D01*
X143217600Y-122233720D01*
X143217600Y-120367000D01*
X141947600Y-120367000D01*
X112005317Y-120367000D01*
X111691917Y-120053600D01*
X112092410Y-119653107D01*
X112217546Y-119351000D01*
X141947600Y-119351000D01*
X141947600Y-120113000D01*
X143217600Y-120113000D01*
X143217600Y-118246280D01*
X143001530Y-118123780D01*
X142927323Y-118138740D01*
X142446574Y-118400370D01*
X142102541Y-118826059D01*
X141947600Y-119351000D01*
X112217546Y-119351000D01*
X112326100Y-119088930D01*
X112326100Y-118478270D01*
X112092410Y-117914093D01*
X111691917Y-117513600D01*
X112092410Y-117113107D01*
X112326100Y-116548930D01*
X112326100Y-115938270D01*
X112092410Y-115374093D01*
X111691917Y-114973600D01*
X112092410Y-114573107D01*
X112326100Y-114008930D01*
X112326100Y-113398270D01*
X112092410Y-112834093D01*
X111691917Y-112433600D01*
X112092410Y-112033107D01*
X112326100Y-111468930D01*
X112326100Y-110858270D01*
X112092410Y-110294093D01*
X111691917Y-109893600D01*
X112092410Y-109493107D01*
X112326100Y-108928930D01*
X112326100Y-108318270D01*
X112092410Y-107754093D01*
X111691917Y-107353600D01*
X112092410Y-106953107D01*
X112326100Y-106388930D01*
X112326100Y-105778270D01*
X112092410Y-105214093D01*
X111691917Y-104813600D01*
X112092410Y-104413107D01*
X112326100Y-103848930D01*
X112326100Y-103238270D01*
X112092410Y-102674093D01*
X111858730Y-102440413D01*
X115034600Y-102440413D01*
X115034600Y-104239588D01*
X115115657Y-104647082D01*
X115424421Y-105109180D01*
X115886519Y-105417944D01*
X116431600Y-105526368D01*
X116976682Y-105417944D01*
X117438780Y-105109180D01*
X117688901Y-104734848D01*
X117939021Y-105109180D01*
X118401119Y-105417944D01*
X118946200Y-105526368D01*
X119491282Y-105417944D01*
X119953380Y-105109180D01*
X120190801Y-104753855D01*
X120428221Y-105109180D01*
X120890319Y-105417944D01*
X121435400Y-105526368D01*
X121980482Y-105417944D01*
X122442580Y-105109180D01*
X122692701Y-104734848D01*
X122942821Y-105109180D01*
X123404919Y-105417944D01*
X123950000Y-105526368D01*
X124495082Y-105417944D01*
X124957180Y-105109180D01*
X125207301Y-104734848D01*
X125457421Y-105109180D01*
X125919519Y-105417944D01*
X126464600Y-105526368D01*
X127009682Y-105417944D01*
X127471780Y-105109180D01*
X127710945Y-104751244D01*
X127711741Y-104753941D01*
X128055774Y-105179630D01*
X128536523Y-105441260D01*
X128610730Y-105456220D01*
X128826800Y-105333720D01*
X128826800Y-103467000D01*
X128806800Y-103467000D01*
X128806800Y-103213000D01*
X128826800Y-103213000D01*
X128826800Y-101346280D01*
X128610730Y-101223780D01*
X128536523Y-101238740D01*
X128055774Y-101500370D01*
X127711741Y-101926059D01*
X127710945Y-101928756D01*
X127471779Y-101570820D01*
X127009681Y-101262056D01*
X126464600Y-101153632D01*
X125919518Y-101262056D01*
X125457420Y-101570821D01*
X125207300Y-101945152D01*
X124957179Y-101570820D01*
X124495081Y-101262056D01*
X123950000Y-101153632D01*
X123404918Y-101262056D01*
X122942820Y-101570821D01*
X122692700Y-101945152D01*
X122442579Y-101570820D01*
X121980481Y-101262056D01*
X121435400Y-101153632D01*
X120890318Y-101262056D01*
X120428220Y-101570821D01*
X120190800Y-101926145D01*
X119953379Y-101570820D01*
X119491281Y-101262056D01*
X118946200Y-101153632D01*
X118401118Y-101262056D01*
X117939020Y-101570821D01*
X117688900Y-101945152D01*
X117438779Y-101570820D01*
X116976681Y-101262056D01*
X116431600Y-101153632D01*
X115886518Y-101262056D01*
X115424420Y-101570821D01*
X115115656Y-102032919D01*
X115034600Y-102440413D01*
X111858730Y-102440413D01*
X111691917Y-102273600D01*
X112092410Y-101873107D01*
X112326100Y-101308930D01*
X112326100Y-100698270D01*
X112092410Y-100134093D01*
X111691917Y-99733600D01*
X112092410Y-99333107D01*
X112326100Y-98768930D01*
X112326100Y-98158270D01*
X112092410Y-97594093D01*
X111691917Y-97193600D01*
X112092410Y-96793107D01*
X112326100Y-96228930D01*
X112326100Y-95618270D01*
X112092410Y-95054093D01*
X111691917Y-94653600D01*
X112092410Y-94253107D01*
X112326100Y-93688930D01*
X112326100Y-93078270D01*
X112092410Y-92514093D01*
X111691917Y-92113600D01*
X112092410Y-91713107D01*
X112326100Y-91148930D01*
X112326100Y-90538270D01*
X112092410Y-89974093D01*
X111660607Y-89542290D01*
X111096430Y-89308600D01*
X110485770Y-89308600D01*
X109921593Y-89542290D01*
X109752375Y-89711508D01*
X109749257Y-89695835D01*
X109608909Y-89485791D01*
X109398865Y-89345443D01*
X109151100Y-89296160D01*
X107739010Y-89296160D01*
X107739010Y-88785791D01*
X107835571Y-88689230D01*
X107899030Y-88646828D01*
X108067005Y-88395436D01*
X108111101Y-88173751D01*
X108111101Y-88173747D01*
X108125989Y-88098900D01*
X108111101Y-88024053D01*
X108111101Y-87298600D01*
X108556430Y-87298600D01*
X109120607Y-87064910D01*
X109521100Y-86664417D01*
X109921593Y-87064910D01*
X110485770Y-87298600D01*
X111096430Y-87298600D01*
X111660607Y-87064910D01*
X112092410Y-86633107D01*
X112326100Y-86068930D01*
X112326100Y-85458270D01*
X112092410Y-84894093D01*
X111691917Y-84493600D01*
X112092410Y-84093107D01*
X112326100Y-83528930D01*
X112326100Y-82918270D01*
X112092410Y-82354093D01*
X111691917Y-81953600D01*
X112092410Y-81553107D01*
X112326100Y-80988930D01*
X112326100Y-80378270D01*
X112092410Y-79814093D01*
X111691917Y-79413600D01*
X112092410Y-79013107D01*
X112326100Y-78448930D01*
X112326100Y-77838270D01*
X112259962Y-77678599D01*
X116207154Y-77678599D01*
X116282001Y-77693487D01*
X116356848Y-77678599D01*
X116356853Y-77678599D01*
X116578538Y-77634503D01*
X116829930Y-77466528D01*
X116872332Y-77403069D01*
X118828601Y-75446801D01*
X118828600Y-90623353D01*
G36*
X121070621Y-74619180D02*
X121532719Y-74927944D01*
X122077800Y-75036368D01*
X122369370Y-74978371D01*
X123325470Y-75934472D01*
X123367871Y-75997929D01*
X123619263Y-76165904D01*
X123840948Y-76210000D01*
X123840952Y-76210000D01*
X123915800Y-76224888D01*
X123990648Y-76210000D01*
X125285199Y-76210000D01*
X144340198Y-95265000D01*
X144289803Y-95265000D01*
X136630331Y-87605530D01*
X136587929Y-87542071D01*
X136336537Y-87374096D01*
X136114852Y-87330000D01*
X136114847Y-87330000D01*
X136040000Y-87315112D01*
X135965153Y-87330000D01*
X131506200Y-87330000D01*
X131506200Y-87190412D01*
X131425144Y-86782918D01*
X131116379Y-86320820D01*
X130654281Y-86012056D01*
X130109200Y-85903632D01*
X129564118Y-86012056D01*
X129102020Y-86320821D01*
X128851900Y-86695152D01*
X128601779Y-86320820D01*
X128139681Y-86012056D01*
X127594600Y-85903632D01*
X127049518Y-86012056D01*
X126587420Y-86320821D01*
X126350000Y-86676145D01*
X126112579Y-86320820D01*
X125650481Y-86012056D01*
X125105400Y-85903632D01*
X124560318Y-86012056D01*
X124098220Y-86320821D01*
X123848100Y-86695152D01*
X123597979Y-86320820D01*
X123135881Y-86012056D01*
X122590800Y-85903632D01*
X122045718Y-86012056D01*
X121583620Y-86320821D01*
X121274856Y-86782919D01*
X121193800Y-87190413D01*
X121193800Y-88989588D01*
X121274857Y-89397082D01*
X121583621Y-89859180D01*
X122045719Y-90167944D01*
X122590800Y-90276368D01*
X123135882Y-90167944D01*
X123597980Y-89859180D01*
X123848100Y-89484848D01*
X124098221Y-89859180D01*
X124560319Y-90167944D01*
X125105400Y-90276368D01*
X125396970Y-90218371D01*
X134163073Y-98984476D01*
X134205471Y-99047929D01*
X134268924Y-99090327D01*
X134268926Y-99090329D01*
X134394302Y-99174102D01*
X134456863Y-99215904D01*
X134678548Y-99260000D01*
X134678552Y-99260000D01*
X134753399Y-99274888D01*
X134828246Y-99260000D01*
X145535197Y-99260000D01*
X145709667Y-99434470D01*
X145752069Y-99497929D01*
X146003461Y-99665904D01*
X146225146Y-99710000D01*
X146225150Y-99710000D01*
X146299997Y-99724888D01*
X146374844Y-99710000D01*
X148220199Y-99710000D01*
X148115530Y-99814669D01*
X148052071Y-99857071D01*
X147884096Y-100108464D01*
X147840000Y-100330149D01*
X147840000Y-100330153D01*
X147825112Y-100405000D01*
X147840000Y-100479847D01*
X147840001Y-102695148D01*
X147825112Y-102770000D01*
X147884097Y-103066537D01*
X148004721Y-103247063D01*
X148052072Y-103317929D01*
X148115527Y-103360329D01*
X148602560Y-103847362D01*
X148602560Y-104390000D01*
X148651843Y-104637765D01*
X148792191Y-104847809D01*
X149002235Y-104988157D01*
X149250000Y-105037440D01*
X150750000Y-105037440D01*
X150997765Y-104988157D01*
X151004113Y-104983915D01*
X151273272Y-105253074D01*
X151315672Y-105316530D01*
X151567064Y-105484505D01*
X151788749Y-105528601D01*
X151788753Y-105528601D01*
X151863600Y-105543489D01*
X151938447Y-105528601D01*
X152539516Y-105528601D01*
X152436100Y-105778270D01*
X152436100Y-106388930D01*
X152669790Y-106953107D01*
X153070283Y-107353600D01*
X152669790Y-107754093D01*
X152436100Y-108318270D01*
X152436100Y-108928930D01*
X152669790Y-109493107D01*
X153070283Y-109893600D01*
X152669790Y-110294093D01*
X152436100Y-110858270D01*
X152436100Y-111468930D01*
X152669790Y-112033107D01*
X153070283Y-112433600D01*
X152669790Y-112834093D01*
X152624431Y-112943600D01*
X136828910Y-112943600D01*
X136754063Y-112928712D01*
X136679216Y-112943600D01*
X136679212Y-112943600D01*
X136457527Y-112987696D01*
X136457525Y-112987697D01*
X136457526Y-112987697D01*
X136269590Y-113113271D01*
X136269588Y-113113273D01*
X136206135Y-113155671D01*
X136163737Y-113219124D01*
X132865400Y-116517462D01*
X132865400Y-115790412D01*
X132784344Y-115382918D01*
X132475579Y-114920820D01*
X132228400Y-114755660D01*
X132228400Y-105274340D01*
X132475580Y-105109180D01*
X132784344Y-104647082D01*
X132865400Y-104239588D01*
X132865400Y-102440412D01*
X132784344Y-102032918D01*
X132475579Y-101570820D01*
X132013481Y-101262056D01*
X131468400Y-101153632D01*
X131176831Y-101211629D01*
X120348600Y-90383399D01*
X120348600Y-74784340D01*
X120595780Y-74619180D01*
X120833201Y-74263855D01*
X121070621Y-74619180D01*
X121070621Y-74619180D01*
G37*
X121070621Y-74619180D02*
X121532719Y-74927944D01*
X122077800Y-75036368D01*
X122369370Y-74978371D01*
X123325470Y-75934472D01*
X123367871Y-75997929D01*
X123619263Y-76165904D01*
X123840948Y-76210000D01*
X123840952Y-76210000D01*
X123915800Y-76224888D01*
X123990648Y-76210000D01*
X125285199Y-76210000D01*
X144340198Y-95265000D01*
X144289803Y-95265000D01*
X136630331Y-87605530D01*
X136587929Y-87542071D01*
X136336537Y-87374096D01*
X136114852Y-87330000D01*
X136114847Y-87330000D01*
X136040000Y-87315112D01*
X135965153Y-87330000D01*
X131506200Y-87330000D01*
X131506200Y-87190412D01*
X131425144Y-86782918D01*
X131116379Y-86320820D01*
X130654281Y-86012056D01*
X130109200Y-85903632D01*
X129564118Y-86012056D01*
X129102020Y-86320821D01*
X128851900Y-86695152D01*
X128601779Y-86320820D01*
X128139681Y-86012056D01*
X127594600Y-85903632D01*
X127049518Y-86012056D01*
X126587420Y-86320821D01*
X126350000Y-86676145D01*
X126112579Y-86320820D01*
X125650481Y-86012056D01*
X125105400Y-85903632D01*
X124560318Y-86012056D01*
X124098220Y-86320821D01*
X123848100Y-86695152D01*
X123597979Y-86320820D01*
X123135881Y-86012056D01*
X122590800Y-85903632D01*
X122045718Y-86012056D01*
X121583620Y-86320821D01*
X121274856Y-86782919D01*
X121193800Y-87190413D01*
X121193800Y-88989588D01*
X121274857Y-89397082D01*
X121583621Y-89859180D01*
X122045719Y-90167944D01*
X122590800Y-90276368D01*
X123135882Y-90167944D01*
X123597980Y-89859180D01*
X123848100Y-89484848D01*
X124098221Y-89859180D01*
X124560319Y-90167944D01*
X125105400Y-90276368D01*
X125396970Y-90218371D01*
X134163073Y-98984476D01*
X134205471Y-99047929D01*
X134268924Y-99090327D01*
X134268926Y-99090329D01*
X134394302Y-99174102D01*
X134456863Y-99215904D01*
X134678548Y-99260000D01*
X134678552Y-99260000D01*
X134753399Y-99274888D01*
X134828246Y-99260000D01*
X145535197Y-99260000D01*
X145709667Y-99434470D01*
X145752069Y-99497929D01*
X146003461Y-99665904D01*
X146225146Y-99710000D01*
X146225150Y-99710000D01*
X146299997Y-99724888D01*
X146374844Y-99710000D01*
X148220199Y-99710000D01*
X148115530Y-99814669D01*
X148052071Y-99857071D01*
X147884096Y-100108464D01*
X147840000Y-100330149D01*
X147840000Y-100330153D01*
X147825112Y-100405000D01*
X147840000Y-100479847D01*
X147840001Y-102695148D01*
X147825112Y-102770000D01*
X147884097Y-103066537D01*
X148004721Y-103247063D01*
X148052072Y-103317929D01*
X148115527Y-103360329D01*
X148602560Y-103847362D01*
X148602560Y-104390000D01*
X148651843Y-104637765D01*
X148792191Y-104847809D01*
X149002235Y-104988157D01*
X149250000Y-105037440D01*
X150750000Y-105037440D01*
X150997765Y-104988157D01*
X151004113Y-104983915D01*
X151273272Y-105253074D01*
X151315672Y-105316530D01*
X151567064Y-105484505D01*
X151788749Y-105528601D01*
X151788753Y-105528601D01*
X151863600Y-105543489D01*
X151938447Y-105528601D01*
X152539516Y-105528601D01*
X152436100Y-105778270D01*
X152436100Y-106388930D01*
X152669790Y-106953107D01*
X153070283Y-107353600D01*
X152669790Y-107754093D01*
X152436100Y-108318270D01*
X152436100Y-108928930D01*
X152669790Y-109493107D01*
X153070283Y-109893600D01*
X152669790Y-110294093D01*
X152436100Y-110858270D01*
X152436100Y-111468930D01*
X152669790Y-112033107D01*
X153070283Y-112433600D01*
X152669790Y-112834093D01*
X152624431Y-112943600D01*
X136828910Y-112943600D01*
X136754063Y-112928712D01*
X136679216Y-112943600D01*
X136679212Y-112943600D01*
X136457527Y-112987696D01*
X136457525Y-112987697D01*
X136457526Y-112987697D01*
X136269590Y-113113271D01*
X136269588Y-113113273D01*
X136206135Y-113155671D01*
X136163737Y-113219124D01*
X132865400Y-116517462D01*
X132865400Y-115790412D01*
X132784344Y-115382918D01*
X132475579Y-114920820D01*
X132228400Y-114755660D01*
X132228400Y-105274340D01*
X132475580Y-105109180D01*
X132784344Y-104647082D01*
X132865400Y-104239588D01*
X132865400Y-102440412D01*
X132784344Y-102032918D01*
X132475579Y-101570820D01*
X132013481Y-101262056D01*
X131468400Y-101153632D01*
X131176831Y-101211629D01*
X120348600Y-90383399D01*
X120348600Y-74784340D01*
X120595780Y-74619180D01*
X120833201Y-74263855D01*
X121070621Y-74619180D01*
G36*
X143215000Y-96339803D02*
X143215000Y-96505874D01*
X143372569Y-96886280D01*
X143663720Y-97177431D01*
X143923415Y-97285000D01*
X135309802Y-97285000D01*
X128354600Y-90329799D01*
X128354600Y-90024340D01*
X128601780Y-89859180D01*
X128851901Y-89484848D01*
X129102021Y-89859180D01*
X129564119Y-90167944D01*
X130109200Y-90276368D01*
X130654282Y-90167944D01*
X131116380Y-89859180D01*
X131425144Y-89397082D01*
X131506200Y-88989588D01*
X131506200Y-88850000D01*
X135725199Y-88850000D01*
X143215000Y-96339803D01*
X143215000Y-96339803D01*
G37*
X143215000Y-96339803D02*
X143215000Y-96505874D01*
X143372569Y-96886280D01*
X143663720Y-97177431D01*
X143923415Y-97285000D01*
X135309802Y-97285000D01*
X128354600Y-90329799D01*
X128354600Y-90024340D01*
X128601780Y-89859180D01*
X128851901Y-89484848D01*
X129102021Y-89859180D01*
X129564119Y-90167944D01*
X130109200Y-90276368D01*
X130654282Y-90167944D01*
X131116380Y-89859180D01*
X131425144Y-89397082D01*
X131506200Y-88989588D01*
X131506200Y-88850000D01*
X135725199Y-88850000D01*
X143215000Y-96339803D01*
G36*
X152436100Y-71234270D02*
X152436100Y-71844930D01*
X152669790Y-72409107D01*
X153070283Y-72809600D01*
X152669790Y-73210093D01*
X152436100Y-73774270D01*
X152436100Y-74384930D01*
X152502238Y-74544601D01*
X148719402Y-74544601D01*
X148629135Y-74454334D01*
X148629135Y-74288261D01*
X148471566Y-73907855D01*
X148180415Y-73616704D01*
X147800009Y-73459135D01*
X147388261Y-73459135D01*
X147007855Y-73616704D01*
X146716704Y-73907855D01*
X146559135Y-74288261D01*
X146559135Y-74700009D01*
X146716704Y-75080415D01*
X147007855Y-75371566D01*
X147388261Y-75529135D01*
X147554334Y-75529135D01*
X147814270Y-75789071D01*
X147856672Y-75852530D01*
X148108064Y-76020505D01*
X148329749Y-76064601D01*
X148329754Y-76064601D01*
X148404601Y-76079489D01*
X148479448Y-76064601D01*
X152539516Y-76064601D01*
X152436100Y-76314270D01*
X152436100Y-76924930D01*
X152669790Y-77489107D01*
X153070283Y-77889600D01*
X152669790Y-78290093D01*
X152436100Y-78854270D01*
X152436100Y-79464930D01*
X152669790Y-80029107D01*
X153070283Y-80429600D01*
X152669790Y-80830093D01*
X152436100Y-81394270D01*
X152436100Y-82004930D01*
X152669790Y-82569107D01*
X153101593Y-83000910D01*
X153665770Y-83234600D01*
X154276430Y-83234600D01*
X154840607Y-83000910D01*
X155241100Y-82600417D01*
X155641593Y-83000910D01*
X156205770Y-83234600D01*
X156816430Y-83234600D01*
X157265001Y-83048796D01*
X157265001Y-84414404D01*
X156816430Y-84228600D01*
X156205770Y-84228600D01*
X155641593Y-84462290D01*
X155472375Y-84631508D01*
X155469257Y-84615835D01*
X155328909Y-84405791D01*
X155118865Y-84265443D01*
X154871100Y-84216160D01*
X153071100Y-84216160D01*
X152823335Y-84265443D01*
X152613291Y-84405791D01*
X152472943Y-84615835D01*
X152423660Y-84863600D01*
X152423660Y-86663600D01*
X152472943Y-86911365D01*
X152613291Y-87121409D01*
X152823335Y-87261757D01*
X152839008Y-87264875D01*
X152669790Y-87434093D01*
X152436100Y-87998270D01*
X152436100Y-88608930D01*
X152669790Y-89173107D01*
X153070283Y-89573600D01*
X152669790Y-89974093D01*
X152436100Y-90538270D01*
X152436100Y-91148930D01*
X152539516Y-91398599D01*
X151361249Y-91398599D01*
X151286401Y-91383711D01*
X151281585Y-91384669D01*
X151097765Y-91261843D01*
X150850000Y-91212560D01*
X149350000Y-91212560D01*
X149102235Y-91261843D01*
X148892191Y-91402191D01*
X148770041Y-91585000D01*
X147809802Y-91585000D01*
X138085000Y-81860199D01*
X138085000Y-81694126D01*
X137927431Y-81313720D01*
X137636280Y-81022569D01*
X137255874Y-80865000D01*
X136844126Y-80865000D01*
X136463720Y-81022569D01*
X136172569Y-81313720D01*
X136015000Y-81694126D01*
X136015000Y-82105874D01*
X136172569Y-82486280D01*
X136463720Y-82777431D01*
X136844126Y-82935000D01*
X137010199Y-82935000D01*
X146824126Y-92748928D01*
X146824129Y-92748930D01*
X146904669Y-92829470D01*
X146947071Y-92892929D01*
X147198463Y-93060904D01*
X147420148Y-93105000D01*
X147420152Y-93105000D01*
X147495000Y-93119888D01*
X147569848Y-93105000D01*
X148770041Y-93105000D01*
X148892191Y-93287809D01*
X148910436Y-93300000D01*
X148892191Y-93312191D01*
X148751843Y-93522235D01*
X148702560Y-93770000D01*
X148702560Y-94740000D01*
X148751843Y-94987765D01*
X148869333Y-95163600D01*
X148170738Y-95163600D01*
X127811554Y-74804417D01*
X128088780Y-74619180D01*
X128338901Y-74244848D01*
X128589021Y-74619180D01*
X129051119Y-74927944D01*
X129596200Y-75036368D01*
X130141282Y-74927944D01*
X130603380Y-74619180D01*
X130840801Y-74263855D01*
X131078221Y-74619180D01*
X131540319Y-74927944D01*
X132085400Y-75036368D01*
X132630482Y-74927944D01*
X133092580Y-74619180D01*
X133342701Y-74244848D01*
X133592821Y-74619180D01*
X134054919Y-74927944D01*
X134600000Y-75036368D01*
X135145082Y-74927944D01*
X135607180Y-74619180D01*
X135915944Y-74157082D01*
X135997000Y-73749588D01*
X135997000Y-73506795D01*
X136159929Y-73397929D01*
X136202331Y-73334470D01*
X138552201Y-70984601D01*
X152539516Y-70984601D01*
X152436100Y-71234270D01*
X152436100Y-71234270D01*
G37*
X152436100Y-71234270D02*
X152436100Y-71844930D01*
X152669790Y-72409107D01*
X153070283Y-72809600D01*
X152669790Y-73210093D01*
X152436100Y-73774270D01*
X152436100Y-74384930D01*
X152502238Y-74544601D01*
X148719402Y-74544601D01*
X148629135Y-74454334D01*
X148629135Y-74288261D01*
X148471566Y-73907855D01*
X148180415Y-73616704D01*
X147800009Y-73459135D01*
X147388261Y-73459135D01*
X147007855Y-73616704D01*
X146716704Y-73907855D01*
X146559135Y-74288261D01*
X146559135Y-74700009D01*
X146716704Y-75080415D01*
X147007855Y-75371566D01*
X147388261Y-75529135D01*
X147554334Y-75529135D01*
X147814270Y-75789071D01*
X147856672Y-75852530D01*
X148108064Y-76020505D01*
X148329749Y-76064601D01*
X148329754Y-76064601D01*
X148404601Y-76079489D01*
X148479448Y-76064601D01*
X152539516Y-76064601D01*
X152436100Y-76314270D01*
X152436100Y-76924930D01*
X152669790Y-77489107D01*
X153070283Y-77889600D01*
X152669790Y-78290093D01*
X152436100Y-78854270D01*
X152436100Y-79464930D01*
X152669790Y-80029107D01*
X153070283Y-80429600D01*
X152669790Y-80830093D01*
X152436100Y-81394270D01*
X152436100Y-82004930D01*
X152669790Y-82569107D01*
X153101593Y-83000910D01*
X153665770Y-83234600D01*
X154276430Y-83234600D01*
X154840607Y-83000910D01*
X155241100Y-82600417D01*
X155641593Y-83000910D01*
X156205770Y-83234600D01*
X156816430Y-83234600D01*
X157265001Y-83048796D01*
X157265001Y-84414404D01*
X156816430Y-84228600D01*
X156205770Y-84228600D01*
X155641593Y-84462290D01*
X155472375Y-84631508D01*
X155469257Y-84615835D01*
X155328909Y-84405791D01*
X155118865Y-84265443D01*
X154871100Y-84216160D01*
X153071100Y-84216160D01*
X152823335Y-84265443D01*
X152613291Y-84405791D01*
X152472943Y-84615835D01*
X152423660Y-84863600D01*
X152423660Y-86663600D01*
X152472943Y-86911365D01*
X152613291Y-87121409D01*
X152823335Y-87261757D01*
X152839008Y-87264875D01*
X152669790Y-87434093D01*
X152436100Y-87998270D01*
X152436100Y-88608930D01*
X152669790Y-89173107D01*
X153070283Y-89573600D01*
X152669790Y-89974093D01*
X152436100Y-90538270D01*
X152436100Y-91148930D01*
X152539516Y-91398599D01*
X151361249Y-91398599D01*
X151286401Y-91383711D01*
X151281585Y-91384669D01*
X151097765Y-91261843D01*
X150850000Y-91212560D01*
X149350000Y-91212560D01*
X149102235Y-91261843D01*
X148892191Y-91402191D01*
X148770041Y-91585000D01*
X147809802Y-91585000D01*
X138085000Y-81860199D01*
X138085000Y-81694126D01*
X137927431Y-81313720D01*
X137636280Y-81022569D01*
X137255874Y-80865000D01*
X136844126Y-80865000D01*
X136463720Y-81022569D01*
X136172569Y-81313720D01*
X136015000Y-81694126D01*
X136015000Y-82105874D01*
X136172569Y-82486280D01*
X136463720Y-82777431D01*
X136844126Y-82935000D01*
X137010199Y-82935000D01*
X146824126Y-92748928D01*
X146824129Y-92748930D01*
X146904669Y-92829470D01*
X146947071Y-92892929D01*
X147198463Y-93060904D01*
X147420148Y-93105000D01*
X147420152Y-93105000D01*
X147495000Y-93119888D01*
X147569848Y-93105000D01*
X148770041Y-93105000D01*
X148892191Y-93287809D01*
X148910436Y-93300000D01*
X148892191Y-93312191D01*
X148751843Y-93522235D01*
X148702560Y-93770000D01*
X148702560Y-94740000D01*
X148751843Y-94987765D01*
X148869333Y-95163600D01*
X148170738Y-95163600D01*
X127811554Y-74804417D01*
X128088780Y-74619180D01*
X128338901Y-74244848D01*
X128589021Y-74619180D01*
X129051119Y-74927944D01*
X129596200Y-75036368D01*
X130141282Y-74927944D01*
X130603380Y-74619180D01*
X130840801Y-74263855D01*
X131078221Y-74619180D01*
X131540319Y-74927944D01*
X132085400Y-75036368D01*
X132630482Y-74927944D01*
X133092580Y-74619180D01*
X133342701Y-74244848D01*
X133592821Y-74619180D01*
X134054919Y-74927944D01*
X134600000Y-75036368D01*
X135145082Y-74927944D01*
X135607180Y-74619180D01*
X135915944Y-74157082D01*
X135997000Y-73749588D01*
X135997000Y-73506795D01*
X136159929Y-73397929D01*
X136202331Y-73334470D01*
X138552201Y-70984601D01*
X152539516Y-70984601D01*
X152436100Y-71234270D01*
G36*
X109890283Y-79413600D02*
X109489790Y-79814093D01*
X109256100Y-80378270D01*
X109256100Y-80988930D01*
X109489790Y-81553107D01*
X109890283Y-81953600D01*
X109489790Y-82354093D01*
X109256100Y-82918270D01*
X109256100Y-83528930D01*
X109489790Y-84093107D01*
X109890283Y-84493600D01*
X109521100Y-84862783D01*
X109120607Y-84462290D01*
X108556430Y-84228600D01*
X107945770Y-84228600D01*
X107381593Y-84462290D01*
X107235000Y-84608883D01*
X107235000Y-79298317D01*
X107381593Y-79444910D01*
X107945770Y-79678600D01*
X108556430Y-79678600D01*
X109120607Y-79444910D01*
X109521100Y-79044417D01*
X109890283Y-79413600D01*
X109890283Y-79413600D01*
G37*
X109890283Y-79413600D02*
X109489790Y-79814093D01*
X109256100Y-80378270D01*
X109256100Y-80988930D01*
X109489790Y-81553107D01*
X109890283Y-81953600D01*
X109489790Y-82354093D01*
X109256100Y-82918270D01*
X109256100Y-83528930D01*
X109489790Y-84093107D01*
X109890283Y-84493600D01*
X109521100Y-84862783D01*
X109120607Y-84462290D01*
X108556430Y-84228600D01*
X107945770Y-84228600D01*
X107381593Y-84462290D01*
X107235000Y-84608883D01*
X107235000Y-79298317D01*
X107381593Y-79444910D01*
X107945770Y-79678600D01*
X108556430Y-79678600D01*
X109120607Y-79444910D01*
X109521100Y-79044417D01*
X109890283Y-79413600D01*
G36*
X152423660Y-59394599D02*
X139089849Y-59394599D01*
X139015001Y-59379711D01*
X138940153Y-59394599D01*
X138940149Y-59394599D01*
X138718464Y-59438695D01*
X138467072Y-59606670D01*
X138424672Y-59670126D01*
X127373170Y-70721629D01*
X127081600Y-70663632D01*
X126536518Y-70772056D01*
X126074420Y-71080821D01*
X125837000Y-71436145D01*
X125599579Y-71080820D01*
X125137481Y-70772056D01*
X124592400Y-70663632D01*
X124047318Y-70772056D01*
X123585220Y-71080821D01*
X123335100Y-71455152D01*
X123084979Y-71080820D01*
X122622881Y-70772056D01*
X122077800Y-70663632D01*
X121532718Y-70772056D01*
X121070620Y-71080821D01*
X120833200Y-71436145D01*
X120595779Y-71080820D01*
X120133681Y-70772056D01*
X119588600Y-70663632D01*
X119043518Y-70772056D01*
X118581420Y-71080821D01*
X118324638Y-71465123D01*
X118316059Y-71436059D01*
X117972026Y-71010370D01*
X117491277Y-70748740D01*
X117417070Y-70733780D01*
X117201000Y-70856280D01*
X117201000Y-72723000D01*
X117221000Y-72723000D01*
X117221000Y-72977000D01*
X117201000Y-72977000D01*
X117201000Y-74843720D01*
X117252743Y-74873056D01*
X115967200Y-76158599D01*
X112222684Y-76158599D01*
X112326100Y-75908930D01*
X112326100Y-75298270D01*
X112092410Y-74734093D01*
X111691917Y-74333600D01*
X112092410Y-73933107D01*
X112326100Y-73368930D01*
X112326100Y-72977000D01*
X115677000Y-72977000D01*
X115677000Y-73739000D01*
X115831941Y-74263941D01*
X116175974Y-74689630D01*
X116656723Y-74951260D01*
X116730930Y-74966220D01*
X116947000Y-74843720D01*
X116947000Y-72977000D01*
X115677000Y-72977000D01*
X112326100Y-72977000D01*
X112326100Y-72758270D01*
X112092410Y-72194093D01*
X111859317Y-71961000D01*
X115677000Y-71961000D01*
X115677000Y-72723000D01*
X116947000Y-72723000D01*
X116947000Y-70856280D01*
X116730930Y-70733780D01*
X116656723Y-70748740D01*
X116175974Y-71010370D01*
X115831941Y-71436059D01*
X115677000Y-71961000D01*
X111859317Y-71961000D01*
X111691917Y-71793600D01*
X112092410Y-71393107D01*
X112326100Y-70828930D01*
X112326100Y-70218270D01*
X112092410Y-69654093D01*
X111691917Y-69253600D01*
X112092410Y-68853107D01*
X112326100Y-68288930D01*
X112326100Y-67678270D01*
X112092410Y-67114093D01*
X111660607Y-66682290D01*
X111096430Y-66448600D01*
X110485770Y-66448600D01*
X109921593Y-66682290D01*
X109752375Y-66851508D01*
X109749257Y-66835835D01*
X109608909Y-66625791D01*
X109398865Y-66485443D01*
X109151100Y-66436160D01*
X107351100Y-66436160D01*
X107235000Y-66459253D01*
X107235000Y-58235000D01*
X152423660Y-58235000D01*
X152423660Y-59394599D01*
X152423660Y-59394599D01*
G37*
X152423660Y-59394599D02*
X139089849Y-59394599D01*
X139015001Y-59379711D01*
X138940153Y-59394599D01*
X138940149Y-59394599D01*
X138718464Y-59438695D01*
X138467072Y-59606670D01*
X138424672Y-59670126D01*
X127373170Y-70721629D01*
X127081600Y-70663632D01*
X126536518Y-70772056D01*
X126074420Y-71080821D01*
X125837000Y-71436145D01*
X125599579Y-71080820D01*
X125137481Y-70772056D01*
X124592400Y-70663632D01*
X124047318Y-70772056D01*
X123585220Y-71080821D01*
X123335100Y-71455152D01*
X123084979Y-71080820D01*
X122622881Y-70772056D01*
X122077800Y-70663632D01*
X121532718Y-70772056D01*
X121070620Y-71080821D01*
X120833200Y-71436145D01*
X120595779Y-71080820D01*
X120133681Y-70772056D01*
X119588600Y-70663632D01*
X119043518Y-70772056D01*
X118581420Y-71080821D01*
X118324638Y-71465123D01*
X118316059Y-71436059D01*
X117972026Y-71010370D01*
X117491277Y-70748740D01*
X117417070Y-70733780D01*
X117201000Y-70856280D01*
X117201000Y-72723000D01*
X117221000Y-72723000D01*
X117221000Y-72977000D01*
X117201000Y-72977000D01*
X117201000Y-74843720D01*
X117252743Y-74873056D01*
X115967200Y-76158599D01*
X112222684Y-76158599D01*
X112326100Y-75908930D01*
X112326100Y-75298270D01*
X112092410Y-74734093D01*
X111691917Y-74333600D01*
X112092410Y-73933107D01*
X112326100Y-73368930D01*
X112326100Y-72977000D01*
X115677000Y-72977000D01*
X115677000Y-73739000D01*
X115831941Y-74263941D01*
X116175974Y-74689630D01*
X116656723Y-74951260D01*
X116730930Y-74966220D01*
X116947000Y-74843720D01*
X116947000Y-72977000D01*
X115677000Y-72977000D01*
X112326100Y-72977000D01*
X112326100Y-72758270D01*
X112092410Y-72194093D01*
X111859317Y-71961000D01*
X115677000Y-71961000D01*
X115677000Y-72723000D01*
X116947000Y-72723000D01*
X116947000Y-70856280D01*
X116730930Y-70733780D01*
X116656723Y-70748740D01*
X116175974Y-71010370D01*
X115831941Y-71436059D01*
X115677000Y-71961000D01*
X111859317Y-71961000D01*
X111691917Y-71793600D01*
X112092410Y-71393107D01*
X112326100Y-70828930D01*
X112326100Y-70218270D01*
X112092410Y-69654093D01*
X111691917Y-69253600D01*
X112092410Y-68853107D01*
X112326100Y-68288930D01*
X112326100Y-67678270D01*
X112092410Y-67114093D01*
X111660607Y-66682290D01*
X111096430Y-66448600D01*
X110485770Y-66448600D01*
X109921593Y-66682290D01*
X109752375Y-66851508D01*
X109749257Y-66835835D01*
X109608909Y-66625791D01*
X109398865Y-66485443D01*
X109151100Y-66436160D01*
X107351100Y-66436160D01*
X107235000Y-66459253D01*
X107235000Y-58235000D01*
X152423660Y-58235000D01*
X152423660Y-59394599D01*
G36*
X152436100Y-63614270D02*
X152436100Y-64224930D01*
X152669790Y-64789107D01*
X153070283Y-65189600D01*
X152669790Y-65590093D01*
X152436100Y-66154270D01*
X152436100Y-66764930D01*
X152669790Y-67329107D01*
X153070283Y-67729600D01*
X152669790Y-68130093D01*
X152436100Y-68694270D01*
X152436100Y-69304930D01*
X152502238Y-69464601D01*
X138312246Y-69464601D01*
X138237399Y-69449713D01*
X138162552Y-69464601D01*
X138162547Y-69464601D01*
X137940862Y-69508697D01*
X137689470Y-69676672D01*
X137647070Y-69740128D01*
X135887240Y-71499959D01*
X135607179Y-71080820D01*
X135145081Y-70772056D01*
X134600000Y-70663632D01*
X134054918Y-70772056D01*
X133592820Y-71080821D01*
X133342700Y-71455152D01*
X133092579Y-71080820D01*
X132630481Y-70772056D01*
X132085400Y-70663632D01*
X131540318Y-70772056D01*
X131078220Y-71080821D01*
X130840800Y-71436145D01*
X130603379Y-71080820D01*
X130417908Y-70956893D01*
X138010201Y-63364601D01*
X152539516Y-63364601D01*
X152436100Y-63614270D01*
X152436100Y-63614270D01*
G37*
X152436100Y-63614270D02*
X152436100Y-64224930D01*
X152669790Y-64789107D01*
X153070283Y-65189600D01*
X152669790Y-65590093D01*
X152436100Y-66154270D01*
X152436100Y-66764930D01*
X152669790Y-67329107D01*
X153070283Y-67729600D01*
X152669790Y-68130093D01*
X152436100Y-68694270D01*
X152436100Y-69304930D01*
X152502238Y-69464601D01*
X138312246Y-69464601D01*
X138237399Y-69449713D01*
X138162552Y-69464601D01*
X138162547Y-69464601D01*
X137940862Y-69508697D01*
X137689470Y-69676672D01*
X137647070Y-69740128D01*
X135887240Y-71499959D01*
X135607179Y-71080820D01*
X135145081Y-70772056D01*
X134600000Y-70663632D01*
X134054918Y-70772056D01*
X133592820Y-71080821D01*
X133342700Y-71455152D01*
X133092579Y-71080820D01*
X132630481Y-70772056D01*
X132085400Y-70663632D01*
X131540318Y-70772056D01*
X131078220Y-71080821D01*
X130840800Y-71436145D01*
X130603379Y-71080820D01*
X130417908Y-70956893D01*
X138010201Y-63364601D01*
X152539516Y-63364601D01*
X152436100Y-63614270D01*
G36*
X152436100Y-61074270D02*
X152436100Y-61684930D01*
X152502238Y-61844601D01*
X138399801Y-61844601D01*
X139329803Y-60914599D01*
X152502238Y-60914599D01*
X152436100Y-61074270D01*
X152436100Y-61074270D01*
G37*
X152436100Y-61074270D02*
X152436100Y-61684930D01*
X152502238Y-61844601D01*
X138399801Y-61844601D01*
X139329803Y-60914599D01*
X152502238Y-60914599D01*
X152436100Y-61074270D01*
M02*
