M48
;DRILL file {KiCad (2017-08-27 revision e3c64f1f0)-makepkg} date 11/07/17 13:37:52
;FORMAT={-:-/ absolute / metric / decimal}
FMAT,2
METRIC,TZ
T1C0.300
T2C0.500
T3C0.600
T4C0.800
T5C1.000
T6C1.400
T7C3.200
T8C4.500
%
G90
G05
M71
T1
X174.5Y-142.05
X175.35Y-142.9
X187.83Y-143.97
X188.35Y-147.4
X188.55Y-112.1
X188.9Y-142.9
X189.513Y-111.385
X191.92Y-139.59
X193.1Y-148.9
X193.41Y-99.32
X193.45Y-151.7
X193.9Y-140.5
X193.92Y-137.71
X194.336Y-98.429
X194.43Y-109.13
X194.535Y-97.432
X195.Y-153.5
X195.37Y-108.189
X196.03Y-150.18
X196.6Y-142.4
X197.81Y-105.74
X198.71Y-104.84
X200.975Y-103.801
X201.363Y-105.501
X201.582Y-106.681
X203.6Y-156.8
X204.55Y-105.35
X204.775Y-147.5
X205.087Y-150.488
X206.47Y-96.2
X206.8Y-125.775
X207.44Y-96.41
X209.305Y-98.03
X209.775Y-98.5
X210.9Y-147.6
X212.225Y-134.725
X212.525Y-128.25
X213.15Y-136.975
X215.7Y-147.35
X216.675Y-135.025
X216.75Y-137.375
X217.028Y-146.218
X218.6Y-129.325
X219.Y-134.8
X220.925Y-122.591
X220.925Y-125.95
X221.299Y-143.3
X221.349Y-140.3
X221.449Y-146.3
X222.275Y-117.025
X222.275Y-116.2
X222.275Y-117.85
X222.825Y-138.338
X223.125Y-116.975
X223.85Y-127.4
X224.3Y-147.6
X227.275Y-144.8
X228.55Y-142.
X228.6Y-147.3
X231.075Y-144.101
X231.75Y-138.379
X231.795Y-136.544
X231.957Y-131.838
X233.9Y-153.1
X236.25Y-102.15
X237.374Y-148.226
X237.931Y-142.6
X238.083Y-99.922
X239.2Y-149.
X240.2Y-120.9
X243.3Y-128.4
X243.4Y-152.95
X243.7Y-129.9
X245.406Y-141.7
X245.95Y-134.85
X246.83Y-141.73
X248.36Y-153.455
X252.5Y-152.75
X254.937Y-106.837
X256.75Y-105.88
X257.Y-126.1
X257.068Y-147.527
X258.9Y-150.25
X259.8Y-98.25
X262.582Y-105.308
X262.822Y-139.838
X262.95Y-110.2
X263.Y-147.85
X263.783Y-139.392
X264.3Y-140.5
X264.537Y-157.625
X264.681Y-156.635
X265.081Y-141.237
X265.757Y-141.974
X265.8Y-131.4
X266.1Y-112.1
X266.499Y-137.099
X266.6Y-138.3
X274.265Y-118.06
X274.33Y-119.15
X275.549Y-122.901
X276.4Y-123.574
X278.2Y-109.6
X278.51Y-110.594
X278.727Y-111.57
X279.2Y-130.65
X279.662Y-111.925
X279.907Y-120.207
X280.2Y-112.9
X280.9Y-113.9
X281.87Y-117.31
X283.8Y-141.55
X283.8Y-150.15
X284.07Y-112.895
X285.167Y-142.917
X285.548Y-152.13
X285.96Y-146.335
X287.22Y-122.7
X287.24Y-123.75
X287.43Y-127.84
X288.95Y-129.75
X289.465Y-116.
X290.54Y-146.2
X290.543Y-114.975
X290.552Y-115.975
X290.968Y-150.635
X292.029Y-112.24
X292.187Y-108.275
X292.238Y-127.426
X292.608Y-120.15
X292.871Y-118.571
X292.886Y-108.99
X293.376Y-112.565
X294.5Y-121.
X294.65Y-125.725
X294.89Y-149.91
X294.945Y-112.52
X295.45Y-115.642
X295.652Y-111.813
X296.58Y-110.32
X296.86Y-111.28
X296.954Y-118.546
X297.1Y-141.8
X297.45Y-126.
X297.601Y-124.557
X298.4Y-146.1
X298.535Y-113.006
X299.2Y-111.8
X299.6Y-115.14
X299.84Y-113.79
X300.3Y-129.45
X300.434Y-124.895
X300.68Y-119.073
X301.586Y-123.949
X301.606Y-118.697
X304.6Y-100.65
X304.7Y-98.25
X304.7Y-99.5
X304.75Y-96.9
X304.81Y-120.98
X307.298Y-119.872
X308.74Y-124.7
X308.76Y-118.97
X309.227Y-123.73
X309.739Y-116.475
X310.621Y-112.373
X310.821Y-115.472
X311.05Y-113.875
X312.497Y-113.459
X312.52Y-111.5
X313.45Y-114.62
X316.98Y-127.49
X317.04Y-129.32
X186.075Y-136.225
X253.6Y-102.4
X252.4Y-120.9
X223.7Y-145.55
X252.4Y-156.25
X287.14Y-126.9
X253.7Y-101.25
X289.9Y-124.81
X266.4Y-110.35
X286.37Y-95.02
X267.15Y-139.3
X183.275Y-119.775
X181.075Y-117.625
X291.1Y-125.7
X225.35Y-154.98
X184.975Y-136.225
X238.775Y-134.675
X233.41Y-113.03
X307.41Y-96.97
X182.15Y-118.7
X188.88Y-127.43
X190.04Y-109.43
X256.83Y-123.62
X181.05Y-118.7
X206.26Y-111.32
X183.2Y-145.51
X307.33Y-96.
X183.275Y-117.625
X192.4Y-129.8
X184.975Y-137.325
X226.52Y-155.05
X184.375Y-118.65
X206.23Y-110.15
X237.7Y-156.2
X188.83Y-108.23
X188.83Y-109.33
X222.75Y-145.9
X188.3Y-137.275
X291.92Y-125.05
X306.625Y-125.2
X302.95Y-124.5
X264.5Y-111.95
X195.1Y-136.65
X188.3Y-135.15
X205.02Y-111.32
X283.725Y-96.65
X190.04Y-108.2
X288.92Y-93.24
X280.1Y-96.7
X182.15Y-119.8
X242.3Y-145.3
X232.8Y-131.4
X200.4Y-102.5
X184.24Y-145.55
X290.03Y-93.25
X181.05Y-119.8
X218.79Y-93.48
X252.17Y-124.32
X184.375Y-117.625
X190.09Y-129.83
X191.14Y-107.04
X231.69Y-93.86
X257.87Y-156.05
X207.37Y-110.12
X212.11Y-91.48
X252.39Y-122.19
X173.8Y-149.6
X191.19Y-128.63
X206.18Y-108.86
X183.275Y-118.675
X188.88Y-128.63
X186.1Y-134.05
X210.92Y-91.42
X188.83Y-107.03
X190.09Y-128.6
X286.Y-96.65
X305.025Y-126.35
X186.075Y-137.325
X253.8Y-135.95
X224.82Y-140.8
X188.3Y-134.05
X187.2Y-134.05
X237.525Y-140.35
X188.3Y-136.175
X241.075Y-145.275
X183.275Y-116.525
X230.52Y-93.8
X256.24Y-117.1
X239.475Y-135.65
X184.14Y-144.49
X256.56Y-124.72
X190.04Y-107.03
X214.47Y-155.15
X267.39Y-94.55
X207.46Y-111.29
X191.14Y-109.33
X219.89Y-93.49
X307.35Y-94.94
X184.375Y-116.525
X256.69Y-117.81
X184.375Y-119.75
X187.2Y-135.15
X232.43Y-123.19
X232.49Y-120.68
X188.88Y-129.73
X224.84Y-139.86
X187.2Y-136.2
X185.Y-135.15
X270.5Y-140.4
X186.1Y-135.15
X187.2Y-137.3
X256.89Y-155.88
X251.25Y-156.3
X263.55Y-125.4
X252.32Y-123.31
X253.9Y-134.65
X182.175Y-117.625
X201.3Y-99.45
X236.57Y-156.07
X256.8Y-129.77
X233.85Y-114.14
X181.075Y-116.525
X191.19Y-129.73
X191.14Y-108.23
X213.29Y-155.09
X268.47Y-94.57
X174.7Y-146.1
X207.2Y-109.05
X185.Y-134.05
X266.23Y-94.45
X182.175Y-116.525
X205.01Y-110.17
X232.56Y-121.91
X205.02Y-108.95
X190.09Y-127.43
T3
X286.79Y-156.21
X288.29Y-156.21
X289.79Y-156.21
X275.55Y-120.075
X275.55Y-121.575
X239.76Y-155.88
X241.26Y-155.88
X242.76Y-155.88
T4
X276.7Y-93.2
X278.7Y-93.2
X280.7Y-93.2
X282.7Y-93.2
X284.7Y-93.2
X286.7Y-93.2
X292.Y-93.1
X294.Y-93.1
X296.Y-93.1
X298.Y-93.1
X300.Y-93.1
X302.Y-93.1
X304.Y-93.1
X306.Y-93.1
X308.Y-93.1
X246.246Y-117.222
X246.246Y-119.222
X246.246Y-121.222
X246.246Y-123.222
X246.246Y-125.222
X246.246Y-127.222
X201.2Y-129.
X201.2Y-131.
X201.2Y-133.
X234.246Y-101.222
X234.246Y-103.222
X234.246Y-105.222
X234.246Y-107.222
X234.246Y-109.222
X234.246Y-111.222
X222.178Y-93.746
X224.178Y-93.746
X226.178Y-93.746
X228.178Y-93.746
X246.246Y-101.222
X246.246Y-103.222
X246.246Y-105.222
X246.246Y-107.222
X246.246Y-109.222
X246.246Y-111.222
X234.246Y-117.222
X234.246Y-119.222
X234.246Y-121.222
X234.246Y-123.222
X234.246Y-125.222
X234.246Y-127.222
X259.2Y-92.7
X261.2Y-92.7
X263.2Y-92.7
X265.2Y-92.7
X267.2Y-92.7
X269.2Y-92.7
X271.2Y-92.7
X217.122Y-154.654
X219.122Y-154.654
X221.122Y-154.654
X223.122Y-154.654
X247.4Y-93.8
X249.4Y-93.8
X251.4Y-93.8
X253.4Y-93.8
X229.122Y-154.654
X231.122Y-154.654
X233.122Y-154.654
X235.122Y-154.654
X258.3Y-118.7
X258.3Y-120.7
X258.3Y-122.7
X258.3Y-124.7
X258.3Y-130.4
X258.3Y-132.4
X258.3Y-134.4
X258.3Y-136.4
X258.3Y-138.4
X258.3Y-140.4
X258.3Y-142.4
X258.3Y-144.4
X234.178Y-93.746
X236.178Y-93.746
X238.178Y-93.746
X240.178Y-93.746
X240.67Y-147.03
X242.67Y-147.03
X244.67Y-147.03
X246.67Y-147.03
X252.13Y-154.35
X254.13Y-154.35
X256.13Y-154.35
X258.13Y-154.35
X260.13Y-154.35
X262.13Y-154.35
X264.13Y-154.35
X266.13Y-154.35
X268.13Y-154.35
X270.13Y-154.35
X205.122Y-154.654
X207.122Y-154.654
X209.122Y-154.654
X211.122Y-154.654
X210.178Y-93.746
X212.178Y-93.746
X214.178Y-93.746
X216.178Y-93.746
X269.9Y-98.7
X269.9Y-100.7
X269.9Y-102.7
X234.3Y-132.6
X234.3Y-134.6
X234.3Y-136.6
X234.3Y-138.6
T5
X219.8Y-97.8
X219.8Y-102.8
X266.82Y-115.8
X269.36Y-115.8
X271.9Y-115.8
X172.529Y-88.296
X172.529Y-90.836
X172.529Y-98.964
X172.529Y-101.504
X191.071Y-88.296
X191.071Y-90.836
X191.071Y-98.964
X191.071Y-101.504
X172.529Y-145.096
X172.529Y-147.636
X172.529Y-155.764
X172.529Y-158.304
X191.071Y-145.096
X191.071Y-147.636
X191.071Y-155.764
X191.071Y-158.304
T6
X207.675Y-100.635
X207.675Y-113.335
X207.675Y-116.515
X207.675Y-119.695
X207.675Y-135.575
X226.725Y-100.635
X226.725Y-135.575
T7
X199.8Y-155.3
X199.8Y-90.3
X314.8Y-150.3
X314.8Y-95.3
T8
X200.6Y-112.5
X200.6Y-120.
X175.85Y-109.55
X175.85Y-117.05
X175.85Y-129.3
X175.85Y-136.8
T2
X241.95Y-140.15G85X241.25Y-140.15
G05
X244.95Y-138.G85X243.85Y-138.
G05
X247.55Y-140.15G85X246.85Y-140.15
G05
T0
M30
