%TF.GenerationSoftware,KiCad,Pcbnew,(2017-08-27 revision e3c64f1f0)-makepkg*%
%TF.CreationDate,2017-11-07T13:37:45+01:00*%
%TF.ProjectId,Breakout-Platine-Cube,427265616B6F75742D506C6174696E65,rev?*%
%TF.SameCoordinates,Original*%
%TF.FileFunction,Paste,Top*%
%TF.FilePolarity,Positive*%
%FSLAX46Y46*%
G04 Gerber Fmt 4.6, Leading zero omitted, Abs format (unit mm)*
G04 Created by KiCad (PCBNEW (2017-08-27 revision e3c64f1f0)-makepkg) date 11/07/17 13:37:45*
%MOMM*%
%LPD*%
G01*
G04 APERTURE LIST*
%ADD10R,1.120000X1.680000*%
%ADD11R,0.200000X0.920000*%
%ADD12R,1.040000X2.720000*%
%ADD13R,0.600000X0.960000*%
%ADD14R,0.680720X0.680720*%
%ADD15R,0.959104X0.959104*%
%ADD16R,2.800000X2.800000*%
%ADD17R,1.360000X1.600000*%
%ADD18R,0.848000X0.520000*%
%ADD19R,0.560000X1.040000*%
%ADD20R,0.720000X0.640000*%
%ADD21R,1.040000X1.040000*%
%ADD22R,1.280000X2.800000*%
%ADD23R,2.080000X1.280000*%
%ADD24R,1.280000X2.080000*%
%ADD25C,0.100000*%
%ADD26C,4.160000*%
%ADD27C,3.200200*%
%ADD28R,1.040000X0.560000*%
%ADD29R,0.360000X1.200000*%
%ADD30R,1.240000X1.040000*%
%ADD31R,0.640000X0.720000*%
%ADD32R,2.240000X0.800000*%
%ADD33R,1.440000X0.480000*%
%ADD34R,1.200000X1.600000*%
%ADD35R,3.040000X1.600000*%
G04 APERTURE END LIST*
D10*
%TO.C,U1*%
X311250832Y-119749720D03*
X287250832Y-119750000D03*
D11*
X289501664Y-117175000D03*
X289501664Y-122324720D03*
X290001664Y-117175000D03*
X290501664Y-117175000D03*
X291001664Y-117175000D03*
X291501664Y-117175000D03*
X292001664Y-117175000D03*
X292501664Y-117175000D03*
X293001664Y-117175000D03*
X293501664Y-117175000D03*
X294001664Y-117175000D03*
X294501664Y-117175000D03*
X295001664Y-117175000D03*
X295501664Y-117175000D03*
X296001664Y-117175000D03*
X296501664Y-117175000D03*
X297001664Y-117175000D03*
X297501664Y-117175000D03*
X298001664Y-117175000D03*
X298501664Y-117175000D03*
X299001664Y-117175000D03*
X299501664Y-117175000D03*
X300001664Y-117175000D03*
X300501664Y-117175000D03*
X301001664Y-117175000D03*
X301501664Y-117175000D03*
X302001664Y-117175000D03*
X302501664Y-117175000D03*
X303001664Y-117175000D03*
X303501664Y-117175000D03*
X304001664Y-117175000D03*
X304501664Y-117175000D03*
X305001664Y-117175000D03*
X305501664Y-117175000D03*
X306001664Y-117175000D03*
X306501664Y-117175000D03*
X307001664Y-117175000D03*
X307501664Y-117175000D03*
X308001664Y-117175000D03*
X308501664Y-117175000D03*
X309001664Y-117175000D03*
X290001664Y-122324720D03*
X290501664Y-122324720D03*
X291001664Y-122324720D03*
X291501664Y-122324720D03*
X292001664Y-122324720D03*
X292501664Y-122324720D03*
X293001664Y-122324720D03*
X293501664Y-122324720D03*
X294001664Y-122324720D03*
X294501664Y-122324720D03*
X295001664Y-122324720D03*
X295501664Y-122324720D03*
X296001664Y-122324720D03*
X296501664Y-122324720D03*
X297001664Y-122324720D03*
X297501664Y-122324720D03*
X298001664Y-122324720D03*
X298501664Y-122324720D03*
X299001664Y-122324720D03*
X299501664Y-122324720D03*
X300001664Y-122324720D03*
X300501664Y-122324720D03*
X301001664Y-122324720D03*
X301501664Y-122324720D03*
X302001664Y-122324720D03*
X302501664Y-122324720D03*
X303001664Y-122324720D03*
X303501664Y-122324720D03*
X304001664Y-122324720D03*
X304501664Y-122324720D03*
X305001664Y-122324720D03*
X305501664Y-122324720D03*
X306001664Y-122324720D03*
X306501664Y-122324720D03*
X307001664Y-122324720D03*
X307501664Y-122324720D03*
X308001664Y-122324720D03*
X308501664Y-122324720D03*
X309001664Y-122324720D03*
%TD*%
D12*
%TO.C,BZ1*%
X310500000Y-154150000D03*
X301800000Y-154150000D03*
%TD*%
D13*
%TO.C,C3*%
X268810000Y-139950000D03*
X268810000Y-141850000D03*
%TD*%
%TO.C,C4*%
X265190000Y-125610000D03*
X265190000Y-127510000D03*
%TD*%
D14*
%TO.C,D4*%
X198073860Y-148700000D03*
X194726140Y-148700000D03*
%TD*%
%TO.C,D3*%
X201001140Y-97600000D03*
X204348860Y-97600000D03*
%TD*%
D15*
%TO.C,LD5*%
X219250980Y-140300000D03*
X221349020Y-140300000D03*
%TD*%
D14*
%TO.C,D2*%
X273490000Y-124826140D03*
X273490000Y-128173860D03*
%TD*%
%TO.C,D1*%
X276720000Y-142713860D03*
X276720000Y-139366140D03*
%TD*%
D16*
%TO.C,F6*%
X177300000Y-92700000D03*
X177300000Y-99500000D03*
%TD*%
%TO.C,F5*%
X176650000Y-148700000D03*
X176650000Y-155500000D03*
%TD*%
D17*
%TO.C,F3*%
X181950000Y-94000000D03*
X181950000Y-98000000D03*
%TD*%
%TO.C,F2*%
X181000000Y-154000000D03*
X181000000Y-150000000D03*
%TD*%
D18*
%TO.C,U10*%
X203500000Y-147550000D03*
X203500000Y-149450000D03*
X201300000Y-149450000D03*
X201300000Y-148500000D03*
X201300000Y-147550000D03*
%TD*%
D19*
%TO.C,R17*%
X193900000Y-155350000D03*
X195800000Y-155350000D03*
%TD*%
D20*
%TO.C,Q2*%
X214200000Y-148500000D03*
X212200000Y-149450000D03*
X212200000Y-147550000D03*
%TD*%
D15*
%TO.C,LD4*%
X221299020Y-143300000D03*
X219200980Y-143300000D03*
%TD*%
%TO.C,LD3*%
X219350980Y-146300000D03*
X221449020Y-146300000D03*
%TD*%
%TO.C,LD2*%
X277049020Y-99200000D03*
X274950980Y-99200000D03*
%TD*%
D21*
%TO.C,D14*%
X185850000Y-97400000D03*
X185850000Y-94600000D03*
%TD*%
%TO.C,D13*%
X184750000Y-153250000D03*
X184750000Y-150450000D03*
%TD*%
D14*
%TO.C,D11*%
X198123860Y-151250000D03*
X194776140Y-151250000D03*
%TD*%
D21*
%TO.C,D7*%
X217030000Y-149330000D03*
X219830000Y-149330000D03*
%TD*%
%TO.C,D6*%
X225590000Y-149360000D03*
X222790000Y-149360000D03*
%TD*%
D22*
%TO.C,C8*%
X208000000Y-145600000D03*
X208000000Y-140200000D03*
%TD*%
D23*
%TO.C,C7*%
X279400000Y-145600000D03*
X283000000Y-145600000D03*
%TD*%
D24*
%TO.C,C5*%
X241700000Y-131500000D03*
X241700000Y-135100000D03*
%TD*%
D25*
%TO.C,U7*%
G36*
X189554775Y-116472003D02*
X189595158Y-116477993D01*
X189634758Y-116487913D01*
X189673196Y-116501666D01*
X189710101Y-116519121D01*
X189745117Y-116540109D01*
X189777908Y-116564428D01*
X189808156Y-116591844D01*
X189835572Y-116622092D01*
X189859891Y-116654883D01*
X189880879Y-116689899D01*
X189898334Y-116726804D01*
X189912087Y-116765242D01*
X189922007Y-116804842D01*
X189927997Y-116845225D01*
X189930000Y-116886000D01*
X189930000Y-120214000D01*
X189927997Y-120254775D01*
X189922007Y-120295158D01*
X189912087Y-120334758D01*
X189898334Y-120373196D01*
X189880879Y-120410101D01*
X189859891Y-120445117D01*
X189835572Y-120477908D01*
X189808156Y-120508156D01*
X189777908Y-120535572D01*
X189745117Y-120559891D01*
X189710101Y-120580879D01*
X189673196Y-120598334D01*
X189634758Y-120612087D01*
X189595158Y-120622007D01*
X189554775Y-120627997D01*
X189514000Y-120630000D01*
X186186000Y-120630000D01*
X186145225Y-120627997D01*
X186104842Y-120622007D01*
X186065242Y-120612087D01*
X186026804Y-120598334D01*
X185989899Y-120580879D01*
X185954883Y-120559891D01*
X185922092Y-120535572D01*
X185891844Y-120508156D01*
X185864428Y-120477908D01*
X185840109Y-120445117D01*
X185819121Y-120410101D01*
X185801666Y-120373196D01*
X185787913Y-120334758D01*
X185777993Y-120295158D01*
X185772003Y-120254775D01*
X185770000Y-120214000D01*
X185770000Y-116886000D01*
X185772003Y-116845225D01*
X185777993Y-116804842D01*
X185787913Y-116765242D01*
X185801666Y-116726804D01*
X185819121Y-116689899D01*
X185840109Y-116654883D01*
X185864428Y-116622092D01*
X185891844Y-116591844D01*
X185922092Y-116564428D01*
X185954883Y-116540109D01*
X185989899Y-116519121D01*
X186026804Y-116501666D01*
X186065242Y-116487913D01*
X186104842Y-116477993D01*
X186145225Y-116472003D01*
X186186000Y-116470000D01*
X189514000Y-116470000D01*
X189554775Y-116472003D01*
X189554775Y-116472003D01*
G37*
D26*
X187850000Y-118550000D03*
D25*
G36*
X186404775Y-106072003D02*
X186445158Y-106077993D01*
X186484758Y-106087913D01*
X186523196Y-106101666D01*
X186560101Y-106119121D01*
X186595117Y-106140109D01*
X186627908Y-106164428D01*
X186658156Y-106191844D01*
X186685572Y-106222092D01*
X186709891Y-106254883D01*
X186730879Y-106289899D01*
X186748334Y-106326804D01*
X186762087Y-106365242D01*
X186772007Y-106404842D01*
X186777997Y-106445225D01*
X186780000Y-106486000D01*
X186780000Y-109814000D01*
X186777997Y-109854775D01*
X186772007Y-109895158D01*
X186762087Y-109934758D01*
X186748334Y-109973196D01*
X186730879Y-110010101D01*
X186709891Y-110045117D01*
X186685572Y-110077908D01*
X186658156Y-110108156D01*
X186627908Y-110135572D01*
X186595117Y-110159891D01*
X186560101Y-110180879D01*
X186523196Y-110198334D01*
X186484758Y-110212087D01*
X186445158Y-110222007D01*
X186404775Y-110227997D01*
X186364000Y-110230000D01*
X183036000Y-110230000D01*
X182995225Y-110227997D01*
X182954842Y-110222007D01*
X182915242Y-110212087D01*
X182876804Y-110198334D01*
X182839899Y-110180879D01*
X182804883Y-110159891D01*
X182772092Y-110135572D01*
X182741844Y-110108156D01*
X182714428Y-110077908D01*
X182690109Y-110045117D01*
X182669121Y-110010101D01*
X182651666Y-109973196D01*
X182637913Y-109934758D01*
X182627993Y-109895158D01*
X182622003Y-109854775D01*
X182620000Y-109814000D01*
X182620000Y-106486000D01*
X182622003Y-106445225D01*
X182627993Y-106404842D01*
X182637913Y-106365242D01*
X182651666Y-106326804D01*
X182669121Y-106289899D01*
X182690109Y-106254883D01*
X182714428Y-106222092D01*
X182741844Y-106191844D01*
X182772092Y-106164428D01*
X182804883Y-106140109D01*
X182839899Y-106119121D01*
X182876804Y-106101666D01*
X182915242Y-106087913D01*
X182954842Y-106077993D01*
X182995225Y-106072003D01*
X183036000Y-106070000D01*
X186364000Y-106070000D01*
X186404775Y-106072003D01*
X186404775Y-106072003D01*
G37*
D26*
X184700000Y-108150000D03*
D25*
G36*
X192704775Y-106072003D02*
X192745158Y-106077993D01*
X192784758Y-106087913D01*
X192823196Y-106101666D01*
X192860101Y-106119121D01*
X192895117Y-106140109D01*
X192927908Y-106164428D01*
X192958156Y-106191844D01*
X192985572Y-106222092D01*
X193009891Y-106254883D01*
X193030879Y-106289899D01*
X193048334Y-106326804D01*
X193062087Y-106365242D01*
X193072007Y-106404842D01*
X193077997Y-106445225D01*
X193080000Y-106486000D01*
X193080000Y-109814000D01*
X193077997Y-109854775D01*
X193072007Y-109895158D01*
X193062087Y-109934758D01*
X193048334Y-109973196D01*
X193030879Y-110010101D01*
X193009891Y-110045117D01*
X192985572Y-110077908D01*
X192958156Y-110108156D01*
X192927908Y-110135572D01*
X192895117Y-110159891D01*
X192860101Y-110180879D01*
X192823196Y-110198334D01*
X192784758Y-110212087D01*
X192745158Y-110222007D01*
X192704775Y-110227997D01*
X192664000Y-110230000D01*
X189336000Y-110230000D01*
X189295225Y-110227997D01*
X189254842Y-110222007D01*
X189215242Y-110212087D01*
X189176804Y-110198334D01*
X189139899Y-110180879D01*
X189104883Y-110159891D01*
X189072092Y-110135572D01*
X189041844Y-110108156D01*
X189014428Y-110077908D01*
X188990109Y-110045117D01*
X188969121Y-110010101D01*
X188951666Y-109973196D01*
X188937913Y-109934758D01*
X188927993Y-109895158D01*
X188922003Y-109854775D01*
X188920000Y-109814000D01*
X188920000Y-106486000D01*
X188922003Y-106445225D01*
X188927993Y-106404842D01*
X188937913Y-106365242D01*
X188951666Y-106326804D01*
X188969121Y-106289899D01*
X188990109Y-106254883D01*
X189014428Y-106222092D01*
X189041844Y-106191844D01*
X189072092Y-106164428D01*
X189104883Y-106140109D01*
X189139899Y-106119121D01*
X189176804Y-106101666D01*
X189215242Y-106087913D01*
X189254842Y-106077993D01*
X189295225Y-106072003D01*
X189336000Y-106070000D01*
X192664000Y-106070000D01*
X192704775Y-106072003D01*
X192704775Y-106072003D01*
G37*
D26*
X191000000Y-108150000D03*
%TD*%
D19*
%TO.C,R11*%
X195810000Y-144710000D03*
X197710000Y-144710000D03*
%TD*%
%TO.C,R13*%
X195810000Y-139660000D03*
X197710000Y-139660000D03*
%TD*%
D27*
%TO.C,REF\002A\002A*%
X214800000Y-100300000D03*
%TD*%
%TO.C,REF\002A\002A*%
X309800000Y-145300000D03*
%TD*%
D28*
%TO.C,R3*%
X203050000Y-102050000D03*
X203050000Y-100150000D03*
%TD*%
%TO.C,R1*%
X202954382Y-105532806D03*
X202954382Y-103632806D03*
%TD*%
%TO.C,R7*%
X269590000Y-127450000D03*
X269590000Y-125550000D03*
%TD*%
D19*
%TO.C,R10*%
X199575000Y-100200000D03*
X197675000Y-100200000D03*
%TD*%
D29*
%TO.C,J24*%
X245700000Y-139900000D03*
X243100000Y-139900000D03*
X245050000Y-139900000D03*
X243750000Y-139900000D03*
X244400000Y-139900000D03*
%TD*%
D28*
%TO.C,R2*%
X201800822Y-141600000D03*
X201800822Y-139700000D03*
%TD*%
%TO.C,R4*%
X201800000Y-145850000D03*
X201800000Y-143950000D03*
%TD*%
%TO.C,R5*%
X275900000Y-104350000D03*
X275900000Y-102450000D03*
%TD*%
%TO.C,R6*%
X273070000Y-139950000D03*
X273070000Y-141850000D03*
%TD*%
D19*
%TO.C,R9*%
X287050000Y-146000000D03*
X288950000Y-146000000D03*
%TD*%
%TO.C,R12*%
X195836071Y-103801687D03*
X197736071Y-103801687D03*
%TD*%
D30*
%TO.C,SW1*%
X274995000Y-156130000D03*
X282945000Y-156130000D03*
X274995000Y-151630000D03*
X282945000Y-151630000D03*
%TD*%
%TO.C,SW2*%
X276675000Y-131250000D03*
X268725000Y-131250000D03*
X276675000Y-135750000D03*
X268725000Y-135750000D03*
%TD*%
%TO.C,SW3*%
X268725000Y-111050000D03*
X276675000Y-111050000D03*
X268725000Y-106550000D03*
X276675000Y-106550000D03*
%TD*%
D31*
%TO.C,Q1*%
X246950000Y-156710000D03*
X246000000Y-154710000D03*
X247900000Y-154710000D03*
%TD*%
D15*
%TO.C,LD1*%
X287080980Y-151280000D03*
X289179020Y-151280000D03*
%TD*%
D32*
%TO.C,J15*%
X257450000Y-112175000D03*
X257450000Y-99975000D03*
D33*
X260800000Y-101700000D03*
X260800000Y-102950000D03*
X260800000Y-104200000D03*
X260800000Y-105450000D03*
X260800000Y-106700000D03*
X260800000Y-107950000D03*
X260800000Y-109200000D03*
X260800000Y-110450000D03*
%TD*%
D34*
%TO.C,U9*%
X236300000Y-142350000D03*
X231700000Y-142350000D03*
X234000000Y-142350000D03*
D35*
X234000000Y-148650000D03*
%TD*%
D25*
%TO.C,U8*%
G36*
X189604775Y-136872003D02*
X189645158Y-136877993D01*
X189684758Y-136887913D01*
X189723196Y-136901666D01*
X189760101Y-136919121D01*
X189795117Y-136940109D01*
X189827908Y-136964428D01*
X189858156Y-136991844D01*
X189885572Y-137022092D01*
X189909891Y-137054883D01*
X189930879Y-137089899D01*
X189948334Y-137126804D01*
X189962087Y-137165242D01*
X189972007Y-137204842D01*
X189977997Y-137245225D01*
X189980000Y-137286000D01*
X189980000Y-140614000D01*
X189977997Y-140654775D01*
X189972007Y-140695158D01*
X189962087Y-140734758D01*
X189948334Y-140773196D01*
X189930879Y-140810101D01*
X189909891Y-140845117D01*
X189885572Y-140877908D01*
X189858156Y-140908156D01*
X189827908Y-140935572D01*
X189795117Y-140959891D01*
X189760101Y-140980879D01*
X189723196Y-140998334D01*
X189684758Y-141012087D01*
X189645158Y-141022007D01*
X189604775Y-141027997D01*
X189564000Y-141030000D01*
X186236000Y-141030000D01*
X186195225Y-141027997D01*
X186154842Y-141022007D01*
X186115242Y-141012087D01*
X186076804Y-140998334D01*
X186039899Y-140980879D01*
X186004883Y-140959891D01*
X185972092Y-140935572D01*
X185941844Y-140908156D01*
X185914428Y-140877908D01*
X185890109Y-140845117D01*
X185869121Y-140810101D01*
X185851666Y-140773196D01*
X185837913Y-140734758D01*
X185827993Y-140695158D01*
X185822003Y-140654775D01*
X185820000Y-140614000D01*
X185820000Y-137286000D01*
X185822003Y-137245225D01*
X185827993Y-137204842D01*
X185837913Y-137165242D01*
X185851666Y-137126804D01*
X185869121Y-137089899D01*
X185890109Y-137054883D01*
X185914428Y-137022092D01*
X185941844Y-136991844D01*
X185972092Y-136964428D01*
X186004883Y-136940109D01*
X186039899Y-136919121D01*
X186076804Y-136901666D01*
X186115242Y-136887913D01*
X186154842Y-136877993D01*
X186195225Y-136872003D01*
X186236000Y-136870000D01*
X189564000Y-136870000D01*
X189604775Y-136872003D01*
X189604775Y-136872003D01*
G37*
D26*
X187900000Y-138950000D03*
D25*
G36*
X186454775Y-126472003D02*
X186495158Y-126477993D01*
X186534758Y-126487913D01*
X186573196Y-126501666D01*
X186610101Y-126519121D01*
X186645117Y-126540109D01*
X186677908Y-126564428D01*
X186708156Y-126591844D01*
X186735572Y-126622092D01*
X186759891Y-126654883D01*
X186780879Y-126689899D01*
X186798334Y-126726804D01*
X186812087Y-126765242D01*
X186822007Y-126804842D01*
X186827997Y-126845225D01*
X186830000Y-126886000D01*
X186830000Y-130214000D01*
X186827997Y-130254775D01*
X186822007Y-130295158D01*
X186812087Y-130334758D01*
X186798334Y-130373196D01*
X186780879Y-130410101D01*
X186759891Y-130445117D01*
X186735572Y-130477908D01*
X186708156Y-130508156D01*
X186677908Y-130535572D01*
X186645117Y-130559891D01*
X186610101Y-130580879D01*
X186573196Y-130598334D01*
X186534758Y-130612087D01*
X186495158Y-130622007D01*
X186454775Y-130627997D01*
X186414000Y-130630000D01*
X183086000Y-130630000D01*
X183045225Y-130627997D01*
X183004842Y-130622007D01*
X182965242Y-130612087D01*
X182926804Y-130598334D01*
X182889899Y-130580879D01*
X182854883Y-130559891D01*
X182822092Y-130535572D01*
X182791844Y-130508156D01*
X182764428Y-130477908D01*
X182740109Y-130445117D01*
X182719121Y-130410101D01*
X182701666Y-130373196D01*
X182687913Y-130334758D01*
X182677993Y-130295158D01*
X182672003Y-130254775D01*
X182670000Y-130214000D01*
X182670000Y-126886000D01*
X182672003Y-126845225D01*
X182677993Y-126804842D01*
X182687913Y-126765242D01*
X182701666Y-126726804D01*
X182719121Y-126689899D01*
X182740109Y-126654883D01*
X182764428Y-126622092D01*
X182791844Y-126591844D01*
X182822092Y-126564428D01*
X182854883Y-126540109D01*
X182889899Y-126519121D01*
X182926804Y-126501666D01*
X182965242Y-126487913D01*
X183004842Y-126477993D01*
X183045225Y-126472003D01*
X183086000Y-126470000D01*
X186414000Y-126470000D01*
X186454775Y-126472003D01*
X186454775Y-126472003D01*
G37*
D26*
X184750000Y-128550000D03*
D25*
G36*
X192754775Y-126472003D02*
X192795158Y-126477993D01*
X192834758Y-126487913D01*
X192873196Y-126501666D01*
X192910101Y-126519121D01*
X192945117Y-126540109D01*
X192977908Y-126564428D01*
X193008156Y-126591844D01*
X193035572Y-126622092D01*
X193059891Y-126654883D01*
X193080879Y-126689899D01*
X193098334Y-126726804D01*
X193112087Y-126765242D01*
X193122007Y-126804842D01*
X193127997Y-126845225D01*
X193130000Y-126886000D01*
X193130000Y-130214000D01*
X193127997Y-130254775D01*
X193122007Y-130295158D01*
X193112087Y-130334758D01*
X193098334Y-130373196D01*
X193080879Y-130410101D01*
X193059891Y-130445117D01*
X193035572Y-130477908D01*
X193008156Y-130508156D01*
X192977908Y-130535572D01*
X192945117Y-130559891D01*
X192910101Y-130580879D01*
X192873196Y-130598334D01*
X192834758Y-130612087D01*
X192795158Y-130622007D01*
X192754775Y-130627997D01*
X192714000Y-130630000D01*
X189386000Y-130630000D01*
X189345225Y-130627997D01*
X189304842Y-130622007D01*
X189265242Y-130612087D01*
X189226804Y-130598334D01*
X189189899Y-130580879D01*
X189154883Y-130559891D01*
X189122092Y-130535572D01*
X189091844Y-130508156D01*
X189064428Y-130477908D01*
X189040109Y-130445117D01*
X189019121Y-130410101D01*
X189001666Y-130373196D01*
X188987913Y-130334758D01*
X188977993Y-130295158D01*
X188972003Y-130254775D01*
X188970000Y-130214000D01*
X188970000Y-126886000D01*
X188972003Y-126845225D01*
X188977993Y-126804842D01*
X188987913Y-126765242D01*
X189001666Y-126726804D01*
X189019121Y-126689899D01*
X189040109Y-126654883D01*
X189064428Y-126622092D01*
X189091844Y-126591844D01*
X189122092Y-126564428D01*
X189154883Y-126540109D01*
X189189899Y-126519121D01*
X189226804Y-126501666D01*
X189265242Y-126487913D01*
X189304842Y-126477993D01*
X189345225Y-126472003D01*
X189386000Y-126470000D01*
X192714000Y-126470000D01*
X192754775Y-126472003D01*
X192754775Y-126472003D01*
G37*
D26*
X191050000Y-128550000D03*
%TD*%
M02*
