%TF.GenerationSoftware,KiCad,Pcbnew,(2017-08-27 revision e3c64f1f0)-makepkg*%
%TF.CreationDate,2017-11-07T13:37:45+01:00*%
%TF.ProjectId,Breakout-Platine-Cube,427265616B6F75742D506C6174696E65,rev?*%
%TF.SameCoordinates,Original*%
%TF.FileFunction,Legend,Bot*%
%TF.FilePolarity,Positive*%
%FSLAX46Y46*%
G04 Gerber Fmt 4.6, Leading zero omitted, Abs format (unit mm)*
G04 Created by KiCad (PCBNEW (2017-08-27 revision e3c64f1f0)-makepkg) date 11/07/17 13:37:45*
%MOMM*%
%LPD*%
G01*
G04 APERTURE LIST*
%ADD10C,0.127000*%
%ADD11C,0.120000*%
%ADD12C,0.150000*%
%ADD13C,0.400000*%
%ADD14C,0.100000*%
%ADD15C,3.800000*%
%ADD16C,0.950000*%
%ADD17R,2.240000X2.240000*%
%ADD18C,2.240000*%
%ADD19R,1.090900X1.090900*%
%ADD20R,9.640000X11.040000*%
%ADD21R,4.840000X1.340000*%
%ADD22R,1.540000X0.940000*%
%ADD23R,0.940000X1.540000*%
%ADD24R,2.440000X1.740000*%
%ADD25R,1.490000X1.240000*%
%ADD26R,2.740000X4.240000*%
%ADD27R,1.440000X0.990000*%
%ADD28R,5.840000X2.540000*%
%ADD29R,2.540000X5.840000*%
%ADD30R,1.740000X2.440000*%
%ADD31C,2.640000*%
%ADD32C,1.440000*%
%ADD33C,1.740000*%
%ADD34C,5.840000*%
%ADD35C,4.200000*%
%ADD36O,0.849600X1.713200*%
%ADD37O,1.200000X1.900000*%
%ADD38R,1.200000X1.900000*%
%ADD39O,2.440000X1.340000*%
%ADD40O,2.040000X1.340000*%
%ADD41O,1.940000X1.940000*%
%ADD42R,1.940000X1.940000*%
%ADD43O,1.713200X0.849600*%
%ADD44R,1.900000X1.200000*%
%ADD45O,1.900000X1.200000*%
%ADD46C,6.740000*%
G04 APERTURE END LIST*
D10*
%TO.C,D8*%
X202650460Y-95399900D02*
X202650460Y-97000100D01*
X205449540Y-95399900D02*
X202650460Y-95399900D01*
X205449540Y-97000100D02*
X205449540Y-95399900D01*
X202650460Y-97000100D02*
X205449540Y-97000100D01*
X205050760Y-97000100D02*
X205050760Y-95399900D01*
X204949160Y-95399900D02*
X204949160Y-97000100D01*
D11*
%TO.C,C10*%
X220550000Y-104750000D02*
X219050000Y-104750000D01*
X219800000Y-105500000D02*
X219800000Y-104000000D01*
X220079000Y-95219000D02*
X219521000Y-95219000D01*
X220472000Y-95259000D02*
X219128000Y-95259000D01*
X220713000Y-95299000D02*
X218887000Y-95299000D01*
X220904000Y-95339000D02*
X218696000Y-95339000D01*
X221065000Y-95379000D02*
X218535000Y-95379000D01*
X221207000Y-95419000D02*
X218393000Y-95419000D01*
X221336000Y-95459000D02*
X218264000Y-95459000D01*
X221454000Y-95499000D02*
X218146000Y-95499000D01*
X221563000Y-95539000D02*
X218037000Y-95539000D01*
X221666000Y-95579000D02*
X217934000Y-95579000D01*
X221762000Y-95619000D02*
X217838000Y-95619000D01*
X221853000Y-95659000D02*
X217747000Y-95659000D01*
X221940000Y-95699000D02*
X217660000Y-95699000D01*
X222022000Y-95739000D02*
X217578000Y-95739000D01*
X222101000Y-95779000D02*
X217499000Y-95779000D01*
X222177000Y-95819000D02*
X217423000Y-95819000D01*
X222249000Y-95859000D02*
X217351000Y-95859000D01*
X222319000Y-95899000D02*
X217281000Y-95899000D01*
X222387000Y-95939000D02*
X217213000Y-95939000D01*
X222452000Y-95979000D02*
X217148000Y-95979000D01*
X222515000Y-96019000D02*
X217085000Y-96019000D01*
X222577000Y-96059000D02*
X217023000Y-96059000D01*
X222636000Y-96099000D02*
X216964000Y-96099000D01*
X222694000Y-96139000D02*
X216906000Y-96139000D01*
X222749000Y-96179000D02*
X216851000Y-96179000D01*
X222804000Y-96219000D02*
X216796000Y-96219000D01*
X222857000Y-96259000D02*
X216743000Y-96259000D01*
X222908000Y-96299000D02*
X216692000Y-96299000D01*
X222958000Y-96339000D02*
X216642000Y-96339000D01*
X223007000Y-96379000D02*
X216593000Y-96379000D01*
X223055000Y-96419000D02*
X216545000Y-96419000D01*
X223102000Y-96459000D02*
X216498000Y-96459000D01*
X223147000Y-96499000D02*
X216453000Y-96499000D01*
X223191000Y-96539000D02*
X216409000Y-96539000D01*
X223235000Y-96579000D02*
X216365000Y-96579000D01*
X223277000Y-96619000D02*
X216323000Y-96619000D01*
X218619000Y-96659000D02*
X216282000Y-96659000D01*
X223318000Y-96659000D02*
X220981000Y-96659000D01*
X218619000Y-96699000D02*
X216241000Y-96699000D01*
X223359000Y-96699000D02*
X220981000Y-96699000D01*
X218619000Y-96739000D02*
X216202000Y-96739000D01*
X223398000Y-96739000D02*
X220981000Y-96739000D01*
X218619000Y-96779000D02*
X216163000Y-96779000D01*
X223437000Y-96779000D02*
X220981000Y-96779000D01*
X218619000Y-96819000D02*
X216125000Y-96819000D01*
X223475000Y-96819000D02*
X220981000Y-96819000D01*
X218619000Y-96859000D02*
X216088000Y-96859000D01*
X223512000Y-96859000D02*
X220981000Y-96859000D01*
X218619000Y-96899000D02*
X216052000Y-96899000D01*
X223548000Y-96899000D02*
X220981000Y-96899000D01*
X218619000Y-96939000D02*
X216016000Y-96939000D01*
X223584000Y-96939000D02*
X220981000Y-96939000D01*
X218619000Y-96979000D02*
X215981000Y-96979000D01*
X223619000Y-96979000D02*
X220981000Y-96979000D01*
X218619000Y-97019000D02*
X215947000Y-97019000D01*
X223653000Y-97019000D02*
X220981000Y-97019000D01*
X218619000Y-97059000D02*
X215914000Y-97059000D01*
X223686000Y-97059000D02*
X220981000Y-97059000D01*
X218619000Y-97099000D02*
X215881000Y-97099000D01*
X223719000Y-97099000D02*
X220981000Y-97099000D01*
X218619000Y-97139000D02*
X215849000Y-97139000D01*
X223751000Y-97139000D02*
X220981000Y-97139000D01*
X218619000Y-97179000D02*
X215818000Y-97179000D01*
X223782000Y-97179000D02*
X220981000Y-97179000D01*
X218619000Y-97219000D02*
X215787000Y-97219000D01*
X223813000Y-97219000D02*
X220981000Y-97219000D01*
X218619000Y-97259000D02*
X215757000Y-97259000D01*
X223843000Y-97259000D02*
X220981000Y-97259000D01*
X218619000Y-97299000D02*
X215728000Y-97299000D01*
X223872000Y-97299000D02*
X220981000Y-97299000D01*
X218619000Y-97339000D02*
X215699000Y-97339000D01*
X223901000Y-97339000D02*
X220981000Y-97339000D01*
X218619000Y-97379000D02*
X215670000Y-97379000D01*
X223930000Y-97379000D02*
X220981000Y-97379000D01*
X218619000Y-97419000D02*
X215643000Y-97419000D01*
X223957000Y-97419000D02*
X220981000Y-97419000D01*
X218619000Y-97459000D02*
X215615000Y-97459000D01*
X223985000Y-97459000D02*
X220981000Y-97459000D01*
X218619000Y-97499000D02*
X215589000Y-97499000D01*
X224011000Y-97499000D02*
X220981000Y-97499000D01*
X218619000Y-97539000D02*
X215563000Y-97539000D01*
X224037000Y-97539000D02*
X220981000Y-97539000D01*
X218619000Y-97579000D02*
X215537000Y-97579000D01*
X224063000Y-97579000D02*
X220981000Y-97579000D01*
X218619000Y-97619000D02*
X215512000Y-97619000D01*
X224088000Y-97619000D02*
X220981000Y-97619000D01*
X218619000Y-97659000D02*
X215488000Y-97659000D01*
X224112000Y-97659000D02*
X220981000Y-97659000D01*
X218619000Y-97699000D02*
X215464000Y-97699000D01*
X224136000Y-97699000D02*
X220981000Y-97699000D01*
X218619000Y-97739000D02*
X215440000Y-97739000D01*
X224160000Y-97739000D02*
X220981000Y-97739000D01*
X218619000Y-97779000D02*
X215417000Y-97779000D01*
X224183000Y-97779000D02*
X220981000Y-97779000D01*
X218619000Y-97819000D02*
X215395000Y-97819000D01*
X224205000Y-97819000D02*
X220981000Y-97819000D01*
X218619000Y-97859000D02*
X215372000Y-97859000D01*
X224228000Y-97859000D02*
X220981000Y-97859000D01*
X218619000Y-97899000D02*
X215351000Y-97899000D01*
X224249000Y-97899000D02*
X220981000Y-97899000D01*
X218619000Y-97939000D02*
X215330000Y-97939000D01*
X224270000Y-97939000D02*
X220981000Y-97939000D01*
X218619000Y-97979000D02*
X215309000Y-97979000D01*
X224291000Y-97979000D02*
X220981000Y-97979000D01*
X218619000Y-98019000D02*
X215289000Y-98019000D01*
X224311000Y-98019000D02*
X220981000Y-98019000D01*
X218619000Y-98059000D02*
X215269000Y-98059000D01*
X224331000Y-98059000D02*
X220981000Y-98059000D01*
X218619000Y-98099000D02*
X215250000Y-98099000D01*
X224350000Y-98099000D02*
X220981000Y-98099000D01*
X218619000Y-98139000D02*
X215231000Y-98139000D01*
X224369000Y-98139000D02*
X220981000Y-98139000D01*
X218619000Y-98179000D02*
X215212000Y-98179000D01*
X224388000Y-98179000D02*
X220981000Y-98179000D01*
X218619000Y-98219000D02*
X215194000Y-98219000D01*
X224406000Y-98219000D02*
X220981000Y-98219000D01*
X218619000Y-98259000D02*
X215176000Y-98259000D01*
X224424000Y-98259000D02*
X220981000Y-98259000D01*
X218619000Y-98299000D02*
X215159000Y-98299000D01*
X224441000Y-98299000D02*
X220981000Y-98299000D01*
X218619000Y-98339000D02*
X215142000Y-98339000D01*
X224458000Y-98339000D02*
X220981000Y-98339000D01*
X218619000Y-98379000D02*
X215126000Y-98379000D01*
X224474000Y-98379000D02*
X220981000Y-98379000D01*
X218619000Y-98419000D02*
X215109000Y-98419000D01*
X224491000Y-98419000D02*
X220981000Y-98419000D01*
X218619000Y-98459000D02*
X215094000Y-98459000D01*
X224506000Y-98459000D02*
X220981000Y-98459000D01*
X218619000Y-98499000D02*
X215078000Y-98499000D01*
X224522000Y-98499000D02*
X220981000Y-98499000D01*
X218619000Y-98539000D02*
X215063000Y-98539000D01*
X224537000Y-98539000D02*
X220981000Y-98539000D01*
X218619000Y-98579000D02*
X215049000Y-98579000D01*
X224551000Y-98579000D02*
X220981000Y-98579000D01*
X218619000Y-98619000D02*
X215035000Y-98619000D01*
X224565000Y-98619000D02*
X220981000Y-98619000D01*
X218619000Y-98659000D02*
X215021000Y-98659000D01*
X224579000Y-98659000D02*
X220981000Y-98659000D01*
X218619000Y-98699000D02*
X215008000Y-98699000D01*
X224592000Y-98699000D02*
X220981000Y-98699000D01*
X218619000Y-98739000D02*
X214994000Y-98739000D01*
X224606000Y-98739000D02*
X220981000Y-98739000D01*
X218619000Y-98779000D02*
X214982000Y-98779000D01*
X224618000Y-98779000D02*
X220981000Y-98779000D01*
X218619000Y-98819000D02*
X214969000Y-98819000D01*
X224631000Y-98819000D02*
X220981000Y-98819000D01*
X218619000Y-98859000D02*
X214957000Y-98859000D01*
X224643000Y-98859000D02*
X220981000Y-98859000D01*
X218619000Y-98899000D02*
X214946000Y-98899000D01*
X224654000Y-98899000D02*
X220981000Y-98899000D01*
X218619000Y-98939000D02*
X214935000Y-98939000D01*
X224665000Y-98939000D02*
X220981000Y-98939000D01*
X218619000Y-98979000D02*
X214924000Y-98979000D01*
X224676000Y-98979000D02*
X220981000Y-98979000D01*
X224687000Y-99019000D02*
X214913000Y-99019000D01*
X224697000Y-99059000D02*
X214903000Y-99059000D01*
X224707000Y-99099000D02*
X214893000Y-99099000D01*
X224717000Y-99139000D02*
X214883000Y-99139000D01*
X224726000Y-99179000D02*
X214874000Y-99179000D01*
X224735000Y-99219000D02*
X214865000Y-99219000D01*
X224743000Y-99259000D02*
X214857000Y-99259000D01*
X224751000Y-99299000D02*
X214849000Y-99299000D01*
X224759000Y-99339000D02*
X214841000Y-99339000D01*
X224767000Y-99379000D02*
X214833000Y-99379000D01*
X224774000Y-99419000D02*
X214826000Y-99419000D01*
X224781000Y-99459000D02*
X214819000Y-99459000D01*
X224787000Y-99499000D02*
X214813000Y-99499000D01*
X224793000Y-99539000D02*
X214807000Y-99539000D01*
X224799000Y-99579000D02*
X214801000Y-99579000D01*
X224805000Y-99620000D02*
X214795000Y-99620000D01*
X224810000Y-99660000D02*
X214790000Y-99660000D01*
X224815000Y-99700000D02*
X214785000Y-99700000D01*
X224820000Y-99740000D02*
X214780000Y-99740000D01*
X224824000Y-99780000D02*
X214776000Y-99780000D01*
X224828000Y-99820000D02*
X214772000Y-99820000D01*
X224831000Y-99860000D02*
X214769000Y-99860000D01*
X224835000Y-99900000D02*
X214765000Y-99900000D01*
X224838000Y-99940000D02*
X214762000Y-99940000D01*
X224840000Y-99980000D02*
X214760000Y-99980000D01*
X224843000Y-100020000D02*
X214757000Y-100020000D01*
X224845000Y-100060000D02*
X214755000Y-100060000D01*
X224847000Y-100100000D02*
X214753000Y-100100000D01*
X224848000Y-100140000D02*
X214752000Y-100140000D01*
X224849000Y-100180000D02*
X214751000Y-100180000D01*
X224850000Y-100220000D02*
X214750000Y-100220000D01*
X224850000Y-100260000D02*
X214750000Y-100260000D01*
X224850000Y-100300000D02*
X214750000Y-100300000D01*
X218416736Y-95401563D02*
G75*
G02X221180000Y-95400643I1383264J-4898437D01*
G01*
X218416736Y-95401563D02*
G75*
G03X218420000Y-105199357I1383264J-4898437D01*
G01*
X221183264Y-95401563D02*
G75*
G02X221180000Y-105199357I-1383264J-4898437D01*
G01*
%TO.C,U3*%
X184950000Y-98550000D02*
X186050000Y-98550000D01*
X184950000Y-100360000D02*
X184950000Y-98550000D01*
X183450000Y-100360000D02*
X184950000Y-100360000D01*
X184950000Y-91770000D02*
X190075000Y-91770000D01*
X184950000Y-89960000D02*
X184950000Y-91770000D01*
X183450000Y-89960000D02*
X184950000Y-89960000D01*
D12*
%TO.C,R22*%
X198400000Y-98350000D02*
X198400000Y-99550000D01*
X200150000Y-99550000D02*
X200150000Y-98350000D01*
%TO.C,R21*%
X200150000Y-96075000D02*
X200150000Y-94875000D01*
X198400000Y-94875000D02*
X198400000Y-96075000D01*
%TO.C,R20*%
X186725000Y-88125000D02*
X185525000Y-88125000D01*
X185525000Y-89875000D02*
X186725000Y-89875000D01*
%TO.C,R19*%
X203800000Y-102575000D02*
X205000000Y-102575000D01*
X205000000Y-100825000D02*
X203800000Y-100825000D01*
%TO.C,D12*%
X186900000Y-156800000D02*
X188600000Y-156800000D01*
X187750000Y-155550000D02*
X188600000Y-156800000D01*
X187740000Y-156830000D02*
X187740000Y-157280000D01*
X186900000Y-155550000D02*
X188600000Y-155550000D01*
X187750000Y-155550000D02*
X186900000Y-156800000D01*
X187742053Y-155100000D02*
X187742053Y-155500000D01*
X186250000Y-152860000D02*
X186250000Y-159600000D01*
D13*
X189120000Y-152860000D02*
X186380000Y-152860000D01*
D12*
X189250000Y-159600000D02*
X189250000Y-152870000D01*
%TO.C,D10*%
X185800000Y-159600000D02*
X185800000Y-152870000D01*
D13*
X185670000Y-152860000D02*
X182930000Y-152860000D01*
D12*
X182800000Y-152860000D02*
X182800000Y-159600000D01*
X184292053Y-155100000D02*
X184292053Y-155500000D01*
X184300000Y-155550000D02*
X183450000Y-156800000D01*
X183450000Y-155550000D02*
X185150000Y-155550000D01*
X184290000Y-156830000D02*
X184290000Y-157280000D01*
X184300000Y-155550000D02*
X185150000Y-156800000D01*
X183450000Y-156800000D02*
X185150000Y-156800000D01*
%TO.C,D9*%
X195725000Y-92350000D02*
X194025000Y-92350000D01*
X194875000Y-93600000D02*
X194025000Y-92350000D01*
X194885000Y-92320000D02*
X194885000Y-91870000D01*
X195725000Y-93600000D02*
X194025000Y-93600000D01*
X194875000Y-93600000D02*
X195725000Y-92350000D01*
X194882947Y-94050000D02*
X194882947Y-93650000D01*
X196375000Y-96290000D02*
X196375000Y-89550000D01*
D13*
X193505000Y-96290000D02*
X196245000Y-96290000D01*
D12*
X193375000Y-89550000D02*
X193375000Y-96280000D01*
D11*
%TO.C,C11*%
X187950000Y-100700000D02*
X187950000Y-101700000D01*
X186250000Y-101700000D02*
X186250000Y-100700000D01*
%TO.C,C9*%
X182340000Y-157980000D02*
X182340000Y-150360000D01*
X181580000Y-158740000D02*
X182340000Y-157980000D01*
X173960000Y-157980000D02*
X174720000Y-158740000D01*
X173960000Y-150360000D02*
X173960000Y-157980000D01*
X182340000Y-150360000D02*
X179660000Y-150360000D01*
X173960000Y-150360000D02*
X176640000Y-150360000D01*
X181580000Y-158740000D02*
X179660000Y-158740000D01*
X174720000Y-158740000D02*
X176640000Y-158740000D01*
%TO.C,C1*%
X185550000Y-107100000D02*
X186250000Y-107100000D01*
X186250000Y-105900000D02*
X185550000Y-105900000D01*
%TO.C,C2*%
X190350000Y-135600000D02*
X191050000Y-135600000D01*
X191050000Y-134400000D02*
X190350000Y-134400000D01*
D12*
%TO.C,R15*%
X220000000Y-139425000D02*
X218800000Y-139425000D01*
X218800000Y-141175000D02*
X220000000Y-141175000D01*
%TO.C,R14*%
X209925000Y-115000000D02*
X209925000Y-116200000D01*
X211675000Y-116200000D02*
X211675000Y-115000000D01*
%TO.C,R8*%
X220048764Y-145425000D02*
X218848764Y-145425000D01*
X218848764Y-147175000D02*
X220048764Y-147175000D01*
%TO.C,F4*%
X214352000Y-122756000D02*
X214352000Y-115644000D01*
X220448000Y-122756000D02*
X220448000Y-115644000D01*
%TO.C,F1*%
X208244000Y-132548000D02*
X215356000Y-132548000D01*
X208244000Y-126452000D02*
X215356000Y-126452000D01*
%TO.C,R16*%
X220050000Y-142425000D02*
X218850000Y-142425000D01*
X218850000Y-144175000D02*
X220050000Y-144175000D01*
%TO.C,D5*%
X213400000Y-136300000D02*
X220130000Y-136300000D01*
D13*
X220140000Y-136170000D02*
X220140000Y-133430000D01*
D12*
X220140000Y-133300000D02*
X213400000Y-133300000D01*
X217900000Y-134792053D02*
X217500000Y-134792053D01*
X217450000Y-134800000D02*
X216200000Y-133950000D01*
X217450000Y-133950000D02*
X217450000Y-135650000D01*
X216170000Y-134790000D02*
X215720000Y-134790000D01*
X217450000Y-134800000D02*
X216200000Y-135650000D01*
X216200000Y-133950000D02*
X216200000Y-135650000D01*
D11*
%TO.C,C6*%
X216450000Y-110600000D02*
X217150000Y-110600000D01*
X217150000Y-109400000D02*
X216450000Y-109400000D01*
D12*
%TO.C,U6*%
X192022000Y-128838000D02*
G75*
G03X192022000Y-128838000I-127000J0D01*
G01*
X191260000Y-128203000D02*
X196340000Y-128203000D01*
X191260000Y-131505000D02*
X196340000Y-131505000D01*
X191260000Y-127695000D02*
X196340000Y-127695000D01*
X191260000Y-127695000D02*
X191260000Y-131505000D01*
X196340000Y-127695000D02*
X196340000Y-131505000D01*
%TO.C,U5*%
X191797000Y-113435000D02*
X187987000Y-113435000D01*
X191797000Y-108355000D02*
X187987000Y-108355000D01*
X191797000Y-108355000D02*
X191797000Y-113435000D01*
X187987000Y-108355000D02*
X187987000Y-113435000D01*
X191289000Y-108355000D02*
X191289000Y-113435000D01*
X190781000Y-108990000D02*
G75*
G03X190781000Y-108990000I-127000J0D01*
G01*
%TO.C,R18*%
X191700000Y-152475000D02*
X190500000Y-152475000D01*
X190500000Y-154225000D02*
X191700000Y-154225000D01*
%TO.C,D8*%
D14*
X204345238Y-97681432D02*
X204345238Y-97281432D01*
X204250000Y-97281432D01*
X204192857Y-97300480D01*
X204154761Y-97338575D01*
X204135714Y-97376670D01*
X204116666Y-97452860D01*
X204116666Y-97510003D01*
X204135714Y-97586194D01*
X204154761Y-97624289D01*
X204192857Y-97662384D01*
X204250000Y-97681432D01*
X204345238Y-97681432D01*
X203888095Y-97452860D02*
X203926190Y-97433813D01*
X203945238Y-97414765D01*
X203964285Y-97376670D01*
X203964285Y-97357622D01*
X203945238Y-97319527D01*
X203926190Y-97300480D01*
X203888095Y-97281432D01*
X203811904Y-97281432D01*
X203773809Y-97300480D01*
X203754761Y-97319527D01*
X203735714Y-97357622D01*
X203735714Y-97376670D01*
X203754761Y-97414765D01*
X203773809Y-97433813D01*
X203811904Y-97452860D01*
X203888095Y-97452860D01*
X203926190Y-97471908D01*
X203945238Y-97490956D01*
X203964285Y-97529051D01*
X203964285Y-97605241D01*
X203945238Y-97643337D01*
X203926190Y-97662384D01*
X203888095Y-97681432D01*
X203811904Y-97681432D01*
X203773809Y-97662384D01*
X203754761Y-97643337D01*
X203735714Y-97605241D01*
X203735714Y-97529051D01*
X203754761Y-97490956D01*
X203773809Y-97471908D01*
X203811904Y-97452860D01*
X204354761Y-94782072D02*
X204107142Y-94782072D01*
X204240476Y-94934453D01*
X204183333Y-94934453D01*
X204145238Y-94953500D01*
X204126190Y-94972548D01*
X204107142Y-95010643D01*
X204107142Y-95105881D01*
X204126190Y-95143977D01*
X204145238Y-95163024D01*
X204183333Y-95182072D01*
X204297619Y-95182072D01*
X204335714Y-95163024D01*
X204354761Y-95143977D01*
X203992857Y-94782072D02*
X203859523Y-95182072D01*
X203726190Y-94782072D01*
%TO.C,C10*%
D12*
X226407142Y-103182142D02*
X226454761Y-103134523D01*
X226502380Y-102991666D01*
X226502380Y-102896428D01*
X226454761Y-102753571D01*
X226359523Y-102658333D01*
X226264285Y-102610714D01*
X226073809Y-102563095D01*
X225930952Y-102563095D01*
X225740476Y-102610714D01*
X225645238Y-102658333D01*
X225550000Y-102753571D01*
X225502380Y-102896428D01*
X225502380Y-102991666D01*
X225550000Y-103134523D01*
X225597619Y-103182142D01*
X226502380Y-104134523D02*
X226502380Y-103563095D01*
X226502380Y-103848809D02*
X225502380Y-103848809D01*
X225645238Y-103753571D01*
X225740476Y-103658333D01*
X225788095Y-103563095D01*
X225502380Y-104753571D02*
X225502380Y-104848809D01*
X225550000Y-104944047D01*
X225597619Y-104991666D01*
X225692857Y-105039285D01*
X225883333Y-105086904D01*
X226121428Y-105086904D01*
X226311904Y-105039285D01*
X226407142Y-104991666D01*
X226454761Y-104944047D01*
X226502380Y-104848809D01*
X226502380Y-104753571D01*
X226454761Y-104658333D01*
X226407142Y-104610714D01*
X226311904Y-104563095D01*
X226121428Y-104515476D01*
X225883333Y-104515476D01*
X225692857Y-104563095D01*
X225597619Y-104610714D01*
X225550000Y-104658333D01*
X225502380Y-104753571D01*
X221797619Y-107052380D02*
X222369047Y-107052380D01*
X222083333Y-107052380D02*
X222083333Y-106052380D01*
X222178571Y-106195238D01*
X222273809Y-106290476D01*
X222369047Y-106338095D01*
X221178571Y-106052380D02*
X221083333Y-106052380D01*
X220988095Y-106100000D01*
X220940476Y-106147619D01*
X220892857Y-106242857D01*
X220845238Y-106433333D01*
X220845238Y-106671428D01*
X220892857Y-106861904D01*
X220940476Y-106957142D01*
X220988095Y-107004761D01*
X221083333Y-107052380D01*
X221178571Y-107052380D01*
X221273809Y-107004761D01*
X221321428Y-106957142D01*
X221369047Y-106861904D01*
X221416666Y-106671428D01*
X221416666Y-106433333D01*
X221369047Y-106242857D01*
X221321428Y-106147619D01*
X221273809Y-106100000D01*
X221178571Y-106052380D01*
X220083333Y-106528571D02*
X220416666Y-106528571D01*
X220416666Y-107052380D02*
X220416666Y-106052380D01*
X219940476Y-106052380D01*
X218845238Y-106004761D02*
X219702380Y-107290476D01*
X218607142Y-106052380D02*
X217988095Y-106052380D01*
X218321428Y-106433333D01*
X218178571Y-106433333D01*
X218083333Y-106480952D01*
X218035714Y-106528571D01*
X217988095Y-106623809D01*
X217988095Y-106861904D01*
X218035714Y-106957142D01*
X218083333Y-107004761D01*
X218178571Y-107052380D01*
X218464285Y-107052380D01*
X218559523Y-107004761D01*
X218607142Y-106957142D01*
X217702380Y-106052380D02*
X217369047Y-107052380D01*
X217035714Y-106052380D01*
%TO.C,U3*%
X182761904Y-87962380D02*
X182761904Y-88771904D01*
X182714285Y-88867142D01*
X182666666Y-88914761D01*
X182571428Y-88962380D01*
X182380952Y-88962380D01*
X182285714Y-88914761D01*
X182238095Y-88867142D01*
X182190476Y-88771904D01*
X182190476Y-87962380D01*
X181809523Y-87962380D02*
X181190476Y-87962380D01*
X181523809Y-88343333D01*
X181380952Y-88343333D01*
X181285714Y-88390952D01*
X181238095Y-88438571D01*
X181190476Y-88533809D01*
X181190476Y-88771904D01*
X181238095Y-88867142D01*
X181285714Y-88914761D01*
X181380952Y-88962380D01*
X181666666Y-88962380D01*
X181761904Y-88914761D01*
X181809523Y-88867142D01*
X182870238Y-102062380D02*
X183346428Y-102062380D01*
X183346428Y-101062380D01*
X182536904Y-102062380D02*
X182536904Y-101062380D01*
X182203571Y-101776666D01*
X181870238Y-101062380D01*
X181870238Y-102062380D01*
X180870238Y-102062380D02*
X181441666Y-102062380D01*
X181155952Y-102062380D02*
X181155952Y-101062380D01*
X181251190Y-101205238D01*
X181346428Y-101300476D01*
X181441666Y-101348095D01*
X180251190Y-101062380D02*
X180155952Y-101062380D01*
X180060714Y-101110000D01*
X180013095Y-101157619D01*
X179965476Y-101252857D01*
X179917857Y-101443333D01*
X179917857Y-101681428D01*
X179965476Y-101871904D01*
X180013095Y-101967142D01*
X180060714Y-102014761D01*
X180155952Y-102062380D01*
X180251190Y-102062380D01*
X180346428Y-102014761D01*
X180394047Y-101967142D01*
X180441666Y-101871904D01*
X180489285Y-101681428D01*
X180489285Y-101443333D01*
X180441666Y-101252857D01*
X180394047Y-101157619D01*
X180346428Y-101110000D01*
X180251190Y-101062380D01*
X179346428Y-101490952D02*
X179441666Y-101443333D01*
X179489285Y-101395714D01*
X179536904Y-101300476D01*
X179536904Y-101252857D01*
X179489285Y-101157619D01*
X179441666Y-101110000D01*
X179346428Y-101062380D01*
X179155952Y-101062380D01*
X179060714Y-101110000D01*
X179013095Y-101157619D01*
X178965476Y-101252857D01*
X178965476Y-101300476D01*
X179013095Y-101395714D01*
X179060714Y-101443333D01*
X179155952Y-101490952D01*
X179346428Y-101490952D01*
X179441666Y-101538571D01*
X179489285Y-101586190D01*
X179536904Y-101681428D01*
X179536904Y-101871904D01*
X179489285Y-101967142D01*
X179441666Y-102014761D01*
X179346428Y-102062380D01*
X179155952Y-102062380D01*
X179060714Y-102014761D01*
X179013095Y-101967142D01*
X178965476Y-101871904D01*
X178965476Y-101681428D01*
X179013095Y-101586190D01*
X179060714Y-101538571D01*
X179155952Y-101490952D01*
X178108333Y-101395714D02*
X178108333Y-102062380D01*
X178346428Y-101014761D02*
X178584523Y-101729047D01*
X177965476Y-101729047D01*
X177584523Y-101681428D02*
X176822619Y-101681428D01*
X176394047Y-101776666D02*
X175917857Y-101776666D01*
X176489285Y-102062380D02*
X176155952Y-101062380D01*
X175822619Y-102062380D01*
X175489285Y-102062380D02*
X175489285Y-101062380D01*
X175251190Y-101062380D01*
X175108333Y-101110000D01*
X175013095Y-101205238D01*
X174965476Y-101300476D01*
X174917857Y-101490952D01*
X174917857Y-101633809D01*
X174965476Y-101824285D01*
X175013095Y-101919523D01*
X175108333Y-102014761D01*
X175251190Y-102062380D01*
X175489285Y-102062380D01*
X174203571Y-101062380D02*
X174203571Y-101776666D01*
X174251190Y-101919523D01*
X174346428Y-102014761D01*
X174489285Y-102062380D01*
X174584523Y-102062380D01*
%TO.C,R22*%
X201827380Y-98307142D02*
X201351190Y-97973809D01*
X201827380Y-97735714D02*
X200827380Y-97735714D01*
X200827380Y-98116666D01*
X200875000Y-98211904D01*
X200922619Y-98259523D01*
X201017857Y-98307142D01*
X201160714Y-98307142D01*
X201255952Y-98259523D01*
X201303571Y-98211904D01*
X201351190Y-98116666D01*
X201351190Y-97735714D01*
X200922619Y-98688095D02*
X200875000Y-98735714D01*
X200827380Y-98830952D01*
X200827380Y-99069047D01*
X200875000Y-99164285D01*
X200922619Y-99211904D01*
X201017857Y-99259523D01*
X201113095Y-99259523D01*
X201255952Y-99211904D01*
X201827380Y-98640476D01*
X201827380Y-99259523D01*
X200922619Y-99640476D02*
X200875000Y-99688095D01*
X200827380Y-99783333D01*
X200827380Y-100021428D01*
X200875000Y-100116666D01*
X200922619Y-100164285D01*
X201017857Y-100211904D01*
X201113095Y-100211904D01*
X201255952Y-100164285D01*
X201827380Y-99592857D01*
X201827380Y-100211904D01*
X196960714Y-98188095D02*
X197627380Y-98188095D01*
X196579761Y-97950000D02*
X197294047Y-97711904D01*
X197294047Y-98330952D01*
X196627380Y-98616666D02*
X196627380Y-99283333D01*
X197627380Y-98854761D01*
X196627380Y-99854761D02*
X196627380Y-99950000D01*
X196675000Y-100045238D01*
X196722619Y-100092857D01*
X196817857Y-100140476D01*
X197008333Y-100188095D01*
X197246428Y-100188095D01*
X197436904Y-100140476D01*
X197532142Y-100092857D01*
X197579761Y-100045238D01*
X197627380Y-99950000D01*
X197627380Y-99854761D01*
X197579761Y-99759523D01*
X197532142Y-99711904D01*
X197436904Y-99664285D01*
X197246428Y-99616666D01*
X197008333Y-99616666D01*
X196817857Y-99664285D01*
X196722619Y-99711904D01*
X196675000Y-99759523D01*
X196627380Y-99854761D01*
%TO.C,R21*%
X201552380Y-94832142D02*
X201076190Y-94498809D01*
X201552380Y-94260714D02*
X200552380Y-94260714D01*
X200552380Y-94641666D01*
X200600000Y-94736904D01*
X200647619Y-94784523D01*
X200742857Y-94832142D01*
X200885714Y-94832142D01*
X200980952Y-94784523D01*
X201028571Y-94736904D01*
X201076190Y-94641666D01*
X201076190Y-94260714D01*
X200647619Y-95213095D02*
X200600000Y-95260714D01*
X200552380Y-95355952D01*
X200552380Y-95594047D01*
X200600000Y-95689285D01*
X200647619Y-95736904D01*
X200742857Y-95784523D01*
X200838095Y-95784523D01*
X200980952Y-95736904D01*
X201552380Y-95165476D01*
X201552380Y-95784523D01*
X201552380Y-96736904D02*
X201552380Y-96165476D01*
X201552380Y-96451190D02*
X200552380Y-96451190D01*
X200695238Y-96355952D01*
X200790476Y-96260714D01*
X200838095Y-96165476D01*
X197627380Y-94879761D02*
X197627380Y-94308333D01*
X197627380Y-94594047D02*
X196627380Y-94594047D01*
X196770238Y-94498809D01*
X196865476Y-94403571D01*
X196913095Y-94308333D01*
X196722619Y-95260714D02*
X196675000Y-95308333D01*
X196627380Y-95403571D01*
X196627380Y-95641666D01*
X196675000Y-95736904D01*
X196722619Y-95784523D01*
X196817857Y-95832142D01*
X196913095Y-95832142D01*
X197055952Y-95784523D01*
X197627380Y-95213095D01*
X197627380Y-95832142D01*
X197627380Y-96260714D02*
X196627380Y-96260714D01*
X197246428Y-96355952D02*
X197627380Y-96641666D01*
X196960714Y-96641666D02*
X197341666Y-96260714D01*
%TO.C,R20*%
X187692857Y-91352380D02*
X188026190Y-90876190D01*
X188264285Y-91352380D02*
X188264285Y-90352380D01*
X187883333Y-90352380D01*
X187788095Y-90400000D01*
X187740476Y-90447619D01*
X187692857Y-90542857D01*
X187692857Y-90685714D01*
X187740476Y-90780952D01*
X187788095Y-90828571D01*
X187883333Y-90876190D01*
X188264285Y-90876190D01*
X187311904Y-90447619D02*
X187264285Y-90400000D01*
X187169047Y-90352380D01*
X186930952Y-90352380D01*
X186835714Y-90400000D01*
X186788095Y-90447619D01*
X186740476Y-90542857D01*
X186740476Y-90638095D01*
X186788095Y-90780952D01*
X187359523Y-91352380D01*
X186740476Y-91352380D01*
X186121428Y-90352380D02*
X186026190Y-90352380D01*
X185930952Y-90400000D01*
X185883333Y-90447619D01*
X185835714Y-90542857D01*
X185788095Y-90733333D01*
X185788095Y-90971428D01*
X185835714Y-91161904D01*
X185883333Y-91257142D01*
X185930952Y-91304761D01*
X186026190Y-91352380D01*
X186121428Y-91352380D01*
X186216666Y-91304761D01*
X186264285Y-91257142D01*
X186311904Y-91161904D01*
X186359523Y-90971428D01*
X186359523Y-90733333D01*
X186311904Y-90542857D01*
X186264285Y-90447619D01*
X186216666Y-90400000D01*
X186121428Y-90352380D01*
X186244047Y-87777380D02*
X186815476Y-87777380D01*
X186529761Y-87777380D02*
X186529761Y-86777380D01*
X186625000Y-86920238D01*
X186720238Y-87015476D01*
X186815476Y-87063095D01*
X185815476Y-87777380D02*
X185815476Y-86777380D01*
X185720238Y-87396428D02*
X185434523Y-87777380D01*
X185434523Y-87110714D02*
X185815476Y-87491666D01*
%TO.C,R19*%
X205042857Y-100052380D02*
X205376190Y-99576190D01*
X205614285Y-100052380D02*
X205614285Y-99052380D01*
X205233333Y-99052380D01*
X205138095Y-99100000D01*
X205090476Y-99147619D01*
X205042857Y-99242857D01*
X205042857Y-99385714D01*
X205090476Y-99480952D01*
X205138095Y-99528571D01*
X205233333Y-99576190D01*
X205614285Y-99576190D01*
X204090476Y-100052380D02*
X204661904Y-100052380D01*
X204376190Y-100052380D02*
X204376190Y-99052380D01*
X204471428Y-99195238D01*
X204566666Y-99290476D01*
X204661904Y-99338095D01*
X203614285Y-100052380D02*
X203423809Y-100052380D01*
X203328571Y-100004761D01*
X203280952Y-99957142D01*
X203185714Y-99814285D01*
X203138095Y-99623809D01*
X203138095Y-99242857D01*
X203185714Y-99147619D01*
X203233333Y-99100000D01*
X203328571Y-99052380D01*
X203519047Y-99052380D01*
X203614285Y-99100000D01*
X203661904Y-99147619D01*
X203709523Y-99242857D01*
X203709523Y-99480952D01*
X203661904Y-99576190D01*
X203614285Y-99623809D01*
X203519047Y-99671428D01*
X203328571Y-99671428D01*
X203233333Y-99623809D01*
X203185714Y-99576190D01*
X203138095Y-99480952D01*
X204566666Y-103252380D02*
X205042857Y-103252380D01*
X205090476Y-103728571D01*
X205042857Y-103680952D01*
X204947619Y-103633333D01*
X204709523Y-103633333D01*
X204614285Y-103680952D01*
X204566666Y-103728571D01*
X204519047Y-103823809D01*
X204519047Y-104061904D01*
X204566666Y-104157142D01*
X204614285Y-104204761D01*
X204709523Y-104252380D01*
X204947619Y-104252380D01*
X205042857Y-104204761D01*
X205090476Y-104157142D01*
X204090476Y-104252380D02*
X204090476Y-103252380D01*
X203995238Y-103871428D02*
X203709523Y-104252380D01*
X203709523Y-103585714D02*
X204090476Y-103966666D01*
%TO.C,D12*%
X187302380Y-149735714D02*
X186302380Y-149735714D01*
X186302380Y-149973809D01*
X186350000Y-150116666D01*
X186445238Y-150211904D01*
X186540476Y-150259523D01*
X186730952Y-150307142D01*
X186873809Y-150307142D01*
X187064285Y-150259523D01*
X187159523Y-150211904D01*
X187254761Y-150116666D01*
X187302380Y-149973809D01*
X187302380Y-149735714D01*
X187302380Y-151259523D02*
X187302380Y-150688095D01*
X187302380Y-150973809D02*
X186302380Y-150973809D01*
X186445238Y-150878571D01*
X186540476Y-150783333D01*
X186588095Y-150688095D01*
X186397619Y-151640476D02*
X186350000Y-151688095D01*
X186302380Y-151783333D01*
X186302380Y-152021428D01*
X186350000Y-152116666D01*
X186397619Y-152164285D01*
X186492857Y-152211904D01*
X186588095Y-152211904D01*
X186730952Y-152164285D01*
X187302380Y-151592857D01*
X187302380Y-152211904D01*
X187877380Y-150809523D02*
X187877380Y-150333333D01*
X188353571Y-150285714D01*
X188305952Y-150333333D01*
X188258333Y-150428571D01*
X188258333Y-150666666D01*
X188305952Y-150761904D01*
X188353571Y-150809523D01*
X188448809Y-150857142D01*
X188686904Y-150857142D01*
X188782142Y-150809523D01*
X188829761Y-150761904D01*
X188877380Y-150666666D01*
X188877380Y-150428571D01*
X188829761Y-150333333D01*
X188782142Y-150285714D01*
X188591666Y-151238095D02*
X188591666Y-151714285D01*
X188877380Y-151142857D02*
X187877380Y-151476190D01*
X188877380Y-151809523D01*
%TO.C,D10*%
X183927380Y-149810714D02*
X182927380Y-149810714D01*
X182927380Y-150048809D01*
X182975000Y-150191666D01*
X183070238Y-150286904D01*
X183165476Y-150334523D01*
X183355952Y-150382142D01*
X183498809Y-150382142D01*
X183689285Y-150334523D01*
X183784523Y-150286904D01*
X183879761Y-150191666D01*
X183927380Y-150048809D01*
X183927380Y-149810714D01*
X183927380Y-151334523D02*
X183927380Y-150763095D01*
X183927380Y-151048809D02*
X182927380Y-151048809D01*
X183070238Y-150953571D01*
X183165476Y-150858333D01*
X183213095Y-150763095D01*
X182927380Y-151953571D02*
X182927380Y-152048809D01*
X182975000Y-152144047D01*
X183022619Y-152191666D01*
X183117857Y-152239285D01*
X183308333Y-152286904D01*
X183546428Y-152286904D01*
X183736904Y-152239285D01*
X183832142Y-152191666D01*
X183879761Y-152144047D01*
X183927380Y-152048809D01*
X183927380Y-151953571D01*
X183879761Y-151858333D01*
X183832142Y-151810714D01*
X183736904Y-151763095D01*
X183546428Y-151715476D01*
X183308333Y-151715476D01*
X183117857Y-151763095D01*
X183022619Y-151810714D01*
X182975000Y-151858333D01*
X182927380Y-151953571D01*
X184577380Y-151134523D02*
X184577380Y-150658333D01*
X185053571Y-150610714D01*
X185005952Y-150658333D01*
X184958333Y-150753571D01*
X184958333Y-150991666D01*
X185005952Y-151086904D01*
X185053571Y-151134523D01*
X185148809Y-151182142D01*
X185386904Y-151182142D01*
X185482142Y-151134523D01*
X185529761Y-151086904D01*
X185577380Y-150991666D01*
X185577380Y-150753571D01*
X185529761Y-150658333D01*
X185482142Y-150610714D01*
X185291666Y-151563095D02*
X185291666Y-152039285D01*
X185577380Y-151467857D02*
X184577380Y-151801190D01*
X185577380Y-152134523D01*
%TO.C,D9*%
X192827380Y-92211904D02*
X191827380Y-92211904D01*
X191827380Y-92450000D01*
X191875000Y-92592857D01*
X191970238Y-92688095D01*
X192065476Y-92735714D01*
X192255952Y-92783333D01*
X192398809Y-92783333D01*
X192589285Y-92735714D01*
X192684523Y-92688095D01*
X192779761Y-92592857D01*
X192827380Y-92450000D01*
X192827380Y-92211904D01*
X192827380Y-93259523D02*
X192827380Y-93450000D01*
X192779761Y-93545238D01*
X192732142Y-93592857D01*
X192589285Y-93688095D01*
X192398809Y-93735714D01*
X192017857Y-93735714D01*
X191922619Y-93688095D01*
X191875000Y-93640476D01*
X191827380Y-93545238D01*
X191827380Y-93354761D01*
X191875000Y-93259523D01*
X191922619Y-93211904D01*
X192017857Y-93164285D01*
X192255952Y-93164285D01*
X192351190Y-93211904D01*
X192398809Y-93259523D01*
X192446428Y-93354761D01*
X192446428Y-93545238D01*
X192398809Y-93640476D01*
X192351190Y-93688095D01*
X192255952Y-93735714D01*
%TO.C,C11*%
X185957142Y-100557142D02*
X186004761Y-100509523D01*
X186052380Y-100366666D01*
X186052380Y-100271428D01*
X186004761Y-100128571D01*
X185909523Y-100033333D01*
X185814285Y-99985714D01*
X185623809Y-99938095D01*
X185480952Y-99938095D01*
X185290476Y-99985714D01*
X185195238Y-100033333D01*
X185100000Y-100128571D01*
X185052380Y-100271428D01*
X185052380Y-100366666D01*
X185100000Y-100509523D01*
X185147619Y-100557142D01*
X186052380Y-101509523D02*
X186052380Y-100938095D01*
X186052380Y-101223809D02*
X185052380Y-101223809D01*
X185195238Y-101128571D01*
X185290476Y-101033333D01*
X185338095Y-100938095D01*
X186052380Y-102461904D02*
X186052380Y-101890476D01*
X186052380Y-102176190D02*
X185052380Y-102176190D01*
X185195238Y-102080952D01*
X185290476Y-101985714D01*
X185338095Y-101890476D01*
X189302380Y-100128571D02*
X189302380Y-99557142D01*
X189302380Y-99842857D02*
X188302380Y-99842857D01*
X188445238Y-99747619D01*
X188540476Y-99652380D01*
X188588095Y-99557142D01*
X188302380Y-100747619D02*
X188302380Y-100842857D01*
X188350000Y-100938095D01*
X188397619Y-100985714D01*
X188492857Y-101033333D01*
X188683333Y-101080952D01*
X188921428Y-101080952D01*
X189111904Y-101033333D01*
X189207142Y-100985714D01*
X189254761Y-100938095D01*
X189302380Y-100842857D01*
X189302380Y-100747619D01*
X189254761Y-100652380D01*
X189207142Y-100604761D01*
X189111904Y-100557142D01*
X188921428Y-100509523D01*
X188683333Y-100509523D01*
X188492857Y-100557142D01*
X188397619Y-100604761D01*
X188350000Y-100652380D01*
X188302380Y-100747619D01*
X188635714Y-101938095D02*
X189302380Y-101938095D01*
X188635714Y-101509523D02*
X189159523Y-101509523D01*
X189254761Y-101557142D01*
X189302380Y-101652380D01*
X189302380Y-101795238D01*
X189254761Y-101890476D01*
X189207142Y-101938095D01*
X188778571Y-102747619D02*
X188778571Y-102414285D01*
X189302380Y-102414285D02*
X188302380Y-102414285D01*
X188302380Y-102890476D01*
%TO.C,C9*%
X173332142Y-152508333D02*
X173379761Y-152460714D01*
X173427380Y-152317857D01*
X173427380Y-152222619D01*
X173379761Y-152079761D01*
X173284523Y-151984523D01*
X173189285Y-151936904D01*
X172998809Y-151889285D01*
X172855952Y-151889285D01*
X172665476Y-151936904D01*
X172570238Y-151984523D01*
X172475000Y-152079761D01*
X172427380Y-152222619D01*
X172427380Y-152317857D01*
X172475000Y-152460714D01*
X172522619Y-152508333D01*
X173427380Y-152984523D02*
X173427380Y-153175000D01*
X173379761Y-153270238D01*
X173332142Y-153317857D01*
X173189285Y-153413095D01*
X172998809Y-153460714D01*
X172617857Y-153460714D01*
X172522619Y-153413095D01*
X172475000Y-153365476D01*
X172427380Y-153270238D01*
X172427380Y-153079761D01*
X172475000Y-152984523D01*
X172522619Y-152936904D01*
X172617857Y-152889285D01*
X172855952Y-152889285D01*
X172951190Y-152936904D01*
X172998809Y-152984523D01*
X173046428Y-153079761D01*
X173046428Y-153270238D01*
X172998809Y-153365476D01*
X172951190Y-153413095D01*
X172855952Y-153460714D01*
X181416666Y-147752380D02*
X180797619Y-147752380D01*
X181130952Y-148133333D01*
X180988095Y-148133333D01*
X180892857Y-148180952D01*
X180845238Y-148228571D01*
X180797619Y-148323809D01*
X180797619Y-148561904D01*
X180845238Y-148657142D01*
X180892857Y-148704761D01*
X180988095Y-148752380D01*
X181273809Y-148752380D01*
X181369047Y-148704761D01*
X181416666Y-148657142D01*
X180464285Y-147752380D02*
X179845238Y-147752380D01*
X180178571Y-148133333D01*
X180035714Y-148133333D01*
X179940476Y-148180952D01*
X179892857Y-148228571D01*
X179845238Y-148323809D01*
X179845238Y-148561904D01*
X179892857Y-148657142D01*
X179940476Y-148704761D01*
X180035714Y-148752380D01*
X180321428Y-148752380D01*
X180416666Y-148704761D01*
X180464285Y-148657142D01*
X179226190Y-147752380D02*
X179130952Y-147752380D01*
X179035714Y-147800000D01*
X178988095Y-147847619D01*
X178940476Y-147942857D01*
X178892857Y-148133333D01*
X178892857Y-148371428D01*
X178940476Y-148561904D01*
X178988095Y-148657142D01*
X179035714Y-148704761D01*
X179130952Y-148752380D01*
X179226190Y-148752380D01*
X179321428Y-148704761D01*
X179369047Y-148657142D01*
X179416666Y-148561904D01*
X179464285Y-148371428D01*
X179464285Y-148133333D01*
X179416666Y-147942857D01*
X179369047Y-147847619D01*
X179321428Y-147800000D01*
X179226190Y-147752380D01*
X178035714Y-148085714D02*
X178035714Y-148752380D01*
X178464285Y-148085714D02*
X178464285Y-148609523D01*
X178416666Y-148704761D01*
X178321428Y-148752380D01*
X178178571Y-148752380D01*
X178083333Y-148704761D01*
X178035714Y-148657142D01*
X177226190Y-148228571D02*
X177559523Y-148228571D01*
X177559523Y-148752380D02*
X177559523Y-147752380D01*
X177083333Y-147752380D01*
X174311428Y-158949047D02*
X174311428Y-159710952D01*
X174692380Y-159330000D02*
X173930476Y-159330000D01*
%TO.C,C1*%
X186066666Y-105607142D02*
X186114285Y-105654761D01*
X186257142Y-105702380D01*
X186352380Y-105702380D01*
X186495238Y-105654761D01*
X186590476Y-105559523D01*
X186638095Y-105464285D01*
X186685714Y-105273809D01*
X186685714Y-105130952D01*
X186638095Y-104940476D01*
X186590476Y-104845238D01*
X186495238Y-104750000D01*
X186352380Y-104702380D01*
X186257142Y-104702380D01*
X186114285Y-104750000D01*
X186066666Y-104797619D01*
X185114285Y-105702380D02*
X185685714Y-105702380D01*
X185400000Y-105702380D02*
X185400000Y-104702380D01*
X185495238Y-104845238D01*
X185590476Y-104940476D01*
X185685714Y-104988095D01*
X186104761Y-107502380D02*
X186009523Y-107502380D01*
X185914285Y-107550000D01*
X185866666Y-107597619D01*
X185819047Y-107692857D01*
X185771428Y-107883333D01*
X185771428Y-108121428D01*
X185819047Y-108311904D01*
X185866666Y-108407142D01*
X185914285Y-108454761D01*
X186009523Y-108502380D01*
X186104761Y-108502380D01*
X186200000Y-108454761D01*
X186247619Y-108407142D01*
X186295238Y-108311904D01*
X186342857Y-108121428D01*
X186342857Y-107883333D01*
X186295238Y-107692857D01*
X186247619Y-107597619D01*
X186200000Y-107550000D01*
X186104761Y-107502380D01*
X184914285Y-107835714D02*
X184914285Y-108502380D01*
X185342857Y-107835714D02*
X185342857Y-108359523D01*
X185295238Y-108454761D01*
X185200000Y-108502380D01*
X185057142Y-108502380D01*
X184961904Y-108454761D01*
X184914285Y-108407142D01*
X184104761Y-107978571D02*
X184438095Y-107978571D01*
X184438095Y-108502380D02*
X184438095Y-107502380D01*
X183961904Y-107502380D01*
X183057142Y-108502380D02*
X183628571Y-108502380D01*
X183342857Y-108502380D02*
X183342857Y-107502380D01*
X183438095Y-107645238D01*
X183533333Y-107740476D01*
X183628571Y-107788095D01*
%TO.C,C2*%
X190866666Y-134107142D02*
X190914285Y-134154761D01*
X191057142Y-134202380D01*
X191152380Y-134202380D01*
X191295238Y-134154761D01*
X191390476Y-134059523D01*
X191438095Y-133964285D01*
X191485714Y-133773809D01*
X191485714Y-133630952D01*
X191438095Y-133440476D01*
X191390476Y-133345238D01*
X191295238Y-133250000D01*
X191152380Y-133202380D01*
X191057142Y-133202380D01*
X190914285Y-133250000D01*
X190866666Y-133297619D01*
X190485714Y-133297619D02*
X190438095Y-133250000D01*
X190342857Y-133202380D01*
X190104761Y-133202380D01*
X190009523Y-133250000D01*
X189961904Y-133297619D01*
X189914285Y-133392857D01*
X189914285Y-133488095D01*
X189961904Y-133630952D01*
X190533333Y-134202380D01*
X189914285Y-134202380D01*
X192104761Y-135952380D02*
X192009523Y-135952380D01*
X191914285Y-136000000D01*
X191866666Y-136047619D01*
X191819047Y-136142857D01*
X191771428Y-136333333D01*
X191771428Y-136571428D01*
X191819047Y-136761904D01*
X191866666Y-136857142D01*
X191914285Y-136904761D01*
X192009523Y-136952380D01*
X192104761Y-136952380D01*
X192200000Y-136904761D01*
X192247619Y-136857142D01*
X192295238Y-136761904D01*
X192342857Y-136571428D01*
X192342857Y-136333333D01*
X192295238Y-136142857D01*
X192247619Y-136047619D01*
X192200000Y-136000000D01*
X192104761Y-135952380D01*
X190914285Y-136285714D02*
X190914285Y-136952380D01*
X191342857Y-136285714D02*
X191342857Y-136809523D01*
X191295238Y-136904761D01*
X191200000Y-136952380D01*
X191057142Y-136952380D01*
X190961904Y-136904761D01*
X190914285Y-136857142D01*
X190104761Y-136428571D02*
X190438095Y-136428571D01*
X190438095Y-136952380D02*
X190438095Y-135952380D01*
X189961904Y-135952380D01*
X189057142Y-136952380D02*
X189628571Y-136952380D01*
X189342857Y-136952380D02*
X189342857Y-135952380D01*
X189438095Y-136095238D01*
X189533333Y-136190476D01*
X189628571Y-136238095D01*
%TO.C,R15*%
X216992857Y-140752380D02*
X217326190Y-140276190D01*
X217564285Y-140752380D02*
X217564285Y-139752380D01*
X217183333Y-139752380D01*
X217088095Y-139800000D01*
X217040476Y-139847619D01*
X216992857Y-139942857D01*
X216992857Y-140085714D01*
X217040476Y-140180952D01*
X217088095Y-140228571D01*
X217183333Y-140276190D01*
X217564285Y-140276190D01*
X216040476Y-140752380D02*
X216611904Y-140752380D01*
X216326190Y-140752380D02*
X216326190Y-139752380D01*
X216421428Y-139895238D01*
X216516666Y-139990476D01*
X216611904Y-140038095D01*
X215135714Y-139752380D02*
X215611904Y-139752380D01*
X215659523Y-140228571D01*
X215611904Y-140180952D01*
X215516666Y-140133333D01*
X215278571Y-140133333D01*
X215183333Y-140180952D01*
X215135714Y-140228571D01*
X215088095Y-140323809D01*
X215088095Y-140561904D01*
X215135714Y-140657142D01*
X215183333Y-140704761D01*
X215278571Y-140752380D01*
X215516666Y-140752380D01*
X215611904Y-140704761D01*
X215659523Y-140657142D01*
X223961904Y-140085714D02*
X223961904Y-140752380D01*
X224200000Y-139704761D02*
X224438095Y-140419047D01*
X223819047Y-140419047D01*
X223533333Y-139752380D02*
X222914285Y-139752380D01*
X223247619Y-140133333D01*
X223104761Y-140133333D01*
X223009523Y-140180952D01*
X222961904Y-140228571D01*
X222914285Y-140323809D01*
X222914285Y-140561904D01*
X222961904Y-140657142D01*
X223009523Y-140704761D01*
X223104761Y-140752380D01*
X223390476Y-140752380D01*
X223485714Y-140704761D01*
X223533333Y-140657142D01*
X222295238Y-139752380D02*
X222200000Y-139752380D01*
X222104761Y-139800000D01*
X222057142Y-139847619D01*
X222009523Y-139942857D01*
X221961904Y-140133333D01*
X221961904Y-140371428D01*
X222009523Y-140561904D01*
X222057142Y-140657142D01*
X222104761Y-140704761D01*
X222200000Y-140752380D01*
X222295238Y-140752380D01*
X222390476Y-140704761D01*
X222438095Y-140657142D01*
X222485714Y-140561904D01*
X222533333Y-140371428D01*
X222533333Y-140133333D01*
X222485714Y-139942857D01*
X222438095Y-139847619D01*
X222390476Y-139800000D01*
X222295238Y-139752380D01*
%TO.C,R14*%
X211202380Y-111707142D02*
X210726190Y-111373809D01*
X211202380Y-111135714D02*
X210202380Y-111135714D01*
X210202380Y-111516666D01*
X210250000Y-111611904D01*
X210297619Y-111659523D01*
X210392857Y-111707142D01*
X210535714Y-111707142D01*
X210630952Y-111659523D01*
X210678571Y-111611904D01*
X210726190Y-111516666D01*
X210726190Y-111135714D01*
X211202380Y-112659523D02*
X211202380Y-112088095D01*
X211202380Y-112373809D02*
X210202380Y-112373809D01*
X210345238Y-112278571D01*
X210440476Y-112183333D01*
X210488095Y-112088095D01*
X210535714Y-113516666D02*
X211202380Y-113516666D01*
X210154761Y-113278571D02*
X210869047Y-113040476D01*
X210869047Y-113659523D01*
X211252380Y-118054761D02*
X211252380Y-117483333D01*
X211252380Y-117769047D02*
X210252380Y-117769047D01*
X210395238Y-117673809D01*
X210490476Y-117578571D01*
X210538095Y-117483333D01*
X210680952Y-118626190D02*
X210633333Y-118530952D01*
X210585714Y-118483333D01*
X210490476Y-118435714D01*
X210442857Y-118435714D01*
X210347619Y-118483333D01*
X210300000Y-118530952D01*
X210252380Y-118626190D01*
X210252380Y-118816666D01*
X210300000Y-118911904D01*
X210347619Y-118959523D01*
X210442857Y-119007142D01*
X210490476Y-119007142D01*
X210585714Y-118959523D01*
X210633333Y-118911904D01*
X210680952Y-118816666D01*
X210680952Y-118626190D01*
X210728571Y-118530952D01*
X210776190Y-118483333D01*
X210871428Y-118435714D01*
X211061904Y-118435714D01*
X211157142Y-118483333D01*
X211204761Y-118530952D01*
X211252380Y-118626190D01*
X211252380Y-118816666D01*
X211204761Y-118911904D01*
X211157142Y-118959523D01*
X211061904Y-119007142D01*
X210871428Y-119007142D01*
X210776190Y-118959523D01*
X210728571Y-118911904D01*
X210680952Y-118816666D01*
X211252380Y-119435714D02*
X210252380Y-119435714D01*
X210871428Y-119530952D02*
X211252380Y-119816666D01*
X210585714Y-119816666D02*
X210966666Y-119435714D01*
%TO.C,R8*%
X217065430Y-146752380D02*
X217398764Y-146276190D01*
X217636859Y-146752380D02*
X217636859Y-145752380D01*
X217255906Y-145752380D01*
X217160668Y-145800000D01*
X217113049Y-145847619D01*
X217065430Y-145942857D01*
X217065430Y-146085714D01*
X217113049Y-146180952D01*
X217160668Y-146228571D01*
X217255906Y-146276190D01*
X217636859Y-146276190D01*
X216494002Y-146180952D02*
X216589240Y-146133333D01*
X216636859Y-146085714D01*
X216684478Y-145990476D01*
X216684478Y-145942857D01*
X216636859Y-145847619D01*
X216589240Y-145800000D01*
X216494002Y-145752380D01*
X216303525Y-145752380D01*
X216208287Y-145800000D01*
X216160668Y-145847619D01*
X216113049Y-145942857D01*
X216113049Y-145990476D01*
X216160668Y-146085714D01*
X216208287Y-146133333D01*
X216303525Y-146180952D01*
X216494002Y-146180952D01*
X216589240Y-146228571D01*
X216636859Y-146276190D01*
X216684478Y-146371428D01*
X216684478Y-146561904D01*
X216636859Y-146657142D01*
X216589240Y-146704761D01*
X216494002Y-146752380D01*
X216303525Y-146752380D01*
X216208287Y-146704761D01*
X216160668Y-146657142D01*
X216113049Y-146561904D01*
X216113049Y-146371428D01*
X216160668Y-146276190D01*
X216208287Y-146228571D01*
X216303525Y-146180952D01*
X223961904Y-146085714D02*
X223961904Y-146752380D01*
X224200000Y-145704761D02*
X224438095Y-146419047D01*
X223819047Y-146419047D01*
X223533333Y-145752380D02*
X222914285Y-145752380D01*
X223247619Y-146133333D01*
X223104761Y-146133333D01*
X223009523Y-146180952D01*
X222961904Y-146228571D01*
X222914285Y-146323809D01*
X222914285Y-146561904D01*
X222961904Y-146657142D01*
X223009523Y-146704761D01*
X223104761Y-146752380D01*
X223390476Y-146752380D01*
X223485714Y-146704761D01*
X223533333Y-146657142D01*
X222295238Y-145752380D02*
X222200000Y-145752380D01*
X222104761Y-145800000D01*
X222057142Y-145847619D01*
X222009523Y-145942857D01*
X221961904Y-146133333D01*
X221961904Y-146371428D01*
X222009523Y-146561904D01*
X222057142Y-146657142D01*
X222104761Y-146704761D01*
X222200000Y-146752380D01*
X222295238Y-146752380D01*
X222390476Y-146704761D01*
X222438095Y-146657142D01*
X222485714Y-146561904D01*
X222533333Y-146371428D01*
X222533333Y-146133333D01*
X222485714Y-145942857D01*
X222438095Y-145847619D01*
X222390476Y-145800000D01*
X222295238Y-145752380D01*
%TO.C,F4*%
X212928571Y-118816666D02*
X212928571Y-118483333D01*
X213452380Y-118483333D02*
X212452380Y-118483333D01*
X212452380Y-118959523D01*
X212785714Y-119769047D02*
X213452380Y-119769047D01*
X212404761Y-119530952D02*
X213119047Y-119292857D01*
X213119047Y-119911904D01*
X221952380Y-118054761D02*
X221952380Y-117483333D01*
X221952380Y-117769047D02*
X220952380Y-117769047D01*
X221095238Y-117673809D01*
X221190476Y-117578571D01*
X221238095Y-117483333D01*
X221666666Y-118435714D02*
X221666666Y-118911904D01*
X221952380Y-118340476D02*
X220952380Y-118673809D01*
X221952380Y-119007142D01*
X221380952Y-119483333D02*
X221333333Y-119388095D01*
X221285714Y-119340476D01*
X221190476Y-119292857D01*
X221142857Y-119292857D01*
X221047619Y-119340476D01*
X221000000Y-119388095D01*
X220952380Y-119483333D01*
X220952380Y-119673809D01*
X221000000Y-119769047D01*
X221047619Y-119816666D01*
X221142857Y-119864285D01*
X221190476Y-119864285D01*
X221285714Y-119816666D01*
X221333333Y-119769047D01*
X221380952Y-119673809D01*
X221380952Y-119483333D01*
X221428571Y-119388095D01*
X221476190Y-119340476D01*
X221571428Y-119292857D01*
X221761904Y-119292857D01*
X221857142Y-119340476D01*
X221904761Y-119388095D01*
X221952380Y-119483333D01*
X221952380Y-119673809D01*
X221904761Y-119769047D01*
X221857142Y-119816666D01*
X221761904Y-119864285D01*
X221571428Y-119864285D01*
X221476190Y-119816666D01*
X221428571Y-119769047D01*
X221380952Y-119673809D01*
X220952380Y-120769047D02*
X220952380Y-120292857D01*
X221428571Y-120245238D01*
X221380952Y-120292857D01*
X221333333Y-120388095D01*
X221333333Y-120626190D01*
X221380952Y-120721428D01*
X221428571Y-120769047D01*
X221523809Y-120816666D01*
X221761904Y-120816666D01*
X221857142Y-120769047D01*
X221904761Y-120721428D01*
X221952380Y-120626190D01*
X221952380Y-120388095D01*
X221904761Y-120292857D01*
X221857142Y-120245238D01*
%TO.C,F1*%
X212133333Y-125028571D02*
X212466666Y-125028571D01*
X212466666Y-125552380D02*
X212466666Y-124552380D01*
X211990476Y-124552380D01*
X211085714Y-125552380D02*
X211657142Y-125552380D01*
X211371428Y-125552380D02*
X211371428Y-124552380D01*
X211466666Y-124695238D01*
X211561904Y-124790476D01*
X211657142Y-124838095D01*
X211990476Y-133102380D02*
X212466666Y-133102380D01*
X212514285Y-133578571D01*
X212466666Y-133530952D01*
X212371428Y-133483333D01*
X212133333Y-133483333D01*
X212038095Y-133530952D01*
X211990476Y-133578571D01*
X211942857Y-133673809D01*
X211942857Y-133911904D01*
X211990476Y-134007142D01*
X212038095Y-134054761D01*
X212133333Y-134102380D01*
X212371428Y-134102380D01*
X212466666Y-134054761D01*
X212514285Y-134007142D01*
X211561904Y-133816666D02*
X211085714Y-133816666D01*
X211657142Y-134102380D02*
X211323809Y-133102380D01*
X210990476Y-134102380D01*
%TO.C,R16*%
X217042857Y-143752380D02*
X217376190Y-143276190D01*
X217614285Y-143752380D02*
X217614285Y-142752380D01*
X217233333Y-142752380D01*
X217138095Y-142800000D01*
X217090476Y-142847619D01*
X217042857Y-142942857D01*
X217042857Y-143085714D01*
X217090476Y-143180952D01*
X217138095Y-143228571D01*
X217233333Y-143276190D01*
X217614285Y-143276190D01*
X216090476Y-143752380D02*
X216661904Y-143752380D01*
X216376190Y-143752380D02*
X216376190Y-142752380D01*
X216471428Y-142895238D01*
X216566666Y-142990476D01*
X216661904Y-143038095D01*
X215233333Y-142752380D02*
X215423809Y-142752380D01*
X215519047Y-142800000D01*
X215566666Y-142847619D01*
X215661904Y-142990476D01*
X215709523Y-143180952D01*
X215709523Y-143561904D01*
X215661904Y-143657142D01*
X215614285Y-143704761D01*
X215519047Y-143752380D01*
X215328571Y-143752380D01*
X215233333Y-143704761D01*
X215185714Y-143657142D01*
X215138095Y-143561904D01*
X215138095Y-143323809D01*
X215185714Y-143228571D01*
X215233333Y-143180952D01*
X215328571Y-143133333D01*
X215519047Y-143133333D01*
X215614285Y-143180952D01*
X215661904Y-143228571D01*
X215709523Y-143323809D01*
X223861904Y-143085714D02*
X223861904Y-143752380D01*
X224100000Y-142704761D02*
X224338095Y-143419047D01*
X223719047Y-143419047D01*
X223433333Y-142752380D02*
X222814285Y-142752380D01*
X223147619Y-143133333D01*
X223004761Y-143133333D01*
X222909523Y-143180952D01*
X222861904Y-143228571D01*
X222814285Y-143323809D01*
X222814285Y-143561904D01*
X222861904Y-143657142D01*
X222909523Y-143704761D01*
X223004761Y-143752380D01*
X223290476Y-143752380D01*
X223385714Y-143704761D01*
X223433333Y-143657142D01*
X222195238Y-142752380D02*
X222100000Y-142752380D01*
X222004761Y-142800000D01*
X221957142Y-142847619D01*
X221909523Y-142942857D01*
X221861904Y-143133333D01*
X221861904Y-143371428D01*
X221909523Y-143561904D01*
X221957142Y-143657142D01*
X222004761Y-143704761D01*
X222100000Y-143752380D01*
X222195238Y-143752380D01*
X222290476Y-143704761D01*
X222338095Y-143657142D01*
X222385714Y-143561904D01*
X222433333Y-143371428D01*
X222433333Y-143133333D01*
X222385714Y-142942857D01*
X222338095Y-142847619D01*
X222290476Y-142800000D01*
X222195238Y-142752380D01*
%TO.C,D5*%
X218838095Y-132827380D02*
X218838095Y-131827380D01*
X218600000Y-131827380D01*
X218457142Y-131875000D01*
X218361904Y-131970238D01*
X218314285Y-132065476D01*
X218266666Y-132255952D01*
X218266666Y-132398809D01*
X218314285Y-132589285D01*
X218361904Y-132684523D01*
X218457142Y-132779761D01*
X218600000Y-132827380D01*
X218838095Y-132827380D01*
X217361904Y-131827380D02*
X217838095Y-131827380D01*
X217885714Y-132303571D01*
X217838095Y-132255952D01*
X217742857Y-132208333D01*
X217504761Y-132208333D01*
X217409523Y-132255952D01*
X217361904Y-132303571D01*
X217314285Y-132398809D01*
X217314285Y-132636904D01*
X217361904Y-132732142D01*
X217409523Y-132779761D01*
X217504761Y-132827380D01*
X217742857Y-132827380D01*
X217838095Y-132779761D01*
X217885714Y-132732142D01*
X216990476Y-137052380D02*
X217466666Y-137052380D01*
X217514285Y-137528571D01*
X217466666Y-137480952D01*
X217371428Y-137433333D01*
X217133333Y-137433333D01*
X217038095Y-137480952D01*
X216990476Y-137528571D01*
X216942857Y-137623809D01*
X216942857Y-137861904D01*
X216990476Y-137957142D01*
X217038095Y-138004761D01*
X217133333Y-138052380D01*
X217371428Y-138052380D01*
X217466666Y-138004761D01*
X217514285Y-137957142D01*
X216561904Y-137766666D02*
X216085714Y-137766666D01*
X216657142Y-138052380D02*
X216323809Y-137052380D01*
X215990476Y-138052380D01*
%TO.C,C6*%
X216966666Y-109107142D02*
X217014285Y-109154761D01*
X217157142Y-109202380D01*
X217252380Y-109202380D01*
X217395238Y-109154761D01*
X217490476Y-109059523D01*
X217538095Y-108964285D01*
X217585714Y-108773809D01*
X217585714Y-108630952D01*
X217538095Y-108440476D01*
X217490476Y-108345238D01*
X217395238Y-108250000D01*
X217252380Y-108202380D01*
X217157142Y-108202380D01*
X217014285Y-108250000D01*
X216966666Y-108297619D01*
X216109523Y-108202380D02*
X216300000Y-108202380D01*
X216395238Y-108250000D01*
X216442857Y-108297619D01*
X216538095Y-108440476D01*
X216585714Y-108630952D01*
X216585714Y-109011904D01*
X216538095Y-109107142D01*
X216490476Y-109154761D01*
X216395238Y-109202380D01*
X216204761Y-109202380D01*
X216109523Y-109154761D01*
X216061904Y-109107142D01*
X216014285Y-109011904D01*
X216014285Y-108773809D01*
X216061904Y-108678571D01*
X216109523Y-108630952D01*
X216204761Y-108583333D01*
X216395238Y-108583333D01*
X216490476Y-108630952D01*
X216538095Y-108678571D01*
X216585714Y-108773809D01*
X218442857Y-111047619D02*
X218395238Y-111000000D01*
X218300000Y-110952380D01*
X218061904Y-110952380D01*
X217966666Y-111000000D01*
X217919047Y-111047619D01*
X217871428Y-111142857D01*
X217871428Y-111238095D01*
X217919047Y-111380952D01*
X218490476Y-111952380D01*
X217871428Y-111952380D01*
X217014285Y-111285714D02*
X217014285Y-111952380D01*
X217442857Y-111285714D02*
X217442857Y-111809523D01*
X217395238Y-111904761D01*
X217300000Y-111952380D01*
X217157142Y-111952380D01*
X217061904Y-111904761D01*
X217014285Y-111857142D01*
X216204761Y-111428571D02*
X216538095Y-111428571D01*
X216538095Y-111952380D02*
X216538095Y-110952380D01*
X216061904Y-110952380D01*
X215728571Y-111047619D02*
X215680952Y-111000000D01*
X215585714Y-110952380D01*
X215347619Y-110952380D01*
X215252380Y-111000000D01*
X215204761Y-111047619D01*
X215157142Y-111142857D01*
X215157142Y-111238095D01*
X215204761Y-111380952D01*
X215776190Y-111952380D01*
X215157142Y-111952380D01*
%TO.C,U6*%
X196557380Y-128844095D02*
X197366904Y-128844095D01*
X197462142Y-128891714D01*
X197509761Y-128939333D01*
X197557380Y-129034571D01*
X197557380Y-129225047D01*
X197509761Y-129320285D01*
X197462142Y-129367904D01*
X197366904Y-129415523D01*
X196557380Y-129415523D01*
X196557380Y-130320285D02*
X196557380Y-130129809D01*
X196605000Y-130034571D01*
X196652619Y-129986952D01*
X196795476Y-129891714D01*
X196985952Y-129844095D01*
X197366904Y-129844095D01*
X197462142Y-129891714D01*
X197509761Y-129939333D01*
X197557380Y-130034571D01*
X197557380Y-130225047D01*
X197509761Y-130320285D01*
X197462142Y-130367904D01*
X197366904Y-130415523D01*
X197128809Y-130415523D01*
X197033571Y-130367904D01*
X196985952Y-130320285D01*
X196938333Y-130225047D01*
X196938333Y-130034571D01*
X196985952Y-129939333D01*
X197033571Y-129891714D01*
X197128809Y-129844095D01*
X198230952Y-125407142D02*
X198278571Y-125454761D01*
X198421428Y-125502380D01*
X198516666Y-125502380D01*
X198659523Y-125454761D01*
X198754761Y-125359523D01*
X198802380Y-125264285D01*
X198850000Y-125073809D01*
X198850000Y-124930952D01*
X198802380Y-124740476D01*
X198754761Y-124645238D01*
X198659523Y-124550000D01*
X198516666Y-124502380D01*
X198421428Y-124502380D01*
X198278571Y-124550000D01*
X198230952Y-124597619D01*
X197802380Y-124502380D02*
X197802380Y-125311904D01*
X197754761Y-125407142D01*
X197707142Y-125454761D01*
X197611904Y-125502380D01*
X197421428Y-125502380D01*
X197326190Y-125454761D01*
X197278571Y-125407142D01*
X197230952Y-125311904D01*
X197230952Y-124502380D01*
X196183333Y-125502380D02*
X196516666Y-125026190D01*
X196754761Y-125502380D02*
X196754761Y-124502380D01*
X196373809Y-124502380D01*
X196278571Y-124550000D01*
X196230952Y-124597619D01*
X196183333Y-124692857D01*
X196183333Y-124835714D01*
X196230952Y-124930952D01*
X196278571Y-124978571D01*
X196373809Y-125026190D01*
X196754761Y-125026190D01*
X195183333Y-125502380D02*
X195516666Y-125026190D01*
X195754761Y-125502380D02*
X195754761Y-124502380D01*
X195373809Y-124502380D01*
X195278571Y-124550000D01*
X195230952Y-124597619D01*
X195183333Y-124692857D01*
X195183333Y-124835714D01*
X195230952Y-124930952D01*
X195278571Y-124978571D01*
X195373809Y-125026190D01*
X195754761Y-125026190D01*
X194754761Y-124978571D02*
X194421428Y-124978571D01*
X194278571Y-125502380D02*
X194754761Y-125502380D01*
X194754761Y-124502380D01*
X194278571Y-124502380D01*
X193850000Y-125502380D02*
X193850000Y-124502380D01*
X193278571Y-125502380D01*
X193278571Y-124502380D01*
X192945238Y-124502380D02*
X192373809Y-124502380D01*
X192659523Y-125502380D02*
X192659523Y-124502380D01*
X192278571Y-125597619D02*
X191516666Y-125597619D01*
X191326190Y-125216666D02*
X190850000Y-125216666D01*
X191421428Y-125502380D02*
X191088095Y-124502380D01*
X190754761Y-125502380D01*
X190421428Y-124502380D02*
X190421428Y-125311904D01*
X190373809Y-125407142D01*
X190326190Y-125454761D01*
X190230952Y-125502380D01*
X190040476Y-125502380D01*
X189945238Y-125454761D01*
X189897619Y-125407142D01*
X189850000Y-125311904D01*
X189850000Y-124502380D01*
X189469047Y-124502380D02*
X188802380Y-125502380D01*
X188802380Y-124502380D02*
X189469047Y-125502380D01*
%TO.C,U5*%
X190641904Y-107042380D02*
X190641904Y-107851904D01*
X190594285Y-107947142D01*
X190546666Y-107994761D01*
X190451428Y-108042380D01*
X190260952Y-108042380D01*
X190165714Y-107994761D01*
X190118095Y-107947142D01*
X190070476Y-107851904D01*
X190070476Y-107042380D01*
X189118095Y-107042380D02*
X189594285Y-107042380D01*
X189641904Y-107518571D01*
X189594285Y-107470952D01*
X189499047Y-107423333D01*
X189260952Y-107423333D01*
X189165714Y-107470952D01*
X189118095Y-107518571D01*
X189070476Y-107613809D01*
X189070476Y-107851904D01*
X189118095Y-107947142D01*
X189165714Y-107994761D01*
X189260952Y-108042380D01*
X189499047Y-108042380D01*
X189594285Y-107994761D01*
X189641904Y-107947142D01*
X194749142Y-115002142D02*
X194796761Y-115049761D01*
X194939619Y-115097380D01*
X195034857Y-115097380D01*
X195177714Y-115049761D01*
X195272952Y-114954523D01*
X195320571Y-114859285D01*
X195368190Y-114668809D01*
X195368190Y-114525952D01*
X195320571Y-114335476D01*
X195272952Y-114240238D01*
X195177714Y-114145000D01*
X195034857Y-114097380D01*
X194939619Y-114097380D01*
X194796761Y-114145000D01*
X194749142Y-114192619D01*
X194320571Y-114097380D02*
X194320571Y-114906904D01*
X194272952Y-115002142D01*
X194225333Y-115049761D01*
X194130095Y-115097380D01*
X193939619Y-115097380D01*
X193844380Y-115049761D01*
X193796761Y-115002142D01*
X193749142Y-114906904D01*
X193749142Y-114097380D01*
X192701523Y-115097380D02*
X193034857Y-114621190D01*
X193272952Y-115097380D02*
X193272952Y-114097380D01*
X192892000Y-114097380D01*
X192796761Y-114145000D01*
X192749142Y-114192619D01*
X192701523Y-114287857D01*
X192701523Y-114430714D01*
X192749142Y-114525952D01*
X192796761Y-114573571D01*
X192892000Y-114621190D01*
X193272952Y-114621190D01*
X191701523Y-115097380D02*
X192034857Y-114621190D01*
X192272952Y-115097380D02*
X192272952Y-114097380D01*
X191892000Y-114097380D01*
X191796761Y-114145000D01*
X191749142Y-114192619D01*
X191701523Y-114287857D01*
X191701523Y-114430714D01*
X191749142Y-114525952D01*
X191796761Y-114573571D01*
X191892000Y-114621190D01*
X192272952Y-114621190D01*
X191272952Y-114573571D02*
X190939619Y-114573571D01*
X190796761Y-115097380D02*
X191272952Y-115097380D01*
X191272952Y-114097380D01*
X190796761Y-114097380D01*
X190368190Y-115097380D02*
X190368190Y-114097380D01*
X189796761Y-115097380D01*
X189796761Y-114097380D01*
X189463428Y-114097380D02*
X188892000Y-114097380D01*
X189177714Y-115097380D02*
X189177714Y-114097380D01*
X188796761Y-115192619D02*
X188034857Y-115192619D01*
X187796761Y-115097380D02*
X187796761Y-114097380D01*
X187415809Y-114097380D01*
X187320571Y-114145000D01*
X187272952Y-114192619D01*
X187225333Y-114287857D01*
X187225333Y-114430714D01*
X187272952Y-114525952D01*
X187320571Y-114573571D01*
X187415809Y-114621190D01*
X187796761Y-114621190D01*
X186225333Y-115097380D02*
X186558666Y-114621190D01*
X186796761Y-115097380D02*
X186796761Y-114097380D01*
X186415809Y-114097380D01*
X186320571Y-114145000D01*
X186272952Y-114192619D01*
X186225333Y-114287857D01*
X186225333Y-114430714D01*
X186272952Y-114525952D01*
X186320571Y-114573571D01*
X186415809Y-114621190D01*
X186796761Y-114621190D01*
X185606285Y-114097380D02*
X185415809Y-114097380D01*
X185320571Y-114145000D01*
X185225333Y-114240238D01*
X185177714Y-114430714D01*
X185177714Y-114764047D01*
X185225333Y-114954523D01*
X185320571Y-115049761D01*
X185415809Y-115097380D01*
X185606285Y-115097380D01*
X185701523Y-115049761D01*
X185796761Y-114954523D01*
X185844380Y-114764047D01*
X185844380Y-114430714D01*
X185796761Y-114240238D01*
X185701523Y-114145000D01*
X185606285Y-114097380D01*
X184892000Y-114097380D02*
X184320571Y-114097380D01*
X184606285Y-115097380D02*
X184606285Y-114097380D01*
%TO.C,R18*%
X191792857Y-152002380D02*
X192126190Y-151526190D01*
X192364285Y-152002380D02*
X192364285Y-151002380D01*
X191983333Y-151002380D01*
X191888095Y-151050000D01*
X191840476Y-151097619D01*
X191792857Y-151192857D01*
X191792857Y-151335714D01*
X191840476Y-151430952D01*
X191888095Y-151478571D01*
X191983333Y-151526190D01*
X192364285Y-151526190D01*
X190840476Y-152002380D02*
X191411904Y-152002380D01*
X191126190Y-152002380D02*
X191126190Y-151002380D01*
X191221428Y-151145238D01*
X191316666Y-151240476D01*
X191411904Y-151288095D01*
X190269047Y-151430952D02*
X190364285Y-151383333D01*
X190411904Y-151335714D01*
X190459523Y-151240476D01*
X190459523Y-151192857D01*
X190411904Y-151097619D01*
X190364285Y-151050000D01*
X190269047Y-151002380D01*
X190078571Y-151002380D01*
X189983333Y-151050000D01*
X189935714Y-151097619D01*
X189888095Y-151192857D01*
X189888095Y-151240476D01*
X189935714Y-151335714D01*
X189983333Y-151383333D01*
X190078571Y-151430952D01*
X190269047Y-151430952D01*
X190364285Y-151478571D01*
X190411904Y-151526190D01*
X190459523Y-151621428D01*
X190459523Y-151811904D01*
X190411904Y-151907142D01*
X190364285Y-151954761D01*
X190269047Y-152002380D01*
X190078571Y-152002380D01*
X189983333Y-151954761D01*
X189935714Y-151907142D01*
X189888095Y-151811904D01*
X189888095Y-151621428D01*
X189935714Y-151526190D01*
X189983333Y-151478571D01*
X190078571Y-151430952D01*
X194645238Y-153802380D02*
X195216666Y-153802380D01*
X194930952Y-153802380D02*
X194930952Y-152802380D01*
X195026190Y-152945238D01*
X195121428Y-153040476D01*
X195216666Y-153088095D01*
X194264285Y-152897619D02*
X194216666Y-152850000D01*
X194121428Y-152802380D01*
X193883333Y-152802380D01*
X193788095Y-152850000D01*
X193740476Y-152897619D01*
X193692857Y-152992857D01*
X193692857Y-153088095D01*
X193740476Y-153230952D01*
X194311904Y-153802380D01*
X193692857Y-153802380D01*
X193264285Y-153802380D02*
X193264285Y-152802380D01*
X193169047Y-153421428D02*
X192883333Y-153802380D01*
X192883333Y-153135714D02*
X193264285Y-153516666D01*
%TD*%
%LPC*%
D15*
%TO.C,U1*%
X284050000Y-137250000D03*
X314050000Y-137250000D03*
X284050000Y-107250000D03*
X314050000Y-107250000D03*
D16*
X310250000Y-117850000D03*
X288250000Y-117850000D03*
%TD*%
D17*
%TO.C,U2*%
X172529000Y-158304000D03*
X172529000Y-155764000D03*
D18*
X172529000Y-145096000D03*
X172529000Y-147636000D03*
D17*
X191071000Y-158304000D03*
X191071000Y-155764000D03*
D18*
X191071000Y-147636000D03*
X191071000Y-145096000D03*
%TD*%
D17*
%TO.C,U11*%
X191071000Y-88296000D03*
X191071000Y-90836000D03*
D18*
X191071000Y-101504000D03*
X191071000Y-98964000D03*
D17*
X172529000Y-88296000D03*
X172529000Y-90836000D03*
D18*
X172529000Y-98964000D03*
X172529000Y-101504000D03*
%TD*%
D19*
%TO.C,D8*%
X202376140Y-96200000D03*
X205723860Y-96200000D03*
%TD*%
D18*
%TO.C,C10*%
X219800000Y-97800000D03*
D17*
X219800000Y-102800000D03*
%TD*%
D20*
%TO.C,U3*%
X178625000Y-95160000D03*
D21*
X187775000Y-97700000D03*
X187775000Y-95160000D03*
X187775000Y-92620000D03*
%TD*%
D22*
%TO.C,R22*%
X199275000Y-99900000D03*
X199275000Y-98000000D03*
%TD*%
%TO.C,R21*%
X199275000Y-94525000D03*
X199275000Y-96425000D03*
%TD*%
D23*
%TO.C,R20*%
X185175000Y-89000000D03*
X187075000Y-89000000D03*
%TD*%
%TO.C,R19*%
X205350000Y-101700000D03*
X203450000Y-101700000D03*
%TD*%
D24*
%TO.C,D12*%
X187750000Y-154000000D03*
X187750000Y-158400000D03*
%TD*%
%TO.C,D10*%
X184300000Y-158400000D03*
X184300000Y-154000000D03*
%TD*%
%TO.C,D9*%
X194875000Y-95150000D03*
X194875000Y-90750000D03*
%TD*%
D25*
%TO.C,C11*%
X187100000Y-102200000D03*
X187100000Y-100200000D03*
%TD*%
D26*
%TO.C,C9*%
X178150000Y-151500000D03*
X178150000Y-157600000D03*
%TD*%
D27*
%TO.C,C1*%
X184950000Y-106500000D03*
X186850000Y-106500000D03*
%TD*%
%TO.C,C2*%
X189750000Y-135000000D03*
X191650000Y-135000000D03*
%TD*%
D23*
%TO.C,R15*%
X218450000Y-140300000D03*
X220350000Y-140300000D03*
%TD*%
D22*
%TO.C,R14*%
X210800000Y-116550000D03*
X210800000Y-114650000D03*
%TD*%
D23*
%TO.C,R8*%
X218498764Y-146300000D03*
X220398764Y-146300000D03*
%TD*%
D28*
%TO.C,F4*%
X217400000Y-115500000D03*
X217400000Y-122900000D03*
%TD*%
D29*
%TO.C,F1*%
X208100000Y-129500000D03*
X215500000Y-129500000D03*
%TD*%
D23*
%TO.C,R16*%
X218500000Y-143300000D03*
X220400000Y-143300000D03*
%TD*%
D30*
%TO.C,D5*%
X214600000Y-134800000D03*
X219000000Y-134800000D03*
%TD*%
D27*
%TO.C,C6*%
X215850000Y-110000000D03*
X217750000Y-110000000D03*
%TD*%
D31*
%TO.C,A1*%
X226725000Y-100635000D03*
X207675000Y-100635000D03*
X207675000Y-113335000D03*
X207675000Y-116515000D03*
X207675000Y-119695000D03*
X207675000Y-135575000D03*
X226725000Y-135575000D03*
%TD*%
D32*
%TO.C,J5*%
X236000000Y-140100000D03*
X236000000Y-131100000D03*
D33*
X234300000Y-138600000D03*
X234300000Y-136600000D03*
X234300000Y-134600000D03*
X234300000Y-132600000D03*
%TD*%
D34*
%TO.C,REF\002A\002A*%
X199800000Y-155300000D03*
%TD*%
%TO.C,REF\002A\002A*%
X199800000Y-90300000D03*
%TD*%
%TO.C,REF\002A\002A*%
X314800000Y-95300000D03*
%TD*%
%TO.C,REF\002A\002A*%
X314800000Y-150300000D03*
%TD*%
D35*
%TO.C,REF\002A\002A*%
X214800000Y-100300000D03*
%TD*%
%TO.C,REF\002A\002A*%
X309800000Y-145300000D03*
%TD*%
D36*
%TO.C,U6*%
X191895000Y-126806000D03*
X193165000Y-126806000D03*
X194435000Y-126806000D03*
X195705000Y-126806000D03*
X195705000Y-132394000D03*
X194435000Y-132394000D03*
X193165000Y-132394000D03*
X191895000Y-132394000D03*
%TD*%
D33*
%TO.C,J21*%
X270130000Y-154350000D03*
X266130000Y-154350000D03*
X268130000Y-154350000D03*
X262130000Y-154350000D03*
X264130000Y-154350000D03*
X260130000Y-154350000D03*
D32*
X271630000Y-152650000D03*
X250630000Y-152650000D03*
D33*
X258130000Y-154350000D03*
X256130000Y-154350000D03*
X254130000Y-154350000D03*
X252130000Y-154350000D03*
%TD*%
%TO.C,J20*%
X258300000Y-144400000D03*
X258300000Y-140400000D03*
X258300000Y-142400000D03*
X258300000Y-138400000D03*
D32*
X260000000Y-145900000D03*
X260000000Y-128900000D03*
D33*
X258300000Y-136400000D03*
X258300000Y-134400000D03*
X258300000Y-132400000D03*
X258300000Y-130400000D03*
%TD*%
D37*
%TO.C,J25*%
X286790000Y-156210000D03*
X288290000Y-156210000D03*
D38*
X289790000Y-156210000D03*
%TD*%
D32*
%TO.C,J9*%
X271600000Y-104200000D03*
X271600000Y-97200000D03*
D33*
X269900000Y-102700000D03*
X269900000Y-100700000D03*
X269900000Y-98700000D03*
%TD*%
D32*
%TO.C,J16*%
X202900000Y-134500000D03*
X202900000Y-127500000D03*
D33*
X201200000Y-133000000D03*
X201200000Y-131000000D03*
X201200000Y-129000000D03*
%TD*%
%TO.C,J14*%
X234245618Y-111222266D03*
X234245618Y-109222266D03*
D32*
X235945618Y-112722266D03*
X235945618Y-99722266D03*
D33*
X234245618Y-107222266D03*
X234245618Y-105222266D03*
X234245618Y-103222266D03*
X234245618Y-101222266D03*
%TD*%
%TO.C,J13*%
X246245618Y-111222266D03*
X246245618Y-109222266D03*
D32*
X247945618Y-112722266D03*
X247945618Y-99722266D03*
D33*
X246245618Y-107222266D03*
X246245618Y-105222266D03*
X246245618Y-103222266D03*
X246245618Y-101222266D03*
%TD*%
%TO.C,J1*%
X246245618Y-127222266D03*
X246245618Y-125222266D03*
D32*
X247945618Y-128722266D03*
X247945618Y-115722266D03*
D33*
X246245618Y-123222266D03*
X246245618Y-121222266D03*
X246245618Y-119222266D03*
X246245618Y-117222266D03*
%TD*%
%TO.C,J6*%
X234245618Y-127222266D03*
X234245618Y-125222266D03*
D32*
X235945618Y-128722266D03*
X235945618Y-115722266D03*
D33*
X234245618Y-123222266D03*
X234245618Y-121222266D03*
X234245618Y-119222266D03*
X234245618Y-117222266D03*
%TD*%
D32*
%TO.C,J8*%
X236622266Y-152954382D03*
X227622266Y-152954382D03*
D33*
X235122266Y-154654382D03*
X233122266Y-154654382D03*
X231122266Y-154654382D03*
X229122266Y-154654382D03*
%TD*%
D32*
%TO.C,J4*%
X245900000Y-95500000D03*
X254900000Y-95500000D03*
D33*
X247400000Y-93800000D03*
X249400000Y-93800000D03*
X251400000Y-93800000D03*
X253400000Y-93800000D03*
%TD*%
D32*
%TO.C,J7*%
X208677734Y-95445618D03*
X217677734Y-95445618D03*
D33*
X210177734Y-93745618D03*
X212177734Y-93745618D03*
X214177734Y-93745618D03*
X216177734Y-93745618D03*
%TD*%
D32*
%TO.C,J3*%
X212622266Y-152954382D03*
X203622266Y-152954382D03*
D33*
X211122266Y-154654382D03*
X209122266Y-154654382D03*
X207122266Y-154654382D03*
X205122266Y-154654382D03*
%TD*%
D32*
%TO.C,J2*%
X232677734Y-95445618D03*
X241677734Y-95445618D03*
D33*
X234177734Y-93745618D03*
X236177734Y-93745618D03*
X238177734Y-93745618D03*
X240177734Y-93745618D03*
%TD*%
D32*
%TO.C,J10*%
X248170000Y-145330000D03*
X239170000Y-145330000D03*
D33*
X246670000Y-147030000D03*
X244670000Y-147030000D03*
X242670000Y-147030000D03*
X240670000Y-147030000D03*
%TD*%
D32*
%TO.C,J11*%
X220677734Y-95445618D03*
X229677734Y-95445618D03*
D33*
X222177734Y-93745618D03*
X224177734Y-93745618D03*
X226177734Y-93745618D03*
X228177734Y-93745618D03*
%TD*%
D32*
%TO.C,J12*%
X224622266Y-152954382D03*
X215622266Y-152954382D03*
D33*
X223122266Y-154654382D03*
X221122266Y-154654382D03*
X219122266Y-154654382D03*
X217122266Y-154654382D03*
%TD*%
D39*
%TO.C,J24*%
X244400000Y-138000000D03*
D40*
X241600000Y-140150000D03*
X247200000Y-140150000D03*
%TD*%
D41*
%TO.C,J29*%
X266820000Y-115800000D03*
X269360000Y-115800000D03*
D42*
X271900000Y-115800000D03*
%TD*%
D43*
%TO.C,U5*%
X187098000Y-108990000D03*
X187098000Y-110260000D03*
X187098000Y-111530000D03*
X187098000Y-112800000D03*
X192686000Y-112800000D03*
X192686000Y-111530000D03*
X192686000Y-110260000D03*
X192686000Y-108990000D03*
%TD*%
D33*
%TO.C,J22*%
X271200000Y-92700000D03*
X269200000Y-92700000D03*
X267200000Y-92700000D03*
X265200000Y-92700000D03*
D32*
X272700000Y-94400000D03*
X257700000Y-94400000D03*
D33*
X261200000Y-92700000D03*
X263200000Y-92700000D03*
X259200000Y-92700000D03*
%TD*%
D44*
%TO.C,J17*%
X275550000Y-121575000D03*
D45*
X275550000Y-120075000D03*
%TD*%
D33*
%TO.C,J19*%
X308000000Y-93100000D03*
X306000000Y-93100000D03*
X304000000Y-93100000D03*
X302000000Y-93100000D03*
D32*
X309500000Y-94800000D03*
X290500000Y-94800000D03*
D33*
X298000000Y-93100000D03*
X300000000Y-93100000D03*
X294000000Y-93100000D03*
X296000000Y-93100000D03*
X292000000Y-93100000D03*
%TD*%
D14*
%TO.C,J31*%
G36*
X178200159Y-106188114D02*
X178363727Y-106212377D01*
X178524130Y-106252556D01*
X178679822Y-106308263D01*
X178829304Y-106378963D01*
X178971136Y-106463974D01*
X179103953Y-106562477D01*
X179226475Y-106673525D01*
X179337523Y-106796047D01*
X179436026Y-106928864D01*
X179521037Y-107070696D01*
X179591737Y-107220178D01*
X179647444Y-107375870D01*
X179687623Y-107536273D01*
X179711886Y-107699841D01*
X179720000Y-107865000D01*
X179720000Y-111235000D01*
X179711886Y-111400159D01*
X179687623Y-111563727D01*
X179647444Y-111724130D01*
X179591737Y-111879822D01*
X179521037Y-112029304D01*
X179436026Y-112171136D01*
X179337523Y-112303953D01*
X179226475Y-112426475D01*
X179103953Y-112537523D01*
X178971136Y-112636026D01*
X178829304Y-112721037D01*
X178679822Y-112791737D01*
X178524130Y-112847444D01*
X178363727Y-112887623D01*
X178200159Y-112911886D01*
X178035000Y-112920000D01*
X173665000Y-112920000D01*
X173499841Y-112911886D01*
X173336273Y-112887623D01*
X173175870Y-112847444D01*
X173020178Y-112791737D01*
X172870696Y-112721037D01*
X172728864Y-112636026D01*
X172596047Y-112537523D01*
X172473525Y-112426475D01*
X172362477Y-112303953D01*
X172263974Y-112171136D01*
X172178963Y-112029304D01*
X172108263Y-111879822D01*
X172052556Y-111724130D01*
X172012377Y-111563727D01*
X171988114Y-111400159D01*
X171980000Y-111235000D01*
X171980000Y-107865000D01*
X171988114Y-107699841D01*
X172012377Y-107536273D01*
X172052556Y-107375870D01*
X172108263Y-107220178D01*
X172178963Y-107070696D01*
X172263974Y-106928864D01*
X172362477Y-106796047D01*
X172473525Y-106673525D01*
X172596047Y-106562477D01*
X172728864Y-106463974D01*
X172870696Y-106378963D01*
X173020178Y-106308263D01*
X173175870Y-106252556D01*
X173336273Y-106212377D01*
X173499841Y-106188114D01*
X173665000Y-106180000D01*
X178035000Y-106180000D01*
X178200159Y-106188114D01*
X178200159Y-106188114D01*
G37*
D46*
X175850000Y-109550000D03*
D14*
G36*
X176984286Y-113694605D02*
X177278709Y-113738278D01*
X177567433Y-113810600D01*
X177847679Y-113910873D01*
X178116746Y-114038133D01*
X178372045Y-114191153D01*
X178611115Y-114368459D01*
X178831655Y-114568345D01*
X179031541Y-114788885D01*
X179208847Y-115027955D01*
X179361867Y-115283254D01*
X179489127Y-115552321D01*
X179589400Y-115832567D01*
X179661722Y-116121291D01*
X179705395Y-116415714D01*
X179720000Y-116713000D01*
X179720000Y-117387000D01*
X179705395Y-117684286D01*
X179661722Y-117978709D01*
X179589400Y-118267433D01*
X179489127Y-118547679D01*
X179361867Y-118816746D01*
X179208847Y-119072045D01*
X179031541Y-119311115D01*
X178831655Y-119531655D01*
X178611115Y-119731541D01*
X178372045Y-119908847D01*
X178116746Y-120061867D01*
X177847679Y-120189127D01*
X177567433Y-120289400D01*
X177278709Y-120361722D01*
X176984286Y-120405395D01*
X176687000Y-120420000D01*
X175013000Y-120420000D01*
X174715714Y-120405395D01*
X174421291Y-120361722D01*
X174132567Y-120289400D01*
X173852321Y-120189127D01*
X173583254Y-120061867D01*
X173327955Y-119908847D01*
X173088885Y-119731541D01*
X172868345Y-119531655D01*
X172668459Y-119311115D01*
X172491153Y-119072045D01*
X172338133Y-118816746D01*
X172210873Y-118547679D01*
X172110600Y-118267433D01*
X172038278Y-117978709D01*
X171994605Y-117684286D01*
X171980000Y-117387000D01*
X171980000Y-116713000D01*
X171994605Y-116415714D01*
X172038278Y-116121291D01*
X172110600Y-115832567D01*
X172210873Y-115552321D01*
X172338133Y-115283254D01*
X172491153Y-115027955D01*
X172668459Y-114788885D01*
X172868345Y-114568345D01*
X173088885Y-114368459D01*
X173327955Y-114191153D01*
X173583254Y-114038133D01*
X173852321Y-113910873D01*
X174132567Y-113810600D01*
X174421291Y-113738278D01*
X174715714Y-113694605D01*
X175013000Y-113680000D01*
X176687000Y-113680000D01*
X176984286Y-113694605D01*
X176984286Y-113694605D01*
G37*
D46*
X175850000Y-117050000D03*
%TD*%
D14*
%TO.C,J32*%
G36*
X178200159Y-125938114D02*
X178363727Y-125962377D01*
X178524130Y-126002556D01*
X178679822Y-126058263D01*
X178829304Y-126128963D01*
X178971136Y-126213974D01*
X179103953Y-126312477D01*
X179226475Y-126423525D01*
X179337523Y-126546047D01*
X179436026Y-126678864D01*
X179521037Y-126820696D01*
X179591737Y-126970178D01*
X179647444Y-127125870D01*
X179687623Y-127286273D01*
X179711886Y-127449841D01*
X179720000Y-127615000D01*
X179720000Y-130985000D01*
X179711886Y-131150159D01*
X179687623Y-131313727D01*
X179647444Y-131474130D01*
X179591737Y-131629822D01*
X179521037Y-131779304D01*
X179436026Y-131921136D01*
X179337523Y-132053953D01*
X179226475Y-132176475D01*
X179103953Y-132287523D01*
X178971136Y-132386026D01*
X178829304Y-132471037D01*
X178679822Y-132541737D01*
X178524130Y-132597444D01*
X178363727Y-132637623D01*
X178200159Y-132661886D01*
X178035000Y-132670000D01*
X173665000Y-132670000D01*
X173499841Y-132661886D01*
X173336273Y-132637623D01*
X173175870Y-132597444D01*
X173020178Y-132541737D01*
X172870696Y-132471037D01*
X172728864Y-132386026D01*
X172596047Y-132287523D01*
X172473525Y-132176475D01*
X172362477Y-132053953D01*
X172263974Y-131921136D01*
X172178963Y-131779304D01*
X172108263Y-131629822D01*
X172052556Y-131474130D01*
X172012377Y-131313727D01*
X171988114Y-131150159D01*
X171980000Y-130985000D01*
X171980000Y-127615000D01*
X171988114Y-127449841D01*
X172012377Y-127286273D01*
X172052556Y-127125870D01*
X172108263Y-126970178D01*
X172178963Y-126820696D01*
X172263974Y-126678864D01*
X172362477Y-126546047D01*
X172473525Y-126423525D01*
X172596047Y-126312477D01*
X172728864Y-126213974D01*
X172870696Y-126128963D01*
X173020178Y-126058263D01*
X173175870Y-126002556D01*
X173336273Y-125962377D01*
X173499841Y-125938114D01*
X173665000Y-125930000D01*
X178035000Y-125930000D01*
X178200159Y-125938114D01*
X178200159Y-125938114D01*
G37*
D46*
X175850000Y-129300000D03*
D14*
G36*
X176984286Y-133444605D02*
X177278709Y-133488278D01*
X177567433Y-133560600D01*
X177847679Y-133660873D01*
X178116746Y-133788133D01*
X178372045Y-133941153D01*
X178611115Y-134118459D01*
X178831655Y-134318345D01*
X179031541Y-134538885D01*
X179208847Y-134777955D01*
X179361867Y-135033254D01*
X179489127Y-135302321D01*
X179589400Y-135582567D01*
X179661722Y-135871291D01*
X179705395Y-136165714D01*
X179720000Y-136463000D01*
X179720000Y-137137000D01*
X179705395Y-137434286D01*
X179661722Y-137728709D01*
X179589400Y-138017433D01*
X179489127Y-138297679D01*
X179361867Y-138566746D01*
X179208847Y-138822045D01*
X179031541Y-139061115D01*
X178831655Y-139281655D01*
X178611115Y-139481541D01*
X178372045Y-139658847D01*
X178116746Y-139811867D01*
X177847679Y-139939127D01*
X177567433Y-140039400D01*
X177278709Y-140111722D01*
X176984286Y-140155395D01*
X176687000Y-140170000D01*
X175013000Y-140170000D01*
X174715714Y-140155395D01*
X174421291Y-140111722D01*
X174132567Y-140039400D01*
X173852321Y-139939127D01*
X173583254Y-139811867D01*
X173327955Y-139658847D01*
X173088885Y-139481541D01*
X172868345Y-139281655D01*
X172668459Y-139061115D01*
X172491153Y-138822045D01*
X172338133Y-138566746D01*
X172210873Y-138297679D01*
X172110600Y-138017433D01*
X172038278Y-137728709D01*
X171994605Y-137434286D01*
X171980000Y-137137000D01*
X171980000Y-136463000D01*
X171994605Y-136165714D01*
X172038278Y-135871291D01*
X172110600Y-135582567D01*
X172210873Y-135302321D01*
X172338133Y-135033254D01*
X172491153Y-134777955D01*
X172668459Y-134538885D01*
X172868345Y-134318345D01*
X173088885Y-134118459D01*
X173327955Y-133941153D01*
X173583254Y-133788133D01*
X173852321Y-133660873D01*
X174132567Y-133560600D01*
X174421291Y-133488278D01*
X174715714Y-133444605D01*
X175013000Y-133430000D01*
X176687000Y-133430000D01*
X176984286Y-133444605D01*
X176984286Y-133444605D01*
G37*
D46*
X175850000Y-136800000D03*
%TD*%
D33*
%TO.C,J23*%
X276700000Y-93200000D03*
X278700000Y-93200000D03*
D32*
X275200000Y-94900000D03*
X288200000Y-94900000D03*
D33*
X280700000Y-93200000D03*
X282700000Y-93200000D03*
X284700000Y-93200000D03*
X286700000Y-93200000D03*
%TD*%
D32*
%TO.C,J18*%
X260000000Y-126200000D03*
X260000000Y-117200000D03*
D33*
X258300000Y-124700000D03*
X258300000Y-122700000D03*
X258300000Y-120700000D03*
X258300000Y-118700000D03*
%TD*%
D38*
%TO.C,J37*%
X242760000Y-155880000D03*
D37*
X241260000Y-155880000D03*
X239760000Y-155880000D03*
%TD*%
D23*
%TO.C,R18*%
X190150000Y-153350000D03*
X192050000Y-153350000D03*
%TD*%
D14*
%TO.C,J30*%
G36*
X202950159Y-116638114D02*
X203113727Y-116662377D01*
X203274130Y-116702556D01*
X203429822Y-116758263D01*
X203579304Y-116828963D01*
X203721136Y-116913974D01*
X203853953Y-117012477D01*
X203976475Y-117123525D01*
X204087523Y-117246047D01*
X204186026Y-117378864D01*
X204271037Y-117520696D01*
X204341737Y-117670178D01*
X204397444Y-117825870D01*
X204437623Y-117986273D01*
X204461886Y-118149841D01*
X204470000Y-118315000D01*
X204470000Y-121685000D01*
X204461886Y-121850159D01*
X204437623Y-122013727D01*
X204397444Y-122174130D01*
X204341737Y-122329822D01*
X204271037Y-122479304D01*
X204186026Y-122621136D01*
X204087523Y-122753953D01*
X203976475Y-122876475D01*
X203853953Y-122987523D01*
X203721136Y-123086026D01*
X203579304Y-123171037D01*
X203429822Y-123241737D01*
X203274130Y-123297444D01*
X203113727Y-123337623D01*
X202950159Y-123361886D01*
X202785000Y-123370000D01*
X198415000Y-123370000D01*
X198249841Y-123361886D01*
X198086273Y-123337623D01*
X197925870Y-123297444D01*
X197770178Y-123241737D01*
X197620696Y-123171037D01*
X197478864Y-123086026D01*
X197346047Y-122987523D01*
X197223525Y-122876475D01*
X197112477Y-122753953D01*
X197013974Y-122621136D01*
X196928963Y-122479304D01*
X196858263Y-122329822D01*
X196802556Y-122174130D01*
X196762377Y-122013727D01*
X196738114Y-121850159D01*
X196730000Y-121685000D01*
X196730000Y-118315000D01*
X196738114Y-118149841D01*
X196762377Y-117986273D01*
X196802556Y-117825870D01*
X196858263Y-117670178D01*
X196928963Y-117520696D01*
X197013974Y-117378864D01*
X197112477Y-117246047D01*
X197223525Y-117123525D01*
X197346047Y-117012477D01*
X197478864Y-116913974D01*
X197620696Y-116828963D01*
X197770178Y-116758263D01*
X197925870Y-116702556D01*
X198086273Y-116662377D01*
X198249841Y-116638114D01*
X198415000Y-116630000D01*
X202785000Y-116630000D01*
X202950159Y-116638114D01*
X202950159Y-116638114D01*
G37*
D46*
X200600000Y-120000000D03*
D14*
G36*
X201734286Y-109144605D02*
X202028709Y-109188278D01*
X202317433Y-109260600D01*
X202597679Y-109360873D01*
X202866746Y-109488133D01*
X203122045Y-109641153D01*
X203361115Y-109818459D01*
X203581655Y-110018345D01*
X203781541Y-110238885D01*
X203958847Y-110477955D01*
X204111867Y-110733254D01*
X204239127Y-111002321D01*
X204339400Y-111282567D01*
X204411722Y-111571291D01*
X204455395Y-111865714D01*
X204470000Y-112163000D01*
X204470000Y-112837000D01*
X204455395Y-113134286D01*
X204411722Y-113428709D01*
X204339400Y-113717433D01*
X204239127Y-113997679D01*
X204111867Y-114266746D01*
X203958847Y-114522045D01*
X203781541Y-114761115D01*
X203581655Y-114981655D01*
X203361115Y-115181541D01*
X203122045Y-115358847D01*
X202866746Y-115511867D01*
X202597679Y-115639127D01*
X202317433Y-115739400D01*
X202028709Y-115811722D01*
X201734286Y-115855395D01*
X201437000Y-115870000D01*
X199763000Y-115870000D01*
X199465714Y-115855395D01*
X199171291Y-115811722D01*
X198882567Y-115739400D01*
X198602321Y-115639127D01*
X198333254Y-115511867D01*
X198077955Y-115358847D01*
X197838885Y-115181541D01*
X197618345Y-114981655D01*
X197418459Y-114761115D01*
X197241153Y-114522045D01*
X197088133Y-114266746D01*
X196960873Y-113997679D01*
X196860600Y-113717433D01*
X196788278Y-113428709D01*
X196744605Y-113134286D01*
X196730000Y-112837000D01*
X196730000Y-112163000D01*
X196744605Y-111865714D01*
X196788278Y-111571291D01*
X196860600Y-111282567D01*
X196960873Y-111002321D01*
X197088133Y-110733254D01*
X197241153Y-110477955D01*
X197418459Y-110238885D01*
X197618345Y-110018345D01*
X197838885Y-109818459D01*
X198077955Y-109641153D01*
X198333254Y-109488133D01*
X198602321Y-109360873D01*
X198882567Y-109260600D01*
X199171291Y-109188278D01*
X199465714Y-109144605D01*
X199763000Y-109130000D01*
X201437000Y-109130000D01*
X201734286Y-109144605D01*
X201734286Y-109144605D01*
G37*
D46*
X200600000Y-112500000D03*
%TD*%
M02*
