M48
;DRILL file {KiCad (2017-08-27 revision e3c64f1f0)-makepkg} date 11/07/17 13:37:52
;FORMAT={-:-/ absolute / metric / decimal}
FMAT,2
METRIC,TZ
T1C0.650
T2C1.200
T3C1.800
T4C3.200
%
G90
G05
M71
T1
X288.25Y-117.85
X310.25Y-117.85
T2
X235.946Y-99.722
X235.946Y-112.722
X220.678Y-95.446
X229.678Y-95.446
X247.946Y-99.722
X247.946Y-112.722
X235.946Y-115.722
X235.946Y-128.722
X257.7Y-94.4
X272.7Y-94.4
X215.622Y-152.954
X224.622Y-152.954
X245.9Y-95.5
X254.9Y-95.5
X227.622Y-152.954
X236.622Y-152.954
X260.Y-117.2
X260.Y-126.2
X260.Y-128.9
X260.Y-145.9
X232.678Y-95.446
X241.678Y-95.446
X239.17Y-145.33
X248.17Y-145.33
X250.63Y-152.65
X271.63Y-152.65
X203.622Y-152.954
X212.622Y-152.954
X208.678Y-95.446
X217.678Y-95.446
X271.6Y-97.2
X271.6Y-104.2
X236.Y-131.1
X236.Y-140.1
X275.2Y-94.9
X288.2Y-94.9
X290.5Y-94.8
X309.5Y-94.8
X247.946Y-115.722
X247.946Y-128.722
X202.9Y-127.5
X202.9Y-134.5
T3
X284.05Y-107.25
X284.05Y-137.25
X314.05Y-107.25
X314.05Y-137.25
T4
X309.8Y-145.3
X214.8Y-100.3
T0
M30
