M48
;DRILL file {KiCad (2017-08-27 revision e3c64f1f0)-makepkg} date 09/07/17 11:53:04
;FORMAT={-:-/ absolute / inch / decimal}
FMAT,2
INCH,TZ
T1C0.012
T2C0.020
T3C0.024
T4C0.031
T5C0.039
T6C0.047
T7C0.051
T8C0.126
T9C0.177
%
G90
G05
M72
T1
X6.8508Y-3.9713
X7.0185Y-3.4835
X7.1524Y-4.4028
X7.1878Y-3.6331
X7.2866Y-5.4209
X7.2953Y-5.9602
X7.3366Y-5.4898
X7.3756Y-5.4169
X7.4193Y-4.1996
X7.5743Y-4.5586
X8.176Y-5.624
X8.3318Y-5.4613
X8.5031Y-4.6805
X8.5181Y-5.8626
X8.6151Y-5.8703
X8.6704Y-5.9
X8.9213Y-6.0079
X8.9331Y-5.8028
X8.9528Y-4.0639
X8.9606Y-4.7992
X9.0118Y-4.7244
X9.0138Y-4.6577
X9.0255Y-4.0965
X9.0414Y-6.0004
X9.0728Y-5.3433
X9.0866Y-3.9094
X9.1031Y-5.6299
X9.126Y-4.4528
X9.1339Y-4.1575
X9.1417Y-3.8858
X9.1811Y-4.4528
X9.2004Y-5.6756
X9.2177Y-5.1476
X9.2236Y-5.0992
X9.2756Y-5.4331
X9.2913Y-5.873
X9.3819Y-5.7047
X9.4567Y-4.1181
X9.4862Y-4.5258
X9.498Y-5.7701
X9.5039Y-4.126
X9.5281Y-4.5063
X9.5461Y-5.0917
X9.5472Y-5.3829
X9.5743Y-6.1634
X9.5773Y-5.8502
X9.5979Y-5.1217
X9.6Y-5.778
X9.6041Y-5.7127
X9.6323Y-5.6852
X9.6388Y-5.5774
X9.6703Y-5.4028
X9.678Y-5.5831
X9.685Y-4.1299
X9.6862Y-6.1742
X9.6999Y-5.4763
X9.7268Y-4.9429
X9.7343Y-4.1299
X9.7795Y-4.1339
X9.8268Y-4.1339
X9.8512Y-5.8114
X9.8553Y-4.1798
X9.8937Y-5.7736
X9.8963Y-4.1546
X9.9227Y-5.4527
X9.9293Y-5.5719
X9.9713Y-5.6126
X9.9921Y-5.2677
X9.9961Y-5.7087
X10.0157Y-4.1024
X10.0196Y-5.0971
X10.0352Y-5.5689
X10.0356Y-5.7479
X10.0531Y-4.0585
X10.0555Y-3.9783
X10.0584Y-5.5134
X10.1575Y-5.9094
X10.1606Y-5.1382
X10.1772Y-5.6024
X10.189Y-5.5591
X10.1894Y-5.0953
X10.1969Y-5.4016
X10.2008Y-5.6575
X10.2205Y-4.6142
X10.2411Y-3.8159
X10.2992Y-5.4341
X10.3065Y-5.3313
X10.3386Y-5.0984
X10.3583Y-5.8976
X10.3762Y-4.0492
X10.4155Y-3.7523
X10.4173Y-6.1443
X10.4408Y-5.5394
X10.4646Y-5.8976
X10.4972Y-5.4854
X10.5006Y-4.0318
X10.5216Y-5.6596
X10.5275Y-4.2204
X10.5415Y-4.0601
X10.5484Y-5.4008
X10.5815Y-3.9429
X10.5834Y-5.3815
X10.6194Y-5.2176
X10.6402Y-5.6547
X10.6585Y-5.2312
X10.7086Y-5.9543
X10.735Y-5.5965
X10.7996Y-5.5681
X10.8195Y-5.406
X10.8461Y-3.5205
X10.9819Y-5.2797
X10.9882Y-4.1496
X11.0168Y-5.2608
X11.0543Y-3.5923
X11.1043Y-6.0134
X11.1661Y-6.0191
X11.2847Y-4.5539
X11.2918Y-4.5946
X11.2984Y-4.6431
X11.3087Y-5.5431
X11.3244Y-5.002
X11.3277Y-4.8637
X11.3425Y-3.9055
X11.3444Y-4.9414
X11.3472Y-4.9002
X11.3524Y-5.5329
X11.3543Y-5.122
X11.3562Y-5.1674
X11.3611Y-4.4085
X11.3688Y-4.4761
X11.3822Y-5.5072
X11.4003Y-4.405
X11.4063Y-4.4641
X11.4116Y-5.4735
X11.4188Y-4.2866
X11.425Y-5.4136
X11.428Y-5.6997
X11.4466Y-5.3807
X11.4843Y-5.437
X11.4843Y-5.3921
X11.4882Y-5.9381
X11.4961Y-5.3346
X11.5003Y-4.1052
X11.5118Y-5.7598
X11.5152Y-4.3651
X11.5195Y-4.2555
X11.5409Y-3.8835
X11.5413Y-5.7909
X11.5546Y-4.2732
X11.5851Y-4.3602
X11.6646Y-5.1303
X11.6732Y-4.752
X11.697Y-3.9165
X11.7465Y-5.1291
X11.7945Y-4.276
X11.8139Y-5.0985
X11.8417Y-5.0567
X11.9095Y-4.7442
X11.94Y-5.0102
X11.9909Y-4.0118
X12.0333Y-3.9016
X12.0648Y-3.86
X12.0707Y-5.1522
X12.0876Y-4.395
X12.0957Y-4.722
X12.1575Y-3.9567
X12.1732Y-4.5472
X12.2008Y-3.9567
X12.3049Y-5.0328
X12.3228Y-4.9346
X12.3767Y-4.5327
X12.4713Y-5.2429
X12.5152Y-4.9923
X12.5272Y-5.0957
X11.5972Y-3.872
X9.4291Y-5.6732
X10.9528Y-5.7362
X7.0256Y-4.852
X11.315Y-5.626
X7.0264Y-4.8988
X12.228Y-5.1059
X10.0276Y-3.8228
X7.1965Y-5.0551
X6.8823Y-4.8992
X9.9882Y-4.5906
X7.163Y-4.4933
X9.8693Y-5.5878
X9.9449Y-5.8268
X7.1945Y-4.252
X9.9409Y-4.6142
X7.3886Y-5.6252
X11.4606Y-4.9488
X6.835Y-4.9004
X7.2378Y-4.2063
X6.8772Y-4.8067
X7.2378Y-4.2965
X7.1146Y-4.8524
X7.1488Y-5.0091
X12.265Y-5.0646
X7.1945Y-4.3004
X7.0709Y-4.8539
X7.1488Y-5.0563
X12.3228Y-3.5787
X7.1469Y-4.2059
X7.1945Y-4.2059
X11.6516Y-3.8957
X7.1469Y-4.2531
X10.0354Y-3.5866
X7.1488Y-5.0996
X6.7862Y-4.8071
X10.9161Y-6.0213
X7.0705Y-4.8098
X7.1469Y-4.2965
X7.1965Y-5.0091
X11.2512Y-5.9591
X10.4331Y-5.1102
X7.0736Y-4.8988
X7.2378Y-4.2531
X6.8319Y-4.8035
X12.0906Y-4.2205
X6.7858Y-4.8551
X10.0039Y-4.2638
X6.8787Y-4.8531
X12.0787Y-4.1535
X10.1417Y-5.3819
X10.2008Y-4.9409
X7.2398Y-5.0996
X10.4764Y-5.3091
X7.2854Y-5.0976
X7.0276Y-4.8098
X7.1154Y-4.8969
X7.1965Y-5.1035
X9.7197Y-5.5516
X7.2398Y-5.0563
X9.3071Y-5.9724
X9.9449Y-4.6693
X6.7862Y-4.9004
X10.0079Y-4.0118
X6.8339Y-4.8543
X10.0315Y-5.1823
X7.115Y-4.8106
T3
X8.7689Y-5.278
X8.7689Y-5.337
X8.7689Y-5.3961
X8.8069Y-5.6603
X8.866Y-5.6603
X8.925Y-5.6603
X10.2362Y-4.7421
X10.2953Y-4.7421
T4
X8.1544Y-5.9667
X8.2332Y-5.9667
X8.3119Y-5.9667
X8.3906Y-5.9667
X7.7078Y-3.7341
X7.7865Y-3.7341
X7.8653Y-3.7341
X7.944Y-3.7341
X8.1802Y-3.7341
X8.259Y-3.7341
X8.3377Y-3.7341
X8.4164Y-3.7341
X7.6535Y-4.2992
X7.6535Y-4.378
X7.6535Y-4.4567
X9.7992Y-4.4921
X9.7992Y-4.5709
X9.7992Y-4.6496
X9.7992Y-4.7283
X9.7992Y-4.8071
X9.7992Y-4.8858
X10.2047Y-3.5984
X10.2835Y-3.5984
X10.3622Y-3.5984
X10.4409Y-3.5984
X10.5197Y-3.5984
X10.5984Y-3.5984
X10.6772Y-3.5984
X9.1654Y-6.0512
X9.2441Y-6.0512
X9.3228Y-6.0512
X9.4016Y-6.0512
X8.864Y-3.9851
X8.864Y-4.0639
X8.864Y-4.1426
X8.864Y-4.2213
X8.864Y-4.3001
X8.864Y-4.3788
X10.0118Y-6.0551
X10.0906Y-6.0551
X10.1693Y-6.0551
X10.248Y-6.0551
X10.3268Y-6.0551
X10.4055Y-6.0551
X10.4843Y-6.0551
X10.563Y-6.0551
X10.6417Y-6.0551
X10.7205Y-6.0551
X8.6269Y-5.9667
X8.7056Y-5.9667
X8.7843Y-5.9667
X8.8631Y-5.9667
X9.7992Y-5.1024
X9.7992Y-5.1811
X9.7992Y-5.2598
X9.7992Y-5.3386
X7.682Y-5.9667
X7.7607Y-5.9667
X7.8395Y-5.9667
X7.9182Y-5.9667
X8.864Y-4.615
X8.864Y-4.6938
X8.864Y-4.7725
X8.864Y-4.8513
X8.864Y-4.93
X8.864Y-5.0088
X9.3364Y-3.9851
X9.3364Y-4.0639
X9.3364Y-4.1426
X9.3364Y-4.2213
X9.3364Y-4.3001
X9.3364Y-4.3788
X11.4835Y-3.6673
X11.5622Y-3.6673
X11.6409Y-3.6673
X11.7197Y-3.6673
X11.7984Y-3.6673
X11.8772Y-3.6673
X11.9559Y-3.6673
X12.0346Y-3.6673
X12.1134Y-3.6673
X9.1732Y-3.7362
X9.252Y-3.7362
X9.3307Y-3.7362
X9.4094Y-3.7362
X8.6527Y-3.7341
X8.7314Y-3.7341
X8.8101Y-3.7341
X8.8889Y-3.7341
X9.7992Y-5.5551
X9.7992Y-5.6339
X9.7992Y-5.7126
X9.7992Y-5.7913
X9.7992Y-5.8701
X9.7992Y-5.9488
X9.7992Y-6.0276
X9.7992Y-6.1063
X9.3364Y-5.245
X9.3364Y-5.3237
X9.3364Y-5.4025
X9.3364Y-5.4812
X9.3364Y-4.615
X9.3364Y-4.6938
X9.3364Y-4.7725
X9.3364Y-4.8513
X9.3364Y-4.93
X9.3364Y-5.0088
X9.7008Y-3.626
X9.7795Y-3.626
X9.8583Y-3.626
T5
X11.3303Y-6.1106
X11.4303Y-6.1106
X11.5303Y-6.1106
X6.498Y-3.6063
X6.498Y-3.9606
X7.0886Y-3.6063
X7.0886Y-3.9606
X11.0004Y-3.6575
X11.1004Y-3.6575
X10.1047Y-5.811
X10.2047Y-5.811
X10.3047Y-5.811
X12.1307Y-5.6819
X12.1307Y-5.7819
X12.1307Y-5.8819
X6.498Y-5.7224
X6.498Y-6.0768
X7.0886Y-5.7224
X7.0886Y-6.0768
X10.6972Y-5.3346
X10.7972Y-5.3346
X10.9346Y-6.1122
X11.0346Y-6.1122
X11.1346Y-6.1122
X10.6791Y-4.0157
X10.7791Y-4.0157
X10.7268Y-4.2378
X10.7268Y-4.3378
X10.7268Y-4.4378
X10.7268Y-4.5378
X10.7268Y-4.6378
X10.7268Y-4.7378
X10.7268Y-4.8378
X10.7268Y-4.9378
X10.7268Y-5.0378
X10.7268Y-5.1378
X10.8268Y-4.2378
X10.8268Y-4.3378
X10.8268Y-4.4378
X10.8268Y-4.5378
X10.8268Y-4.6378
X10.8268Y-4.7378
X10.8268Y-4.8378
X10.8268Y-4.9378
X10.8268Y-5.0378
X10.8268Y-5.1378
T6
X10.0689Y-4.7146
X10.4626Y-4.7146
T7
X7.9055Y-4.0748
X7.9055Y-5.6339
X8.5787Y-4.0748
X8.5787Y-5.6339
T8
X12.3622Y-3.7913
X7.4409Y-3.5945
X12.3622Y-5.7992
X7.4409Y-6.0354
T9
X6.6358Y-4.3051
X6.6358Y-4.6004
X6.6358Y-5.0827
X6.6358Y-5.378
X7.6335Y-4.8512
X7.6335Y-5.1465
T2
X9.187Y-5.7874G85X9.1594Y-5.7874
G05
X9.3051Y-5.7028G85X9.2618Y-5.7028
G05
X9.4075Y-5.7874G85X9.3799Y-5.7874
G05
T0
M30
