G04 #@! TF.GenerationSoftware,KiCad,Pcbnew,(2017-08-27 revision e3c64f1f0)-makepkg*
G04 #@! TF.CreationDate,2017-09-07T11:52:54+02:00*
G04 #@! TF.ProjectId,Breakout-Platine-Cube,427265616B6F75742D506C6174696E65,rev?*
G04 #@! TF.SameCoordinates,Original*
G04 #@! TF.FileFunction,Legend,Bot*
G04 #@! TF.FilePolarity,Positive*
%FSLAX46Y46*%
G04 Gerber Fmt 4.6, Leading zero omitted, Abs format (unit mm)*
G04 Created by KiCad (PCBNEW (2017-08-27 revision e3c64f1f0)-makepkg) date 09/07/17 11:52:54*
%MOMM*%
%LPD*%
G01*
G04 APERTURE LIST*
%ADD10C,0.150000*%
%ADD11C,0.120000*%
%ADD12C,1.600000*%
%ADD13C,1.900000*%
%ADD14C,6.000000*%
%ADD15R,0.850000X0.800000*%
%ADD16O,1.900000X1.200000*%
%ADD17R,1.900000X1.200000*%
%ADD18C,4.200000*%
%ADD19C,0.900000*%
%ADD20C,3.800000*%
%ADD21O,1.009600X1.873200*%
%ADD22O,1.200000X1.900000*%
%ADD23R,1.200000X1.900000*%
%ADD24C,3.400000*%
%ADD25R,2.100000X2.100000*%
%ADD26O,2.100000X2.100000*%
%ADD27R,2.400000X2.900000*%
%ADD28R,6.000000X2.700000*%
%ADD29R,2.700000X6.000000*%
%ADD30O,2.600000X1.500000*%
%ADD31O,2.200000X1.500000*%
%ADD32C,0.100000*%
%ADD33C,6.900000*%
%ADD34R,3.400000X3.400000*%
%ADD35R,2.400000X2.400000*%
%ADD36O,1.873200X1.009600*%
G04 APERTURE END LIST*
D10*
X184677000Y-128732000D02*
G75*
G03X184677000Y-128732000I-127000J0D01*
G01*
X183915000Y-128097000D02*
X188995000Y-128097000D01*
X183915000Y-131399000D02*
X188995000Y-131399000D01*
X183915000Y-127589000D02*
X188995000Y-127589000D01*
X183915000Y-127589000D02*
X183915000Y-131399000D01*
X188995000Y-127589000D02*
X188995000Y-131399000D01*
X269500000Y-119750000D02*
G75*
G03X269500000Y-119750000I-8750000J0D01*
G01*
D11*
X211500000Y-115780000D02*
X213500000Y-115780000D01*
X213500000Y-112820000D02*
X211500000Y-112820000D01*
X183000000Y-148120000D02*
X181000000Y-148120000D01*
X181000000Y-151080000D02*
X183000000Y-151080000D01*
X181000000Y-97480000D02*
X183000000Y-97480000D01*
X183000000Y-94520000D02*
X181000000Y-94520000D01*
X206340000Y-131130000D02*
X206340000Y-138250000D01*
X200240000Y-131130000D02*
X200240000Y-138250000D01*
X176060000Y-146550000D02*
X168940000Y-146550000D01*
X176060000Y-152650000D02*
X168940000Y-152650000D01*
X176160000Y-99050000D02*
X169040000Y-99050000D01*
X176160000Y-92950000D02*
X169040000Y-92950000D01*
D10*
X184497000Y-113235000D02*
X180687000Y-113235000D01*
X184497000Y-108155000D02*
X180687000Y-108155000D01*
X184497000Y-108155000D02*
X184497000Y-113235000D01*
X180687000Y-108155000D02*
X180687000Y-113235000D01*
X183989000Y-108155000D02*
X183989000Y-113235000D01*
X183481000Y-108790000D02*
G75*
G03X183481000Y-108790000I-127000J0D01*
G01*
X184423333Y-135615714D02*
X184461428Y-135653809D01*
X184575714Y-135691904D01*
X184651904Y-135691904D01*
X184766190Y-135653809D01*
X184842380Y-135577619D01*
X184880476Y-135501428D01*
X184918571Y-135349047D01*
X184918571Y-135234761D01*
X184880476Y-135082380D01*
X184842380Y-135006190D01*
X184766190Y-134930000D01*
X184651904Y-134891904D01*
X184575714Y-134891904D01*
X184461428Y-134930000D01*
X184423333Y-134968095D01*
X184118571Y-134968095D02*
X184080476Y-134930000D01*
X184004285Y-134891904D01*
X183813809Y-134891904D01*
X183737619Y-134930000D01*
X183699523Y-134968095D01*
X183661428Y-135044285D01*
X183661428Y-135120476D01*
X183699523Y-135234761D01*
X184156666Y-135691904D01*
X183661428Y-135691904D01*
X185413809Y-136891904D02*
X185337619Y-136891904D01*
X185261428Y-136930000D01*
X185223333Y-136968095D01*
X185185238Y-137044285D01*
X185147142Y-137196666D01*
X185147142Y-137387142D01*
X185185238Y-137539523D01*
X185223333Y-137615714D01*
X185261428Y-137653809D01*
X185337619Y-137691904D01*
X185413809Y-137691904D01*
X185490000Y-137653809D01*
X185528095Y-137615714D01*
X185566190Y-137539523D01*
X185604285Y-137387142D01*
X185604285Y-137196666D01*
X185566190Y-137044285D01*
X185528095Y-136968095D01*
X185490000Y-136930000D01*
X185413809Y-136891904D01*
X184461428Y-137158571D02*
X184461428Y-137691904D01*
X184804285Y-137158571D02*
X184804285Y-137577619D01*
X184766190Y-137653809D01*
X184690000Y-137691904D01*
X184575714Y-137691904D01*
X184499523Y-137653809D01*
X184461428Y-137615714D01*
X183813809Y-137272857D02*
X184080476Y-137272857D01*
X184080476Y-137691904D02*
X184080476Y-136891904D01*
X183699523Y-136891904D01*
X182975714Y-137691904D02*
X183432857Y-137691904D01*
X183204285Y-137691904D02*
X183204285Y-136891904D01*
X183280476Y-137006190D01*
X183356666Y-137082380D01*
X183432857Y-137120476D01*
X179583333Y-105935714D02*
X179621428Y-105973809D01*
X179735714Y-106011904D01*
X179811904Y-106011904D01*
X179926190Y-105973809D01*
X180002380Y-105897619D01*
X180040476Y-105821428D01*
X180078571Y-105669047D01*
X180078571Y-105554761D01*
X180040476Y-105402380D01*
X180002380Y-105326190D01*
X179926190Y-105250000D01*
X179811904Y-105211904D01*
X179735714Y-105211904D01*
X179621428Y-105250000D01*
X179583333Y-105288095D01*
X178821428Y-106011904D02*
X179278571Y-106011904D01*
X179050000Y-106011904D02*
X179050000Y-105211904D01*
X179126190Y-105326190D01*
X179202380Y-105402380D01*
X179278571Y-105440476D01*
X180573809Y-107211904D02*
X180497619Y-107211904D01*
X180421428Y-107250000D01*
X180383333Y-107288095D01*
X180345238Y-107364285D01*
X180307142Y-107516666D01*
X180307142Y-107707142D01*
X180345238Y-107859523D01*
X180383333Y-107935714D01*
X180421428Y-107973809D01*
X180497619Y-108011904D01*
X180573809Y-108011904D01*
X180650000Y-107973809D01*
X180688095Y-107935714D01*
X180726190Y-107859523D01*
X180764285Y-107707142D01*
X180764285Y-107516666D01*
X180726190Y-107364285D01*
X180688095Y-107288095D01*
X180650000Y-107250000D01*
X180573809Y-107211904D01*
X179621428Y-107478571D02*
X179621428Y-108011904D01*
X179964285Y-107478571D02*
X179964285Y-107897619D01*
X179926190Y-107973809D01*
X179850000Y-108011904D01*
X179735714Y-108011904D01*
X179659523Y-107973809D01*
X179621428Y-107935714D01*
X178973809Y-107592857D02*
X179240476Y-107592857D01*
X179240476Y-108011904D02*
X179240476Y-107211904D01*
X178859523Y-107211904D01*
X178135714Y-108011904D02*
X178592857Y-108011904D01*
X178364285Y-108011904D02*
X178364285Y-107211904D01*
X178440476Y-107326190D01*
X178516666Y-107402380D01*
X178592857Y-107440476D01*
X189212380Y-128738095D02*
X190021904Y-128738095D01*
X190117142Y-128785714D01*
X190164761Y-128833333D01*
X190212380Y-128928571D01*
X190212380Y-129119047D01*
X190164761Y-129214285D01*
X190117142Y-129261904D01*
X190021904Y-129309523D01*
X189212380Y-129309523D01*
X189212380Y-130214285D02*
X189212380Y-130023809D01*
X189260000Y-129928571D01*
X189307619Y-129880952D01*
X189450476Y-129785714D01*
X189640952Y-129738095D01*
X190021904Y-129738095D01*
X190117142Y-129785714D01*
X190164761Y-129833333D01*
X190212380Y-129928571D01*
X190212380Y-130119047D01*
X190164761Y-130214285D01*
X190117142Y-130261904D01*
X190021904Y-130309523D01*
X189783809Y-130309523D01*
X189688571Y-130261904D01*
X189640952Y-130214285D01*
X189593333Y-130119047D01*
X189593333Y-129928571D01*
X189640952Y-129833333D01*
X189688571Y-129785714D01*
X189783809Y-129738095D01*
X183312142Y-125113047D02*
X183359761Y-125065428D01*
X183407380Y-124922571D01*
X183407380Y-124827333D01*
X183359761Y-124684476D01*
X183264523Y-124589238D01*
X183169285Y-124541619D01*
X182978809Y-124494000D01*
X182835952Y-124494000D01*
X182645476Y-124541619D01*
X182550238Y-124589238D01*
X182455000Y-124684476D01*
X182407380Y-124827333D01*
X182407380Y-124922571D01*
X182455000Y-125065428D01*
X182502619Y-125113047D01*
X182407380Y-125541619D02*
X183216904Y-125541619D01*
X183312142Y-125589238D01*
X183359761Y-125636857D01*
X183407380Y-125732095D01*
X183407380Y-125922571D01*
X183359761Y-126017809D01*
X183312142Y-126065428D01*
X183216904Y-126113047D01*
X182407380Y-126113047D01*
X183407380Y-127160666D02*
X182931190Y-126827333D01*
X183407380Y-126589238D02*
X182407380Y-126589238D01*
X182407380Y-126970190D01*
X182455000Y-127065428D01*
X182502619Y-127113047D01*
X182597857Y-127160666D01*
X182740714Y-127160666D01*
X182835952Y-127113047D01*
X182883571Y-127065428D01*
X182931190Y-126970190D01*
X182931190Y-126589238D01*
X183407380Y-128160666D02*
X182931190Y-127827333D01*
X183407380Y-127589238D02*
X182407380Y-127589238D01*
X182407380Y-127970190D01*
X182455000Y-128065428D01*
X182502619Y-128113047D01*
X182597857Y-128160666D01*
X182740714Y-128160666D01*
X182835952Y-128113047D01*
X182883571Y-128065428D01*
X182931190Y-127970190D01*
X182931190Y-127589238D01*
X182883571Y-128589238D02*
X182883571Y-128922571D01*
X183407380Y-129065428D02*
X183407380Y-128589238D01*
X182407380Y-128589238D01*
X182407380Y-129065428D01*
X183407380Y-129494000D02*
X182407380Y-129494000D01*
X183407380Y-130065428D01*
X182407380Y-130065428D01*
X182407380Y-130398761D02*
X182407380Y-130970190D01*
X183407380Y-130684476D02*
X182407380Y-130684476D01*
X183502619Y-131065428D02*
X183502619Y-131827333D01*
X183121666Y-132017809D02*
X183121666Y-132494000D01*
X183407380Y-131922571D02*
X182407380Y-132255904D01*
X183407380Y-132589238D01*
X182407380Y-132922571D02*
X183216904Y-132922571D01*
X183312142Y-132970190D01*
X183359761Y-133017809D01*
X183407380Y-133113047D01*
X183407380Y-133303523D01*
X183359761Y-133398761D01*
X183312142Y-133446380D01*
X183216904Y-133494000D01*
X182407380Y-133494000D01*
X182407380Y-133874952D02*
X183407380Y-134541619D01*
X182407380Y-134541619D02*
X183407380Y-133874952D01*
X261680952Y-115678571D02*
X261538095Y-115726190D01*
X261490476Y-115773809D01*
X261442857Y-115869047D01*
X261442857Y-116011904D01*
X261490476Y-116107142D01*
X261538095Y-116154761D01*
X261633333Y-116202380D01*
X262014285Y-116202380D01*
X262014285Y-115202380D01*
X261680952Y-115202380D01*
X261585714Y-115250000D01*
X261538095Y-115297619D01*
X261490476Y-115392857D01*
X261490476Y-115488095D01*
X261538095Y-115583333D01*
X261585714Y-115630952D01*
X261680952Y-115678571D01*
X262014285Y-115678571D01*
X261109523Y-115202380D02*
X260442857Y-115202380D01*
X261109523Y-116202380D01*
X260442857Y-116202380D01*
X259538095Y-116202380D02*
X260109523Y-116202380D01*
X259823809Y-116202380D02*
X259823809Y-115202380D01*
X259919047Y-115345238D01*
X260014285Y-115440476D01*
X260109523Y-115488095D01*
X212833333Y-116528571D02*
X213166666Y-116528571D01*
X213166666Y-117052380D02*
X213166666Y-116052380D01*
X212690476Y-116052380D01*
X211785714Y-117052380D02*
X212357142Y-117052380D01*
X212071428Y-117052380D02*
X212071428Y-116052380D01*
X212166666Y-116195238D01*
X212261904Y-116290476D01*
X212357142Y-116338095D01*
X212738095Y-111352380D02*
X212928571Y-111352380D01*
X213023809Y-111400000D01*
X213071428Y-111447619D01*
X213166666Y-111590476D01*
X213214285Y-111780952D01*
X213214285Y-112161904D01*
X213166666Y-112257142D01*
X213119047Y-112304761D01*
X213023809Y-112352380D01*
X212833333Y-112352380D01*
X212738095Y-112304761D01*
X212690476Y-112257142D01*
X212642857Y-112161904D01*
X212642857Y-111923809D01*
X212690476Y-111828571D01*
X212738095Y-111780952D01*
X212833333Y-111733333D01*
X213023809Y-111733333D01*
X213119047Y-111780952D01*
X213166666Y-111828571D01*
X213214285Y-111923809D01*
X212261904Y-112066666D02*
X211785714Y-112066666D01*
X212357142Y-112352380D02*
X212023809Y-111352380D01*
X211690476Y-112352380D01*
X182333333Y-147328571D02*
X182666666Y-147328571D01*
X182666666Y-147852380D02*
X182666666Y-146852380D01*
X182190476Y-146852380D01*
X181857142Y-146947619D02*
X181809523Y-146900000D01*
X181714285Y-146852380D01*
X181476190Y-146852380D01*
X181380952Y-146900000D01*
X181333333Y-146947619D01*
X181285714Y-147042857D01*
X181285714Y-147138095D01*
X181333333Y-147280952D01*
X181904761Y-147852380D01*
X181285714Y-147852380D01*
X182714285Y-151547619D02*
X182666666Y-151500000D01*
X182571428Y-151452380D01*
X182333333Y-151452380D01*
X182238095Y-151500000D01*
X182190476Y-151547619D01*
X182142857Y-151642857D01*
X182142857Y-151738095D01*
X182190476Y-151880952D01*
X182761904Y-152452380D01*
X182142857Y-152452380D01*
X181761904Y-152166666D02*
X181285714Y-152166666D01*
X181857142Y-152452380D02*
X181523809Y-151452380D01*
X181190476Y-152452380D01*
X182333333Y-93728571D02*
X182666666Y-93728571D01*
X182666666Y-94252380D02*
X182666666Y-93252380D01*
X182190476Y-93252380D01*
X181904761Y-93252380D02*
X181285714Y-93252380D01*
X181619047Y-93633333D01*
X181476190Y-93633333D01*
X181380952Y-93680952D01*
X181333333Y-93728571D01*
X181285714Y-93823809D01*
X181285714Y-94061904D01*
X181333333Y-94157142D01*
X181380952Y-94204761D01*
X181476190Y-94252380D01*
X181761904Y-94252380D01*
X181857142Y-94204761D01*
X181904761Y-94157142D01*
X182714285Y-97747619D02*
X182666666Y-97700000D01*
X182571428Y-97652380D01*
X182333333Y-97652380D01*
X182238095Y-97700000D01*
X182190476Y-97747619D01*
X182142857Y-97842857D01*
X182142857Y-97938095D01*
X182190476Y-98080952D01*
X182761904Y-98652380D01*
X182142857Y-98652380D01*
X181761904Y-98366666D02*
X181285714Y-98366666D01*
X181857142Y-98652380D02*
X181523809Y-97652380D01*
X181190476Y-98652380D01*
X199088571Y-134356666D02*
X199088571Y-134023333D01*
X199612380Y-134023333D02*
X198612380Y-134023333D01*
X198612380Y-134499523D01*
X198945714Y-135309047D02*
X199612380Y-135309047D01*
X198564761Y-135070952D02*
X199279047Y-134832857D01*
X199279047Y-135451904D01*
X207122380Y-133928095D02*
X207122380Y-134547142D01*
X207503333Y-134213809D01*
X207503333Y-134356666D01*
X207550952Y-134451904D01*
X207598571Y-134499523D01*
X207693809Y-134547142D01*
X207931904Y-134547142D01*
X208027142Y-134499523D01*
X208074761Y-134451904D01*
X208122380Y-134356666D01*
X208122380Y-134070952D01*
X208074761Y-133975714D01*
X208027142Y-133928095D01*
X207836666Y-134928095D02*
X207836666Y-135404285D01*
X208122380Y-134832857D02*
X207122380Y-135166190D01*
X208122380Y-135499523D01*
X172833333Y-145528571D02*
X173166666Y-145528571D01*
X173166666Y-146052380D02*
X173166666Y-145052380D01*
X172690476Y-145052380D01*
X171833333Y-145052380D02*
X172309523Y-145052380D01*
X172357142Y-145528571D01*
X172309523Y-145480952D01*
X172214285Y-145433333D01*
X171976190Y-145433333D01*
X171880952Y-145480952D01*
X171833333Y-145528571D01*
X171785714Y-145623809D01*
X171785714Y-145861904D01*
X171833333Y-145957142D01*
X171880952Y-146004761D01*
X171976190Y-146052380D01*
X172214285Y-146052380D01*
X172309523Y-146004761D01*
X172357142Y-145957142D01*
X172642857Y-154052380D02*
X173214285Y-154052380D01*
X172928571Y-154052380D02*
X172928571Y-153052380D01*
X173023809Y-153195238D01*
X173119047Y-153290476D01*
X173214285Y-153338095D01*
X172261904Y-153766666D02*
X171785714Y-153766666D01*
X172357142Y-154052380D02*
X172023809Y-153052380D01*
X171690476Y-154052380D01*
X172933333Y-91798571D02*
X173266666Y-91798571D01*
X173266666Y-92322380D02*
X173266666Y-91322380D01*
X172790476Y-91322380D01*
X171980952Y-91322380D02*
X172171428Y-91322380D01*
X172266666Y-91370000D01*
X172314285Y-91417619D01*
X172409523Y-91560476D01*
X172457142Y-91750952D01*
X172457142Y-92131904D01*
X172409523Y-92227142D01*
X172361904Y-92274761D01*
X172266666Y-92322380D01*
X172076190Y-92322380D01*
X171980952Y-92274761D01*
X171933333Y-92227142D01*
X171885714Y-92131904D01*
X171885714Y-91893809D01*
X171933333Y-91798571D01*
X171980952Y-91750952D01*
X172076190Y-91703333D01*
X172266666Y-91703333D01*
X172361904Y-91750952D01*
X172409523Y-91798571D01*
X172457142Y-91893809D01*
X172742857Y-100452380D02*
X173314285Y-100452380D01*
X173028571Y-100452380D02*
X173028571Y-99452380D01*
X173123809Y-99595238D01*
X173219047Y-99690476D01*
X173314285Y-99738095D01*
X172361904Y-100166666D02*
X171885714Y-100166666D01*
X172457142Y-100452380D02*
X172123809Y-99452380D01*
X171790476Y-100452380D01*
X183341904Y-106842380D02*
X183341904Y-107651904D01*
X183294285Y-107747142D01*
X183246666Y-107794761D01*
X183151428Y-107842380D01*
X182960952Y-107842380D01*
X182865714Y-107794761D01*
X182818095Y-107747142D01*
X182770476Y-107651904D01*
X182770476Y-106842380D01*
X181818095Y-106842380D02*
X182294285Y-106842380D01*
X182341904Y-107318571D01*
X182294285Y-107270952D01*
X182199047Y-107223333D01*
X181960952Y-107223333D01*
X181865714Y-107270952D01*
X181818095Y-107318571D01*
X181770476Y-107413809D01*
X181770476Y-107651904D01*
X181818095Y-107747142D01*
X181865714Y-107794761D01*
X181960952Y-107842380D01*
X182199047Y-107842380D01*
X182294285Y-107794761D01*
X182341904Y-107747142D01*
X187449142Y-114802142D02*
X187496761Y-114849761D01*
X187639619Y-114897380D01*
X187734857Y-114897380D01*
X187877714Y-114849761D01*
X187972952Y-114754523D01*
X188020571Y-114659285D01*
X188068190Y-114468809D01*
X188068190Y-114325952D01*
X188020571Y-114135476D01*
X187972952Y-114040238D01*
X187877714Y-113945000D01*
X187734857Y-113897380D01*
X187639619Y-113897380D01*
X187496761Y-113945000D01*
X187449142Y-113992619D01*
X187020571Y-113897380D02*
X187020571Y-114706904D01*
X186972952Y-114802142D01*
X186925333Y-114849761D01*
X186830095Y-114897380D01*
X186639619Y-114897380D01*
X186544380Y-114849761D01*
X186496761Y-114802142D01*
X186449142Y-114706904D01*
X186449142Y-113897380D01*
X185401523Y-114897380D02*
X185734857Y-114421190D01*
X185972952Y-114897380D02*
X185972952Y-113897380D01*
X185592000Y-113897380D01*
X185496761Y-113945000D01*
X185449142Y-113992619D01*
X185401523Y-114087857D01*
X185401523Y-114230714D01*
X185449142Y-114325952D01*
X185496761Y-114373571D01*
X185592000Y-114421190D01*
X185972952Y-114421190D01*
X184401523Y-114897380D02*
X184734857Y-114421190D01*
X184972952Y-114897380D02*
X184972952Y-113897380D01*
X184592000Y-113897380D01*
X184496761Y-113945000D01*
X184449142Y-113992619D01*
X184401523Y-114087857D01*
X184401523Y-114230714D01*
X184449142Y-114325952D01*
X184496761Y-114373571D01*
X184592000Y-114421190D01*
X184972952Y-114421190D01*
X183972952Y-114373571D02*
X183639619Y-114373571D01*
X183496761Y-114897380D02*
X183972952Y-114897380D01*
X183972952Y-113897380D01*
X183496761Y-113897380D01*
X183068190Y-114897380D02*
X183068190Y-113897380D01*
X182496761Y-114897380D01*
X182496761Y-113897380D01*
X182163428Y-113897380D02*
X181592000Y-113897380D01*
X181877714Y-114897380D02*
X181877714Y-113897380D01*
X181496761Y-114992619D02*
X180734857Y-114992619D01*
X180496761Y-114897380D02*
X180496761Y-113897380D01*
X180115809Y-113897380D01*
X180020571Y-113945000D01*
X179972952Y-113992619D01*
X179925333Y-114087857D01*
X179925333Y-114230714D01*
X179972952Y-114325952D01*
X180020571Y-114373571D01*
X180115809Y-114421190D01*
X180496761Y-114421190D01*
X178925333Y-114897380D02*
X179258666Y-114421190D01*
X179496761Y-114897380D02*
X179496761Y-113897380D01*
X179115809Y-113897380D01*
X179020571Y-113945000D01*
X178972952Y-113992619D01*
X178925333Y-114087857D01*
X178925333Y-114230714D01*
X178972952Y-114325952D01*
X179020571Y-114373571D01*
X179115809Y-114421190D01*
X179496761Y-114421190D01*
X178306285Y-113897380D02*
X178115809Y-113897380D01*
X178020571Y-113945000D01*
X177925333Y-114040238D01*
X177877714Y-114230714D01*
X177877714Y-114564047D01*
X177925333Y-114754523D01*
X178020571Y-114849761D01*
X178115809Y-114897380D01*
X178306285Y-114897380D01*
X178401523Y-114849761D01*
X178496761Y-114754523D01*
X178544380Y-114564047D01*
X178544380Y-114230714D01*
X178496761Y-114040238D01*
X178401523Y-113945000D01*
X178306285Y-113897380D01*
X177592000Y-113897380D02*
X177020571Y-113897380D01*
X177306285Y-114897380D02*
X177306285Y-113897380D01*
%LPC*%
D12*
X238845618Y-140722266D03*
X238845618Y-131722266D03*
D13*
X237145618Y-139222266D03*
X237145618Y-137222266D03*
X237145618Y-135222266D03*
X237145618Y-133222266D03*
D14*
X189000000Y-153300000D03*
X189000000Y-91300000D03*
X314000000Y-96300000D03*
X314000000Y-147300000D03*
D15*
X184640000Y-136330000D03*
X183940000Y-136330000D03*
X179800000Y-106650000D03*
X179100000Y-106650000D03*
D16*
X222730000Y-134060000D03*
X222730000Y-135560000D03*
D17*
X222730000Y-137060000D03*
D18*
X207000000Y-103300000D03*
X312000000Y-153300000D03*
D19*
X288250832Y-117850000D03*
X310250832Y-117850000D03*
D20*
X314050000Y-107250000D03*
X284050000Y-107250000D03*
X314050000Y-137250000D03*
X284050000Y-137250000D03*
D12*
X250600000Y-137100000D03*
X250600000Y-128100000D03*
D13*
X248900000Y-135600000D03*
X248900000Y-133600000D03*
X248900000Y-131600000D03*
X248900000Y-129600000D03*
D21*
X184550000Y-126700000D03*
X185820000Y-126700000D03*
X187090000Y-126700000D03*
X188360000Y-126700000D03*
X188360000Y-132288000D03*
X187090000Y-132288000D03*
X185820000Y-132288000D03*
X184550000Y-132288000D03*
D13*
X248900000Y-124100000D03*
X248900000Y-122100000D03*
D12*
X250600000Y-125600000D03*
X250600000Y-112600000D03*
D13*
X248900000Y-120100000D03*
X248900000Y-118100000D03*
X248900000Y-116100000D03*
X248900000Y-114100000D03*
X272300000Y-153800000D03*
X268300000Y-153800000D03*
X270300000Y-153800000D03*
X264300000Y-153800000D03*
X266300000Y-153800000D03*
X262300000Y-153800000D03*
D12*
X273800000Y-152100000D03*
X252800000Y-152100000D03*
D13*
X260300000Y-153800000D03*
X258300000Y-153800000D03*
X256300000Y-153800000D03*
X254300000Y-153800000D03*
X248900000Y-155100000D03*
X248900000Y-151100000D03*
X248900000Y-153100000D03*
X248900000Y-149100000D03*
D12*
X250600000Y-156600000D03*
X250600000Y-139600000D03*
D13*
X248900000Y-147100000D03*
X248900000Y-145100000D03*
X248900000Y-143100000D03*
X248900000Y-141100000D03*
D22*
X223695618Y-143772266D03*
X225195618Y-143772266D03*
D23*
X226695618Y-143772266D03*
D12*
X244900000Y-93800000D03*
X251900000Y-93800000D03*
D13*
X246400000Y-92100000D03*
X248400000Y-92100000D03*
X250400000Y-92100000D03*
D12*
X196100000Y-114700000D03*
X196100000Y-107700000D03*
D13*
X194400000Y-113200000D03*
X194400000Y-111200000D03*
X194400000Y-109200000D03*
X225145618Y-111222266D03*
X225145618Y-109222266D03*
D12*
X226845618Y-112722266D03*
X226845618Y-99722266D03*
D13*
X225145618Y-107222266D03*
X225145618Y-105222266D03*
X225145618Y-103222266D03*
X225145618Y-101222266D03*
X237145618Y-111222266D03*
X237145618Y-109222266D03*
D12*
X238845618Y-112722266D03*
X238845618Y-99722266D03*
D13*
X237145618Y-107222266D03*
X237145618Y-105222266D03*
X237145618Y-103222266D03*
X237145618Y-101222266D03*
X237145618Y-127222266D03*
X237145618Y-125222266D03*
D12*
X238845618Y-128722266D03*
X238845618Y-115722266D03*
D13*
X237145618Y-123222266D03*
X237145618Y-121222266D03*
X237145618Y-119222266D03*
X237145618Y-117222266D03*
X225145618Y-127222266D03*
X225145618Y-125222266D03*
D12*
X226845618Y-128722266D03*
X226845618Y-115722266D03*
D13*
X225145618Y-123222266D03*
X225145618Y-121222266D03*
X225145618Y-119222266D03*
X225145618Y-117222266D03*
D12*
X226622266Y-149854382D03*
X217622266Y-149854382D03*
D13*
X225122266Y-151554382D03*
X223122266Y-151554382D03*
X221122266Y-151554382D03*
X219122266Y-151554382D03*
D12*
X231500000Y-96600000D03*
X240500000Y-96600000D03*
D13*
X233000000Y-94900000D03*
X235000000Y-94900000D03*
X237000000Y-94900000D03*
X239000000Y-94900000D03*
D12*
X194277734Y-96545618D03*
X203277734Y-96545618D03*
D13*
X195777734Y-94845618D03*
X197777734Y-94845618D03*
X199777734Y-94845618D03*
X201777734Y-94845618D03*
D12*
X202622266Y-149854382D03*
X193622266Y-149854382D03*
D13*
X201122266Y-151554382D03*
X199122266Y-151554382D03*
X197122266Y-151554382D03*
X195122266Y-151554382D03*
D12*
X218277734Y-96545618D03*
X227277734Y-96545618D03*
D13*
X219777734Y-94845618D03*
X221777734Y-94845618D03*
X223777734Y-94845618D03*
X225777734Y-94845618D03*
D12*
X240300000Y-152000000D03*
X231300000Y-152000000D03*
D13*
X238800000Y-153700000D03*
X236800000Y-153700000D03*
X234800000Y-153700000D03*
X232800000Y-153700000D03*
D12*
X206277734Y-96545618D03*
X215277734Y-96545618D03*
D13*
X207777734Y-94845618D03*
X209777734Y-94845618D03*
X211777734Y-94845618D03*
X213777734Y-94845618D03*
D12*
X214622266Y-149854382D03*
X205622266Y-149854382D03*
D13*
X213122266Y-151554382D03*
X211122266Y-151554382D03*
X209122266Y-151554382D03*
X207122266Y-151554382D03*
D24*
X255750000Y-119750000D03*
X265750000Y-119750000D03*
D25*
X273790000Y-102000000D03*
D26*
X271250000Y-102000000D03*
D27*
X214500000Y-114300000D03*
X210500000Y-114300000D03*
X180000000Y-149600000D03*
X184000000Y-149600000D03*
X184000000Y-96000000D03*
X180000000Y-96000000D03*
D28*
X203290000Y-138390000D03*
X203290000Y-130990000D03*
D29*
X176200000Y-149600000D03*
X168800000Y-149600000D03*
X168900000Y-96000000D03*
X176300000Y-96000000D03*
D30*
X235800000Y-144850000D03*
D31*
X233000000Y-147000000D03*
X238600000Y-147000000D03*
D26*
X272460000Y-107640000D03*
X275000000Y-107640000D03*
X272460000Y-110180000D03*
X275000000Y-110180000D03*
X272460000Y-112720000D03*
X275000000Y-112720000D03*
X272460000Y-115260000D03*
X275000000Y-115260000D03*
X272460000Y-117800000D03*
X275000000Y-117800000D03*
X272460000Y-120340000D03*
X275000000Y-120340000D03*
X272460000Y-122880000D03*
X275000000Y-122880000D03*
X272460000Y-125420000D03*
X275000000Y-125420000D03*
X272460000Y-127960000D03*
X275000000Y-127960000D03*
X272460000Y-130500000D03*
D25*
X275000000Y-130500000D03*
D26*
X271710000Y-135500000D03*
D25*
X274250000Y-135500000D03*
D26*
X261740000Y-147600000D03*
X259200000Y-147600000D03*
D25*
X256660000Y-147600000D03*
D32*
G36*
X195039343Y-119784951D02*
X195340755Y-119829662D01*
X195636334Y-119903700D01*
X195923232Y-120006354D01*
X196198687Y-120136634D01*
X196460046Y-120293287D01*
X196704791Y-120474803D01*
X196930567Y-120679433D01*
X197135197Y-120905209D01*
X197316713Y-121149954D01*
X197473366Y-121411313D01*
X197603646Y-121686768D01*
X197706300Y-121973666D01*
X197780338Y-122269245D01*
X197825049Y-122570657D01*
X197840000Y-122875000D01*
X197840000Y-123565000D01*
X197825049Y-123869343D01*
X197780338Y-124170755D01*
X197706300Y-124466334D01*
X197603646Y-124753232D01*
X197473366Y-125028687D01*
X197316713Y-125290046D01*
X197135197Y-125534791D01*
X196930567Y-125760567D01*
X196704791Y-125965197D01*
X196460046Y-126146713D01*
X196198687Y-126303366D01*
X195923232Y-126433646D01*
X195636334Y-126536300D01*
X195340755Y-126610338D01*
X195039343Y-126655049D01*
X194735000Y-126670000D01*
X193045000Y-126670000D01*
X192740657Y-126655049D01*
X192439245Y-126610338D01*
X192143666Y-126536300D01*
X191856768Y-126433646D01*
X191581313Y-126303366D01*
X191319954Y-126146713D01*
X191075209Y-125965197D01*
X190849433Y-125760567D01*
X190644803Y-125534791D01*
X190463287Y-125290046D01*
X190306634Y-125028687D01*
X190176354Y-124753232D01*
X190073700Y-124466334D01*
X189999662Y-124170755D01*
X189954951Y-123869343D01*
X189940000Y-123565000D01*
X189940000Y-122875000D01*
X189954951Y-122570657D01*
X189999662Y-122269245D01*
X190073700Y-121973666D01*
X190176354Y-121686768D01*
X190306634Y-121411313D01*
X190463287Y-121149954D01*
X190644803Y-120905209D01*
X190849433Y-120679433D01*
X191075209Y-120474803D01*
X191319954Y-120293287D01*
X191581313Y-120136634D01*
X191856768Y-120006354D01*
X192143666Y-119903700D01*
X192439245Y-119829662D01*
X192740657Y-119784951D01*
X193045000Y-119770000D01*
X194735000Y-119770000D01*
X195039343Y-119784951D01*
X195039343Y-119784951D01*
G37*
D33*
X193890000Y-123220000D03*
D32*
G36*
X196284080Y-127278306D02*
X196451531Y-127303145D01*
X196615741Y-127344278D01*
X196775129Y-127401308D01*
X196928159Y-127473686D01*
X197073359Y-127560715D01*
X197209328Y-127661557D01*
X197334759Y-127775241D01*
X197448443Y-127900672D01*
X197549285Y-128036641D01*
X197636314Y-128181841D01*
X197708692Y-128334871D01*
X197765722Y-128494259D01*
X197806855Y-128658469D01*
X197831694Y-128825920D01*
X197840000Y-128995000D01*
X197840000Y-132445000D01*
X197831694Y-132614080D01*
X197806855Y-132781531D01*
X197765722Y-132945741D01*
X197708692Y-133105129D01*
X197636314Y-133258159D01*
X197549285Y-133403359D01*
X197448443Y-133539328D01*
X197334759Y-133664759D01*
X197209328Y-133778443D01*
X197073359Y-133879285D01*
X196928159Y-133966314D01*
X196775129Y-134038692D01*
X196615741Y-134095722D01*
X196451531Y-134136855D01*
X196284080Y-134161694D01*
X196115000Y-134170000D01*
X191665000Y-134170000D01*
X191495920Y-134161694D01*
X191328469Y-134136855D01*
X191164259Y-134095722D01*
X191004871Y-134038692D01*
X190851841Y-133966314D01*
X190706641Y-133879285D01*
X190570672Y-133778443D01*
X190445241Y-133664759D01*
X190331557Y-133539328D01*
X190230715Y-133403359D01*
X190143686Y-133258159D01*
X190071308Y-133105129D01*
X190014278Y-132945741D01*
X189973145Y-132781531D01*
X189948306Y-132614080D01*
X189940000Y-132445000D01*
X189940000Y-128995000D01*
X189948306Y-128825920D01*
X189973145Y-128658469D01*
X190014278Y-128494259D01*
X190071308Y-128334871D01*
X190143686Y-128181841D01*
X190230715Y-128036641D01*
X190331557Y-127900672D01*
X190445241Y-127775241D01*
X190570672Y-127661557D01*
X190706641Y-127560715D01*
X190851841Y-127473686D01*
X191004871Y-127401308D01*
X191164259Y-127344278D01*
X191328469Y-127303145D01*
X191495920Y-127278306D01*
X191665000Y-127270000D01*
X196115000Y-127270000D01*
X196284080Y-127278306D01*
X196284080Y-127278306D01*
G37*
D33*
X193890000Y-130720000D03*
D32*
G36*
X169699343Y-113414951D02*
X170000755Y-113459662D01*
X170296334Y-113533700D01*
X170583232Y-113636354D01*
X170858687Y-113766634D01*
X171120046Y-113923287D01*
X171364791Y-114104803D01*
X171590567Y-114309433D01*
X171795197Y-114535209D01*
X171976713Y-114779954D01*
X172133366Y-115041313D01*
X172263646Y-115316768D01*
X172366300Y-115603666D01*
X172440338Y-115899245D01*
X172485049Y-116200657D01*
X172500000Y-116505000D01*
X172500000Y-117195000D01*
X172485049Y-117499343D01*
X172440338Y-117800755D01*
X172366300Y-118096334D01*
X172263646Y-118383232D01*
X172133366Y-118658687D01*
X171976713Y-118920046D01*
X171795197Y-119164791D01*
X171590567Y-119390567D01*
X171364791Y-119595197D01*
X171120046Y-119776713D01*
X170858687Y-119933366D01*
X170583232Y-120063646D01*
X170296334Y-120166300D01*
X170000755Y-120240338D01*
X169699343Y-120285049D01*
X169395000Y-120300000D01*
X167705000Y-120300000D01*
X167400657Y-120285049D01*
X167099245Y-120240338D01*
X166803666Y-120166300D01*
X166516768Y-120063646D01*
X166241313Y-119933366D01*
X165979954Y-119776713D01*
X165735209Y-119595197D01*
X165509433Y-119390567D01*
X165304803Y-119164791D01*
X165123287Y-118920046D01*
X164966634Y-118658687D01*
X164836354Y-118383232D01*
X164733700Y-118096334D01*
X164659662Y-117800755D01*
X164614951Y-117499343D01*
X164600000Y-117195000D01*
X164600000Y-116505000D01*
X164614951Y-116200657D01*
X164659662Y-115899245D01*
X164733700Y-115603666D01*
X164836354Y-115316768D01*
X164966634Y-115041313D01*
X165123287Y-114779954D01*
X165304803Y-114535209D01*
X165509433Y-114309433D01*
X165735209Y-114104803D01*
X165979954Y-113923287D01*
X166241313Y-113766634D01*
X166516768Y-113636354D01*
X166803666Y-113533700D01*
X167099245Y-113459662D01*
X167400657Y-113414951D01*
X167705000Y-113400000D01*
X169395000Y-113400000D01*
X169699343Y-113414951D01*
X169699343Y-113414951D01*
G37*
D33*
X168550000Y-116850000D03*
D32*
G36*
X170944080Y-105908306D02*
X171111531Y-105933145D01*
X171275741Y-105974278D01*
X171435129Y-106031308D01*
X171588159Y-106103686D01*
X171733359Y-106190715D01*
X171869328Y-106291557D01*
X171994759Y-106405241D01*
X172108443Y-106530672D01*
X172209285Y-106666641D01*
X172296314Y-106811841D01*
X172368692Y-106964871D01*
X172425722Y-107124259D01*
X172466855Y-107288469D01*
X172491694Y-107455920D01*
X172500000Y-107625000D01*
X172500000Y-111075000D01*
X172491694Y-111244080D01*
X172466855Y-111411531D01*
X172425722Y-111575741D01*
X172368692Y-111735129D01*
X172296314Y-111888159D01*
X172209285Y-112033359D01*
X172108443Y-112169328D01*
X171994759Y-112294759D01*
X171869328Y-112408443D01*
X171733359Y-112509285D01*
X171588159Y-112596314D01*
X171435129Y-112668692D01*
X171275741Y-112725722D01*
X171111531Y-112766855D01*
X170944080Y-112791694D01*
X170775000Y-112800000D01*
X166325000Y-112800000D01*
X166155920Y-112791694D01*
X165988469Y-112766855D01*
X165824259Y-112725722D01*
X165664871Y-112668692D01*
X165511841Y-112596314D01*
X165366641Y-112509285D01*
X165230672Y-112408443D01*
X165105241Y-112294759D01*
X164991557Y-112169328D01*
X164890715Y-112033359D01*
X164803686Y-111888159D01*
X164731308Y-111735129D01*
X164674278Y-111575741D01*
X164633145Y-111411531D01*
X164608306Y-111244080D01*
X164600000Y-111075000D01*
X164600000Y-107625000D01*
X164608306Y-107455920D01*
X164633145Y-107288469D01*
X164674278Y-107124259D01*
X164731308Y-106964871D01*
X164803686Y-106811841D01*
X164890715Y-106666641D01*
X164991557Y-106530672D01*
X165105241Y-106405241D01*
X165230672Y-106291557D01*
X165366641Y-106190715D01*
X165511841Y-106103686D01*
X165664871Y-106031308D01*
X165824259Y-105974278D01*
X165988469Y-105933145D01*
X166155920Y-105908306D01*
X166325000Y-105900000D01*
X170775000Y-105900000D01*
X170944080Y-105908306D01*
X170944080Y-105908306D01*
G37*
D33*
X168550000Y-109350000D03*
D32*
G36*
X170944080Y-125658306D02*
X171111531Y-125683145D01*
X171275741Y-125724278D01*
X171435129Y-125781308D01*
X171588159Y-125853686D01*
X171733359Y-125940715D01*
X171869328Y-126041557D01*
X171994759Y-126155241D01*
X172108443Y-126280672D01*
X172209285Y-126416641D01*
X172296314Y-126561841D01*
X172368692Y-126714871D01*
X172425722Y-126874259D01*
X172466855Y-127038469D01*
X172491694Y-127205920D01*
X172500000Y-127375000D01*
X172500000Y-130825000D01*
X172491694Y-130994080D01*
X172466855Y-131161531D01*
X172425722Y-131325741D01*
X172368692Y-131485129D01*
X172296314Y-131638159D01*
X172209285Y-131783359D01*
X172108443Y-131919328D01*
X171994759Y-132044759D01*
X171869328Y-132158443D01*
X171733359Y-132259285D01*
X171588159Y-132346314D01*
X171435129Y-132418692D01*
X171275741Y-132475722D01*
X171111531Y-132516855D01*
X170944080Y-132541694D01*
X170775000Y-132550000D01*
X166325000Y-132550000D01*
X166155920Y-132541694D01*
X165988469Y-132516855D01*
X165824259Y-132475722D01*
X165664871Y-132418692D01*
X165511841Y-132346314D01*
X165366641Y-132259285D01*
X165230672Y-132158443D01*
X165105241Y-132044759D01*
X164991557Y-131919328D01*
X164890715Y-131783359D01*
X164803686Y-131638159D01*
X164731308Y-131485129D01*
X164674278Y-131325741D01*
X164633145Y-131161531D01*
X164608306Y-130994080D01*
X164600000Y-130825000D01*
X164600000Y-127375000D01*
X164608306Y-127205920D01*
X164633145Y-127038469D01*
X164674278Y-126874259D01*
X164731308Y-126714871D01*
X164803686Y-126561841D01*
X164890715Y-126416641D01*
X164991557Y-126280672D01*
X165105241Y-126155241D01*
X165230672Y-126041557D01*
X165366641Y-125940715D01*
X165511841Y-125853686D01*
X165664871Y-125781308D01*
X165824259Y-125724278D01*
X165988469Y-125683145D01*
X166155920Y-125658306D01*
X166325000Y-125650000D01*
X170775000Y-125650000D01*
X170944080Y-125658306D01*
X170944080Y-125658306D01*
G37*
D33*
X168550000Y-129100000D03*
D32*
G36*
X169699343Y-133164951D02*
X170000755Y-133209662D01*
X170296334Y-133283700D01*
X170583232Y-133386354D01*
X170858687Y-133516634D01*
X171120046Y-133673287D01*
X171364791Y-133854803D01*
X171590567Y-134059433D01*
X171795197Y-134285209D01*
X171976713Y-134529954D01*
X172133366Y-134791313D01*
X172263646Y-135066768D01*
X172366300Y-135353666D01*
X172440338Y-135649245D01*
X172485049Y-135950657D01*
X172500000Y-136255000D01*
X172500000Y-136945000D01*
X172485049Y-137249343D01*
X172440338Y-137550755D01*
X172366300Y-137846334D01*
X172263646Y-138133232D01*
X172133366Y-138408687D01*
X171976713Y-138670046D01*
X171795197Y-138914791D01*
X171590567Y-139140567D01*
X171364791Y-139345197D01*
X171120046Y-139526713D01*
X170858687Y-139683366D01*
X170583232Y-139813646D01*
X170296334Y-139916300D01*
X170000755Y-139990338D01*
X169699343Y-140035049D01*
X169395000Y-140050000D01*
X167705000Y-140050000D01*
X167400657Y-140035049D01*
X167099245Y-139990338D01*
X166803666Y-139916300D01*
X166516768Y-139813646D01*
X166241313Y-139683366D01*
X165979954Y-139526713D01*
X165735209Y-139345197D01*
X165509433Y-139140567D01*
X165304803Y-138914791D01*
X165123287Y-138670046D01*
X164966634Y-138408687D01*
X164836354Y-138133232D01*
X164733700Y-137846334D01*
X164659662Y-137550755D01*
X164614951Y-137249343D01*
X164600000Y-136945000D01*
X164600000Y-136255000D01*
X164614951Y-135950657D01*
X164659662Y-135649245D01*
X164733700Y-135353666D01*
X164836354Y-135066768D01*
X164966634Y-134791313D01*
X165123287Y-134529954D01*
X165304803Y-134285209D01*
X165509433Y-134059433D01*
X165735209Y-133854803D01*
X165979954Y-133673287D01*
X166241313Y-133516634D01*
X166516768Y-133386354D01*
X166803666Y-133283700D01*
X167099245Y-133209662D01*
X167400657Y-133164951D01*
X167705000Y-133150000D01*
X169395000Y-133150000D01*
X169699343Y-133164951D01*
X169699343Y-133164951D01*
G37*
D33*
X168550000Y-136600000D03*
D34*
X217900000Y-143100000D03*
X217900000Y-103500000D03*
D24*
X200800000Y-143100000D03*
X200800000Y-103500000D03*
D35*
X180050000Y-145350000D03*
X165050000Y-145350000D03*
X180050000Y-154350000D03*
X165050000Y-154350000D03*
X165050000Y-100600000D03*
X180050000Y-100600000D03*
X165050000Y-91600000D03*
X180050000Y-91600000D03*
D36*
X179798000Y-108790000D03*
X179798000Y-110060000D03*
X179798000Y-111330000D03*
X179798000Y-112600000D03*
X185386000Y-112600000D03*
X185386000Y-111330000D03*
X185386000Y-110060000D03*
X185386000Y-108790000D03*
D13*
X271200000Y-91400000D03*
X269200000Y-91400000D03*
X267200000Y-91400000D03*
X265200000Y-91400000D03*
D12*
X272700000Y-93100000D03*
X257700000Y-93100000D03*
D13*
X261200000Y-91400000D03*
X263200000Y-91400000D03*
X259200000Y-91400000D03*
D23*
X260000000Y-120450000D03*
D22*
X261500000Y-120450000D03*
D13*
X291680000Y-93150000D03*
X293680000Y-93150000D03*
X295680000Y-93150000D03*
X297680000Y-93150000D03*
D12*
X290180000Y-91450000D03*
X309180000Y-91450000D03*
D13*
X301680000Y-93150000D03*
X299680000Y-93150000D03*
X305680000Y-93150000D03*
X303680000Y-93150000D03*
X307680000Y-93150000D03*
D26*
X282820000Y-155250000D03*
X280280000Y-155250000D03*
D25*
X277740000Y-155250000D03*
D26*
X292870000Y-155210000D03*
X290330000Y-155210000D03*
D25*
X287790000Y-155210000D03*
D26*
X281950000Y-92900000D03*
D25*
X279410000Y-92900000D03*
D26*
X308120000Y-144320000D03*
X308120000Y-146860000D03*
D25*
X308120000Y-149400000D03*
M02*
