M48
;DRILL file {KiCad (2017-08-27 revision e3c64f1f0)-makepkg} date 09/07/17 11:53:04
;FORMAT={-:-/ absolute / inch / decimal}
FMAT,2
INCH,TZ
T1C0.024
T2C0.047
T3C0.071
T4C0.126
%
G90
G05
M72
T1
X11.3485Y-4.6398
X12.2146Y-4.6398
T2
X9.8661Y-4.4331
X9.8661Y-4.9449
X10.1457Y-3.6654
X10.7362Y-3.6654
X9.1063Y-5.9843
X9.4606Y-5.9843
X8.9309Y-3.9261
X8.9309Y-4.4379
X9.9528Y-5.9882
X10.7795Y-5.9882
X8.5678Y-5.8998
X8.9221Y-5.8998
X9.8661Y-5.0433
X9.8661Y-5.3976
X7.6229Y-5.8998
X7.9773Y-5.8998
X8.9309Y-4.556
X8.9309Y-5.0678
X9.4034Y-3.9261
X9.4034Y-4.4379
X11.4244Y-3.6004
X12.1724Y-3.6004
X9.1142Y-3.8031
X9.4685Y-3.8031
X8.5936Y-3.801
X8.9479Y-3.801
X9.8661Y-5.4961
X9.8661Y-6.1654
X9.4034Y-5.1859
X9.4034Y-5.5402
X9.4034Y-4.556
X9.4034Y-5.0678
X9.6417Y-3.6929
X9.9173Y-3.6929
X8.0954Y-5.8998
X8.4497Y-5.8998
X7.6487Y-3.801
X8.0031Y-3.801
X8.1212Y-3.801
X8.4755Y-3.801
X7.7205Y-4.2402
X7.7205Y-4.5157
T3
X11.1831Y-4.2224
X11.1831Y-5.4035
X12.3642Y-4.2224
X12.3642Y-5.4035
T4
X12.2835Y-6.0354
X8.1496Y-4.0669
T0
M30
