%TF.GenerationSoftware,KiCad,Pcbnew,(5.0.0-rc2-dev-406-g05dae9627)*%
%TF.CreationDate,2018-06-18T14:13:18+02:00*%
%TF.ProjectId,Autopilot,4175746F70696C6F742E6B696361645F,rev?*%
%TF.SameCoordinates,Original*%
%TF.FileFunction,Paste,Top*%
%TF.FilePolarity,Positive*%
%FSLAX46Y46*%
G04 Gerber Fmt 4.6, Leading zero omitted, Abs format (unit mm)*
G04 Created by KiCad (PCBNEW (5.0.0-rc2-dev-406-g05dae9627)) date 06/18/18 14:13:18*
%MOMM*%
%LPD*%
G01*
G04 APERTURE LIST*
%ADD10C,3.200200*%
%ADD11C,0.100000*%
%ADD12C,2.000000*%
%ADD13C,4.000000*%
%ADD14R,3.048000X1.320000*%
%ADD15R,0.816000X0.488000*%
%ADD16R,1.016000X0.488000*%
%ADD17R,1.120000X1.680000*%
%ADD18R,0.200000X0.920000*%
%ADD19R,1.040000X2.720000*%
%ADD20R,1.040000X0.560000*%
%ADD21R,1.200000X1.760000*%
%ADD22R,2.000000X3.200000*%
%ADD23R,0.600000X0.960000*%
%ADD24R,0.680720X0.680720*%
%ADD25R,0.959104X0.959104*%
%ADD26R,1.040000X1.040000*%
%ADD27R,1.280000X2.800000*%
%ADD28R,1.280000X2.080000*%
%ADD29R,2.080000X1.280000*%
%ADD30R,0.560000X1.040000*%
%ADD31R,0.360000X1.200000*%
%ADD32R,1.040000X1.240000*%
%ADD33R,0.720000X0.640000*%
%ADD34R,1.200000X1.600000*%
%ADD35R,3.040000X1.600000*%
%ADD36R,0.800000X0.440000*%
%ADD37R,1.440000X0.856000*%
G04 APERTURE END LIST*
D10*
%TO.C,REF\002A\002A*%
X214450000Y-137300000D03*
%TD*%
%TO.C,REF\002A\002A*%
X214450000Y-125300000D03*
%TD*%
D11*
%TO.C,U8*%
G36*
X194144603Y-114600963D02*
X194164018Y-114603843D01*
X194183057Y-114608612D01*
X194201537Y-114615224D01*
X194219279Y-114623616D01*
X194236114Y-114633706D01*
X194251879Y-114645398D01*
X194266421Y-114658579D01*
X194279602Y-114673121D01*
X194291294Y-114688886D01*
X194301384Y-114705721D01*
X194309776Y-114723463D01*
X194316388Y-114741943D01*
X194321157Y-114760982D01*
X194324037Y-114780397D01*
X194325000Y-114800000D01*
X194325000Y-116400000D01*
X194324037Y-116419603D01*
X194321157Y-116439018D01*
X194316388Y-116458057D01*
X194309776Y-116476537D01*
X194301384Y-116494279D01*
X194291294Y-116511114D01*
X194279602Y-116526879D01*
X194266421Y-116541421D01*
X194251879Y-116554602D01*
X194236114Y-116566294D01*
X194219279Y-116576384D01*
X194201537Y-116584776D01*
X194183057Y-116591388D01*
X194164018Y-116596157D01*
X194144603Y-116599037D01*
X194125000Y-116600000D01*
X190525000Y-116600000D01*
X190505397Y-116599037D01*
X190485982Y-116596157D01*
X190466943Y-116591388D01*
X190448463Y-116584776D01*
X190430721Y-116576384D01*
X190413886Y-116566294D01*
X190398121Y-116554602D01*
X190383579Y-116541421D01*
X190370398Y-116526879D01*
X190358706Y-116511114D01*
X190348616Y-116494279D01*
X190340224Y-116476537D01*
X190333612Y-116458057D01*
X190328843Y-116439018D01*
X190325963Y-116419603D01*
X190325000Y-116400000D01*
X190325000Y-114800000D01*
X190325963Y-114780397D01*
X190328843Y-114760982D01*
X190333612Y-114741943D01*
X190340224Y-114723463D01*
X190348616Y-114705721D01*
X190358706Y-114688886D01*
X190370398Y-114673121D01*
X190383579Y-114658579D01*
X190398121Y-114645398D01*
X190413886Y-114633706D01*
X190430721Y-114623616D01*
X190448463Y-114615224D01*
X190466943Y-114608612D01*
X190485982Y-114603843D01*
X190505397Y-114600963D01*
X190525000Y-114600000D01*
X194125000Y-114600000D01*
X194144603Y-114600963D01*
X194144603Y-114600963D01*
G37*
D12*
X192325000Y-115600000D03*
D11*
G36*
X194144603Y-124000963D02*
X194164018Y-124003843D01*
X194183057Y-124008612D01*
X194201537Y-124015224D01*
X194219279Y-124023616D01*
X194236114Y-124033706D01*
X194251879Y-124045398D01*
X194266421Y-124058579D01*
X194279602Y-124073121D01*
X194291294Y-124088886D01*
X194301384Y-124105721D01*
X194309776Y-124123463D01*
X194316388Y-124141943D01*
X194321157Y-124160982D01*
X194324037Y-124180397D01*
X194325000Y-124200000D01*
X194325000Y-125800000D01*
X194324037Y-125819603D01*
X194321157Y-125839018D01*
X194316388Y-125858057D01*
X194309776Y-125876537D01*
X194301384Y-125894279D01*
X194291294Y-125911114D01*
X194279602Y-125926879D01*
X194266421Y-125941421D01*
X194251879Y-125954602D01*
X194236114Y-125966294D01*
X194219279Y-125976384D01*
X194201537Y-125984776D01*
X194183057Y-125991388D01*
X194164018Y-125996157D01*
X194144603Y-125999037D01*
X194125000Y-126000000D01*
X190525000Y-126000000D01*
X190505397Y-125999037D01*
X190485982Y-125996157D01*
X190466943Y-125991388D01*
X190448463Y-125984776D01*
X190430721Y-125976384D01*
X190413886Y-125966294D01*
X190398121Y-125954602D01*
X190383579Y-125941421D01*
X190370398Y-125926879D01*
X190358706Y-125911114D01*
X190348616Y-125894279D01*
X190340224Y-125876537D01*
X190333612Y-125858057D01*
X190328843Y-125839018D01*
X190325963Y-125819603D01*
X190325000Y-125800000D01*
X190325000Y-124200000D01*
X190325963Y-124180397D01*
X190328843Y-124160982D01*
X190333612Y-124141943D01*
X190340224Y-124123463D01*
X190348616Y-124105721D01*
X190358706Y-124088886D01*
X190370398Y-124073121D01*
X190383579Y-124058579D01*
X190398121Y-124045398D01*
X190413886Y-124033706D01*
X190430721Y-124023616D01*
X190448463Y-124015224D01*
X190466943Y-124008612D01*
X190485982Y-124003843D01*
X190505397Y-124000963D01*
X190525000Y-124000000D01*
X194125000Y-124000000D01*
X194144603Y-124000963D01*
X194144603Y-124000963D01*
G37*
D12*
X192325000Y-125000000D03*
D11*
G36*
X190964207Y-118301926D02*
X191003036Y-118307686D01*
X191041114Y-118317224D01*
X191078073Y-118330448D01*
X191113559Y-118347231D01*
X191147228Y-118367412D01*
X191178757Y-118390796D01*
X191207843Y-118417157D01*
X191234204Y-118446243D01*
X191257588Y-118477772D01*
X191277769Y-118511441D01*
X191294552Y-118546927D01*
X191307776Y-118583886D01*
X191317314Y-118621964D01*
X191323074Y-118660793D01*
X191325000Y-118700000D01*
X191325000Y-121900000D01*
X191323074Y-121939207D01*
X191317314Y-121978036D01*
X191307776Y-122016114D01*
X191294552Y-122053073D01*
X191277769Y-122088559D01*
X191257588Y-122122228D01*
X191234204Y-122153757D01*
X191207843Y-122182843D01*
X191178757Y-122209204D01*
X191147228Y-122232588D01*
X191113559Y-122252769D01*
X191078073Y-122269552D01*
X191041114Y-122282776D01*
X191003036Y-122292314D01*
X190964207Y-122298074D01*
X190925000Y-122300000D01*
X187725000Y-122300000D01*
X187685793Y-122298074D01*
X187646964Y-122292314D01*
X187608886Y-122282776D01*
X187571927Y-122269552D01*
X187536441Y-122252769D01*
X187502772Y-122232588D01*
X187471243Y-122209204D01*
X187442157Y-122182843D01*
X187415796Y-122153757D01*
X187392412Y-122122228D01*
X187372231Y-122088559D01*
X187355448Y-122053073D01*
X187342224Y-122016114D01*
X187332686Y-121978036D01*
X187326926Y-121939207D01*
X187325000Y-121900000D01*
X187325000Y-118700000D01*
X187326926Y-118660793D01*
X187332686Y-118621964D01*
X187342224Y-118583886D01*
X187355448Y-118546927D01*
X187372231Y-118511441D01*
X187392412Y-118477772D01*
X187415796Y-118446243D01*
X187442157Y-118417157D01*
X187471243Y-118390796D01*
X187502772Y-118367412D01*
X187536441Y-118347231D01*
X187571927Y-118330448D01*
X187608886Y-118317224D01*
X187646964Y-118307686D01*
X187685793Y-118301926D01*
X187725000Y-118300000D01*
X190925000Y-118300000D01*
X190964207Y-118301926D01*
X190964207Y-118301926D01*
G37*
D13*
X189325000Y-120300000D03*
D11*
G36*
X196964207Y-118301926D02*
X197003036Y-118307686D01*
X197041114Y-118317224D01*
X197078073Y-118330448D01*
X197113559Y-118347231D01*
X197147228Y-118367412D01*
X197178757Y-118390796D01*
X197207843Y-118417157D01*
X197234204Y-118446243D01*
X197257588Y-118477772D01*
X197277769Y-118511441D01*
X197294552Y-118546927D01*
X197307776Y-118583886D01*
X197317314Y-118621964D01*
X197323074Y-118660793D01*
X197325000Y-118700000D01*
X197325000Y-121900000D01*
X197323074Y-121939207D01*
X197317314Y-121978036D01*
X197307776Y-122016114D01*
X197294552Y-122053073D01*
X197277769Y-122088559D01*
X197257588Y-122122228D01*
X197234204Y-122153757D01*
X197207843Y-122182843D01*
X197178757Y-122209204D01*
X197147228Y-122232588D01*
X197113559Y-122252769D01*
X197078073Y-122269552D01*
X197041114Y-122282776D01*
X197003036Y-122292314D01*
X196964207Y-122298074D01*
X196925000Y-122300000D01*
X193725000Y-122300000D01*
X193685793Y-122298074D01*
X193646964Y-122292314D01*
X193608886Y-122282776D01*
X193571927Y-122269552D01*
X193536441Y-122252769D01*
X193502772Y-122232588D01*
X193471243Y-122209204D01*
X193442157Y-122182843D01*
X193415796Y-122153757D01*
X193392412Y-122122228D01*
X193372231Y-122088559D01*
X193355448Y-122053073D01*
X193342224Y-122016114D01*
X193332686Y-121978036D01*
X193326926Y-121939207D01*
X193325000Y-121900000D01*
X193325000Y-118700000D01*
X193326926Y-118660793D01*
X193332686Y-118621964D01*
X193342224Y-118583886D01*
X193355448Y-118546927D01*
X193372231Y-118511441D01*
X193392412Y-118477772D01*
X193415796Y-118446243D01*
X193442157Y-118417157D01*
X193471243Y-118390796D01*
X193502772Y-118367412D01*
X193536441Y-118347231D01*
X193571927Y-118330448D01*
X193608886Y-118317224D01*
X193646964Y-118307686D01*
X193685793Y-118301926D01*
X193725000Y-118300000D01*
X196925000Y-118300000D01*
X196964207Y-118301926D01*
X196964207Y-118301926D01*
G37*
D13*
X195325000Y-120300000D03*
%TD*%
D11*
%TO.C,U7*%
G36*
X194144603Y-130000963D02*
X194164018Y-130003843D01*
X194183057Y-130008612D01*
X194201537Y-130015224D01*
X194219279Y-130023616D01*
X194236114Y-130033706D01*
X194251879Y-130045398D01*
X194266421Y-130058579D01*
X194279602Y-130073121D01*
X194291294Y-130088886D01*
X194301384Y-130105721D01*
X194309776Y-130123463D01*
X194316388Y-130141943D01*
X194321157Y-130160982D01*
X194324037Y-130180397D01*
X194325000Y-130200000D01*
X194325000Y-131800000D01*
X194324037Y-131819603D01*
X194321157Y-131839018D01*
X194316388Y-131858057D01*
X194309776Y-131876537D01*
X194301384Y-131894279D01*
X194291294Y-131911114D01*
X194279602Y-131926879D01*
X194266421Y-131941421D01*
X194251879Y-131954602D01*
X194236114Y-131966294D01*
X194219279Y-131976384D01*
X194201537Y-131984776D01*
X194183057Y-131991388D01*
X194164018Y-131996157D01*
X194144603Y-131999037D01*
X194125000Y-132000000D01*
X190525000Y-132000000D01*
X190505397Y-131999037D01*
X190485982Y-131996157D01*
X190466943Y-131991388D01*
X190448463Y-131984776D01*
X190430721Y-131976384D01*
X190413886Y-131966294D01*
X190398121Y-131954602D01*
X190383579Y-131941421D01*
X190370398Y-131926879D01*
X190358706Y-131911114D01*
X190348616Y-131894279D01*
X190340224Y-131876537D01*
X190333612Y-131858057D01*
X190328843Y-131839018D01*
X190325963Y-131819603D01*
X190325000Y-131800000D01*
X190325000Y-130200000D01*
X190325963Y-130180397D01*
X190328843Y-130160982D01*
X190333612Y-130141943D01*
X190340224Y-130123463D01*
X190348616Y-130105721D01*
X190358706Y-130088886D01*
X190370398Y-130073121D01*
X190383579Y-130058579D01*
X190398121Y-130045398D01*
X190413886Y-130033706D01*
X190430721Y-130023616D01*
X190448463Y-130015224D01*
X190466943Y-130008612D01*
X190485982Y-130003843D01*
X190505397Y-130000963D01*
X190525000Y-130000000D01*
X194125000Y-130000000D01*
X194144603Y-130000963D01*
X194144603Y-130000963D01*
G37*
D12*
X192325000Y-131000000D03*
D11*
G36*
X194144603Y-139400963D02*
X194164018Y-139403843D01*
X194183057Y-139408612D01*
X194201537Y-139415224D01*
X194219279Y-139423616D01*
X194236114Y-139433706D01*
X194251879Y-139445398D01*
X194266421Y-139458579D01*
X194279602Y-139473121D01*
X194291294Y-139488886D01*
X194301384Y-139505721D01*
X194309776Y-139523463D01*
X194316388Y-139541943D01*
X194321157Y-139560982D01*
X194324037Y-139580397D01*
X194325000Y-139600000D01*
X194325000Y-141200000D01*
X194324037Y-141219603D01*
X194321157Y-141239018D01*
X194316388Y-141258057D01*
X194309776Y-141276537D01*
X194301384Y-141294279D01*
X194291294Y-141311114D01*
X194279602Y-141326879D01*
X194266421Y-141341421D01*
X194251879Y-141354602D01*
X194236114Y-141366294D01*
X194219279Y-141376384D01*
X194201537Y-141384776D01*
X194183057Y-141391388D01*
X194164018Y-141396157D01*
X194144603Y-141399037D01*
X194125000Y-141400000D01*
X190525000Y-141400000D01*
X190505397Y-141399037D01*
X190485982Y-141396157D01*
X190466943Y-141391388D01*
X190448463Y-141384776D01*
X190430721Y-141376384D01*
X190413886Y-141366294D01*
X190398121Y-141354602D01*
X190383579Y-141341421D01*
X190370398Y-141326879D01*
X190358706Y-141311114D01*
X190348616Y-141294279D01*
X190340224Y-141276537D01*
X190333612Y-141258057D01*
X190328843Y-141239018D01*
X190325963Y-141219603D01*
X190325000Y-141200000D01*
X190325000Y-139600000D01*
X190325963Y-139580397D01*
X190328843Y-139560982D01*
X190333612Y-139541943D01*
X190340224Y-139523463D01*
X190348616Y-139505721D01*
X190358706Y-139488886D01*
X190370398Y-139473121D01*
X190383579Y-139458579D01*
X190398121Y-139445398D01*
X190413886Y-139433706D01*
X190430721Y-139423616D01*
X190448463Y-139415224D01*
X190466943Y-139408612D01*
X190485982Y-139403843D01*
X190505397Y-139400963D01*
X190525000Y-139400000D01*
X194125000Y-139400000D01*
X194144603Y-139400963D01*
X194144603Y-139400963D01*
G37*
D12*
X192325000Y-140400000D03*
D11*
G36*
X190964207Y-133701926D02*
X191003036Y-133707686D01*
X191041114Y-133717224D01*
X191078073Y-133730448D01*
X191113559Y-133747231D01*
X191147228Y-133767412D01*
X191178757Y-133790796D01*
X191207843Y-133817157D01*
X191234204Y-133846243D01*
X191257588Y-133877772D01*
X191277769Y-133911441D01*
X191294552Y-133946927D01*
X191307776Y-133983886D01*
X191317314Y-134021964D01*
X191323074Y-134060793D01*
X191325000Y-134100000D01*
X191325000Y-137300000D01*
X191323074Y-137339207D01*
X191317314Y-137378036D01*
X191307776Y-137416114D01*
X191294552Y-137453073D01*
X191277769Y-137488559D01*
X191257588Y-137522228D01*
X191234204Y-137553757D01*
X191207843Y-137582843D01*
X191178757Y-137609204D01*
X191147228Y-137632588D01*
X191113559Y-137652769D01*
X191078073Y-137669552D01*
X191041114Y-137682776D01*
X191003036Y-137692314D01*
X190964207Y-137698074D01*
X190925000Y-137700000D01*
X187725000Y-137700000D01*
X187685793Y-137698074D01*
X187646964Y-137692314D01*
X187608886Y-137682776D01*
X187571927Y-137669552D01*
X187536441Y-137652769D01*
X187502772Y-137632588D01*
X187471243Y-137609204D01*
X187442157Y-137582843D01*
X187415796Y-137553757D01*
X187392412Y-137522228D01*
X187372231Y-137488559D01*
X187355448Y-137453073D01*
X187342224Y-137416114D01*
X187332686Y-137378036D01*
X187326926Y-137339207D01*
X187325000Y-137300000D01*
X187325000Y-134100000D01*
X187326926Y-134060793D01*
X187332686Y-134021964D01*
X187342224Y-133983886D01*
X187355448Y-133946927D01*
X187372231Y-133911441D01*
X187392412Y-133877772D01*
X187415796Y-133846243D01*
X187442157Y-133817157D01*
X187471243Y-133790796D01*
X187502772Y-133767412D01*
X187536441Y-133747231D01*
X187571927Y-133730448D01*
X187608886Y-133717224D01*
X187646964Y-133707686D01*
X187685793Y-133701926D01*
X187725000Y-133700000D01*
X190925000Y-133700000D01*
X190964207Y-133701926D01*
X190964207Y-133701926D01*
G37*
D13*
X189325000Y-135700000D03*
D11*
G36*
X196964207Y-133701926D02*
X197003036Y-133707686D01*
X197041114Y-133717224D01*
X197078073Y-133730448D01*
X197113559Y-133747231D01*
X197147228Y-133767412D01*
X197178757Y-133790796D01*
X197207843Y-133817157D01*
X197234204Y-133846243D01*
X197257588Y-133877772D01*
X197277769Y-133911441D01*
X197294552Y-133946927D01*
X197307776Y-133983886D01*
X197317314Y-134021964D01*
X197323074Y-134060793D01*
X197325000Y-134100000D01*
X197325000Y-137300000D01*
X197323074Y-137339207D01*
X197317314Y-137378036D01*
X197307776Y-137416114D01*
X197294552Y-137453073D01*
X197277769Y-137488559D01*
X197257588Y-137522228D01*
X197234204Y-137553757D01*
X197207843Y-137582843D01*
X197178757Y-137609204D01*
X197147228Y-137632588D01*
X197113559Y-137652769D01*
X197078073Y-137669552D01*
X197041114Y-137682776D01*
X197003036Y-137692314D01*
X196964207Y-137698074D01*
X196925000Y-137700000D01*
X193725000Y-137700000D01*
X193685793Y-137698074D01*
X193646964Y-137692314D01*
X193608886Y-137682776D01*
X193571927Y-137669552D01*
X193536441Y-137652769D01*
X193502772Y-137632588D01*
X193471243Y-137609204D01*
X193442157Y-137582843D01*
X193415796Y-137553757D01*
X193392412Y-137522228D01*
X193372231Y-137488559D01*
X193355448Y-137453073D01*
X193342224Y-137416114D01*
X193332686Y-137378036D01*
X193326926Y-137339207D01*
X193325000Y-137300000D01*
X193325000Y-134100000D01*
X193326926Y-134060793D01*
X193332686Y-134021964D01*
X193342224Y-133983886D01*
X193355448Y-133946927D01*
X193372231Y-133911441D01*
X193392412Y-133877772D01*
X193415796Y-133846243D01*
X193442157Y-133817157D01*
X193471243Y-133790796D01*
X193502772Y-133767412D01*
X193536441Y-133747231D01*
X193571927Y-133730448D01*
X193608886Y-133717224D01*
X193646964Y-133707686D01*
X193685793Y-133701926D01*
X193725000Y-133700000D01*
X196925000Y-133700000D01*
X196964207Y-133701926D01*
X196964207Y-133701926D01*
G37*
D13*
X195325000Y-135700000D03*
%TD*%
D14*
%TO.C,Q3*%
X234710000Y-92370000D03*
X234710000Y-94630000D03*
D15*
X232605000Y-95405000D03*
X232605000Y-94135000D03*
X232605000Y-92865000D03*
X232605000Y-91595000D03*
D16*
X238070000Y-91595000D03*
X238070000Y-92865000D03*
X238070000Y-94135000D03*
X238070000Y-95405000D03*
%TD*%
D17*
%TO.C,U1*%
X301250832Y-120799720D03*
X277250832Y-120800000D03*
D18*
X279501664Y-118225000D03*
X279501664Y-123374720D03*
X280001664Y-118225000D03*
X280501664Y-118225000D03*
X281001664Y-118225000D03*
X281501664Y-118225000D03*
X282001664Y-118225000D03*
X282501664Y-118225000D03*
X283001664Y-118225000D03*
X283501664Y-118225000D03*
X284001664Y-118225000D03*
X284501664Y-118225000D03*
X285001664Y-118225000D03*
X285501664Y-118225000D03*
X286001664Y-118225000D03*
X286501664Y-118225000D03*
X287001664Y-118225000D03*
X287501664Y-118225000D03*
X288001664Y-118225000D03*
X288501664Y-118225000D03*
X289001664Y-118225000D03*
X289501664Y-118225000D03*
X290001664Y-118225000D03*
X290501664Y-118225000D03*
X291001664Y-118225000D03*
X291501664Y-118225000D03*
X292001664Y-118225000D03*
X292501664Y-118225000D03*
X293001664Y-118225000D03*
X293501664Y-118225000D03*
X294001664Y-118225000D03*
X294501664Y-118225000D03*
X295001664Y-118225000D03*
X295501664Y-118225000D03*
X296001664Y-118225000D03*
X296501664Y-118225000D03*
X297001664Y-118225000D03*
X297501664Y-118225000D03*
X298001664Y-118225000D03*
X298501664Y-118225000D03*
X299001664Y-118225000D03*
X280001664Y-123374720D03*
X280501664Y-123374720D03*
X281001664Y-123374720D03*
X281501664Y-123374720D03*
X282001664Y-123374720D03*
X282501664Y-123374720D03*
X283001664Y-123374720D03*
X283501664Y-123374720D03*
X284001664Y-123374720D03*
X284501664Y-123374720D03*
X285001664Y-123374720D03*
X285501664Y-123374720D03*
X286001664Y-123374720D03*
X286501664Y-123374720D03*
X287001664Y-123374720D03*
X287501664Y-123374720D03*
X288001664Y-123374720D03*
X288501664Y-123374720D03*
X289001664Y-123374720D03*
X289501664Y-123374720D03*
X290001664Y-123374720D03*
X290501664Y-123374720D03*
X291001664Y-123374720D03*
X291501664Y-123374720D03*
X292001664Y-123374720D03*
X292501664Y-123374720D03*
X293001664Y-123374720D03*
X293501664Y-123374720D03*
X294001664Y-123374720D03*
X294501664Y-123374720D03*
X295001664Y-123374720D03*
X295501664Y-123374720D03*
X296001664Y-123374720D03*
X296501664Y-123374720D03*
X297001664Y-123374720D03*
X297501664Y-123374720D03*
X298001664Y-123374720D03*
X298501664Y-123374720D03*
X299001664Y-123374720D03*
%TD*%
D19*
%TO.C,BZ1*%
X294150000Y-153800000D03*
X285450000Y-153800000D03*
%TD*%
D20*
%TO.C,R22*%
X195475000Y-90550000D03*
X195475000Y-88650000D03*
%TD*%
D21*
%TO.C,D12*%
X205350000Y-98625000D03*
X209750000Y-98625000D03*
%TD*%
%TO.C,D10*%
X209750000Y-101925000D03*
X205350000Y-101925000D03*
%TD*%
%TO.C,D9*%
X212650000Y-98050000D03*
X217050000Y-98050000D03*
%TD*%
D22*
%TO.C,C9*%
X215400000Y-108050000D03*
X215400000Y-101950000D03*
%TD*%
D23*
%TO.C,C3*%
X258160000Y-146275000D03*
X258160000Y-148175000D03*
%TD*%
%TO.C,C4*%
X257790000Y-141085000D03*
X257790000Y-142985000D03*
%TD*%
D24*
%TO.C,D4*%
X205408276Y-145893605D03*
X208755996Y-145893605D03*
%TD*%
%TO.C,D3*%
X202448860Y-145900000D03*
X199101140Y-145900000D03*
%TD*%
D25*
%TO.C,LD5*%
X251766819Y-128690998D03*
X251766819Y-130789038D03*
%TD*%
D24*
%TO.C,D2*%
X266090000Y-140301140D03*
X266090000Y-143648860D03*
%TD*%
%TO.C,D1*%
X266070000Y-149038860D03*
X266070000Y-145691140D03*
%TD*%
D25*
%TO.C,LD4*%
X248766819Y-130739038D03*
X248766819Y-128640998D03*
%TD*%
%TO.C,LD3*%
X245766819Y-128790998D03*
X245766819Y-130889038D03*
%TD*%
%TO.C,LD2*%
X266000000Y-111749020D03*
X266000000Y-109650980D03*
%TD*%
D26*
%TO.C,D7*%
X248325000Y-144550000D03*
X248325000Y-141750000D03*
%TD*%
%TO.C,D6*%
X246225000Y-141750000D03*
X246225000Y-144550000D03*
%TD*%
D27*
%TO.C,C8*%
X225600000Y-149600000D03*
X225600000Y-144200000D03*
%TD*%
D28*
%TO.C,C7*%
X264800000Y-137100000D03*
X264800000Y-133500000D03*
%TD*%
D29*
%TO.C,C5*%
X318850000Y-122550000D03*
X315250000Y-122550000D03*
%TD*%
D30*
%TO.C,R11*%
X208732136Y-149293605D03*
X206832136Y-149293605D03*
%TD*%
%TO.C,R13*%
X203632136Y-149293605D03*
X205532136Y-149293605D03*
%TD*%
D10*
%TO.C,REF\002A\002A*%
X229800000Y-105300000D03*
%TD*%
%TO.C,REF\002A\002A*%
X294800000Y-145300000D03*
%TD*%
D30*
%TO.C,R3*%
X281275000Y-91700000D03*
X279375000Y-91700000D03*
%TD*%
%TO.C,R1*%
X279375000Y-97700000D03*
X281275000Y-97700000D03*
%TD*%
D20*
%TO.C,R7*%
X262190000Y-142925000D03*
X262190000Y-141025000D03*
%TD*%
D30*
%TO.C,R10*%
X202325000Y-149300000D03*
X200425000Y-149300000D03*
%TD*%
D31*
%TO.C,J24*%
X260650000Y-156850000D03*
X258050000Y-156850000D03*
X260000000Y-156850000D03*
X258700000Y-156850000D03*
X259350000Y-156850000D03*
%TD*%
D30*
%TO.C,R2*%
X281275000Y-93700000D03*
X279375000Y-93700000D03*
%TD*%
%TO.C,R4*%
X279375000Y-95700000D03*
X281275000Y-95700000D03*
%TD*%
D20*
%TO.C,R5*%
X266000000Y-105950000D03*
X266000000Y-107850000D03*
%TD*%
%TO.C,R6*%
X262420000Y-146275000D03*
X262420000Y-148175000D03*
%TD*%
D30*
%TO.C,R9*%
X282820000Y-157730000D03*
X280920000Y-157730000D03*
%TD*%
%TO.C,R12*%
X197225000Y-149300000D03*
X199125000Y-149300000D03*
%TD*%
D32*
%TO.C,SW1*%
X275800000Y-145825000D03*
X275800000Y-153775000D03*
X280300000Y-145825000D03*
X280300000Y-153775000D03*
%TD*%
%TO.C,SW2*%
X266050000Y-130525000D03*
X266050000Y-122575000D03*
X261550000Y-130525000D03*
X261550000Y-122575000D03*
%TD*%
D33*
%TO.C,Q1*%
X177590000Y-140000000D03*
X179590000Y-139050000D03*
X179590000Y-140950000D03*
%TD*%
D25*
%TO.C,LD1*%
X275820980Y-157730000D03*
X277919020Y-157730000D03*
%TD*%
D34*
%TO.C,U9*%
X254650000Y-137425000D03*
X259250000Y-137425000D03*
X256950000Y-137425000D03*
D35*
X256950000Y-131125000D03*
%TD*%
D24*
%TO.C,D16*%
X313723860Y-125800000D03*
X310376140Y-125800000D03*
%TD*%
%TO.C,D17*%
X310376140Y-119300000D03*
X313723860Y-119300000D03*
%TD*%
D25*
%TO.C,LD6*%
X313750980Y-128800000D03*
X315849020Y-128800000D03*
%TD*%
%TO.C,LD7*%
X316099020Y-116550000D03*
X314000980Y-116550000D03*
%TD*%
D30*
%TO.C,R23*%
X317350000Y-128800000D03*
X319250000Y-128800000D03*
%TD*%
%TO.C,R24*%
X319550000Y-116550000D03*
X317650000Y-116550000D03*
%TD*%
D36*
%TO.C,Q2*%
X238200000Y-97125000D03*
X238200000Y-98075000D03*
X238200000Y-99025000D03*
X235500000Y-97125000D03*
X235500000Y-98075000D03*
X235500000Y-99025000D03*
%TD*%
%TO.C,Q4*%
X235500000Y-89875000D03*
X235500000Y-88925000D03*
X235500000Y-87975000D03*
X238200000Y-89875000D03*
X238200000Y-88925000D03*
X238200000Y-87975000D03*
%TD*%
%TO.C,Q5*%
X225497058Y-89871253D03*
X225497058Y-88921253D03*
X225497058Y-87971253D03*
X228197058Y-89871253D03*
X228197058Y-88921253D03*
X228197058Y-87971253D03*
%TD*%
D16*
%TO.C,Q6*%
X225627058Y-91591253D03*
X225627058Y-92861253D03*
X225627058Y-94131253D03*
X225627058Y-95401253D03*
D15*
X231092058Y-95401253D03*
X231092058Y-94131253D03*
X231092058Y-92861253D03*
X231092058Y-91591253D03*
D14*
X228987058Y-92366253D03*
X228987058Y-94626253D03*
%TD*%
D36*
%TO.C,Q7*%
X228197058Y-97121253D03*
X228197058Y-98071253D03*
X228197058Y-99021253D03*
X225497058Y-97121253D03*
X225497058Y-98071253D03*
X225497058Y-99021253D03*
%TD*%
D30*
%TO.C,R17*%
X241500000Y-98900000D03*
X239600000Y-98900000D03*
%TD*%
%TO.C,R18*%
X239600000Y-96900000D03*
X241500000Y-96900000D03*
%TD*%
%TO.C,R25*%
X241500000Y-90100000D03*
X239600000Y-90100000D03*
%TD*%
%TO.C,R26*%
X239600000Y-88100000D03*
X241500000Y-88100000D03*
%TD*%
%TO.C,R27*%
X222199558Y-88096254D03*
X224099558Y-88096254D03*
%TD*%
%TO.C,R28*%
X224097058Y-90096253D03*
X222197058Y-90096253D03*
%TD*%
%TO.C,R29*%
X222197058Y-96896253D03*
X224097058Y-96896253D03*
%TD*%
%TO.C,R30*%
X224097058Y-98896253D03*
X222197058Y-98896253D03*
%TD*%
D37*
%TO.C,F7*%
X246125000Y-146195000D03*
X246125000Y-149205000D03*
%TD*%
%TO.C,F8*%
X248425000Y-149205000D03*
X248425000Y-146195000D03*
%TD*%
M02*
