M48
;DRILL file {KiCad (5.0.0-rc2-dev-406-g05dae9627)} date 06/18/18 14:13:28
;FORMAT={-:-/ absolute / metric / decimal}
FMAT,2
METRIC,TZ
T1C0.650
T2C1.200
T3C1.800
T4C3.200
%
G90
G05
M71
T1
X278.25Y-118.9
X300.25Y-118.9
T2
X302.15Y-90.25
X302.15Y-99.25
X204.3Y-157.8
X225.3Y-157.8
X244.4Y-154.5
X253.4Y-154.5
X313.775Y-133.35
X313.775Y-146.35
X264.775Y-154.325
X273.775Y-154.325
X289.775Y-90.25
X289.775Y-99.25
X313.725Y-99.175
X313.725Y-112.175
X176.925Y-123.325
X176.925Y-130.325
X204.325Y-88.65
X219.325Y-88.65
X305.9Y-145.875
X305.9Y-158.875
T3
X274.05Y-108.3
X274.05Y-138.3
X304.05Y-108.3
X304.05Y-138.3
T4
X214.45Y-137.3
X294.8Y-145.3
X214.45Y-125.3
X229.8Y-105.3
T0
M30
