%TF.GenerationSoftware,KiCad,Pcbnew,(5.0.0-rc2-dev-406-g05dae9627)*%
%TF.CreationDate,2018-06-18T14:13:19+02:00*%
%TF.ProjectId,Autopilot,4175746F70696C6F742E6B696361645F,rev?*%
%TF.SameCoordinates,Original*%
%TF.FileFunction,Soldermask,Top*%
%TF.FilePolarity,Negative*%
%FSLAX46Y46*%
G04 Gerber Fmt 4.6, Leading zero omitted, Abs format (unit mm)*
G04 Created by KiCad (PCBNEW (5.0.0-rc2-dev-406-g05dae9627)) date 06/18/18 14:13:19*
%MOMM*%
%LPD*%
G01*
G04 APERTURE LIST*
%ADD10C,0.150000*%
%ADD11C,0.100000*%
G04 APERTURE END LIST*
D10*
%TO.C,JP1*%
X250877819Y-136713018D02*
X250877819Y-136967018D01*
X252655819Y-136713018D02*
X252655819Y-136967018D01*
X250877819Y-136840018D02*
X252655819Y-136840018D01*
X251449319Y-137729018D02*
X252147819Y-137729018D01*
X252465319Y-137475018D02*
X251068319Y-137475018D01*
X251004819Y-137348018D02*
X252528819Y-137348018D01*
X252592319Y-137221018D02*
X250941319Y-137221018D01*
X250941319Y-137094018D02*
X252592319Y-137094018D01*
X252655819Y-136967018D02*
X250877819Y-136967018D01*
X250877819Y-136967018D02*
G75*
G03X251766819Y-137856018I889000J0D01*
G01*
X251766819Y-137856018D02*
G75*
G03X252655819Y-136967018I0J889000D01*
G01*
X252147819Y-135951018D02*
X251385819Y-135951018D01*
X251068319Y-136205018D02*
X252465319Y-136205018D01*
X252528819Y-136332018D02*
X251004819Y-136332018D01*
X250941319Y-136459018D02*
X252592319Y-136459018D01*
X252592319Y-136586018D02*
X250941319Y-136586018D01*
X252655819Y-136713018D02*
X250877819Y-136713018D01*
X251766819Y-135824018D02*
G75*
G03X250877819Y-136713018I0J-889000D01*
G01*
X252655819Y-136713018D02*
G75*
G03X251766819Y-135824018I-889000J0D01*
G01*
%TO.C,JP3*%
X247877819Y-136713018D02*
X247877819Y-136967018D01*
X249655819Y-136713018D02*
X249655819Y-136967018D01*
X247877819Y-136840018D02*
X249655819Y-136840018D01*
X248449319Y-137729018D02*
X249147819Y-137729018D01*
X249465319Y-137475018D02*
X248068319Y-137475018D01*
X248004819Y-137348018D02*
X249528819Y-137348018D01*
X249592319Y-137221018D02*
X247941319Y-137221018D01*
X247941319Y-137094018D02*
X249592319Y-137094018D01*
X249655819Y-136967018D02*
X247877819Y-136967018D01*
X247877819Y-136967018D02*
G75*
G03X248766819Y-137856018I889000J0D01*
G01*
X248766819Y-137856018D02*
G75*
G03X249655819Y-136967018I0J889000D01*
G01*
X249147819Y-135951018D02*
X248385819Y-135951018D01*
X248068319Y-136205018D02*
X249465319Y-136205018D01*
X249528819Y-136332018D02*
X248004819Y-136332018D01*
X247941319Y-136459018D02*
X249592319Y-136459018D01*
X249592319Y-136586018D02*
X247941319Y-136586018D01*
X249655819Y-136713018D02*
X247877819Y-136713018D01*
X248766819Y-135824018D02*
G75*
G03X247877819Y-136713018I0J-889000D01*
G01*
X249655819Y-136713018D02*
G75*
G03X248766819Y-135824018I-889000J0D01*
G01*
%TO.C,JP2*%
X246655819Y-136713018D02*
G75*
G03X245766819Y-135824018I-889000J0D01*
G01*
X245766819Y-135824018D02*
G75*
G03X244877819Y-136713018I0J-889000D01*
G01*
X246655819Y-136713018D02*
X244877819Y-136713018D01*
X246592319Y-136586018D02*
X244941319Y-136586018D01*
X244941319Y-136459018D02*
X246592319Y-136459018D01*
X246528819Y-136332018D02*
X245004819Y-136332018D01*
X245068319Y-136205018D02*
X246465319Y-136205018D01*
X246147819Y-135951018D02*
X245385819Y-135951018D01*
X245766819Y-137856018D02*
G75*
G03X246655819Y-136967018I0J889000D01*
G01*
X244877819Y-136967018D02*
G75*
G03X245766819Y-137856018I889000J0D01*
G01*
X246655819Y-136967018D02*
X244877819Y-136967018D01*
X244941319Y-137094018D02*
X246592319Y-137094018D01*
X246592319Y-137221018D02*
X244941319Y-137221018D01*
X245004819Y-137348018D02*
X246528819Y-137348018D01*
X246465319Y-137475018D02*
X245068319Y-137475018D01*
X245449319Y-137729018D02*
X246147819Y-137729018D01*
X244877819Y-136840018D02*
X246655819Y-136840018D01*
X246655819Y-136713018D02*
X246655819Y-136967018D01*
X244877819Y-136713018D02*
X244877819Y-136967018D01*
D11*
G36*
X236415687Y-157757039D02*
X236619522Y-157841470D01*
X236751406Y-157929593D01*
X236802958Y-157964039D01*
X236958961Y-158120042D01*
X236958963Y-158120045D01*
X237081530Y-158303478D01*
X237165961Y-158507313D01*
X237209000Y-158723687D01*
X237209000Y-158944313D01*
X237165961Y-159160687D01*
X237081530Y-159364522D01*
X236982282Y-159513056D01*
X236958961Y-159547958D01*
X236802958Y-159703961D01*
X236802955Y-159703963D01*
X236619522Y-159826530D01*
X236415687Y-159910961D01*
X236199313Y-159954000D01*
X235978687Y-159954000D01*
X235762313Y-159910961D01*
X235558478Y-159826530D01*
X235375045Y-159703963D01*
X235375042Y-159703961D01*
X235219039Y-159547958D01*
X235195718Y-159513056D01*
X235096470Y-159364522D01*
X235012039Y-159160687D01*
X234969000Y-158944313D01*
X234969000Y-158723687D01*
X235012039Y-158507313D01*
X235096470Y-158303478D01*
X235219037Y-158120045D01*
X235219039Y-158120042D01*
X235375042Y-157964039D01*
X235426594Y-157929593D01*
X235558478Y-157841470D01*
X235762313Y-157757039D01*
X235978687Y-157714000D01*
X236199313Y-157714000D01*
X236415687Y-157757039D01*
X236415687Y-157757039D01*
G37*
G36*
X306040465Y-158168835D02*
X306110016Y-158182669D01*
X306241048Y-158236944D01*
X306358973Y-158315739D01*
X306459261Y-158416027D01*
X306538056Y-158533952D01*
X306592331Y-158664984D01*
X306620000Y-158804086D01*
X306620000Y-158945914D01*
X306592331Y-159085016D01*
X306538056Y-159216048D01*
X306459261Y-159333973D01*
X306358973Y-159434261D01*
X306241048Y-159513056D01*
X306110016Y-159567331D01*
X306040465Y-159581165D01*
X305970916Y-159595000D01*
X305829084Y-159595000D01*
X305759535Y-159581165D01*
X305689984Y-159567331D01*
X305558952Y-159513056D01*
X305441027Y-159434261D01*
X305340739Y-159333973D01*
X305261944Y-159216048D01*
X305207669Y-159085016D01*
X305180000Y-158945914D01*
X305180000Y-158804086D01*
X305207669Y-158664984D01*
X305261944Y-158533952D01*
X305340739Y-158416027D01*
X305441027Y-158315739D01*
X305558952Y-158236944D01*
X305689984Y-158182669D01*
X305759535Y-158168834D01*
X305829084Y-158155000D01*
X305970916Y-158155000D01*
X306040465Y-158168835D01*
X306040465Y-158168835D01*
G37*
G36*
X175355687Y-156802039D02*
X175559522Y-156886470D01*
X175742131Y-157008486D01*
X175742958Y-157009039D01*
X175898961Y-157165042D01*
X175898963Y-157165045D01*
X176021530Y-157348478D01*
X176105961Y-157552313D01*
X176149000Y-157768687D01*
X176149000Y-157989313D01*
X176105961Y-158205687D01*
X176021530Y-158409522D01*
X175938388Y-158533952D01*
X175898961Y-158592958D01*
X175742958Y-158748961D01*
X175742955Y-158748963D01*
X175559522Y-158871530D01*
X175355687Y-158955961D01*
X175139313Y-158999000D01*
X174918687Y-158999000D01*
X174702313Y-158955961D01*
X174498478Y-158871530D01*
X174315045Y-158748963D01*
X174315042Y-158748961D01*
X174159039Y-158592958D01*
X174119612Y-158533952D01*
X174036470Y-158409522D01*
X173952039Y-158205687D01*
X173909000Y-157989313D01*
X173909000Y-157768687D01*
X173952039Y-157552313D01*
X174036470Y-157348478D01*
X174159037Y-157165045D01*
X174159039Y-157165042D01*
X174315042Y-157009039D01*
X174315870Y-157008486D01*
X174498478Y-156886470D01*
X174702313Y-156802039D01*
X174918687Y-156759000D01*
X175139313Y-156759000D01*
X175355687Y-156802039D01*
X175355687Y-156802039D01*
G37*
G36*
X193897687Y-156802039D02*
X194101522Y-156886470D01*
X194284131Y-157008486D01*
X194284958Y-157009039D01*
X194440961Y-157165042D01*
X194440963Y-157165045D01*
X194563530Y-157348478D01*
X194647961Y-157552313D01*
X194691000Y-157768687D01*
X194691000Y-157989313D01*
X194647961Y-158205687D01*
X194563530Y-158409522D01*
X194480388Y-158533952D01*
X194440961Y-158592958D01*
X194284958Y-158748961D01*
X194284955Y-158748963D01*
X194101522Y-158871530D01*
X193897687Y-158955961D01*
X193681313Y-158999000D01*
X193460687Y-158999000D01*
X193244313Y-158955961D01*
X193040478Y-158871530D01*
X192857045Y-158748963D01*
X192857042Y-158748961D01*
X192701039Y-158592958D01*
X192661612Y-158533952D01*
X192578470Y-158409522D01*
X192494039Y-158205687D01*
X192451000Y-157989313D01*
X192451000Y-157768687D01*
X192494039Y-157552313D01*
X192578470Y-157348478D01*
X192701037Y-157165045D01*
X192701039Y-157165042D01*
X192857042Y-157009039D01*
X192857870Y-157008486D01*
X193040478Y-156886470D01*
X193244313Y-156802039D01*
X193460687Y-156759000D01*
X193681313Y-156759000D01*
X193897687Y-156802039D01*
X193897687Y-156802039D01*
G37*
G36*
X233176289Y-155354019D02*
X233498408Y-155487445D01*
X233765173Y-155665692D01*
X233788309Y-155681151D01*
X234034849Y-155927691D01*
X234034851Y-155927694D01*
X234228555Y-156217592D01*
X234361981Y-156539711D01*
X234430000Y-156881668D01*
X234430000Y-157230332D01*
X234361981Y-157572289D01*
X234228555Y-157894408D01*
X234085980Y-158107786D01*
X234034849Y-158184309D01*
X233788309Y-158430849D01*
X233788306Y-158430851D01*
X233498408Y-158624555D01*
X233176289Y-158757981D01*
X232834332Y-158826000D01*
X232485668Y-158826000D01*
X232143711Y-158757981D01*
X231821592Y-158624555D01*
X231531694Y-158430851D01*
X231531691Y-158430849D01*
X231285151Y-158184309D01*
X231234020Y-158107786D01*
X231091445Y-157894408D01*
X230958019Y-157572289D01*
X230890000Y-157230332D01*
X230890000Y-156881668D01*
X230958019Y-156539711D01*
X231091445Y-156217592D01*
X231285149Y-155927694D01*
X231285151Y-155927691D01*
X231531691Y-155681151D01*
X231554827Y-155665692D01*
X231821592Y-155487445D01*
X232143711Y-155354019D01*
X232485668Y-155286000D01*
X232834332Y-155286000D01*
X233176289Y-155354019D01*
X233176289Y-155354019D01*
G37*
G36*
X225440465Y-157093835D02*
X225510016Y-157107669D01*
X225641048Y-157161944D01*
X225758973Y-157240739D01*
X225859261Y-157341027D01*
X225938056Y-157458952D01*
X225992331Y-157589984D01*
X225992331Y-157589986D01*
X226018590Y-157721994D01*
X226020000Y-157729086D01*
X226020000Y-157870914D01*
X225992331Y-158010016D01*
X225938056Y-158141048D01*
X225859261Y-158258973D01*
X225758973Y-158359261D01*
X225641048Y-158438056D01*
X225510016Y-158492331D01*
X225440465Y-158506166D01*
X225370916Y-158520000D01*
X225229084Y-158520000D01*
X225159535Y-158506166D01*
X225089984Y-158492331D01*
X224958952Y-158438056D01*
X224841027Y-158359261D01*
X224740739Y-158258973D01*
X224661944Y-158141048D01*
X224607669Y-158010016D01*
X224580000Y-157870914D01*
X224580000Y-157729086D01*
X224581411Y-157721994D01*
X224607669Y-157589986D01*
X224607669Y-157589984D01*
X224661944Y-157458952D01*
X224740739Y-157341027D01*
X224841027Y-157240739D01*
X224958952Y-157161944D01*
X225089984Y-157107669D01*
X225159535Y-157093835D01*
X225229084Y-157080000D01*
X225370916Y-157080000D01*
X225440465Y-157093835D01*
X225440465Y-157093835D01*
G37*
G36*
X204440465Y-157093835D02*
X204510016Y-157107669D01*
X204641048Y-157161944D01*
X204758973Y-157240739D01*
X204859261Y-157341027D01*
X204938056Y-157458952D01*
X204992331Y-157589984D01*
X204992331Y-157589986D01*
X205018590Y-157721994D01*
X205020000Y-157729086D01*
X205020000Y-157870914D01*
X204992331Y-158010016D01*
X204938056Y-158141048D01*
X204859261Y-158258973D01*
X204758973Y-158359261D01*
X204641048Y-158438056D01*
X204510016Y-158492331D01*
X204440465Y-158506166D01*
X204370916Y-158520000D01*
X204229084Y-158520000D01*
X204159535Y-158506166D01*
X204089984Y-158492331D01*
X203958952Y-158438056D01*
X203841027Y-158359261D01*
X203740739Y-158258973D01*
X203661944Y-158141048D01*
X203607669Y-158010016D01*
X203580000Y-157870914D01*
X203580000Y-157729086D01*
X203581411Y-157721994D01*
X203607669Y-157589986D01*
X203607669Y-157589984D01*
X203661944Y-157458952D01*
X203740739Y-157341027D01*
X203841027Y-157240739D01*
X203958952Y-157161944D01*
X204089984Y-157107669D01*
X204159535Y-157093835D01*
X204229084Y-157080000D01*
X204370916Y-157080000D01*
X204440465Y-157093835D01*
X204440465Y-157093835D01*
G37*
G36*
X283290000Y-158500000D02*
X282350000Y-158500000D01*
X282350000Y-156960000D01*
X283290000Y-156960000D01*
X283290000Y-158500000D01*
X283290000Y-158500000D01*
G37*
G36*
X281390000Y-158500000D02*
X280450000Y-158500000D01*
X280450000Y-156960000D01*
X281390000Y-156960000D01*
X281390000Y-158500000D01*
X281390000Y-158500000D01*
G37*
G36*
X276540420Y-158449440D02*
X275101540Y-158449440D01*
X275101540Y-157010560D01*
X276540420Y-157010560D01*
X276540420Y-158449440D01*
X276540420Y-158449440D01*
G37*
G36*
X278638460Y-158449440D02*
X277199580Y-158449440D01*
X277199580Y-157010560D01*
X278638460Y-157010560D01*
X278638460Y-158449440D01*
X278638460Y-158449440D01*
G37*
G36*
X304397743Y-156527289D02*
X304453770Y-156538433D01*
X304612100Y-156604016D01*
X304754593Y-156699227D01*
X304875773Y-156820407D01*
X304970984Y-156962900D01*
X305030950Y-157107669D01*
X305036567Y-157121231D01*
X305060339Y-157240739D01*
X305070000Y-157289312D01*
X305070000Y-157460688D01*
X305036567Y-157628770D01*
X304970984Y-157787100D01*
X304875773Y-157929593D01*
X304754593Y-158050773D01*
X304612100Y-158145984D01*
X304453770Y-158211567D01*
X304397743Y-158222711D01*
X304285690Y-158245000D01*
X304114310Y-158245000D01*
X304002257Y-158222711D01*
X303946230Y-158211567D01*
X303787900Y-158145984D01*
X303645407Y-158050773D01*
X303524227Y-157929593D01*
X303429016Y-157787100D01*
X303363433Y-157628770D01*
X303330000Y-157460688D01*
X303330000Y-157289312D01*
X303339662Y-157240739D01*
X303363433Y-157121231D01*
X303369051Y-157107669D01*
X303429016Y-156962900D01*
X303524227Y-156820407D01*
X303645407Y-156699227D01*
X303787900Y-156604016D01*
X303946230Y-156538433D01*
X304002257Y-156527289D01*
X304114310Y-156505000D01*
X304285690Y-156505000D01*
X304397743Y-156527289D01*
X304397743Y-156527289D01*
G37*
G36*
X200651732Y-152492213D02*
X200921645Y-152604015D01*
X201183139Y-152712329D01*
X201661392Y-153031888D01*
X202068112Y-153438608D01*
X202387671Y-153916861D01*
X202415461Y-153983952D01*
X202607787Y-154448268D01*
X202720000Y-155012403D01*
X202720000Y-155587597D01*
X202607787Y-156151732D01*
X202492524Y-156430000D01*
X202387671Y-156683139D01*
X202068112Y-157161392D01*
X201661392Y-157568112D01*
X201183139Y-157887671D01*
X201081937Y-157929590D01*
X200651732Y-158107787D01*
X200087597Y-158220000D01*
X199512403Y-158220000D01*
X198948268Y-158107787D01*
X198518063Y-157929590D01*
X198416861Y-157887671D01*
X197938608Y-157568112D01*
X197531888Y-157161392D01*
X197212329Y-156683139D01*
X197107476Y-156430000D01*
X196992213Y-156151732D01*
X196880000Y-155587597D01*
X196880000Y-155012403D01*
X196992213Y-154448268D01*
X197184539Y-153983952D01*
X197212329Y-153916861D01*
X197531888Y-153438608D01*
X197938608Y-153031888D01*
X198416861Y-152712329D01*
X198678355Y-152604015D01*
X198948268Y-152492213D01*
X199512403Y-152380000D01*
X200087597Y-152380000D01*
X200651732Y-152492213D01*
X200651732Y-152492213D01*
G37*
G36*
X262631342Y-156439694D02*
X262757638Y-156478006D01*
X262874031Y-156540219D01*
X262976053Y-156623947D01*
X263059781Y-156725969D01*
X263121994Y-156842362D01*
X263160306Y-156968658D01*
X263173242Y-157100000D01*
X263160306Y-157231342D01*
X263121994Y-157357638D01*
X263059781Y-157474031D01*
X262976053Y-157576053D01*
X262874031Y-157659781D01*
X262757638Y-157721994D01*
X262631342Y-157760306D01*
X262532917Y-157770000D01*
X261767083Y-157770000D01*
X261668658Y-157760306D01*
X261542362Y-157721994D01*
X261425969Y-157659781D01*
X261323947Y-157576053D01*
X261240219Y-157474031D01*
X261178006Y-157357638D01*
X261139694Y-157231342D01*
X261126758Y-157100000D01*
X261139694Y-156968658D01*
X261178006Y-156842362D01*
X261240219Y-156725969D01*
X261323947Y-156623947D01*
X261425969Y-156540219D01*
X261542362Y-156478006D01*
X261668658Y-156439694D01*
X261767083Y-156430000D01*
X262532917Y-156430000D01*
X262631342Y-156439694D01*
X262631342Y-156439694D01*
G37*
G36*
X257031342Y-156439694D02*
X257157638Y-156478006D01*
X257274031Y-156540219D01*
X257376053Y-156623947D01*
X257459781Y-156725969D01*
X257521994Y-156842362D01*
X257560306Y-156968658D01*
X257573242Y-157100000D01*
X257560306Y-157231342D01*
X257521994Y-157357638D01*
X257459781Y-157474031D01*
X257376053Y-157576053D01*
X257274031Y-157659781D01*
X257157638Y-157721994D01*
X257031342Y-157760306D01*
X256932917Y-157770000D01*
X256167083Y-157770000D01*
X256068658Y-157760306D01*
X255942362Y-157721994D01*
X255825969Y-157659781D01*
X255723947Y-157576053D01*
X255640219Y-157474031D01*
X255578006Y-157357638D01*
X255539694Y-157231342D01*
X255526758Y-157100000D01*
X255539694Y-156968658D01*
X255578006Y-156842362D01*
X255640219Y-156725969D01*
X255723947Y-156623947D01*
X255825969Y-156540219D01*
X255942362Y-156478006D01*
X256068658Y-156439694D01*
X256167083Y-156430000D01*
X256932917Y-156430000D01*
X257031342Y-156439694D01*
X257031342Y-156439694D01*
G37*
G36*
X260995000Y-157720000D02*
X257705000Y-157720000D01*
X257705000Y-155980000D01*
X260995000Y-155980000D01*
X260995000Y-157720000D01*
X260995000Y-157720000D01*
G37*
G36*
X248097743Y-155352289D02*
X248153770Y-155363433D01*
X248265726Y-155409807D01*
X248300539Y-155424227D01*
X248312100Y-155429016D01*
X248454593Y-155524227D01*
X248575773Y-155645407D01*
X248670984Y-155787900D01*
X248733701Y-155939310D01*
X248736567Y-155946231D01*
X248770000Y-156114310D01*
X248770000Y-156285690D01*
X248756458Y-156353769D01*
X248736567Y-156453770D01*
X248670984Y-156612100D01*
X248575773Y-156754593D01*
X248454593Y-156875773D01*
X248312100Y-156970984D01*
X248153770Y-157036567D01*
X248097743Y-157047711D01*
X247985690Y-157070000D01*
X247814310Y-157070000D01*
X247702257Y-157047711D01*
X247646230Y-157036567D01*
X247487900Y-156970984D01*
X247345407Y-156875773D01*
X247224227Y-156754593D01*
X247129016Y-156612100D01*
X247063433Y-156453770D01*
X247043542Y-156353769D01*
X247030000Y-156285690D01*
X247030000Y-156114310D01*
X247063433Y-155946231D01*
X247066300Y-155939310D01*
X247129016Y-155787900D01*
X247224227Y-155645407D01*
X247345407Y-155524227D01*
X247487900Y-155429016D01*
X247499462Y-155424227D01*
X247534274Y-155409807D01*
X247646230Y-155363433D01*
X247702257Y-155352289D01*
X247814310Y-155330000D01*
X247985690Y-155330000D01*
X248097743Y-155352289D01*
X248097743Y-155352289D01*
G37*
G36*
X252097743Y-155352289D02*
X252153770Y-155363433D01*
X252265726Y-155409807D01*
X252300539Y-155424227D01*
X252312100Y-155429016D01*
X252454593Y-155524227D01*
X252575773Y-155645407D01*
X252670984Y-155787900D01*
X252733701Y-155939310D01*
X252736567Y-155946231D01*
X252770000Y-156114310D01*
X252770000Y-156285690D01*
X252756458Y-156353769D01*
X252736567Y-156453770D01*
X252670984Y-156612100D01*
X252575773Y-156754593D01*
X252454593Y-156875773D01*
X252312100Y-156970984D01*
X252153770Y-157036567D01*
X252097743Y-157047711D01*
X251985690Y-157070000D01*
X251814310Y-157070000D01*
X251702257Y-157047711D01*
X251646230Y-157036567D01*
X251487900Y-156970984D01*
X251345407Y-156875773D01*
X251224227Y-156754593D01*
X251129016Y-156612100D01*
X251063433Y-156453770D01*
X251043542Y-156353769D01*
X251030000Y-156285690D01*
X251030000Y-156114310D01*
X251063433Y-155946231D01*
X251066300Y-155939310D01*
X251129016Y-155787900D01*
X251224227Y-155645407D01*
X251345407Y-155524227D01*
X251487900Y-155429016D01*
X251499462Y-155424227D01*
X251534274Y-155409807D01*
X251646230Y-155363433D01*
X251702257Y-155352289D01*
X251814310Y-155330000D01*
X251985690Y-155330000D01*
X252097743Y-155352289D01*
X252097743Y-155352289D01*
G37*
G36*
X250097743Y-155352289D02*
X250153770Y-155363433D01*
X250265726Y-155409807D01*
X250300539Y-155424227D01*
X250312100Y-155429016D01*
X250454593Y-155524227D01*
X250575773Y-155645407D01*
X250670984Y-155787900D01*
X250733701Y-155939310D01*
X250736567Y-155946231D01*
X250770000Y-156114310D01*
X250770000Y-156285690D01*
X250756458Y-156353769D01*
X250736567Y-156453770D01*
X250670984Y-156612100D01*
X250575773Y-156754593D01*
X250454593Y-156875773D01*
X250312100Y-156970984D01*
X250153770Y-157036567D01*
X250097743Y-157047711D01*
X249985690Y-157070000D01*
X249814310Y-157070000D01*
X249702257Y-157047711D01*
X249646230Y-157036567D01*
X249487900Y-156970984D01*
X249345407Y-156875773D01*
X249224227Y-156754593D01*
X249129016Y-156612100D01*
X249063433Y-156453770D01*
X249043542Y-156353769D01*
X249030000Y-156285690D01*
X249030000Y-156114310D01*
X249063433Y-155946231D01*
X249066300Y-155939310D01*
X249129016Y-155787900D01*
X249224227Y-155645407D01*
X249345407Y-155524227D01*
X249487900Y-155429016D01*
X249499462Y-155424227D01*
X249534274Y-155409807D01*
X249646230Y-155363433D01*
X249702257Y-155352289D01*
X249814310Y-155330000D01*
X249985690Y-155330000D01*
X250097743Y-155352289D01*
X250097743Y-155352289D01*
G37*
G36*
X246097743Y-155352289D02*
X246153770Y-155363433D01*
X246265726Y-155409807D01*
X246300539Y-155424227D01*
X246312100Y-155429016D01*
X246454593Y-155524227D01*
X246575773Y-155645407D01*
X246670984Y-155787900D01*
X246733701Y-155939310D01*
X246736567Y-155946231D01*
X246770000Y-156114310D01*
X246770000Y-156285690D01*
X246756458Y-156353769D01*
X246736567Y-156453770D01*
X246670984Y-156612100D01*
X246575773Y-156754593D01*
X246454593Y-156875773D01*
X246312100Y-156970984D01*
X246153770Y-157036567D01*
X246097743Y-157047711D01*
X245985690Y-157070000D01*
X245814310Y-157070000D01*
X245702257Y-157047711D01*
X245646230Y-157036567D01*
X245487900Y-156970984D01*
X245345407Y-156875773D01*
X245224227Y-156754593D01*
X245129016Y-156612100D01*
X245063433Y-156453770D01*
X245043542Y-156353769D01*
X245030000Y-156285690D01*
X245030000Y-156114310D01*
X245063433Y-155946231D01*
X245066300Y-155939310D01*
X245129016Y-155787900D01*
X245224227Y-155645407D01*
X245345407Y-155524227D01*
X245487900Y-155429016D01*
X245499462Y-155424227D01*
X245534274Y-155409807D01*
X245646230Y-155363433D01*
X245702257Y-155352289D01*
X245814310Y-155330000D01*
X245985690Y-155330000D01*
X246097743Y-155352289D01*
X246097743Y-155352289D01*
G37*
G36*
X221997743Y-155252289D02*
X222053770Y-155263433D01*
X222165726Y-155309807D01*
X222200066Y-155324031D01*
X222212100Y-155329016D01*
X222354593Y-155424227D01*
X222475773Y-155545407D01*
X222570984Y-155687900D01*
X222612407Y-155787902D01*
X222636567Y-155846231D01*
X222670000Y-156014310D01*
X222670000Y-156185690D01*
X222651485Y-156278769D01*
X222636567Y-156353770D01*
X222570984Y-156512100D01*
X222475773Y-156654593D01*
X222354593Y-156775773D01*
X222212100Y-156870984D01*
X222212099Y-156870985D01*
X222212098Y-156870985D01*
X222200534Y-156875775D01*
X222053770Y-156936567D01*
X221997743Y-156947711D01*
X221885690Y-156970000D01*
X221714310Y-156970000D01*
X221602257Y-156947711D01*
X221546230Y-156936567D01*
X221399466Y-156875775D01*
X221387902Y-156870985D01*
X221387901Y-156870985D01*
X221387900Y-156870984D01*
X221245407Y-156775773D01*
X221124227Y-156654593D01*
X221029016Y-156512100D01*
X220963433Y-156353770D01*
X220948515Y-156278769D01*
X220930000Y-156185690D01*
X220930000Y-156014310D01*
X220963433Y-155846231D01*
X220987594Y-155787902D01*
X221029016Y-155687900D01*
X221124227Y-155545407D01*
X221245407Y-155424227D01*
X221387900Y-155329016D01*
X221399935Y-155324031D01*
X221434274Y-155309807D01*
X221546230Y-155263433D01*
X221602257Y-155252289D01*
X221714310Y-155230000D01*
X221885690Y-155230000D01*
X221997743Y-155252289D01*
X221997743Y-155252289D01*
G37*
G36*
X205997743Y-155252289D02*
X206053770Y-155263433D01*
X206165726Y-155309807D01*
X206200066Y-155324031D01*
X206212100Y-155329016D01*
X206354593Y-155424227D01*
X206475773Y-155545407D01*
X206570984Y-155687900D01*
X206612407Y-155787902D01*
X206636567Y-155846231D01*
X206670000Y-156014310D01*
X206670000Y-156185690D01*
X206651485Y-156278769D01*
X206636567Y-156353770D01*
X206570984Y-156512100D01*
X206475773Y-156654593D01*
X206354593Y-156775773D01*
X206212100Y-156870984D01*
X206212099Y-156870985D01*
X206212098Y-156870985D01*
X206200534Y-156875775D01*
X206053770Y-156936567D01*
X205997743Y-156947711D01*
X205885690Y-156970000D01*
X205714310Y-156970000D01*
X205602257Y-156947711D01*
X205546230Y-156936567D01*
X205399466Y-156875775D01*
X205387902Y-156870985D01*
X205387901Y-156870985D01*
X205387900Y-156870984D01*
X205245407Y-156775773D01*
X205124227Y-156654593D01*
X205029016Y-156512100D01*
X204963433Y-156353770D01*
X204948515Y-156278769D01*
X204930000Y-156185690D01*
X204930000Y-156014310D01*
X204963433Y-155846231D01*
X204987594Y-155787902D01*
X205029016Y-155687900D01*
X205124227Y-155545407D01*
X205245407Y-155424227D01*
X205387900Y-155329016D01*
X205399935Y-155324031D01*
X205434274Y-155309807D01*
X205546230Y-155263433D01*
X205602257Y-155252289D01*
X205714310Y-155230000D01*
X205885690Y-155230000D01*
X205997743Y-155252289D01*
X205997743Y-155252289D01*
G37*
G36*
X207997743Y-155252289D02*
X208053770Y-155263433D01*
X208165726Y-155309807D01*
X208200066Y-155324031D01*
X208212100Y-155329016D01*
X208354593Y-155424227D01*
X208475773Y-155545407D01*
X208570984Y-155687900D01*
X208612407Y-155787902D01*
X208636567Y-155846231D01*
X208670000Y-156014310D01*
X208670000Y-156185690D01*
X208651485Y-156278769D01*
X208636567Y-156353770D01*
X208570984Y-156512100D01*
X208475773Y-156654593D01*
X208354593Y-156775773D01*
X208212100Y-156870984D01*
X208212099Y-156870985D01*
X208212098Y-156870985D01*
X208200534Y-156875775D01*
X208053770Y-156936567D01*
X207997743Y-156947711D01*
X207885690Y-156970000D01*
X207714310Y-156970000D01*
X207602257Y-156947711D01*
X207546230Y-156936567D01*
X207399466Y-156875775D01*
X207387902Y-156870985D01*
X207387901Y-156870985D01*
X207387900Y-156870984D01*
X207245407Y-156775773D01*
X207124227Y-156654593D01*
X207029016Y-156512100D01*
X206963433Y-156353770D01*
X206948515Y-156278769D01*
X206930000Y-156185690D01*
X206930000Y-156014310D01*
X206963433Y-155846231D01*
X206987594Y-155787902D01*
X207029016Y-155687900D01*
X207124227Y-155545407D01*
X207245407Y-155424227D01*
X207387900Y-155329016D01*
X207399935Y-155324031D01*
X207434274Y-155309807D01*
X207546230Y-155263433D01*
X207602257Y-155252289D01*
X207714310Y-155230000D01*
X207885690Y-155230000D01*
X207997743Y-155252289D01*
X207997743Y-155252289D01*
G37*
G36*
X217997743Y-155252289D02*
X218053770Y-155263433D01*
X218165726Y-155309807D01*
X218200066Y-155324031D01*
X218212100Y-155329016D01*
X218354593Y-155424227D01*
X218475773Y-155545407D01*
X218570984Y-155687900D01*
X218612407Y-155787902D01*
X218636567Y-155846231D01*
X218670000Y-156014310D01*
X218670000Y-156185690D01*
X218651485Y-156278769D01*
X218636567Y-156353770D01*
X218570984Y-156512100D01*
X218475773Y-156654593D01*
X218354593Y-156775773D01*
X218212100Y-156870984D01*
X218212099Y-156870985D01*
X218212098Y-156870985D01*
X218200534Y-156875775D01*
X218053770Y-156936567D01*
X217997743Y-156947711D01*
X217885690Y-156970000D01*
X217714310Y-156970000D01*
X217602257Y-156947711D01*
X217546230Y-156936567D01*
X217399466Y-156875775D01*
X217387902Y-156870985D01*
X217387901Y-156870985D01*
X217387900Y-156870984D01*
X217245407Y-156775773D01*
X217124227Y-156654593D01*
X217029016Y-156512100D01*
X216963433Y-156353770D01*
X216948515Y-156278769D01*
X216930000Y-156185690D01*
X216930000Y-156014310D01*
X216963433Y-155846231D01*
X216987594Y-155787902D01*
X217029016Y-155687900D01*
X217124227Y-155545407D01*
X217245407Y-155424227D01*
X217387900Y-155329016D01*
X217399935Y-155324031D01*
X217434274Y-155309807D01*
X217546230Y-155263433D01*
X217602257Y-155252289D01*
X217714310Y-155230000D01*
X217885690Y-155230000D01*
X217997743Y-155252289D01*
X217997743Y-155252289D01*
G37*
G36*
X209997743Y-155252289D02*
X210053770Y-155263433D01*
X210165726Y-155309807D01*
X210200066Y-155324031D01*
X210212100Y-155329016D01*
X210354593Y-155424227D01*
X210475773Y-155545407D01*
X210570984Y-155687900D01*
X210612407Y-155787902D01*
X210636567Y-155846231D01*
X210670000Y-156014310D01*
X210670000Y-156185690D01*
X210651485Y-156278769D01*
X210636567Y-156353770D01*
X210570984Y-156512100D01*
X210475773Y-156654593D01*
X210354593Y-156775773D01*
X210212100Y-156870984D01*
X210212099Y-156870985D01*
X210212098Y-156870985D01*
X210200534Y-156875775D01*
X210053770Y-156936567D01*
X209997743Y-156947711D01*
X209885690Y-156970000D01*
X209714310Y-156970000D01*
X209602257Y-156947711D01*
X209546230Y-156936567D01*
X209399466Y-156875775D01*
X209387902Y-156870985D01*
X209387901Y-156870985D01*
X209387900Y-156870984D01*
X209245407Y-156775773D01*
X209124227Y-156654593D01*
X209029016Y-156512100D01*
X208963433Y-156353770D01*
X208948515Y-156278769D01*
X208930000Y-156185690D01*
X208930000Y-156014310D01*
X208963433Y-155846231D01*
X208987594Y-155787902D01*
X209029016Y-155687900D01*
X209124227Y-155545407D01*
X209245407Y-155424227D01*
X209387900Y-155329016D01*
X209399935Y-155324031D01*
X209434274Y-155309807D01*
X209546230Y-155263433D01*
X209602257Y-155252289D01*
X209714310Y-155230000D01*
X209885690Y-155230000D01*
X209997743Y-155252289D01*
X209997743Y-155252289D01*
G37*
G36*
X211997743Y-155252289D02*
X212053770Y-155263433D01*
X212165726Y-155309807D01*
X212200066Y-155324031D01*
X212212100Y-155329016D01*
X212354593Y-155424227D01*
X212475773Y-155545407D01*
X212570984Y-155687900D01*
X212612407Y-155787902D01*
X212636567Y-155846231D01*
X212670000Y-156014310D01*
X212670000Y-156185690D01*
X212651485Y-156278769D01*
X212636567Y-156353770D01*
X212570984Y-156512100D01*
X212475773Y-156654593D01*
X212354593Y-156775773D01*
X212212100Y-156870984D01*
X212212099Y-156870985D01*
X212212098Y-156870985D01*
X212200534Y-156875775D01*
X212053770Y-156936567D01*
X211997743Y-156947711D01*
X211885690Y-156970000D01*
X211714310Y-156970000D01*
X211602257Y-156947711D01*
X211546230Y-156936567D01*
X211399466Y-156875775D01*
X211387902Y-156870985D01*
X211387901Y-156870985D01*
X211387900Y-156870984D01*
X211245407Y-156775773D01*
X211124227Y-156654593D01*
X211029016Y-156512100D01*
X210963433Y-156353770D01*
X210948515Y-156278769D01*
X210930000Y-156185690D01*
X210930000Y-156014310D01*
X210963433Y-155846231D01*
X210987594Y-155787902D01*
X211029016Y-155687900D01*
X211124227Y-155545407D01*
X211245407Y-155424227D01*
X211387900Y-155329016D01*
X211399935Y-155324031D01*
X211434274Y-155309807D01*
X211546230Y-155263433D01*
X211602257Y-155252289D01*
X211714310Y-155230000D01*
X211885690Y-155230000D01*
X211997743Y-155252289D01*
X211997743Y-155252289D01*
G37*
G36*
X215997743Y-155252289D02*
X216053770Y-155263433D01*
X216165726Y-155309807D01*
X216200066Y-155324031D01*
X216212100Y-155329016D01*
X216354593Y-155424227D01*
X216475773Y-155545407D01*
X216570984Y-155687900D01*
X216612407Y-155787902D01*
X216636567Y-155846231D01*
X216670000Y-156014310D01*
X216670000Y-156185690D01*
X216651485Y-156278769D01*
X216636567Y-156353770D01*
X216570984Y-156512100D01*
X216475773Y-156654593D01*
X216354593Y-156775773D01*
X216212100Y-156870984D01*
X216212099Y-156870985D01*
X216212098Y-156870985D01*
X216200534Y-156875775D01*
X216053770Y-156936567D01*
X215997743Y-156947711D01*
X215885690Y-156970000D01*
X215714310Y-156970000D01*
X215602257Y-156947711D01*
X215546230Y-156936567D01*
X215399466Y-156875775D01*
X215387902Y-156870985D01*
X215387901Y-156870985D01*
X215387900Y-156870984D01*
X215245407Y-156775773D01*
X215124227Y-156654593D01*
X215029016Y-156512100D01*
X214963433Y-156353770D01*
X214948515Y-156278769D01*
X214930000Y-156185690D01*
X214930000Y-156014310D01*
X214963433Y-155846231D01*
X214987594Y-155787902D01*
X215029016Y-155687900D01*
X215124227Y-155545407D01*
X215245407Y-155424227D01*
X215387900Y-155329016D01*
X215399935Y-155324031D01*
X215434274Y-155309807D01*
X215546230Y-155263433D01*
X215602257Y-155252289D01*
X215714310Y-155230000D01*
X215885690Y-155230000D01*
X215997743Y-155252289D01*
X215997743Y-155252289D01*
G37*
G36*
X219997743Y-155252289D02*
X220053770Y-155263433D01*
X220165726Y-155309807D01*
X220200066Y-155324031D01*
X220212100Y-155329016D01*
X220354593Y-155424227D01*
X220475773Y-155545407D01*
X220570984Y-155687900D01*
X220612407Y-155787902D01*
X220636567Y-155846231D01*
X220670000Y-156014310D01*
X220670000Y-156185690D01*
X220651485Y-156278769D01*
X220636567Y-156353770D01*
X220570984Y-156512100D01*
X220475773Y-156654593D01*
X220354593Y-156775773D01*
X220212100Y-156870984D01*
X220212099Y-156870985D01*
X220212098Y-156870985D01*
X220200534Y-156875775D01*
X220053770Y-156936567D01*
X219997743Y-156947711D01*
X219885690Y-156970000D01*
X219714310Y-156970000D01*
X219602257Y-156947711D01*
X219546230Y-156936567D01*
X219399466Y-156875775D01*
X219387902Y-156870985D01*
X219387901Y-156870985D01*
X219387900Y-156870984D01*
X219245407Y-156775773D01*
X219124227Y-156654593D01*
X219029016Y-156512100D01*
X218963433Y-156353770D01*
X218948515Y-156278769D01*
X218930000Y-156185690D01*
X218930000Y-156014310D01*
X218963433Y-155846231D01*
X218987594Y-155787902D01*
X219029016Y-155687900D01*
X219124227Y-155545407D01*
X219245407Y-155424227D01*
X219387900Y-155329016D01*
X219399935Y-155324031D01*
X219434274Y-155309807D01*
X219546230Y-155263433D01*
X219602257Y-155252289D01*
X219714310Y-155230000D01*
X219885690Y-155230000D01*
X219997743Y-155252289D01*
X219997743Y-155252289D01*
G37*
G36*
X223997743Y-155252289D02*
X224053770Y-155263433D01*
X224165726Y-155309807D01*
X224200066Y-155324031D01*
X224212100Y-155329016D01*
X224354593Y-155424227D01*
X224475773Y-155545407D01*
X224570984Y-155687900D01*
X224612407Y-155787902D01*
X224636567Y-155846231D01*
X224670000Y-156014310D01*
X224670000Y-156185690D01*
X224651485Y-156278769D01*
X224636567Y-156353770D01*
X224570984Y-156512100D01*
X224475773Y-156654593D01*
X224354593Y-156775773D01*
X224212100Y-156870984D01*
X224212099Y-156870985D01*
X224212098Y-156870985D01*
X224200534Y-156875775D01*
X224053770Y-156936567D01*
X223997743Y-156947711D01*
X223885690Y-156970000D01*
X223714310Y-156970000D01*
X223602257Y-156947711D01*
X223546230Y-156936567D01*
X223399466Y-156875775D01*
X223387902Y-156870985D01*
X223387901Y-156870985D01*
X223387900Y-156870984D01*
X223245407Y-156775773D01*
X223124227Y-156654593D01*
X223029016Y-156512100D01*
X222963433Y-156353770D01*
X222948515Y-156278769D01*
X222930000Y-156185690D01*
X222930000Y-156014310D01*
X222963433Y-155846231D01*
X222987594Y-155787902D01*
X223029016Y-155687900D01*
X223124227Y-155545407D01*
X223245407Y-155424227D01*
X223387900Y-155329016D01*
X223399935Y-155324031D01*
X223434274Y-155309807D01*
X223546230Y-155263433D01*
X223602257Y-155252289D01*
X223714310Y-155230000D01*
X223885690Y-155230000D01*
X223997743Y-155252289D01*
X223997743Y-155252289D01*
G37*
G36*
X213997743Y-155252289D02*
X214053770Y-155263433D01*
X214165726Y-155309807D01*
X214200066Y-155324031D01*
X214212100Y-155329016D01*
X214354593Y-155424227D01*
X214475773Y-155545407D01*
X214570984Y-155687900D01*
X214612407Y-155787902D01*
X214636567Y-155846231D01*
X214670000Y-156014310D01*
X214670000Y-156185690D01*
X214651485Y-156278769D01*
X214636567Y-156353770D01*
X214570984Y-156512100D01*
X214475773Y-156654593D01*
X214354593Y-156775773D01*
X214212100Y-156870984D01*
X214212099Y-156870985D01*
X214212098Y-156870985D01*
X214200534Y-156875775D01*
X214053770Y-156936567D01*
X213997743Y-156947711D01*
X213885690Y-156970000D01*
X213714310Y-156970000D01*
X213602257Y-156947711D01*
X213546230Y-156936567D01*
X213399466Y-156875775D01*
X213387902Y-156870985D01*
X213387901Y-156870985D01*
X213387900Y-156870984D01*
X213245407Y-156775773D01*
X213124227Y-156654593D01*
X213029016Y-156512100D01*
X212963433Y-156353770D01*
X212948515Y-156278769D01*
X212930000Y-156185690D01*
X212930000Y-156014310D01*
X212963433Y-155846231D01*
X212987594Y-155787902D01*
X213029016Y-155687900D01*
X213124227Y-155545407D01*
X213245407Y-155424227D01*
X213387900Y-155329016D01*
X213399935Y-155324031D01*
X213434274Y-155309807D01*
X213546230Y-155263433D01*
X213602257Y-155252289D01*
X213714310Y-155230000D01*
X213885690Y-155230000D01*
X213997743Y-155252289D01*
X213997743Y-155252289D01*
G37*
G36*
X272472743Y-155177289D02*
X272528770Y-155188433D01*
X272687100Y-155254016D01*
X272829593Y-155349227D01*
X272950773Y-155470407D01*
X273044251Y-155610306D01*
X273045985Y-155612902D01*
X273111567Y-155771231D01*
X273145000Y-155939310D01*
X273145000Y-156110690D01*
X273125453Y-156208961D01*
X273111567Y-156278770D01*
X273045984Y-156437100D01*
X272950773Y-156579593D01*
X272829593Y-156700773D01*
X272687100Y-156795984D01*
X272687099Y-156795985D01*
X272687098Y-156795985D01*
X272640726Y-156815193D01*
X272528770Y-156861567D01*
X272481427Y-156870984D01*
X272360690Y-156895000D01*
X272189310Y-156895000D01*
X272068573Y-156870984D01*
X272021230Y-156861567D01*
X271909274Y-156815193D01*
X271862902Y-156795985D01*
X271862901Y-156795985D01*
X271862900Y-156795984D01*
X271720407Y-156700773D01*
X271599227Y-156579593D01*
X271504016Y-156437100D01*
X271438433Y-156278770D01*
X271424547Y-156208961D01*
X271405000Y-156110690D01*
X271405000Y-155939310D01*
X271438433Y-155771231D01*
X271504015Y-155612902D01*
X271505750Y-155610306D01*
X271599227Y-155470407D01*
X271720407Y-155349227D01*
X271862900Y-155254016D01*
X272021230Y-155188433D01*
X272077257Y-155177289D01*
X272189310Y-155155000D01*
X272360690Y-155155000D01*
X272472743Y-155177289D01*
X272472743Y-155177289D01*
G37*
G36*
X270472743Y-155177289D02*
X270528770Y-155188433D01*
X270687100Y-155254016D01*
X270829593Y-155349227D01*
X270950773Y-155470407D01*
X271044251Y-155610306D01*
X271045985Y-155612902D01*
X271111567Y-155771231D01*
X271145000Y-155939310D01*
X271145000Y-156110690D01*
X271125453Y-156208961D01*
X271111567Y-156278770D01*
X271045984Y-156437100D01*
X270950773Y-156579593D01*
X270829593Y-156700773D01*
X270687100Y-156795984D01*
X270687099Y-156795985D01*
X270687098Y-156795985D01*
X270640726Y-156815193D01*
X270528770Y-156861567D01*
X270481427Y-156870984D01*
X270360690Y-156895000D01*
X270189310Y-156895000D01*
X270068573Y-156870984D01*
X270021230Y-156861567D01*
X269909274Y-156815193D01*
X269862902Y-156795985D01*
X269862901Y-156795985D01*
X269862900Y-156795984D01*
X269720407Y-156700773D01*
X269599227Y-156579593D01*
X269504016Y-156437100D01*
X269438433Y-156278770D01*
X269424547Y-156208961D01*
X269405000Y-156110690D01*
X269405000Y-155939310D01*
X269438433Y-155771231D01*
X269504015Y-155612902D01*
X269505750Y-155610306D01*
X269599227Y-155470407D01*
X269720407Y-155349227D01*
X269862900Y-155254016D01*
X270021230Y-155188433D01*
X270077257Y-155177289D01*
X270189310Y-155155000D01*
X270360690Y-155155000D01*
X270472743Y-155177289D01*
X270472743Y-155177289D01*
G37*
G36*
X268472743Y-155177289D02*
X268528770Y-155188433D01*
X268687100Y-155254016D01*
X268829593Y-155349227D01*
X268950773Y-155470407D01*
X269044251Y-155610306D01*
X269045985Y-155612902D01*
X269111567Y-155771231D01*
X269145000Y-155939310D01*
X269145000Y-156110690D01*
X269125453Y-156208961D01*
X269111567Y-156278770D01*
X269045984Y-156437100D01*
X268950773Y-156579593D01*
X268829593Y-156700773D01*
X268687100Y-156795984D01*
X268687099Y-156795985D01*
X268687098Y-156795985D01*
X268640726Y-156815193D01*
X268528770Y-156861567D01*
X268481427Y-156870984D01*
X268360690Y-156895000D01*
X268189310Y-156895000D01*
X268068573Y-156870984D01*
X268021230Y-156861567D01*
X267909274Y-156815193D01*
X267862902Y-156795985D01*
X267862901Y-156795985D01*
X267862900Y-156795984D01*
X267720407Y-156700773D01*
X267599227Y-156579593D01*
X267504016Y-156437100D01*
X267438433Y-156278770D01*
X267424547Y-156208961D01*
X267405000Y-156110690D01*
X267405000Y-155939310D01*
X267438433Y-155771231D01*
X267504015Y-155612902D01*
X267505750Y-155610306D01*
X267599227Y-155470407D01*
X267720407Y-155349227D01*
X267862900Y-155254016D01*
X268021230Y-155188433D01*
X268077257Y-155177289D01*
X268189310Y-155155000D01*
X268360690Y-155155000D01*
X268472743Y-155177289D01*
X268472743Y-155177289D01*
G37*
G36*
X266472743Y-155177289D02*
X266528770Y-155188433D01*
X266687100Y-155254016D01*
X266829593Y-155349227D01*
X266950773Y-155470407D01*
X267044251Y-155610306D01*
X267045985Y-155612902D01*
X267111567Y-155771231D01*
X267145000Y-155939310D01*
X267145000Y-156110690D01*
X267125453Y-156208961D01*
X267111567Y-156278770D01*
X267045984Y-156437100D01*
X266950773Y-156579593D01*
X266829593Y-156700773D01*
X266687100Y-156795984D01*
X266687099Y-156795985D01*
X266687098Y-156795985D01*
X266640726Y-156815193D01*
X266528770Y-156861567D01*
X266481427Y-156870984D01*
X266360690Y-156895000D01*
X266189310Y-156895000D01*
X266068573Y-156870984D01*
X266021230Y-156861567D01*
X265909274Y-156815193D01*
X265862902Y-156795985D01*
X265862901Y-156795985D01*
X265862900Y-156795984D01*
X265720407Y-156700773D01*
X265599227Y-156579593D01*
X265504016Y-156437100D01*
X265438433Y-156278770D01*
X265424547Y-156208961D01*
X265405000Y-156110690D01*
X265405000Y-155939310D01*
X265438433Y-155771231D01*
X265504015Y-155612902D01*
X265505750Y-155610306D01*
X265599227Y-155470407D01*
X265720407Y-155349227D01*
X265862900Y-155254016D01*
X266021230Y-155188433D01*
X266077257Y-155177289D01*
X266189310Y-155155000D01*
X266360690Y-155155000D01*
X266472743Y-155177289D01*
X266472743Y-155177289D01*
G37*
G36*
X175355687Y-154262039D02*
X175559522Y-154346470D01*
X175711872Y-154448268D01*
X175742958Y-154469039D01*
X175898961Y-154625042D01*
X175898963Y-154625045D01*
X176021530Y-154808478D01*
X176105961Y-155012313D01*
X176149000Y-155228687D01*
X176149000Y-155449313D01*
X176105961Y-155665687D01*
X176021530Y-155869522D01*
X175900421Y-156050773D01*
X175898961Y-156052958D01*
X175742958Y-156208961D01*
X175742955Y-156208963D01*
X175559522Y-156331530D01*
X175355687Y-156415961D01*
X175139313Y-156459000D01*
X174918687Y-156459000D01*
X174702313Y-156415961D01*
X174498478Y-156331530D01*
X174315045Y-156208963D01*
X174315042Y-156208961D01*
X174159039Y-156052958D01*
X174157579Y-156050773D01*
X174036470Y-155869522D01*
X173952039Y-155665687D01*
X173909000Y-155449313D01*
X173909000Y-155228687D01*
X173952039Y-155012313D01*
X174036470Y-154808478D01*
X174159037Y-154625045D01*
X174159039Y-154625042D01*
X174315042Y-154469039D01*
X174346128Y-154448268D01*
X174498478Y-154346470D01*
X174702313Y-154262039D01*
X174918687Y-154219000D01*
X175139313Y-154219000D01*
X175355687Y-154262039D01*
X175355687Y-154262039D01*
G37*
G36*
X193897687Y-154262039D02*
X194101522Y-154346470D01*
X194253872Y-154448268D01*
X194284958Y-154469039D01*
X194440961Y-154625042D01*
X194440963Y-154625045D01*
X194563530Y-154808478D01*
X194647961Y-155012313D01*
X194691000Y-155228687D01*
X194691000Y-155449313D01*
X194647961Y-155665687D01*
X194563530Y-155869522D01*
X194442421Y-156050773D01*
X194440961Y-156052958D01*
X194284958Y-156208961D01*
X194284955Y-156208963D01*
X194101522Y-156331530D01*
X193897687Y-156415961D01*
X193681313Y-156459000D01*
X193460687Y-156459000D01*
X193244313Y-156415961D01*
X193040478Y-156331530D01*
X192857045Y-156208963D01*
X192857042Y-156208961D01*
X192701039Y-156052958D01*
X192699579Y-156050773D01*
X192578470Y-155869522D01*
X192494039Y-155665687D01*
X192451000Y-155449313D01*
X192451000Y-155228687D01*
X192494039Y-155012313D01*
X192578470Y-154808478D01*
X192701037Y-154625045D01*
X192701039Y-154625042D01*
X192857042Y-154469039D01*
X192888128Y-154448268D01*
X193040478Y-154346470D01*
X193244313Y-154262039D01*
X193460687Y-154219000D01*
X193681313Y-154219000D01*
X193897687Y-154262039D01*
X193897687Y-154262039D01*
G37*
G36*
X304397743Y-154527289D02*
X304453770Y-154538433D01*
X304612100Y-154604016D01*
X304754593Y-154699227D01*
X304875773Y-154820407D01*
X304970984Y-154962900D01*
X305036567Y-155121230D01*
X305039914Y-155138055D01*
X305070000Y-155289310D01*
X305070000Y-155460690D01*
X305060235Y-155509781D01*
X305036567Y-155628770D01*
X304970984Y-155787100D01*
X304875773Y-155929593D01*
X304754593Y-156050773D01*
X304612100Y-156145984D01*
X304612099Y-156145985D01*
X304612098Y-156145985D01*
X304598221Y-156151733D01*
X304453770Y-156211567D01*
X304397743Y-156222711D01*
X304285690Y-156245000D01*
X304114310Y-156245000D01*
X304002257Y-156222711D01*
X303946230Y-156211567D01*
X303801779Y-156151733D01*
X303787902Y-156145985D01*
X303787901Y-156145985D01*
X303787900Y-156145984D01*
X303645407Y-156050773D01*
X303524227Y-155929593D01*
X303429016Y-155787100D01*
X303363433Y-155628770D01*
X303339765Y-155509781D01*
X303330000Y-155460690D01*
X303330000Y-155289310D01*
X303360086Y-155138055D01*
X303363433Y-155121230D01*
X303429016Y-154962900D01*
X303524227Y-154820407D01*
X303645407Y-154699227D01*
X303787900Y-154604016D01*
X303946230Y-154538433D01*
X304002257Y-154527289D01*
X304114310Y-154505000D01*
X304285690Y-154505000D01*
X304397743Y-154527289D01*
X304397743Y-154527289D01*
G37*
G36*
X286220000Y-155620000D02*
X284680000Y-155620000D01*
X284680000Y-151980000D01*
X286220000Y-151980000D01*
X286220000Y-155620000D01*
X286220000Y-155620000D01*
G37*
G36*
X294920000Y-155620000D02*
X293380000Y-155620000D01*
X293380000Y-151980000D01*
X294920000Y-151980000D01*
X294920000Y-155620000D01*
X294920000Y-155620000D01*
G37*
G36*
X260031342Y-154289694D02*
X260157638Y-154328006D01*
X260274031Y-154390219D01*
X260376053Y-154473947D01*
X260459781Y-154575969D01*
X260521994Y-154692362D01*
X260560306Y-154818658D01*
X260573242Y-154950000D01*
X260560306Y-155081342D01*
X260521994Y-155207638D01*
X260459781Y-155324031D01*
X260376053Y-155426053D01*
X260274031Y-155509781D01*
X260157638Y-155571994D01*
X260031342Y-155610306D01*
X259932917Y-155620000D01*
X258767083Y-155620000D01*
X258668658Y-155610306D01*
X258542362Y-155571994D01*
X258425969Y-155509781D01*
X258323947Y-155426053D01*
X258240219Y-155324031D01*
X258178006Y-155207638D01*
X258139694Y-155081342D01*
X258126758Y-154950000D01*
X258139694Y-154818658D01*
X258178006Y-154692362D01*
X258240219Y-154575969D01*
X258323947Y-154473947D01*
X258425969Y-154390219D01*
X258542362Y-154328006D01*
X258668658Y-154289694D01*
X258767083Y-154280000D01*
X259932917Y-154280000D01*
X260031342Y-154289694D01*
X260031342Y-154289694D01*
G37*
G36*
X244540465Y-153793835D02*
X244610016Y-153807669D01*
X244741048Y-153861944D01*
X244858973Y-153940739D01*
X244959261Y-154041027D01*
X245038056Y-154158952D01*
X245092331Y-154289984D01*
X245120000Y-154429086D01*
X245120000Y-154570914D01*
X245092331Y-154710016D01*
X245038056Y-154841048D01*
X244959261Y-154958973D01*
X244858973Y-155059261D01*
X244741048Y-155138056D01*
X244610016Y-155192331D01*
X244540465Y-155206166D01*
X244470916Y-155220000D01*
X244329084Y-155220000D01*
X244259535Y-155206166D01*
X244189984Y-155192331D01*
X244058952Y-155138056D01*
X243941027Y-155059261D01*
X243840739Y-154958973D01*
X243761944Y-154841048D01*
X243707669Y-154710016D01*
X243680000Y-154570914D01*
X243680000Y-154429086D01*
X243707669Y-154289984D01*
X243761944Y-154158952D01*
X243840739Y-154041027D01*
X243941027Y-153940739D01*
X244058952Y-153861944D01*
X244189984Y-153807669D01*
X244259535Y-153793835D01*
X244329084Y-153780000D01*
X244470916Y-153780000D01*
X244540465Y-153793835D01*
X244540465Y-153793835D01*
G37*
G36*
X253540465Y-153793835D02*
X253610016Y-153807669D01*
X253741048Y-153861944D01*
X253858973Y-153940739D01*
X253959261Y-154041027D01*
X254038056Y-154158952D01*
X254092331Y-154289984D01*
X254120000Y-154429086D01*
X254120000Y-154570914D01*
X254092331Y-154710016D01*
X254038056Y-154841048D01*
X253959261Y-154958973D01*
X253858973Y-155059261D01*
X253741048Y-155138056D01*
X253610016Y-155192331D01*
X253540465Y-155206166D01*
X253470916Y-155220000D01*
X253329084Y-155220000D01*
X253259535Y-155206166D01*
X253189984Y-155192331D01*
X253058952Y-155138056D01*
X252941027Y-155059261D01*
X252840739Y-154958973D01*
X252761944Y-154841048D01*
X252707669Y-154710016D01*
X252680000Y-154570914D01*
X252680000Y-154429086D01*
X252707669Y-154289984D01*
X252761944Y-154158952D01*
X252840739Y-154041027D01*
X252941027Y-153940739D01*
X253058952Y-153861944D01*
X253189984Y-153807669D01*
X253259535Y-153793835D01*
X253329084Y-153780000D01*
X253470916Y-153780000D01*
X253540465Y-153793835D01*
X253540465Y-153793835D01*
G37*
G36*
X237231935Y-153424884D02*
X237390369Y-153490510D01*
X237532311Y-153585353D01*
X237532956Y-153585784D01*
X237654216Y-153707044D01*
X237654218Y-153707047D01*
X237749490Y-153849631D01*
X237815116Y-154008065D01*
X237848570Y-154176254D01*
X237848570Y-154347746D01*
X237815116Y-154515935D01*
X237749490Y-154674369D01*
X237659881Y-154808478D01*
X237654216Y-154816956D01*
X237532956Y-154938216D01*
X237532953Y-154938218D01*
X237390369Y-155033490D01*
X237231935Y-155099116D01*
X237063746Y-155132570D01*
X236892254Y-155132570D01*
X236724065Y-155099116D01*
X236565631Y-155033490D01*
X236423047Y-154938218D01*
X236423044Y-154938216D01*
X236301784Y-154816956D01*
X236296119Y-154808478D01*
X236206510Y-154674369D01*
X236140884Y-154515935D01*
X236107430Y-154347746D01*
X236107430Y-154176254D01*
X236140884Y-154008065D01*
X236206510Y-153849631D01*
X236301782Y-153707047D01*
X236301784Y-153707044D01*
X236423044Y-153585784D01*
X236423689Y-153585353D01*
X236565631Y-153490510D01*
X236724065Y-153424884D01*
X236892254Y-153391430D01*
X237063746Y-153391430D01*
X237231935Y-153424884D01*
X237231935Y-153424884D01*
G37*
G36*
X273915465Y-153618835D02*
X273985016Y-153632669D01*
X274116048Y-153686944D01*
X274233973Y-153765739D01*
X274334261Y-153866027D01*
X274413056Y-153983952D01*
X274467331Y-154114984D01*
X274476077Y-154158952D01*
X274486543Y-154211567D01*
X274495000Y-154254086D01*
X274495000Y-154395914D01*
X274467331Y-154535016D01*
X274413056Y-154666048D01*
X274334261Y-154783973D01*
X274233973Y-154884261D01*
X274116048Y-154963056D01*
X273985016Y-155017331D01*
X273915465Y-155031166D01*
X273845916Y-155045000D01*
X273704084Y-155045000D01*
X273634535Y-155031166D01*
X273564984Y-155017331D01*
X273433952Y-154963056D01*
X273316027Y-154884261D01*
X273215739Y-154783973D01*
X273136944Y-154666048D01*
X273082669Y-154535016D01*
X273055000Y-154395914D01*
X273055000Y-154254086D01*
X273063458Y-154211567D01*
X273073923Y-154158952D01*
X273082669Y-154114984D01*
X273136944Y-153983952D01*
X273215739Y-153866027D01*
X273316027Y-153765739D01*
X273433952Y-153686944D01*
X273564984Y-153632669D01*
X273634535Y-153618835D01*
X273704084Y-153605000D01*
X273845916Y-153605000D01*
X273915465Y-153618835D01*
X273915465Y-153618835D01*
G37*
G36*
X264915465Y-153618835D02*
X264985016Y-153632669D01*
X265116048Y-153686944D01*
X265233973Y-153765739D01*
X265334261Y-153866027D01*
X265413056Y-153983952D01*
X265467331Y-154114984D01*
X265476077Y-154158952D01*
X265486543Y-154211567D01*
X265495000Y-154254086D01*
X265495000Y-154395914D01*
X265467331Y-154535016D01*
X265413056Y-154666048D01*
X265334261Y-154783973D01*
X265233973Y-154884261D01*
X265116048Y-154963056D01*
X264985016Y-155017331D01*
X264915465Y-155031166D01*
X264845916Y-155045000D01*
X264704084Y-155045000D01*
X264634535Y-155031166D01*
X264564984Y-155017331D01*
X264433952Y-154963056D01*
X264316027Y-154884261D01*
X264215739Y-154783973D01*
X264136944Y-154666048D01*
X264082669Y-154535016D01*
X264055000Y-154395914D01*
X264055000Y-154254086D01*
X264063458Y-154211567D01*
X264073923Y-154158952D01*
X264082669Y-154114984D01*
X264136944Y-153983952D01*
X264215739Y-153866027D01*
X264316027Y-153765739D01*
X264433952Y-153686944D01*
X264564984Y-153632669D01*
X264634535Y-153618835D01*
X264704084Y-153605000D01*
X264845916Y-153605000D01*
X264915465Y-153618835D01*
X264915465Y-153618835D01*
G37*
G36*
X276570000Y-154670000D02*
X275030000Y-154670000D01*
X275030000Y-152880000D01*
X276570000Y-152880000D01*
X276570000Y-154670000D01*
X276570000Y-154670000D01*
G37*
G36*
X281070000Y-154670000D02*
X279530000Y-154670000D01*
X279530000Y-152880000D01*
X281070000Y-152880000D01*
X281070000Y-154670000D01*
X281070000Y-154670000D01*
G37*
G36*
X304397743Y-152527289D02*
X304453770Y-152538433D01*
X304612100Y-152604016D01*
X304754593Y-152699227D01*
X304875773Y-152820407D01*
X304970984Y-152962900D01*
X305030999Y-153107787D01*
X305036567Y-153121231D01*
X305070000Y-153289310D01*
X305070000Y-153460690D01*
X305062193Y-153499936D01*
X305036567Y-153628770D01*
X304970984Y-153787100D01*
X304875773Y-153929593D01*
X304754593Y-154050773D01*
X304612100Y-154145984D01*
X304453770Y-154211567D01*
X304416401Y-154219000D01*
X304285690Y-154245000D01*
X304114310Y-154245000D01*
X303983599Y-154219000D01*
X303946230Y-154211567D01*
X303787900Y-154145984D01*
X303645407Y-154050773D01*
X303524227Y-153929593D01*
X303429016Y-153787100D01*
X303363433Y-153628770D01*
X303337807Y-153499936D01*
X303330000Y-153460690D01*
X303330000Y-153289310D01*
X303363433Y-153121231D01*
X303369002Y-153107787D01*
X303429016Y-152962900D01*
X303524227Y-152820407D01*
X303645407Y-152699227D01*
X303787900Y-152604016D01*
X303946230Y-152538433D01*
X304002257Y-152527289D01*
X304114310Y-152505000D01*
X304285690Y-152505000D01*
X304397743Y-152527289D01*
X304397743Y-152527289D01*
G37*
G36*
X235453935Y-152408884D02*
X235612369Y-152474510D01*
X235708036Y-152538433D01*
X235754956Y-152569784D01*
X235876216Y-152691044D01*
X235876218Y-152691047D01*
X235971490Y-152833631D01*
X236037116Y-152992065D01*
X236070570Y-153160254D01*
X236070570Y-153331746D01*
X236037116Y-153499935D01*
X235971490Y-153658369D01*
X235899747Y-153765739D01*
X235876216Y-153800956D01*
X235754956Y-153922216D01*
X235754953Y-153922218D01*
X235612369Y-154017490D01*
X235453935Y-154083116D01*
X235285746Y-154116570D01*
X235114254Y-154116570D01*
X234946065Y-154083116D01*
X234787631Y-154017490D01*
X234645047Y-153922218D01*
X234645044Y-153922216D01*
X234523784Y-153800956D01*
X234500253Y-153765739D01*
X234428510Y-153658369D01*
X234362884Y-153499935D01*
X234329430Y-153331746D01*
X234329430Y-153160254D01*
X234362884Y-152992065D01*
X234428510Y-152833631D01*
X234523782Y-152691047D01*
X234523784Y-152691044D01*
X234645044Y-152569784D01*
X234691964Y-152538433D01*
X234787631Y-152474510D01*
X234946065Y-152408884D01*
X235114254Y-152375430D01*
X235285746Y-152375430D01*
X235453935Y-152408884D01*
X235453935Y-152408884D01*
G37*
G36*
X315651732Y-147492213D02*
X315821103Y-147562369D01*
X316183139Y-147712329D01*
X316661392Y-148031888D01*
X317068112Y-148438608D01*
X317387671Y-148916861D01*
X317423398Y-149003114D01*
X317607787Y-149448268D01*
X317720000Y-150012403D01*
X317720000Y-150587597D01*
X317607787Y-151151732D01*
X317480715Y-151458510D01*
X317387671Y-151683139D01*
X317068112Y-152161392D01*
X316661392Y-152568112D01*
X316183139Y-152887671D01*
X316001515Y-152962902D01*
X315651732Y-153107787D01*
X315087597Y-153220000D01*
X314512403Y-153220000D01*
X313948268Y-153107787D01*
X313598485Y-152962902D01*
X313416861Y-152887671D01*
X312938608Y-152568112D01*
X312531888Y-152161392D01*
X312212329Y-151683139D01*
X312119285Y-151458510D01*
X311992213Y-151151732D01*
X311880000Y-150587597D01*
X311880000Y-150012403D01*
X311992213Y-149448268D01*
X312176602Y-149003114D01*
X312212329Y-148916861D01*
X312531888Y-148438608D01*
X312938608Y-148031888D01*
X313416861Y-147712329D01*
X313778897Y-147562369D01*
X313948268Y-147492213D01*
X314512403Y-147380000D01*
X315087597Y-147380000D01*
X315651732Y-147492213D01*
X315651732Y-147492213D01*
G37*
G36*
X237231935Y-151392884D02*
X237390369Y-151458510D01*
X237532311Y-151553353D01*
X237532956Y-151553784D01*
X237654216Y-151675044D01*
X237654218Y-151675047D01*
X237749490Y-151817631D01*
X237815116Y-151976065D01*
X237848570Y-152144254D01*
X237848570Y-152315746D01*
X237815116Y-152483935D01*
X237749490Y-152642369D01*
X237702744Y-152712329D01*
X237654216Y-152784956D01*
X237532956Y-152906216D01*
X237532953Y-152906218D01*
X237390369Y-153001490D01*
X237231935Y-153067116D01*
X237063746Y-153100570D01*
X236892254Y-153100570D01*
X236724065Y-153067116D01*
X236565631Y-153001490D01*
X236423047Y-152906218D01*
X236423044Y-152906216D01*
X236301784Y-152784956D01*
X236253256Y-152712329D01*
X236206510Y-152642369D01*
X236140884Y-152483935D01*
X236107430Y-152315746D01*
X236107430Y-152144254D01*
X236140884Y-151976065D01*
X236206510Y-151817631D01*
X236301782Y-151675047D01*
X236301784Y-151675044D01*
X236423044Y-151553784D01*
X236423689Y-151553353D01*
X236565631Y-151458510D01*
X236724065Y-151392884D01*
X236892254Y-151359430D01*
X237063746Y-151359430D01*
X237231935Y-151392884D01*
X237231935Y-151392884D01*
G37*
G36*
X304397743Y-150527289D02*
X304453770Y-150538433D01*
X304612100Y-150604016D01*
X304754593Y-150699227D01*
X304875773Y-150820407D01*
X304970984Y-150962900D01*
X305036567Y-151121230D01*
X305042634Y-151151732D01*
X305070000Y-151289310D01*
X305070000Y-151460690D01*
X305068148Y-151470000D01*
X305036567Y-151628770D01*
X304970984Y-151787100D01*
X304875773Y-151929593D01*
X304754593Y-152050773D01*
X304612100Y-152145984D01*
X304453770Y-152211567D01*
X304397743Y-152222711D01*
X304285690Y-152245000D01*
X304114310Y-152245000D01*
X304002257Y-152222711D01*
X303946230Y-152211567D01*
X303787900Y-152145984D01*
X303645407Y-152050773D01*
X303524227Y-151929593D01*
X303429016Y-151787100D01*
X303363433Y-151628770D01*
X303331852Y-151470000D01*
X303330000Y-151460690D01*
X303330000Y-151289310D01*
X303357366Y-151151732D01*
X303363433Y-151121230D01*
X303429016Y-150962900D01*
X303524227Y-150820407D01*
X303645407Y-150699227D01*
X303787900Y-150604016D01*
X303946230Y-150538433D01*
X304002257Y-150527289D01*
X304114310Y-150505000D01*
X304285690Y-150505000D01*
X304397743Y-150527289D01*
X304397743Y-150527289D01*
G37*
G36*
X235453935Y-150376884D02*
X235612369Y-150442510D01*
X235705891Y-150505000D01*
X235754956Y-150537784D01*
X235876216Y-150659044D01*
X235876218Y-150659047D01*
X235971490Y-150801631D01*
X236037116Y-150960065D01*
X236070570Y-151128254D01*
X236070570Y-151299746D01*
X236037116Y-151467935D01*
X235971490Y-151626369D01*
X235933557Y-151683139D01*
X235876216Y-151768956D01*
X235754956Y-151890216D01*
X235754953Y-151890218D01*
X235612369Y-151985490D01*
X235453935Y-152051116D01*
X235285746Y-152084570D01*
X235114254Y-152084570D01*
X234946065Y-152051116D01*
X234787631Y-151985490D01*
X234645047Y-151890218D01*
X234645044Y-151890216D01*
X234523784Y-151768956D01*
X234466443Y-151683139D01*
X234428510Y-151626369D01*
X234362884Y-151467935D01*
X234329430Y-151299746D01*
X234329430Y-151128254D01*
X234362884Y-150960065D01*
X234428510Y-150801631D01*
X234523782Y-150659047D01*
X234523784Y-150659044D01*
X234645044Y-150537784D01*
X234694109Y-150505000D01*
X234787631Y-150442510D01*
X234946065Y-150376884D01*
X235114254Y-150343430D01*
X235285746Y-150343430D01*
X235453935Y-150376884D01*
X235453935Y-150376884D01*
G37*
G36*
X226520000Y-151470000D02*
X224680000Y-151470000D01*
X224680000Y-147730000D01*
X226520000Y-147730000D01*
X226520000Y-151470000D01*
X226520000Y-151470000D01*
G37*
G36*
X237231935Y-149360884D02*
X237390369Y-149426510D01*
X237532311Y-149521353D01*
X237532956Y-149521784D01*
X237654216Y-149643044D01*
X237654218Y-149643047D01*
X237749490Y-149785631D01*
X237815116Y-149944065D01*
X237848570Y-150112254D01*
X237848570Y-150283746D01*
X237815116Y-150451935D01*
X237749490Y-150610369D01*
X237654647Y-150752311D01*
X237654216Y-150752956D01*
X237532956Y-150874216D01*
X237532953Y-150874218D01*
X237390369Y-150969490D01*
X237231935Y-151035116D01*
X237063746Y-151068570D01*
X236892254Y-151068570D01*
X236724065Y-151035116D01*
X236565631Y-150969490D01*
X236423047Y-150874218D01*
X236423044Y-150874216D01*
X236301784Y-150752956D01*
X236301353Y-150752311D01*
X236206510Y-150610369D01*
X236140884Y-150451935D01*
X236107430Y-150283746D01*
X236107430Y-150112254D01*
X236140884Y-149944065D01*
X236206510Y-149785631D01*
X236301782Y-149643047D01*
X236301784Y-149643044D01*
X236423044Y-149521784D01*
X236423689Y-149521353D01*
X236565631Y-149426510D01*
X236724065Y-149360884D01*
X236892254Y-149327430D01*
X237063746Y-149327430D01*
X237231935Y-149360884D01*
X237231935Y-149360884D01*
G37*
G36*
X304397743Y-148527289D02*
X304453770Y-148538433D01*
X304612100Y-148604016D01*
X304754593Y-148699227D01*
X304875773Y-148820407D01*
X304970984Y-148962900D01*
X305026222Y-149096254D01*
X305036567Y-149121231D01*
X305070000Y-149289310D01*
X305070000Y-149460690D01*
X305047711Y-149572743D01*
X305036567Y-149628770D01*
X304990193Y-149740726D01*
X304971593Y-149785631D01*
X304970984Y-149787100D01*
X304875773Y-149929593D01*
X304754593Y-150050773D01*
X304612100Y-150145984D01*
X304453770Y-150211567D01*
X304397743Y-150222711D01*
X304285690Y-150245000D01*
X304114310Y-150245000D01*
X304002257Y-150222711D01*
X303946230Y-150211567D01*
X303787900Y-150145984D01*
X303645407Y-150050773D01*
X303524227Y-149929593D01*
X303429016Y-149787100D01*
X303428408Y-149785631D01*
X303409807Y-149740726D01*
X303363433Y-149628770D01*
X303352289Y-149572743D01*
X303330000Y-149460690D01*
X303330000Y-149289310D01*
X303363433Y-149121231D01*
X303373779Y-149096254D01*
X303429016Y-148962900D01*
X303524227Y-148820407D01*
X303645407Y-148699227D01*
X303787900Y-148604016D01*
X303946230Y-148538433D01*
X304002257Y-148527289D01*
X304114310Y-148505000D01*
X304285690Y-148505000D01*
X304397743Y-148527289D01*
X304397743Y-148527289D01*
G37*
G36*
X197695000Y-150070000D02*
X196755000Y-150070000D01*
X196755000Y-148530000D01*
X197695000Y-148530000D01*
X197695000Y-150070000D01*
X197695000Y-150070000D01*
G37*
G36*
X200895000Y-150070000D02*
X199955000Y-150070000D01*
X199955000Y-148530000D01*
X200895000Y-148530000D01*
X200895000Y-150070000D01*
X200895000Y-150070000D01*
G37*
G36*
X202795000Y-150070000D02*
X201855000Y-150070000D01*
X201855000Y-148530000D01*
X202795000Y-148530000D01*
X202795000Y-150070000D01*
X202795000Y-150070000D01*
G37*
G36*
X199595000Y-150070000D02*
X198655000Y-150070000D01*
X198655000Y-148530000D01*
X199595000Y-148530000D01*
X199595000Y-150070000D01*
X199595000Y-150070000D01*
G37*
G36*
X207302136Y-150063605D02*
X206362136Y-150063605D01*
X206362136Y-148523605D01*
X207302136Y-148523605D01*
X207302136Y-150063605D01*
X207302136Y-150063605D01*
G37*
G36*
X209202136Y-150063605D02*
X208262136Y-150063605D01*
X208262136Y-148523605D01*
X209202136Y-148523605D01*
X209202136Y-150063605D01*
X209202136Y-150063605D01*
G37*
G36*
X206002136Y-150063605D02*
X205062136Y-150063605D01*
X205062136Y-148523605D01*
X206002136Y-148523605D01*
X206002136Y-150063605D01*
X206002136Y-150063605D01*
G37*
G36*
X204102136Y-150063605D02*
X203162136Y-150063605D01*
X203162136Y-148523605D01*
X204102136Y-148523605D01*
X204102136Y-150063605D01*
X204102136Y-150063605D01*
G37*
G36*
X235453935Y-148344884D02*
X235612369Y-148410510D01*
X235736437Y-148493410D01*
X235754956Y-148505784D01*
X235876216Y-148627044D01*
X235876218Y-148627047D01*
X235971490Y-148769631D01*
X236037116Y-148928065D01*
X236070570Y-149096254D01*
X236070570Y-149267746D01*
X236037116Y-149435935D01*
X235971490Y-149594369D01*
X235938966Y-149643044D01*
X235876216Y-149736956D01*
X235754956Y-149858216D01*
X235754953Y-149858218D01*
X235612369Y-149953490D01*
X235453935Y-150019116D01*
X235285746Y-150052570D01*
X235114254Y-150052570D01*
X234946065Y-150019116D01*
X234787631Y-149953490D01*
X234645047Y-149858218D01*
X234645044Y-149858216D01*
X234523784Y-149736956D01*
X234461034Y-149643044D01*
X234428510Y-149594369D01*
X234362884Y-149435935D01*
X234329430Y-149267746D01*
X234329430Y-149096254D01*
X234362884Y-148928065D01*
X234428510Y-148769631D01*
X234523782Y-148627047D01*
X234523784Y-148627044D01*
X234645044Y-148505784D01*
X234663563Y-148493410D01*
X234787631Y-148410510D01*
X234946065Y-148344884D01*
X235114254Y-148311430D01*
X235285746Y-148311430D01*
X235453935Y-148344884D01*
X235453935Y-148344884D01*
G37*
G36*
X247145000Y-149860000D02*
X245105000Y-149860000D01*
X245105000Y-148550000D01*
X247145000Y-148550000D01*
X247145000Y-149860000D01*
X247145000Y-149860000D01*
G37*
G36*
X249445000Y-149860000D02*
X247405000Y-149860000D01*
X247405000Y-148550000D01*
X249445000Y-148550000D01*
X249445000Y-149860000D01*
X249445000Y-149860000D01*
G37*
G36*
X266615450Y-149584310D02*
X265524550Y-149584310D01*
X265524550Y-148493410D01*
X266615450Y-148493410D01*
X266615450Y-149584310D01*
X266615450Y-149584310D01*
G37*
G36*
X237231935Y-147328884D02*
X237390369Y-147394510D01*
X237532311Y-147489353D01*
X237532956Y-147489784D01*
X237654216Y-147611044D01*
X237654218Y-147611047D01*
X237749490Y-147753631D01*
X237815116Y-147912065D01*
X237848570Y-148080254D01*
X237848570Y-148251746D01*
X237815116Y-148419935D01*
X237749490Y-148578369D01*
X237716966Y-148627044D01*
X237654216Y-148720956D01*
X237532956Y-148842216D01*
X237532953Y-148842218D01*
X237390369Y-148937490D01*
X237231935Y-149003116D01*
X237063746Y-149036570D01*
X236892254Y-149036570D01*
X236724065Y-149003116D01*
X236565631Y-148937490D01*
X236423047Y-148842218D01*
X236423044Y-148842216D01*
X236301784Y-148720956D01*
X236239034Y-148627044D01*
X236206510Y-148578369D01*
X236140884Y-148419935D01*
X236107430Y-148251746D01*
X236107430Y-148080254D01*
X236140884Y-147912065D01*
X236206510Y-147753631D01*
X236301782Y-147611047D01*
X236301784Y-147611044D01*
X236423044Y-147489784D01*
X236423689Y-147489353D01*
X236565631Y-147394510D01*
X236724065Y-147328884D01*
X236892254Y-147295430D01*
X237063746Y-147295430D01*
X237231935Y-147328884D01*
X237231935Y-147328884D01*
G37*
G36*
X258655000Y-148895000D02*
X257665000Y-148895000D01*
X257665000Y-147455000D01*
X258655000Y-147455000D01*
X258655000Y-148895000D01*
X258655000Y-148895000D01*
G37*
G36*
X263190000Y-148645000D02*
X261650000Y-148645000D01*
X261650000Y-147705000D01*
X263190000Y-147705000D01*
X263190000Y-148645000D01*
X263190000Y-148645000D01*
G37*
G36*
X176149000Y-148331000D02*
X173909000Y-148331000D01*
X173909000Y-146091000D01*
X176149000Y-146091000D01*
X176149000Y-148331000D01*
X176149000Y-148331000D01*
G37*
G36*
X194691000Y-148331000D02*
X192451000Y-148331000D01*
X192451000Y-146091000D01*
X194691000Y-146091000D01*
X194691000Y-148331000D01*
X194691000Y-148331000D01*
G37*
G36*
X304397743Y-146527289D02*
X304453770Y-146538433D01*
X304612100Y-146604016D01*
X304754593Y-146699227D01*
X304875773Y-146820407D01*
X304970984Y-146962900D01*
X305015347Y-147070000D01*
X305036567Y-147121231D01*
X305070000Y-147289310D01*
X305070000Y-147460690D01*
X305063729Y-147492214D01*
X305036567Y-147628770D01*
X304970984Y-147787100D01*
X304875773Y-147929593D01*
X304754593Y-148050773D01*
X304612100Y-148145984D01*
X304453770Y-148211567D01*
X304397743Y-148222711D01*
X304285690Y-148245000D01*
X304114310Y-148245000D01*
X304002257Y-148222711D01*
X303946230Y-148211567D01*
X303787900Y-148145984D01*
X303645407Y-148050773D01*
X303524227Y-147929593D01*
X303429016Y-147787100D01*
X303363433Y-147628770D01*
X303336271Y-147492214D01*
X303330000Y-147460690D01*
X303330000Y-147289310D01*
X303363433Y-147121231D01*
X303384654Y-147070000D01*
X303429016Y-146962900D01*
X303524227Y-146820407D01*
X303645407Y-146699227D01*
X303787900Y-146604016D01*
X303946230Y-146538433D01*
X304002257Y-146527289D01*
X304114310Y-146505000D01*
X304285690Y-146505000D01*
X304397743Y-146527289D01*
X304397743Y-146527289D01*
G37*
G36*
X235453935Y-146312884D02*
X235612369Y-146378510D01*
X235712551Y-146445450D01*
X235754956Y-146473784D01*
X235876216Y-146595044D01*
X235876218Y-146595047D01*
X235971490Y-146737631D01*
X236037116Y-146896065D01*
X236070570Y-147064254D01*
X236070570Y-147235746D01*
X236037116Y-147403935D01*
X235971490Y-147562369D01*
X235927122Y-147628770D01*
X235876216Y-147704956D01*
X235754956Y-147826216D01*
X235754953Y-147826218D01*
X235612369Y-147921490D01*
X235453935Y-147987116D01*
X235285746Y-148020570D01*
X235114254Y-148020570D01*
X234946065Y-147987116D01*
X234787631Y-147921490D01*
X234645047Y-147826218D01*
X234645044Y-147826216D01*
X234523784Y-147704956D01*
X234472878Y-147628770D01*
X234428510Y-147562369D01*
X234362884Y-147403935D01*
X234329430Y-147235746D01*
X234329430Y-147064254D01*
X234362884Y-146896065D01*
X234428510Y-146737631D01*
X234523782Y-146595047D01*
X234523784Y-146595044D01*
X234645044Y-146473784D01*
X234687449Y-146445450D01*
X234787631Y-146378510D01*
X234946065Y-146312884D01*
X235114254Y-146279430D01*
X235285746Y-146279430D01*
X235453935Y-146312884D01*
X235453935Y-146312884D01*
G37*
G36*
X295412547Y-143280701D02*
X295794722Y-143439003D01*
X295880125Y-143496068D01*
X296138672Y-143668823D01*
X296431177Y-143961328D01*
X296586850Y-144194310D01*
X296660997Y-144305278D01*
X296819299Y-144687453D01*
X296900000Y-145093166D01*
X296900000Y-145506834D01*
X296819299Y-145912547D01*
X296660997Y-146294722D01*
X296660996Y-146294723D01*
X296431177Y-146638672D01*
X296138672Y-146931177D01*
X295939508Y-147064254D01*
X295794722Y-147160997D01*
X295412547Y-147319299D01*
X295006834Y-147400000D01*
X294593166Y-147400000D01*
X294187453Y-147319299D01*
X293805278Y-147160997D01*
X293660492Y-147064254D01*
X293461328Y-146931177D01*
X293168823Y-146638672D01*
X292939004Y-146294723D01*
X292939003Y-146294722D01*
X292780701Y-145912547D01*
X292700000Y-145506834D01*
X292700000Y-145093166D01*
X292780701Y-144687453D01*
X292939003Y-144305278D01*
X293013150Y-144194310D01*
X293168823Y-143961328D01*
X293461328Y-143668823D01*
X293719875Y-143496068D01*
X293805278Y-143439003D01*
X294187453Y-143280701D01*
X294593166Y-143200000D01*
X295006834Y-143200000D01*
X295412547Y-143280701D01*
X295412547Y-143280701D01*
G37*
G36*
X313915465Y-145643835D02*
X313985016Y-145657669D01*
X314116048Y-145711944D01*
X314233973Y-145790739D01*
X314334261Y-145891027D01*
X314413056Y-146008952D01*
X314467331Y-146139984D01*
X314495000Y-146279086D01*
X314495000Y-146420914D01*
X314467331Y-146560016D01*
X314413056Y-146691048D01*
X314334261Y-146808973D01*
X314233973Y-146909261D01*
X314116048Y-146988056D01*
X313985016Y-147042331D01*
X313915465Y-147056165D01*
X313845916Y-147070000D01*
X313704084Y-147070000D01*
X313634535Y-147056165D01*
X313564984Y-147042331D01*
X313433952Y-146988056D01*
X313316027Y-146909261D01*
X313215739Y-146808973D01*
X313136944Y-146691048D01*
X313082669Y-146560016D01*
X313055000Y-146420914D01*
X313055000Y-146279086D01*
X313082669Y-146139984D01*
X313136944Y-146008952D01*
X313215739Y-145891027D01*
X313316027Y-145790739D01*
X313433952Y-145711944D01*
X313564984Y-145657669D01*
X313634535Y-145643835D01*
X313704084Y-145630000D01*
X313845916Y-145630000D01*
X313915465Y-145643835D01*
X313915465Y-145643835D01*
G37*
G36*
X258655000Y-146995000D02*
X257665000Y-146995000D01*
X257665000Y-145555000D01*
X258655000Y-145555000D01*
X258655000Y-146995000D01*
X258655000Y-146995000D01*
G37*
G36*
X249445000Y-146850000D02*
X247405000Y-146850000D01*
X247405000Y-145540000D01*
X249445000Y-145540000D01*
X249445000Y-146850000D01*
X249445000Y-146850000D01*
G37*
G36*
X247145000Y-146850000D02*
X245105000Y-146850000D01*
X245105000Y-145540000D01*
X247145000Y-145540000D01*
X247145000Y-146850000D01*
X247145000Y-146850000D01*
G37*
G36*
X263190000Y-146745000D02*
X261650000Y-146745000D01*
X261650000Y-145805000D01*
X263190000Y-145805000D01*
X263190000Y-146745000D01*
X263190000Y-146745000D01*
G37*
G36*
X276570000Y-146720000D02*
X275030000Y-146720000D01*
X275030000Y-144930000D01*
X276570000Y-144930000D01*
X276570000Y-146720000D01*
X276570000Y-146720000D01*
G37*
G36*
X281070000Y-146720000D02*
X279530000Y-146720000D01*
X279530000Y-144930000D01*
X281070000Y-144930000D01*
X281070000Y-146720000D01*
X281070000Y-146720000D01*
G37*
G36*
X306040465Y-145168835D02*
X306110016Y-145182669D01*
X306241048Y-145236944D01*
X306358973Y-145315739D01*
X306459261Y-145416027D01*
X306538056Y-145533952D01*
X306592331Y-145664984D01*
X306620000Y-145804086D01*
X306620000Y-145945914D01*
X306592331Y-146085016D01*
X306538056Y-146216048D01*
X306459261Y-146333973D01*
X306358973Y-146434261D01*
X306241048Y-146513056D01*
X306110016Y-146567331D01*
X306040465Y-146581166D01*
X305970916Y-146595000D01*
X305829084Y-146595000D01*
X305759535Y-146581166D01*
X305689984Y-146567331D01*
X305558952Y-146513056D01*
X305441027Y-146434261D01*
X305340739Y-146333973D01*
X305261944Y-146216048D01*
X305207669Y-146085016D01*
X305180000Y-145945914D01*
X305180000Y-145804086D01*
X305207669Y-145664984D01*
X305261944Y-145533952D01*
X305340739Y-145416027D01*
X305441027Y-145315739D01*
X305558952Y-145236944D01*
X305689984Y-145182669D01*
X305759535Y-145168835D01*
X305829084Y-145155000D01*
X305970916Y-145155000D01*
X306040465Y-145168835D01*
X306040465Y-145168835D01*
G37*
G36*
X202994310Y-146445450D02*
X201903410Y-146445450D01*
X201903410Y-145354550D01*
X202994310Y-145354550D01*
X202994310Y-146445450D01*
X202994310Y-146445450D01*
G37*
G36*
X199646590Y-146445450D02*
X198555690Y-146445450D01*
X198555690Y-145354550D01*
X199646590Y-145354550D01*
X199646590Y-146445450D01*
X199646590Y-146445450D01*
G37*
G36*
X209301446Y-146439055D02*
X208210546Y-146439055D01*
X208210546Y-145348155D01*
X209301446Y-145348155D01*
X209301446Y-146439055D01*
X209301446Y-146439055D01*
G37*
G36*
X205953726Y-146439055D02*
X204862826Y-146439055D01*
X204862826Y-145348155D01*
X205953726Y-145348155D01*
X205953726Y-146439055D01*
X205953726Y-146439055D01*
G37*
G36*
X266615450Y-146236590D02*
X265524550Y-146236590D01*
X265524550Y-145145690D01*
X266615450Y-145145690D01*
X266615450Y-146236590D01*
X266615450Y-146236590D01*
G37*
G36*
X233176289Y-142654019D02*
X233498408Y-142787445D01*
X233787324Y-142980493D01*
X233788309Y-142981151D01*
X234034849Y-143227691D01*
X234034851Y-143227694D01*
X234228555Y-143517592D01*
X234361981Y-143839711D01*
X234430000Y-144181668D01*
X234430000Y-144530332D01*
X234361981Y-144872289D01*
X234228555Y-145194408D01*
X234035507Y-145483324D01*
X234034849Y-145484309D01*
X233788309Y-145730849D01*
X233788306Y-145730851D01*
X233498408Y-145924555D01*
X233176289Y-146057981D01*
X232834332Y-146126000D01*
X232485668Y-146126000D01*
X232143711Y-146057981D01*
X231821592Y-145924555D01*
X231531694Y-145730851D01*
X231531691Y-145730849D01*
X231285151Y-145484309D01*
X231284493Y-145483324D01*
X231091445Y-145194408D01*
X230958019Y-144872289D01*
X230890000Y-144530332D01*
X230890000Y-144181668D01*
X230958019Y-143839711D01*
X231091445Y-143517592D01*
X231285149Y-143227694D01*
X231285151Y-143227691D01*
X231531691Y-142981151D01*
X231532676Y-142980493D01*
X231821592Y-142787445D01*
X232143711Y-142654019D01*
X232485668Y-142586000D01*
X232834332Y-142586000D01*
X233176289Y-142654019D01*
X233176289Y-142654019D01*
G37*
G36*
X226520000Y-146070000D02*
X224680000Y-146070000D01*
X224680000Y-142330000D01*
X226520000Y-142330000D01*
X226520000Y-146070000D01*
X226520000Y-146070000D01*
G37*
G36*
X176149000Y-145791000D02*
X173909000Y-145791000D01*
X173909000Y-143551000D01*
X176149000Y-143551000D01*
X176149000Y-145791000D01*
X176149000Y-145791000D01*
G37*
G36*
X194691000Y-145791000D02*
X192451000Y-145791000D01*
X192451000Y-143551000D01*
X194691000Y-143551000D01*
X194691000Y-145791000D01*
X194691000Y-145791000D01*
G37*
G36*
X315672743Y-144002289D02*
X315728770Y-144013433D01*
X315887100Y-144079016D01*
X316029593Y-144174227D01*
X316150773Y-144295407D01*
X316245984Y-144437900D01*
X316311567Y-144596230D01*
X316345000Y-144764312D01*
X316345000Y-144935688D01*
X316311567Y-145103770D01*
X316245984Y-145262100D01*
X316150773Y-145404593D01*
X316029593Y-145525773D01*
X315887100Y-145620984D01*
X315728770Y-145686567D01*
X315672743Y-145697711D01*
X315560690Y-145720000D01*
X315389310Y-145720000D01*
X315277257Y-145697711D01*
X315221230Y-145686567D01*
X315062900Y-145620984D01*
X314920407Y-145525773D01*
X314799227Y-145404593D01*
X314704016Y-145262100D01*
X314638433Y-145103770D01*
X314605000Y-144935688D01*
X314605000Y-144764312D01*
X314638433Y-144596230D01*
X314704016Y-144437900D01*
X314799227Y-144295407D01*
X314920407Y-144174227D01*
X315062900Y-144079016D01*
X315221230Y-144013433D01*
X315277257Y-144002289D01*
X315389310Y-143980000D01*
X315560690Y-143980000D01*
X315672743Y-144002289D01*
X315672743Y-144002289D01*
G37*
G36*
X246995000Y-145320000D02*
X245455000Y-145320000D01*
X245455000Y-143780000D01*
X246995000Y-143780000D01*
X246995000Y-145320000D01*
X246995000Y-145320000D01*
G37*
G36*
X249095000Y-145320000D02*
X247555000Y-145320000D01*
X247555000Y-143780000D01*
X249095000Y-143780000D01*
X249095000Y-145320000D01*
X249095000Y-145320000D01*
G37*
G36*
X266635450Y-144194310D02*
X265544550Y-144194310D01*
X265544550Y-143103410D01*
X266635450Y-143103410D01*
X266635450Y-144194310D01*
X266635450Y-144194310D01*
G37*
G36*
X221226687Y-141623039D02*
X221430522Y-141707470D01*
X221613131Y-141829486D01*
X221613958Y-141830039D01*
X221769961Y-141986042D01*
X221769963Y-141986045D01*
X221892530Y-142169478D01*
X221976961Y-142373313D01*
X222020000Y-142589687D01*
X222020000Y-142810313D01*
X221976961Y-143026687D01*
X221892530Y-143230522D01*
X221770514Y-143413131D01*
X221769961Y-143413958D01*
X221613958Y-143569961D01*
X221613955Y-143569963D01*
X221430522Y-143692530D01*
X221226687Y-143776961D01*
X221010313Y-143820000D01*
X220789687Y-143820000D01*
X220573313Y-143776961D01*
X220369478Y-143692530D01*
X220186045Y-143569963D01*
X220186042Y-143569961D01*
X220030039Y-143413958D01*
X220029486Y-143413131D01*
X219907470Y-143230522D01*
X219823039Y-143026687D01*
X219780000Y-142810313D01*
X219780000Y-142589687D01*
X219823039Y-142373313D01*
X219907470Y-142169478D01*
X220030037Y-141986045D01*
X220030039Y-141986042D01*
X220186042Y-141830039D01*
X220186869Y-141829486D01*
X220369478Y-141707470D01*
X220573313Y-141623039D01*
X220789687Y-141580000D01*
X221010313Y-141580000D01*
X221226687Y-141623039D01*
X221226687Y-141623039D01*
G37*
G36*
X208426687Y-141623039D02*
X208630522Y-141707470D01*
X208813131Y-141829486D01*
X208813958Y-141830039D01*
X208969961Y-141986042D01*
X208969963Y-141986045D01*
X209092530Y-142169478D01*
X209176961Y-142373313D01*
X209220000Y-142589687D01*
X209220000Y-142810313D01*
X209176961Y-143026687D01*
X209092530Y-143230522D01*
X208970514Y-143413131D01*
X208969961Y-143413958D01*
X208813958Y-143569961D01*
X208813955Y-143569963D01*
X208630522Y-143692530D01*
X208426687Y-143776961D01*
X208210313Y-143820000D01*
X207989687Y-143820000D01*
X207773313Y-143776961D01*
X207569478Y-143692530D01*
X207386045Y-143569963D01*
X207386042Y-143569961D01*
X207230039Y-143413958D01*
X207229486Y-143413131D01*
X207107470Y-143230522D01*
X207023039Y-143026687D01*
X206980000Y-142810313D01*
X206980000Y-142589687D01*
X207023039Y-142373313D01*
X207107470Y-142169478D01*
X207230037Y-141986045D01*
X207230039Y-141986042D01*
X207386042Y-141830039D01*
X207386869Y-141829486D01*
X207569478Y-141707470D01*
X207773313Y-141623039D01*
X207989687Y-141580000D01*
X208210313Y-141580000D01*
X208426687Y-141623039D01*
X208426687Y-141623039D01*
G37*
G36*
X315672743Y-142002289D02*
X315728770Y-142013433D01*
X315887100Y-142079016D01*
X316029593Y-142174227D01*
X316150773Y-142295407D01*
X316245984Y-142437900D01*
X316308857Y-142589687D01*
X316311567Y-142596231D01*
X316345000Y-142764310D01*
X316345000Y-142935690D01*
X316322711Y-143047743D01*
X316311567Y-143103770D01*
X316245984Y-143262100D01*
X316150773Y-143404593D01*
X316029593Y-143525773D01*
X315887100Y-143620984D01*
X315728770Y-143686567D01*
X315698791Y-143692530D01*
X315560690Y-143720000D01*
X315389310Y-143720000D01*
X315251209Y-143692530D01*
X315221230Y-143686567D01*
X315062900Y-143620984D01*
X314920407Y-143525773D01*
X314799227Y-143404593D01*
X314704016Y-143262100D01*
X314638433Y-143103770D01*
X314627289Y-143047743D01*
X314605000Y-142935690D01*
X314605000Y-142764310D01*
X314638433Y-142596231D01*
X314641144Y-142589687D01*
X314704016Y-142437900D01*
X314799227Y-142295407D01*
X314920407Y-142174227D01*
X315062900Y-142079016D01*
X315221230Y-142013433D01*
X315277257Y-142002289D01*
X315389310Y-141980000D01*
X315560690Y-141980000D01*
X315672743Y-142002289D01*
X315672743Y-142002289D01*
G37*
G36*
X258285000Y-143705000D02*
X257295000Y-143705000D01*
X257295000Y-142265000D01*
X258285000Y-142265000D01*
X258285000Y-143705000D01*
X258285000Y-143705000D01*
G37*
G36*
X236415687Y-141501039D02*
X236619522Y-141585470D01*
X236734116Y-141662040D01*
X236802958Y-141708039D01*
X236958961Y-141864042D01*
X236958963Y-141864045D01*
X237081530Y-142047478D01*
X237165961Y-142251313D01*
X237209000Y-142467687D01*
X237209000Y-142688313D01*
X237165961Y-142904687D01*
X237081530Y-143108522D01*
X236966483Y-143280701D01*
X236958961Y-143291958D01*
X236802958Y-143447961D01*
X236802955Y-143447963D01*
X236619522Y-143570530D01*
X236415687Y-143654961D01*
X236199313Y-143698000D01*
X235978687Y-143698000D01*
X235762313Y-143654961D01*
X235558478Y-143570530D01*
X235375045Y-143447963D01*
X235375042Y-143447961D01*
X235219039Y-143291958D01*
X235211517Y-143280701D01*
X235096470Y-143108522D01*
X235012039Y-142904687D01*
X234969000Y-142688313D01*
X234969000Y-142467687D01*
X235012039Y-142251313D01*
X235096470Y-142047478D01*
X235219037Y-141864045D01*
X235219039Y-141864042D01*
X235375042Y-141708039D01*
X235443884Y-141662040D01*
X235558478Y-141585470D01*
X235762313Y-141501039D01*
X235978687Y-141458000D01*
X236199313Y-141458000D01*
X236415687Y-141501039D01*
X236415687Y-141501039D01*
G37*
G36*
X262960000Y-143395000D02*
X261420000Y-143395000D01*
X261420000Y-142455000D01*
X262960000Y-142455000D01*
X262960000Y-143395000D01*
X262960000Y-143395000D01*
G37*
G36*
X249095000Y-142520000D02*
X247555000Y-142520000D01*
X247555000Y-140980000D01*
X249095000Y-140980000D01*
X249095000Y-142520000D01*
X249095000Y-142520000D01*
G37*
G36*
X246995000Y-142520000D02*
X245455000Y-142520000D01*
X245455000Y-140980000D01*
X246995000Y-140980000D01*
X246995000Y-142520000D01*
X246995000Y-142520000D01*
G37*
G36*
X258285000Y-141805000D02*
X257295000Y-141805000D01*
X257295000Y-140365000D01*
X258285000Y-140365000D01*
X258285000Y-141805000D01*
X258285000Y-141805000D01*
G37*
G36*
X194647297Y-139036540D02*
X194716812Y-139057627D01*
X194748849Y-139074751D01*
X194780883Y-139091874D01*
X194780884Y-139091875D01*
X194780886Y-139091876D01*
X194795379Y-139103770D01*
X194837040Y-139137960D01*
X194883126Y-139194117D01*
X194900249Y-139226151D01*
X194917373Y-139258188D01*
X194938460Y-139327703D01*
X194945762Y-139401838D01*
X194945762Y-141398162D01*
X194938460Y-141472297D01*
X194917373Y-141541812D01*
X194883124Y-141605886D01*
X194837040Y-141662040D01*
X194780886Y-141708124D01*
X194780884Y-141708125D01*
X194780883Y-141708126D01*
X194758668Y-141720000D01*
X194716812Y-141742373D01*
X194647297Y-141763460D01*
X194573162Y-141770762D01*
X190076838Y-141770762D01*
X190002703Y-141763460D01*
X189933188Y-141742373D01*
X189891332Y-141720000D01*
X189869117Y-141708126D01*
X189869116Y-141708125D01*
X189869114Y-141708124D01*
X189812960Y-141662040D01*
X189766876Y-141605886D01*
X189732627Y-141541812D01*
X189711540Y-141472297D01*
X189704238Y-141398162D01*
X189704238Y-139401838D01*
X189711540Y-139327703D01*
X189732627Y-139258188D01*
X189749751Y-139226151D01*
X189766874Y-139194117D01*
X189812960Y-139137960D01*
X189854621Y-139103770D01*
X189869114Y-139091876D01*
X189869116Y-139091875D01*
X189869117Y-139091874D01*
X189901151Y-139074751D01*
X189933188Y-139057627D01*
X190002703Y-139036540D01*
X190076838Y-139029238D01*
X194573162Y-139029238D01*
X194647297Y-139036540D01*
X194647297Y-139036540D01*
G37*
G36*
X315672743Y-140002289D02*
X315728770Y-140013433D01*
X315887100Y-140079016D01*
X316029593Y-140174227D01*
X316150773Y-140295407D01*
X316245984Y-140437900D01*
X316311567Y-140596230D01*
X316345000Y-140764312D01*
X316345000Y-140935688D01*
X316311567Y-141103770D01*
X316245984Y-141262100D01*
X316150773Y-141404593D01*
X316029593Y-141525773D01*
X315887100Y-141620984D01*
X315728770Y-141686567D01*
X315672743Y-141697711D01*
X315560690Y-141720000D01*
X315389310Y-141720000D01*
X315277257Y-141697711D01*
X315221230Y-141686567D01*
X315062900Y-141620984D01*
X314920407Y-141525773D01*
X314799227Y-141404593D01*
X314704016Y-141262100D01*
X314638433Y-141103770D01*
X314605000Y-140935688D01*
X314605000Y-140764312D01*
X314638433Y-140596230D01*
X314704016Y-140437900D01*
X314799227Y-140295407D01*
X314920407Y-140174227D01*
X315062900Y-140079016D01*
X315221230Y-140013433D01*
X315277257Y-140002289D01*
X315389310Y-139980000D01*
X315560690Y-139980000D01*
X315672743Y-140002289D01*
X315672743Y-140002289D01*
G37*
G36*
X262960000Y-141495000D02*
X261420000Y-141495000D01*
X261420000Y-140555000D01*
X262960000Y-140555000D01*
X262960000Y-141495000D01*
X262960000Y-141495000D01*
G37*
G36*
X180160000Y-141470000D02*
X179020000Y-141470000D01*
X179020000Y-140430000D01*
X180160000Y-140430000D01*
X180160000Y-141470000D01*
X180160000Y-141470000D01*
G37*
G36*
X266635450Y-140846590D02*
X265544550Y-140846590D01*
X265544550Y-139755690D01*
X266635450Y-139755690D01*
X266635450Y-140846590D01*
X266635450Y-140846590D01*
G37*
G36*
X178160000Y-140520000D02*
X177020000Y-140520000D01*
X177020000Y-139480000D01*
X178160000Y-139480000D01*
X178160000Y-140520000D01*
X178160000Y-140520000D01*
G37*
G36*
X241410029Y-137905726D02*
X241589342Y-137980000D01*
X241650255Y-138005231D01*
X241866451Y-138149689D01*
X242050311Y-138333549D01*
X242181576Y-138530000D01*
X242194770Y-138549747D01*
X242294274Y-138789971D01*
X242345000Y-139044989D01*
X242345000Y-139305011D01*
X242294274Y-139560029D01*
X242204888Y-139775826D01*
X242194769Y-139800255D01*
X242050311Y-140016451D01*
X241866451Y-140200311D01*
X241650255Y-140344769D01*
X241650254Y-140344770D01*
X241650253Y-140344770D01*
X241410029Y-140444274D01*
X241155011Y-140495000D01*
X240894989Y-140495000D01*
X240639971Y-140444274D01*
X240399747Y-140344770D01*
X240399746Y-140344770D01*
X240399745Y-140344769D01*
X240183549Y-140200311D01*
X239999689Y-140016451D01*
X239855231Y-139800255D01*
X239845112Y-139775826D01*
X239755726Y-139560029D01*
X239705000Y-139305011D01*
X239705000Y-139044989D01*
X239755726Y-138789971D01*
X239855230Y-138549747D01*
X239868425Y-138530000D01*
X239999689Y-138333549D01*
X240183549Y-138149689D01*
X240399745Y-138005231D01*
X240460658Y-137980000D01*
X240639971Y-137905726D01*
X240894989Y-137855000D01*
X241155011Y-137855000D01*
X241410029Y-137905726D01*
X241410029Y-137905726D01*
G37*
G36*
X222360029Y-137905726D02*
X222539342Y-137980000D01*
X222600255Y-138005231D01*
X222816451Y-138149689D01*
X223000311Y-138333549D01*
X223131576Y-138530000D01*
X223144770Y-138549747D01*
X223244274Y-138789971D01*
X223295000Y-139044989D01*
X223295000Y-139305011D01*
X223244274Y-139560029D01*
X223154888Y-139775826D01*
X223144769Y-139800255D01*
X223000311Y-140016451D01*
X222816451Y-140200311D01*
X222600255Y-140344769D01*
X222600254Y-140344770D01*
X222600253Y-140344770D01*
X222360029Y-140444274D01*
X222105011Y-140495000D01*
X221844989Y-140495000D01*
X221589971Y-140444274D01*
X221349747Y-140344770D01*
X221349746Y-140344770D01*
X221349745Y-140344769D01*
X221133549Y-140200311D01*
X220949689Y-140016451D01*
X220805231Y-139800255D01*
X220795112Y-139775826D01*
X220705726Y-139560029D01*
X220655000Y-139305011D01*
X220655000Y-139044989D01*
X220705726Y-138789971D01*
X220805230Y-138549747D01*
X220818425Y-138530000D01*
X220949689Y-138333549D01*
X221133549Y-138149689D01*
X221349745Y-138005231D01*
X221410658Y-137980000D01*
X221589971Y-137905726D01*
X221844989Y-137855000D01*
X222105011Y-137855000D01*
X222360029Y-137905726D01*
X222360029Y-137905726D01*
G37*
G36*
X206515545Y-133612960D02*
X206802477Y-133700000D01*
X206843005Y-133712294D01*
X207144792Y-133873603D01*
X207213698Y-133930153D01*
X207409312Y-134090688D01*
X207569847Y-134286302D01*
X207626397Y-134355208D01*
X207626398Y-134355210D01*
X207787706Y-134656995D01*
X207887040Y-134984455D01*
X207920762Y-135326838D01*
X207920762Y-138573162D01*
X207887040Y-138915545D01*
X207819571Y-139137960D01*
X207787706Y-139243005D01*
X207626397Y-139544792D01*
X207613892Y-139560029D01*
X207409312Y-139809312D01*
X207213698Y-139969847D01*
X207144792Y-140026397D01*
X206956606Y-140126985D01*
X206843005Y-140187706D01*
X206515545Y-140287040D01*
X206173162Y-140320762D01*
X201926838Y-140320762D01*
X201584455Y-140287040D01*
X201256995Y-140187706D01*
X201143394Y-140126985D01*
X200955208Y-140026397D01*
X200886302Y-139969847D01*
X200690688Y-139809312D01*
X200486108Y-139560029D01*
X200473603Y-139544792D01*
X200312294Y-139243005D01*
X200280429Y-139137960D01*
X200212960Y-138915545D01*
X200179238Y-138573162D01*
X200179238Y-135326838D01*
X200212960Y-134984455D01*
X200312294Y-134656995D01*
X200473602Y-134355210D01*
X200473603Y-134355208D01*
X200530153Y-134286302D01*
X200690688Y-134090688D01*
X200886302Y-133930153D01*
X200955208Y-133873603D01*
X201256995Y-133712294D01*
X201297523Y-133700000D01*
X201584455Y-133612960D01*
X201926838Y-133579238D01*
X206173162Y-133579238D01*
X206515545Y-133612960D01*
X206515545Y-133612960D01*
G37*
G36*
X304604209Y-136473015D02*
X304949987Y-136616241D01*
X305261176Y-136824171D01*
X305525829Y-137088824D01*
X305733759Y-137400013D01*
X305876985Y-137745791D01*
X305950000Y-138112864D01*
X305950000Y-138487136D01*
X305876985Y-138854209D01*
X305733759Y-139199987D01*
X305525829Y-139511176D01*
X305261176Y-139775829D01*
X304949987Y-139983759D01*
X304604209Y-140126985D01*
X304237136Y-140200000D01*
X303862864Y-140200000D01*
X303495791Y-140126985D01*
X303150013Y-139983759D01*
X302838824Y-139775829D01*
X302574171Y-139511176D01*
X302366241Y-139199987D01*
X302223015Y-138854209D01*
X302150000Y-138487136D01*
X302150000Y-138112864D01*
X302223015Y-137745791D01*
X302366241Y-137400013D01*
X302574171Y-137088824D01*
X302838824Y-136824171D01*
X303150013Y-136616241D01*
X303495791Y-136473015D01*
X303862864Y-136400000D01*
X304237136Y-136400000D01*
X304604209Y-136473015D01*
X304604209Y-136473015D01*
G37*
G36*
X274604209Y-136473015D02*
X274949987Y-136616241D01*
X275261176Y-136824171D01*
X275525829Y-137088824D01*
X275733759Y-137400013D01*
X275876985Y-137745791D01*
X275950000Y-138112864D01*
X275950000Y-138487136D01*
X275876985Y-138854209D01*
X275733759Y-139199987D01*
X275525829Y-139511176D01*
X275261176Y-139775829D01*
X274949987Y-139983759D01*
X274604209Y-140126985D01*
X274237136Y-140200000D01*
X273862864Y-140200000D01*
X273495791Y-140126985D01*
X273150013Y-139983759D01*
X272838824Y-139775829D01*
X272574171Y-139511176D01*
X272366241Y-139199987D01*
X272223015Y-138854209D01*
X272150000Y-138487136D01*
X272150000Y-138112864D01*
X272223015Y-137745791D01*
X272366241Y-137400013D01*
X272574171Y-137088824D01*
X272838824Y-136824171D01*
X273150013Y-136616241D01*
X273495791Y-136473015D01*
X273862864Y-136400000D01*
X274237136Y-136400000D01*
X274604209Y-136473015D01*
X274604209Y-136473015D01*
G37*
G36*
X315672743Y-138002289D02*
X315728770Y-138013433D01*
X315887100Y-138079016D01*
X316029593Y-138174227D01*
X316150773Y-138295407D01*
X316245984Y-138437900D01*
X316311567Y-138596230D01*
X316345000Y-138764312D01*
X316345000Y-138935688D01*
X316311567Y-139103770D01*
X316274145Y-139194114D01*
X316247605Y-139258188D01*
X316245984Y-139262100D01*
X316150773Y-139404593D01*
X316029593Y-139525773D01*
X315887100Y-139620984D01*
X315728770Y-139686567D01*
X315672743Y-139697711D01*
X315560690Y-139720000D01*
X315389310Y-139720000D01*
X315277257Y-139697711D01*
X315221230Y-139686567D01*
X315062900Y-139620984D01*
X314920407Y-139525773D01*
X314799227Y-139404593D01*
X314704016Y-139262100D01*
X314702396Y-139258188D01*
X314675855Y-139194114D01*
X314638433Y-139103770D01*
X314605000Y-138935688D01*
X314605000Y-138764312D01*
X314638433Y-138596230D01*
X314704016Y-138437900D01*
X314799227Y-138295407D01*
X314920407Y-138174227D01*
X315062900Y-138079016D01*
X315221230Y-138013433D01*
X315277257Y-138002289D01*
X315389310Y-137980000D01*
X315560690Y-137980000D01*
X315672743Y-138002289D01*
X315672743Y-138002289D01*
G37*
G36*
X180160000Y-139570000D02*
X179020000Y-139570000D01*
X179020000Y-138530000D01*
X180160000Y-138530000D01*
X180160000Y-139570000D01*
X180160000Y-139570000D01*
G37*
G36*
X215062547Y-135280701D02*
X215444722Y-135439003D01*
X215444723Y-135439004D01*
X215788672Y-135668823D01*
X216081177Y-135961328D01*
X216223430Y-136174225D01*
X216310997Y-136305278D01*
X216469299Y-136687453D01*
X216550000Y-137093166D01*
X216550000Y-137506834D01*
X216469299Y-137912547D01*
X216310997Y-138294722D01*
X216253932Y-138380125D01*
X216081177Y-138638672D01*
X215788672Y-138931177D01*
X215530369Y-139103769D01*
X215444722Y-139160997D01*
X215062547Y-139319299D01*
X214656834Y-139400000D01*
X214243166Y-139400000D01*
X213837453Y-139319299D01*
X213455278Y-139160997D01*
X213369631Y-139103769D01*
X213111328Y-138931177D01*
X212818823Y-138638672D01*
X212646068Y-138380125D01*
X212589003Y-138294722D01*
X212430701Y-137912547D01*
X212350000Y-137506834D01*
X212350000Y-137093166D01*
X212430701Y-136687453D01*
X212589003Y-136305278D01*
X212676570Y-136174225D01*
X212818823Y-135961328D01*
X213111328Y-135668823D01*
X213455277Y-135439004D01*
X213455278Y-135439003D01*
X213837453Y-135280701D01*
X214243166Y-135200000D01*
X214656834Y-135200000D01*
X215062547Y-135280701D01*
X215062547Y-135280701D01*
G37*
G36*
X255520000Y-138545000D02*
X253780000Y-138545000D01*
X253780000Y-136305000D01*
X255520000Y-136305000D01*
X255520000Y-138545000D01*
X255520000Y-138545000D01*
G37*
G36*
X257820000Y-138545000D02*
X256080000Y-138545000D01*
X256080000Y-136305000D01*
X257820000Y-136305000D01*
X257820000Y-138545000D01*
X257820000Y-138545000D01*
G37*
G36*
X260120000Y-138545000D02*
X258380000Y-138545000D01*
X258380000Y-136305000D01*
X260120000Y-136305000D01*
X260120000Y-138545000D01*
X260120000Y-138545000D01*
G37*
G36*
X265720000Y-138520000D02*
X263880000Y-138520000D01*
X263880000Y-135680000D01*
X265720000Y-135680000D01*
X265720000Y-138520000D01*
X265720000Y-138520000D01*
G37*
G36*
X191446069Y-133091343D02*
X191562486Y-133126658D01*
X191669774Y-133184005D01*
X191763817Y-133261183D01*
X191840995Y-133355226D01*
X191898342Y-133462514D01*
X191933657Y-133578931D01*
X191945762Y-133701838D01*
X191945762Y-137698162D01*
X191933657Y-137821069D01*
X191898342Y-137937486D01*
X191840995Y-138044774D01*
X191763817Y-138138817D01*
X191669774Y-138215995D01*
X191562486Y-138273342D01*
X191446069Y-138308657D01*
X191323162Y-138320762D01*
X187326838Y-138320762D01*
X187203931Y-138308657D01*
X187087514Y-138273342D01*
X186980226Y-138215995D01*
X186886183Y-138138817D01*
X186809005Y-138044774D01*
X186751658Y-137937486D01*
X186716343Y-137821069D01*
X186704238Y-137698162D01*
X186704238Y-133701838D01*
X186716343Y-133578931D01*
X186751658Y-133462514D01*
X186809005Y-133355226D01*
X186886183Y-133261183D01*
X186980226Y-133184005D01*
X187087514Y-133126658D01*
X187203931Y-133091343D01*
X187326838Y-133079238D01*
X191323162Y-133079238D01*
X191446069Y-133091343D01*
X191446069Y-133091343D01*
G37*
G36*
X197446069Y-133091343D02*
X197562486Y-133126658D01*
X197669774Y-133184005D01*
X197763817Y-133261183D01*
X197840995Y-133355226D01*
X197898342Y-133462514D01*
X197933657Y-133578931D01*
X197945762Y-133701838D01*
X197945762Y-137698162D01*
X197933657Y-137821069D01*
X197898342Y-137937486D01*
X197840995Y-138044774D01*
X197763817Y-138138817D01*
X197669774Y-138215995D01*
X197562486Y-138273342D01*
X197446069Y-138308657D01*
X197323162Y-138320762D01*
X193326838Y-138320762D01*
X193203931Y-138308657D01*
X193087514Y-138273342D01*
X192980226Y-138215995D01*
X192886183Y-138138817D01*
X192809005Y-138044774D01*
X192751658Y-137937486D01*
X192716343Y-137821069D01*
X192704238Y-137698162D01*
X192704238Y-133701838D01*
X192716343Y-133578931D01*
X192751658Y-133462514D01*
X192809005Y-133355226D01*
X192886183Y-133261183D01*
X192980226Y-133184005D01*
X193087514Y-133126658D01*
X193203931Y-133091343D01*
X193326838Y-133079238D01*
X197323162Y-133079238D01*
X197446069Y-133091343D01*
X197446069Y-133091343D01*
G37*
G36*
X246301532Y-137740018D02*
X245232106Y-137740018D01*
X245098773Y-136940018D01*
X246434865Y-136940018D01*
X246301532Y-137740018D01*
X246301532Y-137740018D01*
G37*
G36*
X249301532Y-137740018D02*
X248232106Y-137740018D01*
X248098773Y-136940018D01*
X249434865Y-136940018D01*
X249301532Y-137740018D01*
X249301532Y-137740018D01*
G37*
G36*
X252301532Y-137740018D02*
X251232106Y-137740018D01*
X251098773Y-136940018D01*
X252434865Y-136940018D01*
X252301532Y-137740018D01*
X252301532Y-137740018D01*
G37*
G36*
X315672743Y-136002289D02*
X315728770Y-136013433D01*
X315887100Y-136079016D01*
X316029593Y-136174227D01*
X316150773Y-136295407D01*
X316245984Y-136437900D01*
X316311567Y-136596230D01*
X316345000Y-136764312D01*
X316345000Y-136935688D01*
X316311567Y-137103770D01*
X316245984Y-137262100D01*
X316150773Y-137404593D01*
X316029593Y-137525773D01*
X315887100Y-137620984D01*
X315728770Y-137686567D01*
X315672743Y-137697711D01*
X315560690Y-137720000D01*
X315389310Y-137720000D01*
X315277257Y-137697711D01*
X315221230Y-137686567D01*
X315062900Y-137620984D01*
X314920407Y-137525773D01*
X314799227Y-137404593D01*
X314704016Y-137262100D01*
X314638433Y-137103770D01*
X314605000Y-136935688D01*
X314605000Y-136764312D01*
X314638433Y-136596230D01*
X314704016Y-136437900D01*
X314799227Y-136295407D01*
X314920407Y-136174227D01*
X315062900Y-136079016D01*
X315221230Y-136013433D01*
X315277257Y-136002289D01*
X315389310Y-135980000D01*
X315560690Y-135980000D01*
X315672743Y-136002289D01*
X315672743Y-136002289D01*
G37*
G36*
X246434865Y-136740018D02*
X245098773Y-136740018D01*
X245232106Y-135940018D01*
X246301532Y-135940018D01*
X246434865Y-136740018D01*
X246434865Y-136740018D01*
G37*
G36*
X249434865Y-136740018D02*
X248098773Y-136740018D01*
X248232106Y-135940018D01*
X249301532Y-135940018D01*
X249434865Y-136740018D01*
X249434865Y-136740018D01*
G37*
G36*
X252434865Y-136740018D02*
X251098773Y-136740018D01*
X251232106Y-135940018D01*
X252301532Y-135940018D01*
X252434865Y-136740018D01*
X252434865Y-136740018D01*
G37*
G36*
X177987621Y-135118682D02*
X178100721Y-135152990D01*
X178204955Y-135208704D01*
X178296317Y-135283683D01*
X178371296Y-135375045D01*
X178427010Y-135479279D01*
X178461318Y-135592379D01*
X178472903Y-135710000D01*
X178461318Y-135827621D01*
X178427010Y-135940721D01*
X178371296Y-136044955D01*
X178296317Y-136136317D01*
X178204955Y-136211296D01*
X178100721Y-136267010D01*
X177987621Y-136301318D01*
X177899474Y-136310000D01*
X177140526Y-136310000D01*
X177052379Y-136301318D01*
X176939279Y-136267010D01*
X176835045Y-136211296D01*
X176743683Y-136136317D01*
X176668704Y-136044955D01*
X176612990Y-135940721D01*
X176578682Y-135827621D01*
X176567097Y-135710000D01*
X176578682Y-135592379D01*
X176612990Y-135479279D01*
X176668704Y-135375045D01*
X176743683Y-135283683D01*
X176835045Y-135208704D01*
X176939279Y-135152990D01*
X177052379Y-135118682D01*
X177140526Y-135110000D01*
X177899474Y-135110000D01*
X177987621Y-135118682D01*
X177987621Y-135118682D01*
G37*
G36*
X315672743Y-134002289D02*
X315728770Y-134013433D01*
X315887100Y-134079016D01*
X316029593Y-134174227D01*
X316150773Y-134295407D01*
X316245984Y-134437900D01*
X316311567Y-134596230D01*
X316345000Y-134764312D01*
X316345000Y-134935688D01*
X316311567Y-135103770D01*
X316245984Y-135262100D01*
X316150773Y-135404593D01*
X316029593Y-135525773D01*
X315887100Y-135620984D01*
X315728770Y-135686567D01*
X315672743Y-135697711D01*
X315560690Y-135720000D01*
X315389310Y-135720000D01*
X315277257Y-135697711D01*
X315221230Y-135686567D01*
X315062900Y-135620984D01*
X314920407Y-135525773D01*
X314799227Y-135404593D01*
X314704016Y-135262100D01*
X314638433Y-135103770D01*
X314605000Y-134935688D01*
X314605000Y-134764312D01*
X314638433Y-134596230D01*
X314704016Y-134437900D01*
X314799227Y-134295407D01*
X314920407Y-134174227D01*
X315062900Y-134079016D01*
X315221230Y-134013433D01*
X315277257Y-134002289D01*
X315389310Y-133980000D01*
X315560690Y-133980000D01*
X315672743Y-134002289D01*
X315672743Y-134002289D01*
G37*
G36*
X265720000Y-134920000D02*
X263880000Y-134920000D01*
X263880000Y-132080000D01*
X265720000Y-132080000D01*
X265720000Y-134920000D01*
X265720000Y-134920000D01*
G37*
G36*
X177987621Y-133618682D02*
X178100721Y-133652990D01*
X178204955Y-133708704D01*
X178296317Y-133783683D01*
X178371296Y-133875045D01*
X178427010Y-133979279D01*
X178461318Y-134092379D01*
X178472903Y-134210000D01*
X178461318Y-134327621D01*
X178427010Y-134440721D01*
X178371296Y-134544955D01*
X178296317Y-134636317D01*
X178204955Y-134711296D01*
X178100721Y-134767010D01*
X177987621Y-134801318D01*
X177899474Y-134810000D01*
X177140526Y-134810000D01*
X177052379Y-134801318D01*
X176939279Y-134767010D01*
X176835045Y-134711296D01*
X176743683Y-134636317D01*
X176668704Y-134544955D01*
X176612990Y-134440721D01*
X176578682Y-134327621D01*
X176567097Y-134210000D01*
X176578682Y-134092379D01*
X176612990Y-133979279D01*
X176668704Y-133875045D01*
X176743683Y-133783683D01*
X176835045Y-133708704D01*
X176939279Y-133652990D01*
X177052379Y-133618682D01*
X177140526Y-133610000D01*
X177899474Y-133610000D01*
X177987621Y-133618682D01*
X177987621Y-133618682D01*
G37*
G36*
X313915465Y-132643834D02*
X313985016Y-132657669D01*
X314116048Y-132711944D01*
X314233973Y-132790739D01*
X314334261Y-132891027D01*
X314413056Y-133008952D01*
X314467331Y-133139984D01*
X314495000Y-133279086D01*
X314495000Y-133420914D01*
X314467331Y-133560016D01*
X314413056Y-133691048D01*
X314334261Y-133808973D01*
X314233973Y-133909261D01*
X314116048Y-133988056D01*
X313985016Y-134042331D01*
X313915465Y-134056166D01*
X313845916Y-134070000D01*
X313704084Y-134070000D01*
X313634535Y-134056166D01*
X313564984Y-134042331D01*
X313433952Y-133988056D01*
X313316027Y-133909261D01*
X313215739Y-133808973D01*
X313136944Y-133691048D01*
X313082669Y-133560016D01*
X313055000Y-133420914D01*
X313055000Y-133279086D01*
X313082669Y-133139984D01*
X313136944Y-133008952D01*
X313215739Y-132891027D01*
X313316027Y-132790739D01*
X313433952Y-132711944D01*
X313564984Y-132657669D01*
X313634535Y-132643834D01*
X313704084Y-132630000D01*
X313845916Y-132630000D01*
X313915465Y-132643834D01*
X313915465Y-132643834D01*
G37*
G36*
X178470000Y-133310000D02*
X176570000Y-133310000D01*
X176570000Y-132110000D01*
X178470000Y-132110000D01*
X178470000Y-133310000D01*
X178470000Y-133310000D01*
G37*
G36*
X205469163Y-126137939D02*
X206040493Y-126311250D01*
X206567032Y-126592691D01*
X207028550Y-126971450D01*
X207407309Y-127432968D01*
X207688750Y-127959507D01*
X207862061Y-128530837D01*
X207920762Y-129126838D01*
X207920762Y-129773162D01*
X207862061Y-130369163D01*
X207688750Y-130940493D01*
X207407309Y-131467032D01*
X207028550Y-131928550D01*
X206567032Y-132307309D01*
X206040493Y-132588750D01*
X205469163Y-132762061D01*
X204873162Y-132820762D01*
X203226838Y-132820762D01*
X202630837Y-132762061D01*
X202059507Y-132588750D01*
X201532968Y-132307309D01*
X201071450Y-131928550D01*
X200692691Y-131467032D01*
X200411250Y-130940493D01*
X200237939Y-130369163D01*
X200179238Y-129773162D01*
X200179238Y-129126838D01*
X200237939Y-128530837D01*
X200411250Y-127959507D01*
X200692691Y-127432968D01*
X201071450Y-126971450D01*
X201532968Y-126592691D01*
X202059507Y-126311250D01*
X202630837Y-126137939D01*
X203226838Y-126079238D01*
X204873162Y-126079238D01*
X205469163Y-126137939D01*
X205469163Y-126137939D01*
G37*
G36*
X194647297Y-129636540D02*
X194716812Y-129657627D01*
X194748849Y-129674752D01*
X194780883Y-129691874D01*
X194780884Y-129691875D01*
X194780886Y-129691876D01*
X194837040Y-129737960D01*
X194883124Y-129794114D01*
X194917373Y-129858188D01*
X194938460Y-129927703D01*
X194945762Y-130001838D01*
X194945762Y-131998162D01*
X194938460Y-132072297D01*
X194917373Y-132141812D01*
X194883124Y-132205886D01*
X194837040Y-132262040D01*
X194780886Y-132308124D01*
X194780884Y-132308125D01*
X194780883Y-132308126D01*
X194748849Y-132325248D01*
X194716812Y-132342373D01*
X194647297Y-132363460D01*
X194573162Y-132370762D01*
X190076838Y-132370762D01*
X190002703Y-132363460D01*
X189933188Y-132342373D01*
X189901151Y-132325249D01*
X189869117Y-132308126D01*
X189869116Y-132308125D01*
X189869114Y-132308124D01*
X189812960Y-132262040D01*
X189766876Y-132205886D01*
X189732627Y-132141812D01*
X189711540Y-132072297D01*
X189704238Y-131998162D01*
X189704238Y-130001838D01*
X189711540Y-129927703D01*
X189732627Y-129858188D01*
X189766876Y-129794114D01*
X189812960Y-129737960D01*
X189869114Y-129691876D01*
X189869116Y-129691875D01*
X189869117Y-129691874D01*
X189901151Y-129674752D01*
X189933188Y-129657627D01*
X190002703Y-129636540D01*
X190076838Y-129629238D01*
X194573162Y-129629238D01*
X194647297Y-129636540D01*
X194647297Y-129636540D01*
G37*
G36*
X258970000Y-132245000D02*
X254930000Y-132245000D01*
X254930000Y-130005000D01*
X258970000Y-130005000D01*
X258970000Y-132245000D01*
X258970000Y-132245000D01*
G37*
G36*
X246486259Y-131608478D02*
X245047379Y-131608478D01*
X245047379Y-130169598D01*
X246486259Y-130169598D01*
X246486259Y-131608478D01*
X246486259Y-131608478D01*
G37*
G36*
X252486259Y-131508478D02*
X251047379Y-131508478D01*
X251047379Y-130069598D01*
X252486259Y-130069598D01*
X252486259Y-131508478D01*
X252486259Y-131508478D01*
G37*
G36*
X249486259Y-131458478D02*
X248047379Y-131458478D01*
X248047379Y-130019598D01*
X249486259Y-130019598D01*
X249486259Y-131458478D01*
X249486259Y-131458478D01*
G37*
G36*
X262320000Y-131420000D02*
X260780000Y-131420000D01*
X260780000Y-129630000D01*
X262320000Y-129630000D01*
X262320000Y-131420000D01*
X262320000Y-131420000D01*
G37*
G36*
X266820000Y-131420000D02*
X265280000Y-131420000D01*
X265280000Y-129630000D01*
X266820000Y-129630000D01*
X266820000Y-131420000D01*
X266820000Y-131420000D01*
G37*
G36*
X177065465Y-129618835D02*
X177135016Y-129632669D01*
X177266048Y-129686944D01*
X177383973Y-129765739D01*
X177484261Y-129866027D01*
X177563056Y-129983952D01*
X177617331Y-130114984D01*
X177645000Y-130254086D01*
X177645000Y-130395914D01*
X177617331Y-130535016D01*
X177563056Y-130666048D01*
X177484261Y-130783973D01*
X177383973Y-130884261D01*
X177266048Y-130963056D01*
X177135016Y-131017331D01*
X177065465Y-131031165D01*
X176995916Y-131045000D01*
X176854084Y-131045000D01*
X176784535Y-131031165D01*
X176714984Y-131017331D01*
X176583952Y-130963056D01*
X176466027Y-130884261D01*
X176365739Y-130783973D01*
X176286944Y-130666048D01*
X176232669Y-130535016D01*
X176205000Y-130395914D01*
X176205000Y-130254086D01*
X176232669Y-130114984D01*
X176286944Y-129983952D01*
X176365739Y-129866027D01*
X176466027Y-129765739D01*
X176583952Y-129686944D01*
X176714984Y-129632669D01*
X176784535Y-129618835D01*
X176854084Y-129605000D01*
X176995916Y-129605000D01*
X177065465Y-129618835D01*
X177065465Y-129618835D01*
G37*
G36*
X178822743Y-127977289D02*
X178878770Y-127988433D01*
X179037100Y-128054016D01*
X179179593Y-128149227D01*
X179300773Y-128270407D01*
X179395984Y-128412900D01*
X179461567Y-128571230D01*
X179495000Y-128739312D01*
X179495000Y-128910688D01*
X179461567Y-129078770D01*
X179395984Y-129237100D01*
X179300773Y-129379593D01*
X179179593Y-129500773D01*
X179037100Y-129595984D01*
X178878770Y-129661567D01*
X178822743Y-129672711D01*
X178710690Y-129695000D01*
X178539310Y-129695000D01*
X178427257Y-129672711D01*
X178371230Y-129661567D01*
X178212900Y-129595984D01*
X178070407Y-129500773D01*
X177949227Y-129379593D01*
X177854016Y-129237100D01*
X177788433Y-129078770D01*
X177755000Y-128910688D01*
X177755000Y-128739312D01*
X177788433Y-128571230D01*
X177854016Y-128412900D01*
X177949227Y-128270407D01*
X178070407Y-128149227D01*
X178212900Y-128054016D01*
X178371230Y-127988433D01*
X178427257Y-127977289D01*
X178539310Y-127955000D01*
X178710690Y-127955000D01*
X178822743Y-127977289D01*
X178822743Y-127977289D01*
G37*
G36*
X319720000Y-129570000D02*
X318780000Y-129570000D01*
X318780000Y-128030000D01*
X319720000Y-128030000D01*
X319720000Y-129570000D01*
X319720000Y-129570000D01*
G37*
G36*
X317820000Y-129570000D02*
X316880000Y-129570000D01*
X316880000Y-128030000D01*
X317820000Y-128030000D01*
X317820000Y-129570000D01*
X317820000Y-129570000D01*
G37*
G36*
X314470420Y-129519440D02*
X313031540Y-129519440D01*
X313031540Y-128080560D01*
X314470420Y-128080560D01*
X314470420Y-129519440D01*
X314470420Y-129519440D01*
G37*
G36*
X316568460Y-129519440D02*
X315129580Y-129519440D01*
X315129580Y-128080560D01*
X316568460Y-128080560D01*
X316568460Y-129519440D01*
X316568460Y-129519440D01*
G37*
G36*
X246486259Y-129510438D02*
X245047379Y-129510438D01*
X245047379Y-128071558D01*
X246486259Y-128071558D01*
X246486259Y-129510438D01*
X246486259Y-129510438D01*
G37*
G36*
X252486259Y-129410438D02*
X251047379Y-129410438D01*
X251047379Y-127971558D01*
X252486259Y-127971558D01*
X252486259Y-129410438D01*
X252486259Y-129410438D01*
G37*
G36*
X249486259Y-129360438D02*
X248047379Y-129360438D01*
X248047379Y-127921558D01*
X249486259Y-127921558D01*
X249486259Y-129360438D01*
X249486259Y-129360438D01*
G37*
G36*
X178822743Y-125977289D02*
X178878770Y-125988433D01*
X179037100Y-126054016D01*
X179179593Y-126149227D01*
X179300773Y-126270407D01*
X179367707Y-126370580D01*
X179395985Y-126412902D01*
X179461567Y-126571231D01*
X179495000Y-126739310D01*
X179495000Y-126910690D01*
X179482914Y-126971450D01*
X179461567Y-127078770D01*
X179395984Y-127237100D01*
X179300773Y-127379593D01*
X179179593Y-127500773D01*
X179037100Y-127595984D01*
X178878770Y-127661567D01*
X178822743Y-127672711D01*
X178710690Y-127695000D01*
X178539310Y-127695000D01*
X178427257Y-127672711D01*
X178371230Y-127661567D01*
X178212900Y-127595984D01*
X178070407Y-127500773D01*
X177949227Y-127379593D01*
X177854016Y-127237100D01*
X177788433Y-127078770D01*
X177767086Y-126971450D01*
X177755000Y-126910690D01*
X177755000Y-126739310D01*
X177788433Y-126571231D01*
X177854015Y-126412902D01*
X177882294Y-126370580D01*
X177949227Y-126270407D01*
X178070407Y-126149227D01*
X178212900Y-126054016D01*
X178371230Y-125988433D01*
X178427257Y-125977289D01*
X178539310Y-125955000D01*
X178710690Y-125955000D01*
X178822743Y-125977289D01*
X178822743Y-125977289D01*
G37*
G36*
X215062547Y-123280701D02*
X215444722Y-123439003D01*
X215444723Y-123439004D01*
X215788672Y-123668823D01*
X216081177Y-123961328D01*
X216206727Y-124149227D01*
X216310997Y-124305278D01*
X216469299Y-124687453D01*
X216550000Y-125093166D01*
X216550000Y-125506834D01*
X216469299Y-125912547D01*
X216310997Y-126294722D01*
X216260310Y-126370580D01*
X216081177Y-126638672D01*
X215788672Y-126931177D01*
X215567783Y-127078770D01*
X215444722Y-127160997D01*
X215062547Y-127319299D01*
X214656834Y-127400000D01*
X214243166Y-127400000D01*
X213837453Y-127319299D01*
X213455278Y-127160997D01*
X213332217Y-127078770D01*
X213111328Y-126931177D01*
X212818823Y-126638672D01*
X212639690Y-126370580D01*
X212589003Y-126294722D01*
X212430701Y-125912547D01*
X212350000Y-125506834D01*
X212350000Y-125093166D01*
X212430701Y-124687453D01*
X212589003Y-124305278D01*
X212693273Y-124149227D01*
X212818823Y-123961328D01*
X213111328Y-123668823D01*
X213455277Y-123439004D01*
X213455278Y-123439003D01*
X213837453Y-123280701D01*
X214243166Y-123200000D01*
X214656834Y-123200000D01*
X215062547Y-123280701D01*
X215062547Y-123280701D01*
G37*
G36*
X194647297Y-123636540D02*
X194716812Y-123657627D01*
X194732566Y-123666048D01*
X194780883Y-123691874D01*
X194780884Y-123691875D01*
X194780886Y-123691876D01*
X194837040Y-123737960D01*
X194883124Y-123794114D01*
X194917373Y-123858188D01*
X194938460Y-123927703D01*
X194945762Y-124001838D01*
X194945762Y-125998162D01*
X194938460Y-126072297D01*
X194917373Y-126141812D01*
X194883124Y-126205886D01*
X194837040Y-126262040D01*
X194780886Y-126308124D01*
X194780884Y-126308125D01*
X194780883Y-126308126D01*
X194748849Y-126325249D01*
X194716812Y-126342373D01*
X194647297Y-126363460D01*
X194573162Y-126370762D01*
X190076838Y-126370762D01*
X190002703Y-126363460D01*
X189933188Y-126342373D01*
X189901151Y-126325249D01*
X189869117Y-126308126D01*
X189869116Y-126308125D01*
X189869114Y-126308124D01*
X189812960Y-126262040D01*
X189766876Y-126205886D01*
X189732627Y-126141812D01*
X189711540Y-126072297D01*
X189704238Y-125998162D01*
X189704238Y-124001838D01*
X189711540Y-123927703D01*
X189732627Y-123858188D01*
X189766876Y-123794114D01*
X189812960Y-123737960D01*
X189869114Y-123691876D01*
X189869116Y-123691875D01*
X189869117Y-123691874D01*
X189917434Y-123666048D01*
X189933188Y-123657627D01*
X190002703Y-123636540D01*
X190076838Y-123629238D01*
X194573162Y-123629238D01*
X194647297Y-123636540D01*
X194647297Y-123636540D01*
G37*
G36*
X314269310Y-126345450D02*
X313178410Y-126345450D01*
X313178410Y-125254550D01*
X314269310Y-125254550D01*
X314269310Y-126345450D01*
X314269310Y-126345450D01*
G37*
G36*
X310921590Y-126345450D02*
X309830690Y-126345450D01*
X309830690Y-125254550D01*
X310921590Y-125254550D01*
X310921590Y-126345450D01*
X310921590Y-126345450D01*
G37*
G36*
X178822743Y-123977289D02*
X178878770Y-123988433D01*
X179037100Y-124054016D01*
X179179593Y-124149227D01*
X179300773Y-124270407D01*
X179395984Y-124412900D01*
X179461567Y-124571230D01*
X179495000Y-124739312D01*
X179495000Y-124910688D01*
X179461567Y-125078770D01*
X179395984Y-125237100D01*
X179300773Y-125379593D01*
X179179593Y-125500773D01*
X179037100Y-125595984D01*
X178878770Y-125661567D01*
X178822743Y-125672711D01*
X178710690Y-125695000D01*
X178539310Y-125695000D01*
X178427257Y-125672711D01*
X178371230Y-125661567D01*
X178212900Y-125595984D01*
X178070407Y-125500773D01*
X177949227Y-125379593D01*
X177854016Y-125237100D01*
X177788433Y-125078770D01*
X177755000Y-124910688D01*
X177755000Y-124739312D01*
X177788433Y-124571230D01*
X177854016Y-124412900D01*
X177949227Y-124270407D01*
X178070407Y-124149227D01*
X178212900Y-124054016D01*
X178371230Y-123988433D01*
X178427257Y-123977289D01*
X178539310Y-123955000D01*
X178710690Y-123955000D01*
X178822743Y-123977289D01*
X178822743Y-123977289D01*
G37*
G36*
X222360029Y-122025726D02*
X222600253Y-122125230D01*
X222600255Y-122125231D01*
X222816451Y-122269689D01*
X223000311Y-122453549D01*
X223119996Y-122632669D01*
X223144770Y-122669747D01*
X223244274Y-122909971D01*
X223295000Y-123164989D01*
X223295000Y-123425011D01*
X223244274Y-123680029D01*
X223144770Y-123920253D01*
X223144769Y-123920255D01*
X223000311Y-124136451D01*
X222816451Y-124320311D01*
X222600255Y-124464769D01*
X222600254Y-124464770D01*
X222600253Y-124464770D01*
X222360029Y-124564274D01*
X222105011Y-124615000D01*
X221844989Y-124615000D01*
X221589971Y-124564274D01*
X221349747Y-124464770D01*
X221349746Y-124464770D01*
X221349745Y-124464769D01*
X221133549Y-124320311D01*
X220949689Y-124136451D01*
X220805231Y-123920255D01*
X220805230Y-123920253D01*
X220705726Y-123680029D01*
X220655000Y-123425011D01*
X220655000Y-123164989D01*
X220705726Y-122909971D01*
X220805230Y-122669747D01*
X220830005Y-122632669D01*
X220949689Y-122453549D01*
X221133549Y-122269689D01*
X221349745Y-122125231D01*
X221349747Y-122125230D01*
X221589971Y-122025726D01*
X221844989Y-121975000D01*
X222105011Y-121975000D01*
X222360029Y-122025726D01*
X222360029Y-122025726D01*
G37*
G36*
X299246664Y-124069720D02*
X279256664Y-124069720D01*
X279256664Y-122679720D01*
X299246664Y-122679720D01*
X299246664Y-124069720D01*
X299246664Y-124069720D01*
G37*
G36*
X177065465Y-122618835D02*
X177135016Y-122632669D01*
X177266048Y-122686944D01*
X177383973Y-122765739D01*
X177484261Y-122866027D01*
X177563056Y-122983952D01*
X177617331Y-123114984D01*
X177627278Y-123164991D01*
X177645000Y-123254084D01*
X177645000Y-123395916D01*
X177636429Y-123439003D01*
X177617331Y-123535016D01*
X177563056Y-123666048D01*
X177484261Y-123783973D01*
X177383973Y-123884261D01*
X177266048Y-123963056D01*
X177135016Y-124017331D01*
X177065465Y-124031166D01*
X176995916Y-124045000D01*
X176854084Y-124045000D01*
X176784535Y-124031166D01*
X176714984Y-124017331D01*
X176583952Y-123963056D01*
X176466027Y-123884261D01*
X176365739Y-123783973D01*
X176286944Y-123666048D01*
X176232669Y-123535016D01*
X176213571Y-123439003D01*
X176205000Y-123395916D01*
X176205000Y-123254084D01*
X176222722Y-123164991D01*
X176232669Y-123114984D01*
X176286944Y-122983952D01*
X176365739Y-122866027D01*
X176466027Y-122765739D01*
X176583952Y-122686944D01*
X176714984Y-122632669D01*
X176784535Y-122618835D01*
X176854084Y-122605000D01*
X176995916Y-122605000D01*
X177065465Y-122618835D01*
X177065465Y-122618835D01*
G37*
G36*
X266820000Y-123470000D02*
X265280000Y-123470000D01*
X265280000Y-121680000D01*
X266820000Y-121680000D01*
X266820000Y-123470000D01*
X266820000Y-123470000D01*
G37*
G36*
X320270000Y-123470000D02*
X317430000Y-123470000D01*
X317430000Y-121630000D01*
X320270000Y-121630000D01*
X320270000Y-123470000D01*
X320270000Y-123470000D01*
G37*
G36*
X316670000Y-123470000D02*
X313830000Y-123470000D01*
X313830000Y-121630000D01*
X316670000Y-121630000D01*
X316670000Y-123470000D01*
X316670000Y-123470000D01*
G37*
G36*
X262320000Y-123470000D02*
X260780000Y-123470000D01*
X260780000Y-121680000D01*
X262320000Y-121680000D01*
X262320000Y-123470000D01*
X262320000Y-123470000D01*
G37*
G36*
X197446069Y-117691343D02*
X197562486Y-117726658D01*
X197669774Y-117784005D01*
X197763817Y-117861183D01*
X197840995Y-117955226D01*
X197898342Y-118062514D01*
X197933657Y-118178931D01*
X197945762Y-118301838D01*
X197945762Y-122298162D01*
X197933657Y-122421069D01*
X197898342Y-122537486D01*
X197840995Y-122644774D01*
X197763817Y-122738817D01*
X197669774Y-122815995D01*
X197562486Y-122873342D01*
X197446069Y-122908657D01*
X197323162Y-122920762D01*
X193326838Y-122920762D01*
X193203931Y-122908657D01*
X193087514Y-122873342D01*
X192980226Y-122815995D01*
X192886183Y-122738817D01*
X192809005Y-122644774D01*
X192751658Y-122537486D01*
X192716343Y-122421069D01*
X192704238Y-122298162D01*
X192704238Y-118301838D01*
X192716343Y-118178931D01*
X192751658Y-118062514D01*
X192809005Y-117955226D01*
X192886183Y-117861183D01*
X192980226Y-117784005D01*
X193087514Y-117726658D01*
X193203931Y-117691343D01*
X193326838Y-117679238D01*
X197323162Y-117679238D01*
X197446069Y-117691343D01*
X197446069Y-117691343D01*
G37*
G36*
X191446069Y-117691343D02*
X191562486Y-117726658D01*
X191669774Y-117784005D01*
X191763817Y-117861183D01*
X191840995Y-117955226D01*
X191898342Y-118062514D01*
X191933657Y-118178931D01*
X191945762Y-118301838D01*
X191945762Y-122298162D01*
X191933657Y-122421069D01*
X191898342Y-122537486D01*
X191840995Y-122644774D01*
X191763817Y-122738817D01*
X191669774Y-122815995D01*
X191562486Y-122873342D01*
X191446069Y-122908657D01*
X191323162Y-122920762D01*
X187326838Y-122920762D01*
X187203931Y-122908657D01*
X187087514Y-122873342D01*
X186980226Y-122815995D01*
X186886183Y-122738817D01*
X186809005Y-122644774D01*
X186751658Y-122537486D01*
X186716343Y-122421069D01*
X186704238Y-122298162D01*
X186704238Y-118301838D01*
X186716343Y-118178931D01*
X186751658Y-118062514D01*
X186809005Y-117955226D01*
X186886183Y-117861183D01*
X186980226Y-117784005D01*
X187087514Y-117726658D01*
X187203931Y-117691343D01*
X187326838Y-117679238D01*
X191323162Y-117679238D01*
X191446069Y-117691343D01*
X191446069Y-117691343D01*
G37*
G36*
X206515545Y-115562960D02*
X206843005Y-115662294D01*
X207144792Y-115823603D01*
X207213698Y-115880153D01*
X207409312Y-116040688D01*
X207527708Y-116184955D01*
X207626397Y-116305208D01*
X207703790Y-116450000D01*
X207787706Y-116606995D01*
X207887040Y-116934455D01*
X207920762Y-117276838D01*
X207920762Y-120523162D01*
X207887040Y-120865545D01*
X207803690Y-121140313D01*
X207787706Y-121193005D01*
X207626397Y-121494792D01*
X207569847Y-121563698D01*
X207409312Y-121759312D01*
X207213698Y-121919847D01*
X207144792Y-121976397D01*
X207144790Y-121976398D01*
X206843005Y-122137706D01*
X206515545Y-122237040D01*
X206173162Y-122270762D01*
X201926838Y-122270762D01*
X201584455Y-122237040D01*
X201256995Y-122137706D01*
X200955210Y-121976398D01*
X200955208Y-121976397D01*
X200886302Y-121919847D01*
X200690688Y-121759312D01*
X200530153Y-121563698D01*
X200473603Y-121494792D01*
X200312294Y-121193005D01*
X200296310Y-121140313D01*
X200212960Y-120865545D01*
X200179238Y-120523162D01*
X200179238Y-117276838D01*
X200212960Y-116934455D01*
X200312294Y-116606995D01*
X200396210Y-116450000D01*
X200473603Y-116305208D01*
X200572292Y-116184955D01*
X200690688Y-116040688D01*
X200886302Y-115880153D01*
X200955208Y-115823603D01*
X201256995Y-115662294D01*
X201584455Y-115562960D01*
X201926838Y-115529238D01*
X206173162Y-115529238D01*
X206515545Y-115562960D01*
X206515545Y-115562960D01*
G37*
G36*
X278070832Y-121970000D02*
X276430832Y-121970000D01*
X276430832Y-119630000D01*
X278070832Y-119630000D01*
X278070832Y-121970000D01*
X278070832Y-121970000D01*
G37*
G36*
X302070832Y-121969720D02*
X300430832Y-121969720D01*
X300430832Y-119629720D01*
X302070832Y-119629720D01*
X302070832Y-121969720D01*
X302070832Y-121969720D01*
G37*
G36*
X222360029Y-118845726D02*
X222539342Y-118920000D01*
X222600255Y-118945231D01*
X222816451Y-119089689D01*
X223000311Y-119273549D01*
X223124434Y-119459311D01*
X223144770Y-119489747D01*
X223244274Y-119729971D01*
X223295000Y-119984989D01*
X223295000Y-120245011D01*
X223244274Y-120500029D01*
X223144770Y-120740253D01*
X223144769Y-120740255D01*
X223000311Y-120956451D01*
X222816451Y-121140311D01*
X222600255Y-121284769D01*
X222600254Y-121284770D01*
X222600253Y-121284770D01*
X222360029Y-121384274D01*
X222105011Y-121435000D01*
X221844989Y-121435000D01*
X221589971Y-121384274D01*
X221349747Y-121284770D01*
X221349746Y-121284770D01*
X221349745Y-121284769D01*
X221133549Y-121140311D01*
X220949689Y-120956451D01*
X220805231Y-120740255D01*
X220805230Y-120740253D01*
X220705726Y-120500029D01*
X220655000Y-120245011D01*
X220655000Y-119984989D01*
X220705726Y-119729971D01*
X220805230Y-119489747D01*
X220825567Y-119459311D01*
X220949689Y-119273549D01*
X221133549Y-119089689D01*
X221349745Y-118945231D01*
X221410658Y-118920000D01*
X221589971Y-118845726D01*
X221844989Y-118795000D01*
X222105011Y-118795000D01*
X222360029Y-118845726D01*
X222360029Y-118845726D01*
G37*
G36*
X182515545Y-113262960D02*
X182843005Y-113362294D01*
X183144792Y-113523603D01*
X183213512Y-113580000D01*
X183409312Y-113740688D01*
X183569847Y-113936302D01*
X183626397Y-114005208D01*
X183626398Y-114005210D01*
X183787706Y-114306995D01*
X183887040Y-114634455D01*
X183920762Y-114976838D01*
X183920762Y-118223162D01*
X183887040Y-118565545D01*
X183787706Y-118893005D01*
X183626397Y-119194792D01*
X183619829Y-119202795D01*
X183409312Y-119459312D01*
X183213698Y-119619847D01*
X183144792Y-119676397D01*
X183144790Y-119676398D01*
X182843005Y-119837706D01*
X182515545Y-119937040D01*
X182173162Y-119970762D01*
X177926838Y-119970762D01*
X177584455Y-119937040D01*
X177256995Y-119837706D01*
X176955210Y-119676398D01*
X176955208Y-119676397D01*
X176886302Y-119619847D01*
X176690688Y-119459312D01*
X176480171Y-119202795D01*
X176473603Y-119194792D01*
X176312294Y-118893005D01*
X176212960Y-118565545D01*
X176179238Y-118223162D01*
X176179238Y-114976838D01*
X176212960Y-114634455D01*
X176312294Y-114306995D01*
X176473602Y-114005210D01*
X176473603Y-114005208D01*
X176530153Y-113936302D01*
X176690688Y-113740688D01*
X176886488Y-113580000D01*
X176955208Y-113523603D01*
X177256995Y-113362294D01*
X177584455Y-113262960D01*
X177926838Y-113229238D01*
X182173162Y-113229238D01*
X182515545Y-113262960D01*
X182515545Y-113262960D01*
G37*
G36*
X314269310Y-119845450D02*
X313178410Y-119845450D01*
X313178410Y-118754550D01*
X314269310Y-118754550D01*
X314269310Y-119845450D01*
X314269310Y-119845450D01*
G37*
G36*
X310921590Y-119845450D02*
X309830690Y-119845450D01*
X309830690Y-118754550D01*
X310921590Y-118754550D01*
X310921590Y-119845450D01*
X310921590Y-119845450D01*
G37*
G36*
X266950000Y-119450000D02*
X265050000Y-119450000D01*
X265050000Y-118250000D01*
X266950000Y-118250000D01*
X266950000Y-119450000D01*
X266950000Y-119450000D01*
G37*
G36*
X300388548Y-118443252D02*
X300475000Y-118479062D01*
X300552792Y-118531041D01*
X300618959Y-118597208D01*
X300670938Y-118675000D01*
X300706748Y-118761452D01*
X300725000Y-118853214D01*
X300725000Y-118946786D01*
X300706748Y-119038548D01*
X300670938Y-119125000D01*
X300618959Y-119202792D01*
X300552792Y-119268959D01*
X300475000Y-119320938D01*
X300388548Y-119356748D01*
X300296786Y-119375000D01*
X300203214Y-119375000D01*
X300111452Y-119356748D01*
X300025000Y-119320938D01*
X299947208Y-119268959D01*
X299881041Y-119202792D01*
X299829062Y-119125000D01*
X299793252Y-119038548D01*
X299775000Y-118946786D01*
X299775000Y-118853214D01*
X299793252Y-118761452D01*
X299829062Y-118675000D01*
X299881041Y-118597208D01*
X299947208Y-118531041D01*
X300025000Y-118479062D01*
X300111452Y-118443252D01*
X300203214Y-118425000D01*
X300296786Y-118425000D01*
X300388548Y-118443252D01*
X300388548Y-118443252D01*
G37*
G36*
X278388548Y-118443252D02*
X278475000Y-118479062D01*
X278552792Y-118531041D01*
X278618959Y-118597208D01*
X278670938Y-118675000D01*
X278706748Y-118761452D01*
X278725000Y-118853214D01*
X278725000Y-118946786D01*
X278706748Y-119038548D01*
X278670938Y-119125000D01*
X278618959Y-119202792D01*
X278552792Y-119268959D01*
X278475000Y-119320938D01*
X278388548Y-119356748D01*
X278296786Y-119375000D01*
X278203214Y-119375000D01*
X278111452Y-119356748D01*
X278025000Y-119320938D01*
X277947208Y-119268959D01*
X277881041Y-119202792D01*
X277829062Y-119125000D01*
X277793252Y-119038548D01*
X277775000Y-118946786D01*
X277775000Y-118853214D01*
X277793252Y-118761452D01*
X277829062Y-118675000D01*
X277881041Y-118597208D01*
X277947208Y-118531041D01*
X278025000Y-118479062D01*
X278111452Y-118443252D01*
X278203214Y-118425000D01*
X278296786Y-118425000D01*
X278388548Y-118443252D01*
X278388548Y-118443252D01*
G37*
G36*
X299246664Y-118920000D02*
X279256664Y-118920000D01*
X279256664Y-117530000D01*
X299246664Y-117530000D01*
X299246664Y-118920000D01*
X299246664Y-118920000D01*
G37*
G36*
X222360029Y-115665726D02*
X222600253Y-115765230D01*
X222600255Y-115765231D01*
X222816451Y-115909689D01*
X223000311Y-116093549D01*
X223141739Y-116305210D01*
X223144770Y-116309747D01*
X223244274Y-116549971D01*
X223295000Y-116804989D01*
X223295000Y-117065011D01*
X223244274Y-117320029D01*
X223183139Y-117467621D01*
X223144769Y-117560255D01*
X223000311Y-117776451D01*
X222816451Y-117960311D01*
X222600255Y-118104769D01*
X222600254Y-118104770D01*
X222600253Y-118104770D01*
X222360029Y-118204274D01*
X222105011Y-118255000D01*
X221844989Y-118255000D01*
X221589971Y-118204274D01*
X221349747Y-118104770D01*
X221349746Y-118104770D01*
X221349745Y-118104769D01*
X221133549Y-117960311D01*
X220949689Y-117776451D01*
X220805231Y-117560255D01*
X220766861Y-117467621D01*
X220705726Y-117320029D01*
X220655000Y-117065011D01*
X220655000Y-116804989D01*
X220705726Y-116549971D01*
X220805230Y-116309747D01*
X220808262Y-116305210D01*
X220949689Y-116093549D01*
X221133549Y-115909689D01*
X221349745Y-115765231D01*
X221349747Y-115765230D01*
X221589971Y-115665726D01*
X221844989Y-115615000D01*
X222105011Y-115615000D01*
X222360029Y-115665726D01*
X222360029Y-115665726D01*
G37*
G36*
X266467621Y-116758682D02*
X266580721Y-116792990D01*
X266684955Y-116848704D01*
X266776317Y-116923683D01*
X266851296Y-117015045D01*
X266907010Y-117119279D01*
X266941318Y-117232379D01*
X266952903Y-117350000D01*
X266941318Y-117467621D01*
X266907010Y-117580721D01*
X266851296Y-117684955D01*
X266776317Y-117776317D01*
X266684955Y-117851296D01*
X266580721Y-117907010D01*
X266467621Y-117941318D01*
X266379474Y-117950000D01*
X265620526Y-117950000D01*
X265532379Y-117941318D01*
X265419279Y-117907010D01*
X265315045Y-117851296D01*
X265223683Y-117776317D01*
X265148704Y-117684955D01*
X265092990Y-117580721D01*
X265058682Y-117467621D01*
X265047097Y-117350000D01*
X265058682Y-117232379D01*
X265092990Y-117119279D01*
X265148704Y-117015045D01*
X265223683Y-116923683D01*
X265315045Y-116848704D01*
X265419279Y-116792990D01*
X265532379Y-116758682D01*
X265620526Y-116750000D01*
X266379474Y-116750000D01*
X266467621Y-116758682D01*
X266467621Y-116758682D01*
G37*
G36*
X320020000Y-117320000D02*
X319080000Y-117320000D01*
X319080000Y-115780000D01*
X320020000Y-115780000D01*
X320020000Y-117320000D01*
X320020000Y-117320000D01*
G37*
G36*
X318120000Y-117320000D02*
X317180000Y-117320000D01*
X317180000Y-115780000D01*
X318120000Y-115780000D01*
X318120000Y-117320000D01*
X318120000Y-117320000D01*
G37*
G36*
X316818460Y-117269440D02*
X315379580Y-117269440D01*
X315379580Y-115830560D01*
X316818460Y-115830560D01*
X316818460Y-117269440D01*
X316818460Y-117269440D01*
G37*
G36*
X314720420Y-117269440D02*
X313281540Y-117269440D01*
X313281540Y-115830560D01*
X314720420Y-115830560D01*
X314720420Y-117269440D01*
X314720420Y-117269440D01*
G37*
G36*
X194647297Y-114236540D02*
X194716812Y-114257627D01*
X194748849Y-114274751D01*
X194780883Y-114291874D01*
X194780884Y-114291875D01*
X194780886Y-114291876D01*
X194837040Y-114337960D01*
X194883124Y-114394114D01*
X194917373Y-114458188D01*
X194938460Y-114527703D01*
X194945762Y-114601838D01*
X194945762Y-116598162D01*
X194938460Y-116672297D01*
X194917373Y-116741812D01*
X194900249Y-116773849D01*
X194883603Y-116804991D01*
X194883124Y-116805886D01*
X194837040Y-116862040D01*
X194780886Y-116908124D01*
X194780884Y-116908125D01*
X194780883Y-116908126D01*
X194751778Y-116923683D01*
X194716812Y-116942373D01*
X194647297Y-116963460D01*
X194573162Y-116970762D01*
X190076838Y-116970762D01*
X190002703Y-116963460D01*
X189933188Y-116942373D01*
X189898222Y-116923683D01*
X189869117Y-116908126D01*
X189869116Y-116908125D01*
X189869114Y-116908124D01*
X189812960Y-116862040D01*
X189766876Y-116805886D01*
X189766398Y-116804991D01*
X189749751Y-116773849D01*
X189732627Y-116741812D01*
X189711540Y-116672297D01*
X189704238Y-116598162D01*
X189704238Y-114601838D01*
X189711540Y-114527703D01*
X189732627Y-114458188D01*
X189766876Y-114394114D01*
X189812960Y-114337960D01*
X189869114Y-114291876D01*
X189869116Y-114291875D01*
X189869117Y-114291874D01*
X189901151Y-114274752D01*
X189933188Y-114257627D01*
X190002703Y-114236540D01*
X190076838Y-114229238D01*
X194573162Y-114229238D01*
X194647297Y-114236540D01*
X194647297Y-114236540D01*
G37*
G36*
X266467621Y-115258682D02*
X266580721Y-115292990D01*
X266684955Y-115348704D01*
X266776317Y-115423683D01*
X266851296Y-115515045D01*
X266907010Y-115619279D01*
X266941318Y-115732379D01*
X266952903Y-115850000D01*
X266941318Y-115967621D01*
X266907010Y-116080721D01*
X266851296Y-116184955D01*
X266776317Y-116276317D01*
X266684955Y-116351296D01*
X266580721Y-116407010D01*
X266467621Y-116441318D01*
X266379474Y-116450000D01*
X265620526Y-116450000D01*
X265532379Y-116441318D01*
X265419279Y-116407010D01*
X265315045Y-116351296D01*
X265223683Y-116276317D01*
X265148704Y-116184955D01*
X265092990Y-116080721D01*
X265058682Y-115967621D01*
X265047097Y-115850000D01*
X265058682Y-115732379D01*
X265092990Y-115619279D01*
X265148704Y-115515045D01*
X265223683Y-115423683D01*
X265315045Y-115348704D01*
X265419279Y-115292990D01*
X265532379Y-115258682D01*
X265620526Y-115250000D01*
X266379474Y-115250000D01*
X266467621Y-115258682D01*
X266467621Y-115258682D01*
G37*
G36*
X213120000Y-115820000D02*
X210880000Y-115820000D01*
X210880000Y-113580000D01*
X213120000Y-113580000D01*
X213120000Y-115820000D01*
X213120000Y-115820000D01*
G37*
G36*
X217326687Y-113623039D02*
X217530522Y-113707470D01*
X217713131Y-113829486D01*
X217713958Y-113830039D01*
X217869961Y-113986042D01*
X217869963Y-113986045D01*
X217992530Y-114169478D01*
X218076961Y-114373313D01*
X218120000Y-114589687D01*
X218120000Y-114810313D01*
X218076961Y-115026687D01*
X217992530Y-115230522D01*
X217870514Y-115413131D01*
X217869961Y-115413958D01*
X217713958Y-115569961D01*
X217713955Y-115569963D01*
X217530522Y-115692530D01*
X217326687Y-115776961D01*
X217110313Y-115820000D01*
X216889687Y-115820000D01*
X216673313Y-115776961D01*
X216469478Y-115692530D01*
X216286045Y-115569963D01*
X216286042Y-115569961D01*
X216130039Y-115413958D01*
X216129486Y-115413131D01*
X216007470Y-115230522D01*
X215923039Y-115026687D01*
X215880000Y-114810313D01*
X215880000Y-114589687D01*
X215923039Y-114373313D01*
X216007470Y-114169478D01*
X216130037Y-113986045D01*
X216130039Y-113986042D01*
X216286042Y-113830039D01*
X216286869Y-113829486D01*
X216469478Y-113707470D01*
X216673313Y-113623039D01*
X216889687Y-113580000D01*
X217110313Y-113580000D01*
X217326687Y-113623039D01*
X217326687Y-113623039D01*
G37*
G36*
X205469163Y-108087939D02*
X206040493Y-108261250D01*
X206567032Y-108542691D01*
X207028550Y-108921450D01*
X207407309Y-109382968D01*
X207688750Y-109909507D01*
X207862061Y-110480837D01*
X207920762Y-111076838D01*
X207920762Y-111723162D01*
X207862061Y-112319163D01*
X207688750Y-112890493D01*
X207407309Y-113417032D01*
X207028550Y-113878550D01*
X206567032Y-114257309D01*
X206040493Y-114538750D01*
X205469163Y-114712061D01*
X204873162Y-114770762D01*
X203226838Y-114770762D01*
X202630837Y-114712061D01*
X202059507Y-114538750D01*
X201532968Y-114257309D01*
X201071450Y-113878550D01*
X200692691Y-113417032D01*
X200411250Y-112890493D01*
X200237939Y-112319163D01*
X200179238Y-111723162D01*
X200179238Y-111076838D01*
X200237939Y-110480837D01*
X200411250Y-109909507D01*
X200692691Y-109382968D01*
X201071450Y-108921450D01*
X201532968Y-108542691D01*
X202059507Y-108261250D01*
X202630837Y-108087939D01*
X203226838Y-108029238D01*
X204873162Y-108029238D01*
X205469163Y-108087939D01*
X205469163Y-108087939D01*
G37*
G36*
X313865465Y-111468835D02*
X313935016Y-111482669D01*
X314066048Y-111536944D01*
X314183973Y-111615739D01*
X314284261Y-111716027D01*
X314363056Y-111833952D01*
X314417331Y-111964984D01*
X314445000Y-112104086D01*
X314445000Y-112245914D01*
X314417331Y-112385016D01*
X314363056Y-112516048D01*
X314284261Y-112633973D01*
X314183973Y-112734261D01*
X314066048Y-112813056D01*
X313935016Y-112867331D01*
X313865465Y-112881166D01*
X313795916Y-112895000D01*
X313654084Y-112895000D01*
X313584535Y-112881166D01*
X313514984Y-112867331D01*
X313383952Y-112813056D01*
X313266027Y-112734261D01*
X313165739Y-112633973D01*
X313086944Y-112516048D01*
X313032669Y-112385016D01*
X313005000Y-112245914D01*
X313005000Y-112104086D01*
X313032669Y-111964984D01*
X313086944Y-111833952D01*
X313165739Y-111716027D01*
X313266027Y-111615739D01*
X313383952Y-111536944D01*
X313514984Y-111482669D01*
X313584535Y-111468835D01*
X313654084Y-111455000D01*
X313795916Y-111455000D01*
X313865465Y-111468835D01*
X313865465Y-111468835D01*
G37*
G36*
X181469163Y-105787939D02*
X182040493Y-105961250D01*
X182567032Y-106242691D01*
X183028550Y-106621450D01*
X183407309Y-107082968D01*
X183688750Y-107609507D01*
X183862061Y-108180837D01*
X183920762Y-108776838D01*
X183920762Y-109423162D01*
X183862061Y-110019163D01*
X183688750Y-110590493D01*
X183407309Y-111117032D01*
X183028550Y-111578550D01*
X182567032Y-111957309D01*
X182040493Y-112238750D01*
X181469163Y-112412061D01*
X180873162Y-112470762D01*
X179226838Y-112470762D01*
X178630837Y-112412061D01*
X178059507Y-112238750D01*
X177532968Y-111957309D01*
X177071450Y-111578550D01*
X176692691Y-111117032D01*
X176411250Y-110590493D01*
X176237939Y-110019163D01*
X176179238Y-109423162D01*
X176179238Y-108776838D01*
X176237939Y-108180837D01*
X176411250Y-107609507D01*
X176692691Y-107082968D01*
X177071450Y-106621450D01*
X177532968Y-106242691D01*
X178059507Y-105961250D01*
X178630837Y-105787939D01*
X179226838Y-105729238D01*
X180873162Y-105729238D01*
X181469163Y-105787939D01*
X181469163Y-105787939D01*
G37*
G36*
X266719440Y-112468460D02*
X265280560Y-112468460D01*
X265280560Y-111029580D01*
X266719440Y-111029580D01*
X266719440Y-112468460D01*
X266719440Y-112468460D01*
G37*
G36*
X315622743Y-109827289D02*
X315678770Y-109838433D01*
X315837100Y-109904016D01*
X315979593Y-109999227D01*
X316100773Y-110120407D01*
X316195984Y-110262900D01*
X316261567Y-110421230D01*
X316295000Y-110589312D01*
X316295000Y-110760688D01*
X316261567Y-110928770D01*
X316195984Y-111087100D01*
X316100773Y-111229593D01*
X315979593Y-111350773D01*
X315837100Y-111445984D01*
X315678770Y-111511567D01*
X315622743Y-111522711D01*
X315510690Y-111545000D01*
X315339310Y-111545000D01*
X315227257Y-111522711D01*
X315171230Y-111511567D01*
X315012900Y-111445984D01*
X314870407Y-111350773D01*
X314749227Y-111229593D01*
X314654016Y-111087100D01*
X314588433Y-110928770D01*
X314555000Y-110760688D01*
X314555000Y-110589312D01*
X314588433Y-110421230D01*
X314654016Y-110262900D01*
X314749227Y-110120407D01*
X314870407Y-109999227D01*
X315012900Y-109904016D01*
X315171230Y-109838433D01*
X315227257Y-109827289D01*
X315339310Y-109805000D01*
X315510690Y-109805000D01*
X315622743Y-109827289D01*
X315622743Y-109827289D01*
G37*
G36*
X266719440Y-110370420D02*
X265280560Y-110370420D01*
X265280560Y-108931540D01*
X266719440Y-108931540D01*
X266719440Y-110370420D01*
X266719440Y-110370420D01*
G37*
G36*
X304604209Y-106473015D02*
X304949987Y-106616241D01*
X305261176Y-106824171D01*
X305525829Y-107088824D01*
X305733759Y-107400013D01*
X305876985Y-107745791D01*
X305950000Y-108112864D01*
X305950000Y-108487136D01*
X305876985Y-108854209D01*
X305733759Y-109199987D01*
X305525829Y-109511176D01*
X305261176Y-109775829D01*
X304949987Y-109983759D01*
X304604209Y-110126985D01*
X304237136Y-110200000D01*
X303862864Y-110200000D01*
X303495791Y-110126985D01*
X303150013Y-109983759D01*
X302838824Y-109775829D01*
X302574171Y-109511176D01*
X302366241Y-109199987D01*
X302223015Y-108854209D01*
X302150000Y-108487136D01*
X302150000Y-108112864D01*
X302223015Y-107745791D01*
X302366241Y-107400013D01*
X302574171Y-107088824D01*
X302838824Y-106824171D01*
X303150013Y-106616241D01*
X303495791Y-106473015D01*
X303862864Y-106400000D01*
X304237136Y-106400000D01*
X304604209Y-106473015D01*
X304604209Y-106473015D01*
G37*
G36*
X274604209Y-106473015D02*
X274949987Y-106616241D01*
X275261176Y-106824171D01*
X275525829Y-107088824D01*
X275733759Y-107400013D01*
X275876985Y-107745791D01*
X275950000Y-108112864D01*
X275950000Y-108487136D01*
X275876985Y-108854209D01*
X275733759Y-109199987D01*
X275525829Y-109511176D01*
X275261176Y-109775829D01*
X274949987Y-109983759D01*
X274604209Y-110126985D01*
X274237136Y-110200000D01*
X273862864Y-110200000D01*
X273495791Y-110126985D01*
X273150013Y-109983759D01*
X272838824Y-109775829D01*
X272574171Y-109511176D01*
X272366241Y-109199987D01*
X272223015Y-108854209D01*
X272150000Y-108487136D01*
X272150000Y-108112864D01*
X272223015Y-107745791D01*
X272366241Y-107400013D01*
X272574171Y-107088824D01*
X272838824Y-106824171D01*
X273150013Y-106616241D01*
X273495791Y-106473015D01*
X273862864Y-106400000D01*
X274237136Y-106400000D01*
X274604209Y-106473015D01*
X274604209Y-106473015D01*
G37*
G36*
X216770000Y-110170000D02*
X214030000Y-110170000D01*
X214030000Y-105930000D01*
X216770000Y-105930000D01*
X216770000Y-110170000D01*
X216770000Y-110170000D01*
G37*
G36*
X315622743Y-107827289D02*
X315678770Y-107838433D01*
X315837100Y-107904016D01*
X315979593Y-107999227D01*
X316100773Y-108120407D01*
X316194882Y-108261250D01*
X316195985Y-108262902D01*
X316261567Y-108421231D01*
X316295000Y-108589310D01*
X316295000Y-108760690D01*
X316291788Y-108776838D01*
X316261567Y-108928770D01*
X316195984Y-109087100D01*
X316100773Y-109229593D01*
X315979593Y-109350773D01*
X315837100Y-109445984D01*
X315678770Y-109511567D01*
X315622743Y-109522711D01*
X315510690Y-109545000D01*
X315339310Y-109545000D01*
X315227257Y-109522711D01*
X315171230Y-109511567D01*
X315012900Y-109445984D01*
X314870407Y-109350773D01*
X314749227Y-109229593D01*
X314654016Y-109087100D01*
X314588433Y-108928770D01*
X314558212Y-108776838D01*
X314555000Y-108760690D01*
X314555000Y-108589310D01*
X314588433Y-108421231D01*
X314654015Y-108262902D01*
X314655119Y-108261250D01*
X314749227Y-108120407D01*
X314870407Y-107999227D01*
X315012900Y-107904016D01*
X315171230Y-107838433D01*
X315227257Y-107827289D01*
X315339310Y-107805000D01*
X315510690Y-107805000D01*
X315622743Y-107827289D01*
X315622743Y-107827289D01*
G37*
G36*
X266770000Y-108320000D02*
X265230000Y-108320000D01*
X265230000Y-107380000D01*
X266770000Y-107380000D01*
X266770000Y-108320000D01*
X266770000Y-108320000D01*
G37*
G36*
X315622743Y-105827289D02*
X315678770Y-105838433D01*
X315837100Y-105904016D01*
X315979593Y-105999227D01*
X316100773Y-106120407D01*
X316195984Y-106262900D01*
X316261567Y-106421230D01*
X316295000Y-106589312D01*
X316295000Y-106760688D01*
X316261567Y-106928770D01*
X316215193Y-107040726D01*
X316197697Y-107082966D01*
X316195984Y-107087100D01*
X316100773Y-107229593D01*
X315979593Y-107350773D01*
X315837100Y-107445984D01*
X315678770Y-107511567D01*
X315622743Y-107522711D01*
X315510690Y-107545000D01*
X315339310Y-107545000D01*
X315227257Y-107522711D01*
X315171230Y-107511567D01*
X315012900Y-107445984D01*
X314870407Y-107350773D01*
X314749227Y-107229593D01*
X314654016Y-107087100D01*
X314652304Y-107082966D01*
X314634807Y-107040726D01*
X314588433Y-106928770D01*
X314555000Y-106760688D01*
X314555000Y-106589312D01*
X314588433Y-106421230D01*
X314654016Y-106262900D01*
X314749227Y-106120407D01*
X314870407Y-105999227D01*
X315012900Y-105904016D01*
X315171230Y-105838433D01*
X315227257Y-105827289D01*
X315339310Y-105805000D01*
X315510690Y-105805000D01*
X315622743Y-105827289D01*
X315622743Y-105827289D01*
G37*
G36*
X230412547Y-103280701D02*
X230794722Y-103439003D01*
X230805171Y-103445985D01*
X231138672Y-103668823D01*
X231431177Y-103961328D01*
X231503789Y-104070000D01*
X231660997Y-104305278D01*
X231819299Y-104687453D01*
X231900000Y-105093166D01*
X231900000Y-105506834D01*
X231819299Y-105912547D01*
X231660997Y-106294722D01*
X231660996Y-106294723D01*
X231431177Y-106638672D01*
X231138672Y-106931177D01*
X230911503Y-107082966D01*
X230794722Y-107160997D01*
X230412547Y-107319299D01*
X230006834Y-107400000D01*
X229593166Y-107400000D01*
X229187453Y-107319299D01*
X228805278Y-107160997D01*
X228688497Y-107082966D01*
X228461328Y-106931177D01*
X228168823Y-106638672D01*
X227939004Y-106294723D01*
X227939003Y-106294722D01*
X227780701Y-105912547D01*
X227700000Y-105506834D01*
X227700000Y-105093166D01*
X227780701Y-104687453D01*
X227939003Y-104305278D01*
X228096211Y-104070000D01*
X228168823Y-103961328D01*
X228461328Y-103668823D01*
X228794829Y-103445985D01*
X228805278Y-103439003D01*
X229187453Y-103280701D01*
X229593166Y-103200000D01*
X230006834Y-103200000D01*
X230412547Y-103280701D01*
X230412547Y-103280701D01*
G37*
G36*
X266770000Y-106420000D02*
X265230000Y-106420000D01*
X265230000Y-105480000D01*
X266770000Y-105480000D01*
X266770000Y-106420000D01*
X266770000Y-106420000D01*
G37*
G36*
X241410029Y-102965726D02*
X241650253Y-103065230D01*
X241650255Y-103065231D01*
X241866451Y-103209689D01*
X242050311Y-103393549D01*
X242151508Y-103545000D01*
X242194770Y-103609747D01*
X242294274Y-103849971D01*
X242345000Y-104104989D01*
X242345000Y-104365011D01*
X242294274Y-104620029D01*
X242266346Y-104687453D01*
X242194769Y-104860255D01*
X242050311Y-105076451D01*
X241866451Y-105260311D01*
X241650255Y-105404769D01*
X241650254Y-105404770D01*
X241650253Y-105404770D01*
X241410029Y-105504274D01*
X241155011Y-105555000D01*
X240894989Y-105555000D01*
X240639971Y-105504274D01*
X240399747Y-105404770D01*
X240399746Y-105404770D01*
X240399745Y-105404769D01*
X240183549Y-105260311D01*
X239999689Y-105076451D01*
X239855231Y-104860255D01*
X239783654Y-104687453D01*
X239755726Y-104620029D01*
X239705000Y-104365011D01*
X239705000Y-104104989D01*
X239755726Y-103849971D01*
X239855230Y-103609747D01*
X239898493Y-103545000D01*
X239999689Y-103393549D01*
X240183549Y-103209689D01*
X240399745Y-103065231D01*
X240399747Y-103065230D01*
X240639971Y-102965726D01*
X240894989Y-102915000D01*
X241155011Y-102915000D01*
X241410029Y-102965726D01*
X241410029Y-102965726D01*
G37*
G36*
X222360029Y-102965726D02*
X222600253Y-103065230D01*
X222600255Y-103065231D01*
X222816451Y-103209689D01*
X223000311Y-103393549D01*
X223101508Y-103545000D01*
X223144770Y-103609747D01*
X223244274Y-103849971D01*
X223295000Y-104104989D01*
X223295000Y-104365011D01*
X223244274Y-104620029D01*
X223216346Y-104687453D01*
X223144769Y-104860255D01*
X223000311Y-105076451D01*
X222816451Y-105260311D01*
X222600255Y-105404769D01*
X222600254Y-105404770D01*
X222600253Y-105404770D01*
X222360029Y-105504274D01*
X222105011Y-105555000D01*
X221844989Y-105555000D01*
X221589971Y-105504274D01*
X221349747Y-105404770D01*
X221349746Y-105404770D01*
X221349745Y-105404769D01*
X221133549Y-105260311D01*
X220949689Y-105076451D01*
X220805231Y-104860255D01*
X220733654Y-104687453D01*
X220705726Y-104620029D01*
X220655000Y-104365011D01*
X220655000Y-104104989D01*
X220705726Y-103849971D01*
X220805230Y-103609747D01*
X220848493Y-103545000D01*
X220949689Y-103393549D01*
X221133549Y-103209689D01*
X221349745Y-103065231D01*
X221349747Y-103065230D01*
X221589971Y-102965726D01*
X221844989Y-102915000D01*
X222105011Y-102915000D01*
X222360029Y-102965726D01*
X222360029Y-102965726D01*
G37*
G36*
X315622743Y-103827289D02*
X315678770Y-103838433D01*
X315837100Y-103904016D01*
X315979593Y-103999227D01*
X316100773Y-104120407D01*
X316195984Y-104262900D01*
X316261567Y-104421230D01*
X316295000Y-104589312D01*
X316295000Y-104760688D01*
X316261567Y-104928770D01*
X316195984Y-105087100D01*
X316100773Y-105229593D01*
X315979593Y-105350773D01*
X315837100Y-105445984D01*
X315678770Y-105511567D01*
X315622743Y-105522711D01*
X315510690Y-105545000D01*
X315339310Y-105545000D01*
X315227257Y-105522711D01*
X315171230Y-105511567D01*
X315012900Y-105445984D01*
X314870407Y-105350773D01*
X314749227Y-105229593D01*
X314654016Y-105087100D01*
X314588433Y-104928770D01*
X314555000Y-104760688D01*
X314555000Y-104589312D01*
X314588433Y-104421230D01*
X314654016Y-104262900D01*
X314749227Y-104120407D01*
X314870407Y-103999227D01*
X315012900Y-103904016D01*
X315171230Y-103838433D01*
X315227257Y-103827289D01*
X315339310Y-103805000D01*
X315510690Y-103805000D01*
X315622743Y-103827289D01*
X315622743Y-103827289D01*
G37*
G36*
X216770000Y-104070000D02*
X214030000Y-104070000D01*
X214030000Y-99830000D01*
X216770000Y-99830000D01*
X216770000Y-104070000D01*
X216770000Y-104070000D01*
G37*
G36*
X315622743Y-101827289D02*
X315678770Y-101838433D01*
X315837100Y-101904016D01*
X315979593Y-101999227D01*
X316100773Y-102120407D01*
X316195984Y-102262900D01*
X316261567Y-102421230D01*
X316295000Y-102589312D01*
X316295000Y-102760688D01*
X316261567Y-102928770D01*
X316195984Y-103087100D01*
X316100773Y-103229593D01*
X315979593Y-103350773D01*
X315837100Y-103445984D01*
X315678770Y-103511567D01*
X315622743Y-103522711D01*
X315510690Y-103545000D01*
X315339310Y-103545000D01*
X315227257Y-103522711D01*
X315171230Y-103511567D01*
X315012900Y-103445984D01*
X314870407Y-103350773D01*
X314749227Y-103229593D01*
X314654016Y-103087100D01*
X314588433Y-102928770D01*
X314555000Y-102760688D01*
X314555000Y-102589312D01*
X314588433Y-102421230D01*
X314654016Y-102262900D01*
X314749227Y-102120407D01*
X314870407Y-101999227D01*
X315012900Y-101904016D01*
X315171230Y-101838433D01*
X315227257Y-101827289D01*
X315339310Y-101805000D01*
X315510690Y-101805000D01*
X315622743Y-101827289D01*
X315622743Y-101827289D01*
G37*
G36*
X206220000Y-103145000D02*
X204480000Y-103145000D01*
X204480000Y-100705000D01*
X206220000Y-100705000D01*
X206220000Y-103145000D01*
X206220000Y-103145000D01*
G37*
G36*
X210620000Y-103145000D02*
X208880000Y-103145000D01*
X208880000Y-100705000D01*
X210620000Y-100705000D01*
X210620000Y-103145000D01*
X210620000Y-103145000D01*
G37*
G36*
X193616000Y-102624000D02*
X191376000Y-102624000D01*
X191376000Y-100384000D01*
X193616000Y-100384000D01*
X193616000Y-102624000D01*
X193616000Y-102624000D01*
G37*
G36*
X175074000Y-102624000D02*
X172834000Y-102624000D01*
X172834000Y-100384000D01*
X175074000Y-100384000D01*
X175074000Y-102624000D01*
X175074000Y-102624000D01*
G37*
G36*
X315622743Y-99827289D02*
X315678770Y-99838433D01*
X315748535Y-99867331D01*
X315798570Y-99888056D01*
X315837100Y-99904016D01*
X315979593Y-99999227D01*
X316100773Y-100120407D01*
X316195984Y-100262900D01*
X316261567Y-100421230D01*
X316295000Y-100589312D01*
X316295000Y-100760688D01*
X316261567Y-100928770D01*
X316195984Y-101087100D01*
X316100773Y-101229593D01*
X315979593Y-101350773D01*
X315837100Y-101445984D01*
X315678770Y-101511567D01*
X315622743Y-101522711D01*
X315510690Y-101545000D01*
X315339310Y-101545000D01*
X315227257Y-101522711D01*
X315171230Y-101511567D01*
X315012900Y-101445984D01*
X314870407Y-101350773D01*
X314749227Y-101229593D01*
X314654016Y-101087100D01*
X314588433Y-100928770D01*
X314555000Y-100760688D01*
X314555000Y-100589312D01*
X314588433Y-100421230D01*
X314654016Y-100262900D01*
X314749227Y-100120407D01*
X314870407Y-99999227D01*
X315012900Y-99904016D01*
X315051431Y-99888056D01*
X315101465Y-99867331D01*
X315171230Y-99838433D01*
X315227257Y-99827289D01*
X315339310Y-99805000D01*
X315510690Y-99805000D01*
X315622743Y-99827289D01*
X315622743Y-99827289D01*
G37*
G36*
X175074000Y-100084000D02*
X172834000Y-100084000D01*
X172834000Y-97844000D01*
X175074000Y-97844000D01*
X175074000Y-100084000D01*
X175074000Y-100084000D01*
G37*
G36*
X193616000Y-100084000D02*
X191376000Y-100084000D01*
X191376000Y-97844000D01*
X193616000Y-97844000D01*
X193616000Y-100084000D01*
X193616000Y-100084000D01*
G37*
G36*
X302290465Y-98543834D02*
X302360016Y-98557669D01*
X302491048Y-98611944D01*
X302608973Y-98690739D01*
X302709261Y-98791027D01*
X302788056Y-98908952D01*
X302842331Y-99039984D01*
X302870000Y-99179086D01*
X302870000Y-99320914D01*
X302842331Y-99460016D01*
X302788056Y-99591048D01*
X302709261Y-99708973D01*
X302608973Y-99809261D01*
X302491048Y-99888056D01*
X302360016Y-99942331D01*
X302290465Y-99956166D01*
X302220916Y-99970000D01*
X302079084Y-99970000D01*
X302009535Y-99956166D01*
X301939984Y-99942331D01*
X301808952Y-99888056D01*
X301691027Y-99809261D01*
X301590739Y-99708973D01*
X301511944Y-99591048D01*
X301457669Y-99460016D01*
X301430000Y-99320914D01*
X301430000Y-99179086D01*
X301457669Y-99039984D01*
X301511944Y-98908952D01*
X301590739Y-98791027D01*
X301691027Y-98690739D01*
X301808952Y-98611944D01*
X301939984Y-98557669D01*
X302009535Y-98543834D01*
X302079084Y-98530000D01*
X302220916Y-98530000D01*
X302290465Y-98543834D01*
X302290465Y-98543834D01*
G37*
G36*
X289915465Y-98543834D02*
X289985016Y-98557669D01*
X290116048Y-98611944D01*
X290233973Y-98690739D01*
X290334261Y-98791027D01*
X290413056Y-98908952D01*
X290467331Y-99039984D01*
X290495000Y-99179086D01*
X290495000Y-99320914D01*
X290467331Y-99460016D01*
X290413056Y-99591048D01*
X290334261Y-99708973D01*
X290233973Y-99809261D01*
X290116048Y-99888056D01*
X289985016Y-99942331D01*
X289915465Y-99956166D01*
X289845916Y-99970000D01*
X289704084Y-99970000D01*
X289634535Y-99956166D01*
X289564984Y-99942331D01*
X289433952Y-99888056D01*
X289316027Y-99809261D01*
X289215739Y-99708973D01*
X289136944Y-99591048D01*
X289082669Y-99460016D01*
X289055000Y-99320914D01*
X289055000Y-99179086D01*
X289082669Y-99039984D01*
X289136944Y-98908952D01*
X289215739Y-98791027D01*
X289316027Y-98690739D01*
X289433952Y-98611944D01*
X289564984Y-98557669D01*
X289634535Y-98543834D01*
X289704084Y-98530000D01*
X289845916Y-98530000D01*
X289915465Y-98543834D01*
X289915465Y-98543834D01*
G37*
G36*
X313852487Y-98466253D02*
X313935016Y-98482669D01*
X314066048Y-98536944D01*
X314183973Y-98615739D01*
X314284261Y-98716027D01*
X314363056Y-98833952D01*
X314417331Y-98964984D01*
X314445000Y-99104086D01*
X314445000Y-99245914D01*
X314417331Y-99385016D01*
X314363056Y-99516048D01*
X314284261Y-99633973D01*
X314183973Y-99734261D01*
X314066048Y-99813056D01*
X313935016Y-99867331D01*
X313865465Y-99881166D01*
X313795916Y-99895000D01*
X313654084Y-99895000D01*
X313584535Y-99881165D01*
X313514984Y-99867331D01*
X313383952Y-99813056D01*
X313266027Y-99734261D01*
X313165739Y-99633973D01*
X313086944Y-99516048D01*
X313032669Y-99385016D01*
X313005000Y-99245914D01*
X313005000Y-99104086D01*
X313032669Y-98964984D01*
X313086944Y-98833952D01*
X313165739Y-98716027D01*
X313266027Y-98615739D01*
X313383952Y-98536944D01*
X313514984Y-98482669D01*
X313597513Y-98466253D01*
X313654084Y-98455000D01*
X313795916Y-98455000D01*
X313852487Y-98466253D01*
X313852487Y-98466253D01*
G37*
G36*
X210620000Y-99845000D02*
X208880000Y-99845000D01*
X208880000Y-97405000D01*
X210620000Y-97405000D01*
X210620000Y-99845000D01*
X210620000Y-99845000D01*
G37*
G36*
X206220000Y-99845000D02*
X204480000Y-99845000D01*
X204480000Y-97405000D01*
X206220000Y-97405000D01*
X206220000Y-99845000D01*
X206220000Y-99845000D01*
G37*
G36*
X241970000Y-99670000D02*
X241030000Y-99670000D01*
X241030000Y-98130000D01*
X241970000Y-98130000D01*
X241970000Y-99670000D01*
X241970000Y-99670000D01*
G37*
G36*
X240070000Y-99670000D02*
X239130000Y-99670000D01*
X239130000Y-98130000D01*
X240070000Y-98130000D01*
X240070000Y-99670000D01*
X240070000Y-99670000D01*
G37*
G36*
X222667058Y-99666253D02*
X221727058Y-99666253D01*
X221727058Y-98126253D01*
X222667058Y-98126253D01*
X222667058Y-99666253D01*
X222667058Y-99666253D01*
G37*
G36*
X224567058Y-99666253D02*
X223627058Y-99666253D01*
X223627058Y-98126253D01*
X224567058Y-98126253D01*
X224567058Y-99666253D01*
X224567058Y-99666253D01*
G37*
G36*
X238820000Y-99420000D02*
X237580000Y-99420000D01*
X237580000Y-98630000D01*
X238820000Y-98630000D01*
X238820000Y-99420000D01*
X238820000Y-99420000D01*
G37*
G36*
X236120000Y-99420000D02*
X234880000Y-99420000D01*
X234880000Y-98630000D01*
X236120000Y-98630000D01*
X236120000Y-99420000D01*
X236120000Y-99420000D01*
G37*
G36*
X226117058Y-99416253D02*
X224877058Y-99416253D01*
X224877058Y-98626253D01*
X226117058Y-98626253D01*
X226117058Y-99416253D01*
X226117058Y-99416253D01*
G37*
G36*
X228817058Y-99416253D02*
X227577058Y-99416253D01*
X227577058Y-98626253D01*
X228817058Y-98626253D01*
X228817058Y-99416253D01*
X228817058Y-99416253D01*
G37*
G36*
X213520000Y-99270000D02*
X211780000Y-99270000D01*
X211780000Y-96830000D01*
X213520000Y-96830000D01*
X213520000Y-99270000D01*
X213520000Y-99270000D01*
G37*
G36*
X217920000Y-99270000D02*
X216180000Y-99270000D01*
X216180000Y-96830000D01*
X217920000Y-96830000D01*
X217920000Y-99270000D01*
X217920000Y-99270000D01*
G37*
G36*
X304047743Y-96902289D02*
X304103770Y-96913433D01*
X304262100Y-96979016D01*
X304404593Y-97074227D01*
X304525773Y-97195407D01*
X304620984Y-97337900D01*
X304686567Y-97496230D01*
X304720000Y-97664312D01*
X304720000Y-97835688D01*
X304686567Y-98003770D01*
X304620984Y-98162100D01*
X304525773Y-98304593D01*
X304404593Y-98425773D01*
X304262100Y-98520984D01*
X304262099Y-98520985D01*
X304262098Y-98520985D01*
X304223567Y-98536945D01*
X304103770Y-98586567D01*
X304047743Y-98597711D01*
X303935690Y-98620000D01*
X303764310Y-98620000D01*
X303652257Y-98597711D01*
X303596230Y-98586567D01*
X303476433Y-98536945D01*
X303437902Y-98520985D01*
X303437901Y-98520985D01*
X303437900Y-98520984D01*
X303295407Y-98425773D01*
X303174227Y-98304593D01*
X303079016Y-98162100D01*
X303013433Y-98003770D01*
X302980000Y-97835688D01*
X302980000Y-97664312D01*
X303013433Y-97496230D01*
X303079016Y-97337900D01*
X303174227Y-97195407D01*
X303295407Y-97074227D01*
X303437900Y-96979016D01*
X303596230Y-96913433D01*
X303652257Y-96902289D01*
X303764310Y-96880000D01*
X303935690Y-96880000D01*
X304047743Y-96902289D01*
X304047743Y-96902289D01*
G37*
G36*
X291672743Y-96902289D02*
X291728770Y-96913433D01*
X291887100Y-96979016D01*
X292029593Y-97074227D01*
X292150773Y-97195407D01*
X292245984Y-97337900D01*
X292311567Y-97496230D01*
X292345000Y-97664312D01*
X292345000Y-97835688D01*
X292311567Y-98003770D01*
X292245984Y-98162100D01*
X292150773Y-98304593D01*
X292029593Y-98425773D01*
X291887100Y-98520984D01*
X291887099Y-98520985D01*
X291887098Y-98520985D01*
X291848567Y-98536945D01*
X291728770Y-98586567D01*
X291672743Y-98597711D01*
X291560690Y-98620000D01*
X291389310Y-98620000D01*
X291277257Y-98597711D01*
X291221230Y-98586567D01*
X291101433Y-98536945D01*
X291062902Y-98520985D01*
X291062901Y-98520985D01*
X291062900Y-98520984D01*
X290920407Y-98425773D01*
X290799227Y-98304593D01*
X290704016Y-98162100D01*
X290638433Y-98003770D01*
X290605000Y-97835688D01*
X290605000Y-97664312D01*
X290638433Y-97496230D01*
X290704016Y-97337900D01*
X290799227Y-97195407D01*
X290920407Y-97074227D01*
X291062900Y-96979016D01*
X291221230Y-96913433D01*
X291277257Y-96902289D01*
X291389310Y-96880000D01*
X291560690Y-96880000D01*
X291672743Y-96902289D01*
X291672743Y-96902289D01*
G37*
G36*
X236120000Y-98470000D02*
X234880000Y-98470000D01*
X234880000Y-97680000D01*
X236120000Y-97680000D01*
X236120000Y-98470000D01*
X236120000Y-98470000D01*
G37*
G36*
X279845000Y-98470000D02*
X278905000Y-98470000D01*
X278905000Y-96930000D01*
X279845000Y-96930000D01*
X279845000Y-98470000D01*
X279845000Y-98470000D01*
G37*
G36*
X281745000Y-98470000D02*
X280805000Y-98470000D01*
X280805000Y-96930000D01*
X281745000Y-96930000D01*
X281745000Y-98470000D01*
X281745000Y-98470000D01*
G37*
G36*
X238820000Y-98470000D02*
X237580000Y-98470000D01*
X237580000Y-97680000D01*
X238820000Y-97680000D01*
X238820000Y-98470000D01*
X238820000Y-98470000D01*
G37*
G36*
X226117058Y-98466253D02*
X224877058Y-98466253D01*
X224877058Y-97676253D01*
X226117058Y-97676253D01*
X226117058Y-98466253D01*
X226117058Y-98466253D01*
G37*
G36*
X228817058Y-98466253D02*
X227577058Y-98466253D01*
X227577058Y-97676253D01*
X228817058Y-97676253D01*
X228817058Y-98466253D01*
X228817058Y-98466253D01*
G37*
G36*
X315651732Y-92492213D02*
X315963023Y-92621154D01*
X316183139Y-92712329D01*
X316661392Y-93031888D01*
X317068112Y-93438608D01*
X317387671Y-93916861D01*
X317387671Y-93916862D01*
X317607787Y-94448268D01*
X317720000Y-95012403D01*
X317720000Y-95587597D01*
X317607787Y-96151732D01*
X317494275Y-96425773D01*
X317387671Y-96683139D01*
X317068112Y-97161392D01*
X316661392Y-97568112D01*
X316183139Y-97887671D01*
X315963023Y-97978846D01*
X315651732Y-98107787D01*
X315087597Y-98220000D01*
X314512403Y-98220000D01*
X313948268Y-98107787D01*
X313636977Y-97978846D01*
X313416861Y-97887671D01*
X312938608Y-97568112D01*
X312531888Y-97161392D01*
X312212329Y-96683139D01*
X312105725Y-96425773D01*
X311992213Y-96151732D01*
X311880000Y-95587597D01*
X311880000Y-95012403D01*
X311992213Y-94448268D01*
X312212329Y-93916862D01*
X312212329Y-93916861D01*
X312531888Y-93438608D01*
X312938608Y-93031888D01*
X313416861Y-92712329D01*
X313636977Y-92621154D01*
X313948268Y-92492213D01*
X314512403Y-92380000D01*
X315087597Y-92380000D01*
X315651732Y-92492213D01*
X315651732Y-92492213D01*
G37*
G36*
X240070000Y-97670000D02*
X239130000Y-97670000D01*
X239130000Y-96130000D01*
X240070000Y-96130000D01*
X240070000Y-97670000D01*
X240070000Y-97670000D01*
G37*
G36*
X241970000Y-97670000D02*
X241030000Y-97670000D01*
X241030000Y-96130000D01*
X241970000Y-96130000D01*
X241970000Y-97670000D01*
X241970000Y-97670000D01*
G37*
G36*
X224567058Y-97666253D02*
X223627058Y-97666253D01*
X223627058Y-96126253D01*
X224567058Y-96126253D01*
X224567058Y-97666253D01*
X224567058Y-97666253D01*
G37*
G36*
X222667058Y-97666253D02*
X221727058Y-97666253D01*
X221727058Y-96126253D01*
X222667058Y-96126253D01*
X222667058Y-97666253D01*
X222667058Y-97666253D01*
G37*
G36*
X238820000Y-97520000D02*
X237580000Y-97520000D01*
X237580000Y-96730000D01*
X238820000Y-96730000D01*
X238820000Y-97520000D01*
X238820000Y-97520000D01*
G37*
G36*
X236120000Y-97520000D02*
X234880000Y-97520000D01*
X234880000Y-96730000D01*
X236120000Y-96730000D01*
X236120000Y-97520000D01*
X236120000Y-97520000D01*
G37*
G36*
X226117058Y-97516253D02*
X224877058Y-97516253D01*
X224877058Y-96726253D01*
X226117058Y-96726253D01*
X226117058Y-97516253D01*
X226117058Y-97516253D01*
G37*
G36*
X228817058Y-97516253D02*
X227577058Y-97516253D01*
X227577058Y-96726253D01*
X228817058Y-96726253D01*
X228817058Y-97516253D01*
X228817058Y-97516253D01*
G37*
G36*
X304047743Y-94902289D02*
X304103770Y-94913433D01*
X304199543Y-94953104D01*
X304237961Y-94969017D01*
X304262100Y-94979016D01*
X304404593Y-95074227D01*
X304525773Y-95195407D01*
X304525775Y-95195410D01*
X304620985Y-95337902D01*
X304686567Y-95496231D01*
X304702379Y-95575721D01*
X304720000Y-95664312D01*
X304720000Y-95835688D01*
X304686567Y-96003770D01*
X304620984Y-96162100D01*
X304525773Y-96304593D01*
X304404593Y-96425773D01*
X304262100Y-96520984D01*
X304103770Y-96586567D01*
X304047743Y-96597711D01*
X303935690Y-96620000D01*
X303764310Y-96620000D01*
X303652257Y-96597711D01*
X303596230Y-96586567D01*
X303437900Y-96520984D01*
X303295407Y-96425773D01*
X303174227Y-96304593D01*
X303079016Y-96162100D01*
X303013433Y-96003770D01*
X302980000Y-95835688D01*
X302980000Y-95664312D01*
X302997622Y-95575721D01*
X303013433Y-95496231D01*
X303079015Y-95337902D01*
X303174225Y-95195410D01*
X303174227Y-95195407D01*
X303295407Y-95074227D01*
X303437900Y-94979016D01*
X303462040Y-94969017D01*
X303500457Y-94953104D01*
X303596230Y-94913433D01*
X303652257Y-94902289D01*
X303764310Y-94880000D01*
X303935690Y-94880000D01*
X304047743Y-94902289D01*
X304047743Y-94902289D01*
G37*
G36*
X291672743Y-94902289D02*
X291728770Y-94913433D01*
X291824543Y-94953104D01*
X291862961Y-94969017D01*
X291887100Y-94979016D01*
X292029593Y-95074227D01*
X292150773Y-95195407D01*
X292150775Y-95195410D01*
X292245985Y-95337902D01*
X292311567Y-95496231D01*
X292327379Y-95575721D01*
X292345000Y-95664312D01*
X292345000Y-95835688D01*
X292311567Y-96003770D01*
X292245984Y-96162100D01*
X292150773Y-96304593D01*
X292029593Y-96425773D01*
X291887100Y-96520984D01*
X291728770Y-96586567D01*
X291672743Y-96597711D01*
X291560690Y-96620000D01*
X291389310Y-96620000D01*
X291277257Y-96597711D01*
X291221230Y-96586567D01*
X291062900Y-96520984D01*
X290920407Y-96425773D01*
X290799227Y-96304593D01*
X290704016Y-96162100D01*
X290638433Y-96003770D01*
X290605000Y-95835688D01*
X290605000Y-95664312D01*
X290622622Y-95575721D01*
X290638433Y-95496231D01*
X290704015Y-95337902D01*
X290799225Y-95195410D01*
X290799227Y-95195407D01*
X290920407Y-95074227D01*
X291062900Y-94979016D01*
X291087040Y-94969017D01*
X291125457Y-94953104D01*
X291221230Y-94913433D01*
X291277257Y-94902289D01*
X291389310Y-94880000D01*
X291560690Y-94880000D01*
X291672743Y-94902289D01*
X291672743Y-94902289D01*
G37*
G36*
X279845000Y-96470000D02*
X278905000Y-96470000D01*
X278905000Y-94930000D01*
X279845000Y-94930000D01*
X279845000Y-96470000D01*
X279845000Y-96470000D01*
G37*
G36*
X281745000Y-96470000D02*
X280805000Y-96470000D01*
X280805000Y-94930000D01*
X281745000Y-94930000D01*
X281745000Y-96470000D01*
X281745000Y-96470000D01*
G37*
G36*
X238825000Y-95830000D02*
X237315000Y-95830000D01*
X237315000Y-94980000D01*
X238825000Y-94980000D01*
X238825000Y-95830000D01*
X238825000Y-95830000D01*
G37*
G36*
X236735000Y-95575000D02*
X233272500Y-95575000D01*
X233265184Y-95575721D01*
X233258149Y-95577855D01*
X233251666Y-95581320D01*
X233245983Y-95585983D01*
X233241320Y-95591666D01*
X233237855Y-95598149D01*
X233235721Y-95605184D01*
X233235000Y-95612500D01*
X233235000Y-95830000D01*
X231975000Y-95830000D01*
X231975000Y-94980000D01*
X232647500Y-94980000D01*
X232654816Y-94979279D01*
X232661851Y-94977145D01*
X232668334Y-94973680D01*
X232674017Y-94969017D01*
X232678680Y-94963334D01*
X232682145Y-94956851D01*
X232684279Y-94949816D01*
X232685000Y-94942500D01*
X232685000Y-94597500D01*
X232684279Y-94590184D01*
X232682145Y-94583149D01*
X232678680Y-94576666D01*
X232674017Y-94570983D01*
X232668334Y-94566320D01*
X232661851Y-94562855D01*
X232654816Y-94560721D01*
X232647500Y-94560000D01*
X231975000Y-94560000D01*
X231975000Y-93710000D01*
X232647500Y-93710000D01*
X232654816Y-93709279D01*
X232661851Y-93707145D01*
X232668334Y-93703680D01*
X232674017Y-93699017D01*
X232678680Y-93693334D01*
X232682145Y-93686851D01*
X232682706Y-93685000D01*
X236735000Y-93685000D01*
X236735000Y-95575000D01*
X236735000Y-95575000D01*
G37*
G36*
X226382058Y-95826253D02*
X224872058Y-95826253D01*
X224872058Y-94976253D01*
X226382058Y-94976253D01*
X226382058Y-95826253D01*
X226382058Y-95826253D01*
G37*
G36*
X231014913Y-93683104D02*
X231018378Y-93689587D01*
X231023041Y-93695270D01*
X231028724Y-93699933D01*
X231035207Y-93703398D01*
X231042242Y-93705532D01*
X231049558Y-93706253D01*
X231722058Y-93706253D01*
X231722058Y-94556253D01*
X231049558Y-94556253D01*
X231042242Y-94556974D01*
X231035207Y-94559108D01*
X231028724Y-94562573D01*
X231023041Y-94567236D01*
X231018378Y-94572919D01*
X231014913Y-94579402D01*
X231012779Y-94586437D01*
X231012058Y-94593753D01*
X231012058Y-94938753D01*
X231012779Y-94946069D01*
X231014913Y-94953104D01*
X231018378Y-94959587D01*
X231023041Y-94965270D01*
X231028724Y-94969933D01*
X231035207Y-94973398D01*
X231042242Y-94975532D01*
X231049558Y-94976253D01*
X231722058Y-94976253D01*
X231722058Y-95826253D01*
X230462058Y-95826253D01*
X230462058Y-95608753D01*
X230461337Y-95601437D01*
X230459203Y-95594402D01*
X230455738Y-95587919D01*
X230451075Y-95582236D01*
X230445392Y-95577573D01*
X230438909Y-95574108D01*
X230431874Y-95571974D01*
X230424558Y-95571253D01*
X226962058Y-95571253D01*
X226962058Y-93681253D01*
X231014352Y-93681253D01*
X231014913Y-93683104D01*
X231014913Y-93683104D01*
G37*
G36*
X304047743Y-92902289D02*
X304103770Y-92913433D01*
X304262100Y-92979016D01*
X304404593Y-93074227D01*
X304525773Y-93195407D01*
X304620984Y-93337900D01*
X304686567Y-93496230D01*
X304720000Y-93664312D01*
X304720000Y-93835688D01*
X304686567Y-94003770D01*
X304620984Y-94162100D01*
X304525773Y-94304593D01*
X304404593Y-94425773D01*
X304262100Y-94520984D01*
X304103770Y-94586567D01*
X304067643Y-94593753D01*
X303935690Y-94620000D01*
X303764310Y-94620000D01*
X303632357Y-94593753D01*
X303596230Y-94586567D01*
X303437900Y-94520984D01*
X303295407Y-94425773D01*
X303174227Y-94304593D01*
X303079016Y-94162100D01*
X303013433Y-94003770D01*
X302980000Y-93835688D01*
X302980000Y-93664312D01*
X303013433Y-93496230D01*
X303079016Y-93337900D01*
X303174227Y-93195407D01*
X303295407Y-93074227D01*
X303437900Y-92979016D01*
X303596230Y-92913433D01*
X303652257Y-92902289D01*
X303764310Y-92880000D01*
X303935690Y-92880000D01*
X304047743Y-92902289D01*
X304047743Y-92902289D01*
G37*
G36*
X291672743Y-92902289D02*
X291728770Y-92913433D01*
X291887100Y-92979016D01*
X292029593Y-93074227D01*
X292150773Y-93195407D01*
X292245984Y-93337900D01*
X292311567Y-93496230D01*
X292345000Y-93664312D01*
X292345000Y-93835688D01*
X292311567Y-94003770D01*
X292245984Y-94162100D01*
X292150773Y-94304593D01*
X292029593Y-94425773D01*
X291887100Y-94520984D01*
X291728770Y-94586567D01*
X291692643Y-94593753D01*
X291560690Y-94620000D01*
X291389310Y-94620000D01*
X291257357Y-94593753D01*
X291221230Y-94586567D01*
X291062900Y-94520984D01*
X290920407Y-94425773D01*
X290799227Y-94304593D01*
X290704016Y-94162100D01*
X290638433Y-94003770D01*
X290605000Y-93835688D01*
X290605000Y-93664312D01*
X290638433Y-93496230D01*
X290704016Y-93337900D01*
X290799227Y-93195407D01*
X290920407Y-93074227D01*
X291062900Y-92979016D01*
X291221230Y-92913433D01*
X291277257Y-92902289D01*
X291389310Y-92880000D01*
X291560690Y-92880000D01*
X291672743Y-92902289D01*
X291672743Y-92902289D01*
G37*
G36*
X238825000Y-94560000D02*
X237315000Y-94560000D01*
X237315000Y-93710000D01*
X238825000Y-93710000D01*
X238825000Y-94560000D01*
X238825000Y-94560000D01*
G37*
G36*
X226382058Y-94556253D02*
X224872058Y-94556253D01*
X224872058Y-93706253D01*
X226382058Y-93706253D01*
X226382058Y-94556253D01*
X226382058Y-94556253D01*
G37*
G36*
X281745000Y-94470000D02*
X280805000Y-94470000D01*
X280805000Y-92930000D01*
X281745000Y-92930000D01*
X281745000Y-94470000D01*
X281745000Y-94470000D01*
G37*
G36*
X279845000Y-94470000D02*
X278905000Y-94470000D01*
X278905000Y-92930000D01*
X279845000Y-92930000D01*
X279845000Y-94470000D01*
X279845000Y-94470000D01*
G37*
G36*
X233235000Y-91387500D02*
X233235721Y-91394816D01*
X233237855Y-91401851D01*
X233241320Y-91408334D01*
X233245983Y-91414017D01*
X233251666Y-91418680D01*
X233258149Y-91422145D01*
X233265184Y-91424279D01*
X233272500Y-91425000D01*
X236735000Y-91425000D01*
X236735000Y-93315000D01*
X232682706Y-93315000D01*
X232682145Y-93313149D01*
X232678680Y-93306666D01*
X232674017Y-93300983D01*
X232668334Y-93296320D01*
X232661851Y-93292855D01*
X232654816Y-93290721D01*
X232647500Y-93290000D01*
X231975000Y-93290000D01*
X231975000Y-92440000D01*
X232647500Y-92440000D01*
X232654816Y-92439279D01*
X232661851Y-92437145D01*
X232668334Y-92433680D01*
X232674017Y-92429017D01*
X232678680Y-92423334D01*
X232682145Y-92416851D01*
X232684279Y-92409816D01*
X232685000Y-92402500D01*
X232685000Y-92057500D01*
X232684279Y-92050184D01*
X232682145Y-92043149D01*
X232678680Y-92036666D01*
X232674017Y-92030983D01*
X232668334Y-92026320D01*
X232661851Y-92022855D01*
X232654816Y-92020721D01*
X232647500Y-92020000D01*
X231975000Y-92020000D01*
X231975000Y-91170000D01*
X233235000Y-91170000D01*
X233235000Y-91387500D01*
X233235000Y-91387500D01*
G37*
G36*
X231722058Y-92016253D02*
X231049558Y-92016253D01*
X231042242Y-92016974D01*
X231035207Y-92019108D01*
X231028724Y-92022573D01*
X231023041Y-92027236D01*
X231018378Y-92032919D01*
X231014913Y-92039402D01*
X231012779Y-92046437D01*
X231012058Y-92053753D01*
X231012058Y-92398753D01*
X231012779Y-92406069D01*
X231014913Y-92413104D01*
X231018378Y-92419587D01*
X231023041Y-92425270D01*
X231028724Y-92429933D01*
X231035207Y-92433398D01*
X231042242Y-92435532D01*
X231049558Y-92436253D01*
X231722058Y-92436253D01*
X231722058Y-93286253D01*
X231049558Y-93286253D01*
X231042242Y-93286974D01*
X231035207Y-93289108D01*
X231028724Y-93292573D01*
X231023041Y-93297236D01*
X231018378Y-93302919D01*
X231014913Y-93309402D01*
X231014352Y-93311253D01*
X226962058Y-93311253D01*
X226962058Y-91421253D01*
X230424558Y-91421253D01*
X230431874Y-91420532D01*
X230438909Y-91418398D01*
X230445392Y-91414933D01*
X230451075Y-91410270D01*
X230455738Y-91404587D01*
X230459203Y-91398104D01*
X230461337Y-91391069D01*
X230462058Y-91383753D01*
X230462058Y-91166253D01*
X231722058Y-91166253D01*
X231722058Y-92016253D01*
X231722058Y-92016253D01*
G37*
G36*
X238825000Y-93290000D02*
X237315000Y-93290000D01*
X237315000Y-92440000D01*
X238825000Y-92440000D01*
X238825000Y-93290000D01*
X238825000Y-93290000D01*
G37*
G36*
X226382058Y-93286253D02*
X224872058Y-93286253D01*
X224872058Y-92436253D01*
X226382058Y-92436253D01*
X226382058Y-93286253D01*
X226382058Y-93286253D01*
G37*
G36*
X200651732Y-87492213D02*
X200854622Y-87576253D01*
X201183139Y-87712329D01*
X201661392Y-88031888D01*
X202068112Y-88438608D01*
X202387671Y-88916861D01*
X202426233Y-89009958D01*
X202607787Y-89448268D01*
X202720000Y-90012403D01*
X202720000Y-90587597D01*
X202607787Y-91151732D01*
X202495778Y-91422145D01*
X202387671Y-91683139D01*
X202068112Y-92161392D01*
X201661392Y-92568112D01*
X201183139Y-92887671D01*
X201080947Y-92930000D01*
X200651732Y-93107787D01*
X200087597Y-93220000D01*
X199512403Y-93220000D01*
X198948268Y-93107787D01*
X198519053Y-92930000D01*
X198416861Y-92887671D01*
X197938608Y-92568112D01*
X197531888Y-92161392D01*
X197212329Y-91683139D01*
X197104222Y-91422145D01*
X196992213Y-91151732D01*
X196880000Y-90587597D01*
X196880000Y-90012403D01*
X196992213Y-89448268D01*
X197173767Y-89009958D01*
X197212329Y-88916861D01*
X197531888Y-88438608D01*
X197938608Y-88031888D01*
X198416861Y-87712329D01*
X198745378Y-87576253D01*
X198948268Y-87492213D01*
X199512403Y-87380000D01*
X200087597Y-87380000D01*
X200651732Y-87492213D01*
X200651732Y-87492213D01*
G37*
G36*
X291672743Y-90902289D02*
X291728770Y-90913433D01*
X291887100Y-90979016D01*
X292029593Y-91074227D01*
X292150773Y-91195407D01*
X292167206Y-91220000D01*
X292245985Y-91337902D01*
X292257840Y-91366522D01*
X292311567Y-91496230D01*
X292345000Y-91664312D01*
X292345000Y-91835688D01*
X292311567Y-92003770D01*
X292245984Y-92162100D01*
X292150773Y-92304593D01*
X292029593Y-92425773D01*
X291887100Y-92520984D01*
X291728770Y-92586567D01*
X291672743Y-92597711D01*
X291560690Y-92620000D01*
X291389310Y-92620000D01*
X291277257Y-92597711D01*
X291221230Y-92586567D01*
X291062900Y-92520984D01*
X290920407Y-92425773D01*
X290799227Y-92304593D01*
X290704016Y-92162100D01*
X290638433Y-92003770D01*
X290605000Y-91835688D01*
X290605000Y-91664312D01*
X290638433Y-91496230D01*
X290692160Y-91366522D01*
X290704015Y-91337902D01*
X290782795Y-91220000D01*
X290799227Y-91195407D01*
X290920407Y-91074227D01*
X291062900Y-90979016D01*
X291221230Y-90913433D01*
X291277257Y-90902289D01*
X291389310Y-90880000D01*
X291560690Y-90880000D01*
X291672743Y-90902289D01*
X291672743Y-90902289D01*
G37*
G36*
X304047743Y-90902289D02*
X304103770Y-90913433D01*
X304262100Y-90979016D01*
X304404593Y-91074227D01*
X304525773Y-91195407D01*
X304542206Y-91220000D01*
X304620985Y-91337902D01*
X304632840Y-91366522D01*
X304686567Y-91496230D01*
X304720000Y-91664312D01*
X304720000Y-91835688D01*
X304686567Y-92003770D01*
X304620984Y-92162100D01*
X304525773Y-92304593D01*
X304404593Y-92425773D01*
X304262100Y-92520984D01*
X304103770Y-92586567D01*
X304047743Y-92597711D01*
X303935690Y-92620000D01*
X303764310Y-92620000D01*
X303652257Y-92597711D01*
X303596230Y-92586567D01*
X303437900Y-92520984D01*
X303295407Y-92425773D01*
X303174227Y-92304593D01*
X303079016Y-92162100D01*
X303013433Y-92003770D01*
X302980000Y-91835688D01*
X302980000Y-91664312D01*
X303013433Y-91496230D01*
X303067160Y-91366522D01*
X303079015Y-91337902D01*
X303157795Y-91220000D01*
X303174227Y-91195407D01*
X303295407Y-91074227D01*
X303437900Y-90979016D01*
X303596230Y-90913433D01*
X303652257Y-90902289D01*
X303764310Y-90880000D01*
X303935690Y-90880000D01*
X304047743Y-90902289D01*
X304047743Y-90902289D01*
G37*
G36*
X279845000Y-92470000D02*
X278905000Y-92470000D01*
X278905000Y-90930000D01*
X279845000Y-90930000D01*
X279845000Y-92470000D01*
X279845000Y-92470000D01*
G37*
G36*
X281745000Y-92470000D02*
X280805000Y-92470000D01*
X280805000Y-90930000D01*
X281745000Y-90930000D01*
X281745000Y-92470000D01*
X281745000Y-92470000D01*
G37*
G36*
X238825000Y-92020000D02*
X237315000Y-92020000D01*
X237315000Y-91170000D01*
X238825000Y-91170000D01*
X238825000Y-92020000D01*
X238825000Y-92020000D01*
G37*
G36*
X226382058Y-92016253D02*
X224872058Y-92016253D01*
X224872058Y-91166253D01*
X226382058Y-91166253D01*
X226382058Y-92016253D01*
X226382058Y-92016253D01*
G37*
G36*
X192822687Y-89759039D02*
X193026522Y-89843470D01*
X193167845Y-89937900D01*
X193209958Y-89966039D01*
X193365961Y-90122042D01*
X193365963Y-90122045D01*
X193488530Y-90305478D01*
X193572961Y-90509313D01*
X193616000Y-90725687D01*
X193616000Y-90946313D01*
X193572961Y-91162687D01*
X193488530Y-91366522D01*
X193366514Y-91549131D01*
X193365961Y-91549958D01*
X193209958Y-91705961D01*
X193209955Y-91705963D01*
X193026522Y-91828530D01*
X192822687Y-91912961D01*
X192606313Y-91956000D01*
X192385687Y-91956000D01*
X192169313Y-91912961D01*
X191965478Y-91828530D01*
X191782045Y-91705963D01*
X191782042Y-91705961D01*
X191626039Y-91549958D01*
X191625486Y-91549131D01*
X191503470Y-91366522D01*
X191419039Y-91162687D01*
X191376000Y-90946313D01*
X191376000Y-90725687D01*
X191419039Y-90509313D01*
X191503470Y-90305478D01*
X191626037Y-90122045D01*
X191626039Y-90122042D01*
X191782042Y-89966039D01*
X191824155Y-89937900D01*
X191965478Y-89843470D01*
X192169313Y-89759039D01*
X192385687Y-89716000D01*
X192606313Y-89716000D01*
X192822687Y-89759039D01*
X192822687Y-89759039D01*
G37*
G36*
X174280687Y-89759039D02*
X174484522Y-89843470D01*
X174625845Y-89937900D01*
X174667958Y-89966039D01*
X174823961Y-90122042D01*
X174823963Y-90122045D01*
X174946530Y-90305478D01*
X175030961Y-90509313D01*
X175074000Y-90725687D01*
X175074000Y-90946313D01*
X175030961Y-91162687D01*
X174946530Y-91366522D01*
X174824514Y-91549131D01*
X174823961Y-91549958D01*
X174667958Y-91705961D01*
X174667955Y-91705963D01*
X174484522Y-91828530D01*
X174280687Y-91912961D01*
X174064313Y-91956000D01*
X173843687Y-91956000D01*
X173627313Y-91912961D01*
X173423478Y-91828530D01*
X173240045Y-91705963D01*
X173240042Y-91705961D01*
X173084039Y-91549958D01*
X173083486Y-91549131D01*
X172961470Y-91366522D01*
X172877039Y-91162687D01*
X172834000Y-90946313D01*
X172834000Y-90725687D01*
X172877039Y-90509313D01*
X172961470Y-90305478D01*
X173084037Y-90122045D01*
X173084039Y-90122042D01*
X173240042Y-89966039D01*
X173282155Y-89937900D01*
X173423478Y-89843470D01*
X173627313Y-89759039D01*
X173843687Y-89716000D01*
X174064313Y-89716000D01*
X174280687Y-89759039D01*
X174280687Y-89759039D01*
G37*
G36*
X210022743Y-89502289D02*
X210078770Y-89513433D01*
X210237100Y-89579016D01*
X210379593Y-89674227D01*
X210500773Y-89795407D01*
X210576642Y-89908952D01*
X210595985Y-89937902D01*
X210661567Y-90096231D01*
X210695000Y-90264310D01*
X210695000Y-90435690D01*
X210690161Y-90460016D01*
X210661567Y-90603770D01*
X210595984Y-90762100D01*
X210500773Y-90904593D01*
X210379593Y-91025773D01*
X210237100Y-91120984D01*
X210078770Y-91186567D01*
X210034312Y-91195410D01*
X209910690Y-91220000D01*
X209739310Y-91220000D01*
X209615688Y-91195410D01*
X209571230Y-91186567D01*
X209412900Y-91120984D01*
X209270407Y-91025773D01*
X209149227Y-90904593D01*
X209054016Y-90762100D01*
X208988433Y-90603770D01*
X208959839Y-90460016D01*
X208955000Y-90435690D01*
X208955000Y-90264310D01*
X208988433Y-90096231D01*
X209054015Y-89937902D01*
X209073359Y-89908952D01*
X209149227Y-89795407D01*
X209270407Y-89674227D01*
X209412900Y-89579016D01*
X209571230Y-89513433D01*
X209627257Y-89502289D01*
X209739310Y-89480000D01*
X209910690Y-89480000D01*
X210022743Y-89502289D01*
X210022743Y-89502289D01*
G37*
G36*
X216022743Y-89502289D02*
X216078770Y-89513433D01*
X216237100Y-89579016D01*
X216379593Y-89674227D01*
X216500773Y-89795407D01*
X216576642Y-89908952D01*
X216595985Y-89937902D01*
X216661567Y-90096231D01*
X216695000Y-90264310D01*
X216695000Y-90435690D01*
X216690161Y-90460016D01*
X216661567Y-90603770D01*
X216595984Y-90762100D01*
X216500773Y-90904593D01*
X216379593Y-91025773D01*
X216237100Y-91120984D01*
X216078770Y-91186567D01*
X216034312Y-91195410D01*
X215910690Y-91220000D01*
X215739310Y-91220000D01*
X215615688Y-91195410D01*
X215571230Y-91186567D01*
X215412900Y-91120984D01*
X215270407Y-91025773D01*
X215149227Y-90904593D01*
X215054016Y-90762100D01*
X214988433Y-90603770D01*
X214959839Y-90460016D01*
X214955000Y-90435690D01*
X214955000Y-90264310D01*
X214988433Y-90096231D01*
X215054015Y-89937902D01*
X215073359Y-89908952D01*
X215149227Y-89795407D01*
X215270407Y-89674227D01*
X215412900Y-89579016D01*
X215571230Y-89513433D01*
X215627257Y-89502289D01*
X215739310Y-89480000D01*
X215910690Y-89480000D01*
X216022743Y-89502289D01*
X216022743Y-89502289D01*
G37*
G36*
X214022743Y-89502289D02*
X214078770Y-89513433D01*
X214237100Y-89579016D01*
X214379593Y-89674227D01*
X214500773Y-89795407D01*
X214576642Y-89908952D01*
X214595985Y-89937902D01*
X214661567Y-90096231D01*
X214695000Y-90264310D01*
X214695000Y-90435690D01*
X214690161Y-90460016D01*
X214661567Y-90603770D01*
X214595984Y-90762100D01*
X214500773Y-90904593D01*
X214379593Y-91025773D01*
X214237100Y-91120984D01*
X214078770Y-91186567D01*
X214034312Y-91195410D01*
X213910690Y-91220000D01*
X213739310Y-91220000D01*
X213615688Y-91195410D01*
X213571230Y-91186567D01*
X213412900Y-91120984D01*
X213270407Y-91025773D01*
X213149227Y-90904593D01*
X213054016Y-90762100D01*
X212988433Y-90603770D01*
X212959839Y-90460016D01*
X212955000Y-90435690D01*
X212955000Y-90264310D01*
X212988433Y-90096231D01*
X213054015Y-89937902D01*
X213073359Y-89908952D01*
X213149227Y-89795407D01*
X213270407Y-89674227D01*
X213412900Y-89579016D01*
X213571230Y-89513433D01*
X213627257Y-89502289D01*
X213739310Y-89480000D01*
X213910690Y-89480000D01*
X214022743Y-89502289D01*
X214022743Y-89502289D01*
G37*
G36*
X218022743Y-89502289D02*
X218078770Y-89513433D01*
X218237100Y-89579016D01*
X218379593Y-89674227D01*
X218500773Y-89795407D01*
X218576642Y-89908952D01*
X218595985Y-89937902D01*
X218661567Y-90096231D01*
X218695000Y-90264310D01*
X218695000Y-90435690D01*
X218690161Y-90460016D01*
X218661567Y-90603770D01*
X218595984Y-90762100D01*
X218500773Y-90904593D01*
X218379593Y-91025773D01*
X218237100Y-91120984D01*
X218078770Y-91186567D01*
X218034312Y-91195410D01*
X217910690Y-91220000D01*
X217739310Y-91220000D01*
X217615688Y-91195410D01*
X217571230Y-91186567D01*
X217412900Y-91120984D01*
X217270407Y-91025773D01*
X217149227Y-90904593D01*
X217054016Y-90762100D01*
X216988433Y-90603770D01*
X216959839Y-90460016D01*
X216955000Y-90435690D01*
X216955000Y-90264310D01*
X216988433Y-90096231D01*
X217054015Y-89937902D01*
X217073359Y-89908952D01*
X217149227Y-89795407D01*
X217270407Y-89674227D01*
X217412900Y-89579016D01*
X217571230Y-89513433D01*
X217627257Y-89502289D01*
X217739310Y-89480000D01*
X217910690Y-89480000D01*
X218022743Y-89502289D01*
X218022743Y-89502289D01*
G37*
G36*
X212022743Y-89502289D02*
X212078770Y-89513433D01*
X212237100Y-89579016D01*
X212379593Y-89674227D01*
X212500773Y-89795407D01*
X212576642Y-89908952D01*
X212595985Y-89937902D01*
X212661567Y-90096231D01*
X212695000Y-90264310D01*
X212695000Y-90435690D01*
X212690161Y-90460016D01*
X212661567Y-90603770D01*
X212595984Y-90762100D01*
X212500773Y-90904593D01*
X212379593Y-91025773D01*
X212237100Y-91120984D01*
X212078770Y-91186567D01*
X212034312Y-91195410D01*
X211910690Y-91220000D01*
X211739310Y-91220000D01*
X211615688Y-91195410D01*
X211571230Y-91186567D01*
X211412900Y-91120984D01*
X211270407Y-91025773D01*
X211149227Y-90904593D01*
X211054016Y-90762100D01*
X210988433Y-90603770D01*
X210959839Y-90460016D01*
X210955000Y-90435690D01*
X210955000Y-90264310D01*
X210988433Y-90096231D01*
X211054015Y-89937902D01*
X211073359Y-89908952D01*
X211149227Y-89795407D01*
X211270407Y-89674227D01*
X211412900Y-89579016D01*
X211571230Y-89513433D01*
X211627257Y-89502289D01*
X211739310Y-89480000D01*
X211910690Y-89480000D01*
X212022743Y-89502289D01*
X212022743Y-89502289D01*
G37*
G36*
X208022743Y-89502289D02*
X208078770Y-89513433D01*
X208237100Y-89579016D01*
X208379593Y-89674227D01*
X208500773Y-89795407D01*
X208576642Y-89908952D01*
X208595985Y-89937902D01*
X208661567Y-90096231D01*
X208695000Y-90264310D01*
X208695000Y-90435690D01*
X208690161Y-90460016D01*
X208661567Y-90603770D01*
X208595984Y-90762100D01*
X208500773Y-90904593D01*
X208379593Y-91025773D01*
X208237100Y-91120984D01*
X208078770Y-91186567D01*
X208034312Y-91195410D01*
X207910690Y-91220000D01*
X207739310Y-91220000D01*
X207615688Y-91195410D01*
X207571230Y-91186567D01*
X207412900Y-91120984D01*
X207270407Y-91025773D01*
X207149227Y-90904593D01*
X207054016Y-90762100D01*
X206988433Y-90603770D01*
X206959839Y-90460016D01*
X206955000Y-90435690D01*
X206955000Y-90264310D01*
X206988433Y-90096231D01*
X207054015Y-89937902D01*
X207073359Y-89908952D01*
X207149227Y-89795407D01*
X207270407Y-89674227D01*
X207412900Y-89579016D01*
X207571230Y-89513433D01*
X207627257Y-89502289D01*
X207739310Y-89480000D01*
X207910690Y-89480000D01*
X208022743Y-89502289D01*
X208022743Y-89502289D01*
G37*
G36*
X206022743Y-89502289D02*
X206078770Y-89513433D01*
X206237100Y-89579016D01*
X206379593Y-89674227D01*
X206500773Y-89795407D01*
X206576642Y-89908952D01*
X206595985Y-89937902D01*
X206661567Y-90096231D01*
X206695000Y-90264310D01*
X206695000Y-90435690D01*
X206690161Y-90460016D01*
X206661567Y-90603770D01*
X206595984Y-90762100D01*
X206500773Y-90904593D01*
X206379593Y-91025773D01*
X206237100Y-91120984D01*
X206078770Y-91186567D01*
X206034312Y-91195410D01*
X205910690Y-91220000D01*
X205739310Y-91220000D01*
X205615688Y-91195410D01*
X205571230Y-91186567D01*
X205412900Y-91120984D01*
X205270407Y-91025773D01*
X205149227Y-90904593D01*
X205054016Y-90762100D01*
X204988433Y-90603770D01*
X204959839Y-90460016D01*
X204955000Y-90435690D01*
X204955000Y-90264310D01*
X204988433Y-90096231D01*
X205054015Y-89937902D01*
X205073359Y-89908952D01*
X205149227Y-89795407D01*
X205270407Y-89674227D01*
X205412900Y-89579016D01*
X205571230Y-89513433D01*
X205627257Y-89502289D01*
X205739310Y-89480000D01*
X205910690Y-89480000D01*
X206022743Y-89502289D01*
X206022743Y-89502289D01*
G37*
G36*
X196245000Y-91020000D02*
X194705000Y-91020000D01*
X194705000Y-90080000D01*
X196245000Y-90080000D01*
X196245000Y-91020000D01*
X196245000Y-91020000D01*
G37*
G36*
X302290465Y-89543835D02*
X302360016Y-89557669D01*
X302491048Y-89611944D01*
X302608973Y-89690739D01*
X302709261Y-89791027D01*
X302788056Y-89908952D01*
X302842331Y-90039984D01*
X302870000Y-90179086D01*
X302870000Y-90320914D01*
X302842331Y-90460016D01*
X302788056Y-90591048D01*
X302709261Y-90708973D01*
X302608973Y-90809261D01*
X302491048Y-90888056D01*
X302360016Y-90942331D01*
X302290465Y-90956166D01*
X302220916Y-90970000D01*
X302079084Y-90970000D01*
X302009535Y-90956166D01*
X301939984Y-90942331D01*
X301808952Y-90888056D01*
X301691027Y-90809261D01*
X301590739Y-90708973D01*
X301511944Y-90591048D01*
X301457669Y-90460016D01*
X301430000Y-90320914D01*
X301430000Y-90179086D01*
X301457669Y-90039984D01*
X301511944Y-89908952D01*
X301590739Y-89791027D01*
X301691027Y-89690739D01*
X301808952Y-89611944D01*
X301939984Y-89557669D01*
X302009535Y-89543834D01*
X302079084Y-89530000D01*
X302220916Y-89530000D01*
X302290465Y-89543835D01*
X302290465Y-89543835D01*
G37*
G36*
X289915465Y-89543835D02*
X289985016Y-89557669D01*
X290116048Y-89611944D01*
X290233973Y-89690739D01*
X290334261Y-89791027D01*
X290413056Y-89908952D01*
X290467331Y-90039984D01*
X290495000Y-90179086D01*
X290495000Y-90320914D01*
X290467331Y-90460016D01*
X290413056Y-90591048D01*
X290334261Y-90708973D01*
X290233973Y-90809261D01*
X290116048Y-90888056D01*
X289985016Y-90942331D01*
X289915465Y-90956166D01*
X289845916Y-90970000D01*
X289704084Y-90970000D01*
X289634535Y-90956166D01*
X289564984Y-90942331D01*
X289433952Y-90888056D01*
X289316027Y-90809261D01*
X289215739Y-90708973D01*
X289136944Y-90591048D01*
X289082669Y-90460016D01*
X289055000Y-90320914D01*
X289055000Y-90179086D01*
X289082669Y-90039984D01*
X289136944Y-89908952D01*
X289215739Y-89791027D01*
X289316027Y-89690739D01*
X289433952Y-89611944D01*
X289564984Y-89557669D01*
X289634535Y-89543834D01*
X289704084Y-89530000D01*
X289845916Y-89530000D01*
X289915465Y-89543835D01*
X289915465Y-89543835D01*
G37*
G36*
X240070000Y-90870000D02*
X239130000Y-90870000D01*
X239130000Y-89330000D01*
X240070000Y-89330000D01*
X240070000Y-90870000D01*
X240070000Y-90870000D01*
G37*
G36*
X241970000Y-90870000D02*
X241030000Y-90870000D01*
X241030000Y-89330000D01*
X241970000Y-89330000D01*
X241970000Y-90870000D01*
X241970000Y-90870000D01*
G37*
G36*
X222667058Y-90866253D02*
X221727058Y-90866253D01*
X221727058Y-89326253D01*
X222667058Y-89326253D01*
X222667058Y-90866253D01*
X222667058Y-90866253D01*
G37*
G36*
X224567058Y-90866253D02*
X223627058Y-90866253D01*
X223627058Y-89326253D01*
X224567058Y-89326253D01*
X224567058Y-90866253D01*
X224567058Y-90866253D01*
G37*
G36*
X238820000Y-90270000D02*
X237580000Y-90270000D01*
X237580000Y-89480000D01*
X238820000Y-89480000D01*
X238820000Y-90270000D01*
X238820000Y-90270000D01*
G37*
G36*
X236120000Y-90270000D02*
X234880000Y-90270000D01*
X234880000Y-89480000D01*
X236120000Y-89480000D01*
X236120000Y-90270000D01*
X236120000Y-90270000D01*
G37*
G36*
X226117058Y-90266253D02*
X224877058Y-90266253D01*
X224877058Y-89476253D01*
X226117058Y-89476253D01*
X226117058Y-90266253D01*
X226117058Y-90266253D01*
G37*
G36*
X228817058Y-90266253D02*
X227577058Y-90266253D01*
X227577058Y-89476253D01*
X228817058Y-89476253D01*
X228817058Y-90266253D01*
X228817058Y-90266253D01*
G37*
G36*
X192822687Y-87219039D02*
X193026522Y-87303470D01*
X193141056Y-87380000D01*
X193209958Y-87426039D01*
X193365961Y-87582042D01*
X193365963Y-87582045D01*
X193488530Y-87765478D01*
X193572961Y-87969313D01*
X193616000Y-88185687D01*
X193616000Y-88406313D01*
X193572961Y-88622687D01*
X193488530Y-88826522D01*
X193428166Y-88916862D01*
X193365961Y-89009958D01*
X193209958Y-89165961D01*
X193209955Y-89165963D01*
X193026522Y-89288530D01*
X192822687Y-89372961D01*
X192606313Y-89416000D01*
X192385687Y-89416000D01*
X192169313Y-89372961D01*
X191965478Y-89288530D01*
X191782045Y-89165963D01*
X191782042Y-89165961D01*
X191626039Y-89009958D01*
X191563834Y-88916862D01*
X191503470Y-88826522D01*
X191419039Y-88622687D01*
X191376000Y-88406313D01*
X191376000Y-88185687D01*
X191419039Y-87969313D01*
X191503470Y-87765478D01*
X191626037Y-87582045D01*
X191626039Y-87582042D01*
X191782042Y-87426039D01*
X191850944Y-87380000D01*
X191965478Y-87303470D01*
X192169313Y-87219039D01*
X192385687Y-87176000D01*
X192606313Y-87176000D01*
X192822687Y-87219039D01*
X192822687Y-87219039D01*
G37*
G36*
X174280687Y-87219039D02*
X174484522Y-87303470D01*
X174599056Y-87380000D01*
X174667958Y-87426039D01*
X174823961Y-87582042D01*
X174823963Y-87582045D01*
X174946530Y-87765478D01*
X175030961Y-87969313D01*
X175074000Y-88185687D01*
X175074000Y-88406313D01*
X175030961Y-88622687D01*
X174946530Y-88826522D01*
X174886166Y-88916862D01*
X174823961Y-89009958D01*
X174667958Y-89165961D01*
X174667955Y-89165963D01*
X174484522Y-89288530D01*
X174280687Y-89372961D01*
X174064313Y-89416000D01*
X173843687Y-89416000D01*
X173627313Y-89372961D01*
X173423478Y-89288530D01*
X173240045Y-89165963D01*
X173240042Y-89165961D01*
X173084039Y-89009958D01*
X173021834Y-88916862D01*
X172961470Y-88826522D01*
X172877039Y-88622687D01*
X172834000Y-88406313D01*
X172834000Y-88185687D01*
X172877039Y-87969313D01*
X172961470Y-87765478D01*
X173084037Y-87582045D01*
X173084039Y-87582042D01*
X173240042Y-87426039D01*
X173308944Y-87380000D01*
X173423478Y-87303470D01*
X173627313Y-87219039D01*
X173843687Y-87176000D01*
X174064313Y-87176000D01*
X174280687Y-87219039D01*
X174280687Y-87219039D01*
G37*
G36*
X219465465Y-87943834D02*
X219535016Y-87957669D01*
X219666048Y-88011944D01*
X219783973Y-88090739D01*
X219884261Y-88191027D01*
X219963056Y-88308952D01*
X220017331Y-88439984D01*
X220045000Y-88579086D01*
X220045000Y-88720914D01*
X220017331Y-88860016D01*
X219963056Y-88991048D01*
X219884261Y-89108973D01*
X219783973Y-89209261D01*
X219666048Y-89288056D01*
X219535016Y-89342331D01*
X219465465Y-89356165D01*
X219395916Y-89370000D01*
X219254084Y-89370000D01*
X219184535Y-89356165D01*
X219114984Y-89342331D01*
X218983952Y-89288056D01*
X218866027Y-89209261D01*
X218765739Y-89108973D01*
X218686944Y-88991048D01*
X218632669Y-88860016D01*
X218605000Y-88720914D01*
X218605000Y-88579086D01*
X218632669Y-88439984D01*
X218686944Y-88308952D01*
X218765739Y-88191027D01*
X218866027Y-88090739D01*
X218983952Y-88011944D01*
X219114984Y-87957669D01*
X219184535Y-87943834D01*
X219254084Y-87930000D01*
X219395916Y-87930000D01*
X219465465Y-87943834D01*
X219465465Y-87943834D01*
G37*
G36*
X204465465Y-87943834D02*
X204535016Y-87957669D01*
X204666048Y-88011944D01*
X204783973Y-88090739D01*
X204884261Y-88191027D01*
X204963056Y-88308952D01*
X205017331Y-88439984D01*
X205045000Y-88579086D01*
X205045000Y-88720914D01*
X205017331Y-88860016D01*
X204963056Y-88991048D01*
X204884261Y-89108973D01*
X204783973Y-89209261D01*
X204666048Y-89288056D01*
X204535016Y-89342331D01*
X204465465Y-89356165D01*
X204395916Y-89370000D01*
X204254084Y-89370000D01*
X204184535Y-89356165D01*
X204114984Y-89342331D01*
X203983952Y-89288056D01*
X203866027Y-89209261D01*
X203765739Y-89108973D01*
X203686944Y-88991048D01*
X203632669Y-88860016D01*
X203605000Y-88720914D01*
X203605000Y-88579086D01*
X203632669Y-88439984D01*
X203686944Y-88308952D01*
X203765739Y-88191027D01*
X203866027Y-88090739D01*
X203983952Y-88011944D01*
X204114984Y-87957669D01*
X204184535Y-87943834D01*
X204254084Y-87930000D01*
X204395916Y-87930000D01*
X204465465Y-87943834D01*
X204465465Y-87943834D01*
G37*
G36*
X236120000Y-89320000D02*
X234880000Y-89320000D01*
X234880000Y-88530000D01*
X236120000Y-88530000D01*
X236120000Y-89320000D01*
X236120000Y-89320000D01*
G37*
G36*
X238820000Y-89320000D02*
X237580000Y-89320000D01*
X237580000Y-88530000D01*
X238820000Y-88530000D01*
X238820000Y-89320000D01*
X238820000Y-89320000D01*
G37*
G36*
X228817058Y-89316253D02*
X227577058Y-89316253D01*
X227577058Y-88526253D01*
X228817058Y-88526253D01*
X228817058Y-89316253D01*
X228817058Y-89316253D01*
G37*
G36*
X226117058Y-89316253D02*
X224877058Y-89316253D01*
X224877058Y-88526253D01*
X226117058Y-88526253D01*
X226117058Y-89316253D01*
X226117058Y-89316253D01*
G37*
G36*
X196245000Y-89120000D02*
X194705000Y-89120000D01*
X194705000Y-88180000D01*
X196245000Y-88180000D01*
X196245000Y-89120000D01*
X196245000Y-89120000D01*
G37*
G36*
X241970000Y-88870000D02*
X241030000Y-88870000D01*
X241030000Y-87330000D01*
X241970000Y-87330000D01*
X241970000Y-88870000D01*
X241970000Y-88870000D01*
G37*
G36*
X240070000Y-88870000D02*
X239130000Y-88870000D01*
X239130000Y-87330000D01*
X240070000Y-87330000D01*
X240070000Y-88870000D01*
X240070000Y-88870000D01*
G37*
G36*
X224569558Y-88866254D02*
X223629558Y-88866254D01*
X223629558Y-87326254D01*
X224569558Y-87326254D01*
X224569558Y-88866254D01*
X224569558Y-88866254D01*
G37*
G36*
X222669558Y-88866254D02*
X221729558Y-88866254D01*
X221729558Y-87326254D01*
X222669558Y-87326254D01*
X222669558Y-88866254D01*
X222669558Y-88866254D01*
G37*
G36*
X238820000Y-88370000D02*
X237580000Y-88370000D01*
X237580000Y-87580000D01*
X238820000Y-87580000D01*
X238820000Y-88370000D01*
X238820000Y-88370000D01*
G37*
G36*
X236120000Y-88370000D02*
X234880000Y-88370000D01*
X234880000Y-87580000D01*
X236120000Y-87580000D01*
X236120000Y-88370000D01*
X236120000Y-88370000D01*
G37*
G36*
X228817058Y-88366253D02*
X227577058Y-88366253D01*
X227577058Y-87576253D01*
X228817058Y-87576253D01*
X228817058Y-88366253D01*
X228817058Y-88366253D01*
G37*
G36*
X226117058Y-88366253D02*
X224877058Y-88366253D01*
X224877058Y-87576253D01*
X226117058Y-87576253D01*
X226117058Y-88366253D01*
X226117058Y-88366253D01*
G37*
M02*
